<?xml version="1.0" encoding="utf-8" standalone="no"?>
<!DOCTYPE svg PUBLIC "-//W3C//DTD SVG 1.1//EN"
  "http://www.w3.org/Graphics/SVG/1.1/DTD/svg11.dtd">
<svg xmlns:xlink="http://www.w3.org/1999/xlink" width="360pt" height="288pt" viewBox="0 0 360 288" xmlns="http://www.w3.org/2000/svg" version="1.1">
 <metadata>
  <rdf:RDF xmlns:dc="http://purl.org/dc/elements/1.1/" xmlns:cc="http://creativecommons.org/ns#" xmlns:rdf="http://www.w3.org/1999/02/22-rdf-syntax-ns#">
   <cc:Work>
    <dc:type rdf:resource="http://purl.org/dc/dcmitype/StillImage"/>
    <dc:date>2025-05-06T14:04:51.430148</dc:date>
    <dc:format>image/svg+xml</dc:format>
    <dc:creator>
     <cc:Agent>
      <dc:title>Matplotlib v3.10.1, https://matplotlib.org/</dc:title>
     </cc:Agent>
    </dc:creator>
   </cc:Work>
  </rdf:RDF>
 </metadata>
 <defs>
  <style type="text/css">*{stroke-linejoin: round; stroke-linecap: butt}</style>
 </defs>
 <g id="figure_1">
  <g id="patch_1">
   <path d="M 0 288 
L 360 288 
L 360 0 
L 0 0 
z
" style="fill: #ffffff"/>
  </g>
  <g id="axes_1">
   <g id="patch_2">
    <path d="M 45 256.32 
L 324 256.32 
L 324 34.56 
L 45 34.56 
z
" style="fill: #ffffff"/>
   </g>
   <g id="matplotlib.axis_1">
    <g id="xtick_1">
     <g id="line2d_1">
      <defs>
       <path id="m26a639ecc1" d="M 0 0 
L 0 3.5 
" style="stroke: #000000; stroke-width: 0.8"/>
      </defs>
      <g>
       <use xlink:href="#m26a639ecc1" x="100.777678" y="256.32" style="stroke: #000000; stroke-width: 0.8"/>
      </g>
     </g>
     <g id="text_1">
      <!-- 2000 -->
      <g transform="translate(88.052678 270.918437) scale(0.1 -0.1)">
       <defs>
        <path id="DejaVuSans-32" d="M 1228 531 
L 3431 531 
L 3431 0 
L 469 0 
L 469 531 
Q 828 903 1448 1529 
Q 2069 2156 2228 2338 
Q 2531 2678 2651 2914 
Q 2772 3150 2772 3378 
Q 2772 3750 2511 3984 
Q 2250 4219 1831 4219 
Q 1534 4219 1204 4116 
Q 875 4013 500 3803 
L 500 4441 
Q 881 4594 1212 4672 
Q 1544 4750 1819 4750 
Q 2544 4750 2975 4387 
Q 3406 4025 3406 3419 
Q 3406 3131 3298 2873 
Q 3191 2616 2906 2266 
Q 2828 2175 2409 1742 
Q 1991 1309 1228 531 
z
" transform="scale(0.015625)"/>
        <path id="DejaVuSans-30" d="M 2034 4250 
Q 1547 4250 1301 3770 
Q 1056 3291 1056 2328 
Q 1056 1369 1301 889 
Q 1547 409 2034 409 
Q 2525 409 2770 889 
Q 3016 1369 3016 2328 
Q 3016 3291 2770 3770 
Q 2525 4250 2034 4250 
z
M 2034 4750 
Q 2819 4750 3233 4129 
Q 3647 3509 3647 2328 
Q 3647 1150 3233 529 
Q 2819 -91 2034 -91 
Q 1250 -91 836 529 
Q 422 1150 422 2328 
Q 422 3509 836 4129 
Q 1250 4750 2034 4750 
z
" transform="scale(0.015625)"/>
       </defs>
       <use xlink:href="#DejaVuSans-32"/>
       <use xlink:href="#DejaVuSans-30" transform="translate(63.623047 0)"/>
       <use xlink:href="#DejaVuSans-30" transform="translate(127.246094 0)"/>
       <use xlink:href="#DejaVuSans-30" transform="translate(190.869141 0)"/>
      </g>
     </g>
    </g>
    <g id="xtick_2">
     <g id="line2d_2">
      <g>
       <use xlink:href="#m26a639ecc1" x="156.583258" y="256.32" style="stroke: #000000; stroke-width: 0.8"/>
      </g>
     </g>
     <g id="text_2">
      <!-- 4000 -->
      <g transform="translate(143.858258 270.918437) scale(0.1 -0.1)">
       <defs>
        <path id="DejaVuSans-34" d="M 2419 4116 
L 825 1625 
L 2419 1625 
L 2419 4116 
z
M 2253 4666 
L 3047 4666 
L 3047 1625 
L 3713 1625 
L 3713 1100 
L 3047 1100 
L 3047 0 
L 2419 0 
L 2419 1100 
L 313 1100 
L 313 1709 
L 2253 4666 
z
" transform="scale(0.015625)"/>
       </defs>
       <use xlink:href="#DejaVuSans-34"/>
       <use xlink:href="#DejaVuSans-30" transform="translate(63.623047 0)"/>
       <use xlink:href="#DejaVuSans-30" transform="translate(127.246094 0)"/>
       <use xlink:href="#DejaVuSans-30" transform="translate(190.869141 0)"/>
      </g>
     </g>
    </g>
    <g id="xtick_3">
     <g id="line2d_3">
      <g>
       <use xlink:href="#m26a639ecc1" x="212.388839" y="256.32" style="stroke: #000000; stroke-width: 0.8"/>
      </g>
     </g>
     <g id="text_3">
      <!-- 6000 -->
      <g transform="translate(199.663839 270.918437) scale(0.1 -0.1)">
       <defs>
        <path id="DejaVuSans-36" d="M 2113 2584 
Q 1688 2584 1439 2293 
Q 1191 2003 1191 1497 
Q 1191 994 1439 701 
Q 1688 409 2113 409 
Q 2538 409 2786 701 
Q 3034 994 3034 1497 
Q 3034 2003 2786 2293 
Q 2538 2584 2113 2584 
z
M 3366 4563 
L 3366 3988 
Q 3128 4100 2886 4159 
Q 2644 4219 2406 4219 
Q 1781 4219 1451 3797 
Q 1122 3375 1075 2522 
Q 1259 2794 1537 2939 
Q 1816 3084 2150 3084 
Q 2853 3084 3261 2657 
Q 3669 2231 3669 1497 
Q 3669 778 3244 343 
Q 2819 -91 2113 -91 
Q 1303 -91 875 529 
Q 447 1150 447 2328 
Q 447 3434 972 4092 
Q 1497 4750 2381 4750 
Q 2619 4750 2861 4703 
Q 3103 4656 3366 4563 
z
" transform="scale(0.015625)"/>
       </defs>
       <use xlink:href="#DejaVuSans-36"/>
       <use xlink:href="#DejaVuSans-30" transform="translate(63.623047 0)"/>
       <use xlink:href="#DejaVuSans-30" transform="translate(127.246094 0)"/>
       <use xlink:href="#DejaVuSans-30" transform="translate(190.869141 0)"/>
      </g>
     </g>
    </g>
    <g id="xtick_4">
     <g id="line2d_4">
      <g>
       <use xlink:href="#m26a639ecc1" x="268.194419" y="256.32" style="stroke: #000000; stroke-width: 0.8"/>
      </g>
     </g>
     <g id="text_4">
      <!-- 8000 -->
      <g transform="translate(255.469419 270.918437) scale(0.1 -0.1)">
       <defs>
        <path id="DejaVuSans-38" d="M 2034 2216 
Q 1584 2216 1326 1975 
Q 1069 1734 1069 1313 
Q 1069 891 1326 650 
Q 1584 409 2034 409 
Q 2484 409 2743 651 
Q 3003 894 3003 1313 
Q 3003 1734 2745 1975 
Q 2488 2216 2034 2216 
z
M 1403 2484 
Q 997 2584 770 2862 
Q 544 3141 544 3541 
Q 544 4100 942 4425 
Q 1341 4750 2034 4750 
Q 2731 4750 3128 4425 
Q 3525 4100 3525 3541 
Q 3525 3141 3298 2862 
Q 3072 2584 2669 2484 
Q 3125 2378 3379 2068 
Q 3634 1759 3634 1313 
Q 3634 634 3220 271 
Q 2806 -91 2034 -91 
Q 1263 -91 848 271 
Q 434 634 434 1313 
Q 434 1759 690 2068 
Q 947 2378 1403 2484 
z
M 1172 3481 
Q 1172 3119 1398 2916 
Q 1625 2713 2034 2713 
Q 2441 2713 2670 2916 
Q 2900 3119 2900 3481 
Q 2900 3844 2670 4047 
Q 2441 4250 2034 4250 
Q 1625 4250 1398 4047 
Q 1172 3844 1172 3481 
z
" transform="scale(0.015625)"/>
       </defs>
       <use xlink:href="#DejaVuSans-38"/>
       <use xlink:href="#DejaVuSans-30" transform="translate(63.623047 0)"/>
       <use xlink:href="#DejaVuSans-30" transform="translate(127.246094 0)"/>
       <use xlink:href="#DejaVuSans-30" transform="translate(190.869141 0)"/>
      </g>
     </g>
    </g>
    <g id="xtick_5">
     <g id="line2d_5">
      <g>
       <use xlink:href="#m26a639ecc1" x="324" y="256.32" style="stroke: #000000; stroke-width: 0.8"/>
      </g>
     </g>
     <g id="text_5">
      <!-- 10000 -->
      <g transform="translate(308.09375 270.918437) scale(0.1 -0.1)">
       <defs>
        <path id="DejaVuSans-31" d="M 794 531 
L 1825 531 
L 1825 4091 
L 703 3866 
L 703 4441 
L 1819 4666 
L 2450 4666 
L 2450 531 
L 3481 531 
L 3481 0 
L 794 0 
L 794 531 
z
" transform="scale(0.015625)"/>
       </defs>
       <use xlink:href="#DejaVuSans-31"/>
       <use xlink:href="#DejaVuSans-30" transform="translate(63.623047 0)"/>
       <use xlink:href="#DejaVuSans-30" transform="translate(127.246094 0)"/>
       <use xlink:href="#DejaVuSans-30" transform="translate(190.869141 0)"/>
       <use xlink:href="#DejaVuSans-30" transform="translate(254.492188 0)"/>
      </g>
     </g>
    </g>
    <g id="text_6">
     <!-- timestep -->
     <g transform="translate(153.543594 287.635938) scale(0.14 -0.14)">
      <defs>
       <path id="DejaVuSans-74" d="M 1172 4494 
L 1172 3500 
L 2356 3500 
L 2356 3053 
L 1172 3053 
L 1172 1153 
Q 1172 725 1289 603 
Q 1406 481 1766 481 
L 2356 481 
L 2356 0 
L 1766 0 
Q 1100 0 847 248 
Q 594 497 594 1153 
L 594 3053 
L 172 3053 
L 172 3500 
L 594 3500 
L 594 4494 
L 1172 4494 
z
" transform="scale(0.015625)"/>
       <path id="DejaVuSans-69" d="M 603 3500 
L 1178 3500 
L 1178 0 
L 603 0 
L 603 3500 
z
M 603 4863 
L 1178 4863 
L 1178 4134 
L 603 4134 
L 603 4863 
z
" transform="scale(0.015625)"/>
       <path id="DejaVuSans-6d" d="M 3328 2828 
Q 3544 3216 3844 3400 
Q 4144 3584 4550 3584 
Q 5097 3584 5394 3201 
Q 5691 2819 5691 2113 
L 5691 0 
L 5113 0 
L 5113 2094 
Q 5113 2597 4934 2840 
Q 4756 3084 4391 3084 
Q 3944 3084 3684 2787 
Q 3425 2491 3425 1978 
L 3425 0 
L 2847 0 
L 2847 2094 
Q 2847 2600 2669 2842 
Q 2491 3084 2119 3084 
Q 1678 3084 1418 2786 
Q 1159 2488 1159 1978 
L 1159 0 
L 581 0 
L 581 3500 
L 1159 3500 
L 1159 2956 
Q 1356 3278 1631 3431 
Q 1906 3584 2284 3584 
Q 2666 3584 2933 3390 
Q 3200 3197 3328 2828 
z
" transform="scale(0.015625)"/>
       <path id="DejaVuSans-65" d="M 3597 1894 
L 3597 1613 
L 953 1613 
Q 991 1019 1311 708 
Q 1631 397 2203 397 
Q 2534 397 2845 478 
Q 3156 559 3463 722 
L 3463 178 
Q 3153 47 2828 -22 
Q 2503 -91 2169 -91 
Q 1331 -91 842 396 
Q 353 884 353 1716 
Q 353 2575 817 3079 
Q 1281 3584 2069 3584 
Q 2775 3584 3186 3129 
Q 3597 2675 3597 1894 
z
M 3022 2063 
Q 3016 2534 2758 2815 
Q 2500 3097 2075 3097 
Q 1594 3097 1305 2825 
Q 1016 2553 972 2059 
L 3022 2063 
z
" transform="scale(0.015625)"/>
       <path id="DejaVuSans-73" d="M 2834 3397 
L 2834 2853 
Q 2591 2978 2328 3040 
Q 2066 3103 1784 3103 
Q 1356 3103 1142 2972 
Q 928 2841 928 2578 
Q 928 2378 1081 2264 
Q 1234 2150 1697 2047 
L 1894 2003 
Q 2506 1872 2764 1633 
Q 3022 1394 3022 966 
Q 3022 478 2636 193 
Q 2250 -91 1575 -91 
Q 1294 -91 989 -36 
Q 684 19 347 128 
L 347 722 
Q 666 556 975 473 
Q 1284 391 1588 391 
Q 1994 391 2212 530 
Q 2431 669 2431 922 
Q 2431 1156 2273 1281 
Q 2116 1406 1581 1522 
L 1381 1569 
Q 847 1681 609 1914 
Q 372 2147 372 2553 
Q 372 3047 722 3315 
Q 1072 3584 1716 3584 
Q 2034 3584 2315 3537 
Q 2597 3491 2834 3397 
z
" transform="scale(0.015625)"/>
       <path id="DejaVuSans-70" d="M 1159 525 
L 1159 -1331 
L 581 -1331 
L 581 3500 
L 1159 3500 
L 1159 2969 
Q 1341 3281 1617 3432 
Q 1894 3584 2278 3584 
Q 2916 3584 3314 3078 
Q 3713 2572 3713 1747 
Q 3713 922 3314 415 
Q 2916 -91 2278 -91 
Q 1894 -91 1617 61 
Q 1341 213 1159 525 
z
M 3116 1747 
Q 3116 2381 2855 2742 
Q 2594 3103 2138 3103 
Q 1681 3103 1420 2742 
Q 1159 2381 1159 1747 
Q 1159 1113 1420 752 
Q 1681 391 2138 391 
Q 2594 391 2855 752 
Q 3116 1113 3116 1747 
z
" transform="scale(0.015625)"/>
      </defs>
      <use xlink:href="#DejaVuSans-74"/>
      <use xlink:href="#DejaVuSans-69" transform="translate(39.208984 0)"/>
      <use xlink:href="#DejaVuSans-6d" transform="translate(66.992188 0)"/>
      <use xlink:href="#DejaVuSans-65" transform="translate(164.404297 0)"/>
      <use xlink:href="#DejaVuSans-73" transform="translate(225.927734 0)"/>
      <use xlink:href="#DejaVuSans-74" transform="translate(278.027344 0)"/>
      <use xlink:href="#DejaVuSans-65" transform="translate(317.236328 0)"/>
      <use xlink:href="#DejaVuSans-70" transform="translate(378.759766 0)"/>
     </g>
    </g>
   </g>
   <g id="matplotlib.axis_2">
    <g id="ytick_1">
     <g id="line2d_6">
      <defs>
       <path id="me2b624cfb5" d="M 0 0 
L -3.5 0 
" style="stroke: #000000; stroke-width: 0.8"/>
      </defs>
      <g>
       <use xlink:href="#me2b624cfb5" x="45" y="246.24" style="stroke: #000000; stroke-width: 0.8"/>
      </g>
     </g>
     <g id="text_7">
      <!-- 0.0 -->
      <g transform="translate(22.096875 250.039219) scale(0.1 -0.1)">
       <defs>
        <path id="DejaVuSans-2e" d="M 684 794 
L 1344 794 
L 1344 0 
L 684 0 
L 684 794 
z
" transform="scale(0.015625)"/>
       </defs>
       <use xlink:href="#DejaVuSans-30"/>
       <use xlink:href="#DejaVuSans-2e" transform="translate(63.623047 0)"/>
       <use xlink:href="#DejaVuSans-30" transform="translate(95.410156 0)"/>
      </g>
     </g>
    </g>
    <g id="ytick_2">
     <g id="line2d_7">
      <g>
       <use xlink:href="#me2b624cfb5" x="45" y="205.92" style="stroke: #000000; stroke-width: 0.8"/>
      </g>
     </g>
     <g id="text_8">
      <!-- 0.2 -->
      <g transform="translate(22.096875 209.719219) scale(0.1 -0.1)">
       <use xlink:href="#DejaVuSans-30"/>
       <use xlink:href="#DejaVuSans-2e" transform="translate(63.623047 0)"/>
       <use xlink:href="#DejaVuSans-32" transform="translate(95.410156 0)"/>
      </g>
     </g>
    </g>
    <g id="ytick_3">
     <g id="line2d_8">
      <g>
       <use xlink:href="#me2b624cfb5" x="45" y="165.6" style="stroke: #000000; stroke-width: 0.8"/>
      </g>
     </g>
     <g id="text_9">
      <!-- 0.4 -->
      <g transform="translate(22.096875 169.399219) scale(0.1 -0.1)">
       <use xlink:href="#DejaVuSans-30"/>
       <use xlink:href="#DejaVuSans-2e" transform="translate(63.623047 0)"/>
       <use xlink:href="#DejaVuSans-34" transform="translate(95.410156 0)"/>
      </g>
     </g>
    </g>
    <g id="ytick_4">
     <g id="line2d_9">
      <g>
       <use xlink:href="#me2b624cfb5" x="45" y="125.28" style="stroke: #000000; stroke-width: 0.8"/>
      </g>
     </g>
     <g id="text_10">
      <!-- 0.6 -->
      <g transform="translate(22.096875 129.079219) scale(0.1 -0.1)">
       <use xlink:href="#DejaVuSans-30"/>
       <use xlink:href="#DejaVuSans-2e" transform="translate(63.623047 0)"/>
       <use xlink:href="#DejaVuSans-36" transform="translate(95.410156 0)"/>
      </g>
     </g>
    </g>
    <g id="ytick_5">
     <g id="line2d_10">
      <g>
       <use xlink:href="#me2b624cfb5" x="45" y="84.96" style="stroke: #000000; stroke-width: 0.8"/>
      </g>
     </g>
     <g id="text_11">
      <!-- 0.8 -->
      <g transform="translate(22.096875 88.759219) scale(0.1 -0.1)">
       <use xlink:href="#DejaVuSans-30"/>
       <use xlink:href="#DejaVuSans-2e" transform="translate(63.623047 0)"/>
       <use xlink:href="#DejaVuSans-38" transform="translate(95.410156 0)"/>
      </g>
     </g>
    </g>
    <g id="ytick_6">
     <g id="line2d_11">
      <g>
       <use xlink:href="#me2b624cfb5" x="45" y="44.64" style="stroke: #000000; stroke-width: 0.8"/>
      </g>
     </g>
     <g id="text_12">
      <!-- 1.0 -->
      <g transform="translate(22.096875 48.439219) scale(0.1 -0.1)">
       <use xlink:href="#DejaVuSans-31"/>
       <use xlink:href="#DejaVuSans-2e" transform="translate(63.623047 0)"/>
       <use xlink:href="#DejaVuSans-30" transform="translate(95.410156 0)"/>
      </g>
     </g>
    </g>
    <g id="text_13">
     <!-- amount -->
     <g transform="translate(15.185312 172.447969) rotate(-90) scale(0.14 -0.14)">
      <defs>
       <path id="DejaVuSans-61" d="M 2194 1759 
Q 1497 1759 1228 1600 
Q 959 1441 959 1056 
Q 959 750 1161 570 
Q 1363 391 1709 391 
Q 2188 391 2477 730 
Q 2766 1069 2766 1631 
L 2766 1759 
L 2194 1759 
z
M 3341 1997 
L 3341 0 
L 2766 0 
L 2766 531 
Q 2569 213 2275 61 
Q 1981 -91 1556 -91 
Q 1019 -91 701 211 
Q 384 513 384 1019 
Q 384 1609 779 1909 
Q 1175 2209 1959 2209 
L 2766 2209 
L 2766 2266 
Q 2766 2663 2505 2880 
Q 2244 3097 1772 3097 
Q 1472 3097 1187 3025 
Q 903 2953 641 2809 
L 641 3341 
Q 956 3463 1253 3523 
Q 1550 3584 1831 3584 
Q 2591 3584 2966 3190 
Q 3341 2797 3341 1997 
z
" transform="scale(0.015625)"/>
       <path id="DejaVuSans-6f" d="M 1959 3097 
Q 1497 3097 1228 2736 
Q 959 2375 959 1747 
Q 959 1119 1226 758 
Q 1494 397 1959 397 
Q 2419 397 2687 759 
Q 2956 1122 2956 1747 
Q 2956 2369 2687 2733 
Q 2419 3097 1959 3097 
z
M 1959 3584 
Q 2709 3584 3137 3096 
Q 3566 2609 3566 1747 
Q 3566 888 3137 398 
Q 2709 -91 1959 -91 
Q 1206 -91 779 398 
Q 353 888 353 1747 
Q 353 2609 779 3096 
Q 1206 3584 1959 3584 
z
" transform="scale(0.015625)"/>
       <path id="DejaVuSans-75" d="M 544 1381 
L 544 3500 
L 1119 3500 
L 1119 1403 
Q 1119 906 1312 657 
Q 1506 409 1894 409 
Q 2359 409 2629 706 
Q 2900 1003 2900 1516 
L 2900 3500 
L 3475 3500 
L 3475 0 
L 2900 0 
L 2900 538 
Q 2691 219 2414 64 
Q 2138 -91 1772 -91 
Q 1169 -91 856 284 
Q 544 659 544 1381 
z
M 1991 3584 
L 1991 3584 
z
" transform="scale(0.015625)"/>
       <path id="DejaVuSans-6e" d="M 3513 2113 
L 3513 0 
L 2938 0 
L 2938 2094 
Q 2938 2591 2744 2837 
Q 2550 3084 2163 3084 
Q 1697 3084 1428 2787 
Q 1159 2491 1159 1978 
L 1159 0 
L 581 0 
L 581 3500 
L 1159 3500 
L 1159 2956 
Q 1366 3272 1645 3428 
Q 1925 3584 2291 3584 
Q 2894 3584 3203 3211 
Q 3513 2838 3513 2113 
z
" transform="scale(0.015625)"/>
      </defs>
      <use xlink:href="#DejaVuSans-61"/>
      <use xlink:href="#DejaVuSans-6d" transform="translate(61.279297 0)"/>
      <use xlink:href="#DejaVuSans-6f" transform="translate(158.691406 0)"/>
      <use xlink:href="#DejaVuSans-75" transform="translate(219.873047 0)"/>
      <use xlink:href="#DejaVuSans-6e" transform="translate(283.251953 0)"/>
      <use xlink:href="#DejaVuSans-74" transform="translate(346.630859 0)"/>
     </g>
    </g>
   </g>
   <g id="line2d_12">
    <path d="M 45 226.077296 
L 45.055806 226.172953 
L 45.251125 227.605911 
L 45.585959 229.682792 
L 45.753375 229.825893 
L 45.920792 229.603432 
L 46.255626 229.231811 
L 46.785779 229.214701 
L 47.120612 228.725987 
L 47.39964 227.977794 
L 47.762376 226.334945 
L 48.40414 223.46763 
L 48.822682 222.790532 
L 49.380738 222.271984 
L 49.715572 221.182244 
L 50.413141 217.545661 
L 51.027003 213.223577 
L 51.752475 207.89429 
L 52.505851 203.777556 
L 53.370837 198.089687 
L 53.956796 191.90349 
L 54.933393 181.86121 
L 55.240324 180.732701 
L 55.686769 179.972303 
L 56.244824 177.666344 
L 56.9982 173.727062 
L 57.416742 169.932232 
L 57.946895 165.348901 
L 58.309631 163.803194 
L 58.477048 163.598886 
L 58.50495 163.61459 
L 58.70027 163.895716 
L 58.979298 164.132005 
L 59.425743 164.077652 
L 59.676868 163.753682 
L 60.067507 162.70362 
L 60.541854 160.165408 
L 61.462646 154.798868 
L 61.657966 154.683596 
L 62.10441 154.891773 
L 62.550855 155.459069 
L 62.746175 155.379713 
L 62.9973 155.100748 
L 63.49955 154.112615 
L 64.69937 149.368412 
L 64.894689 149.341906 
L 65.313231 149.406216 
L 65.648065 149.807112 
L 65.982898 150.04518 
L 66.178218 149.97933 
L 66.373537 149.525989 
L 67.09901 147.190494 
L 68.10351 143.072472 
L 68.29883 142.986722 
L 68.494149 143.167788 
L 69.024302 143.920849 
L 69.247525 143.854794 
L 69.470747 143.59246 
L 69.861386 142.595296 
L 71.340234 138.078721 
L 71.507651 138.065916 
L 71.730873 138.255087 
L 72.59586 139.388236 
L 72.791179 139.398422 
L 73.070207 139.06739 
L 73.377138 138.583189 
L 74.493249 135.842285 
L 74.80018 135.706926 
L 75.107111 135.740111 
L 75.665167 135.760683 
L 75.944194 135.624986 
L 76.223222 135.118144 
L 76.669667 133.818587 
L 77.506751 131.342914 
L 77.70207 131.262145 
L 78.232223 131.138346 
L 78.622862 131.0545 
L 78.846085 131.24294 
L 79.09721 131.435394 
L 79.292529 131.282116 
L 79.627363 130.589308 
L 81.217822 127.085104 
L 82.278128 126.767064 
L 82.69667 126.329852 
L 82.975698 125.52485 
L 83.924392 122.801806 
L 84.147615 122.68159 
L 84.873087 122.789472 
L 85.263726 122.66611 
L 85.486949 122.424435 
L 86.324032 120.66324 
L 86.826283 119.380242 
L 87.523852 118.330568 
L 87.719172 118.31771 
L 88.221422 118.426034 
L 88.50045 118.353695 
L 88.751575 118.059217 
L 89.616562 116.529597 
L 90.453645 114.734617 
L 90.927993 114.262777 
L 92.351035 113.627405 
L 92.741674 113.106404 
L 93.076508 112.456013 
L 93.774077 110.84197 
L 94.192619 110.637044 
L 94.49955 110.645916 
L 95.0018 110.33528 
L 95.810981 109.24922 
L 96.564356 107.937697 
L 97.122412 107.226612 
L 97.987399 106.619551 
L 98.517552 106.456898 
L 98.852385 106.017822 
L 100.359136 103.568004 
L 100.666067 103.412589 
L 101.112511 103.342652 
L 101.50315 103.210618 
L 101.949595 102.873591 
L 102.423942 101.973464 
L 103.261026 100.240886 
L 104.377138 98.672504 
L 104.935194 98.322449 
L 105.716472 98.09043 
L 107.223222 96.514832 
L 107.558056 96.69456 
L 107.920792 96.861708 
L 108.562556 96.873904 
L 109.036904 96.259492 
L 109.762376 95.289056 
L 110.348335 94.92949 
L 110.990099 94.697886 
L 111.380738 94.511627 
L 111.910891 94.11973 
L 112.245725 93.607402 
L 112.747975 92.823911 
L 113.473447 92.281907 
L 115.091809 91.661239 
L 115.39874 91.07893 
L 115.984698 90.060262 
L 116.347435 89.742941 
L 117.463546 89.298232 
L 118.691269 88.606755 
L 119.444644 87.795812 
L 119.918992 87.670187 
L 120.532853 87.62774 
L 121.593159 87.315387 
L 122.039604 87.252924 
L 122.513951 86.782543 
L 123.044104 86.363907 
L 124.662466 85.632926 
L 124.941494 85.481382 
L 125.387939 84.943001 
L 126.029703 84.107174 
L 126.364536 84.202601 
L 126.727273 84.381036 
L 127.285329 84.688411 
L 127.871287 84.552438 
L 129.266427 83.202264 
L 130.159316 82.966755 
L 130.689469 82.980704 
L 131.331233 82.738482 
L 133.451845 81.688383 
L 134.065707 81.485229 
L 134.707471 81.025353 
L 135.014401 80.940722 
L 135.79568 80.51459 
L 136.046805 80.494774 
L 136.409541 80.430889 
L 136.80018 80.539644 
L 137.916292 80.935099 
L 138.892889 80.464733 
L 140.064806 80.305457 
L 140.539154 79.950086 
L 141.125113 79.501558 
L 141.543654 79.152758 
L 141.962196 78.871242 
L 143.329433 78.598986 
L 143.9991 78.458571 
L 144.50135 78.363725 
L 147.068407 78.418958 
L 147.961296 78.806706 
L 148.435644 78.61634 
L 149.272727 78.349965 
L 149.607561 78.422735 
L 150.305131 78.57741 
L 151.672367 78.342882 
L 152.927993 78.160875 
L 153.792979 78.151933 
L 154.211521 78.005745 
L 154.630063 77.907198 
L 155.718272 78.063374 
L 156.025203 78.077571 
L 156.778578 77.897999 
L 157.280828 77.960347 
L 157.838884 77.921818 
L 158.675968 77.632917 
L 159.289829 77.702556 
L 159.792079 77.752303 
L 160.60126 77.581592 
L 161.494149 77.311055 
L 162.470747 77.289809 
L 163.391539 77.222112 
L 164.256526 77.287696 
L 164.89829 77.334211 
L 165.707471 77.376303 
L 166.656166 77.136921 
L 168.581458 76.683773 
L 170.534653 76.620834 
L 171.343834 76.617529 
L 172.09721 76.497547 
L 175.361836 76.544552 
L 176.143114 76.681355 
L 177.705671 76.386988 
L 178.514851 75.987711 
L 179.268227 75.77393 
L 180.635464 75.599687 
L 181.667867 75.796356 
L 183.258326 75.828891 
L 183.788479 75.674518 
L 184.681368 75.398955 
L 185.518452 75.21062 
L 187.025203 75.263734 
L 189.145815 75.535757 
L 192.661566 74.756118 
L 195.005401 74.767659 
L 199.218722 74.954128 
L 202.009001 74.784333 
L 202.985599 74.774969 
L 203.711071 74.561987 
L 204.324932 74.449069 
L 205.775878 74.463097 
L 207.0036 74.515316 
L 208.761476 74.562292 
L 210.268227 74.641598 
L 211.133213 74.770129 
L 213.086409 75.370041 
L 213.728173 75.345141 
L 214.369937 75.12198 
L 215.90459 74.571692 
L 218.694869 74.44126 
L 221.234023 75.032773 
L 222.154815 75.074112 
L 223.717372 74.978291 
L 225.279928 74.784793 
L 228.042304 74.821093 
L 229.549055 74.500166 
L 232.674167 74.726505 
L 234.850585 74.603877 
L 235.743474 74.762584 
L 236.664266 74.863171 
L 237.557156 74.864448 
L 238.533753 74.73316 
L 239.39874 74.62886 
L 241.60306 74.851506 
L 242.133213 74.956374 
L 243.221422 74.93815 
L 244.532853 74.856788 
L 246.179118 74.361893 
L 246.876688 74.507606 
L 248.467147 75.041498 
L 250.531953 75.093453 
L 252.066607 74.967437 
L 254.494149 74.522922 
L 255.414941 74.358386 
L 256.252025 74.482301 
L 258.707471 75.09501 
L 260.493249 75.018851 
L 263.39514 74.741327 
L 265.878488 74.92579 
L 269.784878 74.836971 
L 270.454545 74.814844 
L 271.291629 74.886102 
L 272.351935 75.091814 
L 273.328533 75.261522 
L 276.676868 75.077573 
L 278.462646 75.020282 
L 279.718272 74.808342 
L 282.145815 74.481385 
L 285.131413 74.834876 
L 285.884788 75.00158 
L 287.810081 74.993065 
L 289.428443 74.710716 
L 290.767777 74.805227 
L 292.190819 74.907713 
L 293.083708 74.934147 
L 293.948695 74.894228 
L 295.846085 74.736813 
L 297.269127 74.641738 
L 299.612961 74.804242 
L 300.338434 74.871008 
L 305.556256 74.781262 
L 306.114311 74.711159 
L 307.118812 74.592194 
L 308.513951 74.715256 
L 310.076508 74.937298 
L 311.360036 74.766813 
L 313.70387 74.188498 
L 314.90369 74.32003 
L 320.763276 75.141935 
L 321.851485 75.219398 
L 323.30243 75.159406 
L 324 75.11503 
L 324 75.11503 
" clip-path="url(#pa199b68c50)" style="fill: none; stroke: #000000; stroke-width: 1.5; stroke-linecap: square"/>
   </g>
   <g id="line2d_13">
    <path d="M 45 232.492359 
L 45.111611 232.67547 
L 45.613861 233.948694 
L 45.753375 233.819333 
L 46.562556 232.808817 
L 46.70207 232.892673 
L 46.89739 232.941555 
L 47.232223 232.934949 
L 47.483348 232.393267 
L 47.929793 231.298914 
L 48.180918 231.15032 
L 48.906391 231.256116 
L 49.185419 231.100956 
L 49.380738 230.701212 
L 49.855086 229.503869 
L 50.050405 229.433428 
L 50.441044 229.534282 
L 50.692169 229.435371 
L 51.166517 229.043461 
L 51.417642 229.072708 
L 51.668767 229.29159 
L 52.059406 229.549289 
L 52.673267 229.796442 
L 53.594059 230.809358 
L 53.621962 230.78213 
L 53.956796 230.207803 
L 54.347435 229.584326 
L 54.793879 229.477307 
L 54.989199 229.629052 
L 55.407741 229.968562 
L 56.077408 229.766878 
L 56.607561 229.847556 
L 56.858686 229.956943 
L 57.081908 229.959051 
L 57.779478 229.578671 
L 58.588659 229.840283 
L 59.146715 229.952746 
L 59.593159 230.01952 
L 60.40234 230.284377 
L 60.59766 230.310199 
L 61.462646 229.908544 
L 62.271827 229.853627 
L 62.634563 230.046143 
L 63.164716 230.45123 
L 63.527453 230.36061 
L 64.085509 230.139662 
L 64.559856 230.038071 
L 65.229523 229.79103 
L 66.652565 229.090997 
L 66.90369 229.106959 
L 67.154815 229.179415 
L 67.489649 228.999754 
L 68.159316 228.544536 
L 68.912691 229.192428 
L 69.108011 229.108746 
L 69.693969 228.631205 
L 70.168317 228.541106 
L 70.837984 228.277927 
L 71.033303 228.355165 
L 71.451845 228.512463 
L 71.842484 228.460223 
L 72.205221 228.385203 
L 72.512151 228.609806 
L 72.791179 229.002746 
L 73.237624 229.454033 
L 73.572457 229.474841 
L 73.851485 229.249257 
L 74.381638 228.842437 
L 75.135014 228.597856 
L 75.525653 228.39602 
L 76.167417 227.982053 
L 76.641764 227.967732 
L 77.255626 227.563469 
L 77.534653 227.578816 
L 77.869487 227.645493 
L 78.260126 227.455845 
L 79.09721 227.064136 
L 79.794779 226.785609 
L 80.771377 226.066 
L 81.608461 225.066586 
L 81.887489 224.827771 
L 82.138614 224.86748 
L 82.445545 225.229365 
L 82.780378 225.522389 
L 83.505851 225.725876 
L 83.840684 225.686944 
L 84.287129 225.914148 
L 84.621962 226.010892 
L 84.984698 225.981907 
L 85.793879 225.664555 
L 86.324032 225.422361 
L 86.630963 225.436645 
L 86.993699 225.478625 
L 87.635464 225.181777 
L 88.137714 225.153709 
L 88.556256 225.060032 
L 89.114311 225.102466 
L 89.70027 225.196644 
L 90.732673 225.376906 
L 92.183618 225.203423 
L 92.713771 224.971909 
L 93.10441 224.857273 
L 94.025203 224.397677 
L 95.029703 224.321493 
L 95.587759 224.026058 
L 96.675968 223.978542 
L 97.066607 224.270679 
L 99.215122 224.341382 
L 100.777678 223.494545 
L 101.168317 223.491865 
L 102.39604 223.837237 
L 103.121512 223.51041 
L 103.512151 223.425729 
L 103.874887 223.129154 
L 104.126013 223.029624 
L 104.851485 222.896591 
L 105.828083 222.264373 
L 106.246625 222.213603 
L 106.49775 222.211543 
L 106.916292 221.834901 
L 107.251125 221.711244 
L 109.315932 221.672494 
L 109.762376 221.496942 
L 110.09721 221.208883 
L 110.515752 220.944532 
L 111.29703 221.170516 
L 111.743474 220.969179 
L 113.417642 220.008132 
L 113.69667 219.976701 
L 114.366337 219.810629 
L 115.594059 220.065753 
L 116.291629 219.78229 
L 117.324032 219.44423 
L 117.965797 219.431635 
L 118.49595 219.38011 
L 118.914491 219.451296 
L 119.50045 219.400884 
L 120.421242 219.241632 
L 120.756076 219.217303 
L 121.118812 219.127329 
L 121.481548 219.193242 
L 122.234923 219.275514 
L 123.016202 218.813474 
L 124.550855 219.152957 
L 125.806481 218.760863 
L 126.866787 218.146215 
L 127.452745 218.08282 
L 127.89919 217.770414 
L 128.206121 217.698147 
L 128.736274 217.639415 
L 129.963996 217.29112 
L 130.522052 217.521204 
L 131.080108 217.701161 
L 131.582358 217.694841 
L 132.335734 217.430368 
L 132.949595 217.649951 
L 133.423942 217.724261 
L 134.009901 217.726676 
L 135.070207 217.864151 
L 135.544554 217.734903 
L 136.716472 217.186794 
L 138.334833 217.105463 
L 138.892889 217.300369 
L 139.981098 217.550745 
L 141.348335 217.366046 
L 141.962196 217.289848 
L 142.492349 217.364106 
L 143.245725 217.664568 
L 143.552655 217.685139 
L 144.110711 217.515408 
L 144.557156 217.437486 
L 145.087309 217.429762 
L 145.561656 217.332656 
L 145.952295 217.182593 
L 146.287129 217.096263 
L 146.873087 217.231183 
L 147.263726 217.280769 
L 148.714671 217.381561 
L 149.049505 217.433196 
L 149.858686 217.209187 
L 150.639964 216.991247 
L 152.146715 217.076478 
L 152.816382 217.050076 
L 154.072007 216.788108 
L 155.216022 216.557095 
L 159.485149 216.439445 
L 160.908191 216.178814 
L 162.554455 216.113765 
L 163.084608 216.138306 
L 163.642664 216.18074 
L 166.265527 216.13075 
L 167.549055 216.039796 
L 168.30243 216.044293 
L 169.19532 216.059625 
L 171.009001 216.201493 
L 171.846085 216.354625 
L 172.515752 216.299813 
L 173.324932 216.297126 
L 174.273627 216.35909 
L 175.389739 216.259277 
L 175.947795 216.266557 
L 176.450045 216.140977 
L 177.342934 215.977222 
L 178.235824 215.953929 
L 182.337534 216.157819 
L 183.732673 216.098326 
L 184.625563 216.139855 
L 185.351035 216.168398 
L 187.443744 216.023081 
L 188.50405 216.003873 
L 189.452745 216.080146 
L 190.094509 216.142812 
L 191.182718 216.195016 
L 193.275428 216.294078 
L 195.563456 216.121133 
L 197.293429 216.178124 
L 201.562556 216.294734 
L 202.846085 216.273777 
L 206.333933 216.278209 
L 207.19892 216.245101 
L 208.649865 216.291581 
L 209.431143 216.271398 
L 210.212421 216.255734 
L 210.993699 216.242662 
L 213.839784 216.262823 
L 215.067507 216.328503 
L 215.681368 216.294852 
L 217.020702 216.335772 
L 218.49955 216.316992 
L 220.145815 216.199776 
L 222.433843 216.200165 
L 224.721872 216.254395 
L 226.20072 216.310453 
L 226.786679 216.29962 
L 227.958596 216.338591 
L 229.9955 216.2616 
L 230.972097 216.223785 
L 234.934293 216.352925 
L 235.938794 216.378208 
L 237.612961 216.376224 
L 241.491449 216.326996 
L 243.193519 216.381421 
L 245.732673 216.36471 
L 255.442844 216.308591 
L 256.363636 216.265607 
L 258.763276 216.277882 
L 263.39514 216.226696 
L 264.343834 216.214665 
L 266.520252 216.270376 
L 268.975698 216.186233 
L 270.119712 216.15097 
L 271.59856 216.090639 
L 272.575158 216.109809 
L 274.221422 216.179051 
L 275.839784 216.109323 
L 278.378938 216.195626 
L 280.471647 216.251612 
L 281.978398 215.9681 
L 283.485149 215.809907 
L 284.60126 215.78614 
L 285.605761 215.770152 
L 290.544554 215.998245 
L 297.60396 215.972448 
L 298.413141 215.962244 
L 301.315032 215.870233 
L 302.375338 215.716553 
L 312.448245 215.672611 
L 314.038704 215.575542 
L 315.350135 215.582629 
L 319.758776 215.436354 
L 320.707471 215.333384 
L 321.544554 215.23241 
L 322.158416 215.262933 
L 322.9955 215.181976 
L 323.832583 215.248908 
L 324 215.245421 
L 324 215.245421 
" clip-path="url(#pa199b68c50)" style="fill: none; stroke: #ff0000; stroke-width: 1.5; stroke-linecap: square"/>
   </g>
   <g id="patch_3">
    <path d="M 45 256.32 
L 45 34.56 
" style="fill: none; stroke: #000000; stroke-width: 0.8; stroke-linejoin: miter; stroke-linecap: square"/>
   </g>
   <g id="patch_4">
    <path d="M 324 256.32 
L 324 34.56 
" style="fill: none; stroke: #000000; stroke-width: 0.8; stroke-linejoin: miter; stroke-linecap: square"/>
   </g>
   <g id="patch_5">
    <path d="M 45 256.32 
L 324 256.32 
" style="fill: none; stroke: #000000; stroke-width: 0.8; stroke-linejoin: miter; stroke-linecap: square"/>
   </g>
   <g id="patch_6">
    <path d="M 45 34.56 
L 324 34.56 
" style="fill: none; stroke: #000000; stroke-width: 0.8; stroke-linejoin: miter; stroke-linecap: square"/>
   </g>
   <g id="text_14">
    <!-- Mean quantities over time -->
    <g transform="translate(65.4175 28.56) scale(0.16 -0.16)">
     <defs>
      <path id="DejaVuSans-Bold-4d" d="M 588 4666 
L 2119 4666 
L 3181 2169 
L 4250 4666 
L 5778 4666 
L 5778 0 
L 4641 0 
L 4641 3413 
L 3566 897 
L 2803 897 
L 1728 3413 
L 1728 0 
L 588 0 
L 588 4666 
z
" transform="scale(0.015625)"/>
      <path id="DejaVuSans-Bold-65" d="M 4031 1759 
L 4031 1441 
L 1416 1441 
Q 1456 1047 1700 850 
Q 1944 653 2381 653 
Q 2734 653 3104 758 
Q 3475 863 3866 1075 
L 3866 213 
Q 3469 63 3072 -14 
Q 2675 -91 2278 -91 
Q 1328 -91 801 392 
Q 275 875 275 1747 
Q 275 2603 792 3093 
Q 1309 3584 2216 3584 
Q 3041 3584 3536 3087 
Q 4031 2591 4031 1759 
z
M 2881 2131 
Q 2881 2450 2695 2645 
Q 2509 2841 2209 2841 
Q 1884 2841 1681 2658 
Q 1478 2475 1428 2131 
L 2881 2131 
z
" transform="scale(0.015625)"/>
      <path id="DejaVuSans-Bold-61" d="M 2106 1575 
Q 1756 1575 1579 1456 
Q 1403 1338 1403 1106 
Q 1403 894 1545 773 
Q 1688 653 1941 653 
Q 2256 653 2472 879 
Q 2688 1106 2688 1447 
L 2688 1575 
L 2106 1575 
z
M 3816 1997 
L 3816 0 
L 2688 0 
L 2688 519 
Q 2463 200 2181 54 
Q 1900 -91 1497 -91 
Q 953 -91 614 226 
Q 275 544 275 1050 
Q 275 1666 698 1953 
Q 1122 2241 2028 2241 
L 2688 2241 
L 2688 2328 
Q 2688 2594 2478 2717 
Q 2269 2841 1825 2841 
Q 1466 2841 1156 2769 
Q 847 2697 581 2553 
L 581 3406 
Q 941 3494 1303 3539 
Q 1666 3584 2028 3584 
Q 2975 3584 3395 3211 
Q 3816 2838 3816 1997 
z
" transform="scale(0.015625)"/>
      <path id="DejaVuSans-Bold-6e" d="M 4056 2131 
L 4056 0 
L 2931 0 
L 2931 347 
L 2931 1631 
Q 2931 2084 2911 2256 
Q 2891 2428 2841 2509 
Q 2775 2619 2662 2680 
Q 2550 2741 2406 2741 
Q 2056 2741 1856 2470 
Q 1656 2200 1656 1722 
L 1656 0 
L 538 0 
L 538 3500 
L 1656 3500 
L 1656 2988 
Q 1909 3294 2193 3439 
Q 2478 3584 2822 3584 
Q 3428 3584 3742 3212 
Q 4056 2841 4056 2131 
z
" transform="scale(0.015625)"/>
      <path id="DejaVuSans-Bold-20" transform="scale(0.015625)"/>
      <path id="DejaVuSans-Bold-71" d="M 2181 2772 
Q 1825 2772 1636 2509 
Q 1447 2247 1447 1747 
Q 1447 1247 1636 984 
Q 1825 722 2181 722 
Q 2541 722 2730 984 
Q 2919 1247 2919 1747 
Q 2919 2247 2730 2509 
Q 2541 2772 2181 2772 
z
M 2919 506 
Q 2688 197 2409 53 
Q 2131 -91 1766 -91 
Q 1119 -91 703 423 
Q 288 938 288 1747 
Q 288 2556 703 3067 
Q 1119 3578 1766 3578 
Q 2131 3578 2409 3434 
Q 2688 3291 2919 2981 
L 2919 3500 
L 4044 3500 
L 4044 -1331 
L 2919 -1331 
L 2919 506 
z
" transform="scale(0.015625)"/>
      <path id="DejaVuSans-Bold-75" d="M 500 1363 
L 500 3500 
L 1625 3500 
L 1625 3150 
Q 1625 2866 1622 2436 
Q 1619 2006 1619 1863 
Q 1619 1441 1641 1255 
Q 1663 1069 1716 984 
Q 1784 875 1895 815 
Q 2006 756 2150 756 
Q 2500 756 2700 1025 
Q 2900 1294 2900 1772 
L 2900 3500 
L 4019 3500 
L 4019 0 
L 2900 0 
L 2900 506 
Q 2647 200 2364 54 
Q 2081 -91 1741 -91 
Q 1134 -91 817 281 
Q 500 653 500 1363 
z
" transform="scale(0.015625)"/>
      <path id="DejaVuSans-Bold-74" d="M 1759 4494 
L 1759 3500 
L 2913 3500 
L 2913 2700 
L 1759 2700 
L 1759 1216 
Q 1759 972 1856 886 
Q 1953 800 2241 800 
L 2816 800 
L 2816 0 
L 1856 0 
Q 1194 0 917 276 
Q 641 553 641 1216 
L 641 2700 
L 84 2700 
L 84 3500 
L 641 3500 
L 641 4494 
L 1759 4494 
z
" transform="scale(0.015625)"/>
      <path id="DejaVuSans-Bold-69" d="M 538 3500 
L 1656 3500 
L 1656 0 
L 538 0 
L 538 3500 
z
M 538 4863 
L 1656 4863 
L 1656 3950 
L 538 3950 
L 538 4863 
z
" transform="scale(0.015625)"/>
      <path id="DejaVuSans-Bold-73" d="M 3272 3391 
L 3272 2541 
Q 2913 2691 2578 2766 
Q 2244 2841 1947 2841 
Q 1628 2841 1473 2761 
Q 1319 2681 1319 2516 
Q 1319 2381 1436 2309 
Q 1553 2238 1856 2203 
L 2053 2175 
Q 2913 2066 3209 1816 
Q 3506 1566 3506 1031 
Q 3506 472 3093 190 
Q 2681 -91 1863 -91 
Q 1516 -91 1145 -36 
Q 775 19 384 128 
L 384 978 
Q 719 816 1070 734 
Q 1422 653 1784 653 
Q 2113 653 2278 743 
Q 2444 834 2444 1013 
Q 2444 1163 2330 1236 
Q 2216 1309 1875 1350 
L 1678 1375 
Q 931 1469 631 1722 
Q 331 1975 331 2491 
Q 331 3047 712 3315 
Q 1094 3584 1881 3584 
Q 2191 3584 2531 3537 
Q 2872 3491 3272 3391 
z
" transform="scale(0.015625)"/>
      <path id="DejaVuSans-Bold-6f" d="M 2203 2784 
Q 1831 2784 1636 2517 
Q 1441 2250 1441 1747 
Q 1441 1244 1636 976 
Q 1831 709 2203 709 
Q 2569 709 2762 976 
Q 2956 1244 2956 1747 
Q 2956 2250 2762 2517 
Q 2569 2784 2203 2784 
z
M 2203 3584 
Q 3106 3584 3614 3096 
Q 4122 2609 4122 1747 
Q 4122 884 3614 396 
Q 3106 -91 2203 -91 
Q 1297 -91 786 396 
Q 275 884 275 1747 
Q 275 2609 786 3096 
Q 1297 3584 2203 3584 
z
" transform="scale(0.015625)"/>
      <path id="DejaVuSans-Bold-76" d="M 97 3500 
L 1216 3500 
L 2088 1081 
L 2956 3500 
L 4078 3500 
L 2700 0 
L 1472 0 
L 97 3500 
z
" transform="scale(0.015625)"/>
      <path id="DejaVuSans-Bold-72" d="M 3138 2547 
Q 2991 2616 2845 2648 
Q 2700 2681 2553 2681 
Q 2122 2681 1889 2404 
Q 1656 2128 1656 1613 
L 1656 0 
L 538 0 
L 538 3500 
L 1656 3500 
L 1656 2925 
Q 1872 3269 2151 3426 
Q 2431 3584 2822 3584 
Q 2878 3584 2943 3579 
Q 3009 3575 3134 3559 
L 3138 2547 
z
" transform="scale(0.015625)"/>
      <path id="DejaVuSans-Bold-6d" d="M 3781 2919 
Q 3994 3244 4286 3414 
Q 4578 3584 4928 3584 
Q 5531 3584 5847 3212 
Q 6163 2841 6163 2131 
L 6163 0 
L 5038 0 
L 5038 1825 
Q 5041 1866 5042 1909 
Q 5044 1953 5044 2034 
Q 5044 2406 4934 2573 
Q 4825 2741 4581 2741 
Q 4263 2741 4089 2478 
Q 3916 2216 3909 1719 
L 3909 0 
L 2784 0 
L 2784 1825 
Q 2784 2406 2684 2573 
Q 2584 2741 2328 2741 
Q 2006 2741 1831 2477 
Q 1656 2213 1656 1722 
L 1656 0 
L 531 0 
L 531 3500 
L 1656 3500 
L 1656 2988 
Q 1863 3284 2130 3434 
Q 2397 3584 2719 3584 
Q 3081 3584 3359 3409 
Q 3638 3234 3781 2919 
z
" transform="scale(0.015625)"/>
     </defs>
     <use xlink:href="#DejaVuSans-Bold-4d"/>
     <use xlink:href="#DejaVuSans-Bold-65" transform="translate(99.511719 0)"/>
     <use xlink:href="#DejaVuSans-Bold-61" transform="translate(167.333984 0)"/>
     <use xlink:href="#DejaVuSans-Bold-6e" transform="translate(234.814453 0)"/>
     <use xlink:href="#DejaVuSans-Bold-20" transform="translate(306.005859 0)"/>
     <use xlink:href="#DejaVuSans-Bold-71" transform="translate(340.820312 0)"/>
     <use xlink:href="#DejaVuSans-Bold-75" transform="translate(412.402344 0)"/>
     <use xlink:href="#DejaVuSans-Bold-61" transform="translate(483.59375 0)"/>
     <use xlink:href="#DejaVuSans-Bold-6e" transform="translate(551.074219 0)"/>
     <use xlink:href="#DejaVuSans-Bold-74" transform="translate(622.265625 0)"/>
     <use xlink:href="#DejaVuSans-Bold-69" transform="translate(670.068359 0)"/>
     <use xlink:href="#DejaVuSans-Bold-74" transform="translate(704.345703 0)"/>
     <use xlink:href="#DejaVuSans-Bold-69" transform="translate(752.148438 0)"/>
     <use xlink:href="#DejaVuSans-Bold-65" transform="translate(786.425781 0)"/>
     <use xlink:href="#DejaVuSans-Bold-73" transform="translate(854.248047 0)"/>
     <use xlink:href="#DejaVuSans-Bold-20" transform="translate(913.769531 0)"/>
     <use xlink:href="#DejaVuSans-Bold-6f" transform="translate(948.583984 0)"/>
     <use xlink:href="#DejaVuSans-Bold-76" transform="translate(1017.285156 0)"/>
     <use xlink:href="#DejaVuSans-Bold-65" transform="translate(1082.470703 0)"/>
     <use xlink:href="#DejaVuSans-Bold-72" transform="translate(1150.292969 0)"/>
     <use xlink:href="#DejaVuSans-Bold-20" transform="translate(1199.609375 0)"/>
     <use xlink:href="#DejaVuSans-Bold-74" transform="translate(1234.423828 0)"/>
     <use xlink:href="#DejaVuSans-Bold-69" transform="translate(1282.226562 0)"/>
     <use xlink:href="#DejaVuSans-Bold-6d" transform="translate(1316.503906 0)"/>
     <use xlink:href="#DejaVuSans-Bold-65" transform="translate(1420.703125 0)"/>
    </g>
   </g>
   <g id="legend_1">
    <g id="patch_7">
     <path d="M 226.926562 71.91625 
L 317 71.91625 
Q 319 71.91625 319 69.91625 
L 319 41.56 
Q 319 39.56 317 39.56 
L 226.926562 39.56 
Q 224.926562 39.56 224.926562 41.56 
L 224.926562 69.91625 
Q 224.926562 71.91625 226.926562 71.91625 
z
" style="fill: #ffffff; opacity: 0.8; stroke: #cccccc; stroke-linejoin: miter"/>
    </g>
    <g id="line2d_14">
     <path d="M 228.926562 47.658437 
L 238.926562 47.658437 
L 248.926562 47.658437 
" style="fill: none; stroke: #000000; stroke-width: 1.5; stroke-linecap: square"/>
    </g>
    <g id="text_15">
     <!-- Polarisation -->
     <g transform="translate(256.926562 51.158437) scale(0.1 -0.1)">
      <defs>
       <path id="DejaVuSans-50" d="M 1259 4147 
L 1259 2394 
L 2053 2394 
Q 2494 2394 2734 2622 
Q 2975 2850 2975 3272 
Q 2975 3691 2734 3919 
Q 2494 4147 2053 4147 
L 1259 4147 
z
M 628 4666 
L 2053 4666 
Q 2838 4666 3239 4311 
Q 3641 3956 3641 3272 
Q 3641 2581 3239 2228 
Q 2838 1875 2053 1875 
L 1259 1875 
L 1259 0 
L 628 0 
L 628 4666 
z
" transform="scale(0.015625)"/>
       <path id="DejaVuSans-6c" d="M 603 4863 
L 1178 4863 
L 1178 0 
L 603 0 
L 603 4863 
z
" transform="scale(0.015625)"/>
       <path id="DejaVuSans-72" d="M 2631 2963 
Q 2534 3019 2420 3045 
Q 2306 3072 2169 3072 
Q 1681 3072 1420 2755 
Q 1159 2438 1159 1844 
L 1159 0 
L 581 0 
L 581 3500 
L 1159 3500 
L 1159 2956 
Q 1341 3275 1631 3429 
Q 1922 3584 2338 3584 
Q 2397 3584 2469 3576 
Q 2541 3569 2628 3553 
L 2631 2963 
z
" transform="scale(0.015625)"/>
      </defs>
      <use xlink:href="#DejaVuSans-50"/>
      <use xlink:href="#DejaVuSans-6f" transform="translate(56.677734 0)"/>
      <use xlink:href="#DejaVuSans-6c" transform="translate(117.859375 0)"/>
      <use xlink:href="#DejaVuSans-61" transform="translate(145.642578 0)"/>
      <use xlink:href="#DejaVuSans-72" transform="translate(206.921875 0)"/>
      <use xlink:href="#DejaVuSans-69" transform="translate(248.035156 0)"/>
      <use xlink:href="#DejaVuSans-73" transform="translate(275.818359 0)"/>
      <use xlink:href="#DejaVuSans-61" transform="translate(327.917969 0)"/>
      <use xlink:href="#DejaVuSans-74" transform="translate(389.197266 0)"/>
      <use xlink:href="#DejaVuSans-69" transform="translate(428.40625 0)"/>
      <use xlink:href="#DejaVuSans-6f" transform="translate(456.189453 0)"/>
      <use xlink:href="#DejaVuSans-6e" transform="translate(517.371094 0)"/>
     </g>
    </g>
    <g id="line2d_15">
     <path d="M 228.926562 62.336562 
L 238.926562 62.336562 
L 248.926562 62.336562 
" style="fill: none; stroke: #ff0000; stroke-width: 1.5; stroke-linecap: square"/>
    </g>
    <g id="text_16">
     <!-- Momentum -->
     <g transform="translate(256.926562 65.836562) scale(0.1 -0.1)">
      <defs>
       <path id="DejaVuSans-4d" d="M 628 4666 
L 1569 4666 
L 2759 1491 
L 3956 4666 
L 4897 4666 
L 4897 0 
L 4281 0 
L 4281 4097 
L 3078 897 
L 2444 897 
L 1241 4097 
L 1241 0 
L 628 0 
L 628 4666 
z
" transform="scale(0.015625)"/>
      </defs>
      <use xlink:href="#DejaVuSans-4d"/>
      <use xlink:href="#DejaVuSans-6f" transform="translate(86.279297 0)"/>
      <use xlink:href="#DejaVuSans-6d" transform="translate(147.460938 0)"/>
      <use xlink:href="#DejaVuSans-65" transform="translate(244.873047 0)"/>
      <use xlink:href="#DejaVuSans-6e" transform="translate(306.396484 0)"/>
      <use xlink:href="#DejaVuSans-74" transform="translate(369.775391 0)"/>
      <use xlink:href="#DejaVuSans-75" transform="translate(408.984375 0)"/>
      <use xlink:href="#DejaVuSans-6d" transform="translate(472.363281 0)"/>
     </g>
    </g>
   </g>
  </g>
 </g>
 <defs>
  <clipPath id="pa199b68c50">
   <rect x="45" y="34.56" width="279" height="221.76"/>
  </clipPath>
 </defs>
</svg>
