<?xml version="1.0" encoding="utf-8" standalone="no"?>
<!DOCTYPE svg PUBLIC "-//W3C//DTD SVG 1.1//EN"
  "http://www.w3.org/Graphics/SVG/1.1/DTD/svg11.dtd">
<svg xmlns:xlink="http://www.w3.org/1999/xlink" width="432pt" height="360pt" viewBox="0 0 432 360" xmlns="http://www.w3.org/2000/svg" version="1.1">
 <metadata>
  <rdf:RDF xmlns:dc="http://purl.org/dc/elements/1.1/" xmlns:cc="http://creativecommons.org/ns#" xmlns:rdf="http://www.w3.org/1999/02/22-rdf-syntax-ns#">
   <cc:Work>
    <dc:type rdf:resource="http://purl.org/dc/dcmitype/StillImage"/>
    <dc:date>2025-05-05T23:11:49.184124</dc:date>
    <dc:format>image/svg+xml</dc:format>
    <dc:creator>
     <cc:Agent>
      <dc:title>Matplotlib v3.10.1, https://matplotlib.org/</dc:title>
     </cc:Agent>
    </dc:creator>
   </cc:Work>
  </rdf:RDF>
 </metadata>
 <defs>
  <style type="text/css">*{stroke-linejoin: round; stroke-linecap: butt}</style>
 </defs>
 <g id="figure_1">
  <g id="patch_1">
   <path d="M 0 360 
L 432 360 
L 432 0 
L 0 0 
z
" style="fill: #ffffff"/>
  </g>
  <g id="axes_1">
   <g id="patch_2">
    <path d="M 39.58149 153.232572 
L 428.99976 153.232572 
L 428.99976 18.118365 
L 39.58149 18.118365 
z
" style="fill: #ffffff"/>
   </g>
   <g id="matplotlib.axis_1">
    <g id="xtick_1">
     <g id="line2d_1">
      <path d="M 57.28232 153.232572 
L 57.28232 18.118365 
" clip-path="url(#pa823b5a363)" style="fill: none; stroke: #b0b0b0; stroke-width: 0.8; stroke-linecap: square"/>
     </g>
     <g id="line2d_2">
      <defs>
       <path id="mf4e2ff880d" d="M 0 0 
L 0 3.5 
" style="stroke: #000000; stroke-width: 0.8"/>
      </defs>
      <g>
       <use xlink:href="#mf4e2ff880d" x="57.28232" y="153.232572" style="stroke: #000000; stroke-width: 0.8"/>
      </g>
     </g>
    </g>
    <g id="xtick_2">
     <g id="line2d_3">
      <path d="M 128.092723 153.232572 
L 128.092723 18.118365 
" clip-path="url(#pa823b5a363)" style="fill: none; stroke: #b0b0b0; stroke-width: 0.8; stroke-linecap: square"/>
     </g>
     <g id="line2d_4">
      <g>
       <use xlink:href="#mf4e2ff880d" x="128.092723" y="153.232572" style="stroke: #000000; stroke-width: 0.8"/>
      </g>
     </g>
    </g>
    <g id="xtick_3">
     <g id="line2d_5">
      <path d="M 198.903126 153.232572 
L 198.903126 18.118365 
" clip-path="url(#pa823b5a363)" style="fill: none; stroke: #b0b0b0; stroke-width: 0.8; stroke-linecap: square"/>
     </g>
     <g id="line2d_6">
      <g>
       <use xlink:href="#mf4e2ff880d" x="198.903126" y="153.232572" style="stroke: #000000; stroke-width: 0.8"/>
      </g>
     </g>
    </g>
    <g id="xtick_4">
     <g id="line2d_7">
      <path d="M 269.713529 153.232572 
L 269.713529 18.118365 
" clip-path="url(#pa823b5a363)" style="fill: none; stroke: #b0b0b0; stroke-width: 0.8; stroke-linecap: square"/>
     </g>
     <g id="line2d_8">
      <g>
       <use xlink:href="#mf4e2ff880d" x="269.713529" y="153.232572" style="stroke: #000000; stroke-width: 0.8"/>
      </g>
     </g>
    </g>
    <g id="xtick_5">
     <g id="line2d_9">
      <path d="M 340.523932 153.232572 
L 340.523932 18.118365 
" clip-path="url(#pa823b5a363)" style="fill: none; stroke: #b0b0b0; stroke-width: 0.8; stroke-linecap: square"/>
     </g>
     <g id="line2d_10">
      <g>
       <use xlink:href="#mf4e2ff880d" x="340.523932" y="153.232572" style="stroke: #000000; stroke-width: 0.8"/>
      </g>
     </g>
    </g>
    <g id="xtick_6">
     <g id="line2d_11">
      <path d="M 411.334335 153.232572 
L 411.334335 18.118365 
" clip-path="url(#pa823b5a363)" style="fill: none; stroke: #b0b0b0; stroke-width: 0.8; stroke-linecap: square"/>
     </g>
     <g id="line2d_12">
      <g>
       <use xlink:href="#mf4e2ff880d" x="411.334335" y="153.232572" style="stroke: #000000; stroke-width: 0.8"/>
      </g>
     </g>
    </g>
    <g id="text_1">
     <!-- timestep -->
     <g transform="translate(212.178906 168.33101) scale(0.1 -0.1)">
      <defs>
       <path id="DejaVuSans-74" d="M 1172 4494 
L 1172 3500 
L 2356 3500 
L 2356 3053 
L 1172 3053 
L 1172 1153 
Q 1172 725 1289 603 
Q 1406 481 1766 481 
L 2356 481 
L 2356 0 
L 1766 0 
Q 1100 0 847 248 
Q 594 497 594 1153 
L 594 3053 
L 172 3053 
L 172 3500 
L 594 3500 
L 594 4494 
L 1172 4494 
z
" transform="scale(0.015625)"/>
       <path id="DejaVuSans-69" d="M 603 3500 
L 1178 3500 
L 1178 0 
L 603 0 
L 603 3500 
z
M 603 4863 
L 1178 4863 
L 1178 4134 
L 603 4134 
L 603 4863 
z
" transform="scale(0.015625)"/>
       <path id="DejaVuSans-6d" d="M 3328 2828 
Q 3544 3216 3844 3400 
Q 4144 3584 4550 3584 
Q 5097 3584 5394 3201 
Q 5691 2819 5691 2113 
L 5691 0 
L 5113 0 
L 5113 2094 
Q 5113 2597 4934 2840 
Q 4756 3084 4391 3084 
Q 3944 3084 3684 2787 
Q 3425 2491 3425 1978 
L 3425 0 
L 2847 0 
L 2847 2094 
Q 2847 2600 2669 2842 
Q 2491 3084 2119 3084 
Q 1678 3084 1418 2786 
Q 1159 2488 1159 1978 
L 1159 0 
L 581 0 
L 581 3500 
L 1159 3500 
L 1159 2956 
Q 1356 3278 1631 3431 
Q 1906 3584 2284 3584 
Q 2666 3584 2933 3390 
Q 3200 3197 3328 2828 
z
" transform="scale(0.015625)"/>
       <path id="DejaVuSans-65" d="M 3597 1894 
L 3597 1613 
L 953 1613 
Q 991 1019 1311 708 
Q 1631 397 2203 397 
Q 2534 397 2845 478 
Q 3156 559 3463 722 
L 3463 178 
Q 3153 47 2828 -22 
Q 2503 -91 2169 -91 
Q 1331 -91 842 396 
Q 353 884 353 1716 
Q 353 2575 817 3079 
Q 1281 3584 2069 3584 
Q 2775 3584 3186 3129 
Q 3597 2675 3597 1894 
z
M 3022 2063 
Q 3016 2534 2758 2815 
Q 2500 3097 2075 3097 
Q 1594 3097 1305 2825 
Q 1016 2553 972 2059 
L 3022 2063 
z
" transform="scale(0.015625)"/>
       <path id="DejaVuSans-73" d="M 2834 3397 
L 2834 2853 
Q 2591 2978 2328 3040 
Q 2066 3103 1784 3103 
Q 1356 3103 1142 2972 
Q 928 2841 928 2578 
Q 928 2378 1081 2264 
Q 1234 2150 1697 2047 
L 1894 2003 
Q 2506 1872 2764 1633 
Q 3022 1394 3022 966 
Q 3022 478 2636 193 
Q 2250 -91 1575 -91 
Q 1294 -91 989 -36 
Q 684 19 347 128 
L 347 722 
Q 666 556 975 473 
Q 1284 391 1588 391 
Q 1994 391 2212 530 
Q 2431 669 2431 922 
Q 2431 1156 2273 1281 
Q 2116 1406 1581 1522 
L 1381 1569 
Q 847 1681 609 1914 
Q 372 2147 372 2553 
Q 372 3047 722 3315 
Q 1072 3584 1716 3584 
Q 2034 3584 2315 3537 
Q 2597 3491 2834 3397 
z
" transform="scale(0.015625)"/>
       <path id="DejaVuSans-70" d="M 1159 525 
L 1159 -1331 
L 581 -1331 
L 581 3500 
L 1159 3500 
L 1159 2969 
Q 1341 3281 1617 3432 
Q 1894 3584 2278 3584 
Q 2916 3584 3314 3078 
Q 3713 2572 3713 1747 
Q 3713 922 3314 415 
Q 2916 -91 2278 -91 
Q 1894 -91 1617 61 
Q 1341 213 1159 525 
z
M 3116 1747 
Q 3116 2381 2855 2742 
Q 2594 3103 2138 3103 
Q 1681 3103 1420 2742 
Q 1159 2381 1159 1747 
Q 1159 1113 1420 752 
Q 1681 391 2138 391 
Q 2594 391 2855 752 
Q 3116 1113 3116 1747 
z
" transform="scale(0.015625)"/>
      </defs>
      <use xlink:href="#DejaVuSans-74"/>
      <use xlink:href="#DejaVuSans-69" transform="translate(39.208984 0)"/>
      <use xlink:href="#DejaVuSans-6d" transform="translate(66.992188 0)"/>
      <use xlink:href="#DejaVuSans-65" transform="translate(164.404297 0)"/>
      <use xlink:href="#DejaVuSans-73" transform="translate(225.927734 0)"/>
      <use xlink:href="#DejaVuSans-74" transform="translate(278.027344 0)"/>
      <use xlink:href="#DejaVuSans-65" transform="translate(317.236328 0)"/>
      <use xlink:href="#DejaVuSans-70" transform="translate(378.759766 0)"/>
     </g>
    </g>
   </g>
   <g id="matplotlib.axis_2">
    <g id="ytick_1">
     <g id="line2d_13">
      <path d="M 39.58149 145.076033 
L 428.99976 145.076033 
" clip-path="url(#pa823b5a363)" style="fill: none; stroke: #b0b0b0; stroke-width: 0.8; stroke-linecap: square"/>
     </g>
     <g id="line2d_14">
      <defs>
       <path id="m7f948ae15b" d="M 0 0 
L -3.5 0 
" style="stroke: #000000; stroke-width: 0.8"/>
      </defs>
      <g>
       <use xlink:href="#m7f948ae15b" x="39.58149" y="145.076033" style="stroke: #000000; stroke-width: 0.8"/>
      </g>
     </g>
     <g id="text_2">
      <!-- 0.0 -->
      <g transform="translate(16.678365 148.875252) scale(0.1 -0.1)">
       <defs>
        <path id="DejaVuSans-30" d="M 2034 4250 
Q 1547 4250 1301 3770 
Q 1056 3291 1056 2328 
Q 1056 1369 1301 889 
Q 1547 409 2034 409 
Q 2525 409 2770 889 
Q 3016 1369 3016 2328 
Q 3016 3291 2770 3770 
Q 2525 4250 2034 4250 
z
M 2034 4750 
Q 2819 4750 3233 4129 
Q 3647 3509 3647 2328 
Q 3647 1150 3233 529 
Q 2819 -91 2034 -91 
Q 1250 -91 836 529 
Q 422 1150 422 2328 
Q 422 3509 836 4129 
Q 1250 4750 2034 4750 
z
" transform="scale(0.015625)"/>
        <path id="DejaVuSans-2e" d="M 684 794 
L 1344 794 
L 1344 0 
L 684 0 
L 684 794 
z
" transform="scale(0.015625)"/>
       </defs>
       <use xlink:href="#DejaVuSans-30"/>
       <use xlink:href="#DejaVuSans-2e" transform="translate(63.623047 0)"/>
       <use xlink:href="#DejaVuSans-30" transform="translate(95.410156 0)"/>
      </g>
     </g>
    </g>
    <g id="ytick_2">
     <g id="line2d_15">
      <path d="M 39.58149 120.914435 
L 428.99976 120.914435 
" clip-path="url(#pa823b5a363)" style="fill: none; stroke: #b0b0b0; stroke-width: 0.8; stroke-linecap: square"/>
     </g>
     <g id="line2d_16">
      <g>
       <use xlink:href="#m7f948ae15b" x="39.58149" y="120.914435" style="stroke: #000000; stroke-width: 0.8"/>
      </g>
     </g>
     <g id="text_3">
      <!-- 0.2 -->
      <g transform="translate(16.678365 124.713653) scale(0.1 -0.1)">
       <defs>
        <path id="DejaVuSans-32" d="M 1228 531 
L 3431 531 
L 3431 0 
L 469 0 
L 469 531 
Q 828 903 1448 1529 
Q 2069 2156 2228 2338 
Q 2531 2678 2651 2914 
Q 2772 3150 2772 3378 
Q 2772 3750 2511 3984 
Q 2250 4219 1831 4219 
Q 1534 4219 1204 4116 
Q 875 4013 500 3803 
L 500 4441 
Q 881 4594 1212 4672 
Q 1544 4750 1819 4750 
Q 2544 4750 2975 4387 
Q 3406 4025 3406 3419 
Q 3406 3131 3298 2873 
Q 3191 2616 2906 2266 
Q 2828 2175 2409 1742 
Q 1991 1309 1228 531 
z
" transform="scale(0.015625)"/>
       </defs>
       <use xlink:href="#DejaVuSans-30"/>
       <use xlink:href="#DejaVuSans-2e" transform="translate(63.623047 0)"/>
       <use xlink:href="#DejaVuSans-32" transform="translate(95.410156 0)"/>
      </g>
     </g>
    </g>
    <g id="ytick_3">
     <g id="line2d_17">
      <path d="M 39.58149 96.752836 
L 428.99976 96.752836 
" clip-path="url(#pa823b5a363)" style="fill: none; stroke: #b0b0b0; stroke-width: 0.8; stroke-linecap: square"/>
     </g>
     <g id="line2d_18">
      <g>
       <use xlink:href="#m7f948ae15b" x="39.58149" y="96.752836" style="stroke: #000000; stroke-width: 0.8"/>
      </g>
     </g>
     <g id="text_4">
      <!-- 0.4 -->
      <g transform="translate(16.678365 100.552055) scale(0.1 -0.1)">
       <defs>
        <path id="DejaVuSans-34" d="M 2419 4116 
L 825 1625 
L 2419 1625 
L 2419 4116 
z
M 2253 4666 
L 3047 4666 
L 3047 1625 
L 3713 1625 
L 3713 1100 
L 3047 1100 
L 3047 0 
L 2419 0 
L 2419 1100 
L 313 1100 
L 313 1709 
L 2253 4666 
z
" transform="scale(0.015625)"/>
       </defs>
       <use xlink:href="#DejaVuSans-30"/>
       <use xlink:href="#DejaVuSans-2e" transform="translate(63.623047 0)"/>
       <use xlink:href="#DejaVuSans-34" transform="translate(95.410156 0)"/>
      </g>
     </g>
    </g>
    <g id="ytick_4">
     <g id="line2d_19">
      <path d="M 39.58149 72.591238 
L 428.99976 72.591238 
" clip-path="url(#pa823b5a363)" style="fill: none; stroke: #b0b0b0; stroke-width: 0.8; stroke-linecap: square"/>
     </g>
     <g id="line2d_20">
      <g>
       <use xlink:href="#m7f948ae15b" x="39.58149" y="72.591238" style="stroke: #000000; stroke-width: 0.8"/>
      </g>
     </g>
     <g id="text_5">
      <!-- 0.6 -->
      <g transform="translate(16.678365 76.390457) scale(0.1 -0.1)">
       <defs>
        <path id="DejaVuSans-36" d="M 2113 2584 
Q 1688 2584 1439 2293 
Q 1191 2003 1191 1497 
Q 1191 994 1439 701 
Q 1688 409 2113 409 
Q 2538 409 2786 701 
Q 3034 994 3034 1497 
Q 3034 2003 2786 2293 
Q 2538 2584 2113 2584 
z
M 3366 4563 
L 3366 3988 
Q 3128 4100 2886 4159 
Q 2644 4219 2406 4219 
Q 1781 4219 1451 3797 
Q 1122 3375 1075 2522 
Q 1259 2794 1537 2939 
Q 1816 3084 2150 3084 
Q 2853 3084 3261 2657 
Q 3669 2231 3669 1497 
Q 3669 778 3244 343 
Q 2819 -91 2113 -91 
Q 1303 -91 875 529 
Q 447 1150 447 2328 
Q 447 3434 972 4092 
Q 1497 4750 2381 4750 
Q 2619 4750 2861 4703 
Q 3103 4656 3366 4563 
z
" transform="scale(0.015625)"/>
       </defs>
       <use xlink:href="#DejaVuSans-30"/>
       <use xlink:href="#DejaVuSans-2e" transform="translate(63.623047 0)"/>
       <use xlink:href="#DejaVuSans-36" transform="translate(95.410156 0)"/>
      </g>
     </g>
    </g>
    <g id="ytick_5">
     <g id="line2d_21">
      <path d="M 39.58149 48.429639 
L 428.99976 48.429639 
" clip-path="url(#pa823b5a363)" style="fill: none; stroke: #b0b0b0; stroke-width: 0.8; stroke-linecap: square"/>
     </g>
     <g id="line2d_22">
      <g>
       <use xlink:href="#m7f948ae15b" x="39.58149" y="48.429639" style="stroke: #000000; stroke-width: 0.8"/>
      </g>
     </g>
     <g id="text_6">
      <!-- 0.8 -->
      <g transform="translate(16.678365 52.228858) scale(0.1 -0.1)">
       <defs>
        <path id="DejaVuSans-38" d="M 2034 2216 
Q 1584 2216 1326 1975 
Q 1069 1734 1069 1313 
Q 1069 891 1326 650 
Q 1584 409 2034 409 
Q 2484 409 2743 651 
Q 3003 894 3003 1313 
Q 3003 1734 2745 1975 
Q 2488 2216 2034 2216 
z
M 1403 2484 
Q 997 2584 770 2862 
Q 544 3141 544 3541 
Q 544 4100 942 4425 
Q 1341 4750 2034 4750 
Q 2731 4750 3128 4425 
Q 3525 4100 3525 3541 
Q 3525 3141 3298 2862 
Q 3072 2584 2669 2484 
Q 3125 2378 3379 2068 
Q 3634 1759 3634 1313 
Q 3634 634 3220 271 
Q 2806 -91 2034 -91 
Q 1263 -91 848 271 
Q 434 634 434 1313 
Q 434 1759 690 2068 
Q 947 2378 1403 2484 
z
M 1172 3481 
Q 1172 3119 1398 2916 
Q 1625 2713 2034 2713 
Q 2441 2713 2670 2916 
Q 2900 3119 2900 3481 
Q 2900 3844 2670 4047 
Q 2441 4250 2034 4250 
Q 1625 4250 1398 4047 
Q 1172 3844 1172 3481 
z
" transform="scale(0.015625)"/>
       </defs>
       <use xlink:href="#DejaVuSans-30"/>
       <use xlink:href="#DejaVuSans-2e" transform="translate(63.623047 0)"/>
       <use xlink:href="#DejaVuSans-38" transform="translate(95.410156 0)"/>
      </g>
     </g>
    </g>
    <g id="ytick_6">
     <g id="line2d_23">
      <path d="M 39.58149 24.268041 
L 428.99976 24.268041 
" clip-path="url(#pa823b5a363)" style="fill: none; stroke: #b0b0b0; stroke-width: 0.8; stroke-linecap: square"/>
     </g>
     <g id="line2d_24">
      <g>
       <use xlink:href="#m7f948ae15b" x="39.58149" y="24.268041" style="stroke: #000000; stroke-width: 0.8"/>
      </g>
     </g>
     <g id="text_7">
      <!-- 1.0 -->
      <g transform="translate(16.678365 28.06726) scale(0.1 -0.1)">
       <defs>
        <path id="DejaVuSans-31" d="M 794 531 
L 1825 531 
L 1825 4091 
L 703 3866 
L 703 4441 
L 1819 4666 
L 2450 4666 
L 2450 531 
L 3481 531 
L 3481 0 
L 794 0 
L 794 531 
z
" transform="scale(0.015625)"/>
       </defs>
       <use xlink:href="#DejaVuSans-31"/>
       <use xlink:href="#DejaVuSans-2e" transform="translate(63.623047 0)"/>
       <use xlink:href="#DejaVuSans-30" transform="translate(95.410156 0)"/>
      </g>
     </g>
    </g>
    <g id="text_8">
     <!-- v_x -->
     <g transform="translate(10.320552 94.094219) rotate(-90) scale(0.1 -0.1)">
      <defs>
       <path id="DejaVuSans-76" d="M 191 3500 
L 800 3500 
L 1894 563 
L 2988 3500 
L 3597 3500 
L 2284 0 
L 1503 0 
L 191 3500 
z
" transform="scale(0.015625)"/>
       <path id="DejaVuSans-5f" d="M 3263 -1063 
L 3263 -1509 
L -63 -1509 
L -63 -1063 
L 3263 -1063 
z
" transform="scale(0.015625)"/>
       <path id="DejaVuSans-78" d="M 3513 3500 
L 2247 1797 
L 3578 0 
L 2900 0 
L 1881 1375 
L 863 0 
L 184 0 
L 1544 1831 
L 300 3500 
L 978 3500 
L 1906 2253 
L 2834 3500 
L 3513 3500 
z
" transform="scale(0.015625)"/>
      </defs>
      <use xlink:href="#DejaVuSans-76"/>
      <use xlink:href="#DejaVuSans-5f" transform="translate(59.179688 0)"/>
      <use xlink:href="#DejaVuSans-78" transform="translate(109.179688 0)"/>
     </g>
    </g>
   </g>
   <g id="line2d_25">
    <path d="M 57.28232 147.091018 
L 57.459346 146.894096 
L 57.671778 146.622758 
L 57.955019 145.873416 
L 58.202856 145.407816 
L 58.344476 145.484306 
L 58.521503 146.003701 
L 58.804744 146.611267 
L 58.946365 146.614648 
L 59.442038 145.303109 
L 61.460134 136.265064 
L 61.63716 136.195232 
L 61.920402 136.548038 
L 63.017963 138.716659 
L 63.230394 138.447043 
L 63.584446 136.63272 
L 63.938498 135.190976 
L 64.115524 135.092924 
L 64.434171 135.175134 
L 65.602543 132.835969 
L 65.885784 132.321358 
L 66.204431 131.798484 
L 66.452268 130.709611 
L 66.87713 127.394098 
L 67.337398 124.499542 
L 67.939286 121.087222 
L 68.966037 113.962044 
L 69.780357 110.802348 
L 70.453055 106.459144 
L 70.948728 101.017814 
L 71.656832 91.22925 
L 72.18791 84.927135 
L 74.241412 68.885348 
L 75.763836 58.748349 
L 76.47194 54.182096 
L 76.932207 52.206096 
L 77.994363 48.718338 
L 78.879493 47.074432 
L 79.233545 45.284479 
L 80.047865 41.227978 
L 81.499478 35.789131 
L 82.065961 33.982135 
L 82.384608 33.459954 
L 82.809471 33.287891 
L 83.163523 33.332086 
L 83.62379 33.346434 
L 84.084058 33.123191 
L 87.02269 31.145213 
L 88.155656 29.719042 
L 88.580519 29.650364 
L 89.005381 29.822224 
L 90.067537 30.418507 
L 90.386184 30.267707 
L 90.775641 29.808307 
L 92.545901 27.308687 
L 92.970763 27.243762 
L 93.466436 27.413318 
L 94.847239 28.037916 
L 95.342912 27.914664 
L 96.936146 27.310439 
L 98.104518 27.389458 
L 99.060458 27.380115 
L 99.803967 27.119013 
L 101.007744 26.677853 
L 102.176116 26.570225 
L 103.592324 26.615613 
L 105.362584 26.75355 
L 106.106093 26.497574 
L 107.38068 26.015907 
L 108.017974 26.065717 
L 109.00932 26.429939 
L 109.929855 26.664106 
L 110.637959 26.614146 
L 111.629305 26.280654 
L 112.585245 26.035572 
L 113.36416 26.07476 
L 114.815773 26.204651 
L 115.594687 25.990331 
L 117.258732 25.440293 
L 118.108457 25.472036 
L 119.666285 25.593476 
L 120.693036 25.376128 
L 122.357081 25.021432 
L 128.765422 24.500705 
L 131.774864 24.4259 
L 133.969987 24.34344 
L 136.837808 24.309802 
L 140.378328 24.269778 
L 155.354728 24.264577 
L 251.054988 24.273509 
L 252.187954 25.737945 
L 253.25011 26.84913 
L 254.241456 27.620137 
L 255.02037 27.963362 
L 255.693069 28.240518 
L 256.294958 28.612762 
L 256.896846 28.716417 
L 259.021158 28.620748 
L 259.693857 28.256087 
L 262.207626 26.669789 
L 263.021946 26.526377 
L 264.154912 26.591045 
L 266.066793 26.687681 
L 269.571908 26.730619 
L 271.483789 26.754637 
L 274.634852 26.738876 
L 278.741855 26.731526 
L 287.911803 26.732532 
L 411.29893 26.735607 
L 411.29893 26.735607 
" clip-path="url(#pa823b5a363)" style="fill: none; stroke: #0000ff; stroke-width: 2; stroke-linecap: square"/>
   </g>
   <g id="patch_3">
    <path d="M 39.58149 153.232572 
L 39.58149 18.118365 
" style="fill: none; stroke: #000000; stroke-width: 0.8; stroke-linejoin: miter; stroke-linecap: square"/>
   </g>
   <g id="patch_4">
    <path d="M 428.99976 153.232572 
L 428.99976 18.118365 
" style="fill: none; stroke: #000000; stroke-width: 0.8; stroke-linejoin: miter; stroke-linecap: square"/>
   </g>
   <g id="patch_5">
    <path d="M 39.58149 153.232572 
L 428.99976 153.232572 
" style="fill: none; stroke: #000000; stroke-width: 0.8; stroke-linejoin: miter; stroke-linecap: square"/>
   </g>
   <g id="patch_6">
    <path d="M 39.58149 18.118365 
L 428.99976 18.118365 
" style="fill: none; stroke: #000000; stroke-width: 0.8; stroke-linejoin: miter; stroke-linecap: square"/>
   </g>
   <g id="text_9">
    <!-- Mean velocity component v_x over time -->
    <g transform="translate(100.015313 12.118365) scale(0.12 -0.12)">
     <defs>
      <path id="DejaVuSans-Bold-4d" d="M 588 4666 
L 2119 4666 
L 3181 2169 
L 4250 4666 
L 5778 4666 
L 5778 0 
L 4641 0 
L 4641 3413 
L 3566 897 
L 2803 897 
L 1728 3413 
L 1728 0 
L 588 0 
L 588 4666 
z
" transform="scale(0.015625)"/>
      <path id="DejaVuSans-Bold-65" d="M 4031 1759 
L 4031 1441 
L 1416 1441 
Q 1456 1047 1700 850 
Q 1944 653 2381 653 
Q 2734 653 3104 758 
Q 3475 863 3866 1075 
L 3866 213 
Q 3469 63 3072 -14 
Q 2675 -91 2278 -91 
Q 1328 -91 801 392 
Q 275 875 275 1747 
Q 275 2603 792 3093 
Q 1309 3584 2216 3584 
Q 3041 3584 3536 3087 
Q 4031 2591 4031 1759 
z
M 2881 2131 
Q 2881 2450 2695 2645 
Q 2509 2841 2209 2841 
Q 1884 2841 1681 2658 
Q 1478 2475 1428 2131 
L 2881 2131 
z
" transform="scale(0.015625)"/>
      <path id="DejaVuSans-Bold-61" d="M 2106 1575 
Q 1756 1575 1579 1456 
Q 1403 1338 1403 1106 
Q 1403 894 1545 773 
Q 1688 653 1941 653 
Q 2256 653 2472 879 
Q 2688 1106 2688 1447 
L 2688 1575 
L 2106 1575 
z
M 3816 1997 
L 3816 0 
L 2688 0 
L 2688 519 
Q 2463 200 2181 54 
Q 1900 -91 1497 -91 
Q 953 -91 614 226 
Q 275 544 275 1050 
Q 275 1666 698 1953 
Q 1122 2241 2028 2241 
L 2688 2241 
L 2688 2328 
Q 2688 2594 2478 2717 
Q 2269 2841 1825 2841 
Q 1466 2841 1156 2769 
Q 847 2697 581 2553 
L 581 3406 
Q 941 3494 1303 3539 
Q 1666 3584 2028 3584 
Q 2975 3584 3395 3211 
Q 3816 2838 3816 1997 
z
" transform="scale(0.015625)"/>
      <path id="DejaVuSans-Bold-6e" d="M 4056 2131 
L 4056 0 
L 2931 0 
L 2931 347 
L 2931 1631 
Q 2931 2084 2911 2256 
Q 2891 2428 2841 2509 
Q 2775 2619 2662 2680 
Q 2550 2741 2406 2741 
Q 2056 2741 1856 2470 
Q 1656 2200 1656 1722 
L 1656 0 
L 538 0 
L 538 3500 
L 1656 3500 
L 1656 2988 
Q 1909 3294 2193 3439 
Q 2478 3584 2822 3584 
Q 3428 3584 3742 3212 
Q 4056 2841 4056 2131 
z
" transform="scale(0.015625)"/>
      <path id="DejaVuSans-Bold-20" transform="scale(0.015625)"/>
      <path id="DejaVuSans-Bold-76" d="M 97 3500 
L 1216 3500 
L 2088 1081 
L 2956 3500 
L 4078 3500 
L 2700 0 
L 1472 0 
L 97 3500 
z
" transform="scale(0.015625)"/>
      <path id="DejaVuSans-Bold-6c" d="M 538 4863 
L 1656 4863 
L 1656 0 
L 538 0 
L 538 4863 
z
" transform="scale(0.015625)"/>
      <path id="DejaVuSans-Bold-6f" d="M 2203 2784 
Q 1831 2784 1636 2517 
Q 1441 2250 1441 1747 
Q 1441 1244 1636 976 
Q 1831 709 2203 709 
Q 2569 709 2762 976 
Q 2956 1244 2956 1747 
Q 2956 2250 2762 2517 
Q 2569 2784 2203 2784 
z
M 2203 3584 
Q 3106 3584 3614 3096 
Q 4122 2609 4122 1747 
Q 4122 884 3614 396 
Q 3106 -91 2203 -91 
Q 1297 -91 786 396 
Q 275 884 275 1747 
Q 275 2609 786 3096 
Q 1297 3584 2203 3584 
z
" transform="scale(0.015625)"/>
      <path id="DejaVuSans-Bold-63" d="M 3366 3391 
L 3366 2478 
Q 3138 2634 2908 2709 
Q 2678 2784 2431 2784 
Q 1963 2784 1702 2511 
Q 1441 2238 1441 1747 
Q 1441 1256 1702 982 
Q 1963 709 2431 709 
Q 2694 709 2930 787 
Q 3166 866 3366 1019 
L 3366 103 
Q 3103 6 2833 -42 
Q 2563 -91 2291 -91 
Q 1344 -91 809 395 
Q 275 881 275 1747 
Q 275 2613 809 3098 
Q 1344 3584 2291 3584 
Q 2566 3584 2833 3536 
Q 3100 3488 3366 3391 
z
" transform="scale(0.015625)"/>
      <path id="DejaVuSans-Bold-69" d="M 538 3500 
L 1656 3500 
L 1656 0 
L 538 0 
L 538 3500 
z
M 538 4863 
L 1656 4863 
L 1656 3950 
L 538 3950 
L 538 4863 
z
" transform="scale(0.015625)"/>
      <path id="DejaVuSans-Bold-74" d="M 1759 4494 
L 1759 3500 
L 2913 3500 
L 2913 2700 
L 1759 2700 
L 1759 1216 
Q 1759 972 1856 886 
Q 1953 800 2241 800 
L 2816 800 
L 2816 0 
L 1856 0 
Q 1194 0 917 276 
Q 641 553 641 1216 
L 641 2700 
L 84 2700 
L 84 3500 
L 641 3500 
L 641 4494 
L 1759 4494 
z
" transform="scale(0.015625)"/>
      <path id="DejaVuSans-Bold-79" d="M 78 3500 
L 1197 3500 
L 2138 1125 
L 2938 3500 
L 4056 3500 
L 2584 -331 
Q 2363 -916 2067 -1148 
Q 1772 -1381 1288 -1381 
L 641 -1381 
L 641 -647 
L 991 -647 
Q 1275 -647 1404 -556 
Q 1534 -466 1606 -231 
L 1638 -134 
L 78 3500 
z
" transform="scale(0.015625)"/>
      <path id="DejaVuSans-Bold-6d" d="M 3781 2919 
Q 3994 3244 4286 3414 
Q 4578 3584 4928 3584 
Q 5531 3584 5847 3212 
Q 6163 2841 6163 2131 
L 6163 0 
L 5038 0 
L 5038 1825 
Q 5041 1866 5042 1909 
Q 5044 1953 5044 2034 
Q 5044 2406 4934 2573 
Q 4825 2741 4581 2741 
Q 4263 2741 4089 2478 
Q 3916 2216 3909 1719 
L 3909 0 
L 2784 0 
L 2784 1825 
Q 2784 2406 2684 2573 
Q 2584 2741 2328 2741 
Q 2006 2741 1831 2477 
Q 1656 2213 1656 1722 
L 1656 0 
L 531 0 
L 531 3500 
L 1656 3500 
L 1656 2988 
Q 1863 3284 2130 3434 
Q 2397 3584 2719 3584 
Q 3081 3584 3359 3409 
Q 3638 3234 3781 2919 
z
" transform="scale(0.015625)"/>
      <path id="DejaVuSans-Bold-70" d="M 1656 506 
L 1656 -1331 
L 538 -1331 
L 538 3500 
L 1656 3500 
L 1656 2988 
Q 1888 3294 2169 3439 
Q 2450 3584 2816 3584 
Q 3463 3584 3878 3070 
Q 4294 2556 4294 1747 
Q 4294 938 3878 423 
Q 3463 -91 2816 -91 
Q 2450 -91 2169 54 
Q 1888 200 1656 506 
z
M 2400 2772 
Q 2041 2772 1848 2508 
Q 1656 2244 1656 1747 
Q 1656 1250 1848 986 
Q 2041 722 2400 722 
Q 2759 722 2948 984 
Q 3138 1247 3138 1747 
Q 3138 2247 2948 2509 
Q 2759 2772 2400 2772 
z
" transform="scale(0.015625)"/>
      <path id="DejaVuSans-Bold-5f" d="M 3200 -916 
L 3200 -1509 
L 0 -1509 
L 0 -916 
L 3200 -916 
z
" transform="scale(0.015625)"/>
      <path id="DejaVuSans-Bold-78" d="M 1422 1791 
L 159 3500 
L 1344 3500 
L 2059 2463 
L 2784 3500 
L 3969 3500 
L 2706 1797 
L 4031 0 
L 2847 0 
L 2059 1106 
L 1281 0 
L 97 0 
L 1422 1791 
z
" transform="scale(0.015625)"/>
      <path id="DejaVuSans-Bold-72" d="M 3138 2547 
Q 2991 2616 2845 2648 
Q 2700 2681 2553 2681 
Q 2122 2681 1889 2404 
Q 1656 2128 1656 1613 
L 1656 0 
L 538 0 
L 538 3500 
L 1656 3500 
L 1656 2925 
Q 1872 3269 2151 3426 
Q 2431 3584 2822 3584 
Q 2878 3584 2943 3579 
Q 3009 3575 3134 3559 
L 3138 2547 
z
" transform="scale(0.015625)"/>
     </defs>
     <use xlink:href="#DejaVuSans-Bold-4d"/>
     <use xlink:href="#DejaVuSans-Bold-65" transform="translate(99.511719 0)"/>
     <use xlink:href="#DejaVuSans-Bold-61" transform="translate(167.333984 0)"/>
     <use xlink:href="#DejaVuSans-Bold-6e" transform="translate(234.814453 0)"/>
     <use xlink:href="#DejaVuSans-Bold-20" transform="translate(306.005859 0)"/>
     <use xlink:href="#DejaVuSans-Bold-76" transform="translate(340.820312 0)"/>
     <use xlink:href="#DejaVuSans-Bold-65" transform="translate(406.005859 0)"/>
     <use xlink:href="#DejaVuSans-Bold-6c" transform="translate(473.828125 0)"/>
     <use xlink:href="#DejaVuSans-Bold-6f" transform="translate(508.105469 0)"/>
     <use xlink:href="#DejaVuSans-Bold-63" transform="translate(576.806641 0)"/>
     <use xlink:href="#DejaVuSans-Bold-69" transform="translate(636.083984 0)"/>
     <use xlink:href="#DejaVuSans-Bold-74" transform="translate(670.361328 0)"/>
     <use xlink:href="#DejaVuSans-Bold-79" transform="translate(718.164062 0)"/>
     <use xlink:href="#DejaVuSans-Bold-20" transform="translate(783.349609 0)"/>
     <use xlink:href="#DejaVuSans-Bold-63" transform="translate(818.164062 0)"/>
     <use xlink:href="#DejaVuSans-Bold-6f" transform="translate(877.441406 0)"/>
     <use xlink:href="#DejaVuSans-Bold-6d" transform="translate(946.142578 0)"/>
     <use xlink:href="#DejaVuSans-Bold-70" transform="translate(1050.341797 0)"/>
     <use xlink:href="#DejaVuSans-Bold-6f" transform="translate(1121.923828 0)"/>
     <use xlink:href="#DejaVuSans-Bold-6e" transform="translate(1190.625 0)"/>
     <use xlink:href="#DejaVuSans-Bold-65" transform="translate(1261.816406 0)"/>
     <use xlink:href="#DejaVuSans-Bold-6e" transform="translate(1329.638672 0)"/>
     <use xlink:href="#DejaVuSans-Bold-74" transform="translate(1400.830078 0)"/>
     <use xlink:href="#DejaVuSans-Bold-20" transform="translate(1448.632812 0)"/>
     <use xlink:href="#DejaVuSans-Bold-76" transform="translate(1483.447266 0)"/>
     <use xlink:href="#DejaVuSans-Bold-5f" transform="translate(1548.632812 0)"/>
     <use xlink:href="#DejaVuSans-Bold-78" transform="translate(1598.632812 0)"/>
     <use xlink:href="#DejaVuSans-Bold-20" transform="translate(1663.134766 0)"/>
     <use xlink:href="#DejaVuSans-Bold-6f" transform="translate(1697.949219 0)"/>
     <use xlink:href="#DejaVuSans-Bold-76" transform="translate(1766.650391 0)"/>
     <use xlink:href="#DejaVuSans-Bold-65" transform="translate(1831.835938 0)"/>
     <use xlink:href="#DejaVuSans-Bold-72" transform="translate(1899.658203 0)"/>
     <use xlink:href="#DejaVuSans-Bold-20" transform="translate(1948.974609 0)"/>
     <use xlink:href="#DejaVuSans-Bold-74" transform="translate(1983.789062 0)"/>
     <use xlink:href="#DejaVuSans-Bold-69" transform="translate(2031.591797 0)"/>
     <use xlink:href="#DejaVuSans-Bold-6d" transform="translate(2065.869141 0)"/>
     <use xlink:href="#DejaVuSans-Bold-65" transform="translate(2170.068359 0)"/>
    </g>
   </g>
  </g>
  <g id="axes_2">
   <g id="patch_7">
    <path d="M 39.58149 326.64351 
L 428.99976 326.64351 
L 428.99976 191.529302 
L 39.58149 191.529302 
z
" style="fill: #ffffff"/>
   </g>
   <g id="matplotlib.axis_3">
    <g id="xtick_7">
     <g id="line2d_26">
      <path d="M 57.28232 326.64351 
L 57.28232 191.529302 
" clip-path="url(#p1d8cd42b9c)" style="fill: none; stroke: #b0b0b0; stroke-width: 0.8; stroke-linecap: square"/>
     </g>
     <g id="line2d_27">
      <g>
       <use xlink:href="#mf4e2ff880d" x="57.28232" y="326.64351" style="stroke: #000000; stroke-width: 0.8"/>
      </g>
     </g>
     <g id="text_10">
      <!-- 0 -->
      <g transform="translate(54.10107 341.241947) scale(0.1 -0.1)">
       <use xlink:href="#DejaVuSans-30"/>
      </g>
     </g>
    </g>
    <g id="xtick_8">
     <g id="line2d_28">
      <path d="M 128.092723 326.64351 
L 128.092723 191.529302 
" clip-path="url(#p1d8cd42b9c)" style="fill: none; stroke: #b0b0b0; stroke-width: 0.8; stroke-linecap: square"/>
     </g>
     <g id="line2d_29">
      <g>
       <use xlink:href="#mf4e2ff880d" x="128.092723" y="326.64351" style="stroke: #000000; stroke-width: 0.8"/>
      </g>
     </g>
     <g id="text_11">
      <!-- 2000 -->
      <g transform="translate(115.367723 341.241947) scale(0.1 -0.1)">
       <use xlink:href="#DejaVuSans-32"/>
       <use xlink:href="#DejaVuSans-30" transform="translate(63.623047 0)"/>
       <use xlink:href="#DejaVuSans-30" transform="translate(127.246094 0)"/>
       <use xlink:href="#DejaVuSans-30" transform="translate(190.869141 0)"/>
      </g>
     </g>
    </g>
    <g id="xtick_9">
     <g id="line2d_30">
      <path d="M 198.903126 326.64351 
L 198.903126 191.529302 
" clip-path="url(#p1d8cd42b9c)" style="fill: none; stroke: #b0b0b0; stroke-width: 0.8; stroke-linecap: square"/>
     </g>
     <g id="line2d_31">
      <g>
       <use xlink:href="#mf4e2ff880d" x="198.903126" y="326.64351" style="stroke: #000000; stroke-width: 0.8"/>
      </g>
     </g>
     <g id="text_12">
      <!-- 4000 -->
      <g transform="translate(186.178126 341.241947) scale(0.1 -0.1)">
       <use xlink:href="#DejaVuSans-34"/>
       <use xlink:href="#DejaVuSans-30" transform="translate(63.623047 0)"/>
       <use xlink:href="#DejaVuSans-30" transform="translate(127.246094 0)"/>
       <use xlink:href="#DejaVuSans-30" transform="translate(190.869141 0)"/>
      </g>
     </g>
    </g>
    <g id="xtick_10">
     <g id="line2d_32">
      <path d="M 269.713529 326.64351 
L 269.713529 191.529302 
" clip-path="url(#p1d8cd42b9c)" style="fill: none; stroke: #b0b0b0; stroke-width: 0.8; stroke-linecap: square"/>
     </g>
     <g id="line2d_33">
      <g>
       <use xlink:href="#mf4e2ff880d" x="269.713529" y="326.64351" style="stroke: #000000; stroke-width: 0.8"/>
      </g>
     </g>
     <g id="text_13">
      <!-- 6000 -->
      <g transform="translate(256.988529 341.241947) scale(0.1 -0.1)">
       <use xlink:href="#DejaVuSans-36"/>
       <use xlink:href="#DejaVuSans-30" transform="translate(63.623047 0)"/>
       <use xlink:href="#DejaVuSans-30" transform="translate(127.246094 0)"/>
       <use xlink:href="#DejaVuSans-30" transform="translate(190.869141 0)"/>
      </g>
     </g>
    </g>
    <g id="xtick_11">
     <g id="line2d_34">
      <path d="M 340.523932 326.64351 
L 340.523932 191.529302 
" clip-path="url(#p1d8cd42b9c)" style="fill: none; stroke: #b0b0b0; stroke-width: 0.8; stroke-linecap: square"/>
     </g>
     <g id="line2d_35">
      <g>
       <use xlink:href="#mf4e2ff880d" x="340.523932" y="326.64351" style="stroke: #000000; stroke-width: 0.8"/>
      </g>
     </g>
     <g id="text_14">
      <!-- 8000 -->
      <g transform="translate(327.798932 341.241947) scale(0.1 -0.1)">
       <use xlink:href="#DejaVuSans-38"/>
       <use xlink:href="#DejaVuSans-30" transform="translate(63.623047 0)"/>
       <use xlink:href="#DejaVuSans-30" transform="translate(127.246094 0)"/>
       <use xlink:href="#DejaVuSans-30" transform="translate(190.869141 0)"/>
      </g>
     </g>
    </g>
    <g id="xtick_12">
     <g id="line2d_36">
      <path d="M 411.334335 326.64351 
L 411.334335 191.529302 
" clip-path="url(#p1d8cd42b9c)" style="fill: none; stroke: #b0b0b0; stroke-width: 0.8; stroke-linecap: square"/>
     </g>
     <g id="line2d_37">
      <g>
       <use xlink:href="#mf4e2ff880d" x="411.334335" y="326.64351" style="stroke: #000000; stroke-width: 0.8"/>
      </g>
     </g>
     <g id="text_15">
      <!-- 10000 -->
      <g transform="translate(395.428085 341.241947) scale(0.1 -0.1)">
       <use xlink:href="#DejaVuSans-31"/>
       <use xlink:href="#DejaVuSans-30" transform="translate(63.623047 0)"/>
       <use xlink:href="#DejaVuSans-30" transform="translate(127.246094 0)"/>
       <use xlink:href="#DejaVuSans-30" transform="translate(190.869141 0)"/>
       <use xlink:href="#DejaVuSans-30" transform="translate(254.492188 0)"/>
      </g>
     </g>
    </g>
    <g id="text_16">
     <!-- timestep -->
     <g transform="translate(212.178906 354.920073) scale(0.1 -0.1)">
      <use xlink:href="#DejaVuSans-74"/>
      <use xlink:href="#DejaVuSans-69" transform="translate(39.208984 0)"/>
      <use xlink:href="#DejaVuSans-6d" transform="translate(66.992188 0)"/>
      <use xlink:href="#DejaVuSans-65" transform="translate(164.404297 0)"/>
      <use xlink:href="#DejaVuSans-73" transform="translate(225.927734 0)"/>
      <use xlink:href="#DejaVuSans-74" transform="translate(278.027344 0)"/>
      <use xlink:href="#DejaVuSans-65" transform="translate(317.236328 0)"/>
      <use xlink:href="#DejaVuSans-70" transform="translate(378.759766 0)"/>
     </g>
    </g>
   </g>
   <g id="matplotlib.axis_4">
    <g id="ytick_7">
     <g id="line2d_38">
      <path d="M 39.58149 308.275935 
L 428.99976 308.275935 
" clip-path="url(#p1d8cd42b9c)" style="fill: none; stroke: #b0b0b0; stroke-width: 0.8; stroke-linecap: square"/>
     </g>
     <g id="line2d_39">
      <g>
       <use xlink:href="#m7f948ae15b" x="39.58149" y="308.275935" style="stroke: #000000; stroke-width: 0.8"/>
      </g>
     </g>
     <g id="text_17">
      <!-- 0.2 -->
      <g transform="translate(16.678365 312.075154) scale(0.1 -0.1)">
       <use xlink:href="#DejaVuSans-30"/>
       <use xlink:href="#DejaVuSans-2e" transform="translate(63.623047 0)"/>
       <use xlink:href="#DejaVuSans-32" transform="translate(95.410156 0)"/>
      </g>
     </g>
    </g>
    <g id="ytick_8">
     <g id="line2d_40">
      <path d="M 39.58149 281.400679 
L 428.99976 281.400679 
" clip-path="url(#p1d8cd42b9c)" style="fill: none; stroke: #b0b0b0; stroke-width: 0.8; stroke-linecap: square"/>
     </g>
     <g id="line2d_41">
      <g>
       <use xlink:href="#m7f948ae15b" x="39.58149" y="281.400679" style="stroke: #000000; stroke-width: 0.8"/>
      </g>
     </g>
     <g id="text_18">
      <!-- 0.4 -->
      <g transform="translate(16.678365 285.199898) scale(0.1 -0.1)">
       <use xlink:href="#DejaVuSans-30"/>
       <use xlink:href="#DejaVuSans-2e" transform="translate(63.623047 0)"/>
       <use xlink:href="#DejaVuSans-34" transform="translate(95.410156 0)"/>
      </g>
     </g>
    </g>
    <g id="ytick_9">
     <g id="line2d_42">
      <path d="M 39.58149 254.525424 
L 428.99976 254.525424 
" clip-path="url(#p1d8cd42b9c)" style="fill: none; stroke: #b0b0b0; stroke-width: 0.8; stroke-linecap: square"/>
     </g>
     <g id="line2d_43">
      <g>
       <use xlink:href="#m7f948ae15b" x="39.58149" y="254.525424" style="stroke: #000000; stroke-width: 0.8"/>
      </g>
     </g>
     <g id="text_19">
      <!-- 0.6 -->
      <g transform="translate(16.678365 258.324642) scale(0.1 -0.1)">
       <use xlink:href="#DejaVuSans-30"/>
       <use xlink:href="#DejaVuSans-2e" transform="translate(63.623047 0)"/>
       <use xlink:href="#DejaVuSans-36" transform="translate(95.410156 0)"/>
      </g>
     </g>
    </g>
    <g id="ytick_10">
     <g id="line2d_44">
      <path d="M 39.58149 227.650168 
L 428.99976 227.650168 
" clip-path="url(#p1d8cd42b9c)" style="fill: none; stroke: #b0b0b0; stroke-width: 0.8; stroke-linecap: square"/>
     </g>
     <g id="line2d_45">
      <g>
       <use xlink:href="#m7f948ae15b" x="39.58149" y="227.650168" style="stroke: #000000; stroke-width: 0.8"/>
      </g>
     </g>
     <g id="text_20">
      <!-- 0.8 -->
      <g transform="translate(16.678365 231.449386) scale(0.1 -0.1)">
       <use xlink:href="#DejaVuSans-30"/>
       <use xlink:href="#DejaVuSans-2e" transform="translate(63.623047 0)"/>
       <use xlink:href="#DejaVuSans-38" transform="translate(95.410156 0)"/>
      </g>
     </g>
    </g>
    <g id="ytick_11">
     <g id="line2d_46">
      <path d="M 39.58149 200.774912 
L 428.99976 200.774912 
" clip-path="url(#p1d8cd42b9c)" style="fill: none; stroke: #b0b0b0; stroke-width: 0.8; stroke-linecap: square"/>
     </g>
     <g id="line2d_47">
      <g>
       <use xlink:href="#m7f948ae15b" x="39.58149" y="200.774912" style="stroke: #000000; stroke-width: 0.8"/>
      </g>
     </g>
     <g id="text_21">
      <!-- 1.0 -->
      <g transform="translate(16.678365 204.574131) scale(0.1 -0.1)">
       <use xlink:href="#DejaVuSans-31"/>
       <use xlink:href="#DejaVuSans-2e" transform="translate(63.623047 0)"/>
       <use xlink:href="#DejaVuSans-30" transform="translate(95.410156 0)"/>
      </g>
     </g>
    </g>
    <g id="text_22">
     <!-- v_y -->
     <g transform="translate(10.320552 267.505156) rotate(-90) scale(0.1 -0.1)">
      <defs>
       <path id="DejaVuSans-79" d="M 2059 -325 
Q 1816 -950 1584 -1140 
Q 1353 -1331 966 -1331 
L 506 -1331 
L 506 -850 
L 844 -850 
Q 1081 -850 1212 -737 
Q 1344 -625 1503 -206 
L 1606 56 
L 191 3500 
L 800 3500 
L 1894 763 
L 2988 3500 
L 3597 3500 
L 2059 -325 
z
" transform="scale(0.015625)"/>
      </defs>
      <use xlink:href="#DejaVuSans-76"/>
      <use xlink:href="#DejaVuSans-5f" transform="translate(59.179688 0)"/>
      <use xlink:href="#DejaVuSans-79" transform="translate(109.179688 0)"/>
     </g>
    </g>
   </g>
   <g id="line2d_48">
    <path d="M 57.28232 316.034684 
L 57.530157 314.783297 
L 58.16745 313.356411 
L 58.344476 313.478004 
L 58.556908 313.947845 
L 59.087986 315.877378 
L 60.079331 320.321676 
L 60.220952 320.501955 
L 60.256357 320.479589 
L 60.397978 320.1208 
L 60.716625 317.95745 
L 61.991212 308.214723 
L 62.557695 306.000504 
L 63.194989 304.860809 
L 63.478231 304.118536 
L 63.690662 303.850389 
L 63.867688 303.99569 
L 64.009309 304.203699 
L 64.257145 304.629499 
L 64.363361 304.555854 
L 64.717413 303.741018 
L 65.354706 301.217313 
L 66.452268 294.369396 
L 66.629294 294.273097 
L 66.770914 294.364682 
L 67.018751 294.865839 
L 67.160372 295.117311 
L 68.116312 298.525387 
L 68.328743 298.728998 
L 68.434959 298.625558 
L 68.682795 297.378201 
L 69.001442 294.189129 
L 69.780357 286.379039 
L 70.311435 283.480584 
L 70.842513 281.185547 
L 71.373591 277.897278 
L 71.904669 271.680054 
L 72.471152 262.884829 
L 73.143851 252.22908 
L 74.099791 239.373505 
L 74.453843 236.130967 
L 74.878706 234.140685 
L 75.799241 231.371444 
L 76.188698 228.935538 
L 78.383821 213.364601 
L 78.914899 210.941481 
L 80.578943 205.459878 
L 81.357857 203.687998 
L 82.597039 201.11906 
L 83.021902 200.84589 
L 84.048653 200.162059 
L 84.615136 199.754055 
L 84.969188 199.788836 
L 85.429456 200.078508 
L 86.066749 200.476481 
L 86.349991 200.410038 
L 86.845664 199.96717 
L 87.447552 199.555166 
L 88.014035 199.521911 
L 88.615924 199.396717 
L 89.076191 199.036786 
L 90.492399 197.690296 
L 90.846451 197.706706 
L 91.200503 197.943643 
L 91.731581 198.612773 
L 92.439685 199.449361 
L 92.793737 199.55884 
L 93.14779 199.431765 
L 93.714273 198.937598 
L 94.670213 198.107678 
L 95.130481 197.995298 
L 95.590748 198.124993 
L 96.263447 198.603946 
L 96.971551 199.042613 
L 97.396414 199.069803 
L 97.892086 198.853134 
L 99.485321 197.939163 
L 100.016399 197.967915 
L 100.653692 198.245727 
L 101.892874 198.832804 
L 102.494763 198.839568 
L 103.202867 198.607497 
L 104.58367 198.101644 
L 105.256368 198.137076 
L 106.035283 198.42593 
L 107.30987 198.918445 
L 107.947164 198.903752 
L 108.832294 198.624842 
L 109.788234 198.39301 
L 110.531743 198.451155 
L 113.257944 198.926823 
L 115.453066 198.883557 
L 116.727654 199.240307 
L 117.718999 199.414659 
L 119.099802 199.369228 
L 120.126553 199.457633 
L 121.471951 199.855579 
L 122.534107 200.053917 
L 123.879504 200.032966 
L 125.189497 200.102751 
L 128.446775 200.430197 
L 132.199727 200.60592 
L 134.890522 200.681101 
L 157.443635 200.773419 
L 251.054988 200.79684 
L 251.975523 202.082093 
L 252.612817 202.712762 
L 253.1793 202.978601 
L 253.781188 203.029966 
L 255.657664 202.973483 
L 256.436578 203.54952 
L 257.392519 203.960209 
L 257.994407 204.050364 
L 258.49008 203.899754 
L 259.658452 203.428362 
L 260.331151 203.509851 
L 262.632489 203.90523 
L 264.438154 203.855711 
L 266.420845 203.913455 
L 267.978674 203.866068 
L 272.652161 203.462922 
L 276.511328 203.501252 
L 295.630136 203.533428 
L 411.29893 203.511614 
L 411.29893 203.511614 
" clip-path="url(#p1d8cd42b9c)" style="fill: none; stroke: #ff0000; stroke-width: 2; stroke-linecap: square"/>
   </g>
   <g id="patch_8">
    <path d="M 39.58149 326.64351 
L 39.58149 191.529302 
" style="fill: none; stroke: #000000; stroke-width: 0.8; stroke-linejoin: miter; stroke-linecap: square"/>
   </g>
   <g id="patch_9">
    <path d="M 428.99976 326.64351 
L 428.99976 191.529302 
" style="fill: none; stroke: #000000; stroke-width: 0.8; stroke-linejoin: miter; stroke-linecap: square"/>
   </g>
   <g id="patch_10">
    <path d="M 39.58149 326.64351 
L 428.99976 326.64351 
" style="fill: none; stroke: #000000; stroke-width: 0.8; stroke-linejoin: miter; stroke-linecap: square"/>
   </g>
   <g id="patch_11">
    <path d="M 39.58149 191.529302 
L 428.99976 191.529302 
" style="fill: none; stroke: #000000; stroke-width: 0.8; stroke-linejoin: miter; stroke-linecap: square"/>
   </g>
   <g id="text_23">
    <!-- Mean velocity component v_y over time -->
    <g transform="translate(99.974063 185.529302) scale(0.12 -0.12)">
     <use xlink:href="#DejaVuSans-Bold-4d"/>
     <use xlink:href="#DejaVuSans-Bold-65" transform="translate(99.511719 0)"/>
     <use xlink:href="#DejaVuSans-Bold-61" transform="translate(167.333984 0)"/>
     <use xlink:href="#DejaVuSans-Bold-6e" transform="translate(234.814453 0)"/>
     <use xlink:href="#DejaVuSans-Bold-20" transform="translate(306.005859 0)"/>
     <use xlink:href="#DejaVuSans-Bold-76" transform="translate(340.820312 0)"/>
     <use xlink:href="#DejaVuSans-Bold-65" transform="translate(406.005859 0)"/>
     <use xlink:href="#DejaVuSans-Bold-6c" transform="translate(473.828125 0)"/>
     <use xlink:href="#DejaVuSans-Bold-6f" transform="translate(508.105469 0)"/>
     <use xlink:href="#DejaVuSans-Bold-63" transform="translate(576.806641 0)"/>
     <use xlink:href="#DejaVuSans-Bold-69" transform="translate(636.083984 0)"/>
     <use xlink:href="#DejaVuSans-Bold-74" transform="translate(670.361328 0)"/>
     <use xlink:href="#DejaVuSans-Bold-79" transform="translate(718.164062 0)"/>
     <use xlink:href="#DejaVuSans-Bold-20" transform="translate(783.349609 0)"/>
     <use xlink:href="#DejaVuSans-Bold-63" transform="translate(818.164062 0)"/>
     <use xlink:href="#DejaVuSans-Bold-6f" transform="translate(877.441406 0)"/>
     <use xlink:href="#DejaVuSans-Bold-6d" transform="translate(946.142578 0)"/>
     <use xlink:href="#DejaVuSans-Bold-70" transform="translate(1050.341797 0)"/>
     <use xlink:href="#DejaVuSans-Bold-6f" transform="translate(1121.923828 0)"/>
     <use xlink:href="#DejaVuSans-Bold-6e" transform="translate(1190.625 0)"/>
     <use xlink:href="#DejaVuSans-Bold-65" transform="translate(1261.816406 0)"/>
     <use xlink:href="#DejaVuSans-Bold-6e" transform="translate(1329.638672 0)"/>
     <use xlink:href="#DejaVuSans-Bold-74" transform="translate(1400.830078 0)"/>
     <use xlink:href="#DejaVuSans-Bold-20" transform="translate(1448.632812 0)"/>
     <use xlink:href="#DejaVuSans-Bold-76" transform="translate(1483.447266 0)"/>
     <use xlink:href="#DejaVuSans-Bold-5f" transform="translate(1548.632812 0)"/>
     <use xlink:href="#DejaVuSans-Bold-79" transform="translate(1598.632812 0)"/>
     <use xlink:href="#DejaVuSans-Bold-20" transform="translate(1663.818359 0)"/>
     <use xlink:href="#DejaVuSans-Bold-6f" transform="translate(1698.632812 0)"/>
     <use xlink:href="#DejaVuSans-Bold-76" transform="translate(1767.333984 0)"/>
     <use xlink:href="#DejaVuSans-Bold-65" transform="translate(1832.519531 0)"/>
     <use xlink:href="#DejaVuSans-Bold-72" transform="translate(1900.341797 0)"/>
     <use xlink:href="#DejaVuSans-Bold-20" transform="translate(1949.658203 0)"/>
     <use xlink:href="#DejaVuSans-Bold-74" transform="translate(1984.472656 0)"/>
     <use xlink:href="#DejaVuSans-Bold-69" transform="translate(2032.275391 0)"/>
     <use xlink:href="#DejaVuSans-Bold-6d" transform="translate(2066.552734 0)"/>
     <use xlink:href="#DejaVuSans-Bold-65" transform="translate(2170.751953 0)"/>
    </g>
   </g>
  </g>
 </g>
 <defs>
  <clipPath id="pa823b5a363">
   <rect x="39.58149" y="18.118365" width="389.41827" height="135.114207"/>
  </clipPath>
  <clipPath id="p1d8cd42b9c">
   <rect x="39.58149" y="191.529302" width="389.41827" height="135.114208"/>
  </clipPath>
 </defs>
</svg>
