<?xml version="1.0" encoding="utf-8" standalone="no"?>
<!DOCTYPE svg PUBLIC "-//W3C//DTD SVG 1.1//EN"
  "http://www.w3.org/Graphics/SVG/1.1/DTD/svg11.dtd">
<svg xmlns:xlink="http://www.w3.org/1999/xlink" width="460.8pt" height="345.6pt" viewBox="0 0 460.8 345.6" xmlns="http://www.w3.org/2000/svg" version="1.1">
 <metadata>
  <rdf:RDF xmlns:dc="http://purl.org/dc/elements/1.1/" xmlns:cc="http://creativecommons.org/ns#" xmlns:rdf="http://www.w3.org/1999/02/22-rdf-syntax-ns#">
   <cc:Work>
    <dc:type rdf:resource="http://purl.org/dc/dcmitype/StillImage"/>
    <dc:date>2025-05-12T12:47:41.421331</dc:date>
    <dc:format>image/svg+xml</dc:format>
    <dc:creator>
     <cc:Agent>
      <dc:title>Matplotlib v3.10.1, https://matplotlib.org/</dc:title>
     </cc:Agent>
    </dc:creator>
   </cc:Work>
  </rdf:RDF>
 </metadata>
 <defs>
  <style type="text/css">*{stroke-linejoin: round; stroke-linecap: butt}</style>
 </defs>
 <g id="figure_1">
  <g id="patch_1">
   <path d="M 0 345.6 
L 460.8 345.6 
L 460.8 0 
L 0 0 
z
" style="fill: #ffffff"/>
  </g>
  <g id="axes_1">
   <g id="patch_2">
    <path d="M 57.6 307.584 
L 414.72 307.584 
L 414.72 41.472 
L 57.6 41.472 
z
" style="fill: #ffffff"/>
   </g>
   <g id="Quiver_1">
    <path d="M 192.482994 98.752256 
L 185.641177 105.592514 
L 188.03672 106.391331 
L 177.655003 111.97996 
L 183.245998 101.599518 
L 184.04427 103.995242 
L 190.886086 97.154985 
L 192.482994 98.752256 
" clip-path="url(#pe73966c6bf)"/>
    <path d="M 164.514569 142.564038 
L 157.67156 149.40343 
L 160.066982 150.202608 
L 149.684425 155.789676 
L 155.276981 145.410074 
L 156.074893 147.805919 
L 162.917902 140.966526 
L 164.514569 142.564038 
" clip-path="url(#pe73966c6bf)"/>
    <path d="M 234.252887 168.490157 
L 227.408715 175.3323 
L 229.80423 176.1312 
L 219.422322 181.719474 
L 225.013673 171.339222 
L 225.811863 173.734975 
L 232.656035 166.892831 
L 234.252887 168.490157 
" clip-path="url(#pe73966c6bf)"/>
    <path d="M 284.242145 262.496114 
L 277.399466 269.337263 
L 279.795011 270.136075 
L 269.413307 275.724727 
L 275.004279 265.344272 
L 275.802556 267.739995 
L 282.645234 260.898846 
L 284.242145 262.496114 
" clip-path="url(#pe73966c6bf)"/>
    <path d="M 213.556348 265.680417 
L 206.71644 272.520893 
L 209.112107 273.319338 
L 198.731259 278.909581 
L 204.32064 268.528269 
L 205.119284 270.92387 
L 211.959193 264.083394 
L 213.556348 265.680417 
" clip-path="url(#pe73966c6bf)"/>
    <path d="M 165.736095 229.13276 
L 158.893457 235.973234 
L 161.288964 236.772157 
L 150.907 242.360327 
L 156.498455 231.980132 
L 157.29662 234.375892 
L 164.139259 227.535418 
L 165.736095 229.13276 
" clip-path="url(#pe73966c6bf)"/>
    <path d="M 219.063463 116.052125 
L 212.221263 122.892921 
L 214.616814 123.691711 
L 204.235161 129.280458 
L 209.826039 118.899952 
L 210.624337 121.295668 
L 217.466538 114.454872 
L 219.063463 116.052125 
" clip-path="url(#pe73966c6bf)"/>
    <path d="M 352.333205 157.893968 
L 345.489915 164.735267 
L 347.885433 165.53416 
L 337.50354 171.122462 
L 343.094862 160.742195 
L 343.893058 163.137945 
L 350.736348 156.296646 
L 352.333205 157.893968 
" clip-path="url(#pe73966c6bf)"/>
    <path d="M 195.672125 191.703199 
L 188.82586 198.544647 
L 191.221213 199.344035 
L 180.838166 204.930193 
L 186.431631 194.551081 
L 187.229333 196.946996 
L 194.075598 190.105547 
L 195.672125 191.703199 
" clip-path="url(#pe73966c6bf)"/>
    <path d="M 197.368261 231.163761 
L 190.522971 238.012177 
L 192.918787 238.810175 
L 182.538984 244.402357 
L 188.126426 234.020001 
L 188.925517 236.415453 
L 195.770807 229.567036 
L 197.368261 231.163761 
" clip-path="url(#pe73966c6bf)"/>
    <path d="M 225.890022 238.932665 
L 219.050012 245.772083 
L 221.445611 246.570732 
L 211.064289 252.160094 
L 216.654551 241.779257 
L 217.452992 244.174925 
L 224.293002 237.335507 
L 225.890022 238.932665 
" clip-path="url(#pe73966c6bf)"/>
    <path d="M 258.320438 84.974115 
L 251.478139 91.815615 
L 253.873726 92.6143 
L 243.49232 98.203506 
L 249.082738 87.822753 
L 249.881143 90.218433 
L 256.723442 83.376932 
L 258.320438 84.974115 
" clip-path="url(#pe73966c6bf)"/>
    <path d="M 132.115983 221.89503 
L 125.273124 228.735751 
L 127.668633 229.53467 
L 117.28668 235.12286 
L 122.878114 224.742654 
L 123.676284 227.138413 
L 130.519144 220.297691 
L 132.115983 221.89503 
" clip-path="url(#pe73966c6bf)"/>
    <path d="M 217.139947 147.71342 
L 210.297813 154.55379 
L 212.693344 155.352643 
L 202.311544 160.941117 
L 207.902694 150.560758 
L 208.70093 152.956495 
L 215.543064 146.116125 
L 217.139947 147.71342 
" clip-path="url(#pe73966c6bf)"/>
    <path d="M 276.452478 198.539939 
L 269.608691 205.383099 
L 272.004289 206.181753 
L 261.622953 211.77109 
L 267.21324 201.390266 
L 268.011675 203.785937 
L 274.855462 196.942777 
L 276.452478 198.539939 
" clip-path="url(#pe73966c6bf)"/>
    <path d="M 325.271809 178.325595 
L 318.427813 185.166467 
L 320.823265 185.965558 
L 310.440909 191.553 
L 316.033091 181.173197 
L 316.831089 183.569013 
L 323.675085 176.728141 
L 325.271809 178.325595 
" clip-path="url(#pe73966c6bf)"/>
    <path d="M 306.984377 204.105054 
L 300.141532 210.946525 
L 302.537085 211.74531 
L 292.155445 217.334081 
L 297.746299 206.953562 
L 298.544603 209.349276 
L 305.387448 202.507804 
L 306.984377 204.105054 
" clip-path="url(#pe73966c6bf)"/>
    <path d="M 239.383014 292.778737 
L 232.541532 299.619763 
L 234.937139 300.418388 
L 224.555874 306.007854 
L 230.146031 295.626961 
L 230.944496 298.022621 
L 237.785978 291.181595 
L 239.383014 292.778737 
" clip-path="url(#pe73966c6bf)"/>
    <path d="M 280.673834 108.766727 
L 273.831185 115.608476 
L 276.226766 116.407178 
L 265.845318 121.996307 
L 271.435814 111.615595 
L 272.234201 114.011281 
L 279.07685 107.169532 
L 280.673834 108.766727 
" clip-path="url(#pe73966c6bf)"/>
    <path d="M 281.343561 148.881978 
L 274.499203 155.725277 
L 276.894775 156.524007 
L 266.513263 162.113016 
L 272.103878 151.732369 
L 272.902237 154.128064 
L 279.746596 147.284765 
L 281.343561 148.881978 
" clip-path="url(#pe73966c6bf)"/>
    <path d="M 152.302699 118.940957 
L 145.45922 125.780945 
L 147.85465 126.580101 
L 137.472145 132.167265 
L 143.064605 121.787612 
L 143.862539 124.183449 
L 150.706017 117.343461 
L 152.302699 118.940957 
" clip-path="url(#pe73966c6bf)"/>
    <path d="M 229.26289 54.366584 
L 222.421437 61.207365 
L 224.817032 62.006027 
L 214.435678 67.595331 
L 220.025999 57.214525 
L 220.824426 59.610198 
L 227.665879 52.769416 
L 229.26289 54.366584 
" clip-path="url(#pe73966c6bf)"/>
    <path d="M 116.166268 199.472999 
L 109.323857 206.313639 
L 111.719387 207.112493 
L 101.337583 212.700961 
L 106.92874 202.320605 
L 107.726974 204.716342 
L 114.569386 197.875703 
L 116.166268 199.472999 
" clip-path="url(#pe73966c6bf)"/>
    <path d="M 331.536181 135.915758 
L 324.693053 142.757137 
L 327.088585 143.555987 
L 316.706791 149.144473 
L 322.29793 138.764108 
L 323.096168 141.159843 
L 329.939296 134.318465 
L 331.536181 135.915758 
" clip-path="url(#pe73966c6bf)"/>
    <path d="M 175.938357 284.065403 
L 169.094857 290.906502 
L 171.49035 291.705467 
L 161.10829 297.293458 
L 166.699923 286.913359 
L 167.498048 289.309133 
L 174.341548 282.468034 
L 175.938357 284.065403 
" clip-path="url(#pe73966c6bf)"/>
    <path d="M 249.3641 56.554423 
L 242.522423 63.395516 
L 244.918022 64.194163 
L 234.536704 69.783532 
L 240.126959 59.402691 
L 240.925402 61.798359 
L 247.767079 54.957266 
L 249.3641 56.554423 
" clip-path="url(#pe73966c6bf)"/>
    <path d="M 239.672907 265.8473 
L 232.833068 272.687065 
L 235.228697 273.485623 
L 224.847588 279.075379 
L 230.437456 268.694329 
L 231.235987 271.089968 
L 238.075827 264.250202 
L 239.672907 265.8473 
" clip-path="url(#pe73966c6bf)"/>
    <path d="M 317.279941 265.986302 
L 310.438531 272.826398 
L 312.834088 273.625173 
L 302.452472 279.213988 
L 308.043281 268.833445 
L 308.841595 271.229156 
L 315.683005 264.389059 
L 317.279941 265.986302 
" clip-path="url(#pe73966c6bf)"/>
    <path d="M 328.598771 217.220227 
L 321.757144 224.059791 
L 324.152658 224.858697 
L 313.770735 230.446943 
L 319.362113 220.066707 
L 320.160296 222.462461 
L 327.001923 215.622897 
L 328.598771 217.220227 
" clip-path="url(#pe73966c6bf)"/>
    <path d="M 233.082337 73.946125 
L 226.24047 80.787187 
L 228.636057 81.585873 
L 218.254648 87.175074 
L 223.845071 76.794323 
L 224.643475 79.190004 
L 231.485342 72.348942 
L 233.082337 73.946125 
" clip-path="url(#pe73966c6bf)"/>
    <path d="M 175.956609 181.180591 
L 169.111543 188.019309 
L 171.506807 188.818965 
L 161.123135 194.403962 
L 166.717762 184.025476 
L 167.515195 186.42148 
L 174.360261 179.582761 
L 175.956609 181.180591 
" clip-path="url(#pe73966c6bf)"/>
    <path d="M 167.698992 167.360749 
L 160.85729 174.197615 
L 163.252641 174.997007 
L 152.869586 180.583149 
L 158.463068 170.204046 
L 159.260766 172.599962 
L 166.102467 165.763096 
L 167.698992 167.360749 
" clip-path="url(#pe73966c6bf)"/>
    <path d="M 304.877406 100.545121 
L 298.034495 107.387368 
L 300.43009 108.186029 
L 290.048739 113.775338 
L 295.639054 103.394529 
L 296.437483 105.790202 
L 303.280394 98.947954 
L 304.877406 100.545121 
" clip-path="url(#pe73966c6bf)"/>
    <path d="M 136.650024 247.102022 
L 129.807035 253.942526 
L 132.202523 254.741505 
L 121.820428 260.329432 
L 127.412126 249.949367 
L 128.210235 252.345146 
L 135.053225 245.504643 
L 136.650024 247.102022 
" clip-path="url(#pe73966c6bf)"/>
    <path d="M 188.463483 268.774045 
L 181.623034 275.618253 
L 184.018887 276.416139 
L 173.639343 282.008803 
L 179.226304 271.626188 
L 180.025506 274.021602 
L 186.865955 267.177395 
L 188.463483 268.774045 
" clip-path="url(#pe73966c6bf)"/>
    <path d="M 116.02024 158.992031 
L 109.177 165.834187 
L 111.572571 166.632921 
L 101.191048 172.221911 
L 106.781683 161.841274 
L 107.580037 164.236971 
L 114.423277 157.394815 
L 116.02024 158.992031 
" clip-path="url(#pe73966c6bf)"/>
    <path d="M 234.656108 95.688262 
L 227.814124 102.529717 
L 230.209726 103.328354 
L 219.828431 108.917765 
L 225.418644 98.536901 
L 226.217096 100.932566 
L 233.05908 94.091111 
L 234.656108 95.688262 
" clip-path="url(#pe73966c6bf)"/>
    <path d="M 172.154671 116.31803 
L 165.312452 123.157938 
L 167.707951 123.956887 
L 157.325927 129.544945 
L 162.917493 119.16481 
L 163.715633 121.560579 
L 170.557852 114.720671 
L 172.154671 116.31803 
" clip-path="url(#pe73966c6bf)"/>
    <path d="M 233.395018 195.140969 
L 226.546237 201.985184 
L 228.941604 202.784528 
L 218.558661 208.370878 
L 224.151934 197.991663 
L 224.94968 200.387563 
L 231.798461 193.543347 
L 233.395018 195.140969 
" clip-path="url(#pe73966c6bf)"/>
    <path d="M 260.42169 274.33158 
L 253.579641 281.171833 
L 255.97517 281.970692 
L 245.593357 287.559142 
L 251.184532 277.178796 
L 251.982762 279.574534 
L 258.824811 272.734281 
L 260.42169 274.33158 
" clip-path="url(#pe73966c6bf)"/>
    <path d="M 210.851525 172.107628 
L 204.008021 178.949161 
L 206.40354 179.748051 
L 196.021656 185.336368 
L 201.612963 174.956093 
L 202.411162 177.351842 
L 209.254666 170.510309 
L 210.851525 172.107628 
" clip-path="url(#pe73966c6bf)"/>
    <path d="M 135.651976 193.778899 
L 128.81084 200.620477 
L 131.206499 201.418944 
L 120.8256 207.009091 
L 126.415077 196.627831 
L 127.213699 199.023439 
L 134.054835 192.181861 
L 135.651976 193.778899 
" clip-path="url(#pe73966c6bf)"/>
    <path d="M 219.107343 185.891283 
L 212.260758 192.734529 
L 214.656197 193.533658 
L 204.273754 199.120938 
L 209.866098 188.741222 
L 210.664059 191.13705 
L 217.510643 184.293805 
L 219.107343 185.891283 
" clip-path="url(#pe73966c6bf)"/>
    <path d="M 306.556197 155.399083 
L 299.71176 162.241966 
L 302.107303 163.040782 
L 291.725589 168.629416 
L 297.31658 158.248971 
L 298.114852 160.644695 
L 304.959289 153.801812 
L 306.556197 155.399083 
" clip-path="url(#pe73966c6bf)"/>
    <path d="M 176.954982 70.758726 
L 170.113364 77.599095 
L 172.508925 78.397858 
L 162.127335 83.986722 
L 167.718095 73.606153 
L 168.516421 76.00186 
L 175.358039 69.161491 
L 176.954982 70.758726 
" clip-path="url(#pe73966c6bf)"/>
    <path d="M 357.896653 183.695469 
L 351.053931 190.535921 
L 353.449432 191.334863 
L 343.067425 196.922953 
L 348.65896 186.542801 
L 349.457107 188.938567 
L 356.299829 182.098115 
L 357.896653 183.695469 
" clip-path="url(#pe73966c6bf)"/>
    <path d="M 246.217688 186.207188 
L 239.369103 193.052198 
L 241.764528 193.851368 
L 231.381989 199.438469 
L 236.974512 189.058849 
L 237.772431 191.454691 
L 244.621016 184.609682 
L 246.217688 186.207188 
" clip-path="url(#pe73966c6bf)"/>
    <path d="M 350.661497 221.990941 
L 343.81955 228.830567 
L 346.215048 229.629518 
L 335.83302 235.217568 
L 341.424594 224.837437 
L 342.222732 227.233206 
L 349.064679 220.393581 
L 350.661497 221.990941 
" clip-path="url(#pe73966c6bf)"/>
    <path d="M 185.859421 250.965462 
L 179.01061 257.813089 
L 181.406175 258.611841 
L 171.024612 264.200756 
L 176.615322 253.820159 
L 177.413659 256.215862 
L 184.26247 249.368235 
L 185.859421 250.965462 
" clip-path="url(#pe73966c6bf)"/>
    <path d="M 255.171746 198.126359 
L 248.329996 204.965031 
L 250.72545 205.764115 
L 240.343112 211.35159 
L 245.935261 200.971769 
L 246.733266 203.367582 
L 253.575017 196.528911 
L 255.171746 198.126359 
" clip-path="url(#pe73966c6bf)"/>
    <path d="M 338.178718 200.189796 
L 331.336585 207.028905 
L 333.732042 207.827979 
L 323.349727 213.415497 
L 328.941833 203.035653 
L 329.739848 205.431463 
L 336.581982 198.592354 
L 338.178718 200.189796 
" clip-path="url(#pe73966c6bf)"/>
    <path d="M 357.333732 202.644384 
L 350.491304 209.484568 
L 352.886806 210.283506 
L 342.50481 215.871615 
L 348.096325 205.491452 
L 348.894476 207.887217 
L 355.736904 201.047033 
L 357.333732 202.644384 
" clip-path="url(#pe73966c6bf)"/>
    <path d="M 269.193318 58.24014 
L 262.351432 65.081449 
L 264.747032 65.880095 
L 254.365716 71.469469 
L 259.955966 61.088625 
L 260.75441 63.484292 
L 267.596296 56.642984 
L 269.193318 58.24014 
" clip-path="url(#pe73966c6bf)"/>
    <path d="M 285.203754 219.380147 
L 278.360221 226.22245 
L 280.755783 227.02121 
L 270.3742 232.610088 
L 275.964946 222.229511 
L 276.763275 224.625217 
L 283.606809 217.782915 
L 285.203754 219.380147 
" clip-path="url(#pe73966c6bf)"/>
    <path d="M 266.636454 221.589185 
L 259.790755 228.431455 
L 262.186189 229.2306 
L 251.803709 234.81781 
L 257.396122 224.438132 
L 258.194066 226.833965 
L 265.039766 219.991696 
L 266.636454 221.589185 
" clip-path="url(#pe73966c6bf)"/>
    <path d="M 213.435929 296.286587 
L 206.594387 303.127396 
L 208.989978 303.926069 
L 198.608599 309.515325 
L 204.198967 299.134545 
L 204.997383 301.530221 
L 211.838925 294.689413 
L 213.435929 296.286587 
" clip-path="url(#pe73966c6bf)"/>
    <path d="M 217.829858 89.081919 
L 210.988233 95.922557 
L 213.38381 96.721275 
L 203.002327 102.310338 
L 208.592888 91.929662 
L 209.391259 94.325353 
L 216.232884 87.484714 
L 217.829858 89.081919 
" clip-path="url(#pe73966c6bf)"/>
    <path d="M 195.876489 290.720361 
L 189.033819 297.562863 
L 191.429443 298.361437 
L 181.048294 303.951122 
L 186.638234 293.570111 
L 187.436749 295.965754 
L 194.279419 289.123253 
L 195.876489 290.720361 
" clip-path="url(#pe73966c6bf)"/>
    <path d="M 351.292619 129.38074 
L 344.449814 136.222068 
L 346.845362 137.020871 
L 336.463679 142.609563 
L 342.054611 132.229086 
L 342.852897 134.624806 
L 349.695702 127.783478 
L 351.292619 129.38074 
" clip-path="url(#pe73966c6bf)"/>
    <path d="M 234.081401 134.257461 
L 227.239436 141.098229 
L 229.635 141.896983 
L 219.253431 147.485888 
L 224.844151 137.105297 
L 225.642486 139.501 
L 232.484451 132.660232 
L 234.081401 134.257461 
" clip-path="url(#pe73966c6bf)"/>
    <path d="M 184.412151 210.849831 
L 177.571785 217.693615 
L 179.967618 218.491562 
L 169.587935 224.083967 
L 175.175154 213.701491 
L 175.974297 216.096925 
L 182.814663 209.253141 
L 184.412151 210.849831 
" clip-path="url(#pe73966c6bf)"/>
    <path d="M 285.16459 289.727008 
L 278.323394 296.567433 
L 280.718982 297.366112 
L 270.337587 302.955339 
L 275.927985 292.574575 
L 276.726395 294.970253 
L 283.567591 288.129828 
L 285.16459 289.727008 
" clip-path="url(#pe73966c6bf)"/>
    <path d="M 317.709698 83.419433 
L 310.867151 90.261113 
L 313.262735 91.059809 
L 302.881301 96.648963 
L 308.471771 86.268238 
L 309.270163 88.663922 
L 316.11271 81.822242 
L 317.709698 83.419433 
" clip-path="url(#pe73966c6bf)"/>
    <path d="M 135.189902 107.571393 
L 128.346547 114.412818 
L 130.742069 115.211701 
L 120.360201 120.800049 
L 125.951477 110.419758 
L 126.749683 112.815504 
L 133.593038 105.974078 
L 135.189902 107.571393 
" clip-path="url(#pe73966c6bf)"/>
    <path d="M 323.434674 152.040184 
L 316.591102 158.881237 
L 318.986589 159.680222 
L 308.604481 165.268124 
L 314.196203 154.888073 
L 314.994307 157.283854 
L 321.837878 150.442801 
L 323.434674 152.040184 
" clip-path="url(#pe73966c6bf)"/>
    <path d="M 266.666772 295.376004 
L 259.825578 302.216203 
L 262.221154 303.014922 
L 251.839668 308.603979 
L 257.430235 298.223306 
L 258.228605 300.618998 
L 265.069799 293.778799 
L 266.666772 295.376004 
" clip-path="url(#pe73966c6bf)"/>
    <path d="M 116.223874 179.007504 
L 109.381044 185.849371 
L 111.776622 186.648084 
L 101.395149 192.237167 
L 106.985691 181.85648 
L 107.784067 184.25217 
L 114.626897 177.410302 
L 116.223874 179.007504 
" clip-path="url(#pe73966c6bf)"/>
    <path d="M 270.280553 129.879183 
L 263.438085 136.721195 
L 265.833692 137.519819 
L 255.452426 143.109285 
L 261.042584 132.728392 
L 261.841049 135.124052 
L 268.683517 128.28204 
L 270.280553 129.879183 
" clip-path="url(#pe73966c6bf)"/>
    <path d="M 305.329113 279.64671 
L 298.487813 286.4865 
L 300.883358 287.285309 
L 290.501661 292.873976 
L 296.092619 282.493513 
L 296.8909 284.889235 
L 303.7322 278.049444 
L 305.329113 279.64671 
" clip-path="url(#pe73966c6bf)"/>
    <path d="M 276.394493 236.404435 
L 269.553054 243.244356 
L 271.948599 244.043167 
L 261.566899 249.631827 
L 267.157863 239.251368 
L 267.956142 241.64709 
L 274.797581 234.807168 
L 276.394493 236.404435 
" clip-path="url(#pe73966c6bf)"/>
    <path d="M 302.909303 236.25457 
L 296.06718 243.095764 
L 298.462759 243.894471 
L 288.0813 249.483578 
L 293.671818 239.102878 
L 294.470199 241.498566 
L 301.312323 234.657372 
L 302.909303 236.25457 
" clip-path="url(#pe73966c6bf)"/>
    <path d="M 250.093446 116.395431 
L 243.251216 123.237173 
L 245.646821 124.035803 
L 235.265542 129.625245 
L 240.855724 119.244365 
L 241.654183 121.640027 
L 248.496414 114.798285 
L 250.093446 116.395431 
" clip-path="url(#pe73966c6bf)"/>
    <path d="M 264.200891 172.272523 
L 257.355383 179.11632 
L 259.750917 179.915164 
L 249.369139 185.50368 
L 254.960248 175.123298 
L 255.758493 177.519032 
L 262.604001 170.675234 
L 264.200891 172.272523 
" clip-path="url(#pe73966c6bf)"/>
    <path d="M 303.909694 129.631392 
L 297.06574 136.474134 
L 299.461303 137.272891 
L 289.079728 142.861783 
L 294.67046 132.481198 
L 295.468792 134.876903 
L 302.312747 128.034162 
L 303.909694 129.631392 
" clip-path="url(#pe73966c6bf)"/>
    <path d="M 245.063459 217.023788 
L 238.219373 223.862328 
L 240.614683 224.661844 
L 230.231339 230.247449 
L 235.825358 219.868635 
L 236.622932 222.264592 
L 243.467017 215.426052 
L 245.063459 217.023788 
" clip-path="url(#pe73966c6bf)"/>
    <path d="M 216.479953 209.82138 
L 209.630888 216.666166 
L 212.026272 217.465459 
L 201.643446 223.052027 
L 207.236502 212.672695 
L 208.034298 215.068578 
L 214.883362 208.223791 
L 216.479953 209.82138 
" clip-path="url(#pe73966c6bf)"/>
    <path d="M 254.840216 246.822011 
L 247.999387 253.66061 
L 250.39489 254.459545 
L 240.012899 260.047665 
L 245.604404 249.667497 
L 246.402558 252.063261 
L 253.243387 245.224662 
L 254.840216 246.822011 
" clip-path="url(#pe73966c6bf)"/>
    <path d="M 193.017195 131.110621 
L 186.174707 137.951043 
L 188.57022 138.749949 
L 178.188296 144.338194 
L 183.779676 133.957958 
L 184.577859 136.353712 
L 191.420347 129.513291 
L 193.017195 131.110621 
" clip-path="url(#pe73966c6bf)"/>
    <path d="M 333.488669 244.592672 
L 326.647233 251.432281 
L 329.04276 252.231145 
L 318.660934 257.819571 
L 324.252132 247.439238 
L 325.050357 249.834978 
L 331.891793 242.995369 
L 333.488669 244.592672 
" clip-path="url(#pe73966c6bf)"/>
    <path d="M 143.416975 168.386145 
L 136.573602 175.22857 
L 138.969181 176.02728 
L 128.587714 181.616373 
L 134.178245 171.235681 
L 134.976624 173.63137 
L 141.819996 166.788945 
L 143.416975 168.386145 
" clip-path="url(#pe73966c6bf)"/>
    <path d="M 203.401961 65.908987 
L 196.560456 72.749431 
L 198.956028 73.548161 
L 188.574515 79.137169 
L 194.165132 68.756522 
L 194.963491 71.152218 
L 201.804995 64.311774 
L 203.401961 65.908987 
" clip-path="url(#pe73966c6bf)"/>
    <path d="M 191.405522 161.101893 
L 184.563649 167.941663 
L 186.95916 168.740576 
L 176.577221 174.328793 
L 182.168629 163.948572 
L 182.966805 166.344329 
L 189.808679 159.504558 
L 191.405522 161.101893 
" clip-path="url(#pe73966c6bf)"/>
    <path d="M 251.797117 146.817122 
L 244.953888 153.65946 
L 247.34947 154.45816 
L 236.968026 160.047296 
L 242.558515 149.666581 
L 243.356903 152.062266 
L 250.200132 145.219929 
L 251.797117 146.817122 
" clip-path="url(#pe73966c6bf)"/>
    <path d="M 129.624744 135.514978 
L 122.781148 142.357225 
L 125.176703 143.156005 
L 114.795072 148.744794 
L 120.385908 138.364266 
L 121.184217 140.759978 
L 128.027813 133.917731 
L 129.624744 135.514978 
" clip-path="url(#pe73966c6bf)"/>
    <path d="M 331.371121 108.345052 
L 324.527961 115.186901 
L 326.923519 115.985675 
L 316.541903 121.574492 
L 322.13271 111.193948 
L 322.931025 113.589659 
L 329.774185 106.74781 
L 331.371121 108.345052 
" clip-path="url(#pe73966c6bf)"/>
    <path d="M 294.082145 175.560688 
L 287.237062 182.403754 
L 289.632579 183.202652 
L 279.250676 188.790935 
L 284.842017 178.410678 
L 285.640208 180.80643 
L 292.485291 173.963363 
L 294.082145 175.560688 
" clip-path="url(#pe73966c6bf)"/>
    <path d="M 291.50008 74.687606 
L 284.65778 81.529249 
L 287.053376 82.327909 
L 276.672028 87.917224 
L 282.262338 77.536412 
L 283.060768 79.932084 
L 289.903067 73.09044 
L 291.50008 74.687606 
" clip-path="url(#pe73966c6bf)"/>
    <path d="M 161.126798 198.6263 
L 154.286034 205.467377 
L 156.681686 206.265867 
L 146.300734 211.855917 
L 151.890309 201.474709 
L 152.688908 203.870324 
L 159.529672 197.029247 
L 161.126798 198.6263 
" clip-path="url(#pe73966c6bf)"/>
    <path d="M 158.755975 261.601816 
L 151.912193 268.4433 
L 154.307692 269.242247 
L 143.925674 274.830316 
L 149.51723 264.450175 
L 150.315372 266.845943 
L 157.159154 260.004459 
L 158.755975 261.601816 
" clip-path="url(#pe73966c6bf)"/>
    <path d="M 159.109946 90.972433 
L 152.267843 97.812721 
L 154.663371 98.611584 
L 144.28155 104.200019 
L 149.872739 93.819681 
L 150.670966 96.21542 
L 157.513068 89.375132 
L 159.109946 90.972433 
" clip-path="url(#pe73966c6bf)"/>
   </g>
   <g id="matplotlib.axis_1">
    <g id="xtick_1">
     <g id="line2d_1">
      <defs>
       <path id="m7e14b4a0d6" d="M 0 0 
L 0 3.5 
" style="stroke: #000000; stroke-width: 0.8"/>
      </defs>
      <g>
       <use xlink:href="#m7e14b4a0d6" x="65.392533" y="307.584" style="stroke: #000000; stroke-width: 0.8"/>
      </g>
     </g>
     <g id="text_1">
      <!-- −90.0 -->
      <g transform="translate(47.005345 323.702125) scale(0.12 -0.12)">
       <defs>
        <path id="DejaVuSans-2212" d="M 678 2272 
L 4684 2272 
L 4684 1741 
L 678 1741 
L 678 2272 
z
" transform="scale(0.015625)"/>
        <path id="DejaVuSans-39" d="M 703 97 
L 703 672 
Q 941 559 1184 500 
Q 1428 441 1663 441 
Q 2288 441 2617 861 
Q 2947 1281 2994 2138 
Q 2813 1869 2534 1725 
Q 2256 1581 1919 1581 
Q 1219 1581 811 2004 
Q 403 2428 403 3163 
Q 403 3881 828 4315 
Q 1253 4750 1959 4750 
Q 2769 4750 3195 4129 
Q 3622 3509 3622 2328 
Q 3622 1225 3098 567 
Q 2575 -91 1691 -91 
Q 1453 -91 1209 -44 
Q 966 3 703 97 
z
M 1959 2075 
Q 2384 2075 2632 2365 
Q 2881 2656 2881 3163 
Q 2881 3666 2632 3958 
Q 2384 4250 1959 4250 
Q 1534 4250 1286 3958 
Q 1038 3666 1038 3163 
Q 1038 2656 1286 2365 
Q 1534 2075 1959 2075 
z
" transform="scale(0.015625)"/>
        <path id="DejaVuSans-30" d="M 2034 4250 
Q 1547 4250 1301 3770 
Q 1056 3291 1056 2328 
Q 1056 1369 1301 889 
Q 1547 409 2034 409 
Q 2525 409 2770 889 
Q 3016 1369 3016 2328 
Q 3016 3291 2770 3770 
Q 2525 4250 2034 4250 
z
M 2034 4750 
Q 2819 4750 3233 4129 
Q 3647 3509 3647 2328 
Q 3647 1150 3233 529 
Q 2819 -91 2034 -91 
Q 1250 -91 836 529 
Q 422 1150 422 2328 
Q 422 3509 836 4129 
Q 1250 4750 2034 4750 
z
" transform="scale(0.015625)"/>
        <path id="DejaVuSans-2e" d="M 684 794 
L 1344 794 
L 1344 0 
L 684 0 
L 684 794 
z
" transform="scale(0.015625)"/>
       </defs>
       <use xlink:href="#DejaVuSans-2212"/>
       <use xlink:href="#DejaVuSans-39" transform="translate(83.789062 0)"/>
       <use xlink:href="#DejaVuSans-30" transform="translate(147.412109 0)"/>
       <use xlink:href="#DejaVuSans-2e" transform="translate(211.035156 0)"/>
       <use xlink:href="#DejaVuSans-30" transform="translate(242.822266 0)"/>
      </g>
     </g>
    </g>
    <g id="xtick_2">
     <g id="line2d_2">
      <g>
       <use xlink:href="#m7e14b4a0d6" x="128.379666" y="307.584" style="stroke: #000000; stroke-width: 0.8"/>
      </g>
     </g>
     <g id="text_2">
      <!-- −89.5 -->
      <g transform="translate(109.992479 323.702125) scale(0.12 -0.12)">
       <defs>
        <path id="DejaVuSans-38" d="M 2034 2216 
Q 1584 2216 1326 1975 
Q 1069 1734 1069 1313 
Q 1069 891 1326 650 
Q 1584 409 2034 409 
Q 2484 409 2743 651 
Q 3003 894 3003 1313 
Q 3003 1734 2745 1975 
Q 2488 2216 2034 2216 
z
M 1403 2484 
Q 997 2584 770 2862 
Q 544 3141 544 3541 
Q 544 4100 942 4425 
Q 1341 4750 2034 4750 
Q 2731 4750 3128 4425 
Q 3525 4100 3525 3541 
Q 3525 3141 3298 2862 
Q 3072 2584 2669 2484 
Q 3125 2378 3379 2068 
Q 3634 1759 3634 1313 
Q 3634 634 3220 271 
Q 2806 -91 2034 -91 
Q 1263 -91 848 271 
Q 434 634 434 1313 
Q 434 1759 690 2068 
Q 947 2378 1403 2484 
z
M 1172 3481 
Q 1172 3119 1398 2916 
Q 1625 2713 2034 2713 
Q 2441 2713 2670 2916 
Q 2900 3119 2900 3481 
Q 2900 3844 2670 4047 
Q 2441 4250 2034 4250 
Q 1625 4250 1398 4047 
Q 1172 3844 1172 3481 
z
" transform="scale(0.015625)"/>
        <path id="DejaVuSans-35" d="M 691 4666 
L 3169 4666 
L 3169 4134 
L 1269 4134 
L 1269 2991 
Q 1406 3038 1543 3061 
Q 1681 3084 1819 3084 
Q 2600 3084 3056 2656 
Q 3513 2228 3513 1497 
Q 3513 744 3044 326 
Q 2575 -91 1722 -91 
Q 1428 -91 1123 -41 
Q 819 9 494 109 
L 494 744 
Q 775 591 1075 516 
Q 1375 441 1709 441 
Q 2250 441 2565 725 
Q 2881 1009 2881 1497 
Q 2881 1984 2565 2268 
Q 2250 2553 1709 2553 
Q 1456 2553 1204 2497 
Q 953 2441 691 2322 
L 691 4666 
z
" transform="scale(0.015625)"/>
       </defs>
       <use xlink:href="#DejaVuSans-2212"/>
       <use xlink:href="#DejaVuSans-38" transform="translate(83.789062 0)"/>
       <use xlink:href="#DejaVuSans-39" transform="translate(147.412109 0)"/>
       <use xlink:href="#DejaVuSans-2e" transform="translate(211.035156 0)"/>
       <use xlink:href="#DejaVuSans-35" transform="translate(242.822266 0)"/>
      </g>
     </g>
    </g>
    <g id="xtick_3">
     <g id="line2d_3">
      <g>
       <use xlink:href="#m7e14b4a0d6" x="191.3668" y="307.584" style="stroke: #000000; stroke-width: 0.8"/>
      </g>
     </g>
     <g id="text_3">
      <!-- −89.0 -->
      <g transform="translate(172.979613 323.702125) scale(0.12 -0.12)">
       <use xlink:href="#DejaVuSans-2212"/>
       <use xlink:href="#DejaVuSans-38" transform="translate(83.789062 0)"/>
       <use xlink:href="#DejaVuSans-39" transform="translate(147.412109 0)"/>
       <use xlink:href="#DejaVuSans-2e" transform="translate(211.035156 0)"/>
       <use xlink:href="#DejaVuSans-30" transform="translate(242.822266 0)"/>
      </g>
     </g>
    </g>
    <g id="xtick_4">
     <g id="line2d_4">
      <g>
       <use xlink:href="#m7e14b4a0d6" x="254.353934" y="307.584" style="stroke: #000000; stroke-width: 0.8"/>
      </g>
     </g>
     <g id="text_4">
      <!-- −88.5 -->
      <g transform="translate(235.966746 323.702125) scale(0.12 -0.12)">
       <use xlink:href="#DejaVuSans-2212"/>
       <use xlink:href="#DejaVuSans-38" transform="translate(83.789062 0)"/>
       <use xlink:href="#DejaVuSans-38" transform="translate(147.412109 0)"/>
       <use xlink:href="#DejaVuSans-2e" transform="translate(211.035156 0)"/>
       <use xlink:href="#DejaVuSans-35" transform="translate(242.822266 0)"/>
      </g>
     </g>
    </g>
    <g id="xtick_5">
     <g id="line2d_5">
      <g>
       <use xlink:href="#m7e14b4a0d6" x="317.341067" y="307.584" style="stroke: #000000; stroke-width: 0.8"/>
      </g>
     </g>
     <g id="text_5">
      <!-- −88.0 -->
      <g transform="translate(298.95388 323.702125) scale(0.12 -0.12)">
       <use xlink:href="#DejaVuSans-2212"/>
       <use xlink:href="#DejaVuSans-38" transform="translate(83.789062 0)"/>
       <use xlink:href="#DejaVuSans-38" transform="translate(147.412109 0)"/>
       <use xlink:href="#DejaVuSans-2e" transform="translate(211.035156 0)"/>
       <use xlink:href="#DejaVuSans-30" transform="translate(242.822266 0)"/>
      </g>
     </g>
    </g>
    <g id="xtick_6">
     <g id="line2d_6">
      <g>
       <use xlink:href="#m7e14b4a0d6" x="380.328201" y="307.584" style="stroke: #000000; stroke-width: 0.8"/>
      </g>
     </g>
     <g id="text_6">
      <!-- −87.5 -->
      <g transform="translate(361.941014 323.702125) scale(0.12 -0.12)">
       <defs>
        <path id="DejaVuSans-37" d="M 525 4666 
L 3525 4666 
L 3525 4397 
L 1831 0 
L 1172 0 
L 2766 4134 
L 525 4134 
L 525 4666 
z
" transform="scale(0.015625)"/>
       </defs>
       <use xlink:href="#DejaVuSans-2212"/>
       <use xlink:href="#DejaVuSans-38" transform="translate(83.789062 0)"/>
       <use xlink:href="#DejaVuSans-37" transform="translate(147.412109 0)"/>
       <use xlink:href="#DejaVuSans-2e" transform="translate(211.035156 0)"/>
       <use xlink:href="#DejaVuSans-35" transform="translate(242.822266 0)"/>
      </g>
     </g>
    </g>
    <g id="text_7">
     <!-- x -->
     <g transform="translate(232.016875 340.835562) scale(0.14 -0.14)">
      <defs>
       <path id="DejaVuSans-78" d="M 3513 3500 
L 2247 1797 
L 3578 0 
L 2900 0 
L 1881 1375 
L 863 0 
L 184 0 
L 1544 1831 
L 300 3500 
L 978 3500 
L 1906 2253 
L 2834 3500 
L 3513 3500 
z
" transform="scale(0.015625)"/>
      </defs>
      <use xlink:href="#DejaVuSans-78"/>
     </g>
    </g>
   </g>
   <g id="matplotlib.axis_2">
    <g id="ytick_1">
     <g id="line2d_7">
      <defs>
       <path id="mfdb67534c4" d="M 0 0 
L -3.5 0 
" style="stroke: #000000; stroke-width: 0.8"/>
      </defs>
      <g>
       <use xlink:href="#mfdb67534c4" x="57.6" y="291.363895" style="stroke: #000000; stroke-width: 0.8"/>
      </g>
     </g>
     <g id="text_8">
      <!-- −87.25 -->
      <g transform="translate(6.190625 295.922958) scale(0.12 -0.12)">
       <defs>
        <path id="DejaVuSans-32" d="M 1228 531 
L 3431 531 
L 3431 0 
L 469 0 
L 469 531 
Q 828 903 1448 1529 
Q 2069 2156 2228 2338 
Q 2531 2678 2651 2914 
Q 2772 3150 2772 3378 
Q 2772 3750 2511 3984 
Q 2250 4219 1831 4219 
Q 1534 4219 1204 4116 
Q 875 4013 500 3803 
L 500 4441 
Q 881 4594 1212 4672 
Q 1544 4750 1819 4750 
Q 2544 4750 2975 4387 
Q 3406 4025 3406 3419 
Q 3406 3131 3298 2873 
Q 3191 2616 2906 2266 
Q 2828 2175 2409 1742 
Q 1991 1309 1228 531 
z
" transform="scale(0.015625)"/>
       </defs>
       <use xlink:href="#DejaVuSans-2212"/>
       <use xlink:href="#DejaVuSans-38" transform="translate(83.789062 0)"/>
       <use xlink:href="#DejaVuSans-37" transform="translate(147.412109 0)"/>
       <use xlink:href="#DejaVuSans-2e" transform="translate(211.035156 0)"/>
       <use xlink:href="#DejaVuSans-32" transform="translate(242.822266 0)"/>
       <use xlink:href="#DejaVuSans-35" transform="translate(306.445312 0)"/>
      </g>
     </g>
    </g>
    <g id="ytick_2">
     <g id="line2d_8">
      <g>
       <use xlink:href="#mfdb67534c4" x="57.6" y="259.870328" style="stroke: #000000; stroke-width: 0.8"/>
      </g>
     </g>
     <g id="text_9">
      <!-- −87.00 -->
      <g transform="translate(6.190625 264.429391) scale(0.12 -0.12)">
       <use xlink:href="#DejaVuSans-2212"/>
       <use xlink:href="#DejaVuSans-38" transform="translate(83.789062 0)"/>
       <use xlink:href="#DejaVuSans-37" transform="translate(147.412109 0)"/>
       <use xlink:href="#DejaVuSans-2e" transform="translate(211.035156 0)"/>
       <use xlink:href="#DejaVuSans-30" transform="translate(242.822266 0)"/>
       <use xlink:href="#DejaVuSans-30" transform="translate(306.445312 0)"/>
      </g>
     </g>
    </g>
    <g id="ytick_3">
     <g id="line2d_9">
      <g>
       <use xlink:href="#mfdb67534c4" x="57.6" y="228.376761" style="stroke: #000000; stroke-width: 0.8"/>
      </g>
     </g>
     <g id="text_10">
      <!-- −86.75 -->
      <g transform="translate(6.190625 232.935824) scale(0.12 -0.12)">
       <defs>
        <path id="DejaVuSans-36" d="M 2113 2584 
Q 1688 2584 1439 2293 
Q 1191 2003 1191 1497 
Q 1191 994 1439 701 
Q 1688 409 2113 409 
Q 2538 409 2786 701 
Q 3034 994 3034 1497 
Q 3034 2003 2786 2293 
Q 2538 2584 2113 2584 
z
M 3366 4563 
L 3366 3988 
Q 3128 4100 2886 4159 
Q 2644 4219 2406 4219 
Q 1781 4219 1451 3797 
Q 1122 3375 1075 2522 
Q 1259 2794 1537 2939 
Q 1816 3084 2150 3084 
Q 2853 3084 3261 2657 
Q 3669 2231 3669 1497 
Q 3669 778 3244 343 
Q 2819 -91 2113 -91 
Q 1303 -91 875 529 
Q 447 1150 447 2328 
Q 447 3434 972 4092 
Q 1497 4750 2381 4750 
Q 2619 4750 2861 4703 
Q 3103 4656 3366 4563 
z
" transform="scale(0.015625)"/>
       </defs>
       <use xlink:href="#DejaVuSans-2212"/>
       <use xlink:href="#DejaVuSans-38" transform="translate(83.789062 0)"/>
       <use xlink:href="#DejaVuSans-36" transform="translate(147.412109 0)"/>
       <use xlink:href="#DejaVuSans-2e" transform="translate(211.035156 0)"/>
       <use xlink:href="#DejaVuSans-37" transform="translate(242.822266 0)"/>
       <use xlink:href="#DejaVuSans-35" transform="translate(306.445312 0)"/>
      </g>
     </g>
    </g>
    <g id="ytick_4">
     <g id="line2d_10">
      <g>
       <use xlink:href="#mfdb67534c4" x="57.6" y="196.883195" style="stroke: #000000; stroke-width: 0.8"/>
      </g>
     </g>
     <g id="text_11">
      <!-- −86.50 -->
      <g transform="translate(6.190625 201.442257) scale(0.12 -0.12)">
       <use xlink:href="#DejaVuSans-2212"/>
       <use xlink:href="#DejaVuSans-38" transform="translate(83.789062 0)"/>
       <use xlink:href="#DejaVuSans-36" transform="translate(147.412109 0)"/>
       <use xlink:href="#DejaVuSans-2e" transform="translate(211.035156 0)"/>
       <use xlink:href="#DejaVuSans-35" transform="translate(242.822266 0)"/>
       <use xlink:href="#DejaVuSans-30" transform="translate(306.445312 0)"/>
      </g>
     </g>
    </g>
    <g id="ytick_5">
     <g id="line2d_11">
      <g>
       <use xlink:href="#mfdb67534c4" x="57.6" y="165.389628" style="stroke: #000000; stroke-width: 0.8"/>
      </g>
     </g>
     <g id="text_12">
      <!-- −86.25 -->
      <g transform="translate(6.190625 169.94869) scale(0.12 -0.12)">
       <use xlink:href="#DejaVuSans-2212"/>
       <use xlink:href="#DejaVuSans-38" transform="translate(83.789062 0)"/>
       <use xlink:href="#DejaVuSans-36" transform="translate(147.412109 0)"/>
       <use xlink:href="#DejaVuSans-2e" transform="translate(211.035156 0)"/>
       <use xlink:href="#DejaVuSans-32" transform="translate(242.822266 0)"/>
       <use xlink:href="#DejaVuSans-35" transform="translate(306.445312 0)"/>
      </g>
     </g>
    </g>
    <g id="ytick_6">
     <g id="line2d_12">
      <g>
       <use xlink:href="#mfdb67534c4" x="57.6" y="133.896061" style="stroke: #000000; stroke-width: 0.8"/>
      </g>
     </g>
     <g id="text_13">
      <!-- −86.00 -->
      <g transform="translate(6.190625 138.455123) scale(0.12 -0.12)">
       <use xlink:href="#DejaVuSans-2212"/>
       <use xlink:href="#DejaVuSans-38" transform="translate(83.789062 0)"/>
       <use xlink:href="#DejaVuSans-36" transform="translate(147.412109 0)"/>
       <use xlink:href="#DejaVuSans-2e" transform="translate(211.035156 0)"/>
       <use xlink:href="#DejaVuSans-30" transform="translate(242.822266 0)"/>
       <use xlink:href="#DejaVuSans-30" transform="translate(306.445312 0)"/>
      </g>
     </g>
    </g>
    <g id="ytick_7">
     <g id="line2d_13">
      <g>
       <use xlink:href="#mfdb67534c4" x="57.6" y="102.402494" style="stroke: #000000; stroke-width: 0.8"/>
      </g>
     </g>
     <g id="text_14">
      <!-- −85.75 -->
      <g transform="translate(6.190625 106.961557) scale(0.12 -0.12)">
       <use xlink:href="#DejaVuSans-2212"/>
       <use xlink:href="#DejaVuSans-38" transform="translate(83.789062 0)"/>
       <use xlink:href="#DejaVuSans-35" transform="translate(147.412109 0)"/>
       <use xlink:href="#DejaVuSans-2e" transform="translate(211.035156 0)"/>
       <use xlink:href="#DejaVuSans-37" transform="translate(242.822266 0)"/>
       <use xlink:href="#DejaVuSans-35" transform="translate(306.445312 0)"/>
      </g>
     </g>
    </g>
    <g id="ytick_8">
     <g id="line2d_14">
      <g>
       <use xlink:href="#mfdb67534c4" x="57.6" y="70.908927" style="stroke: #000000; stroke-width: 0.8"/>
      </g>
     </g>
     <g id="text_15">
      <!-- −85.50 -->
      <g transform="translate(6.190625 75.46799) scale(0.12 -0.12)">
       <use xlink:href="#DejaVuSans-2212"/>
       <use xlink:href="#DejaVuSans-38" transform="translate(83.789062 0)"/>
       <use xlink:href="#DejaVuSans-35" transform="translate(147.412109 0)"/>
       <use xlink:href="#DejaVuSans-2e" transform="translate(211.035156 0)"/>
       <use xlink:href="#DejaVuSans-35" transform="translate(242.822266 0)"/>
       <use xlink:href="#DejaVuSans-30" transform="translate(306.445312 0)"/>
      </g>
     </g>
    </g>
    <g id="text_16">
     <!-- y -->
     <g transform="translate(-0.720937 178.671125) rotate(-90) scale(0.14 -0.14)">
      <defs>
       <path id="DejaVuSans-79" d="M 2059 -325 
Q 1816 -950 1584 -1140 
Q 1353 -1331 966 -1331 
L 506 -1331 
L 506 -850 
L 844 -850 
Q 1081 -850 1212 -737 
Q 1344 -625 1503 -206 
L 1606 56 
L 191 3500 
L 800 3500 
L 1894 763 
L 2988 3500 
L 3597 3500 
L 2059 -325 
z
" transform="scale(0.015625)"/>
      </defs>
      <use xlink:href="#DejaVuSans-79"/>
     </g>
    </g>
   </g>
   <g id="line2d_15">
    <defs>
     <path id="m049a39a3d1" d="M 0 3 
C 0.795609 3 1.55874 2.683901 2.12132 2.12132 
C 2.683901 1.55874 3 0.795609 3 0 
C 3 -0.795609 2.683901 -1.55874 2.12132 -2.12132 
C 1.55874 -2.683901 0.795609 -3 0 -3 
C -0.795609 -3 -1.55874 -2.683901 -2.12132 -2.12132 
C -2.683901 -1.55874 -3 -0.795609 -3 0 
C -3 0.795609 -2.683901 1.55874 -2.12132 2.12132 
C -1.55874 2.683901 -0.795609 3 0 3 
z
" style="stroke: #0000ff"/>
    </defs>
    <g clip-path="url(#pe73966c6bf)">
     <use xlink:href="#m049a39a3d1" x="191.68454" y="97.953621" style="fill: #0000ff; stroke: #0000ff"/>
     <use xlink:href="#m049a39a3d1" x="163.716236" y="141.765282" style="fill: #0000ff; stroke: #0000ff"/>
     <use xlink:href="#m049a39a3d1" x="233.454461" y="167.691494" style="fill: #0000ff; stroke: #0000ff"/>
     <use xlink:href="#m049a39a3d1" x="283.443689" y="261.69748" style="fill: #0000ff; stroke: #0000ff"/>
     <use xlink:href="#m049a39a3d1" x="212.75777" y="264.881906" style="fill: #0000ff; stroke: #0000ff"/>
     <use xlink:href="#m049a39a3d1" x="164.937677" y="228.334089" style="fill: #0000ff; stroke: #0000ff"/>
     <use xlink:href="#m049a39a3d1" x="218.265001" y="115.253498" style="fill: #0000ff; stroke: #0000ff"/>
     <use xlink:href="#m049a39a3d1" x="351.534776" y="157.095307" style="fill: #0000ff; stroke: #0000ff"/>
     <use xlink:href="#m049a39a3d1" x="194.873862" y="190.904373" style="fill: #0000ff; stroke: #0000ff"/>
     <use xlink:href="#m049a39a3d1" x="196.569534" y="230.365398" style="fill: #0000ff; stroke: #0000ff"/>
     <use xlink:href="#m049a39a3d1" x="225.091512" y="238.134086" style="fill: #0000ff; stroke: #0000ff"/>
     <use xlink:href="#m049a39a3d1" x="257.52194" y="84.175524" style="fill: #0000ff; stroke: #0000ff"/>
     <use xlink:href="#m049a39a3d1" x="131.317563" y="221.096361" style="fill: #0000ff; stroke: #0000ff"/>
     <use xlink:href="#m049a39a3d1" x="216.341505" y="146.914773" style="fill: #0000ff; stroke: #0000ff"/>
     <use xlink:href="#m049a39a3d1" x="275.65397" y="197.741358" style="fill: #0000ff; stroke: #0000ff"/>
     <use xlink:href="#m049a39a3d1" x="324.473447" y="177.526868" style="fill: #0000ff; stroke: #0000ff"/>
     <use xlink:href="#m049a39a3d1" x="306.185912" y="203.306429" style="fill: #0000ff; stroke: #0000ff"/>
     <use xlink:href="#m049a39a3d1" x="238.584496" y="291.980166" style="fill: #0000ff; stroke: #0000ff"/>
     <use xlink:href="#m049a39a3d1" x="279.875342" y="107.96813" style="fill: #0000ff; stroke: #0000ff"/>
     <use xlink:href="#m049a39a3d1" x="280.545079" y="148.083371" style="fill: #0000ff; stroke: #0000ff"/>
    </g>
   </g>
   <g id="line2d_16">
    <defs>
     <path id="m30967a3eac" d="M 0 3 
C 0.795609 3 1.55874 2.683901 2.12132 2.12132 
C 2.683901 1.55874 3 0.795609 3 0 
C 3 -0.795609 2.683901 -1.55874 2.12132 -2.12132 
C 1.55874 -2.683901 0.795609 -3 0 -3 
C -0.795609 -3 -1.55874 -2.683901 -2.12132 -2.12132 
C -2.683901 -1.55874 -3 -0.795609 -3 0 
C -3 0.795609 -2.683901 1.55874 -2.12132 2.12132 
C -1.55874 2.683901 -0.795609 3 0 3 
z
" style="stroke: #ff0000"/>
    </defs>
    <g clip-path="url(#pe73966c6bf)">
     <use xlink:href="#m30967a3eac" x="151.504358" y="118.142209" style="fill: #ff0000; stroke: #ff0000"/>
     <use xlink:href="#m30967a3eac" x="228.464384" y="53.568" style="fill: #ff0000; stroke: #ff0000"/>
     <use xlink:href="#m30967a3eac" x="115.367827" y="198.674351" style="fill: #ff0000; stroke: #ff0000"/>
     <use xlink:href="#m30967a3eac" x="330.737738" y="135.117111" style="fill: #ff0000; stroke: #ff0000"/>
     <use xlink:href="#m30967a3eac" x="175.139952" y="283.266718" style="fill: #ff0000; stroke: #ff0000"/>
     <use xlink:href="#m30967a3eac" x="248.565589" y="55.755844" style="fill: #ff0000; stroke: #ff0000"/>
     <use xlink:href="#m30967a3eac" x="238.874367" y="265.048751" style="fill: #ff0000; stroke: #ff0000"/>
     <use xlink:href="#m30967a3eac" x="316.481473" y="265.187681" style="fill: #ff0000; stroke: #ff0000"/>
     <use xlink:href="#m30967a3eac" x="327.800347" y="216.421562" style="fill: #ff0000; stroke: #ff0000"/>
     <use xlink:href="#m30967a3eac" x="232.283839" y="73.147533" style="fill: #ff0000; stroke: #ff0000"/>
     <use xlink:href="#m30967a3eac" x="175.158435" y="180.381676" style="fill: #ff0000; stroke: #ff0000"/>
     <use xlink:href="#m30967a3eac" x="166.90073" y="166.561922" style="fill: #ff0000; stroke: #ff0000"/>
     <use xlink:href="#m30967a3eac" x="304.0789" y="99.746537" style="fill: #ff0000; stroke: #ff0000"/>
     <use xlink:href="#m30967a3eac" x="135.851624" y="246.303332" style="fill: #ff0000; stroke: #ff0000"/>
     <use xlink:href="#m30967a3eac" x="187.664719" y="267.97572" style="fill: #ff0000; stroke: #ff0000"/>
     <use xlink:href="#m30967a3eac" x="115.221759" y="158.193423" style="fill: #ff0000; stroke: #ff0000"/>
     <use xlink:href="#m30967a3eac" x="233.857594" y="94.889686" style="fill: #ff0000; stroke: #ff0000"/>
     <use xlink:href="#m30967a3eac" x="171.356262" y="115.51935" style="fill: #ff0000; stroke: #ff0000"/>
     <use xlink:href="#m30967a3eac" x="232.59674" y="194.342158" style="fill: #ff0000; stroke: #ff0000"/>
     <use xlink:href="#m30967a3eac" x="259.62325" y="273.53293" style="fill: #ff0000; stroke: #ff0000"/>
     <use xlink:href="#m30967a3eac" x="210.053096" y="171.308968" style="fill: #ff0000; stroke: #ff0000"/>
     <use xlink:href="#m30967a3eac" x="134.853406" y="192.98038" style="fill: #ff0000; stroke: #ff0000"/>
     <use xlink:href="#m30967a3eac" x="218.308993" y="185.092544" style="fill: #ff0000; stroke: #ff0000"/>
     <use xlink:href="#m30967a3eac" x="305.757743" y="154.600448" style="fill: #ff0000; stroke: #ff0000"/>
     <use xlink:href="#m30967a3eac" x="176.156511" y="69.960109" style="fill: #ff0000; stroke: #ff0000"/>
     <use xlink:href="#m30967a3eac" x="357.098241" y="182.896792" style="fill: #ff0000; stroke: #ff0000"/>
     <use xlink:href="#m30967a3eac" x="245.419352" y="185.408435" style="fill: #ff0000; stroke: #ff0000"/>
     <use xlink:href="#m30967a3eac" x="349.863088" y="221.192261" style="fill: #ff0000; stroke: #ff0000"/>
     <use xlink:href="#m30967a3eac" x="185.060946" y="250.166849" style="fill: #ff0000; stroke: #ff0000"/>
     <use xlink:href="#m30967a3eac" x="254.373382" y="197.327635" style="fill: #ff0000; stroke: #ff0000"/>
     <use xlink:href="#m30967a3eac" x="337.38035" y="199.391075" style="fill: #ff0000; stroke: #ff0000"/>
     <use xlink:href="#m30967a3eac" x="356.535318" y="201.845709" style="fill: #ff0000; stroke: #ff0000"/>
     <use xlink:href="#m30967a3eac" x="268.394807" y="57.441562" style="fill: #ff0000; stroke: #ff0000"/>
     <use xlink:href="#m30967a3eac" x="284.405282" y="218.581531" style="fill: #ff0000; stroke: #ff0000"/>
     <use xlink:href="#m30967a3eac" x="265.83811" y="220.79044" style="fill: #ff0000; stroke: #ff0000"/>
     <use xlink:href="#m30967a3eac" x="212.637427" y="295.488" style="fill: #ff0000; stroke: #ff0000"/>
     <use xlink:href="#m30967a3eac" x="217.031371" y="88.283317" style="fill: #ff0000; stroke: #ff0000"/>
     <use xlink:href="#m30967a3eac" x="195.077954" y="289.921807" style="fill: #ff0000; stroke: #ff0000"/>
     <use xlink:href="#m30967a3eac" x="350.494161" y="128.582109" style="fill: #ff0000; stroke: #ff0000"/>
     <use xlink:href="#m30967a3eac" x="233.282926" y="133.458846" style="fill: #ff0000; stroke: #ff0000"/>
     <use xlink:href="#m30967a3eac" x="183.613407" y="210.051486" style="fill: #ff0000; stroke: #ff0000"/>
     <use xlink:href="#m30967a3eac" x="284.366091" y="288.928418" style="fill: #ff0000; stroke: #ff0000"/>
     <use xlink:href="#m30967a3eac" x="316.911204" y="82.620838" style="fill: #ff0000; stroke: #ff0000"/>
     <use xlink:href="#m30967a3eac" x="134.39147" y="106.772736" style="fill: #ff0000; stroke: #ff0000"/>
     <use xlink:href="#m30967a3eac" x="322.636276" y="151.241492" style="fill: #ff0000; stroke: #ff0000"/>
     <use xlink:href="#m30967a3eac" x="265.868285" y="294.577402" style="fill: #ff0000; stroke: #ff0000"/>
     <use xlink:href="#m30967a3eac" x="115.425385" y="178.208903" style="fill: #ff0000; stroke: #ff0000"/>
     <use xlink:href="#m30967a3eac" x="269.482035" y="129.080611" style="fill: #ff0000; stroke: #ff0000"/>
     <use xlink:href="#m30967a3eac" x="304.530657" y="278.848077" style="fill: #ff0000; stroke: #ff0000"/>
     <use xlink:href="#m30967a3eac" x="275.596037" y="235.605802" style="fill: #ff0000; stroke: #ff0000"/>
    </g>
   </g>
   <g id="line2d_17">
    <defs>
     <path id="mbaed377300" d="M 0 3 
C 0.795609 3 1.55874 2.683901 2.12132 2.12132 
C 2.683901 1.55874 3 0.795609 3 0 
C 3 -0.795609 2.683901 -1.55874 2.12132 -2.12132 
C 1.55874 -2.683901 0.795609 -3 0 -3 
C -0.795609 -3 -1.55874 -2.683901 -2.12132 -2.12132 
C -2.683901 -1.55874 -3 -0.795609 -3 0 
C -3 0.795609 -2.683901 1.55874 -2.12132 2.12132 
C -1.55874 2.683901 -0.795609 3 0 3 
z
" style="stroke: #000000"/>
    </defs>
    <g clip-path="url(#pe73966c6bf)">
     <use xlink:href="#mbaed377300" x="302.110813" y="235.455971" style="stroke: #000000"/>
     <use xlink:href="#mbaed377300" x="249.29493" y="115.596858" style="stroke: #000000"/>
     <use xlink:href="#mbaed377300" x="263.402446" y="171.473879" style="stroke: #000000"/>
     <use xlink:href="#mbaed377300" x="303.11122" y="128.832777" style="stroke: #000000"/>
     <use xlink:href="#mbaed377300" x="244.265238" y="216.22492" style="stroke: #000000"/>
     <use xlink:href="#mbaed377300" x="215.681658" y="209.022586" style="stroke: #000000"/>
     <use xlink:href="#mbaed377300" x="254.041802" y="246.023337" style="stroke: #000000"/>
     <use xlink:href="#mbaed377300" x="192.218771" y="130.311956" style="stroke: #000000"/>
     <use xlink:href="#mbaed377300" x="332.690231" y="243.794021" style="stroke: #000000"/>
     <use xlink:href="#mbaed377300" x="142.618485" y="167.587545" style="stroke: #000000"/>
     <use xlink:href="#mbaed377300" x="202.603478" y="65.11038" style="stroke: #000000"/>
     <use xlink:href="#mbaed377300" x="190.6071" y="160.303226" style="stroke: #000000"/>
     <use xlink:href="#mbaed377300" x="250.998625" y="146.018526" style="stroke: #000000"/>
     <use xlink:href="#mbaed377300" x="128.826278" y="134.716355" style="stroke: #000000"/>
     <use xlink:href="#mbaed377300" x="330.572653" y="107.546431" style="stroke: #000000"/>
     <use xlink:href="#mbaed377300" x="293.283718" y="174.762025" style="stroke: #000000"/>
     <use xlink:href="#mbaed377300" x="290.701573" y="73.889023" style="stroke: #000000"/>
     <use xlink:href="#mbaed377300" x="160.328235" y="197.827774" style="stroke: #000000"/>
     <use xlink:href="#mbaed377300" x="157.957565" y="260.803138" style="stroke: #000000"/>
     <use xlink:href="#mbaed377300" x="158.311507" y="90.173783" style="stroke: #000000"/>
    </g>
   </g>
   <g id="patch_3">
    <path d="M 57.6 307.584 
L 57.6 41.472 
" style="fill: none; stroke: #000000; stroke-width: 0.8; stroke-linejoin: miter; stroke-linecap: square"/>
   </g>
   <g id="patch_4">
    <path d="M 414.72 307.584 
L 414.72 41.472 
" style="fill: none; stroke: #000000; stroke-width: 0.8; stroke-linejoin: miter; stroke-linecap: square"/>
   </g>
   <g id="patch_5">
    <path d="M 57.6 307.584 
L 414.72 307.584 
" style="fill: none; stroke: #000000; stroke-width: 0.8; stroke-linejoin: miter; stroke-linecap: square"/>
   </g>
   <g id="patch_6">
    <path d="M 57.6 41.472 
L 414.72 41.472 
" style="fill: none; stroke: #000000; stroke-width: 0.8; stroke-linejoin: miter; stroke-linecap: square"/>
   </g>
   <g id="text_17">
    <!-- Velocities at the final time -->
    <g transform="translate(116.81 35.472) scale(0.16 -0.16)">
     <defs>
      <path id="DejaVuSans-Bold-56" d="M 31 4666 
L 1241 4666 
L 2478 1222 
L 3713 4666 
L 4922 4666 
L 3194 0 
L 1759 0 
L 31 4666 
z
" transform="scale(0.015625)"/>
      <path id="DejaVuSans-Bold-65" d="M 4031 1759 
L 4031 1441 
L 1416 1441 
Q 1456 1047 1700 850 
Q 1944 653 2381 653 
Q 2734 653 3104 758 
Q 3475 863 3866 1075 
L 3866 213 
Q 3469 63 3072 -14 
Q 2675 -91 2278 -91 
Q 1328 -91 801 392 
Q 275 875 275 1747 
Q 275 2603 792 3093 
Q 1309 3584 2216 3584 
Q 3041 3584 3536 3087 
Q 4031 2591 4031 1759 
z
M 2881 2131 
Q 2881 2450 2695 2645 
Q 2509 2841 2209 2841 
Q 1884 2841 1681 2658 
Q 1478 2475 1428 2131 
L 2881 2131 
z
" transform="scale(0.015625)"/>
      <path id="DejaVuSans-Bold-6c" d="M 538 4863 
L 1656 4863 
L 1656 0 
L 538 0 
L 538 4863 
z
" transform="scale(0.015625)"/>
      <path id="DejaVuSans-Bold-6f" d="M 2203 2784 
Q 1831 2784 1636 2517 
Q 1441 2250 1441 1747 
Q 1441 1244 1636 976 
Q 1831 709 2203 709 
Q 2569 709 2762 976 
Q 2956 1244 2956 1747 
Q 2956 2250 2762 2517 
Q 2569 2784 2203 2784 
z
M 2203 3584 
Q 3106 3584 3614 3096 
Q 4122 2609 4122 1747 
Q 4122 884 3614 396 
Q 3106 -91 2203 -91 
Q 1297 -91 786 396 
Q 275 884 275 1747 
Q 275 2609 786 3096 
Q 1297 3584 2203 3584 
z
" transform="scale(0.015625)"/>
      <path id="DejaVuSans-Bold-63" d="M 3366 3391 
L 3366 2478 
Q 3138 2634 2908 2709 
Q 2678 2784 2431 2784 
Q 1963 2784 1702 2511 
Q 1441 2238 1441 1747 
Q 1441 1256 1702 982 
Q 1963 709 2431 709 
Q 2694 709 2930 787 
Q 3166 866 3366 1019 
L 3366 103 
Q 3103 6 2833 -42 
Q 2563 -91 2291 -91 
Q 1344 -91 809 395 
Q 275 881 275 1747 
Q 275 2613 809 3098 
Q 1344 3584 2291 3584 
Q 2566 3584 2833 3536 
Q 3100 3488 3366 3391 
z
" transform="scale(0.015625)"/>
      <path id="DejaVuSans-Bold-69" d="M 538 3500 
L 1656 3500 
L 1656 0 
L 538 0 
L 538 3500 
z
M 538 4863 
L 1656 4863 
L 1656 3950 
L 538 3950 
L 538 4863 
z
" transform="scale(0.015625)"/>
      <path id="DejaVuSans-Bold-74" d="M 1759 4494 
L 1759 3500 
L 2913 3500 
L 2913 2700 
L 1759 2700 
L 1759 1216 
Q 1759 972 1856 886 
Q 1953 800 2241 800 
L 2816 800 
L 2816 0 
L 1856 0 
Q 1194 0 917 276 
Q 641 553 641 1216 
L 641 2700 
L 84 2700 
L 84 3500 
L 641 3500 
L 641 4494 
L 1759 4494 
z
" transform="scale(0.015625)"/>
      <path id="DejaVuSans-Bold-73" d="M 3272 3391 
L 3272 2541 
Q 2913 2691 2578 2766 
Q 2244 2841 1947 2841 
Q 1628 2841 1473 2761 
Q 1319 2681 1319 2516 
Q 1319 2381 1436 2309 
Q 1553 2238 1856 2203 
L 2053 2175 
Q 2913 2066 3209 1816 
Q 3506 1566 3506 1031 
Q 3506 472 3093 190 
Q 2681 -91 1863 -91 
Q 1516 -91 1145 -36 
Q 775 19 384 128 
L 384 978 
Q 719 816 1070 734 
Q 1422 653 1784 653 
Q 2113 653 2278 743 
Q 2444 834 2444 1013 
Q 2444 1163 2330 1236 
Q 2216 1309 1875 1350 
L 1678 1375 
Q 931 1469 631 1722 
Q 331 1975 331 2491 
Q 331 3047 712 3315 
Q 1094 3584 1881 3584 
Q 2191 3584 2531 3537 
Q 2872 3491 3272 3391 
z
" transform="scale(0.015625)"/>
      <path id="DejaVuSans-Bold-20" transform="scale(0.015625)"/>
      <path id="DejaVuSans-Bold-61" d="M 2106 1575 
Q 1756 1575 1579 1456 
Q 1403 1338 1403 1106 
Q 1403 894 1545 773 
Q 1688 653 1941 653 
Q 2256 653 2472 879 
Q 2688 1106 2688 1447 
L 2688 1575 
L 2106 1575 
z
M 3816 1997 
L 3816 0 
L 2688 0 
L 2688 519 
Q 2463 200 2181 54 
Q 1900 -91 1497 -91 
Q 953 -91 614 226 
Q 275 544 275 1050 
Q 275 1666 698 1953 
Q 1122 2241 2028 2241 
L 2688 2241 
L 2688 2328 
Q 2688 2594 2478 2717 
Q 2269 2841 1825 2841 
Q 1466 2841 1156 2769 
Q 847 2697 581 2553 
L 581 3406 
Q 941 3494 1303 3539 
Q 1666 3584 2028 3584 
Q 2975 3584 3395 3211 
Q 3816 2838 3816 1997 
z
" transform="scale(0.015625)"/>
      <path id="DejaVuSans-Bold-68" d="M 4056 2131 
L 4056 0 
L 2931 0 
L 2931 347 
L 2931 1625 
Q 2931 2084 2911 2256 
Q 2891 2428 2841 2509 
Q 2775 2619 2662 2680 
Q 2550 2741 2406 2741 
Q 2056 2741 1856 2470 
Q 1656 2200 1656 1722 
L 1656 0 
L 538 0 
L 538 4863 
L 1656 4863 
L 1656 2988 
Q 1909 3294 2193 3439 
Q 2478 3584 2822 3584 
Q 3428 3584 3742 3212 
Q 4056 2841 4056 2131 
z
" transform="scale(0.015625)"/>
      <path id="DejaVuSans-Bold-66" d="M 2841 4863 
L 2841 4128 
L 2222 4128 
Q 1984 4128 1890 4042 
Q 1797 3956 1797 3744 
L 1797 3500 
L 2753 3500 
L 2753 2700 
L 1797 2700 
L 1797 0 
L 678 0 
L 678 2700 
L 122 2700 
L 122 3500 
L 678 3500 
L 678 3744 
Q 678 4316 997 4589 
Q 1316 4863 1984 4863 
L 2841 4863 
z
" transform="scale(0.015625)"/>
      <path id="DejaVuSans-Bold-6e" d="M 4056 2131 
L 4056 0 
L 2931 0 
L 2931 347 
L 2931 1631 
Q 2931 2084 2911 2256 
Q 2891 2428 2841 2509 
Q 2775 2619 2662 2680 
Q 2550 2741 2406 2741 
Q 2056 2741 1856 2470 
Q 1656 2200 1656 1722 
L 1656 0 
L 538 0 
L 538 3500 
L 1656 3500 
L 1656 2988 
Q 1909 3294 2193 3439 
Q 2478 3584 2822 3584 
Q 3428 3584 3742 3212 
Q 4056 2841 4056 2131 
z
" transform="scale(0.015625)"/>
      <path id="DejaVuSans-Bold-6d" d="M 3781 2919 
Q 3994 3244 4286 3414 
Q 4578 3584 4928 3584 
Q 5531 3584 5847 3212 
Q 6163 2841 6163 2131 
L 6163 0 
L 5038 0 
L 5038 1825 
Q 5041 1866 5042 1909 
Q 5044 1953 5044 2034 
Q 5044 2406 4934 2573 
Q 4825 2741 4581 2741 
Q 4263 2741 4089 2478 
Q 3916 2216 3909 1719 
L 3909 0 
L 2784 0 
L 2784 1825 
Q 2784 2406 2684 2573 
Q 2584 2741 2328 2741 
Q 2006 2741 1831 2477 
Q 1656 2213 1656 1722 
L 1656 0 
L 531 0 
L 531 3500 
L 1656 3500 
L 1656 2988 
Q 1863 3284 2130 3434 
Q 2397 3584 2719 3584 
Q 3081 3584 3359 3409 
Q 3638 3234 3781 2919 
z
" transform="scale(0.015625)"/>
     </defs>
     <use xlink:href="#DejaVuSans-Bold-56"/>
     <use xlink:href="#DejaVuSans-Bold-65" transform="translate(71.892578 0)"/>
     <use xlink:href="#DejaVuSans-Bold-6c" transform="translate(139.714844 0)"/>
     <use xlink:href="#DejaVuSans-Bold-6f" transform="translate(173.992188 0)"/>
     <use xlink:href="#DejaVuSans-Bold-63" transform="translate(242.693359 0)"/>
     <use xlink:href="#DejaVuSans-Bold-69" transform="translate(301.970703 0)"/>
     <use xlink:href="#DejaVuSans-Bold-74" transform="translate(336.248047 0)"/>
     <use xlink:href="#DejaVuSans-Bold-69" transform="translate(384.050781 0)"/>
     <use xlink:href="#DejaVuSans-Bold-65" transform="translate(418.328125 0)"/>
     <use xlink:href="#DejaVuSans-Bold-73" transform="translate(486.150391 0)"/>
     <use xlink:href="#DejaVuSans-Bold-20" transform="translate(545.671875 0)"/>
     <use xlink:href="#DejaVuSans-Bold-61" transform="translate(580.486328 0)"/>
     <use xlink:href="#DejaVuSans-Bold-74" transform="translate(647.966797 0)"/>
     <use xlink:href="#DejaVuSans-Bold-20" transform="translate(695.769531 0)"/>
     <use xlink:href="#DejaVuSans-Bold-74" transform="translate(730.583984 0)"/>
     <use xlink:href="#DejaVuSans-Bold-68" transform="translate(778.386719 0)"/>
     <use xlink:href="#DejaVuSans-Bold-65" transform="translate(849.578125 0)"/>
     <use xlink:href="#DejaVuSans-Bold-20" transform="translate(917.400391 0)"/>
     <use xlink:href="#DejaVuSans-Bold-66" transform="translate(952.214844 0)"/>
     <use xlink:href="#DejaVuSans-Bold-69" transform="translate(995.720703 0)"/>
     <use xlink:href="#DejaVuSans-Bold-6e" transform="translate(1029.998047 0)"/>
     <use xlink:href="#DejaVuSans-Bold-61" transform="translate(1101.189453 0)"/>
     <use xlink:href="#DejaVuSans-Bold-6c" transform="translate(1168.669922 0)"/>
     <use xlink:href="#DejaVuSans-Bold-20" transform="translate(1202.947266 0)"/>
     <use xlink:href="#DejaVuSans-Bold-74" transform="translate(1237.761719 0)"/>
     <use xlink:href="#DejaVuSans-Bold-69" transform="translate(1285.564453 0)"/>
     <use xlink:href="#DejaVuSans-Bold-6d" transform="translate(1319.841797 0)"/>
     <use xlink:href="#DejaVuSans-Bold-65" transform="translate(1424.041016 0)"/>
    </g>
   </g>
  </g>
 </g>
 <defs>
  <clipPath id="pe73966c6bf">
   <rect x="57.6" y="41.472" width="357.12" height="266.112"/>
  </clipPath>
 </defs>
</svg>
