<?xml version="1.0" encoding="utf-8" standalone="no"?>
<!DOCTYPE svg PUBLIC "-//W3C//DTD SVG 1.1//EN"
  "http://www.w3.org/Graphics/SVG/1.1/DTD/svg11.dtd">
<svg xmlns:xlink="http://www.w3.org/1999/xlink" width="460.8pt" height="345.6pt" viewBox="0 0 460.8 345.6" xmlns="http://www.w3.org/2000/svg" version="1.1">
 <metadata>
  <rdf:RDF xmlns:dc="http://purl.org/dc/elements/1.1/" xmlns:cc="http://creativecommons.org/ns#" xmlns:rdf="http://www.w3.org/1999/02/22-rdf-syntax-ns#">
   <cc:Work>
    <dc:type rdf:resource="http://purl.org/dc/dcmitype/StillImage"/>
    <dc:date>2025-05-05T23:13:50.488221</dc:date>
    <dc:format>image/svg+xml</dc:format>
    <dc:creator>
     <cc:Agent>
      <dc:title>Matplotlib v3.10.1, https://matplotlib.org/</dc:title>
     </cc:Agent>
    </dc:creator>
   </cc:Work>
  </rdf:RDF>
 </metadata>
 <defs>
  <style type="text/css">*{stroke-linejoin: round; stroke-linecap: butt}</style>
 </defs>
 <g id="figure_1">
  <g id="patch_1">
   <path d="M 0 345.6 
L 460.8 345.6 
L 460.8 0 
L 0 0 
z
" style="fill: #ffffff"/>
  </g>
  <g id="axes_1">
   <g id="patch_2">
    <path d="M 57.6 307.584 
L 414.72 307.584 
L 414.72 41.472 
L 57.6 41.472 
z
" style="fill: #ffffff"/>
   </g>
   <g id="matplotlib.axis_1">
    <g id="xtick_1">
     <g id="line2d_1">
      <defs>
       <path id="m3d379cb2ec" d="M 0 0 
L 0 3.5 
" style="stroke: #000000; stroke-width: 0.8"/>
      </defs>
      <g>
       <use xlink:href="#m3d379cb2ec" x="73.832727" y="307.584" style="stroke: #000000; stroke-width: 0.8"/>
      </g>
     </g>
     <g id="text_1">
      <!-- 0 -->
      <g transform="translate(70.015227 323.702125) scale(0.12 -0.12)">
       <defs>
        <path id="DejaVuSans-30" d="M 2034 4250 
Q 1547 4250 1301 3770 
Q 1056 3291 1056 2328 
Q 1056 1369 1301 889 
Q 1547 409 2034 409 
Q 2525 409 2770 889 
Q 3016 1369 3016 2328 
Q 3016 3291 2770 3770 
Q 2525 4250 2034 4250 
z
M 2034 4750 
Q 2819 4750 3233 4129 
Q 3647 3509 3647 2328 
Q 3647 1150 3233 529 
Q 2819 -91 2034 -91 
Q 1250 -91 836 529 
Q 422 1150 422 2328 
Q 422 3509 836 4129 
Q 1250 4750 2034 4750 
z
" transform="scale(0.015625)"/>
       </defs>
       <use xlink:href="#DejaVuSans-30"/>
      </g>
     </g>
    </g>
    <g id="xtick_2">
     <g id="line2d_2">
      <g>
       <use xlink:href="#m3d379cb2ec" x="138.77013" y="307.584" style="stroke: #000000; stroke-width: 0.8"/>
      </g>
     </g>
     <g id="text_2">
      <!-- 2000 -->
      <g transform="translate(123.50013 323.702125) scale(0.12 -0.12)">
       <defs>
        <path id="DejaVuSans-32" d="M 1228 531 
L 3431 531 
L 3431 0 
L 469 0 
L 469 531 
Q 828 903 1448 1529 
Q 2069 2156 2228 2338 
Q 2531 2678 2651 2914 
Q 2772 3150 2772 3378 
Q 2772 3750 2511 3984 
Q 2250 4219 1831 4219 
Q 1534 4219 1204 4116 
Q 875 4013 500 3803 
L 500 4441 
Q 881 4594 1212 4672 
Q 1544 4750 1819 4750 
Q 2544 4750 2975 4387 
Q 3406 4025 3406 3419 
Q 3406 3131 3298 2873 
Q 3191 2616 2906 2266 
Q 2828 2175 2409 1742 
Q 1991 1309 1228 531 
z
" transform="scale(0.015625)"/>
       </defs>
       <use xlink:href="#DejaVuSans-32"/>
       <use xlink:href="#DejaVuSans-30" transform="translate(63.623047 0)"/>
       <use xlink:href="#DejaVuSans-30" transform="translate(127.246094 0)"/>
       <use xlink:href="#DejaVuSans-30" transform="translate(190.869141 0)"/>
      </g>
     </g>
    </g>
    <g id="xtick_3">
     <g id="line2d_3">
      <g>
       <use xlink:href="#m3d379cb2ec" x="203.707533" y="307.584" style="stroke: #000000; stroke-width: 0.8"/>
      </g>
     </g>
     <g id="text_3">
      <!-- 4000 -->
      <g transform="translate(188.437533 323.702125) scale(0.12 -0.12)">
       <defs>
        <path id="DejaVuSans-34" d="M 2419 4116 
L 825 1625 
L 2419 1625 
L 2419 4116 
z
M 2253 4666 
L 3047 4666 
L 3047 1625 
L 3713 1625 
L 3713 1100 
L 3047 1100 
L 3047 0 
L 2419 0 
L 2419 1100 
L 313 1100 
L 313 1709 
L 2253 4666 
z
" transform="scale(0.015625)"/>
       </defs>
       <use xlink:href="#DejaVuSans-34"/>
       <use xlink:href="#DejaVuSans-30" transform="translate(63.623047 0)"/>
       <use xlink:href="#DejaVuSans-30" transform="translate(127.246094 0)"/>
       <use xlink:href="#DejaVuSans-30" transform="translate(190.869141 0)"/>
      </g>
     </g>
    </g>
    <g id="xtick_4">
     <g id="line2d_4">
      <g>
       <use xlink:href="#m3d379cb2ec" x="268.644936" y="307.584" style="stroke: #000000; stroke-width: 0.8"/>
      </g>
     </g>
     <g id="text_4">
      <!-- 6000 -->
      <g transform="translate(253.374936 323.702125) scale(0.12 -0.12)">
       <defs>
        <path id="DejaVuSans-36" d="M 2113 2584 
Q 1688 2584 1439 2293 
Q 1191 2003 1191 1497 
Q 1191 994 1439 701 
Q 1688 409 2113 409 
Q 2538 409 2786 701 
Q 3034 994 3034 1497 
Q 3034 2003 2786 2293 
Q 2538 2584 2113 2584 
z
M 3366 4563 
L 3366 3988 
Q 3128 4100 2886 4159 
Q 2644 4219 2406 4219 
Q 1781 4219 1451 3797 
Q 1122 3375 1075 2522 
Q 1259 2794 1537 2939 
Q 1816 3084 2150 3084 
Q 2853 3084 3261 2657 
Q 3669 2231 3669 1497 
Q 3669 778 3244 343 
Q 2819 -91 2113 -91 
Q 1303 -91 875 529 
Q 447 1150 447 2328 
Q 447 3434 972 4092 
Q 1497 4750 2381 4750 
Q 2619 4750 2861 4703 
Q 3103 4656 3366 4563 
z
" transform="scale(0.015625)"/>
       </defs>
       <use xlink:href="#DejaVuSans-36"/>
       <use xlink:href="#DejaVuSans-30" transform="translate(63.623047 0)"/>
       <use xlink:href="#DejaVuSans-30" transform="translate(127.246094 0)"/>
       <use xlink:href="#DejaVuSans-30" transform="translate(190.869141 0)"/>
      </g>
     </g>
    </g>
    <g id="xtick_5">
     <g id="line2d_5">
      <g>
       <use xlink:href="#m3d379cb2ec" x="333.582339" y="307.584" style="stroke: #000000; stroke-width: 0.8"/>
      </g>
     </g>
     <g id="text_5">
      <!-- 8000 -->
      <g transform="translate(318.312339 323.702125) scale(0.12 -0.12)">
       <defs>
        <path id="DejaVuSans-38" d="M 2034 2216 
Q 1584 2216 1326 1975 
Q 1069 1734 1069 1313 
Q 1069 891 1326 650 
Q 1584 409 2034 409 
Q 2484 409 2743 651 
Q 3003 894 3003 1313 
Q 3003 1734 2745 1975 
Q 2488 2216 2034 2216 
z
M 1403 2484 
Q 997 2584 770 2862 
Q 544 3141 544 3541 
Q 544 4100 942 4425 
Q 1341 4750 2034 4750 
Q 2731 4750 3128 4425 
Q 3525 4100 3525 3541 
Q 3525 3141 3298 2862 
Q 3072 2584 2669 2484 
Q 3125 2378 3379 2068 
Q 3634 1759 3634 1313 
Q 3634 634 3220 271 
Q 2806 -91 2034 -91 
Q 1263 -91 848 271 
Q 434 634 434 1313 
Q 434 1759 690 2068 
Q 947 2378 1403 2484 
z
M 1172 3481 
Q 1172 3119 1398 2916 
Q 1625 2713 2034 2713 
Q 2441 2713 2670 2916 
Q 2900 3119 2900 3481 
Q 2900 3844 2670 4047 
Q 2441 4250 2034 4250 
Q 1625 4250 1398 4047 
Q 1172 3844 1172 3481 
z
" transform="scale(0.015625)"/>
       </defs>
       <use xlink:href="#DejaVuSans-38"/>
       <use xlink:href="#DejaVuSans-30" transform="translate(63.623047 0)"/>
       <use xlink:href="#DejaVuSans-30" transform="translate(127.246094 0)"/>
       <use xlink:href="#DejaVuSans-30" transform="translate(190.869141 0)"/>
      </g>
     </g>
    </g>
    <g id="xtick_6">
     <g id="line2d_6">
      <g>
       <use xlink:href="#m3d379cb2ec" x="398.519741" y="307.584" style="stroke: #000000; stroke-width: 0.8"/>
      </g>
     </g>
     <g id="text_6">
      <!-- 10000 -->
      <g transform="translate(379.432241 323.702125) scale(0.12 -0.12)">
       <defs>
        <path id="DejaVuSans-31" d="M 794 531 
L 1825 531 
L 1825 4091 
L 703 3866 
L 703 4441 
L 1819 4666 
L 2450 4666 
L 2450 531 
L 3481 531 
L 3481 0 
L 794 0 
L 794 531 
z
" transform="scale(0.015625)"/>
       </defs>
       <use xlink:href="#DejaVuSans-31"/>
       <use xlink:href="#DejaVuSans-30" transform="translate(63.623047 0)"/>
       <use xlink:href="#DejaVuSans-30" transform="translate(127.246094 0)"/>
       <use xlink:href="#DejaVuSans-30" transform="translate(190.869141 0)"/>
       <use xlink:href="#DejaVuSans-30" transform="translate(254.492188 0)"/>
      </g>
     </g>
    </g>
    <g id="text_7">
     <!-- timestep -->
     <g transform="translate(205.203594 340.835562) scale(0.14 -0.14)">
      <defs>
       <path id="DejaVuSans-74" d="M 1172 4494 
L 1172 3500 
L 2356 3500 
L 2356 3053 
L 1172 3053 
L 1172 1153 
Q 1172 725 1289 603 
Q 1406 481 1766 481 
L 2356 481 
L 2356 0 
L 1766 0 
Q 1100 0 847 248 
Q 594 497 594 1153 
L 594 3053 
L 172 3053 
L 172 3500 
L 594 3500 
L 594 4494 
L 1172 4494 
z
" transform="scale(0.015625)"/>
       <path id="DejaVuSans-69" d="M 603 3500 
L 1178 3500 
L 1178 0 
L 603 0 
L 603 3500 
z
M 603 4863 
L 1178 4863 
L 1178 4134 
L 603 4134 
L 603 4863 
z
" transform="scale(0.015625)"/>
       <path id="DejaVuSans-6d" d="M 3328 2828 
Q 3544 3216 3844 3400 
Q 4144 3584 4550 3584 
Q 5097 3584 5394 3201 
Q 5691 2819 5691 2113 
L 5691 0 
L 5113 0 
L 5113 2094 
Q 5113 2597 4934 2840 
Q 4756 3084 4391 3084 
Q 3944 3084 3684 2787 
Q 3425 2491 3425 1978 
L 3425 0 
L 2847 0 
L 2847 2094 
Q 2847 2600 2669 2842 
Q 2491 3084 2119 3084 
Q 1678 3084 1418 2786 
Q 1159 2488 1159 1978 
L 1159 0 
L 581 0 
L 581 3500 
L 1159 3500 
L 1159 2956 
Q 1356 3278 1631 3431 
Q 1906 3584 2284 3584 
Q 2666 3584 2933 3390 
Q 3200 3197 3328 2828 
z
" transform="scale(0.015625)"/>
       <path id="DejaVuSans-65" d="M 3597 1894 
L 3597 1613 
L 953 1613 
Q 991 1019 1311 708 
Q 1631 397 2203 397 
Q 2534 397 2845 478 
Q 3156 559 3463 722 
L 3463 178 
Q 3153 47 2828 -22 
Q 2503 -91 2169 -91 
Q 1331 -91 842 396 
Q 353 884 353 1716 
Q 353 2575 817 3079 
Q 1281 3584 2069 3584 
Q 2775 3584 3186 3129 
Q 3597 2675 3597 1894 
z
M 3022 2063 
Q 3016 2534 2758 2815 
Q 2500 3097 2075 3097 
Q 1594 3097 1305 2825 
Q 1016 2553 972 2059 
L 3022 2063 
z
" transform="scale(0.015625)"/>
       <path id="DejaVuSans-73" d="M 2834 3397 
L 2834 2853 
Q 2591 2978 2328 3040 
Q 2066 3103 1784 3103 
Q 1356 3103 1142 2972 
Q 928 2841 928 2578 
Q 928 2378 1081 2264 
Q 1234 2150 1697 2047 
L 1894 2003 
Q 2506 1872 2764 1633 
Q 3022 1394 3022 966 
Q 3022 478 2636 193 
Q 2250 -91 1575 -91 
Q 1294 -91 989 -36 
Q 684 19 347 128 
L 347 722 
Q 666 556 975 473 
Q 1284 391 1588 391 
Q 1994 391 2212 530 
Q 2431 669 2431 922 
Q 2431 1156 2273 1281 
Q 2116 1406 1581 1522 
L 1381 1569 
Q 847 1681 609 1914 
Q 372 2147 372 2553 
Q 372 3047 722 3315 
Q 1072 3584 1716 3584 
Q 2034 3584 2315 3537 
Q 2597 3491 2834 3397 
z
" transform="scale(0.015625)"/>
       <path id="DejaVuSans-70" d="M 1159 525 
L 1159 -1331 
L 581 -1331 
L 581 3500 
L 1159 3500 
L 1159 2969 
Q 1341 3281 1617 3432 
Q 1894 3584 2278 3584 
Q 2916 3584 3314 3078 
Q 3713 2572 3713 1747 
Q 3713 922 3314 415 
Q 2916 -91 2278 -91 
Q 1894 -91 1617 61 
Q 1341 213 1159 525 
z
M 3116 1747 
Q 3116 2381 2855 2742 
Q 2594 3103 2138 3103 
Q 1681 3103 1420 2742 
Q 1159 2381 1159 1747 
Q 1159 1113 1420 752 
Q 1681 391 2138 391 
Q 2594 391 2855 752 
Q 3116 1113 3116 1747 
z
" transform="scale(0.015625)"/>
      </defs>
      <use xlink:href="#DejaVuSans-74"/>
      <use xlink:href="#DejaVuSans-69" transform="translate(39.208984 0)"/>
      <use xlink:href="#DejaVuSans-6d" transform="translate(66.992188 0)"/>
      <use xlink:href="#DejaVuSans-65" transform="translate(164.404297 0)"/>
      <use xlink:href="#DejaVuSans-73" transform="translate(225.927734 0)"/>
      <use xlink:href="#DejaVuSans-74" transform="translate(278.027344 0)"/>
      <use xlink:href="#DejaVuSans-65" transform="translate(317.236328 0)"/>
      <use xlink:href="#DejaVuSans-70" transform="translate(378.759766 0)"/>
     </g>
    </g>
   </g>
   <g id="matplotlib.axis_2">
    <g id="ytick_1">
     <g id="line2d_7">
      <defs>
       <path id="m3f74fc98e5" d="M 0 0 
L -3.5 0 
" style="stroke: #000000; stroke-width: 0.8"/>
      </defs>
      <g>
       <use xlink:href="#m3f74fc98e5" x="57.6" y="295.493358" style="stroke: #000000; stroke-width: 0.8"/>
      </g>
     </g>
     <g id="text_8">
      <!-- 0.0 -->
      <g transform="translate(31.51625 300.052421) scale(0.12 -0.12)">
       <defs>
        <path id="DejaVuSans-2e" d="M 684 794 
L 1344 794 
L 1344 0 
L 684 0 
L 684 794 
z
" transform="scale(0.015625)"/>
       </defs>
       <use xlink:href="#DejaVuSans-30"/>
       <use xlink:href="#DejaVuSans-2e" transform="translate(63.623047 0)"/>
       <use xlink:href="#DejaVuSans-30" transform="translate(95.410156 0)"/>
      </g>
     </g>
    </g>
    <g id="ytick_2">
     <g id="line2d_8">
      <g>
       <use xlink:href="#m3f74fc98e5" x="57.6" y="247.108283" style="stroke: #000000; stroke-width: 0.8"/>
      </g>
     </g>
     <g id="text_9">
      <!-- 0.2 -->
      <g transform="translate(31.51625 251.667345) scale(0.12 -0.12)">
       <use xlink:href="#DejaVuSans-30"/>
       <use xlink:href="#DejaVuSans-2e" transform="translate(63.623047 0)"/>
       <use xlink:href="#DejaVuSans-32" transform="translate(95.410156 0)"/>
      </g>
     </g>
    </g>
    <g id="ytick_3">
     <g id="line2d_9">
      <g>
       <use xlink:href="#m3f74fc98e5" x="57.6" y="198.723207" style="stroke: #000000; stroke-width: 0.8"/>
      </g>
     </g>
     <g id="text_10">
      <!-- 0.4 -->
      <g transform="translate(31.51625 203.282269) scale(0.12 -0.12)">
       <use xlink:href="#DejaVuSans-30"/>
       <use xlink:href="#DejaVuSans-2e" transform="translate(63.623047 0)"/>
       <use xlink:href="#DejaVuSans-34" transform="translate(95.410156 0)"/>
      </g>
     </g>
    </g>
    <g id="ytick_4">
     <g id="line2d_10">
      <g>
       <use xlink:href="#m3f74fc98e5" x="57.6" y="150.338131" style="stroke: #000000; stroke-width: 0.8"/>
      </g>
     </g>
     <g id="text_11">
      <!-- 0.6 -->
      <g transform="translate(31.51625 154.897194) scale(0.12 -0.12)">
       <use xlink:href="#DejaVuSans-30"/>
       <use xlink:href="#DejaVuSans-2e" transform="translate(63.623047 0)"/>
       <use xlink:href="#DejaVuSans-36" transform="translate(95.410156 0)"/>
      </g>
     </g>
    </g>
    <g id="ytick_5">
     <g id="line2d_11">
      <g>
       <use xlink:href="#m3f74fc98e5" x="57.6" y="101.953056" style="stroke: #000000; stroke-width: 0.8"/>
      </g>
     </g>
     <g id="text_12">
      <!-- 0.8 -->
      <g transform="translate(31.51625 106.512118) scale(0.12 -0.12)">
       <use xlink:href="#DejaVuSans-30"/>
       <use xlink:href="#DejaVuSans-2e" transform="translate(63.623047 0)"/>
       <use xlink:href="#DejaVuSans-38" transform="translate(95.410156 0)"/>
      </g>
     </g>
    </g>
    <g id="ytick_6">
     <g id="line2d_12">
      <g>
       <use xlink:href="#m3f74fc98e5" x="57.6" y="53.56798" style="stroke: #000000; stroke-width: 0.8"/>
      </g>
     </g>
     <g id="text_13">
      <!-- 1.0 -->
      <g transform="translate(31.51625 58.127043) scale(0.12 -0.12)">
       <use xlink:href="#DejaVuSans-31"/>
       <use xlink:href="#DejaVuSans-2e" transform="translate(63.623047 0)"/>
       <use xlink:href="#DejaVuSans-30" transform="translate(95.410156 0)"/>
      </g>
     </g>
    </g>
    <g id="text_14">
     <!-- quantity -->
     <g transform="translate(24.604688 203.710344) rotate(-90) scale(0.14 -0.14)">
      <defs>
       <path id="DejaVuSans-71" d="M 947 1747 
Q 947 1113 1208 752 
Q 1469 391 1925 391 
Q 2381 391 2643 752 
Q 2906 1113 2906 1747 
Q 2906 2381 2643 2742 
Q 2381 3103 1925 3103 
Q 1469 3103 1208 2742 
Q 947 2381 947 1747 
z
M 2906 525 
Q 2725 213 2448 61 
Q 2172 -91 1784 -91 
Q 1150 -91 751 415 
Q 353 922 353 1747 
Q 353 2572 751 3078 
Q 1150 3584 1784 3584 
Q 2172 3584 2448 3432 
Q 2725 3281 2906 2969 
L 2906 3500 
L 3481 3500 
L 3481 -1331 
L 2906 -1331 
L 2906 525 
z
" transform="scale(0.015625)"/>
       <path id="DejaVuSans-75" d="M 544 1381 
L 544 3500 
L 1119 3500 
L 1119 1403 
Q 1119 906 1312 657 
Q 1506 409 1894 409 
Q 2359 409 2629 706 
Q 2900 1003 2900 1516 
L 2900 3500 
L 3475 3500 
L 3475 0 
L 2900 0 
L 2900 538 
Q 2691 219 2414 64 
Q 2138 -91 1772 -91 
Q 1169 -91 856 284 
Q 544 659 544 1381 
z
M 1991 3584 
L 1991 3584 
z
" transform="scale(0.015625)"/>
       <path id="DejaVuSans-61" d="M 2194 1759 
Q 1497 1759 1228 1600 
Q 959 1441 959 1056 
Q 959 750 1161 570 
Q 1363 391 1709 391 
Q 2188 391 2477 730 
Q 2766 1069 2766 1631 
L 2766 1759 
L 2194 1759 
z
M 3341 1997 
L 3341 0 
L 2766 0 
L 2766 531 
Q 2569 213 2275 61 
Q 1981 -91 1556 -91 
Q 1019 -91 701 211 
Q 384 513 384 1019 
Q 384 1609 779 1909 
Q 1175 2209 1959 2209 
L 2766 2209 
L 2766 2266 
Q 2766 2663 2505 2880 
Q 2244 3097 1772 3097 
Q 1472 3097 1187 3025 
Q 903 2953 641 2809 
L 641 3341 
Q 956 3463 1253 3523 
Q 1550 3584 1831 3584 
Q 2591 3584 2966 3190 
Q 3341 2797 3341 1997 
z
" transform="scale(0.015625)"/>
       <path id="DejaVuSans-6e" d="M 3513 2113 
L 3513 0 
L 2938 0 
L 2938 2094 
Q 2938 2591 2744 2837 
Q 2550 3084 2163 3084 
Q 1697 3084 1428 2787 
Q 1159 2491 1159 1978 
L 1159 0 
L 581 0 
L 581 3500 
L 1159 3500 
L 1159 2956 
Q 1366 3272 1645 3428 
Q 1925 3584 2291 3584 
Q 2894 3584 3203 3211 
Q 3513 2838 3513 2113 
z
" transform="scale(0.015625)"/>
       <path id="DejaVuSans-79" d="M 2059 -325 
Q 1816 -950 1584 -1140 
Q 1353 -1331 966 -1331 
L 506 -1331 
L 506 -850 
L 844 -850 
Q 1081 -850 1212 -737 
Q 1344 -625 1503 -206 
L 1606 56 
L 191 3500 
L 800 3500 
L 1894 763 
L 2988 3500 
L 3597 3500 
L 2059 -325 
z
" transform="scale(0.015625)"/>
      </defs>
      <use xlink:href="#DejaVuSans-71"/>
      <use xlink:href="#DejaVuSans-75" transform="translate(63.476562 0)"/>
      <use xlink:href="#DejaVuSans-61" transform="translate(126.855469 0)"/>
      <use xlink:href="#DejaVuSans-6e" transform="translate(188.134766 0)"/>
      <use xlink:href="#DejaVuSans-74" transform="translate(251.513672 0)"/>
      <use xlink:href="#DejaVuSans-69" transform="translate(290.722656 0)"/>
      <use xlink:href="#DejaVuSans-74" transform="translate(318.505859 0)"/>
      <use xlink:href="#DejaVuSans-79" transform="translate(357.714844 0)"/>
     </g>
    </g>
   </g>
   <g id="line2d_13">
    <path d="M 73.832727 282.961668 
L 74.189883 274.873127 
L 74.839257 268.046954 
L 75.131475 266.27894 
L 75.845787 258.813401 
L 75.910724 258.891079 
L 76.040599 259.03081 
L 76.073068 258.979839 
L 76.365286 257.935385 
L 76.592567 255.43652 
L 76.852317 252.551601 
L 77.209472 250.456162 
L 77.371816 250.311638 
L 77.696503 250.819814 
L 77.76144 250.749934 
L 77.988721 249.438275 
L 78.475752 246.931513 
L 78.540689 246.856447 
L 78.703032 246.664769 
L 78.832907 246.874815 
L 78.897845 246.82918 
L 79.027719 246.971474 
L 79.612156 248.461351 
L 79.644625 248.437894 
L 79.709562 248.29308 
L 79.969312 246.378586 
L 80.293999 240.834184 
L 80.683623 236.624009 
L 81.300529 230.894866 
L 81.657684 229.72388 
L 81.820028 229.543204 
L 81.852497 229.625124 
L 82.01484 229.852782 
L 82.242121 229.469241 
L 82.534339 226.19484 
L 82.76162 221.813818 
L 83.02137 218.54474 
L 83.086307 218.312474 
L 83.151245 218.337571 
L 83.216182 218.514525 
L 83.540869 220.407837 
L 83.670744 221.149292 
L 83.703213 221.138179 
L 83.800619 220.724402 
L 84.092837 219.395051 
L 84.320118 217.731621 
L 84.579867 215.99091 
L 84.807148 215.421745 
L 84.839617 215.433775 
L 85.229241 217.792614 
L 85.26171 217.734916 
L 85.391585 216.711261 
L 85.943553 212.083386 
L 85.976022 212.057832 
L 86.00849 212.113279 
L 86.398115 213.744076 
L 86.722802 218.089502 
L 87.27477 226.264816 
L 87.891675 232.825266 
L 88.02155 232.984194 
L 88.054018 232.962792 
L 88.118956 232.842685 
L 88.313768 231.207258 
L 88.443643 230.51036 
L 88.476112 230.516284 
L 88.541049 230.702251 
L 88.735861 233.633399 
L 88.995611 236.198165 
L 89.060548 236.113916 
L 89.190423 235.069427 
L 89.51511 232.317428 
L 89.709922 231.714255 
L 89.872266 230.670659 
L 90.326828 227.391473 
L 90.716452 225.876812 
L 92.112606 209.017618 
L 92.210012 208.747276 
L 92.242481 208.757567 
L 92.372356 209.58033 
L 92.697043 212.177359 
L 92.989261 212.76133 
L 93.541229 215.610194 
L 94.547759 232.244687 
L 95.943913 258.479701 
L 96.366006 262.814153 
L 96.982911 269.60825 
L 97.859566 283.8621 
L 98.314128 290.432666 
L 98.346597 290.375784 
L 98.476472 289.461267 
L 99.580407 279.070604 
L 99.77522 279.41807 
L 100.002501 280.842716 
L 100.879156 287.982582 
L 100.944093 288.048468 
L 100.976562 288.010392 
L 101.106436 287.40222 
L 102.112966 278.603868 
L 102.340247 277.792912 
L 102.405185 277.729254 
L 102.76234 276.078586 
L 102.859746 275.698391 
L 103.444183 273.097413 
L 103.541589 273.158846 
L 103.671464 273.590313 
L 104.158494 276.278556 
L 104.548119 276.475862 
L 104.677994 276.09336 
L 104.7754 275.832748 
L 104.840337 275.8554 
L 105.327368 275.591437 
L 105.554649 274.521619 
L 105.749461 272.177937 
L 106.106616 268.053706 
L 106.236491 267.72424 
L 106.26896 267.73782 
L 106.398835 267.856067 
L 106.52871 268.448688 
L 106.723522 269.370315 
L 107.048209 270.327206 
L 108.704113 280.637598 
L 108.898925 281.367116 
L 109.0288 281.717148 
L 109.385955 282.823927 
L 109.645705 283.276724 
L 109.710642 283.11991 
L 110.424954 279.50282 
L 111.204203 273.406133 
L 111.52889 272.814154 
L 111.788639 271.856882 
L 112.080858 271.835303 
L 112.27567 272.838381 
L 112.827638 275.928277 
L 112.989981 275.894609 
L 113.119856 275.818996 
L 113.217262 276.452963 
L 113.541949 279.613427 
L 113.574418 279.579078 
L 113.899105 277.423019 
L 115.035509 270.078891 
L 115.165384 269.971237 
L 115.295259 269.991486 
L 115.392665 270.051941 
L 115.425134 270.021344 
L 115.52254 269.907046 
L 115.977102 268.710038 
L 116.106977 268.447568 
L 116.334257 266.746109 
L 117.0161 261.536503 
L 117.308318 259.421335 
L 117.925224 253.809085 
L 117.990161 253.660297 
L 118.055099 253.707508 
L 118.249911 253.536086 
L 118.412254 253.385722 
L 118.444723 253.467183 
L 118.704473 254.557959 
L 118.736941 254.537734 
L 118.866816 255.073249 
L 118.996691 255.389553 
L 119.061628 255.335523 
L 119.321378 254.76294 
L 119.581128 252.0805 
L 119.938283 249.15107 
L 120.392845 246.146294 
L 120.52272 246.487971 
L 120.587657 246.553454 
L 120.620126 246.513418 
L 120.750001 245.856233 
L 121.594187 239.044759 
L 121.691593 238.823293 
L 121.724062 238.847719 
L 121.821468 239.126707 
L 122.568248 243.643037 
L 122.957873 248.710266 
L 123.02281 248.798821 
L 123.055279 248.768096 
L 123.087747 248.695706 
L 123.152685 248.800734 
L 123.217622 248.73526 
L 123.379966 247.633812 
L 123.672184 246.02061 
L 123.866996 245.287356 
L 124.289089 240.22743 
L 125.003401 228.887574 
L 125.230682 228.413268 
L 125.360556 228.536821 
L 125.587837 229.558068 
L 125.847587 231.212261 
L 126.237211 235.32714 
L 126.886585 245.047992 
L 127.048929 245.634379 
L 127.178804 245.444906 
L 127.373616 244.996573 
L 127.471022 245.13173 
L 127.600897 245.727179 
L 127.828178 247.150893 
L 127.860646 247.116701 
L 127.990521 246.42504 
L 128.542489 242.128996 
L 128.639895 242.307772 
L 128.737301 242.281431 
L 128.867176 242.089319 
L 128.932114 242.204078 
L 129.061988 242.988637 
L 129.256801 246.30864 
L 129.873706 258.710271 
L 130.198393 262.222651 
L 130.52308 266.033681 
L 130.588017 266.129107 
L 130.620486 266.045623 
L 130.880236 264.363657 
L 131.367266 259.385894 
L 131.984172 251.642049 
L 132.438733 245.255302 
L 133.315388 228.935468 
L 134.127106 220.383924 
L 134.321918 219.125077 
L 134.711542 217.243115 
L 134.971292 215.803794 
L 135.198573 214.205012 
L 135.26351 214.40006 
L 135.458323 215.450097 
L 135.977822 218.955744 
L 136.042759 218.884296 
L 136.075228 218.78011 
L 136.140165 218.940572 
L 136.205103 218.848786 
L 136.302509 218.52917 
L 136.367446 218.664754 
L 136.984352 221.112844 
L 137.211632 221.714253 
L 137.27657 221.601111 
L 137.536319 220.76528 
L 137.731132 220.967041 
L 137.7636 220.943948 
L 137.893475 220.111308 
L 138.153225 218.973594 
L 138.2831 218.800096 
L 138.315568 218.833547 
L 138.542849 219.360258 
L 138.77013 220.600731 
L 138.964942 221.7265 
L 139.257161 220.751935 
L 139.387035 219.019476 
L 139.906535 210.254834 
L 140.003941 209.851525 
L 140.036409 209.897793 
L 140.78319 215.702582 
L 141.789719 227.886703 
L 141.887125 228.176827 
L 141.952063 228.111587 
L 142.049469 227.637324 
L 142.341687 225.090338 
L 142.406625 225.212234 
L 142.439093 225.240399 
L 142.471562 225.145594 
L 142.633906 223.836341 
L 143.088467 219.887014 
L 143.250811 218.782171 
L 143.575498 215.32027 
L 143.672904 215.345869 
L 143.737841 215.646867 
L 144.127466 218.552751 
L 144.289809 219.338653 
L 144.322278 219.331731 
L 144.387215 219.289567 
L 144.646965 218.357543 
L 144.77684 218.496958 
L 144.906715 218.241791 
L 145.198933 217.526349 
L 145.296339 217.485996 
L 145.328808 217.525707 
L 145.52362 217.84649 
L 145.685964 219.800327 
L 145.913244 221.670878 
L 146.302869 223.159612 
L 146.497681 224.091058 
L 146.53015 224.13886 
L 146.562618 224.086327 
L 147.01718 221.753062 
L 147.796429 216.095531 
L 148.640615 206.732379 
L 148.673084 206.752864 
L 149.322458 215.858454 
L 149.614676 218.667144 
L 149.77702 219.178813 
L 149.809489 219.125646 
L 150.004301 218.453316 
L 150.069238 218.517284 
L 150.199113 219.03756 
L 150.361457 219.740171 
L 150.393925 219.707124 
L 150.5238 219.117163 
L 150.751081 216.176962 
L 151.400455 204.977463 
L 151.725142 204.03242 
L 151.855017 202.168442 
L 152.374516 189.583081 
L 152.634266 186.337729 
L 152.699203 186.945575 
L 153.088827 192.734382 
L 153.121296 192.77351 
L 153.153765 192.69214 
L 153.316108 191.992735 
L 153.413514 192.105044 
L 153.77067 192.128527 
L 153.868076 191.864158 
L 153.900545 191.999308 
L 154.192763 193.618957 
L 154.452513 193.611687 
L 154.51745 193.512836 
L 154.549919 193.609289 
L 154.809669 194.343874 
L 155.134356 196.051888 
L 155.231762 195.618931 
L 155.394105 193.46808 
L 155.751261 184.935615 
L 156.075948 179.645081 
L 156.27076 178.713479 
L 156.335698 178.81547 
L 157.01754 187.394152 
L 157.829258 198.099456 
L 157.861727 198.083815 
L 157.991601 198.019448 
L 158.089007 198.11923 
L 158.28382 199.071993 
L 158.316288 199.037598 
L 158.446163 198.82812 
L 158.640975 197.608295 
L 158.835788 195.007486 
L 159.225412 189.725863 
L 159.290349 189.618212 
L 159.322818 189.729237 
L 159.647505 191.749503 
L 159.679974 191.692834 
L 159.809849 191.264493 
L 159.842317 191.50173 
L 160.03713 194.596595 
L 160.296879 197.354586 
L 160.78391 201.239467 
L 161.368346 207.900315 
L 161.433284 207.77026 
L 161.595627 206.17619 
L 161.952783 202.248907 
L 162.342407 198.106744 
L 162.569688 195.625336 
L 162.7645 195.312475 
L 162.894375 194.675072 
L 163.154125 191.360953 
L 163.706093 184.285321 
L 164.485342 176.037125 
L 164.745091 175.174273 
L 164.939903 173.933186 
L 164.972372 173.967965 
L 165.069778 174.309213 
L 165.361997 175.892645 
L 165.426934 175.778299 
L 166.011371 173.966272 
L 166.108777 174.231909 
L 166.465932 175.748392 
L 166.53087 175.874089 
L 166.563339 175.844191 
L 166.693213 175.05931 
L 167.180244 170.359098 
L 167.212713 170.441709 
L 167.310119 170.636105 
L 167.375056 170.549808 
L 167.407525 170.464561 
L 167.439993 170.60868 
L 167.472462 170.602587 
L 167.569868 170.37369 
L 167.76468 169.471877 
L 167.797149 169.494304 
L 168.089367 169.87242 
L 168.186774 169.947864 
L 168.349117 170.611218 
L 168.706273 172.180905 
L 168.803679 172.822349 
L 169.582928 178.765313 
L 169.77774 179.000466 
L 169.842677 178.899272 
L 169.972552 178.015265 
L 170.26477 173.967341 
L 171.076488 159.771315 
L 171.336238 158.186786 
L 171.368706 158.159754 
L 171.401175 158.215274 
L 171.758331 160.394686 
L 172.180424 159.653953 
L 172.407705 157.805912 
L 172.667454 156.065092 
L 172.76486 156.122497 
L 172.959673 156.389507 
L 173.02461 156.248652 
L 173.154485 155.090214 
L 173.576578 149.425411 
L 173.641515 149.676696 
L 173.998671 152.459935 
L 174.03114 152.427806 
L 174.225952 151.328678 
L 174.615576 148.010484 
L 174.810389 145.699403 
L 175.135076 141.132001 
L 175.200013 140.920009 
L 175.26495 141.002976 
L 175.329888 141.317898 
L 175.5247 142.137665 
L 175.557169 142.104505 
L 175.849387 141.090986 
L 176.076668 140.194428 
L 176.141605 140.436079 
L 176.401355 143.001111 
L 176.693573 145.356351 
L 176.855917 146.647 
L 177.083198 150.890606 
L 177.310479 153.722944 
L 177.375416 153.699563 
L 177.505291 152.754536 
L 177.700103 149.329518 
L 177.992321 145.05966 
L 178.511821 140.139564 
L 179.323538 128.463769 
L 179.388476 128.656734 
L 179.875506 131.860944 
L 180.102787 131.995026 
L 180.135256 131.947658 
L 180.265131 131.232005 
L 180.557349 127.55906 
L 180.914505 122.857472 
L 180.979442 122.897236 
L 181.174254 123.471895 
L 181.466472 123.956059 
L 181.53141 123.918045 
L 181.791159 123.05356 
L 182.115846 119.686551 
L 182.440534 117.35949 
L 182.635346 117.134711 
L 182.862627 117.716415 
L 182.960033 117.5187 
L 183.122376 116.476378 
L 183.544469 110.6674 
L 183.739282 108.428012 
L 183.804219 108.481796 
L 184.0315 108.784854 
L 184.063969 108.745181 
L 184.193843 108.234267 
L 184.388656 106.468625 
L 184.713343 101.952265 
L 184.77828 102.008102 
L 184.940624 102.226117 
L 185.070498 101.872653 
L 185.167904 101.600865 
L 185.232842 101.698962 
L 185.557529 102.451606 
L 185.719872 101.943815 
L 185.882216 100.454607 
L 186.239372 94.204746 
L 186.564059 90.042273 
L 186.628996 90.040634 
L 186.758871 90.655264 
L 187.083558 92.055579 
L 187.148495 92.003997 
L 187.310839 91.259969 
L 187.667994 89.352097 
L 188.219962 86.48836 
L 188.317368 86.638792 
L 188.512181 87.209913 
L 188.577118 87.148443 
L 188.706993 86.579319 
L 189.129086 82.178052 
L 189.51871 79.470916 
L 189.745991 79.111827 
L 189.875866 78.74761 
L 190.103147 77.023683 
L 190.492771 74.138396 
L 190.622646 74.064596 
L 190.78499 74.338494 
L 191.207083 75.210522 
L 191.304489 75.007337 
L 191.53177 73.678525 
L 192.0188 71.071198 
L 192.148675 70.893203 
L 192.181144 70.92734 
L 192.343487 71.312274 
L 192.895455 73.221097 
L 192.960393 73.101113 
L 193.220142 71.832491 
L 193.544829 70.819662 
L 193.707173 70.711592 
L 193.869516 69.997215 
L 194.29161 67.530669 
L 194.746171 64.795729 
L 195.103327 63.349713 
L 195.265671 63.338269 
L 195.720232 63.895512 
L 195.78517 63.826878 
L 196.044919 63.302798 
L 196.661825 61.547916 
L 196.889106 61.700529 
L 197.116387 61.758294 
L 197.27873 61.440716 
L 197.960573 59.714905 
L 198.155385 59.930436 
L 198.415135 60.147645 
L 198.577478 59.948086 
L 198.902165 59.065369 
L 199.194383 58.42092 
L 199.389196 58.335097 
L 199.616477 58.536901 
L 199.843757 58.666285 
L 200.006101 58.480433 
L 200.330788 57.563859 
L 200.623006 56.974014 
L 200.78535 57.026638 
L 201.369786 57.552804 
L 201.597067 57.208669 
L 202.051629 56.52923 
L 202.311379 56.450854 
L 203.447783 56.291383 
L 203.740002 55.995867 
L 204.356907 55.255776 
L 204.551719 55.412457 
L 205.071218 55.993997 
L 205.266031 55.820286 
L 206.077748 54.697419 
L 206.402435 54.869356 
L 206.727122 54.944617 
L 207.181684 54.684084 
L 207.506371 54.665426 
L 208.058339 54.70994 
L 209.194743 54.279482 
L 209.714243 54.229904 
L 210.233742 54.210129 
L 210.915585 54.23139 
L 212.344208 53.970137 
L 212.863707 53.967917 
L 213.513081 53.992158 
L 214.324798 53.89868 
L 215.03911 53.872197 
L 215.720952 53.838737 
L 216.467733 53.812977 
L 217.604137 53.766955 
L 218.578198 53.816905 
L 220.201633 53.732318 
L 221.208163 53.713205 
L 222.149755 53.669608 
L 229.098057 53.612534 
L 233.741082 53.602379 
L 237.020421 53.587119 
L 285.626067 53.568395 
L 398.487273 53.568004 
L 398.487273 53.568004 
" clip-path="url(#pb5e99c4d3e)" style="fill: none; stroke: #000000; stroke-width: 1.5; stroke-linecap: square"/>
   </g>
   <g id="line2d_14">
    <path d="M 73.832727 274.831972 
L 73.995071 276.628661 
L 74.319758 279.868196 
L 74.449633 280.158676 
L 74.482101 280.078515 
L 74.644445 278.949713 
L 75.391225 272.790442 
L 75.488631 272.9822 
L 75.650975 274.176042 
L 76.138005 279.060494 
L 76.397755 281.026953 
L 76.462692 281.118326 
L 76.495161 281.096231 
L 76.592567 280.797126 
L 76.657504 280.989145 
L 76.787379 281.357062 
L 76.819848 281.313501 
L 76.917254 281.046423 
L 76.982191 281.128505 
L 77.371816 281.921224 
L 77.664034 282.46905 
L 77.728971 282.301542 
L 78.151065 280.840731 
L 78.50822 278.933974 
L 78.605626 278.857415 
L 79.060188 277.791575 
L 79.255 277.336847 
L 79.449813 276.727051 
L 79.579687 275.731912 
L 80.034249 271.188296 
L 80.229061 270.497729 
L 80.26153 270.528507 
L 80.391405 270.873006 
L 80.878435 273.196473 
L 81.138185 274.259566 
L 81.26806 274.601306 
L 81.300529 274.585494 
L 81.657684 274.089029 
L 81.787559 272.994512 
L 82.307058 266.805243 
L 82.534339 264.261777 
L 82.956432 259.804008 
L 83.118776 259.980641 
L 83.865556 262.992512 
L 83.930493 262.869888 
L 83.995431 262.631012 
L 84.0279 262.667524 
L 84.125306 263.005352 
L 84.157774 262.992217 
L 84.287649 262.604627 
L 84.449993 261.514501 
L 84.709742 259.940705 
L 84.904554 259.901448 
L 85.066898 261.091003 
L 85.716272 265.8341 
L 85.976022 266.414144 
L 86.00849 266.358409 
L 86.26824 265.87871 
L 86.300709 265.91227 
L 86.430583 266.446753 
L 86.950083 269.285695 
L 87.209832 269.145303 
L 87.242301 269.206712 
L 87.372176 269.429963 
L 87.631925 270.486136 
L 87.826738 271.276385 
L 87.924144 271.210506 
L 88.151425 270.840968 
L 88.313768 271.176893 
L 88.443643 271.894007 
L 88.670924 275.148006 
L 88.995611 279.070049 
L 89.125486 279.443068 
L 89.157954 279.427222 
L 89.417704 279.233075 
L 89.677454 279.082551 
L 89.904734 278.212273 
L 90.132015 277.717431 
L 90.456702 277.450614 
L 90.619046 277.14633 
L 91.106076 275.693586 
L 91.138545 275.717365 
L 91.365826 276.064513 
L 91.787919 278.03208 
L 91.852857 277.932108 
L 92.0152 276.769183 
L 92.534699 272.334876 
L 92.794449 271.605989 
L 92.989261 271.727544 
L 93.151605 273.006326 
L 93.378886 274.344097 
L 93.833447 275.275227 
L 93.865916 275.242581 
L 93.963322 275.125894 
L 93.995791 275.175635 
L 94.25554 275.383746 
L 94.385415 275.959085 
L 95.067258 279.700835 
L 95.391945 280.956804 
L 95.651695 281.693245 
L 96.106256 285.195845 
L 96.138725 285.178592 
L 96.333537 284.202307 
L 96.658224 282.204006 
L 96.788099 281.98741 
L 97.047849 281.598815 
L 97.177724 281.771999 
L 97.632285 282.993359 
L 98.086847 285.755485 
L 98.151785 285.606634 
L 98.444003 285.061514 
L 98.638815 284.551108 
L 98.833627 282.596872 
L 99.158314 280.196333 
L 99.418064 279.607642 
L 99.645345 278.639965 
L 100.034969 276.560038 
L 100.229782 276.476387 
L 100.684343 276.417365 
L 100.911624 276.676023 
L 101.52853 274.981009 
L 101.593467 274.920277 
L 101.820748 274.281578 
L 102.27531 272.684939 
L 102.502591 272.16649 
L 102.599997 271.970754 
L 102.859746 269.906758 
L 103.736401 263.600964 
L 103.898745 263.268133 
L 103.996151 263.667649 
L 104.288369 266.272934 
L 104.613056 267.845846 
L 104.7754 268.245332 
L 104.840337 268.117917 
L 105.067618 266.561358 
L 105.619586 262.317064 
L 105.652055 262.523152 
L 106.041679 265.85194 
L 106.366366 268.597887 
L 106.723522 269.813495 
L 106.788459 269.669138 
L 106.950803 268.309466 
L 107.145615 267.508139 
L 107.470302 266.325835 
L 107.957332 263.297163 
L 108.606706 257.075915 
L 108.639175 257.125693 
L 109.061268 258.492756 
L 109.093737 258.519033 
L 109.126206 258.463725 
L 109.256081 257.507286 
L 109.970392 249.661145 
L 110.197673 248.636858 
L 110.26261 248.801365 
L 111.041859 252.95717 
L 111.593827 258.306941 
L 111.853577 258.695578 
L 112.01592 260.30153 
L 112.730232 270.13334 
L 112.827638 269.910319 
L 113.054919 269.331625 
L 113.379606 268.634897 
L 113.606887 268.643951 
L 113.639355 268.548679 
L 113.704293 268.646303 
L 113.801699 268.457765 
L 113.899105 268.246654 
L 113.931574 268.2822 
L 114.02898 268.52533 
L 114.288729 269.531709 
L 114.548479 270.289282 
L 114.645885 270.205198 
L 114.77576 269.44651 
L 115.749821 258.75181 
L 116.042039 257.797113 
L 116.171914 257.463241 
L 116.626476 256.312222 
L 116.821288 256.296993 
L 117.048569 257.085315 
L 117.113506 256.94036 
L 117.568068 255.318406 
L 117.860286 253.853608 
L 118.152505 252.701871 
L 118.996691 247.144926 
L 119.126566 247.193008 
L 119.256441 247.376894 
L 119.288909 247.336713 
L 119.451253 246.795054 
L 119.77594 243.804239 
L 120.068158 241.686994 
L 120.165564 241.451339 
L 120.327908 240.483759 
L 120.944813 234.992688 
L 120.977282 234.964331 
L 121.00975 235.026393 
L 121.172094 236.056755 
L 121.594187 238.711439 
L 121.756531 239.116686 
L 121.918874 239.885662 
L 122.146155 240.609279 
L 122.178624 240.614776 
L 122.698123 238.715998 
L 122.730592 238.732872 
L 122.795529 238.945628 
L 122.990341 240.963525 
L 123.347497 245.099291 
L 124.808588 254.590267 
L 125.555369 262.774537 
L 125.750181 263.987456 
L 125.912524 263.874748 
L 126.172274 262.578889 
L 126.756711 258.152631 
L 126.951523 257.60562 
L 127.081398 257.413027 
L 127.146335 257.269423 
L 127.211272 257.357316 
L 127.341147 257.170641 
L 127.568428 256.531266 
L 127.893115 254.535845 
L 128.120396 254.599634 
L 128.412614 255.835804 
L 128.477552 255.913624 
L 128.51002 255.845343 
L 128.76977 255.35051 
L 128.932114 255.142248 
L 129.256801 253.741042 
L 129.321738 253.915631 
L 129.549019 255.740737 
L 130.100987 260.421208 
L 130.458143 264.640228 
L 130.652955 266.132602 
L 130.750361 266.270145 
L 130.815298 266.136731 
L 130.880236 265.983764 
L 130.912704 266.040614 
L 131.302329 267.666025 
L 131.789359 270.967526 
L 131.821828 270.934176 
L 131.951703 270.328832 
L 132.308859 267.75463 
L 132.893295 260.424112 
L 132.958233 260.459297 
L 133.412794 259.326106 
L 133.445263 259.387061 
L 134.873886 264.881671 
L 135.003761 264.834065 
L 135.101167 264.535402 
L 135.328448 263.546868 
L 135.360916 263.598005 
L 135.490791 263.773874 
L 135.52326 263.755412 
L 135.588197 263.733734 
L 135.620666 263.795591 
L 136.107697 265.439769 
L 136.140165 265.430371 
L 136.302509 265.408154 
L 136.464852 265.885827 
L 136.497321 265.850113 
L 136.659665 265.536824 
L 136.692133 265.591119 
L 136.886945 266.039345 
L 136.919414 266.0165 
L 137.179164 265.613585 
L 137.341507 264.673621 
L 137.893475 260.892066 
L 138.2831 258.631359 
L 138.348037 258.337656 
L 138.412974 258.46758 
L 138.542849 258.682509 
L 138.640255 258.870107 
L 138.672724 258.820142 
L 138.737661 258.704657 
L 138.77013 258.766026 
L 139.02988 260.705677 
L 139.549379 263.726002 
L 140.003941 264.240395 
L 140.26369 265.946627 
L 140.296159 265.886513 
L 140.426034 264.873379 
L 141.010471 258.532053 
L 141.075408 258.743452 
L 141.432564 260.0585 
L 141.52997 259.895289 
L 141.692313 259.124456 
L 141.919594 256.450326 
L 142.471562 248.798437 
L 142.568968 248.655315 
L 142.601437 248.676057 
L 142.76378 248.754641 
L 143.250811 247.656239 
L 143.705373 245.035938 
L 143.77031 245.373334 
L 144.062528 247.074794 
L 144.322278 248.522371 
L 144.387215 248.590995 
L 144.419684 248.520619 
L 144.646965 247.845282 
L 144.679434 247.890221 
L 144.77684 247.991504 
L 145.458683 253.667704 
L 145.52362 253.503191 
L 145.718432 251.54755 
L 146.108057 245.360973 
L 146.400275 242.011461 
L 146.692493 241.134768 
L 146.789899 240.853552 
L 146.984712 240.282422 
L 147.082118 240.369571 
L 147.114586 240.399368 
L 147.179524 240.327027 
L 147.439273 240.125768 
L 147.569148 240.657466 
L 148.186054 243.13191 
L 148.250991 243.096985 
L 148.380866 242.616051 
L 149.095177 238.299096 
L 149.127646 238.328073 
L 149.51727 239.153159 
L 149.744551 241.226531 
L 151.660205 259.959858 
L 151.757611 259.70862 
L 151.887485 258.67968 
L 152.76414 249.42869 
L 152.958953 249.08992 
L 153.088827 248.347476 
L 153.543389 245.358506 
L 153.673264 244.924443 
L 154.712262 237.445158 
L 154.744731 237.594424 
L 155.004481 239.288193 
L 155.426574 242.043068 
L 155.52398 242.15206 
L 155.556449 242.116353 
L 155.686324 241.778625 
L 155.881136 240.003237 
L 156.303229 236.479617 
L 156.757791 234.995874 
L 157.374696 231.69507 
L 157.407165 231.747003 
L 157.76432 232.766451 
L 157.861727 232.613213 
L 157.926664 232.534966 
L 157.991601 232.567735 
L 158.121476 232.71989 
L 158.316288 233.290351 
L 158.413694 233.393855 
L 158.673444 233.678663 
L 158.77085 233.969782 
L 159.387756 236.863179 
L 159.485162 236.765794 
L 159.615036 236.020191 
L 160.167004 232.071569 
L 160.361817 231.222784 
L 160.394285 231.23622 
L 160.491691 231.179557 
L 160.621566 230.754355 
L 161.27094 226.759881 
L 161.53069 221.875596 
L 161.855377 216.428493 
L 161.887846 216.318054 
L 161.952783 216.425742 
L 162.147595 217.116464 
L 162.634626 220.996881 
L 162.861907 222.563341 
L 162.926844 222.575068 
L 162.959313 222.51238 
L 163.219062 221.980751 
L 163.608687 220.486355 
L 164.03078 217.528173 
L 164.387936 214.242926 
L 164.680154 213.203733 
L 164.77756 213.403074 
L 164.874966 214.46728 
L 165.849027 230.882684 
L 166.173714 234.521398 
L 166.498401 237.459594 
L 166.660745 238.088121 
L 166.693213 238.068583 
L 167.147775 236.759942 
L 167.212713 236.90693 
L 167.5374 238.140296 
L 167.894555 239.671863 
L 167.991961 239.811568 
L 168.02443 239.787484 
L 168.219242 239.344374 
L 168.414054 238.307562 
L 168.608867 235.833315 
L 168.836148 233.361787 
L 168.901085 233.440076 
L 169.842677 237.683182 
L 169.907615 237.599163 
L 170.102427 236.84971 
L 171.238832 229.910324 
L 171.2713 229.932058 
L 171.433644 230.354472 
L 172.115486 232.906841 
L 172.180424 232.925664 
L 172.212893 232.868476 
L 172.375236 231.960712 
L 173.381766 223.907074 
L 173.511641 223.66481 
L 173.738922 225.443392 
L 174.128546 229.124709 
L 174.355827 230.123682 
L 174.550639 230.504168 
L 174.648045 230.317279 
L 175.005201 228.640997 
L 175.102607 228.818519 
L 175.297419 229.377564 
L 175.5247 230.01952 
L 175.654575 229.873866 
L 175.719512 229.841667 
L 175.914325 230.120167 
L 176.011731 229.989572 
L 176.790979 228.006194 
L 176.823448 228.06805 
L 176.985792 228.985874 
L 177.310479 230.96712 
L 177.472822 231.226444 
L 177.667634 231.615022 
L 177.700103 231.582026 
L 177.894915 231.155488 
L 177.927384 231.180436 
L 178.089728 231.642653 
L 178.154665 231.518934 
L 178.998851 227.306222 
L 179.258601 226.028348 
L 179.291069 226.0482 
L 179.680694 227.839131 
L 179.875506 227.703726 
L 180.362537 226.564833 
L 180.849567 224.348928 
L 180.979442 224.428841 
L 181.141785 225.00135 
L 181.498941 227.046677 
L 181.953503 229.290335 
L 182.050909 229.121122 
L 183.349657 224.327653 
L 183.382126 224.371323 
L 183.512001 224.920908 
L 183.706813 226.87659 
L 184.550999 239.781323 
L 184.615937 239.971914 
L 184.680874 239.945911 
L 184.843217 239.905029 
L 185.167904 240.169123 
L 185.362717 241.010985 
L 186.077028 246.036618 
L 186.466652 249.470137 
L 187.343307 259.72093 
L 187.667994 261.576175 
L 187.862807 261.873888 
L 188.122556 262.143425 
L 188.317368 262.887635 
L 189.551179 270.621217 
L 189.940804 273.516673 
L 190.168084 274.041359 
L 190.297959 273.811729 
L 190.752521 272.73655 
L 191.207083 271.75527 
L 191.823988 270.374694 
L 191.953863 270.605439 
L 192.181144 271.757796 
L 192.798049 275.250028 
L 193.057799 275.485638 
L 193.252611 275.475685 
L 193.479892 275.063377 
L 193.869516 274.426947 
L 193.999391 274.506856 
L 194.259141 275.082565 
L 194.973452 277.510312 
L 195.52542 280.157053 
L 195.78517 280.559769 
L 195.979982 280.490254 
L 196.239732 280.079842 
L 196.53195 279.138939 
L 196.986512 277.664224 
L 197.116387 277.688951 
L 197.27873 278.10092 
L 197.570948 279.700362 
L 198.707353 286.984543 
L 198.902165 287.118481 
L 199.194383 286.953789 
L 199.616477 286.764462 
L 199.843757 286.937229 
L 200.103507 287.489874 
L 200.915225 289.632393 
L 201.110037 289.463129 
L 201.499661 288.661819 
L 201.921754 287.959652 
L 202.116567 287.963969 
L 202.311379 288.248322 
L 202.636066 289.255249 
L 204.356907 295.488 
L 204.389376 295.421596 
L 204.681594 295.067218 
L 204.908875 295.106336 
L 205.233562 295.459904 
L 205.298499 295.351997 
L 205.753061 294.806906 
L 206.077748 294.758702 
L 207.636246 294.85287 
L 208.805119 294.913295 
L 209.259681 295.300294 
L 209.454493 295.463513 
L 209.486962 295.424904 
L 210.396085 294.500486 
L 212.084458 293.411211 
L 212.506551 293.48658 
L 213.902705 293.955614 
L 214.974172 294.033004 
L 215.558609 294.432035 
L 216.143046 294.753803 
L 216.597607 294.742981 
L 217.344388 294.429864 
L 218.091168 294.225405 
L 220.136696 294.093014 
L 220.688664 294.512432 
L 221.402975 295.018852 
L 221.760131 295.0066 
L 222.149755 294.751124 
L 223.188754 293.94832 
L 223.578378 293.976014 
L 224.227752 294.312864 
L 224.909595 294.56414 
L 225.623906 294.551809 
L 226.727842 294.560633 
L 227.669435 294.514032 
L 228.77337 294.439291 
L 230.689024 294.539619 
L 231.79296 294.5053 
L 234.650205 294.686819 
L 236.078828 294.669372 
L 237.117827 295.003366 
L 237.767201 295.077234 
L 238.54645 294.897333 
L 239.390636 294.765066 
L 240.559509 294.899534 
L 243.676504 295.087812 
L 244.683034 294.988486 
L 247.377936 295.126838 
L 250.332588 295.166413 
L 254.910675 295.199358 
L 256.566579 295.184123 
L 259.910855 295.179989 
L 261.404415 295.180255 
L 263.904505 295.219852 
L 280.690824 295.263265 
L 290.78859 295.260443 
L 293.873117 295.258684 
L 306.211223 295.281329 
L 346.342538 295.359454 
L 398.487273 295.440234 
L 398.487273 295.440234 
" clip-path="url(#pb5e99c4d3e)" style="fill: none; stroke: #ff0000; stroke-width: 1.5; stroke-linecap: square"/>
   </g>
   <g id="patch_3">
    <path d="M 57.6 307.584 
L 57.6 41.472 
" style="fill: none; stroke: #000000; stroke-width: 0.8; stroke-linejoin: miter; stroke-linecap: square"/>
   </g>
   <g id="patch_4">
    <path d="M 414.72 307.584 
L 414.72 41.472 
" style="fill: none; stroke: #000000; stroke-width: 0.8; stroke-linejoin: miter; stroke-linecap: square"/>
   </g>
   <g id="patch_5">
    <path d="M 57.6 307.584 
L 414.72 307.584 
" style="fill: none; stroke: #000000; stroke-width: 0.8; stroke-linejoin: miter; stroke-linecap: square"/>
   </g>
   <g id="patch_6">
    <path d="M 57.6 41.472 
L 414.72 41.472 
" style="fill: none; stroke: #000000; stroke-width: 0.8; stroke-linejoin: miter; stroke-linecap: square"/>
   </g>
   <g id="text_15">
    <!-- Quantities over time -->
    <g transform="translate(143.26875 35.472) scale(0.16 -0.16)">
     <defs>
      <path id="DejaVuSans-Bold-51" d="M 2847 -84 
L 2753 -84 
Q 1600 -84 959 553 
Q 319 1191 319 2328 
Q 319 3463 958 4106 
Q 1597 4750 2719 4750 
Q 3853 4750 4486 4112 
Q 5119 3475 5119 2328 
Q 5119 1541 4783 972 
Q 4447 403 3816 116 
L 4756 -934 
L 3609 -934 
L 2847 -84 
z
M 2719 3878 
Q 2169 3878 1866 3472 
Q 1563 3066 1563 2328 
Q 1563 1578 1859 1179 
Q 2156 781 2719 781 
Q 3272 781 3575 1187 
Q 3878 1594 3878 2328 
Q 3878 3066 3575 3472 
Q 3272 3878 2719 3878 
z
" transform="scale(0.015625)"/>
      <path id="DejaVuSans-Bold-75" d="M 500 1363 
L 500 3500 
L 1625 3500 
L 1625 3150 
Q 1625 2866 1622 2436 
Q 1619 2006 1619 1863 
Q 1619 1441 1641 1255 
Q 1663 1069 1716 984 
Q 1784 875 1895 815 
Q 2006 756 2150 756 
Q 2500 756 2700 1025 
Q 2900 1294 2900 1772 
L 2900 3500 
L 4019 3500 
L 4019 0 
L 2900 0 
L 2900 506 
Q 2647 200 2364 54 
Q 2081 -91 1741 -91 
Q 1134 -91 817 281 
Q 500 653 500 1363 
z
" transform="scale(0.015625)"/>
      <path id="DejaVuSans-Bold-61" d="M 2106 1575 
Q 1756 1575 1579 1456 
Q 1403 1338 1403 1106 
Q 1403 894 1545 773 
Q 1688 653 1941 653 
Q 2256 653 2472 879 
Q 2688 1106 2688 1447 
L 2688 1575 
L 2106 1575 
z
M 3816 1997 
L 3816 0 
L 2688 0 
L 2688 519 
Q 2463 200 2181 54 
Q 1900 -91 1497 -91 
Q 953 -91 614 226 
Q 275 544 275 1050 
Q 275 1666 698 1953 
Q 1122 2241 2028 2241 
L 2688 2241 
L 2688 2328 
Q 2688 2594 2478 2717 
Q 2269 2841 1825 2841 
Q 1466 2841 1156 2769 
Q 847 2697 581 2553 
L 581 3406 
Q 941 3494 1303 3539 
Q 1666 3584 2028 3584 
Q 2975 3584 3395 3211 
Q 3816 2838 3816 1997 
z
" transform="scale(0.015625)"/>
      <path id="DejaVuSans-Bold-6e" d="M 4056 2131 
L 4056 0 
L 2931 0 
L 2931 347 
L 2931 1631 
Q 2931 2084 2911 2256 
Q 2891 2428 2841 2509 
Q 2775 2619 2662 2680 
Q 2550 2741 2406 2741 
Q 2056 2741 1856 2470 
Q 1656 2200 1656 1722 
L 1656 0 
L 538 0 
L 538 3500 
L 1656 3500 
L 1656 2988 
Q 1909 3294 2193 3439 
Q 2478 3584 2822 3584 
Q 3428 3584 3742 3212 
Q 4056 2841 4056 2131 
z
" transform="scale(0.015625)"/>
      <path id="DejaVuSans-Bold-74" d="M 1759 4494 
L 1759 3500 
L 2913 3500 
L 2913 2700 
L 1759 2700 
L 1759 1216 
Q 1759 972 1856 886 
Q 1953 800 2241 800 
L 2816 800 
L 2816 0 
L 1856 0 
Q 1194 0 917 276 
Q 641 553 641 1216 
L 641 2700 
L 84 2700 
L 84 3500 
L 641 3500 
L 641 4494 
L 1759 4494 
z
" transform="scale(0.015625)"/>
      <path id="DejaVuSans-Bold-69" d="M 538 3500 
L 1656 3500 
L 1656 0 
L 538 0 
L 538 3500 
z
M 538 4863 
L 1656 4863 
L 1656 3950 
L 538 3950 
L 538 4863 
z
" transform="scale(0.015625)"/>
      <path id="DejaVuSans-Bold-65" d="M 4031 1759 
L 4031 1441 
L 1416 1441 
Q 1456 1047 1700 850 
Q 1944 653 2381 653 
Q 2734 653 3104 758 
Q 3475 863 3866 1075 
L 3866 213 
Q 3469 63 3072 -14 
Q 2675 -91 2278 -91 
Q 1328 -91 801 392 
Q 275 875 275 1747 
Q 275 2603 792 3093 
Q 1309 3584 2216 3584 
Q 3041 3584 3536 3087 
Q 4031 2591 4031 1759 
z
M 2881 2131 
Q 2881 2450 2695 2645 
Q 2509 2841 2209 2841 
Q 1884 2841 1681 2658 
Q 1478 2475 1428 2131 
L 2881 2131 
z
" transform="scale(0.015625)"/>
      <path id="DejaVuSans-Bold-73" d="M 3272 3391 
L 3272 2541 
Q 2913 2691 2578 2766 
Q 2244 2841 1947 2841 
Q 1628 2841 1473 2761 
Q 1319 2681 1319 2516 
Q 1319 2381 1436 2309 
Q 1553 2238 1856 2203 
L 2053 2175 
Q 2913 2066 3209 1816 
Q 3506 1566 3506 1031 
Q 3506 472 3093 190 
Q 2681 -91 1863 -91 
Q 1516 -91 1145 -36 
Q 775 19 384 128 
L 384 978 
Q 719 816 1070 734 
Q 1422 653 1784 653 
Q 2113 653 2278 743 
Q 2444 834 2444 1013 
Q 2444 1163 2330 1236 
Q 2216 1309 1875 1350 
L 1678 1375 
Q 931 1469 631 1722 
Q 331 1975 331 2491 
Q 331 3047 712 3315 
Q 1094 3584 1881 3584 
Q 2191 3584 2531 3537 
Q 2872 3491 3272 3391 
z
" transform="scale(0.015625)"/>
      <path id="DejaVuSans-Bold-20" transform="scale(0.015625)"/>
      <path id="DejaVuSans-Bold-6f" d="M 2203 2784 
Q 1831 2784 1636 2517 
Q 1441 2250 1441 1747 
Q 1441 1244 1636 976 
Q 1831 709 2203 709 
Q 2569 709 2762 976 
Q 2956 1244 2956 1747 
Q 2956 2250 2762 2517 
Q 2569 2784 2203 2784 
z
M 2203 3584 
Q 3106 3584 3614 3096 
Q 4122 2609 4122 1747 
Q 4122 884 3614 396 
Q 3106 -91 2203 -91 
Q 1297 -91 786 396 
Q 275 884 275 1747 
Q 275 2609 786 3096 
Q 1297 3584 2203 3584 
z
" transform="scale(0.015625)"/>
      <path id="DejaVuSans-Bold-76" d="M 97 3500 
L 1216 3500 
L 2088 1081 
L 2956 3500 
L 4078 3500 
L 2700 0 
L 1472 0 
L 97 3500 
z
" transform="scale(0.015625)"/>
      <path id="DejaVuSans-Bold-72" d="M 3138 2547 
Q 2991 2616 2845 2648 
Q 2700 2681 2553 2681 
Q 2122 2681 1889 2404 
Q 1656 2128 1656 1613 
L 1656 0 
L 538 0 
L 538 3500 
L 1656 3500 
L 1656 2925 
Q 1872 3269 2151 3426 
Q 2431 3584 2822 3584 
Q 2878 3584 2943 3579 
Q 3009 3575 3134 3559 
L 3138 2547 
z
" transform="scale(0.015625)"/>
      <path id="DejaVuSans-Bold-6d" d="M 3781 2919 
Q 3994 3244 4286 3414 
Q 4578 3584 4928 3584 
Q 5531 3584 5847 3212 
Q 6163 2841 6163 2131 
L 6163 0 
L 5038 0 
L 5038 1825 
Q 5041 1866 5042 1909 
Q 5044 1953 5044 2034 
Q 5044 2406 4934 2573 
Q 4825 2741 4581 2741 
Q 4263 2741 4089 2478 
Q 3916 2216 3909 1719 
L 3909 0 
L 2784 0 
L 2784 1825 
Q 2784 2406 2684 2573 
Q 2584 2741 2328 2741 
Q 2006 2741 1831 2477 
Q 1656 2213 1656 1722 
L 1656 0 
L 531 0 
L 531 3500 
L 1656 3500 
L 1656 2988 
Q 1863 3284 2130 3434 
Q 2397 3584 2719 3584 
Q 3081 3584 3359 3409 
Q 3638 3234 3781 2919 
z
" transform="scale(0.015625)"/>
     </defs>
     <use xlink:href="#DejaVuSans-Bold-51"/>
     <use xlink:href="#DejaVuSans-Bold-75" transform="translate(85.009766 0)"/>
     <use xlink:href="#DejaVuSans-Bold-61" transform="translate(156.201172 0)"/>
     <use xlink:href="#DejaVuSans-Bold-6e" transform="translate(223.681641 0)"/>
     <use xlink:href="#DejaVuSans-Bold-74" transform="translate(294.873047 0)"/>
     <use xlink:href="#DejaVuSans-Bold-69" transform="translate(342.675781 0)"/>
     <use xlink:href="#DejaVuSans-Bold-74" transform="translate(376.953125 0)"/>
     <use xlink:href="#DejaVuSans-Bold-69" transform="translate(424.755859 0)"/>
     <use xlink:href="#DejaVuSans-Bold-65" transform="translate(459.033203 0)"/>
     <use xlink:href="#DejaVuSans-Bold-73" transform="translate(526.855469 0)"/>
     <use xlink:href="#DejaVuSans-Bold-20" transform="translate(586.376953 0)"/>
     <use xlink:href="#DejaVuSans-Bold-6f" transform="translate(621.191406 0)"/>
     <use xlink:href="#DejaVuSans-Bold-76" transform="translate(689.892578 0)"/>
     <use xlink:href="#DejaVuSans-Bold-65" transform="translate(755.078125 0)"/>
     <use xlink:href="#DejaVuSans-Bold-72" transform="translate(822.900391 0)"/>
     <use xlink:href="#DejaVuSans-Bold-20" transform="translate(872.216797 0)"/>
     <use xlink:href="#DejaVuSans-Bold-74" transform="translate(907.03125 0)"/>
     <use xlink:href="#DejaVuSans-Bold-69" transform="translate(954.833984 0)"/>
     <use xlink:href="#DejaVuSans-Bold-6d" transform="translate(989.111328 0)"/>
     <use xlink:href="#DejaVuSans-Bold-65" transform="translate(1093.310547 0)"/>
    </g>
   </g>
   <g id="legend_1">
    <g id="patch_7">
     <path d="M 64.6 78.82825 
L 154.673438 78.82825 
Q 156.673438 78.82825 156.673438 76.82825 
L 156.673438 48.472 
Q 156.673438 46.472 154.673438 46.472 
L 64.6 46.472 
Q 62.6 46.472 62.6 48.472 
L 62.6 76.82825 
Q 62.6 78.82825 64.6 78.82825 
z
" style="fill: #ffffff; opacity: 0.8; stroke: #cccccc; stroke-linejoin: miter"/>
    </g>
    <g id="line2d_15">
     <path d="M 66.6 54.570437 
L 76.6 54.570437 
L 86.6 54.570437 
" style="fill: none; stroke: #000000; stroke-width: 1.5; stroke-linecap: square"/>
    </g>
    <g id="text_16">
     <!-- Polarisation -->
     <g transform="translate(94.6 58.070437) scale(0.1 -0.1)">
      <defs>
       <path id="DejaVuSans-50" d="M 1259 4147 
L 1259 2394 
L 2053 2394 
Q 2494 2394 2734 2622 
Q 2975 2850 2975 3272 
Q 2975 3691 2734 3919 
Q 2494 4147 2053 4147 
L 1259 4147 
z
M 628 4666 
L 2053 4666 
Q 2838 4666 3239 4311 
Q 3641 3956 3641 3272 
Q 3641 2581 3239 2228 
Q 2838 1875 2053 1875 
L 1259 1875 
L 1259 0 
L 628 0 
L 628 4666 
z
" transform="scale(0.015625)"/>
       <path id="DejaVuSans-6f" d="M 1959 3097 
Q 1497 3097 1228 2736 
Q 959 2375 959 1747 
Q 959 1119 1226 758 
Q 1494 397 1959 397 
Q 2419 397 2687 759 
Q 2956 1122 2956 1747 
Q 2956 2369 2687 2733 
Q 2419 3097 1959 3097 
z
M 1959 3584 
Q 2709 3584 3137 3096 
Q 3566 2609 3566 1747 
Q 3566 888 3137 398 
Q 2709 -91 1959 -91 
Q 1206 -91 779 398 
Q 353 888 353 1747 
Q 353 2609 779 3096 
Q 1206 3584 1959 3584 
z
" transform="scale(0.015625)"/>
       <path id="DejaVuSans-6c" d="M 603 4863 
L 1178 4863 
L 1178 0 
L 603 0 
L 603 4863 
z
" transform="scale(0.015625)"/>
       <path id="DejaVuSans-72" d="M 2631 2963 
Q 2534 3019 2420 3045 
Q 2306 3072 2169 3072 
Q 1681 3072 1420 2755 
Q 1159 2438 1159 1844 
L 1159 0 
L 581 0 
L 581 3500 
L 1159 3500 
L 1159 2956 
Q 1341 3275 1631 3429 
Q 1922 3584 2338 3584 
Q 2397 3584 2469 3576 
Q 2541 3569 2628 3553 
L 2631 2963 
z
" transform="scale(0.015625)"/>
      </defs>
      <use xlink:href="#DejaVuSans-50"/>
      <use xlink:href="#DejaVuSans-6f" transform="translate(56.677734 0)"/>
      <use xlink:href="#DejaVuSans-6c" transform="translate(117.859375 0)"/>
      <use xlink:href="#DejaVuSans-61" transform="translate(145.642578 0)"/>
      <use xlink:href="#DejaVuSans-72" transform="translate(206.921875 0)"/>
      <use xlink:href="#DejaVuSans-69" transform="translate(248.035156 0)"/>
      <use xlink:href="#DejaVuSans-73" transform="translate(275.818359 0)"/>
      <use xlink:href="#DejaVuSans-61" transform="translate(327.917969 0)"/>
      <use xlink:href="#DejaVuSans-74" transform="translate(389.197266 0)"/>
      <use xlink:href="#DejaVuSans-69" transform="translate(428.40625 0)"/>
      <use xlink:href="#DejaVuSans-6f" transform="translate(456.189453 0)"/>
      <use xlink:href="#DejaVuSans-6e" transform="translate(517.371094 0)"/>
     </g>
    </g>
    <g id="line2d_16">
     <path d="M 66.6 69.248562 
L 76.6 69.248562 
L 86.6 69.248562 
" style="fill: none; stroke: #ff0000; stroke-width: 1.5; stroke-linecap: square"/>
    </g>
    <g id="text_17">
     <!-- Momentum -->
     <g transform="translate(94.6 72.748562) scale(0.1 -0.1)">
      <defs>
       <path id="DejaVuSans-4d" d="M 628 4666 
L 1569 4666 
L 2759 1491 
L 3956 4666 
L 4897 4666 
L 4897 0 
L 4281 0 
L 4281 4097 
L 3078 897 
L 2444 897 
L 1241 4097 
L 1241 0 
L 628 0 
L 628 4666 
z
" transform="scale(0.015625)"/>
      </defs>
      <use xlink:href="#DejaVuSans-4d"/>
      <use xlink:href="#DejaVuSans-6f" transform="translate(86.279297 0)"/>
      <use xlink:href="#DejaVuSans-6d" transform="translate(147.460938 0)"/>
      <use xlink:href="#DejaVuSans-65" transform="translate(244.873047 0)"/>
      <use xlink:href="#DejaVuSans-6e" transform="translate(306.396484 0)"/>
      <use xlink:href="#DejaVuSans-74" transform="translate(369.775391 0)"/>
      <use xlink:href="#DejaVuSans-75" transform="translate(408.984375 0)"/>
      <use xlink:href="#DejaVuSans-6d" transform="translate(472.363281 0)"/>
     </g>
    </g>
   </g>
  </g>
 </g>
 <defs>
  <clipPath id="pb5e99c4d3e">
   <rect x="57.6" y="41.472" width="357.12" height="266.112"/>
  </clipPath>
 </defs>
</svg>
