<?xml version="1.0" encoding="utf-8" standalone="no"?>
<!DOCTYPE svg PUBLIC "-//W3C//DTD SVG 1.1//EN"
  "http://www.w3.org/Graphics/SVG/1.1/DTD/svg11.dtd">
<svg xmlns:xlink="http://www.w3.org/1999/xlink" width="460.8pt" height="345.6pt" viewBox="0 0 460.8 345.6" xmlns="http://www.w3.org/2000/svg" version="1.1">
 <metadata>
  <rdf:RDF xmlns:dc="http://purl.org/dc/elements/1.1/" xmlns:cc="http://creativecommons.org/ns#" xmlns:rdf="http://www.w3.org/1999/02/22-rdf-syntax-ns#">
   <cc:Work>
    <dc:type rdf:resource="http://purl.org/dc/dcmitype/StillImage"/>
    <dc:date>2025-05-06T00:10:10.066051</dc:date>
    <dc:format>image/svg+xml</dc:format>
    <dc:creator>
     <cc:Agent>
      <dc:title>Matplotlib v3.10.1, https://matplotlib.org/</dc:title>
     </cc:Agent>
    </dc:creator>
   </cc:Work>
  </rdf:RDF>
 </metadata>
 <defs>
  <style type="text/css">*{stroke-linejoin: round; stroke-linecap: butt}</style>
 </defs>
 <g id="figure_1">
  <g id="patch_1">
   <path d="M 0 345.6 
L 460.8 345.6 
L 460.8 0 
L 0 0 
z
" style="fill: #ffffff"/>
  </g>
  <g id="axes_1">
   <g id="patch_2">
    <path d="M 57.6 307.584 
L 414.72 307.584 
L 414.72 41.472 
L 57.6 41.472 
z
" style="fill: #ffffff"/>
   </g>
   <g id="matplotlib.axis_1">
    <g id="xtick_1">
     <g id="line2d_1">
      <defs>
       <path id="ma25a7a68d1" d="M 0 0 
L 0 3.5 
" style="stroke: #000000; stroke-width: 0.8"/>
      </defs>
      <g>
       <use xlink:href="#ma25a7a68d1" x="73.832727" y="307.584" style="stroke: #000000; stroke-width: 0.8"/>
      </g>
     </g>
     <g id="text_1">
      <!-- 0 -->
      <g transform="translate(70.015227 323.702125) scale(0.12 -0.12)">
       <defs>
        <path id="DejaVuSans-30" d="M 2034 4250 
Q 1547 4250 1301 3770 
Q 1056 3291 1056 2328 
Q 1056 1369 1301 889 
Q 1547 409 2034 409 
Q 2525 409 2770 889 
Q 3016 1369 3016 2328 
Q 3016 3291 2770 3770 
Q 2525 4250 2034 4250 
z
M 2034 4750 
Q 2819 4750 3233 4129 
Q 3647 3509 3647 2328 
Q 3647 1150 3233 529 
Q 2819 -91 2034 -91 
Q 1250 -91 836 529 
Q 422 1150 422 2328 
Q 422 3509 836 4129 
Q 1250 4750 2034 4750 
z
" transform="scale(0.015625)"/>
       </defs>
       <use xlink:href="#DejaVuSans-30"/>
      </g>
     </g>
    </g>
    <g id="xtick_2">
     <g id="line2d_2">
      <g>
       <use xlink:href="#ma25a7a68d1" x="138.77013" y="307.584" style="stroke: #000000; stroke-width: 0.8"/>
      </g>
     </g>
     <g id="text_2">
      <!-- 2000 -->
      <g transform="translate(123.50013 323.702125) scale(0.12 -0.12)">
       <defs>
        <path id="DejaVuSans-32" d="M 1228 531 
L 3431 531 
L 3431 0 
L 469 0 
L 469 531 
Q 828 903 1448 1529 
Q 2069 2156 2228 2338 
Q 2531 2678 2651 2914 
Q 2772 3150 2772 3378 
Q 2772 3750 2511 3984 
Q 2250 4219 1831 4219 
Q 1534 4219 1204 4116 
Q 875 4013 500 3803 
L 500 4441 
Q 881 4594 1212 4672 
Q 1544 4750 1819 4750 
Q 2544 4750 2975 4387 
Q 3406 4025 3406 3419 
Q 3406 3131 3298 2873 
Q 3191 2616 2906 2266 
Q 2828 2175 2409 1742 
Q 1991 1309 1228 531 
z
" transform="scale(0.015625)"/>
       </defs>
       <use xlink:href="#DejaVuSans-32"/>
       <use xlink:href="#DejaVuSans-30" transform="translate(63.623047 0)"/>
       <use xlink:href="#DejaVuSans-30" transform="translate(127.246094 0)"/>
       <use xlink:href="#DejaVuSans-30" transform="translate(190.869141 0)"/>
      </g>
     </g>
    </g>
    <g id="xtick_3">
     <g id="line2d_3">
      <g>
       <use xlink:href="#ma25a7a68d1" x="203.707533" y="307.584" style="stroke: #000000; stroke-width: 0.8"/>
      </g>
     </g>
     <g id="text_3">
      <!-- 4000 -->
      <g transform="translate(188.437533 323.702125) scale(0.12 -0.12)">
       <defs>
        <path id="DejaVuSans-34" d="M 2419 4116 
L 825 1625 
L 2419 1625 
L 2419 4116 
z
M 2253 4666 
L 3047 4666 
L 3047 1625 
L 3713 1625 
L 3713 1100 
L 3047 1100 
L 3047 0 
L 2419 0 
L 2419 1100 
L 313 1100 
L 313 1709 
L 2253 4666 
z
" transform="scale(0.015625)"/>
       </defs>
       <use xlink:href="#DejaVuSans-34"/>
       <use xlink:href="#DejaVuSans-30" transform="translate(63.623047 0)"/>
       <use xlink:href="#DejaVuSans-30" transform="translate(127.246094 0)"/>
       <use xlink:href="#DejaVuSans-30" transform="translate(190.869141 0)"/>
      </g>
     </g>
    </g>
    <g id="xtick_4">
     <g id="line2d_4">
      <g>
       <use xlink:href="#ma25a7a68d1" x="268.644936" y="307.584" style="stroke: #000000; stroke-width: 0.8"/>
      </g>
     </g>
     <g id="text_4">
      <!-- 6000 -->
      <g transform="translate(253.374936 323.702125) scale(0.12 -0.12)">
       <defs>
        <path id="DejaVuSans-36" d="M 2113 2584 
Q 1688 2584 1439 2293 
Q 1191 2003 1191 1497 
Q 1191 994 1439 701 
Q 1688 409 2113 409 
Q 2538 409 2786 701 
Q 3034 994 3034 1497 
Q 3034 2003 2786 2293 
Q 2538 2584 2113 2584 
z
M 3366 4563 
L 3366 3988 
Q 3128 4100 2886 4159 
Q 2644 4219 2406 4219 
Q 1781 4219 1451 3797 
Q 1122 3375 1075 2522 
Q 1259 2794 1537 2939 
Q 1816 3084 2150 3084 
Q 2853 3084 3261 2657 
Q 3669 2231 3669 1497 
Q 3669 778 3244 343 
Q 2819 -91 2113 -91 
Q 1303 -91 875 529 
Q 447 1150 447 2328 
Q 447 3434 972 4092 
Q 1497 4750 2381 4750 
Q 2619 4750 2861 4703 
Q 3103 4656 3366 4563 
z
" transform="scale(0.015625)"/>
       </defs>
       <use xlink:href="#DejaVuSans-36"/>
       <use xlink:href="#DejaVuSans-30" transform="translate(63.623047 0)"/>
       <use xlink:href="#DejaVuSans-30" transform="translate(127.246094 0)"/>
       <use xlink:href="#DejaVuSans-30" transform="translate(190.869141 0)"/>
      </g>
     </g>
    </g>
    <g id="xtick_5">
     <g id="line2d_5">
      <g>
       <use xlink:href="#ma25a7a68d1" x="333.582339" y="307.584" style="stroke: #000000; stroke-width: 0.8"/>
      </g>
     </g>
     <g id="text_5">
      <!-- 8000 -->
      <g transform="translate(318.312339 323.702125) scale(0.12 -0.12)">
       <defs>
        <path id="DejaVuSans-38" d="M 2034 2216 
Q 1584 2216 1326 1975 
Q 1069 1734 1069 1313 
Q 1069 891 1326 650 
Q 1584 409 2034 409 
Q 2484 409 2743 651 
Q 3003 894 3003 1313 
Q 3003 1734 2745 1975 
Q 2488 2216 2034 2216 
z
M 1403 2484 
Q 997 2584 770 2862 
Q 544 3141 544 3541 
Q 544 4100 942 4425 
Q 1341 4750 2034 4750 
Q 2731 4750 3128 4425 
Q 3525 4100 3525 3541 
Q 3525 3141 3298 2862 
Q 3072 2584 2669 2484 
Q 3125 2378 3379 2068 
Q 3634 1759 3634 1313 
Q 3634 634 3220 271 
Q 2806 -91 2034 -91 
Q 1263 -91 848 271 
Q 434 634 434 1313 
Q 434 1759 690 2068 
Q 947 2378 1403 2484 
z
M 1172 3481 
Q 1172 3119 1398 2916 
Q 1625 2713 2034 2713 
Q 2441 2713 2670 2916 
Q 2900 3119 2900 3481 
Q 2900 3844 2670 4047 
Q 2441 4250 2034 4250 
Q 1625 4250 1398 4047 
Q 1172 3844 1172 3481 
z
" transform="scale(0.015625)"/>
       </defs>
       <use xlink:href="#DejaVuSans-38"/>
       <use xlink:href="#DejaVuSans-30" transform="translate(63.623047 0)"/>
       <use xlink:href="#DejaVuSans-30" transform="translate(127.246094 0)"/>
       <use xlink:href="#DejaVuSans-30" transform="translate(190.869141 0)"/>
      </g>
     </g>
    </g>
    <g id="xtick_6">
     <g id="line2d_6">
      <g>
       <use xlink:href="#ma25a7a68d1" x="398.519741" y="307.584" style="stroke: #000000; stroke-width: 0.8"/>
      </g>
     </g>
     <g id="text_6">
      <!-- 10000 -->
      <g transform="translate(379.432241 323.702125) scale(0.12 -0.12)">
       <defs>
        <path id="DejaVuSans-31" d="M 794 531 
L 1825 531 
L 1825 4091 
L 703 3866 
L 703 4441 
L 1819 4666 
L 2450 4666 
L 2450 531 
L 3481 531 
L 3481 0 
L 794 0 
L 794 531 
z
" transform="scale(0.015625)"/>
       </defs>
       <use xlink:href="#DejaVuSans-31"/>
       <use xlink:href="#DejaVuSans-30" transform="translate(63.623047 0)"/>
       <use xlink:href="#DejaVuSans-30" transform="translate(127.246094 0)"/>
       <use xlink:href="#DejaVuSans-30" transform="translate(190.869141 0)"/>
       <use xlink:href="#DejaVuSans-30" transform="translate(254.492188 0)"/>
      </g>
     </g>
    </g>
    <g id="text_7">
     <!-- timestep -->
     <g transform="translate(205.203594 340.835562) scale(0.14 -0.14)">
      <defs>
       <path id="DejaVuSans-74" d="M 1172 4494 
L 1172 3500 
L 2356 3500 
L 2356 3053 
L 1172 3053 
L 1172 1153 
Q 1172 725 1289 603 
Q 1406 481 1766 481 
L 2356 481 
L 2356 0 
L 1766 0 
Q 1100 0 847 248 
Q 594 497 594 1153 
L 594 3053 
L 172 3053 
L 172 3500 
L 594 3500 
L 594 4494 
L 1172 4494 
z
" transform="scale(0.015625)"/>
       <path id="DejaVuSans-69" d="M 603 3500 
L 1178 3500 
L 1178 0 
L 603 0 
L 603 3500 
z
M 603 4863 
L 1178 4863 
L 1178 4134 
L 603 4134 
L 603 4863 
z
" transform="scale(0.015625)"/>
       <path id="DejaVuSans-6d" d="M 3328 2828 
Q 3544 3216 3844 3400 
Q 4144 3584 4550 3584 
Q 5097 3584 5394 3201 
Q 5691 2819 5691 2113 
L 5691 0 
L 5113 0 
L 5113 2094 
Q 5113 2597 4934 2840 
Q 4756 3084 4391 3084 
Q 3944 3084 3684 2787 
Q 3425 2491 3425 1978 
L 3425 0 
L 2847 0 
L 2847 2094 
Q 2847 2600 2669 2842 
Q 2491 3084 2119 3084 
Q 1678 3084 1418 2786 
Q 1159 2488 1159 1978 
L 1159 0 
L 581 0 
L 581 3500 
L 1159 3500 
L 1159 2956 
Q 1356 3278 1631 3431 
Q 1906 3584 2284 3584 
Q 2666 3584 2933 3390 
Q 3200 3197 3328 2828 
z
" transform="scale(0.015625)"/>
       <path id="DejaVuSans-65" d="M 3597 1894 
L 3597 1613 
L 953 1613 
Q 991 1019 1311 708 
Q 1631 397 2203 397 
Q 2534 397 2845 478 
Q 3156 559 3463 722 
L 3463 178 
Q 3153 47 2828 -22 
Q 2503 -91 2169 -91 
Q 1331 -91 842 396 
Q 353 884 353 1716 
Q 353 2575 817 3079 
Q 1281 3584 2069 3584 
Q 2775 3584 3186 3129 
Q 3597 2675 3597 1894 
z
M 3022 2063 
Q 3016 2534 2758 2815 
Q 2500 3097 2075 3097 
Q 1594 3097 1305 2825 
Q 1016 2553 972 2059 
L 3022 2063 
z
" transform="scale(0.015625)"/>
       <path id="DejaVuSans-73" d="M 2834 3397 
L 2834 2853 
Q 2591 2978 2328 3040 
Q 2066 3103 1784 3103 
Q 1356 3103 1142 2972 
Q 928 2841 928 2578 
Q 928 2378 1081 2264 
Q 1234 2150 1697 2047 
L 1894 2003 
Q 2506 1872 2764 1633 
Q 3022 1394 3022 966 
Q 3022 478 2636 193 
Q 2250 -91 1575 -91 
Q 1294 -91 989 -36 
Q 684 19 347 128 
L 347 722 
Q 666 556 975 473 
Q 1284 391 1588 391 
Q 1994 391 2212 530 
Q 2431 669 2431 922 
Q 2431 1156 2273 1281 
Q 2116 1406 1581 1522 
L 1381 1569 
Q 847 1681 609 1914 
Q 372 2147 372 2553 
Q 372 3047 722 3315 
Q 1072 3584 1716 3584 
Q 2034 3584 2315 3537 
Q 2597 3491 2834 3397 
z
" transform="scale(0.015625)"/>
       <path id="DejaVuSans-70" d="M 1159 525 
L 1159 -1331 
L 581 -1331 
L 581 3500 
L 1159 3500 
L 1159 2969 
Q 1341 3281 1617 3432 
Q 1894 3584 2278 3584 
Q 2916 3584 3314 3078 
Q 3713 2572 3713 1747 
Q 3713 922 3314 415 
Q 2916 -91 2278 -91 
Q 1894 -91 1617 61 
Q 1341 213 1159 525 
z
M 3116 1747 
Q 3116 2381 2855 2742 
Q 2594 3103 2138 3103 
Q 1681 3103 1420 2742 
Q 1159 2381 1159 1747 
Q 1159 1113 1420 752 
Q 1681 391 2138 391 
Q 2594 391 2855 752 
Q 3116 1113 3116 1747 
z
" transform="scale(0.015625)"/>
      </defs>
      <use xlink:href="#DejaVuSans-74"/>
      <use xlink:href="#DejaVuSans-69" transform="translate(39.208984 0)"/>
      <use xlink:href="#DejaVuSans-6d" transform="translate(66.992188 0)"/>
      <use xlink:href="#DejaVuSans-65" transform="translate(164.404297 0)"/>
      <use xlink:href="#DejaVuSans-73" transform="translate(225.927734 0)"/>
      <use xlink:href="#DejaVuSans-74" transform="translate(278.027344 0)"/>
      <use xlink:href="#DejaVuSans-65" transform="translate(317.236328 0)"/>
      <use xlink:href="#DejaVuSans-70" transform="translate(378.759766 0)"/>
     </g>
    </g>
   </g>
   <g id="matplotlib.axis_2">
    <g id="ytick_1">
     <g id="line2d_7">
      <defs>
       <path id="m49bb7c9211" d="M 0 0 
L -3.5 0 
" style="stroke: #000000; stroke-width: 0.8"/>
      </defs>
      <g>
       <use xlink:href="#m49bb7c9211" x="57.6" y="303.438689" style="stroke: #000000; stroke-width: 0.8"/>
      </g>
     </g>
     <g id="text_8">
      <!-- −1.00 -->
      <g transform="translate(13.825625 307.997751) scale(0.12 -0.12)">
       <defs>
        <path id="DejaVuSans-2212" d="M 678 2272 
L 4684 2272 
L 4684 1741 
L 678 1741 
L 678 2272 
z
" transform="scale(0.015625)"/>
        <path id="DejaVuSans-2e" d="M 684 794 
L 1344 794 
L 1344 0 
L 684 0 
L 684 794 
z
" transform="scale(0.015625)"/>
       </defs>
       <use xlink:href="#DejaVuSans-2212"/>
       <use xlink:href="#DejaVuSans-31" transform="translate(83.789062 0)"/>
       <use xlink:href="#DejaVuSans-2e" transform="translate(147.412109 0)"/>
       <use xlink:href="#DejaVuSans-30" transform="translate(179.199219 0)"/>
       <use xlink:href="#DejaVuSans-30" transform="translate(242.822266 0)"/>
      </g>
     </g>
    </g>
    <g id="ytick_2">
     <g id="line2d_8">
      <g>
       <use xlink:href="#m49bb7c9211" x="57.6" y="272.193904" style="stroke: #000000; stroke-width: 0.8"/>
      </g>
     </g>
     <g id="text_9">
      <!-- −0.75 -->
      <g transform="translate(13.825625 276.752967) scale(0.12 -0.12)">
       <defs>
        <path id="DejaVuSans-37" d="M 525 4666 
L 3525 4666 
L 3525 4397 
L 1831 0 
L 1172 0 
L 2766 4134 
L 525 4134 
L 525 4666 
z
" transform="scale(0.015625)"/>
        <path id="DejaVuSans-35" d="M 691 4666 
L 3169 4666 
L 3169 4134 
L 1269 4134 
L 1269 2991 
Q 1406 3038 1543 3061 
Q 1681 3084 1819 3084 
Q 2600 3084 3056 2656 
Q 3513 2228 3513 1497 
Q 3513 744 3044 326 
Q 2575 -91 1722 -91 
Q 1428 -91 1123 -41 
Q 819 9 494 109 
L 494 744 
Q 775 591 1075 516 
Q 1375 441 1709 441 
Q 2250 441 2565 725 
Q 2881 1009 2881 1497 
Q 2881 1984 2565 2268 
Q 2250 2553 1709 2553 
Q 1456 2553 1204 2497 
Q 953 2441 691 2322 
L 691 4666 
z
" transform="scale(0.015625)"/>
       </defs>
       <use xlink:href="#DejaVuSans-2212"/>
       <use xlink:href="#DejaVuSans-30" transform="translate(83.789062 0)"/>
       <use xlink:href="#DejaVuSans-2e" transform="translate(147.412109 0)"/>
       <use xlink:href="#DejaVuSans-37" transform="translate(179.199219 0)"/>
       <use xlink:href="#DejaVuSans-35" transform="translate(242.822266 0)"/>
      </g>
     </g>
    </g>
    <g id="ytick_3">
     <g id="line2d_9">
      <g>
       <use xlink:href="#m49bb7c9211" x="57.6" y="240.94912" style="stroke: #000000; stroke-width: 0.8"/>
      </g>
     </g>
     <g id="text_10">
      <!-- −0.50 -->
      <g transform="translate(13.825625 245.508182) scale(0.12 -0.12)">
       <use xlink:href="#DejaVuSans-2212"/>
       <use xlink:href="#DejaVuSans-30" transform="translate(83.789062 0)"/>
       <use xlink:href="#DejaVuSans-2e" transform="translate(147.412109 0)"/>
       <use xlink:href="#DejaVuSans-35" transform="translate(179.199219 0)"/>
       <use xlink:href="#DejaVuSans-30" transform="translate(242.822266 0)"/>
      </g>
     </g>
    </g>
    <g id="ytick_4">
     <g id="line2d_10">
      <g>
       <use xlink:href="#m49bb7c9211" x="57.6" y="209.704335" style="stroke: #000000; stroke-width: 0.8"/>
      </g>
     </g>
     <g id="text_11">
      <!-- −0.25 -->
      <g transform="translate(13.825625 214.263398) scale(0.12 -0.12)">
       <use xlink:href="#DejaVuSans-2212"/>
       <use xlink:href="#DejaVuSans-30" transform="translate(83.789062 0)"/>
       <use xlink:href="#DejaVuSans-2e" transform="translate(147.412109 0)"/>
       <use xlink:href="#DejaVuSans-32" transform="translate(179.199219 0)"/>
       <use xlink:href="#DejaVuSans-35" transform="translate(242.822266 0)"/>
      </g>
     </g>
    </g>
    <g id="ytick_5">
     <g id="line2d_11">
      <g>
       <use xlink:href="#m49bb7c9211" x="57.6" y="178.459551" style="stroke: #000000; stroke-width: 0.8"/>
      </g>
     </g>
     <g id="text_12">
      <!-- 0.00 -->
      <g transform="translate(23.88125 183.018613) scale(0.12 -0.12)">
       <use xlink:href="#DejaVuSans-30"/>
       <use xlink:href="#DejaVuSans-2e" transform="translate(63.623047 0)"/>
       <use xlink:href="#DejaVuSans-30" transform="translate(95.410156 0)"/>
       <use xlink:href="#DejaVuSans-30" transform="translate(159.033203 0)"/>
      </g>
     </g>
    </g>
    <g id="ytick_6">
     <g id="line2d_12">
      <g>
       <use xlink:href="#m49bb7c9211" x="57.6" y="147.214766" style="stroke: #000000; stroke-width: 0.8"/>
      </g>
     </g>
     <g id="text_13">
      <!-- 0.25 -->
      <g transform="translate(23.88125 151.773829) scale(0.12 -0.12)">
       <use xlink:href="#DejaVuSans-30"/>
       <use xlink:href="#DejaVuSans-2e" transform="translate(63.623047 0)"/>
       <use xlink:href="#DejaVuSans-32" transform="translate(95.410156 0)"/>
       <use xlink:href="#DejaVuSans-35" transform="translate(159.033203 0)"/>
      </g>
     </g>
    </g>
    <g id="ytick_7">
     <g id="line2d_13">
      <g>
       <use xlink:href="#m49bb7c9211" x="57.6" y="115.969982" style="stroke: #000000; stroke-width: 0.8"/>
      </g>
     </g>
     <g id="text_14">
      <!-- 0.50 -->
      <g transform="translate(23.88125 120.529044) scale(0.12 -0.12)">
       <use xlink:href="#DejaVuSans-30"/>
       <use xlink:href="#DejaVuSans-2e" transform="translate(63.623047 0)"/>
       <use xlink:href="#DejaVuSans-35" transform="translate(95.410156 0)"/>
       <use xlink:href="#DejaVuSans-30" transform="translate(159.033203 0)"/>
      </g>
     </g>
    </g>
    <g id="ytick_8">
     <g id="line2d_14">
      <g>
       <use xlink:href="#m49bb7c9211" x="57.6" y="84.725198" style="stroke: #000000; stroke-width: 0.8"/>
      </g>
     </g>
     <g id="text_15">
      <!-- 0.75 -->
      <g transform="translate(23.88125 89.28426) scale(0.12 -0.12)">
       <use xlink:href="#DejaVuSans-30"/>
       <use xlink:href="#DejaVuSans-2e" transform="translate(63.623047 0)"/>
       <use xlink:href="#DejaVuSans-37" transform="translate(95.410156 0)"/>
       <use xlink:href="#DejaVuSans-35" transform="translate(159.033203 0)"/>
      </g>
     </g>
    </g>
    <g id="ytick_9">
     <g id="line2d_15">
      <g>
       <use xlink:href="#m49bb7c9211" x="57.6" y="53.480413" style="stroke: #000000; stroke-width: 0.8"/>
      </g>
     </g>
     <g id="text_16">
      <!-- 1.00 -->
      <g transform="translate(23.88125 58.039476) scale(0.12 -0.12)">
       <use xlink:href="#DejaVuSans-31"/>
       <use xlink:href="#DejaVuSans-2e" transform="translate(63.623047 0)"/>
       <use xlink:href="#DejaVuSans-30" transform="translate(95.410156 0)"/>
       <use xlink:href="#DejaVuSans-30" transform="translate(159.033203 0)"/>
      </g>
     </g>
    </g>
    <g id="text_17">
     <!-- opinion -->
     <g transform="translate(6.914062 200.300031) rotate(-90) scale(0.14 -0.14)">
      <defs>
       <path id="DejaVuSans-6f" d="M 1959 3097 
Q 1497 3097 1228 2736 
Q 959 2375 959 1747 
Q 959 1119 1226 758 
Q 1494 397 1959 397 
Q 2419 397 2687 759 
Q 2956 1122 2956 1747 
Q 2956 2369 2687 2733 
Q 2419 3097 1959 3097 
z
M 1959 3584 
Q 2709 3584 3137 3096 
Q 3566 2609 3566 1747 
Q 3566 888 3137 398 
Q 2709 -91 1959 -91 
Q 1206 -91 779 398 
Q 353 888 353 1747 
Q 353 2609 779 3096 
Q 1206 3584 1959 3584 
z
" transform="scale(0.015625)"/>
       <path id="DejaVuSans-6e" d="M 3513 2113 
L 3513 0 
L 2938 0 
L 2938 2094 
Q 2938 2591 2744 2837 
Q 2550 3084 2163 3084 
Q 1697 3084 1428 2787 
Q 1159 2491 1159 1978 
L 1159 0 
L 581 0 
L 581 3500 
L 1159 3500 
L 1159 2956 
Q 1366 3272 1645 3428 
Q 1925 3584 2291 3584 
Q 2894 3584 3203 3211 
Q 3513 2838 3513 2113 
z
" transform="scale(0.015625)"/>
      </defs>
      <use xlink:href="#DejaVuSans-6f"/>
      <use xlink:href="#DejaVuSans-70" transform="translate(61.181641 0)"/>
      <use xlink:href="#DejaVuSans-69" transform="translate(124.658203 0)"/>
      <use xlink:href="#DejaVuSans-6e" transform="translate(152.441406 0)"/>
      <use xlink:href="#DejaVuSans-69" transform="translate(215.820312 0)"/>
      <use xlink:href="#DejaVuSans-6f" transform="translate(243.603516 0)"/>
      <use xlink:href="#DejaVuSans-6e" transform="translate(304.785156 0)"/>
     </g>
    </g>
   </g>
   <g id="line2d_16">
    <path d="M 73.832727 292.965087 
L 74.77432 290.147135 
L 79.677094 279.332568 
L 80.586217 276.648001 
L 81.75509 273.608086 
L 82.76162 271.470496 
L 84.579867 267.564905 
L 85.131835 266.057265 
L 86.495521 262.68585 
L 87.209832 261.474218 
L 88.054018 260.585993 
L 90.002141 258.687883 
L 90.619046 258.111863 
L 91.722982 257.290126 
L 93.02173 256.387049 
L 93.541229 256.003713 
L 96.75563 253.623428 
L 98.444003 252.661381 
L 100.132375 251.953251 
L 101.950623 251.401656 
L 104.580588 250.88461 
L 107.76252 250.527621 
L 112.113326 250.417531 
L 128.412614 250.523731 
L 163.576218 250.694636 
L 245.689564 250.750166 
L 398.487273 250.752172 
L 398.487273 250.752172 
" clip-path="url(#p0f3aa14139)" style="fill: none; stroke: #0000ff; stroke-opacity: 0.2; stroke-width: 1.5; stroke-linecap: square"/>
   </g>
   <g id="line2d_17">
    <path d="M 73.832727 259.899249 
L 74.352226 260.299026 
L 75.099007 259.595888 
L 76.040599 258.167532 
L 77.826378 255.91149 
L 78.086127 255.821381 
L 78.443283 255.981502 
L 80.293999 256.525586 
L 81.138185 256.562096 
L 82.144715 256.602358 
L 83.800619 256.312122 
L 84.222712 255.901134 
L 85.326648 255.238649 
L 85.976022 254.7372 
L 86.917614 254.264596 
L 89.417704 253.705604 
L 91.171014 253.514569 
L 91.75545 253.486135 
L 97.437473 253.029079 
L 98.703753 252.569314 
L 102.145435 252.130571 
L 106.755991 251.771544 
L 136.237571 251.049272 
L 161.141065 250.867824 
L 210.623366 250.773179 
L 397.708024 250.752211 
L 398.487273 250.752211 
L 398.487273 250.752211 
" clip-path="url(#p0f3aa14139)" style="fill: none; stroke: #0000ff; stroke-opacity: 0.2; stroke-width: 1.5; stroke-linecap: square"/>
   </g>
   <g id="line2d_18">
    <path d="M 73.832727 162.111778 
L 74.092477 162.381613 
L 74.51457 162.651041 
L 75.5211 162.702073 
L 75.943193 162.455812 
L 76.625036 162.055107 
L 78.703032 162.086624 
L 79.222532 162.191768 
L 79.51475 162.205191 
L 79.969312 161.118896 
L 81.138185 158.306464 
L 81.657684 156.54785 
L 83.378525 148.814741 
L 84.644805 141.91766 
L 85.878615 135.562451 
L 86.657864 132.684357 
L 87.372176 130.81365 
L 87.826738 130.12381 
L 88.50858 129.442833 
L 89.385235 129.197609 
L 91.52817 128.685096 
L 92.502231 128.131593 
L 93.573698 127.112823 
L 95.067258 125.521578 
L 96.041319 124.967228 
L 96.820568 124.781942 
L 99.158314 124.299581 
L 102.632465 123.651508 
L 105.294899 123.438537 
L 110.587297 123.301737 
L 123.607247 123.268946 
L 398.487273 123.269516 
L 398.487273 123.269516 
" clip-path="url(#p0f3aa14139)" style="fill: none; stroke: #0000ff; stroke-opacity: 0.2; stroke-width: 1.5; stroke-linecap: square"/>
   </g>
   <g id="line2d_19">
    <path d="M 73.832727 260.22311 
L 74.449633 260.966962 
L 75.163944 261.47135 
L 75.943193 261.77852 
L 77.209472 262.129282 
L 78.053658 261.912521 
L 78.832907 261.565625 
L 80.293999 260.799811 
L 80.683623 260.297049 
L 82.599277 259.181098 
L 84.25518 258.672736 
L 85.586397 258.29014 
L 87.339707 257.994924 
L 88.930673 257.304346 
L 89.547579 256.758045 
L 90.424234 256.192319 
L 96.138725 254.188909 
L 98.411534 253.477764 
L 100.359656 252.937078 
L 103.346777 252.392707 
L 106.820928 251.99497 
L 112.080858 251.64168 
L 119.873346 251.36781 
L 138.900005 251.019811 
L 166.952963 250.850367 
L 223.903065 250.766201 
L 398.487273 250.752224 
L 398.487273 250.752224 
" clip-path="url(#p0f3aa14139)" style="fill: none; stroke: #0000ff; stroke-opacity: 0.2; stroke-width: 1.5; stroke-linecap: square"/>
   </g>
   <g id="line2d_20">
    <path d="M 73.832727 161.809711 
L 74.547039 162.525637 
L 75.748381 162.777159 
L 76.300349 162.372184 
L 77.664034 161.399898 
L 78.378345 161.374979 
L 78.832907 161.170861 
L 79.742031 160.527931 
L 79.904374 160.486197 
L 80.52128 160.091395 
L 81.170654 159.405449 
L 81.495341 158.640028 
L 82.696683 155.108896 
L 85.26171 139.117108 
L 86.00849 136.307555 
L 86.430583 135.396416 
L 87.502051 133.897662 
L 88.183893 133.208765 
L 88.800799 132.865144 
L 89.677454 132.659893 
L 90.326828 132.474565 
L 91.073608 131.943941 
L 91.820388 131.012473 
L 93.800979 128.522731 
L 94.385415 128.230351 
L 95.456882 127.747086 
L 96.593287 126.955172 
L 98.249191 125.687876 
L 99.450533 125.036599 
L 100.651875 124.624922 
L 102.599997 124.213216 
L 105.652055 123.710975 
L 109.418424 123.459945 
L 115.749821 123.317651 
L 130.750361 123.271658 
L 398.487273 123.269516 
L 398.487273 123.269516 
" clip-path="url(#p0f3aa14139)" style="fill: none; stroke: #0000ff; stroke-opacity: 0.2; stroke-width: 1.5; stroke-linecap: square"/>
   </g>
   <g id="line2d_21">
    <path d="M 73.832727 174.959072 
L 74.287289 174.127409 
L 75.423694 172.736389 
L 75.845787 172.042433 
L 76.202942 171.589834 
L 76.949723 171.328746 
L 78.410814 170.288633 
L 79.7745 167.743599 
L 80.618686 165.295915 
L 81.625216 160.732791 
L 83.248651 152.445355 
L 84.352587 147.084898 
L 84.969492 144.68703 
L 85.488991 143.729389 
L 87.01502 141.343762 
L 87.631925 139.687302 
L 89.25536 135.13847 
L 90.326828 132.206786 
L 91.495701 129.696244 
L 92.437293 128.054417 
L 93.119136 127.251105 
L 93.963322 126.648998 
L 95.26207 126.146847 
L 96.885505 125.450563 
L 98.801159 124.573065 
L 100.392125 124.161733 
L 102.177904 123.932736 
L 108.541769 123.5175 
L 115.003041 123.352462 
L 129.386675 123.2765 
L 228.740902 123.269516 
L 398.487273 123.269516 
L 398.487273 123.269516 
" clip-path="url(#p0f3aa14139)" style="fill: none; stroke: #0000ff; stroke-opacity: 0.2; stroke-width: 1.5; stroke-linecap: square"/>
   </g>
   <g id="line2d_22">
    <path d="M 73.832727 86.25722 
L 74.449633 87.019303 
L 75.780849 89.63013 
L 77.339347 93.69155 
L 77.988721 95.456075 
L 79.222532 98.975428 
L 79.709562 100.449922 
L 80.651155 103.618224 
L 81.138185 105.118486 
L 81.787559 106.286557 
L 82.891495 107.868803 
L 84.872086 111.556305 
L 85.391585 112.451061 
L 85.943553 113.266026 
L 86.75527 114.100064 
L 87.891675 115.371022 
L 88.541049 116.201184 
L 89.222892 117.13194 
L 91.625576 120.021472 
L 92.469762 120.735545 
L 93.671104 121.464432 
L 94.710102 121.83165 
L 96.430943 122.186077 
L 103.50912 122.83275 
L 108.054739 123.065679 
L 114.938103 123.209932 
L 130.750361 123.26608 
L 318.159705 123.269516 
L 398.487273 123.269516 
L 398.487273 123.269516 
" clip-path="url(#p0f3aa14139)" style="fill: none; stroke: #0000ff; stroke-opacity: 0.2; stroke-width: 1.5; stroke-linecap: square"/>
   </g>
   <g id="line2d_23">
    <path d="M 73.832727 123.381933 
L 74.060008 123.655192 
L 75.196413 124.878148 
L 75.910724 124.345251 
L 76.332817 123.251305 
L 76.819848 121.698745 
L 78.280939 117.973452 
L 78.865376 116.156324 
L 80.066718 112.800819 
L 80.52128 112.217108 
L 80.975842 112.052889 
L 81.462872 111.824822 
L 81.820028 111.955088 
L 82.27459 112.677064 
L 84.417524 117.12384 
L 85.099367 118.002921 
L 85.748741 118.805376 
L 86.657864 119.80094 
L 87.826738 120.810064 
L 89.093017 121.430844 
L 92.242481 122.948437 
L 93.50876 123.049552 
L 97.437473 122.998743 
L 101.041499 123.18764 
L 144.03006 123.269518 
L 398.487273 123.269516 
L 398.487273 123.269516 
" clip-path="url(#p0f3aa14139)" style="fill: none; stroke: #0000ff; stroke-opacity: 0.2; stroke-width: 1.5; stroke-linecap: square"/>
   </g>
   <g id="line2d_24">
    <path d="M 73.832727 77.578554 
L 74.384695 77.963123 
L 75.293819 80.589457 
L 76.397755 83.666687 
L 76.722442 83.997591 
L 76.949723 84.077779 
L 77.469222 84.296838 
L 77.891315 84.907798 
L 78.540689 86.203765 
L 79.612156 88.748827 
L 80.293999 89.864477 
L 81.300529 91.279995 
L 82.112246 92.360069 
L 83.346057 95.646377 
L 85.748741 105.011164 
L 86.235771 106.158198 
L 87.859206 109.556966 
L 89.25536 112.770079 
L 90.748921 115.8083 
L 92.664574 118.645387 
L 93.865916 120.019766 
L 95.067258 120.888022 
L 96.236131 121.476654 
L 98.151785 122.270998 
L 99.905095 122.714206 
L 101.593467 122.952335 
L 104.353307 123.129618 
L 109.743111 123.240245 
L 130.230862 123.269063 
L 398.487273 123.269516 
L 398.487273 123.269516 
" clip-path="url(#p0f3aa14139)" style="fill: none; stroke: #0000ff; stroke-opacity: 0.2; stroke-width: 1.5; stroke-linecap: square"/>
   </g>
   <g id="line2d_25">
    <path d="M 73.832727 234.046522 
L 74.51457 234.698657 
L 75.099007 235.133648 
L 75.878255 235.403168 
L 76.75491 235.620837 
L 77.436753 236.005427 
L 79.417344 237.650632 
L 80.423874 239.634504 
L 81.105716 241.033923 
L 83.410994 243.707806 
L 83.833087 244.144607 
L 85.359116 245.493772 
L 86.625396 246.739353 
L 88.800799 248.584384 
L 91.852857 250.550978 
L 92.697043 250.77751 
L 94.385415 251.103498 
L 95.878976 251.481347 
L 98.119316 251.894557 
L 99.02844 251.896593 
L 119.873346 251.407694 
L 135.101167 251.071915 
L 155.134356 250.890376 
L 195.817638 250.784833 
L 325.692444 250.752635 
L 398.487273 250.752222 
L 398.487273 250.752222 
" clip-path="url(#p0f3aa14139)" style="fill: none; stroke: #0000ff; stroke-opacity: 0.2; stroke-width: 1.5; stroke-linecap: square"/>
   </g>
   <g id="line2d_26">
    <path d="M 73.832727 239.28304 
L 75.650975 245.538762 
L 76.560098 247.687587 
L 78.605626 251.410245 
L 79.255 252.045783 
L 80.066718 252.484679 
L 80.52128 252.674678 
L 82.436933 251.677568 
L 84.482461 249.994562 
L 86.52799 248.799324 
L 87.01502 248.881902 
L 88.898205 249.799366 
L 90.813858 251.024232 
L 92.0152 251.709491 
L 93.216542 252.162961 
L 94.093197 252.301555 
L 100.132375 251.931881 
L 111.041859 251.464519 
L 125.26315 251.217865 
L 160.718972 250.91098 
L 204.843937 250.786019 
L 327.250942 250.752743 
L 398.487273 250.752229 
L 398.487273 250.752229 
" clip-path="url(#p0f3aa14139)" style="fill: none; stroke: #0000ff; stroke-opacity: 0.2; stroke-width: 1.5; stroke-linecap: square"/>
   </g>
   <g id="line2d_27">
    <path d="M 73.832727 128.542068 
L 74.384695 128.815869 
L 74.579507 128.63575 
L 75.391225 128.627412 
L 75.845787 128.903429 
L 76.170474 128.969542 
L 76.787379 128.319159 
L 77.728971 125.566492 
L 78.443283 122.94644 
L 78.832907 122.326833 
L 79.319938 122.091001 
L 79.612156 122.124363 
L 80.293999 122.749152 
L 81.235591 124.591068 
L 81.820028 125.693981 
L 83.216182 127.363921 
L 83.670744 127.655695 
L 84.482461 127.818927 
L 84.904554 127.555988 
L 85.618866 126.793817 
L 87.502051 123.858456 
L 88.151425 123.423382 
L 88.963142 123.252631 
L 91.950263 123.08818 
L 95.164664 122.703416 
L 102.307778 123.180338 
L 280.52848 123.269516 
L 398.487273 123.269516 
L 398.487273 123.269516 
" clip-path="url(#p0f3aa14139)" style="fill: none; stroke: #0000ff; stroke-opacity: 0.2; stroke-width: 1.5; stroke-linecap: square"/>
   </g>
   <g id="line2d_28">
    <path d="M 73.832727 78.084082 
L 75.391225 78.704422 
L 76.75491 80.091901 
L 77.501691 81.733174 
L 77.826378 82.730459 
L 81.00831 94.664755 
L 81.75509 96.483816 
L 82.729151 100.132983 
L 83.540869 104.398873 
L 85.294179 111.962109 
L 85.878615 113.495257 
L 86.592927 114.786277 
L 87.502051 115.951899 
L 89.385235 117.973673 
L 91.722982 120.593304 
L 92.404824 120.909763 
L 93.346417 121.17182 
L 99.450533 122.473409 
L 101.366186 122.826443 
L 104.061088 123.060324 
L 108.671644 123.216948 
L 119.159034 123.267115 
L 281.242792 123.269516 
L 398.487273 123.269516 
L 398.487273 123.269516 
" clip-path="url(#p0f3aa14139)" style="fill: none; stroke: #0000ff; stroke-opacity: 0.2; stroke-width: 1.5; stroke-linecap: square"/>
   </g>
   <g id="line2d_29">
    <path d="M 73.832727 57.556651 
L 75.780849 62.357821 
L 76.722442 65.961376 
L 77.177004 67.989417 
L 80.066718 81.276436 
L 81.235591 86.560055 
L 82.794089 94.453823 
L 84.449993 106.68157 
L 85.294179 110.982412 
L 86.138365 113.915718 
L 86.75527 115.458619 
L 88.541049 118.953464 
L 89.320298 119.837709 
L 90.067078 120.27795 
L 93.606166 121.92697 
L 95.067258 122.322499 
L 102.112966 123.136861 
L 113.119856 123.249187 
L 152.114766 123.269506 
L 398.487273 123.269516 
L 398.487273 123.269516 
" clip-path="url(#p0f3aa14139)" style="fill: none; stroke: #0000ff; stroke-opacity: 0.2; stroke-width: 1.5; stroke-linecap: square"/>
   </g>
   <g id="line2d_30">
    <path d="M 73.832727 143.237227 
L 74.51457 141.444357 
L 75.358756 139.765587 
L 76.040599 138.436888 
L 76.917254 136.636498 
L 77.241941 135.724055 
L 79.027719 129.489444 
L 79.742031 127.29402 
L 80.196593 126.600246 
L 80.781029 126.149605 
L 81.332997 126.380831 
L 81.75509 126.837446 
L 82.599277 127.935433 
L 83.183713 128.500398 
L 84.385055 128.78346 
L 84.709742 128.505262 
L 85.034429 127.977162 
L 85.813678 126.5239 
L 86.495521 125.476245 
L 87.339707 124.62851 
L 88.605986 123.654002 
L 90.164484 122.876304 
L 92.437293 122.426346 
L 99.970032 123.170651 
L 105.067618 123.225583 
L 114.743291 123.264629 
L 221.662725 123.269516 
L 398.487273 123.269516 
L 398.487273 123.269516 
" clip-path="url(#p0f3aa14139)" style="fill: none; stroke: #0000ff; stroke-opacity: 0.2; stroke-width: 1.5; stroke-linecap: square"/>
   </g>
   <g id="line2d_31">
    <path d="M 73.832727 220.950611 
L 74.25482 219.807217 
L 74.806788 218.504311 
L 76.073068 216.082846 
L 77.112066 214.489351 
L 77.436753 214.342306 
L 77.956252 214.318939 
L 78.183533 214.179642 
L 78.897845 213.383917 
L 80.683623 210.562934 
L 81.365466 209.871862 
L 82.079777 209.240376 
L 83.703213 206.852323 
L 83.735681 206.876404 
L 83.833087 206.949002 
L 84.25518 208.597466 
L 85.066898 212.991839 
L 87.079957 223.862288 
L 88.02155 227.327361 
L 90.489171 235.076314 
L 91.398295 235.737731 
L 91.917794 235.798961 
L 93.541229 236.092284 
L 97.145255 237.467796 
L 97.892035 238.204802 
L 98.963502 239.178395 
L 100.392125 240.138604 
L 104.51565 242.656443 
L 108.282019 244.155149 
L 111.723702 245.247802 
L 115.003041 246.069396 
L 118.314848 246.734762 
L 126.367086 248.030309 
L 132.27639 248.694536 
L 139.419504 249.266296 
L 148.28346 249.743386 
L 159.744911 250.126183 
L 175.557169 250.416649 
L 199.551539 250.616071 
L 243.384286 250.723027 
L 384.590669 250.751993 
L 398.487273 250.752066 
L 398.487273 250.752066 
" clip-path="url(#p0f3aa14139)" style="fill: none; stroke: #0000ff; stroke-opacity: 0.2; stroke-width: 1.5; stroke-linecap: square"/>
   </g>
   <g id="line2d_32">
    <path d="M 73.832727 151.795198 
L 74.384695 152.281293 
L 74.806788 152.414588 
L 75.975662 151.432192 
L 76.300349 150.616331 
L 76.982191 148.146778 
L 77.793909 144.342798 
L 78.735501 139.569033 
L 79.319938 137.55337 
L 80.716092 132.203264 
L 80.910904 132.045934 
L 81.170654 132.31078 
L 82.339527 133.344008 
L 83.346057 133.489367 
L 83.898025 133.272276 
L 84.77468 132.77621 
L 85.034429 132.48734 
L 85.618866 131.439994 
L 87.631925 127.179003 
L 89.02808 125.170244 
L 90.099547 124.206286 
L 91.00867 123.774814 
L 94.190603 123.055386 
L 96.463412 122.827818 
L 98.476472 122.939545 
L 101.690873 123.153205 
L 107.080678 123.274306 
L 123.120216 123.272985 
L 382.610078 123.269516 
L 398.487273 123.269516 
L 398.487273 123.269516 
" clip-path="url(#p0f3aa14139)" style="fill: none; stroke: #0000ff; stroke-opacity: 0.2; stroke-width: 1.5; stroke-linecap: square"/>
   </g>
   <g id="line2d_33">
    <path d="M 73.832727 97.933046 
L 74.644445 97.637421 
L 74.839257 97.682909 
L 75.293819 98.074419 
L 75.715912 98.54552 
L 76.332817 99.246921 
L 78.151065 101.292239 
L 78.540689 101.347336 
L 78.897845 101.281134 
L 80.196593 100.785962 
L 80.716092 101.101422 
L 81.203122 102.137449 
L 82.144715 104.204814 
L 82.696683 105.699074 
L 84.385055 111.104662 
L 85.294179 113.411806 
L 85.781209 114.208726 
L 86.495521 115.417149 
L 87.404644 116.923694 
L 88.411174 118.136184 
L 89.287829 118.904198 
L 90.067078 119.585816 
L 91.398295 120.45 
L 93.151605 121.526401 
L 93.800979 121.733763 
L 96.788099 122.268088 
L 98.671284 122.686916 
L 101.073968 122.967268 
L 105.814398 123.160769 
L 114.580948 123.24936 
L 147.27693 123.269504 
L 398.487273 123.269516 
L 398.487273 123.269516 
" clip-path="url(#p0f3aa14139)" style="fill: none; stroke: #0000ff; stroke-opacity: 0.2; stroke-width: 1.5; stroke-linecap: square"/>
   </g>
   <g id="line2d_34">
    <path d="M 73.832727 146.473624 
L 74.189883 146.263855 
L 74.579507 146.057421 
L 75.618506 145.720294 
L 76.040599 145.198237 
L 76.592567 144.116441 
L 78.118596 140.538014 
L 78.410814 139.900168 
L 78.735501 139.275315 
L 79.319938 138.822904 
L 80.618686 138.562432 
L 81.073248 138.995864 
L 81.852497 138.597156 
L 82.371996 137.53283 
L 83.5084 134.935945 
L 84.644805 132.159184 
L 85.131835 131.057255 
L 86.105896 129.347392 
L 86.625396 128.836768 
L 88.670924 127.233195 
L 89.482641 126.344265 
L 90.359296 125.79353 
L 91.073608 125.567856 
L 91.658044 125.543413 
L 93.76851 125.519246 
L 94.320478 125.376438 
L 96.950443 124.231115 
L 98.281659 123.997648 
L 104.872806 123.515232 
L 109.872986 123.341264 
L 120.847407 123.275783 
L 212.311739 123.269516 
L 398.487273 123.269516 
L 398.487273 123.269516 
" clip-path="url(#p0f3aa14139)" style="fill: none; stroke: #0000ff; stroke-opacity: 0.2; stroke-width: 1.5; stroke-linecap: square"/>
   </g>
   <g id="line2d_35">
    <path d="M 73.832727 273.962844 
L 75.975662 271.42408 
L 76.657504 270.749852 
L 78.443283 268.851304 
L 78.930313 268.649329 
L 79.612156 268.092436 
L 80.229061 267.433412 
L 81.592747 266.412458 
L 82.144715 265.991082 
L 82.566808 265.512693 
L 85.26171 262.497309 
L 85.748741 261.849932 
L 87.859206 258.938842 
L 89.25536 257.46183 
L 90.196953 256.70713 
L 92.404824 255.822037 
L 93.995791 255.273394 
L 95.327008 254.826006 
L 99.677814 253.637709 
L 101.788279 252.995997 
L 103.736401 252.603573 
L 107.76252 252.146626 
L 113.412074 251.753329 
L 121.561718 251.423646 
L 134.711542 251.133112 
L 155.231762 250.925068 
L 193.934454 250.790765 
L 304.717663 250.753161 
L 398.487273 250.752224 
L 398.487273 250.752224 
" clip-path="url(#p0f3aa14139)" style="fill: none; stroke: #0000ff; stroke-opacity: 0.2; stroke-width: 1.5; stroke-linecap: square"/>
   </g>
   <g id="line2d_36">
    <path d="M 73.832727 231.981198 
L 74.51457 232.817016 
L 75.293819 234.461963 
L 75.878255 236.078516 
L 76.917254 240.018462 
L 77.306878 240.988457 
L 78.02119 242.170517 
L 78.378345 242.428994 
L 78.76797 242.390904 
L 79.742031 242.249633 
L 80.293999 242.414152 
L 82.112246 243.596585 
L 82.859026 243.994932 
L 83.183713 244.138037 
L 84.579867 244.66119 
L 85.26171 244.954643 
L 88.50858 248.056919 
L 90.196953 249.192657 
L 91.00867 249.796814 
L 92.437293 250.493035 
L 96.950443 252.024634 
L 98.76869 252.287825 
L 99.710282 252.258817 
L 102.470122 252.265896 
L 106.788459 252.13041 
L 130.847767 251.147292 
L 147.341867 250.942985 
L 178.641695 250.8122 
L 258.677044 250.756282 
L 398.487273 250.752222 
L 398.487273 250.752222 
" clip-path="url(#p0f3aa14139)" style="fill: none; stroke: #ff0000; stroke-opacity: 0.2; stroke-width: 1.5; stroke-linecap: square"/>
   </g>
   <g id="line2d_37">
    <path d="M 73.832727 56.793056 
L 75.423694 57.982634 
L 76.00813 58.890773 
L 76.689973 60.625774 
L 77.728971 64.854186 
L 80.326468 74.717231 
L 83.02137 83.314979 
L 83.443463 84.486576 
L 83.995431 87.097697 
L 85.651335 95.797326 
L 86.398115 98.683399 
L 87.469582 101.764765 
L 88.183893 103.954535 
L 90.034609 109.623302 
L 91.041139 111.910466 
L 93.411354 116.417186 
L 94.77504 118.420466 
L 95.619226 119.266975 
L 96.625756 119.875906 
L 98.931033 120.938666 
L 101.171374 121.784813 
L 103.379246 122.439321 
L 105.035149 122.725128 
L 107.600177 122.976407 
L 112.178264 123.161401 
L 121.594187 123.251593 
L 158.965662 123.269505 
L 398.487273 123.269516 
L 398.487273 123.269516 
" clip-path="url(#p0f3aa14139)" style="fill: none; stroke: #ff0000; stroke-opacity: 0.2; stroke-width: 1.5; stroke-linecap: square"/>
   </g>
   <g id="line2d_38">
    <path d="M 73.832727 195.506493 
L 74.157414 195.255307 
L 74.936663 194.557047 
L 75.456162 193.573455 
L 75.780849 193.026755 
L 76.00813 192.915394 
L 76.430223 192.773125 
L 76.949723 192.674366 
L 77.534159 192.456861 
L 78.248471 191.876059 
L 78.410814 191.918073 
L 78.638095 191.781463 
L 79.092657 191.340284 
L 79.547219 190.725949 
L 80.423874 189.488996 
L 81.430403 185.96972 
L 82.112246 182.506858 
L 83.443463 175.582471 
L 84.579867 170.344316 
L 86.138365 163.8466 
L 86.690333 162.216422 
L 87.502051 159.478194 
L 89.612516 150.394854 
L 90.586577 144.926192 
L 91.26842 142.285701 
L 92.404824 138.624077 
L 93.736041 135.007536 
L 95.814038 131.062397 
L 97.469942 128.809459 
L 99.353127 126.820312 
L 100.392125 126.253376 
L 104.02862 124.935241 
L 106.431303 124.359468 
L 109.548299 123.918623 
L 113.639355 123.597861 
L 119.386315 123.402413 
L 129.191863 123.295795 
L 160.621566 123.269693 
L 398.487273 123.269516 
L 398.487273 123.269516 
" clip-path="url(#p0f3aa14139)" style="fill: none; stroke: #ff0000; stroke-opacity: 0.2; stroke-width: 1.5; stroke-linecap: square"/>
   </g>
   <g id="line2d_39">
    <path d="M 73.832727 159.904045 
L 74.644445 158.748017 
L 75.293819 158.242435 
L 76.040599 157.847193 
L 77.01466 156.951691 
L 77.696503 156.253143 
L 78.605626 154.672721 
L 79.157594 153.869746 
L 79.612156 152.986909 
L 79.936843 151.900286 
L 81.105716 145.525524 
L 81.820028 141.837877 
L 82.404464 139.586083 
L 83.248651 137.655826 
L 83.865556 136.639121 
L 85.131835 135.023872 
L 85.683803 133.905974 
L 89.287829 126.917046 
L 90.196953 125.763737 
L 91.365826 124.744069 
L 92.632105 123.934456 
L 93.800979 123.444373 
L 95.034789 123.134406 
L 97.047849 123.019471 
L 98.541409 123.094271 
L 101.203843 123.172979 
L 109.126206 123.218716 
L 132.958233 123.268801 
L 398.487273 123.269516 
L 398.487273 123.269516 
" clip-path="url(#p0f3aa14139)" style="fill: none; stroke: #ff0000; stroke-opacity: 0.2; stroke-width: 1.5; stroke-linecap: square"/>
   </g>
   <g id="line2d_40">
    <path d="M 73.832727 171.650168 
L 74.417164 170.321546 
L 75.456162 168.13554 
L 75.780849 167.964825 
L 76.105536 167.844772 
L 76.527629 167.794788 
L 77.826378 167.625809 
L 78.573158 167.195483 
L 79.092657 166.239464 
L 79.936843 164.880855 
L 80.391405 163.389318 
L 81.625216 158.749561 
L 82.566808 155.559233 
L 83.410994 151.644465 
L 83.865556 150.519097 
L 86.300709 145.631751 
L 86.592927 145.459479 
L 87.01502 145.154503 
L 87.729331 144.391256 
L 88.086487 143.671698 
L 88.638455 142.113157 
L 89.450173 139.159935 
L 90.846327 133.966868 
L 91.52817 132.145981 
L 92.404824 130.579199 
L 93.184073 129.606725 
L 94.742571 127.743544 
L 96.073788 126.368419 
L 96.885505 125.803283 
L 98.314128 125.081748 
L 100.651875 124.302613 
L 103.346777 123.717262 
L 105.52218 123.505712 
L 109.840517 123.324438 
L 116.756351 123.270772 
L 183.739282 123.269516 
L 398.487273 123.269516 
L 398.487273 123.269516 
" clip-path="url(#p0f3aa14139)" style="fill: none; stroke: #ff0000; stroke-opacity: 0.2; stroke-width: 1.5; stroke-linecap: square"/>
   </g>
   <g id="line2d_41">
    <path d="M 73.832727 254.033673 
L 74.449633 254.734528 
L 75.715912 255.725679 
L 76.26788 255.672856 
L 76.884785 255.759065 
L 79.125126 256.466474 
L 79.612156 256.801606 
L 80.618686 257.373846 
L 81.430403 257.46562 
L 82.144715 257.240519 
L 83.02137 256.872991 
L 84.449993 255.44531 
L 84.839617 254.971677 
L 85.846147 253.640706 
L 87.112426 252.281774 
L 88.411174 251.183374 
L 91.073608 250.275563 
L 91.75545 250.244297 
L 92.372356 250.347226 
L 94.093197 250.717884 
L 99.645345 251.759288 
L 107.372896 251.90676 
L 137.633726 251.036172 
L 158.738381 250.869405 
L 204.324438 250.776136 
L 373.129217 250.75227 
L 398.487273 250.752221 
L 398.487273 250.752221 
" clip-path="url(#p0f3aa14139)" style="fill: none; stroke: #ff0000; stroke-opacity: 0.2; stroke-width: 1.5; stroke-linecap: square"/>
   </g>
   <g id="line2d_42">
    <path d="M 73.832727 262.018495 
L 75.26135 260.749641 
L 75.943193 260.409533 
L 76.689973 260.199516 
L 77.793909 259.976188 
L 78.962782 260.18994 
L 79.547219 260.160713 
L 81.26806 260.221506 
L 82.079777 260.112234 
L 83.378525 259.690831 
L 85.456522 259.025995 
L 87.729331 258.63692 
L 89.157954 257.906253 
L 91.463232 256.229127 
L 92.534699 255.556401 
L 94.25554 254.385267 
L 95.781569 253.785273 
L 96.75563 253.334388 
L 98.281659 252.542745 
L 99.937563 251.95262 
L 102.01556 251.46114 
L 104.320838 251.154729 
L 106.723522 251.031509 
L 119.711002 250.915377 
L 209.0324 250.764145 
L 398.487273 250.752219 
L 398.487273 250.752219 
" clip-path="url(#p0f3aa14139)" style="fill: none; stroke: #ff0000; stroke-opacity: 0.2; stroke-width: 1.5; stroke-linecap: square"/>
   </g>
   <g id="line2d_43">
    <path d="M 73.832727 178.211978 
L 74.287289 177.896315 
L 75.163944 176.511595 
L 76.462692 174.16485 
L 77.209472 172.857122 
L 77.923784 171.162765 
L 78.50822 170.524101 
L 78.735501 170.517314 
L 79.157594 170.450746 
L 79.417344 170.489107 
L 79.579687 170.417301 
L 80.034249 169.948307 
L 81.365466 167.837261 
L 82.27459 164.395843 
L 83.151245 159.383072 
L 84.872086 145.984107 
L 85.424054 142.941267 
L 86.203303 140.202972 
L 86.625396 139.387114 
L 87.177364 138.6758 
L 88.573518 136.803293 
L 89.25536 135.592609 
L 91.52817 131.545787 
L 92.437293 130.024206 
L 94.352947 126.848063 
L 95.197133 125.914176 
L 96.106256 125.288452 
L 97.372536 124.775008 
L 101.366186 123.77866 
L 103.541589 123.505693 
L 106.691053 123.358133 
L 114.678354 123.275146 
L 180.654755 123.269516 
L 398.487273 123.269516 
L 398.487273 123.269516 
" clip-path="url(#p0f3aa14139)" style="fill: none; stroke: #ff0000; stroke-opacity: 0.2; stroke-width: 1.5; stroke-linecap: square"/>
   </g>
   <g id="line2d_44">
    <path d="M 73.832727 55.928989 
L 76.982191 62.475873 
L 78.151065 65.846641 
L 78.995251 69.161892 
L 79.742031 73.279627 
L 80.423874 77.415659 
L 81.170654 80.812311 
L 81.949903 83.42314 
L 82.501871 84.805768 
L 83.378525 86.955829 
L 84.157774 90.419866 
L 85.164304 94.817463 
L 86.463052 99.087518 
L 87.664394 102.802323 
L 91.171014 112.752414 
L 91.820388 113.752276 
L 95.327008 118.723312 
L 96.398475 120.101564 
L 97.372536 121.017074 
L 98.249191 121.55866 
L 99.158314 121.905663 
L 100.944093 122.263619 
L 106.26896 122.935801 
L 110.717172 123.159478 
L 117.568068 123.253821 
L 146.952243 123.269496 
L 398.487273 123.269516 
L 398.487273 123.269516 
" clip-path="url(#p0f3aa14139)" style="fill: none; stroke: #ff0000; stroke-opacity: 0.2; stroke-width: 1.5; stroke-linecap: square"/>
   </g>
   <g id="line2d_45">
    <path d="M 73.832727 204.957175 
L 74.287289 204.642758 
L 76.787379 204.366644 
L 77.436753 203.855409 
L 77.76144 203.838039 
L 78.02119 204.19525 
L 79.677094 209.110105 
L 80.293999 210.207758 
L 80.683623 210.776748 
L 81.657684 214.35805 
L 83.183713 222.280329 
L 84.807148 229.864637 
L 85.586397 232.481166 
L 86.463052 234.447023 
L 87.079957 235.458032 
L 87.729331 236.044125 
L 88.605986 236.259407 
L 90.132015 236.171524 
L 92.307418 236.022846 
L 93.476292 236.686128 
L 94.807508 237.816338 
L 95.846507 238.841832 
L 96.658224 239.530294 
L 97.502411 240.16709 
L 98.931033 240.771942 
L 102.76234 242.168821 
L 104.742931 242.543982 
L 107.600177 242.957268 
L 110.489891 243.448262 
L 119.77594 244.955067 
L 129.159394 246.239206 
L 138.380506 247.276433 
L 148.056179 248.138605 
L 158.705913 248.85947 
L 170.849207 249.452385 
L 185.395185 249.931107 
L 203.447783 250.29217 
L 227.896715 250.54402 
L 266.242252 250.692496 
L 352.154436 250.748599 
L 398.487273 250.751419 
L 398.487273 250.751419 
" clip-path="url(#p0f3aa14139)" style="fill: none; stroke: #ff0000; stroke-opacity: 0.2; stroke-width: 1.5; stroke-linecap: square"/>
   </g>
   <g id="line2d_46">
    <path d="M 73.832727 124.965164 
L 74.189883 125.102186 
L 75.131475 125.248082 
L 75.423694 125.050549 
L 76.202942 124.35736 
L 76.819848 123.55115 
L 77.339347 122.795474 
L 78.540689 121.187816 
L 79.157594 119.94409 
L 79.547219 119.225844 
L 79.806968 119.167406 
L 80.164124 119.31169 
L 81.203122 119.979437 
L 81.75509 120.752832 
L 82.307058 121.748755 
L 82.826558 122.57414 
L 83.833087 123.831246 
L 84.51493 124.165809 
L 86.203303 124.88905 
L 87.079957 124.949934 
L 87.566988 124.720807 
L 88.346237 124.077866 
L 88.833267 123.776572 
L 90.26189 123.46281 
L 91.463232 123.587921 
L 93.346417 123.950585 
L 94.645165 123.922077 
L 97.01538 123.745338 
L 100.586937 123.394423 
L 104.061088 123.267052 
L 112.957512 123.246503 
L 173.122016 123.269518 
L 398.487273 123.269516 
L 398.487273 123.269516 
" clip-path="url(#p0f3aa14139)" style="fill: none; stroke: #ff0000; stroke-opacity: 0.2; stroke-width: 1.5; stroke-linecap: square"/>
   </g>
   <g id="line2d_47">
    <path d="M 73.832727 259.469961 
L 75.131475 257.70769 
L 75.553568 257.388071 
L 75.780849 257.386349 
L 76.040599 257.55991 
L 77.469222 258.483894 
L 78.086127 258.267401 
L 79.742031 257.302124 
L 80.716092 255.926797 
L 81.495341 254.900222 
L 82.079777 254.440994 
L 84.709742 252.199361 
L 86.398115 250.551627 
L 87.826738 249.543158 
L 88.638455 249.335026 
L 92.599637 250.857479 
L 94.872446 251.561984 
L 97.534879 251.876439 
L 100.067438 251.358488 
L 102.599997 251.080625 
L 106.853397 250.984623 
L 115.392665 250.989774 
L 164.647685 250.796728 
L 280.560949 250.753181 
L 398.487273 250.752207 
L 398.487273 250.752207 
" clip-path="url(#p0f3aa14139)" style="fill: none; stroke: #ff0000; stroke-opacity: 0.2; stroke-width: 1.5; stroke-linecap: square"/>
   </g>
   <g id="line2d_48">
    <path d="M 73.832727 285.767594 
L 74.417164 285.113447 
L 75.488631 283.349444 
L 80.229061 273.228765 
L 81.592747 271.491315 
L 82.534339 270.427564 
L 83.995431 269.234421 
L 85.164304 268.135424 
L 86.430583 266.377209 
L 90.391765 259.599304 
L 90.846327 259.107927 
L 91.885325 258.232642 
L 95.002321 256.215652 
L 96.658224 255.577313 
L 99.190783 254.570906 
L 100.944093 253.781401 
L 107.924864 252.520586 
L 112.600357 252.038518 
L 118.672004 251.645484 
L 127.503491 251.316177 
L 140.880596 251.060556 
L 163.186594 250.881551 
L 209.389556 250.774066 
L 362.80417 250.752312 
L 398.487273 250.752222 
L 398.487273 250.752222 
" clip-path="url(#p0f3aa14139)" style="fill: none; stroke: #ff0000; stroke-opacity: 0.2; stroke-width: 1.5; stroke-linecap: square"/>
   </g>
   <g id="line2d_49">
    <path d="M 73.832727 264.039494 
L 74.77432 264.206306 
L 75.683443 264.626887 
L 76.105536 264.625993 
L 77.891315 264.328391 
L 79.7745 262.149946 
L 80.813498 261.014985 
L 81.203122 260.445011 
L 82.144715 258.956972 
L 84.644805 256.154976 
L 86.852677 254.322232 
L 88.800799 253.892943 
L 91.820388 253.201644 
L 92.826918 252.745052 
L 93.50876 252.507999 
L 96.625756 252.338642 
L 99.320658 252.479672 
L 103.087027 252.08232 
L 104.093557 252.034893 
L 108.02227 251.881991 
L 111.399015 251.471801 
L 115.814758 251.168994 
L 122.535779 250.957518 
L 134.484262 250.830785 
L 168.089367 250.774424 
L 392.155876 250.752207 
L 398.487273 250.752203 
L 398.487273 250.752203 
" clip-path="url(#p0f3aa14139)" style="fill: none; stroke: #ff0000; stroke-opacity: 0.2; stroke-width: 1.5; stroke-linecap: square"/>
   </g>
   <g id="line2d_50">
    <path d="M 73.832727 263.055926 
L 75.813318 262.582642 
L 76.592567 262.0304 
L 77.27441 261.852525 
L 78.151065 261.463059 
L 78.443283 261.129252 
L 78.995251 260.226848 
L 80.910904 256.625807 
L 81.690153 255.696975 
L 82.631745 254.991141 
L 83.443463 254.526469 
L 84.385055 253.898927 
L 85.034429 253.533217 
L 86.300709 252.978369 
L 87.372176 252.86496 
L 89.02808 252.800886 
L 91.820388 252.690406 
L 93.151605 252.694069 
L 95.619226 252.512984 
L 99.612876 252.373415 
L 101.950623 252.285589 
L 107.535239 252.034517 
L 132.860826 250.823786 
L 144.51709 250.728297 
L 179.843037 250.741789 
L 398.487273 250.752195 
L 398.487273 250.752195 
" clip-path="url(#p0f3aa14139)" style="fill: none; stroke: #ff0000; stroke-opacity: 0.2; stroke-width: 1.5; stroke-linecap: square"/>
   </g>
   <g id="line2d_51">
    <path d="M 73.832727 232.541253 
L 74.027539 232.581137 
L 74.741851 233.063117 
L 75.975662 234.669471 
L 77.112066 239.131165 
L 78.053658 242.246154 
L 78.703032 243.292995 
L 79.255 243.798444 
L 79.579687 243.872112 
L 80.229061 243.783226 
L 81.592747 243.008868 
L 82.079777 242.914399 
L 83.053838 243.599306 
L 84.547399 245.341008 
L 85.911084 246.574815 
L 87.047489 247.575005 
L 87.891675 248.114046 
L 89.904734 248.957892 
L 91.203483 249.840478 
L 92.112606 250.218156 
L 92.826918 250.287221 
L 94.25554 250.254116 
L 104.223432 251.197056 
L 114.613416 250.985247 
L 134.744011 250.822726 
L 180.135256 250.768442 
L 398.487273 250.752204 
L 398.487273 250.752204 
" clip-path="url(#p0f3aa14139)" style="fill: none; stroke: #ff0000; stroke-opacity: 0.2; stroke-width: 1.5; stroke-linecap: square"/>
   </g>
   <g id="line2d_52">
    <path d="M 73.832727 169.284576 
L 74.287289 168.692812 
L 75.391225 167.644835 
L 75.780849 167.00078 
L 76.235411 166.164636 
L 77.112066 164.609004 
L 78.086127 163.106367 
L 78.800439 162.271409 
L 79.449813 161.005689 
L 80.910904 157.530103 
L 82.209652 155.355699 
L 82.988901 153.031414 
L 83.573338 151.55994 
L 84.060368 150.890175 
L 84.969492 149.760316 
L 86.982551 143.379364 
L 90.002141 132.300453 
L 90.651515 130.660126 
L 91.52817 129.140685 
L 92.502231 127.97197 
L 93.703573 126.841624 
L 95.586757 125.627838 
L 97.307598 124.815143 
L 98.606346 124.413545 
L 101.333717 123.877147 
L 105.489711 123.47025 
L 108.866456 123.330909 
L 116.821288 123.272289 
L 206.434904 123.269516 
L 398.487273 123.269516 
L 398.487273 123.269516 
" clip-path="url(#p0f3aa14139)" style="fill: none; stroke: #ff0000; stroke-opacity: 0.2; stroke-width: 1.5; stroke-linecap: square"/>
   </g>
   <g id="line2d_53">
    <path d="M 73.832727 110.161273 
L 74.384695 109.877475 
L 74.969132 109.884272 
L 75.358756 109.914011 
L 75.813318 109.898963 
L 76.073068 110.087072 
L 76.462692 110.424087 
L 77.339347 111.123301 
L 77.988721 111.719177 
L 78.248471 112.07072 
L 78.735501 113.285557 
L 79.839437 115.499235 
L 81.365466 117.688677 
L 81.625216 117.823423 
L 82.209652 118.113447 
L 82.859026 119.153664 
L 83.930493 120.334387 
L 85.131835 122.033985 
L 85.846147 122.918815 
L 86.722802 123.564264 
L 88.476112 124.485831 
L 90.196953 124.244072 
L 91.495701 123.617824 
L 94.125666 123.061027 
L 96.463412 122.852471 
L 98.638815 122.906482 
L 103.281839 123.105201 
L 112.113326 123.243355 
L 140.653315 123.269231 
L 398.487273 123.269516 
L 398.487273 123.269516 
" clip-path="url(#p0f3aa14139)" style="fill: none; stroke: #ff0000; stroke-opacity: 0.2; stroke-width: 1.5; stroke-linecap: square"/>
   </g>
   <g id="line2d_54">
    <path d="M 73.832727 83.389525 
L 75.163944 86.885073 
L 76.26788 89.40287 
L 77.177004 91.846218 
L 82.371996 105.129363 
L 83.281119 107.380877 
L 83.995431 108.775312 
L 88.930673 115.697052 
L 89.644985 116.501887 
L 90.326828 116.946463 
L 92.437293 118.101292 
L 95.294539 120.669777 
L 96.2686 121.397247 
L 97.437473 122.012033 
L 98.736221 122.483125 
L 100.457062 122.840783 
L 102.502591 123.057321 
L 106.820928 123.219561 
L 115.652415 123.273485 
L 346.862037 123.269516 
L 398.487273 123.269516 
L 398.487273 123.269516 
" clip-path="url(#p0f3aa14139)" style="fill: none; stroke: #ff0000; stroke-opacity: 0.2; stroke-width: 1.5; stroke-linecap: square"/>
   </g>
   <g id="line2d_55">
    <path d="M 73.832727 144.117422 
L 75.26135 142.689373 
L 75.423694 142.497114 
L 76.397755 140.904064 
L 77.371816 138.965324 
L 78.086127 136.634553 
L 78.605626 134.241898 
L 79.547219 128.988415 
L 80.553748 125.125797 
L 81.397935 122.906794 
L 81.657684 122.589461 
L 82.404464 122.581045 
L 82.988901 122.838457 
L 83.216182 123.089481 
L 84.872086 125.23268 
L 85.878615 125.806689 
L 86.657864 125.900962 
L 88.281299 125.459044 
L 92.0152 123.50866 
L 93.573698 123.079827 
L 95.132195 122.935147 
L 97.307598 122.920754 
L 102.210372 123.183333 
L 107.76252 123.201996 
L 125.165744 123.267562 
L 398.487273 123.269516 
L 398.487273 123.269516 
" clip-path="url(#p0f3aa14139)" style="fill: none; stroke: #ff0000; stroke-opacity: 0.2; stroke-width: 1.5; stroke-linecap: square"/>
   </g>
   <g id="line2d_56">
    <path d="M 73.832727 90.323703 
L 74.189883 91.107122 
L 74.839257 92.68344 
L 76.040599 95.08975 
L 76.819848 96.369559 
L 78.183533 97.254886 
L 78.703032 97.406429 
L 79.222532 97.451074 
L 79.579687 97.498412 
L 80.52128 97.871633 
L 81.462872 98.69929 
L 81.690153 99.378877 
L 82.891495 103.37134 
L 86.52799 112.648324 
L 88.118956 115.731847 
L 89.320298 117.619959 
L 90.586577 118.709936 
L 91.690513 119.405548 
L 93.281479 120.174799 
L 94.937383 121.148791 
L 98.281659 122.454588 
L 100.197313 122.846892 
L 102.794809 123.105133 
L 106.00921 123.177607 
L 144.03006 123.269248 
L 398.487273 123.269516 
L 398.487273 123.269516 
" clip-path="url(#p0f3aa14139)" style="fill: none; stroke: #ff0000; stroke-opacity: 0.2; stroke-width: 1.5; stroke-linecap: square"/>
   </g>
   <g id="line2d_57">
    <path d="M 73.832727 153.974795 
L 74.449633 154.40311 
L 74.611976 154.384335 
L 75.553568 154.025268 
L 76.040599 153.926892 
L 76.332817 154.111135 
L 77.112066 155.016236 
L 78.670564 156.770067 
L 78.865376 156.811252 
L 79.125126 156.719795 
L 80.618686 154.938763 
L 82.112246 152.62851 
L 83.410994 146.686404 
L 85.066898 137.544872 
L 85.813678 135.129267 
L 87.144895 132.656221 
L 87.859206 131.2742 
L 88.638455 130.002945 
L 89.222892 129.405632 
L 89.969672 128.923838 
L 90.424234 128.779608 
L 91.852857 128.297219 
L 92.729511 127.940027 
L 95.034789 127.159184 
L 97.242661 125.543568 
L 98.411534 124.839541 
L 99.742751 124.360785 
L 101.560998 123.965954 
L 105.002681 123.548184 
L 108.379426 123.393993 
L 116.594007 123.283545 
L 147.536679 123.269456 
L 398.487273 123.269516 
L 398.487273 123.269516 
" clip-path="url(#p0f3aa14139)" style="fill: none; stroke: #ff0000; stroke-opacity: 0.2; stroke-width: 1.5; stroke-linecap: square"/>
   </g>
   <g id="line2d_58">
    <path d="M 73.832727 130.005974 
L 74.25482 129.868264 
L 74.806788 129.429528 
L 75.391225 129.400727 
L 76.787379 130.23709 
L 77.339347 130.851354 
L 78.378345 132.015701 
L 78.410814 131.975427 
L 78.930313 131.878547 
L 79.092657 131.755453 
L 79.384875 131.208922 
L 79.969312 129.568295 
L 81.105716 126.141509 
L 81.625216 125.396904 
L 82.144715 125.21827 
L 82.307058 125.288839 
L 83.800619 126.956592 
L 85.424054 127.304295 
L 86.690333 127.626621 
L 87.502051 127.90674 
L 89.093017 128.037002 
L 89.709922 127.748137 
L 90.943733 126.848196 
L 92.891855 125.454556 
L 94.645165 124.496339 
L 95.911444 124.07638 
L 97.405005 123.811675 
L 104.807868 123.414097 
L 114.126386 123.28729 
L 143.28328 123.269548 
L 398.487273 123.269516 
L 398.487273 123.269516 
" clip-path="url(#p0f3aa14139)" style="fill: none; stroke: #ff0000; stroke-opacity: 0.2; stroke-width: 1.5; stroke-linecap: square"/>
   </g>
   <g id="line2d_59">
    <path d="M 73.832727 169.166934 
L 74.027539 169.051164 
L 74.482101 168.635401 
L 74.871726 168.167562 
L 75.845787 166.529092 
L 76.852317 165.442543 
L 77.177004 165.472416 
L 77.501691 165.470316 
L 79.092657 165.071297 
L 79.51475 164.827237 
L 80.553748 163.952411 
L 81.52781 162.556438 
L 82.079777 161.345904 
L 82.534339 159.916851 
L 82.859026 158.486423 
L 83.313588 155.596889 
L 84.222712 149.483431 
L 85.001961 145.457723 
L 85.52146 143.832455 
L 85.911084 143.017686 
L 87.27477 140.448339 
L 88.248831 137.579395 
L 89.969672 131.881793 
L 90.846327 129.714353 
L 91.52817 128.647992 
L 92.989261 126.72661 
L 94.25554 125.553374 
L 95.424414 124.871342 
L 96.885505 124.303765 
L 98.671284 123.921528 
L 101.496061 123.627238 
L 106.431303 123.380488 
L 118.087567 123.289013 
L 159.387756 123.269527 
L 398.487273 123.269516 
L 398.487273 123.269516 
" clip-path="url(#p0f3aa14139)" style="fill: none; stroke: #ff0000; stroke-opacity: 0.2; stroke-width: 1.5; stroke-linecap: square"/>
   </g>
   <g id="line2d_60">
    <path d="M 73.832727 81.16827 
L 74.611976 83.143083 
L 75.748381 85.799527 
L 76.949723 88.951627 
L 78.313408 92.43231 
L 79.060188 94.300326 
L 79.806968 96.19987 
L 80.358936 96.898132 
L 80.748561 97.119935 
L 81.170654 97.550582 
L 81.560278 98.527923 
L 82.112246 100.099854 
L 83.930493 105.885139 
L 85.26171 109.323414 
L 86.105896 111.240238 
L 86.722802 112.12467 
L 87.989081 113.615025 
L 88.995611 114.427412 
L 90.164484 115.068802 
L 90.943733 115.369813 
L 92.372356 116.082007 
L 93.054199 116.656374 
L 95.716632 119.720503 
L 97.859566 121.361098 
L 98.898565 121.918769 
L 100.132375 122.326976 
L 102.080498 122.731335 
L 104.677994 123.013587 
L 108.574238 123.190954 
L 116.26932 123.26002 
L 178.868976 123.269516 
L 398.487273 123.269516 
L 398.487273 123.269516 
" clip-path="url(#p0f3aa14139)" style="fill: none; stroke: #ff0000; stroke-opacity: 0.2; stroke-width: 1.5; stroke-linecap: square"/>
   </g>
   <g id="line2d_61">
    <path d="M 73.832727 290.374263 
L 74.51457 288.534809 
L 80.781029 274.865613 
L 81.52781 273.3009 
L 82.696683 271.042578 
L 84.612336 266.906189 
L 85.456522 265.024013 
L 87.307238 261.654297 
L 89.060548 259.136961 
L 90.489171 257.476428 
L 91.560638 256.943225 
L 99.872626 252.158491 
L 101.788279 251.493234 
L 104.061088 251.038701 
L 118.801879 250.376011 
L 133.412794 250.449945 
L 168.901085 250.65224 
L 233.578738 250.73762 
L 398.487273 250.752072 
L 398.487273 250.752072 
" clip-path="url(#p0f3aa14139)" style="fill: none; stroke: #ff0000; stroke-opacity: 0.2; stroke-width: 1.5; stroke-linecap: square"/>
   </g>
   <g id="line2d_62">
    <path d="M 73.832727 107.675441 
L 75.163944 108.232482 
L 76.235411 106.695096 
L 76.852317 105.917144 
L 77.112066 105.788313 
L 78.313408 105.247755 
L 79.190063 104.60907 
L 79.612156 104.760196 
L 79.839437 104.947762 
L 80.034249 105.464476 
L 81.040779 108.520079 
L 81.917434 111.096496 
L 83.183713 115.150115 
L 84.060368 118.263633 
L 84.839617 120.118614 
L 85.651335 121.294062 
L 86.625396 122.364341 
L 87.7618 123.314361 
L 88.346237 123.467291 
L 89.093017 123.610015 
L 90.424234 123.800383 
L 92.210012 123.58475 
L 93.573698 123.473865 
L 96.301069 123.100729 
L 98.119316 123.21747 
L 100.164844 123.295448 
L 104.093557 123.218188 
L 121.204563 123.261676 
L 214.714423 123.269516 
L 398.487273 123.269516 
L 398.487273 123.269516 
" clip-path="url(#p0f3aa14139)" style="fill: none; stroke: #ff0000; stroke-opacity: 0.2; stroke-width: 1.5; stroke-linecap: square"/>
   </g>
   <g id="line2d_63">
    <path d="M 73.832727 267.151429 
L 75.845787 264.789274 
L 76.560098 264.649756 
L 77.371816 264.635267 
L 77.728971 264.553047 
L 78.280939 264.285354 
L 79.222532 263.721654 
L 80.423874 263.152436 
L 80.813498 262.814307 
L 81.690153 261.501542 
L 83.605806 258.580236 
L 84.937023 256.403584 
L 85.748741 255.288461 
L 86.300709 254.770054 
L 87.534519 254.117336 
L 90.002141 253.718204 
L 92.339887 253.947567 
L 94.190603 253.673149 
L 97.437473 252.565652 
L 99.093377 251.955019 
L 100.781749 251.805869 
L 102.080498 251.605398 
L 103.476652 251.44922 
L 112.340607 251.078616 
L 123.055279 250.92126 
L 146.465212 250.814306 
L 227.247341 250.757193 
L 398.487273 250.752206 
L 398.487273 250.752206 
" clip-path="url(#p0f3aa14139)" style="fill: none; stroke: #ff0000; stroke-opacity: 0.2; stroke-width: 1.5; stroke-linecap: square"/>
   </g>
   <g id="line2d_64">
    <path d="M 73.832727 288.766531 
L 74.77432 285.736942 
L 76.884785 280.091575 
L 77.76144 278.367525 
L 80.651155 272.992597 
L 81.073248 272.021578 
L 82.047309 270.373704 
L 83.443463 267.963199 
L 83.962962 266.566209 
L 85.066898 263.678377 
L 85.553928 262.806507 
L 86.040959 262.283266 
L 87.177364 261.184457 
L 88.02155 260.613601 
L 90.099547 259.404847 
L 91.398295 258.363487 
L 92.210012 257.948702 
L 94.547759 256.892689 
L 99.450533 254.27561 
L 101.236311 253.615005 
L 103.931213 252.866205 
L 106.204023 252.467032 
L 111.139265 251.982421 
L 118.931754 251.509558 
L 127.633366 251.259273 
L 144.322278 251.026847 
L 175.26495 250.84377 
L 233.481332 250.764362 
L 398.487273 250.752232 
L 398.487273 250.752232 
" clip-path="url(#p0f3aa14139)" style="fill: none; stroke: #ff0000; stroke-opacity: 0.2; stroke-width: 1.5; stroke-linecap: square"/>
   </g>
   <g id="line2d_65">
    <path d="M 73.832727 288.692505 
L 78.183533 277.479813 
L 78.638095 276.311461 
L 79.547219 274.29579 
L 81.75509 270.773298 
L 84.547399 263.21839 
L 85.52146 260.702803 
L 86.75527 258.560416 
L 87.437113 257.671502 
L 92.729511 255.729112 
L 94.969852 254.471623 
L 99.77522 252.377425 
L 101.788279 251.844875 
L 103.346777 251.622691 
L 133.380326 251.115163 
L 161.563158 250.889674 
L 208.512901 250.775148 
L 378.194334 250.752281 
L 398.487273 250.752232 
L 398.487273 250.752232 
" clip-path="url(#p0f3aa14139)" style="fill: none; stroke: #ff0000; stroke-opacity: 0.2; stroke-width: 1.5; stroke-linecap: square"/>
   </g>
   <g id="line2d_66">
    <path d="M 73.832727 290.44805 
L 75.488631 284.486539 
L 75.975662 283.497015 
L 76.917254 281.54501 
L 77.76144 279.623889 
L 78.76797 277.59869 
L 79.579687 276.305006 
L 80.618686 274.97687 
L 81.820028 273.650702 
L 82.923964 272.086379 
L 84.709742 269.223961 
L 85.391585 267.615731 
L 86.560458 264.374081 
L 87.437113 262.515341 
L 87.859206 261.947084 
L 88.573518 261.252983 
L 89.969672 260.088887 
L 91.560638 258.537169 
L 92.372356 258.01371 
L 94.190603 256.983307 
L 95.651695 255.812759 
L 99.580407 253.178234 
L 101.26878 252.464828 
L 103.087027 251.945369 
L 104.385775 251.76289 
L 105.619586 251.601305 
L 107.372896 251.445116 
L 115.100447 251.337222 
L 136.464852 251.023619 
L 165.459403 250.847932 
L 222.831598 250.765554 
L 398.487273 250.752219 
L 398.487273 250.752219 
" clip-path="url(#p0f3aa14139)" style="fill: none; stroke: #ff0000; stroke-opacity: 0.2; stroke-width: 1.5; stroke-linecap: square"/>
   </g>
   <g id="line2d_67">
    <path d="M 73.832727 174.463696 
L 74.25482 174.414798 
L 74.839257 174.182834 
L 76.430223 172.755615 
L 76.722442 172.337076 
L 78.053658 171.695122 
L 78.378345 171.315632 
L 79.352407 169.31364 
L 80.164124 167.222222 
L 81.073248 163.87556 
L 82.729151 159.250432 
L 83.573338 156.343751 
L 84.190243 154.205284 
L 84.579867 152.788857 
L 85.813678 146.56601 
L 88.183893 134.839216 
L 88.963142 131.891032 
L 89.644985 130.114945 
L 90.391765 128.816613 
L 90.976202 128.231552 
L 91.820388 127.665741 
L 93.833447 126.69161 
L 95.132195 126.381588 
L 97.080317 125.823596 
L 100.911624 124.366149 
L 103.249371 123.899838 
L 106.041679 123.597481 
L 110.067798 123.394946 
L 117.340787 123.291764 
L 142.568968 123.269516 
L 398.487273 123.269516 
L 398.487273 123.269516 
" clip-path="url(#p0f3aa14139)" style="fill: none; stroke: #ff0000; stroke-opacity: 0.2; stroke-width: 1.5; stroke-linecap: square"/>
   </g>
   <g id="line2d_68">
    <path d="M 73.832727 202.206532 
L 74.904194 201.793397 
L 75.975662 201.073602 
L 76.689973 201.01165 
L 78.248471 202.32665 
L 78.800439 203.655377 
L 79.547219 205.565845 
L 80.164124 206.75387 
L 80.716092 207.557096 
L 80.943373 207.69733 
L 81.203122 207.897291 
L 81.397935 207.927599 
L 81.917434 207.588777 
L 82.729151 207.034467 
L 83.573338 205.916158 
L 84.190243 204.786629 
L 84.449993 204.714251 
L 84.709742 205.00511 
L 85.131835 206.481117 
L 87.01502 216.034013 
L 87.534519 217.252285 
L 88.411174 218.6099 
L 89.125486 219.083384 
L 90.911264 219.89714 
L 91.463232 221.132932 
L 92.567168 224.664309 
L 95.034789 234.090855 
L 96.366006 237.009619 
L 98.444003 241.037437 
L 100.164844 243.668495 
L 101.236311 244.885028 
L 102.924684 246.218426 
L 105.911804 247.96128 
L 108.639175 249.154643 
L 111.041859 249.808871 
L 113.76923 250.277692 
L 117.178444 250.628432 
L 121.788999 250.865352 
L 128.834707 250.983049 
L 143.478092 250.953587 
L 197.928104 250.786601 
L 319.523391 250.752924 
L 398.487273 250.752222 
L 398.487273 250.752222 
" clip-path="url(#p0f3aa14139)" style="fill: none; stroke: #ff0000; stroke-opacity: 0.2; stroke-width: 1.5; stroke-linecap: square"/>
   </g>
   <g id="line2d_69">
    <path d="M 73.832727 53.568 
L 74.611976 54.225812 
L 76.26788 55.275591 
L 76.722442 55.774636 
L 77.534159 57.614621 
L 78.50822 60.244587 
L 78.897845 62.06438 
L 81.170654 75.384444 
L 82.144715 78.082205 
L 83.313588 80.596473 
L 84.0279 82.352937 
L 84.320118 83.664719 
L 84.904554 87.397622 
L 85.878615 93.519116 
L 86.657864 97.289216 
L 87.047489 98.36648 
L 88.02155 101.301805 
L 89.51511 106.047915 
L 91.333357 110.288758 
L 92.697043 112.941793 
L 93.963322 115.552256 
L 95.164664 117.544415 
L 96.463412 119.360494 
L 97.469942 120.385216 
L 98.50894 121.063839 
L 99.450533 121.419944 
L 101.171374 121.794558 
L 107.145615 122.943141 
L 109.937923 123.113935 
L 115.977102 123.240043 
L 132.01664 123.268962 
L 398.487273 123.269516 
L 398.487273 123.269516 
" clip-path="url(#p0f3aa14139)" style="fill: none; stroke: #ff0000; stroke-opacity: 0.2; stroke-width: 1.5; stroke-linecap: square"/>
   </g>
   <g id="line2d_70">
    <path d="M 73.832727 276.300716 
L 74.709382 275.781536 
L 75.618506 275.312134 
L 76.105536 274.882107 
L 77.469222 273.027263 
L 81.300529 266.261994 
L 82.794089 264.221277 
L 83.313588 263.529868 
L 86.398115 257.565595 
L 87.307238 256.220533 
L 88.248831 255.139563 
L 89.222892 254.369388 
L 90.52164 253.98131 
L 91.852857 253.77858 
L 97.697223 253.416317 
L 99.612876 253.190503 
L 100.781749 253.054596 
L 118.184973 251.644593 
L 131.302329 251.182408 
L 142.991061 250.983239 
L 166.465932 250.841806 
L 223.870597 250.764825 
L 398.487273 250.752222 
L 398.487273 250.752222 
" clip-path="url(#p0f3aa14139)" style="fill: none; stroke: #ff0000; stroke-opacity: 0.2; stroke-width: 1.5; stroke-linecap: square"/>
   </g>
   <g id="line2d_71">
    <path d="M 73.832727 221.606273 
L 74.579507 220.840393 
L 75.26135 220.445572 
L 75.488631 220.516497 
L 75.780849 220.740512 
L 76.332817 221.859749 
L 77.664034 226.274071 
L 78.151065 227.784594 
L 78.573158 228.304258 
L 79.255 229.003263 
L 80.488811 230.260683 
L 80.813498 230.346769 
L 81.397935 230.418625 
L 81.75509 230.98304 
L 82.599277 233.35487 
L 84.969492 240.31703 
L 86.105896 242.751148 
L 87.209832 244.83978 
L 88.476112 246.578083 
L 90.748921 249.198177 
L 91.852857 250.193948 
L 92.989261 250.846523 
L 94.093197 251.263209 
L 95.716632 251.619574 
L 97.502411 251.781421 
L 147.27693 251.01383 
L 180.882036 250.834594 
L 243.351817 250.762255 
L 398.487273 250.752238 
L 398.487273 250.752238 
" clip-path="url(#p0f3aa14139)" style="fill: none; stroke: #ff0000; stroke-opacity: 0.2; stroke-width: 1.5; stroke-linecap: square"/>
   </g>
   <g id="line2d_72">
    <path d="M 73.832727 54.02284 
L 75.391225 58.343036 
L 76.332817 61.747867 
L 77.306878 66.24848 
L 78.540689 71.668419 
L 78.962782 73.089597 
L 80.358936 77.544517 
L 80.845967 78.525556 
L 81.884965 80.880047 
L 83.865556 88.171148 
L 85.813678 101.346652 
L 86.463052 104.347745 
L 87.729331 109.016079 
L 89.320298 113.77885 
L 90.326828 115.963585 
L 91.041139 116.977094 
L 92.27495 118.332968 
L 93.151605 119.145567 
L 95.781569 121.010243 
L 97.080317 121.56441 
L 98.346597 121.935649 
L 100.132375 122.188718 
L 102.307778 122.508368 
L 105.067618 122.917862 
L 112.730232 123.213403 
L 122.990341 123.266585 
L 241.371227 123.269516 
L 398.487273 123.269516 
L 398.487273 123.269516 
" clip-path="url(#p0f3aa14139)" style="fill: none; stroke: #ff0000; stroke-opacity: 0.2; stroke-width: 1.5; stroke-linecap: square"/>
   </g>
   <g id="line2d_73">
    <path d="M 73.832727 203.176827 
L 74.449633 202.635136 
L 75.034069 201.696611 
L 76.040599 200.16534 
L 76.884785 199.476027 
L 77.241941 199.487993 
L 77.501691 199.46036 
L 78.703032 199.556237 
L 79.027719 199.668081 
L 80.229061 199.997669 
L 80.52128 200.331058 
L 81.462872 201.355295 
L 81.657684 201.870809 
L 82.826558 205.449245 
L 83.151245 206.627884 
L 84.449993 211.609344 
L 85.911084 214.620392 
L 86.625396 215.524804 
L 87.112426 215.951986 
L 88.054018 216.47478 
L 89.060548 216.811732 
L 90.456702 217.21628 
L 91.560638 217.454158 
L 92.047669 217.930717 
L 93.995791 220.654694 
L 94.710102 222.262233 
L 97.502411 228.758383 
L 98.606346 232.282654 
L 100.554469 238.895582 
L 101.496061 240.851909 
L 102.729872 242.811991 
L 103.671464 243.827805 
L 105.197493 245.153559 
L 106.561178 246.069554 
L 107.665114 246.577201 
L 110.587297 247.657704 
L 113.574418 248.478726 
L 117.860286 249.389203 
L 122.827998 250.166007 
L 126.821648 250.524305 
L 134.094637 250.783801 
L 144.127466 250.877504 
L 172.829798 250.828373 
L 252.475522 250.757774 
L 398.487273 250.75222 
L 398.487273 250.75222 
" clip-path="url(#p0f3aa14139)" style="fill: none; stroke: #ff0000; stroke-opacity: 0.2; stroke-width: 1.5; stroke-linecap: square"/>
   </g>
   <g id="line2d_74">
    <path d="M 73.832727 82.641604 
L 75.034069 86.139053 
L 76.170474 89.025066 
L 76.852317 91.241086 
L 78.248471 94.66336 
L 78.865376 95.671029 
L 79.092657 95.813461 
L 79.871906 96.185849 
L 80.813498 97.166352 
L 81.430403 98.027032 
L 82.859026 99.79356 
L 83.086307 100.446012 
L 85.26171 108.017907 
L 86.26824 111.252193 
L 87.339707 113.709099 
L 88.151425 115.046714 
L 90.748921 118.795713 
L 91.852857 120.122552 
L 93.054199 121.197565 
L 93.833447 121.644085 
L 94.969852 122.010474 
L 96.398475 122.254678 
L 101.463592 122.794927 
L 106.074148 123.090722 
L 111.918514 123.219524 
L 127.178804 123.267583 
L 398.487273 123.269516 
L 398.487273 123.269516 
" clip-path="url(#p0f3aa14139)" style="fill: none; stroke: #ff0000; stroke-opacity: 0.2; stroke-width: 1.5; stroke-linecap: square"/>
   </g>
   <g id="line2d_75">
    <path d="M 73.832727 161.17779 
L 74.482101 161.995135 
L 75.034069 162.344025 
L 75.26135 162.378285 
L 76.430223 162.000248 
L 77.436753 161.349731 
L 78.897845 160.938497 
L 79.644625 160.390801 
L 80.943373 159.052196 
L 82.696683 156.207232 
L 83.02137 154.504235 
L 84.937023 143.526474 
L 85.716272 139.768706 
L 86.333177 138.289543 
L 88.378706 134.021213 
L 90.132015 130.820878 
L 93.573698 126.094182 
L 94.320478 125.508915 
L 95.099727 125.172855 
L 102.567528 123.574119 
L 105.392305 123.380766 
L 110.847047 123.282268 
L 127.893115 123.268326 
L 398.487273 123.269516 
L 398.487273 123.269516 
" clip-path="url(#p0f3aa14139)" style="fill: none; stroke: #ff0000; stroke-opacity: 0.2; stroke-width: 1.5; stroke-linecap: square"/>
   </g>
   <g id="line2d_76">
    <path d="M 73.832727 65.16824 
L 75.423694 69.142237 
L 76.332817 71.069893 
L 77.534159 74.626035 
L 78.995251 79.351878 
L 79.352407 80.682181 
L 81.332997 88.760744 
L 82.371996 92.608228 
L 82.826558 95.506635 
L 84.092837 103.700204 
L 85.196773 108.556823 
L 86.170834 112.269391 
L 86.852677 114.164121 
L 87.989081 116.533445 
L 88.995611 117.867221 
L 90.164484 118.795291 
L 90.846327 119.062459 
L 92.437293 119.514716 
L 93.703573 120.163163 
L 97.599817 121.876634 
L 99.418064 122.190034 
L 108.963862 123.00591 
L 114.645885 123.172918 
L 126.691773 123.255962 
L 185.265311 123.269517 
L 398.487273 123.269516 
L 398.487273 123.269516 
" clip-path="url(#p0f3aa14139)" style="fill: none; stroke: #ff0000; stroke-opacity: 0.2; stroke-width: 1.5; stroke-linecap: square"/>
   </g>
   <g id="line2d_77">
    <path d="M 73.832727 82.12882 
L 77.631565 88.645367 
L 78.735501 89.621642 
L 80.034249 90.870181 
L 82.177184 94.407432 
L 82.469402 95.758965 
L 84.222712 104.235075 
L 84.904554 106.363052 
L 85.813678 108.733003 
L 86.300709 109.659315 
L 86.950083 110.726803 
L 88.216362 112.829736 
L 90.359296 116.687513 
L 91.560638 118.032792 
L 94.872446 121.100527 
L 95.684163 121.549277 
L 96.853037 121.89027 
L 98.801159 122.12959 
L 106.041679 123.076611 
L 109.256081 123.205086 
L 117.145975 123.264951 
L 185.687404 123.269516 
L 398.487273 123.269516 
L 398.487273 123.269516 
" clip-path="url(#p0f3aa14139)" style="fill: none; stroke: #ff0000; stroke-opacity: 0.2; stroke-width: 1.5; stroke-linecap: square"/>
   </g>
   <g id="line2d_78">
    <path d="M 73.832727 108.649806 
L 73.930133 108.816658 
L 75.26135 111.940707 
L 76.787379 116.495788 
L 79.612156 121.660056 
L 80.423874 123.739727 
L 81.300529 125.078595 
L 82.599277 126.566801 
L 82.988901 126.702837 
L 83.995431 126.562485 
L 84.190243 126.364617 
L 86.138365 123.656669 
L 86.722802 123.194446 
L 87.826738 122.70597 
L 88.378706 122.596416 
L 89.580047 122.614455 
L 90.586577 122.894309 
L 92.080137 123.426114 
L 93.443823 123.703051 
L 94.937383 123.791412 
L 101.366186 123.511801 
L 105.684523 123.426757 
L 115.230322 123.287358 
L 140.718252 123.269657 
L 398.487273 123.269516 
L 398.487273 123.269516 
" clip-path="url(#p0f3aa14139)" style="fill: none; stroke: #ff0000; stroke-opacity: 0.2; stroke-width: 1.5; stroke-linecap: square"/>
   </g>
   <g id="line2d_79">
    <path d="M 73.832727 295.488 
L 75.715912 287.416028 
L 78.151065 278.978931 
L 79.222532 276.412028 
L 80.196593 274.783331 
L 80.813498 274.080833 
L 81.332997 273.412313 
L 82.696683 271.512098 
L 83.540869 269.667115 
L 86.26824 263.349128 
L 87.599457 260.689465 
L 88.703393 258.942062 
L 89.482641 258.015767 
L 90.651515 256.963416 
L 92.080137 256.247374 
L 93.346417 255.466556 
L 100.976562 252.044912 
L 103.151965 251.619497 
L 106.00921 251.302882 
L 110.132735 251.088316 
L 113.834167 251.07961 
L 118.412254 251.175956 
L 128.380146 251.110514 
L 153.77067 250.891677 
L 197.01898 250.784203 
L 327.315879 250.752648 
L 398.487273 250.752223 
L 398.487273 250.752223 
" clip-path="url(#p0f3aa14139)" style="fill: none; stroke: #ff0000; stroke-opacity: 0.2; stroke-width: 1.5; stroke-linecap: square"/>
   </g>
   <g id="line2d_80">
    <path d="M 73.832727 62.824221 
L 74.741851 63.650447 
L 75.163944 64.343846 
L 76.560098 68.217877 
L 79.287469 76.983373 
L 79.871906 79.027192 
L 80.52128 80.280115 
L 81.75509 82.704721 
L 82.599277 85.058019 
L 83.573338 87.811523 
L 84.417524 91.449765 
L 84.904554 93.318749 
L 85.424054 95.094824 
L 86.885145 100.48122 
L 90.164484 111.615321 
L 90.911264 113.449551 
L 91.722982 114.645577 
L 94.25554 118.214221 
L 95.327008 119.199995 
L 96.463412 120.0376 
L 97.567348 120.566183 
L 101.333717 121.85205 
L 103.541589 122.320271 
L 106.723522 122.700905 
L 110.976922 122.996779 
L 118.801879 123.187957 
L 133.964762 123.261224 
L 231.630616 123.269516 
L 398.487273 123.269516 
L 398.487273 123.269516 
" clip-path="url(#p0f3aa14139)" style="fill: none; stroke: #ff0000; stroke-opacity: 0.2; stroke-width: 1.5; stroke-linecap: square"/>
   </g>
   <g id="line2d_81">
    <path d="M 73.832727 173.551509 
L 74.77432 171.715307 
L 75.650975 169.521614 
L 76.202942 168.847588 
L 76.625036 168.715752 
L 77.696503 168.52617 
L 78.280939 168.060357 
L 79.417344 166.363217 
L 80.586217 163.174608 
L 82.112246 155.792136 
L 82.631745 152.389961 
L 84.157774 142.886758 
L 85.391585 135.879169 
L 86.300709 132.14753 
L 87.01502 130.035113 
L 87.566988 128.946327 
L 88.313768 128.003272 
L 89.222892 127.353235 
L 90.294359 126.890141 
L 91.722982 126.669466 
L 93.02173 126.339214 
L 93.671104 125.923868 
L 95.164664 124.967777 
L 96.073788 124.616559 
L 98.119316 124.193858 
L 99.905095 123.964981 
L 112.7627 123.327973 
L 124.483901 123.274236 
L 252.215773 123.269516 
L 398.487273 123.269516 
L 398.487273 123.269516 
" clip-path="url(#p0f3aa14139)" style="fill: none; stroke: #ff0000; stroke-opacity: 0.2; stroke-width: 1.5; stroke-linecap: square"/>
   </g>
   <g id="line2d_82">
    <path d="M 73.832727 251.499606 
L 74.839257 250.548129 
L 76.365286 249.270184 
L 77.664034 249.574823 
L 78.280939 250.167734 
L 82.047309 254.394186 
L 83.183713 254.925155 
L 83.735681 254.976277 
L 85.326648 254.071682 
L 87.079957 253.333409 
L 89.222892 253.841758 
L 90.716452 254.040565 
L 92.469762 254.221867 
L 94.190603 253.964704 
L 97.794629 253.274807 
L 100.327188 252.725377 
L 103.50912 252.273404 
L 108.346957 251.840446 
L 114.645885 251.540369 
L 125.328088 251.290815 
L 147.634086 251.002784 
L 179.420944 250.834071 
L 242.053069 250.761788 
L 398.487273 250.752233 
L 398.487273 250.752233 
" clip-path="url(#p0f3aa14139)" style="fill: none; stroke: #ff0000; stroke-opacity: 0.2; stroke-width: 1.5; stroke-linecap: square"/>
   </g>
   <g id="line2d_83">
    <path d="M 73.832727 84.70075 
L 76.462692 90.805562 
L 77.177004 92.734717 
L 79.027719 97.014728 
L 81.722622 102.265854 
L 82.566808 102.863854 
L 82.923964 103.210072 
L 83.898025 105.38068 
L 85.359116 110.506047 
L 86.170834 112.8581 
L 87.599457 116.044643 
L 88.670924 118.024735 
L 89.352767 118.83536 
L 90.586577 120.002488 
L 92.567168 121.622082 
L 93.541229 122.133721 
L 95.132195 122.33829 
L 101.820748 122.904261 
L 111.626296 123.205972 
L 124.743651 123.264828 
L 252.150835 123.269516 
L 398.487273 123.269516 
L 398.487273 123.269516 
" clip-path="url(#p0f3aa14139)" style="fill: none; stroke: #ff0000; stroke-opacity: 0.2; stroke-width: 1.5; stroke-linecap: square"/>
   </g>
   <g id="line2d_84">
    <path d="M 73.832727 247.410171 
L 76.26788 244.982304 
L 77.112066 244.264818 
L 77.599097 244.245103 
L 78.118596 244.706732 
L 79.51475 246.985275 
L 80.456342 248.764014 
L 81.138185 249.70711 
L 82.144715 250.662565 
L 83.086307 251.292915 
L 83.930493 251.644283 
L 84.839617 251.301411 
L 86.040959 251.004248 
L 86.852677 250.804692 
L 87.794269 250.715559 
L 89.125486 250.895967 
L 91.073608 251.690675 
L 91.982731 252.032093 
L 93.02173 252.224865 
L 97.989441 252.478336 
L 102.859746 252.010597 
L 110.847047 251.552851 
L 120.133095 251.282814 
L 137.698663 251.030163 
L 166.400995 250.851809 
L 222.571848 250.766762 
L 398.487273 250.752223 
L 398.487273 250.752223 
" clip-path="url(#p0f3aa14139)" style="fill: none; stroke: #ff0000; stroke-opacity: 0.2; stroke-width: 1.5; stroke-linecap: square"/>
   </g>
   <g id="line2d_85">
    <path d="M 73.832727 268.779642 
L 75.391225 267.86144 
L 76.917254 266.848087 
L 79.7745 265.75242 
L 81.073248 264.810066 
L 82.664214 263.199273 
L 83.995431 261.29386 
L 84.77468 259.927403 
L 85.196773 259.596248 
L 85.651335 259.370567 
L 87.826738 258.840969 
L 89.125486 258.509108 
L 91.333357 257.003859 
L 93.443823 255.417669 
L 94.872446 254.691136 
L 97.437473 253.998167 
L 100.164844 253.465168 
L 101.301249 253.284589 
L 109.223612 252.334197 
L 114.451073 251.855892 
L 121.204563 251.47612 
L 130.78283 251.1691 
L 145.069058 250.956277 
L 171.173894 250.823393 
L 238.741262 250.75943 
L 398.487273 250.75222 
L 398.487273 250.75222 
" clip-path="url(#p0f3aa14139)" style="fill: none; stroke: #ff0000; stroke-opacity: 0.2; stroke-width: 1.5; stroke-linecap: square"/>
   </g>
   <g id="patch_3">
    <path d="M 57.6 307.584 
L 57.6 41.472 
" style="fill: none; stroke: #000000; stroke-width: 0.8; stroke-linejoin: miter; stroke-linecap: square"/>
   </g>
   <g id="patch_4">
    <path d="M 414.72 307.584 
L 414.72 41.472 
" style="fill: none; stroke: #000000; stroke-width: 0.8; stroke-linejoin: miter; stroke-linecap: square"/>
   </g>
   <g id="patch_5">
    <path d="M 57.6 307.584 
L 414.72 307.584 
" style="fill: none; stroke: #000000; stroke-width: 0.8; stroke-linejoin: miter; stroke-linecap: square"/>
   </g>
   <g id="patch_6">
    <path d="M 57.6 41.472 
L 414.72 41.472 
" style="fill: none; stroke: #000000; stroke-width: 0.8; stroke-linejoin: miter; stroke-linecap: square"/>
   </g>
   <g id="text_18">
    <!-- Opinion over time -->
    <g transform="translate(155.28 35.472) scale(0.16 -0.16)">
     <defs>
      <path id="DejaVuSans-Bold-4f" d="M 2719 3878 
Q 2169 3878 1866 3472 
Q 1563 3066 1563 2328 
Q 1563 1594 1866 1187 
Q 2169 781 2719 781 
Q 3272 781 3575 1187 
Q 3878 1594 3878 2328 
Q 3878 3066 3575 3472 
Q 3272 3878 2719 3878 
z
M 2719 4750 
Q 3844 4750 4481 4106 
Q 5119 3463 5119 2328 
Q 5119 1197 4481 553 
Q 3844 -91 2719 -91 
Q 1597 -91 958 553 
Q 319 1197 319 2328 
Q 319 3463 958 4106 
Q 1597 4750 2719 4750 
z
" transform="scale(0.015625)"/>
      <path id="DejaVuSans-Bold-70" d="M 1656 506 
L 1656 -1331 
L 538 -1331 
L 538 3500 
L 1656 3500 
L 1656 2988 
Q 1888 3294 2169 3439 
Q 2450 3584 2816 3584 
Q 3463 3584 3878 3070 
Q 4294 2556 4294 1747 
Q 4294 938 3878 423 
Q 3463 -91 2816 -91 
Q 2450 -91 2169 54 
Q 1888 200 1656 506 
z
M 2400 2772 
Q 2041 2772 1848 2508 
Q 1656 2244 1656 1747 
Q 1656 1250 1848 986 
Q 2041 722 2400 722 
Q 2759 722 2948 984 
Q 3138 1247 3138 1747 
Q 3138 2247 2948 2509 
Q 2759 2772 2400 2772 
z
" transform="scale(0.015625)"/>
      <path id="DejaVuSans-Bold-69" d="M 538 3500 
L 1656 3500 
L 1656 0 
L 538 0 
L 538 3500 
z
M 538 4863 
L 1656 4863 
L 1656 3950 
L 538 3950 
L 538 4863 
z
" transform="scale(0.015625)"/>
      <path id="DejaVuSans-Bold-6e" d="M 4056 2131 
L 4056 0 
L 2931 0 
L 2931 347 
L 2931 1631 
Q 2931 2084 2911 2256 
Q 2891 2428 2841 2509 
Q 2775 2619 2662 2680 
Q 2550 2741 2406 2741 
Q 2056 2741 1856 2470 
Q 1656 2200 1656 1722 
L 1656 0 
L 538 0 
L 538 3500 
L 1656 3500 
L 1656 2988 
Q 1909 3294 2193 3439 
Q 2478 3584 2822 3584 
Q 3428 3584 3742 3212 
Q 4056 2841 4056 2131 
z
" transform="scale(0.015625)"/>
      <path id="DejaVuSans-Bold-6f" d="M 2203 2784 
Q 1831 2784 1636 2517 
Q 1441 2250 1441 1747 
Q 1441 1244 1636 976 
Q 1831 709 2203 709 
Q 2569 709 2762 976 
Q 2956 1244 2956 1747 
Q 2956 2250 2762 2517 
Q 2569 2784 2203 2784 
z
M 2203 3584 
Q 3106 3584 3614 3096 
Q 4122 2609 4122 1747 
Q 4122 884 3614 396 
Q 3106 -91 2203 -91 
Q 1297 -91 786 396 
Q 275 884 275 1747 
Q 275 2609 786 3096 
Q 1297 3584 2203 3584 
z
" transform="scale(0.015625)"/>
      <path id="DejaVuSans-Bold-20" transform="scale(0.015625)"/>
      <path id="DejaVuSans-Bold-76" d="M 97 3500 
L 1216 3500 
L 2088 1081 
L 2956 3500 
L 4078 3500 
L 2700 0 
L 1472 0 
L 97 3500 
z
" transform="scale(0.015625)"/>
      <path id="DejaVuSans-Bold-65" d="M 4031 1759 
L 4031 1441 
L 1416 1441 
Q 1456 1047 1700 850 
Q 1944 653 2381 653 
Q 2734 653 3104 758 
Q 3475 863 3866 1075 
L 3866 213 
Q 3469 63 3072 -14 
Q 2675 -91 2278 -91 
Q 1328 -91 801 392 
Q 275 875 275 1747 
Q 275 2603 792 3093 
Q 1309 3584 2216 3584 
Q 3041 3584 3536 3087 
Q 4031 2591 4031 1759 
z
M 2881 2131 
Q 2881 2450 2695 2645 
Q 2509 2841 2209 2841 
Q 1884 2841 1681 2658 
Q 1478 2475 1428 2131 
L 2881 2131 
z
" transform="scale(0.015625)"/>
      <path id="DejaVuSans-Bold-72" d="M 3138 2547 
Q 2991 2616 2845 2648 
Q 2700 2681 2553 2681 
Q 2122 2681 1889 2404 
Q 1656 2128 1656 1613 
L 1656 0 
L 538 0 
L 538 3500 
L 1656 3500 
L 1656 2925 
Q 1872 3269 2151 3426 
Q 2431 3584 2822 3584 
Q 2878 3584 2943 3579 
Q 3009 3575 3134 3559 
L 3138 2547 
z
" transform="scale(0.015625)"/>
      <path id="DejaVuSans-Bold-74" d="M 1759 4494 
L 1759 3500 
L 2913 3500 
L 2913 2700 
L 1759 2700 
L 1759 1216 
Q 1759 972 1856 886 
Q 1953 800 2241 800 
L 2816 800 
L 2816 0 
L 1856 0 
Q 1194 0 917 276 
Q 641 553 641 1216 
L 641 2700 
L 84 2700 
L 84 3500 
L 641 3500 
L 641 4494 
L 1759 4494 
z
" transform="scale(0.015625)"/>
      <path id="DejaVuSans-Bold-6d" d="M 3781 2919 
Q 3994 3244 4286 3414 
Q 4578 3584 4928 3584 
Q 5531 3584 5847 3212 
Q 6163 2841 6163 2131 
L 6163 0 
L 5038 0 
L 5038 1825 
Q 5041 1866 5042 1909 
Q 5044 1953 5044 2034 
Q 5044 2406 4934 2573 
Q 4825 2741 4581 2741 
Q 4263 2741 4089 2478 
Q 3916 2216 3909 1719 
L 3909 0 
L 2784 0 
L 2784 1825 
Q 2784 2406 2684 2573 
Q 2584 2741 2328 2741 
Q 2006 2741 1831 2477 
Q 1656 2213 1656 1722 
L 1656 0 
L 531 0 
L 531 3500 
L 1656 3500 
L 1656 2988 
Q 1863 3284 2130 3434 
Q 2397 3584 2719 3584 
Q 3081 3584 3359 3409 
Q 3638 3234 3781 2919 
z
" transform="scale(0.015625)"/>
     </defs>
     <use xlink:href="#DejaVuSans-Bold-4f"/>
     <use xlink:href="#DejaVuSans-Bold-70" transform="translate(85.009766 0)"/>
     <use xlink:href="#DejaVuSans-Bold-69" transform="translate(156.591797 0)"/>
     <use xlink:href="#DejaVuSans-Bold-6e" transform="translate(190.869141 0)"/>
     <use xlink:href="#DejaVuSans-Bold-69" transform="translate(262.060547 0)"/>
     <use xlink:href="#DejaVuSans-Bold-6f" transform="translate(296.337891 0)"/>
     <use xlink:href="#DejaVuSans-Bold-6e" transform="translate(365.039062 0)"/>
     <use xlink:href="#DejaVuSans-Bold-20" transform="translate(436.230469 0)"/>
     <use xlink:href="#DejaVuSans-Bold-6f" transform="translate(471.044922 0)"/>
     <use xlink:href="#DejaVuSans-Bold-76" transform="translate(539.746094 0)"/>
     <use xlink:href="#DejaVuSans-Bold-65" transform="translate(604.931641 0)"/>
     <use xlink:href="#DejaVuSans-Bold-72" transform="translate(672.753906 0)"/>
     <use xlink:href="#DejaVuSans-Bold-20" transform="translate(722.070312 0)"/>
     <use xlink:href="#DejaVuSans-Bold-74" transform="translate(756.884766 0)"/>
     <use xlink:href="#DejaVuSans-Bold-69" transform="translate(804.6875 0)"/>
     <use xlink:href="#DejaVuSans-Bold-6d" transform="translate(838.964844 0)"/>
     <use xlink:href="#DejaVuSans-Bold-65" transform="translate(943.164062 0)"/>
    </g>
   </g>
  </g>
 </g>
 <defs>
  <clipPath id="p0f3aa14139">
   <rect x="57.6" y="41.472" width="357.12" height="266.112"/>
  </clipPath>
 </defs>
</svg>
