<?xml version="1.0" encoding="utf-8" standalone="no"?>
<!DOCTYPE svg PUBLIC "-//W3C//DTD SVG 1.1//EN"
  "http://www.w3.org/Graphics/SVG/1.1/DTD/svg11.dtd">
<svg xmlns:xlink="http://www.w3.org/1999/xlink" width="460.8pt" height="345.6pt" viewBox="0 0 460.8 345.6" xmlns="http://www.w3.org/2000/svg" version="1.1">
 <metadata>
  <rdf:RDF xmlns:dc="http://purl.org/dc/elements/1.1/" xmlns:cc="http://creativecommons.org/ns#" xmlns:rdf="http://www.w3.org/1999/02/22-rdf-syntax-ns#">
   <cc:Work>
    <dc:type rdf:resource="http://purl.org/dc/dcmitype/StillImage"/>
    <dc:date>2025-05-06T00:10:09.956408</dc:date>
    <dc:format>image/svg+xml</dc:format>
    <dc:creator>
     <cc:Agent>
      <dc:title>Matplotlib v3.10.1, https://matplotlib.org/</dc:title>
     </cc:Agent>
    </dc:creator>
   </cc:Work>
  </rdf:RDF>
 </metadata>
 <defs>
  <style type="text/css">*{stroke-linejoin: round; stroke-linecap: butt}</style>
 </defs>
 <g id="figure_1">
  <g id="patch_1">
   <path d="M 0 345.6 
L 460.8 345.6 
L 460.8 0 
L 0 0 
z
" style="fill: #ffffff"/>
  </g>
  <g id="axes_1">
   <g id="patch_2">
    <path d="M 57.6 307.584 
L 414.72 307.584 
L 414.72 41.472 
L 57.6 41.472 
z
" style="fill: #ffffff"/>
   </g>
   <g id="Quiver_1">
    <path d="M 268.168593 186.526057 
L 262.287283 192.406624 
L 265.003619 193.31226 
L 253.23218 199.649768 
L 259.571175 187.87913 
L 260.476468 190.595581 
L 266.357778 184.715014 
L 268.168593 186.526057 
" clip-path="url(#pc2e7462dfa)"/>
    <path d="M 216.644368 229.879048 
L 210.765139 235.759102 
L 213.481596 236.664376 
L 201.711002 243.003453 
L 208.048428 231.231971 
L 208.954083 233.948301 
L 214.833312 228.068246 
L 216.644368 229.879048 
" clip-path="url(#pc2e7462dfa)"/>
    <path d="M 228.69223 58.638647 
L 222.812502 64.518238 
L 225.528885 65.423734 
L 213.757773 71.761848 
L 220.096162 59.990884 
L 221.001594 62.707288 
L 226.881322 56.827697 
L 228.69223 58.638647 
" clip-path="url(#pc2e7462dfa)"/>
    <path d="M 164.592435 218.913448 
L 158.719583 224.790149 
L 161.436273 225.694724 
L 149.667312 232.036831 
L 156.001707 220.263717 
L 156.908061 222.979814 
L 162.780913 217.103113 
L 164.592435 218.913448 
" clip-path="url(#pc2e7462dfa)"/>
    <path d="M 336.649599 120.076143 
L 330.769382 125.95646 
L 333.485783 126.861901 
L 321.714799 133.200253 
L 328.05295 121.429161 
L 328.958438 124.145546 
L 334.838655 118.265229 
L 336.649599 120.076143 
" clip-path="url(#pc2e7462dfa)"/>
    <path d="M 339.281478 224.008153 
L 333.401747 229.887556 
L 336.118116 230.793096 
L 324.346901 237.131019 
L 330.68548 225.360158 
L 331.590869 228.076577 
L 337.4706 222.197174 
L 339.281478 224.008153 
" clip-path="url(#pc2e7462dfa)"/>
    <path d="M 169.053688 81.66363 
L 163.176439 87.542278 
L 165.89294 88.447419 
L 154.122656 94.787071 
L 160.459507 83.015279 
L 161.365294 85.731564 
L 167.242543 79.852917 
L 169.053688 81.66363 
" clip-path="url(#pc2e7462dfa)"/>
    <path d="M 249.423683 119.761846 
L 243.54441 125.640852 
L 246.260783 126.546378 
L 234.4896 132.884361 
L 240.82812 121.113467 
L 241.733522 123.829881 
L 247.612796 117.950876 
L 249.423683 119.761846 
" clip-path="url(#pc2e7462dfa)"/>
    <path d="M 259.804311 152.585536 
L 253.927406 158.463142 
L 256.643854 159.368444 
L 244.873194 165.707398 
L 251.210743 153.935982 
L 252.116369 156.652321 
L 257.993274 150.774715 
L 259.804311 152.585536 
" clip-path="url(#pc2e7462dfa)"/>
    <path d="M 238.285915 262.132209 
L 232.407659 268.011289 
L 235.124116 268.916563 
L 223.353522 275.255639 
L 229.690948 263.484157 
L 230.596603 266.200487 
L 236.474859 260.321407 
L 238.285915 262.132209 
" clip-path="url(#pc2e7462dfa)"/>
    <path d="M 123.259258 158.288132 
L 117.384312 164.159167 
L 120.100403 165.065536 
L 108.327255 171.399867 
L 114.669426 159.63094 
L 115.573986 162.347635 
L 121.448932 156.4766 
L 123.259258 158.288132 
" clip-path="url(#pc2e7462dfa)"/>
    <path d="M 290.217672 128.374595 
L 284.339826 134.252111 
L 287.056194 135.157652 
L 275.284978 141.495572 
L 281.62356 129.724712 
L 282.528948 132.441131 
L 288.406794 126.563615 
L 290.217672 128.374595 
" clip-path="url(#pc2e7462dfa)"/>
    <path d="M 236.238743 199.747956 
L 230.356159 205.62863 
L 233.072406 206.534536 
L 221.300339 212.870876 
L 227.640501 201.100867 
L 228.545524 203.817407 
L 234.428108 197.936733 
L 236.238743 199.747956 
" clip-path="url(#pc2e7462dfa)"/>
    <path d="M 274.716185 92.093543 
L 268.835975 97.972424 
L 271.552266 98.878195 
L 259.780513 105.215117 
L 266.120093 93.444795 
L 267.025251 96.161291 
L 272.905461 90.282409 
L 274.716185 92.093543 
" clip-path="url(#pc2e7462dfa)"/>
    <path d="M 224.256858 147.301911 
L 218.379309 153.178957 
L 221.095664 154.084538 
L 209.324355 160.422286 
L 215.663109 148.651519 
L 216.568458 151.367951 
L 222.446006 145.490905 
L 224.256858 147.301911 
" clip-path="url(#pc2e7462dfa)"/>
    <path d="M 320.377586 156.570492 
L 314.49778 162.451108 
L 317.214235 163.356385 
L 305.443633 169.695446 
L 311.781075 157.923972 
L 312.686726 160.640303 
L 318.566533 154.759688 
L 320.377586 156.570492 
" clip-path="url(#pc2e7462dfa)"/>
    <path d="M 297.136986 239.084718 
L 291.258044 244.963514 
L 293.974426 245.869012 
L 282.203309 252.207117 
L 288.541707 240.436158 
L 289.447138 243.152562 
L 295.326079 237.273767 
L 297.136986 239.084718 
" clip-path="url(#pc2e7462dfa)"/>
    <path d="M 192.614087 163.088828 
L 186.736072 168.96802 
L 189.452556 169.873212 
L 177.682152 176.212641 
L 184.019226 164.440969 
L 184.924962 167.157272 
L 190.802977 161.27808 
L 192.614087 163.088828 
" clip-path="url(#pc2e7462dfa)"/>
    <path d="M 307.322321 199.123199 
L 301.442127 205.002466 
L 304.158449 205.908144 
L 292.386911 212.245467 
L 298.726091 200.474929 
L 299.631341 203.191394 
L 305.511535 197.312128 
L 307.322321 199.123199 
" clip-path="url(#pc2e7462dfa)"/>
    <path d="M 165.125821 261.998176 
L 159.246015 267.87745 
L 161.962367 268.783037 
L 150.191043 275.120757 
L 156.529826 263.350005 
L 157.435168 266.066439 
L 163.314973 260.187165 
L 165.125821 261.998176 
" clip-path="url(#pc2e7462dfa)"/>
    <path d="M 204.565845 263.552198 
L 198.686768 269.432321 
L 201.403242 270.337544 
L 189.632767 276.676841 
L 195.969972 264.90524 
L 196.875678 267.621553 
L 202.754755 261.74143 
L 204.565845 263.552198 
" clip-path="url(#pc2e7462dfa)"/>
    <path d="M 162.483477 158.998563 
L 156.596489 164.891145 
L 159.313312 165.795319 
L 147.545286 172.13916 
L 153.877946 160.365113 
L 154.784701 163.081076 
L 160.671688 157.188494 
L 162.483477 158.998563 
" clip-path="url(#pc2e7462dfa)"/>
    <path d="M 125.214311 122.949813 
L 119.340282 128.823419 
L 122.056642 129.728981 
L 110.285376 136.066808 
L 116.624051 124.295999 
L 117.529418 127.012425 
L 123.403448 121.138819 
L 125.214311 122.949813 
" clip-path="url(#pc2e7462dfa)"/>
    <path d="M 198.474059 131.652366 
L 192.594132 137.53166 
L 195.310477 138.437271 
L 183.539097 144.774888 
L 189.877982 133.004192 
L 190.783301 135.720634 
L 196.663228 129.841339 
L 198.474059 131.652366 
" clip-path="url(#pc2e7462dfa)"/>
    <path d="M 239.522548 172.097202 
L 233.646147 177.974482 
L 236.362608 178.879744 
L 224.592043 185.218874 
L 230.929415 173.447363 
L 231.835082 176.163688 
L 237.711484 170.286409 
L 239.522548 172.097202 
" clip-path="url(#pc2e7462dfa)"/>
    <path d="M 237.278866 296.393487 
L 231.398967 302.273093 
L 234.115338 303.178625 
L 222.344142 309.516583 
L 228.682687 297.745703 
L 229.588084 300.462119 
L 235.467982 294.582513 
L 237.278866 296.393487 
" clip-path="url(#pc2e7462dfa)"/>
    <path d="M 188.64695 192.20893 
L 182.76029 198.091039 
L 185.476333 198.997554 
L 173.702845 205.331253 
L 180.045647 193.562666 
L 180.950061 196.27941 
L 186.836721 190.397301 
L 188.64695 192.20893 
" clip-path="url(#pc2e7462dfa)"/>
    <path d="M 287.66557 156.214298 
L 281.789066 162.091513 
L 284.505514 162.996813 
L 272.73486 169.335777 
L 279.072398 157.564355 
L 279.978027 160.280694 
L 285.854531 154.403479 
L 287.66557 156.214298 
" clip-path="url(#pc2e7462dfa)"/>
    <path d="M 225.022892 97.2618 
L 219.140865 103.143421 
L 221.857227 104.048979 
L 210.085971 110.386824 
L 216.424628 98.616005 
L 217.329999 101.33243 
L 223.212025 95.450809 
L 225.022892 97.2618 
" clip-path="url(#pc2e7462dfa)"/>
    <path d="M 305.943154 72.946399 
L 300.063983 78.825521 
L 302.780372 79.730997 
L 291.009308 86.0692 
L 297.347608 74.298188 
L 298.253061 77.014585 
L 304.132232 71.135463 
L 305.943154 72.946399 
" clip-path="url(#pc2e7462dfa)"/>
    <path d="M 155.860437 115.85422 
L 149.975377 121.737666 
L 152.691646 122.643503 
L 140.919739 128.98014 
L 147.259605 117.209971 
L 148.164697 119.926489 
L 154.049757 114.043043 
L 155.860437 115.85422 
" clip-path="url(#pc2e7462dfa)"/>
    <path d="M 246.468202 230.784873 
L 240.589522 236.663729 
L 243.305929 237.569153 
L 231.534986 243.907581 
L 237.873061 232.136448 
L 238.778566 234.852828 
L 244.657246 228.973971 
L 246.468202 230.784873 
" clip-path="url(#pc2e7462dfa)"/>
    <path d="M 189.434216 286.088421 
L 183.554121 291.967935 
L 186.270469 292.873534 
L 174.499118 299.211204 
L 180.837951 287.440479 
L 181.743281 290.156917 
L 187.623377 284.277403 
L 189.434216 286.088421 
" clip-path="url(#pc2e7462dfa)"/>
    <path d="M 273.036325 264.847331 
L 267.157943 270.725758 
L 269.87434 271.631212 
L 258.103326 277.969508 
L 264.441532 266.198446 
L 265.347007 268.914836 
L 271.225389 263.036409 
L 273.036325 264.847331 
" clip-path="url(#pc2e7462dfa)"/>
    <path d="M 307.744215 272.003534 
L 301.864625 277.882937 
L 304.581004 278.788445 
L 292.809865 285.126508 
L 299.148303 273.355571 
L 300.053724 276.071979 
L 305.933315 270.192576 
L 307.744215 272.003534 
" clip-path="url(#pc2e7462dfa)"/>
    <path d="M 265.978885 242.010823 
L 260.100437 247.888802 
L 262.816794 248.794375 
L 251.045503 255.132155 
L 257.384224 243.361371 
L 258.28958 246.0778 
L 264.168029 240.199822 
L 265.978885 242.010823 
" clip-path="url(#pc2e7462dfa)"/>
    <path d="M 218.084935 176.381208 
L 212.210149 182.256266 
L 214.926564 183.161668 
L 203.155673 189.500192 
L 209.493651 177.729007 
L 210.399179 180.445379 
L 216.273964 174.570322 
L 218.084935 176.381208 
" clip-path="url(#pc2e7462dfa)"/>
    <path d="M 286.92061 285.008091 
L 281.040968 290.887585 
L 283.75735 291.793083 
L 271.986232 298.131186 
L 278.324632 286.360228 
L 279.230062 289.076633 
L 285.109704 283.197139 
L 286.92061 285.008091 
" clip-path="url(#pc2e7462dfa)"/>
    <path d="M 357.667543 145.903135 
L 351.788255 151.782321 
L 354.50464 152.687809 
L 342.733546 159.025957 
L 349.071901 147.254975 
L 349.977342 149.971376 
L 355.85663 144.092191 
L 357.667543 145.903135 
" clip-path="url(#pc2e7462dfa)"/>
    <path d="M 244.878889 86.279122 
L 238.996979 92.160294 
L 241.713316 93.065928 
L 229.94188 99.403441 
L 236.28087 87.632801 
L 237.186164 90.349251 
L 243.068074 84.468079 
L 244.878889 86.279122 
" clip-path="url(#pc2e7462dfa)"/>
    <path d="M 261.141995 54.473496 
L 255.262131 60.352954 
L 257.978493 61.258512 
L 246.207237 67.596357 
L 252.545894 55.825538 
L 253.451265 58.541963 
L 259.331129 52.662504 
L 261.141995 54.473496 
" clip-path="url(#pc2e7462dfa)"/>
    <path d="M 284.34659 59.082477 
L 278.467165 64.961666 
L 281.18354 65.867185 
L 269.412374 72.205199 
L 275.750863 60.434289 
L 276.656272 63.1507 
L 282.535698 57.271512 
L 284.34659 59.082477 
" clip-path="url(#pc2e7462dfa)"/>
    <path d="M 280.52429 213.682212 
L 274.644025 219.56227 
L 277.360403 220.467782 
L 265.589253 226.805827 
L 271.927711 215.0349 
L 272.833128 217.751309 
L 278.713393 211.871251 
L 280.52429 213.682212 
" clip-path="url(#pc2e7462dfa)"/>
    <path d="M 357.779827 169.437346 
L 351.900168 175.316775 
L 354.616544 176.222293 
L 342.845382 182.560314 
L 349.183863 170.7894 
L 350.089275 173.505811 
L 355.968934 167.626382 
L 357.779827 169.437346 
" clip-path="url(#pc2e7462dfa)"/>
    <path d="M 327.506904 87.243887 
L 321.628262 93.123459 
L 324.344727 94.028708 
L 312.57419 100.36789 
L 318.911511 88.596351 
L 319.81719 91.312673 
L 325.695832 85.433102 
L 327.506904 87.243887 
" clip-path="url(#pc2e7462dfa)"/>
    <path d="M 204.218614 82.871252 
L 198.33994 88.751776 
L 201.056476 89.656813 
L 189.286436 95.996917 
L 195.622834 84.224882 
L 196.528726 86.941132 
L 202.4074 81.060608 
L 204.218614 82.871252 
" clip-path="url(#pc2e7462dfa)"/>
    <path d="M 193.362707 56.766053 
L 187.483589 62.645215 
L 190.199986 63.550669 
L 178.428972 69.888965 
L 184.767179 58.117903 
L 185.672654 60.834293 
L 191.551771 54.955131 
L 193.362707 56.766053 
" clip-path="url(#pc2e7462dfa)"/>
    <path d="M 261.246197 217.297929 
L 255.365985 223.176067 
L 258.082218 224.082011 
L 246.310062 230.418186 
L 252.65039 218.648266 
L 253.555375 221.364819 
L 259.435588 215.48668 
L 261.246197 217.297929 
" clip-path="url(#pc2e7462dfa)"/>
    <path d="M 136.51265 242.758938 
L 130.636413 248.636067 
L 133.352875 249.541326 
L 121.582318 255.88047 
L 127.919676 244.108951 
L 128.825346 246.825276 
L 134.701583 240.948147 
L 136.51265 242.758938 
" clip-path="url(#pc2e7462dfa)"/>
    <path d="M 138.661717 199.756135 
L 132.770576 205.653996 
L 135.487485 206.557912 
L 123.720061 212.902871 
L 130.051602 201.128222 
L 130.958615 203.844099 
L 136.849756 197.946239 
L 138.661717 199.756135 
" clip-path="url(#pc2e7462dfa)"/>
    <path d="M 169.058776 185.792617 
L 163.175139 191.669293 
L 165.890996 192.576365 
L 154.11621 198.907649 
L 160.461426 187.140364 
L 161.365283 189.857293 
L 167.248919 183.980616 
L 169.058776 185.792617 
" clip-path="url(#pc2e7462dfa)"/>
    <path d="M 149.28065 178.729164 
L 143.379658 184.62856 
L 146.095929 185.534392 
L 134.324033 191.87105 
L 140.663877 180.10087 
L 141.568974 182.817386 
L 147.469966 176.91799 
L 149.28065 178.729164 
" clip-path="url(#pc2e7462dfa)"/>
    <path d="M 150.401739 138.09603 
L 144.529291 143.977626 
L 147.246388 144.880976 
L 135.480286 151.228385 
L 141.809375 139.452418 
L 142.716953 142.168106 
L 148.589402 136.286511 
L 150.401739 138.09603 
" clip-path="url(#pc2e7462dfa)"/>
    <path d="M 218.4271 118.793357 
L 212.546053 124.672375 
L 215.26229 125.578308 
L 203.490159 131.914529 
L 209.83044 120.144584 
L 210.735436 122.861134 
L 216.616483 116.982116 
L 218.4271 118.793357 
" clip-path="url(#pc2e7462dfa)"/>
    <path d="M 213.039195 290.519972 
L 207.159359 296.399607 
L 209.875737 297.305118 
L 198.104591 303.643169 
L 204.443043 291.872239 
L 205.348461 294.588648 
L 211.228296 288.709012 
L 213.039195 290.519972 
" clip-path="url(#pc2e7462dfa)"/>
    <path d="M 114.904754 193.269825 
L 109.027934 199.14055 
L 111.743857 200.047424 
L 99.969532 206.379567 
L 106.31389 194.611819 
L 107.217945 197.328682 
L 113.094765 191.457957 
L 114.904754 193.269825 
" clip-path="url(#pc2e7462dfa)"/>
    <path d="M 359.22571 195.581056 
L 353.346397 201.460438 
L 356.062796 202.365886 
L 344.291796 208.704207 
L 350.629977 196.933132 
L 351.535458 199.64952 
L 357.414771 193.770138 
L 359.22571 195.581056 
" clip-path="url(#pc2e7462dfa)"/>
    <path d="M 180.461323 115.067537 
L 174.574142 120.953498 
L 177.290442 121.859244 
L 165.518747 128.196276 
L 171.858218 116.425894 
L 172.763401 119.142382 
L 178.650582 113.25642 
L 180.461323 115.067537 
" clip-path="url(#pc2e7462dfa)"/>
    <path d="M 208.614158 195.419345 
L 202.734525 201.293245 
L 205.450476 202.200034 
L 193.676347 208.532542 
L 200.02034 196.764598 
L 200.924479 199.481432 
L 206.804113 193.607533 
L 208.614158 195.419345 
" clip-path="url(#pc2e7462dfa)"/>
    <path d="M 175.58007 137.724478 
L 169.699146 143.60938 
L 172.415845 144.513926 
L 160.646951 150.856157 
L 166.981222 139.082976 
L 167.887605 141.799063 
L 173.768528 135.914161 
L 175.58007 137.724478 
" clip-path="url(#pc2e7462dfa)"/>
    <path d="M 137.551184 98.911004 
L 131.676074 104.784917 
L 134.392375 105.690658 
L 122.620692 112.02771 
L 128.960142 100.257318 
L 129.865329 102.973803 
L 135.740439 97.09989 
L 137.551184 98.911004 
" clip-path="url(#pc2e7462dfa)"/>
    <path d="M 294.360792 174.204804 
L 288.478353 180.085826 
L 291.194638 180.991618 
L 279.422836 187.328451 
L 285.762505 175.558177 
L 286.667643 178.274679 
L 292.550081 172.393657 
L 294.360792 174.204804 
" clip-path="url(#pc2e7462dfa)"/>
    <path d="M 306.81272 102.592545 
L 300.933896 108.469922 
L 303.650178 109.375721 
L 291.87836 115.712523 
L 298.21806 103.942266 
L 299.12319 106.65877 
L 305.002014 100.781393 
L 306.81272 102.592545 
" clip-path="url(#pc2e7462dfa)"/>
    <path d="M 193.771763 213.468182 
L 187.900803 219.340745 
L 190.61732 220.245838 
L 178.847147 226.585696 
L 185.183792 214.813793 
L 186.089627 217.530063 
L 191.960586 211.6575 
L 193.771763 213.468182 
" clip-path="url(#pc2e7462dfa)"/>
    <path d="M 328.490959 256.437855 
L 322.611505 262.317334 
L 325.3279 263.222793 
L 313.556875 269.561069 
L 319.895102 257.790018 
L 320.800572 260.506409 
L 326.680026 254.62693 
L 328.490959 256.437855 
" clip-path="url(#pc2e7462dfa)"/>
    <path d="M 336.2408 184.734087 
L 330.360787 190.614677 
L 333.077225 191.520008 
L 321.306498 197.858837 
L 327.644172 186.087488 
L 328.549769 188.803837 
L 334.429782 182.923247 
L 336.2408 184.734087 
" clip-path="url(#pc2e7462dfa)"/>
    <path d="M 124.57607 220.993797 
L 118.691023 226.877954 
L 121.407348 227.783624 
L 109.635831 234.120985 
L 115.974972 222.350426 
L 116.880231 225.066888 
L 122.765278 219.182731 
L 124.57607 220.993797 
" clip-path="url(#pc2e7462dfa)"/>
    <path d="M 200.239957 105.557457 
L 194.354027 111.440972 
L 197.070235 112.346994 
L 185.297897 118.68283 
L 191.638563 106.913093 
L 192.54347 109.629672 
L 198.4294 103.746157 
L 200.239957 105.557457 
" clip-path="url(#pc2e7462dfa)"/>
    <path d="M 190.311305 242.438452 
L 184.432722 248.318626 
L 187.149238 249.223723 
L 175.379058 255.563567 
L 181.715716 243.791671 
L 182.621548 246.507942 
L 188.500131 240.627769 
L 190.311305 242.438452 
" clip-path="url(#pc2e7462dfa)"/>
    <path d="M 262.258751 291.309163 
L 256.379248 297.188713 
L 259.095645 298.094167 
L 247.324632 304.432465 
L 253.662836 292.661402 
L 254.568312 295.377791 
L 260.447815 289.498241 
L 262.258751 291.309163 
" clip-path="url(#pc2e7462dfa)"/>
   </g>
   <g id="matplotlib.axis_1">
    <g id="xtick_1">
     <g id="line2d_1">
      <defs>
       <path id="m1f001a204d" d="M 0 0 
L 0 3.5 
" style="stroke: #000000; stroke-width: 0.8"/>
      </defs>
      <g>
       <use xlink:href="#m1f001a204d" x="87.475338" y="307.584" style="stroke: #000000; stroke-width: 0.8"/>
      </g>
     </g>
     <g id="text_1">
      <!-- −95.5 -->
      <g transform="translate(69.088151 323.702125) scale(0.12 -0.12)">
       <defs>
        <path id="DejaVuSans-2212" d="M 678 2272 
L 4684 2272 
L 4684 1741 
L 678 1741 
L 678 2272 
z
" transform="scale(0.015625)"/>
        <path id="DejaVuSans-39" d="M 703 97 
L 703 672 
Q 941 559 1184 500 
Q 1428 441 1663 441 
Q 2288 441 2617 861 
Q 2947 1281 2994 2138 
Q 2813 1869 2534 1725 
Q 2256 1581 1919 1581 
Q 1219 1581 811 2004 
Q 403 2428 403 3163 
Q 403 3881 828 4315 
Q 1253 4750 1959 4750 
Q 2769 4750 3195 4129 
Q 3622 3509 3622 2328 
Q 3622 1225 3098 567 
Q 2575 -91 1691 -91 
Q 1453 -91 1209 -44 
Q 966 3 703 97 
z
M 1959 2075 
Q 2384 2075 2632 2365 
Q 2881 2656 2881 3163 
Q 2881 3666 2632 3958 
Q 2384 4250 1959 4250 
Q 1534 4250 1286 3958 
Q 1038 3666 1038 3163 
Q 1038 2656 1286 2365 
Q 1534 2075 1959 2075 
z
" transform="scale(0.015625)"/>
        <path id="DejaVuSans-35" d="M 691 4666 
L 3169 4666 
L 3169 4134 
L 1269 4134 
L 1269 2991 
Q 1406 3038 1543 3061 
Q 1681 3084 1819 3084 
Q 2600 3084 3056 2656 
Q 3513 2228 3513 1497 
Q 3513 744 3044 326 
Q 2575 -91 1722 -91 
Q 1428 -91 1123 -41 
Q 819 9 494 109 
L 494 744 
Q 775 591 1075 516 
Q 1375 441 1709 441 
Q 2250 441 2565 725 
Q 2881 1009 2881 1497 
Q 2881 1984 2565 2268 
Q 2250 2553 1709 2553 
Q 1456 2553 1204 2497 
Q 953 2441 691 2322 
L 691 4666 
z
" transform="scale(0.015625)"/>
        <path id="DejaVuSans-2e" d="M 684 794 
L 1344 794 
L 1344 0 
L 684 0 
L 684 794 
z
" transform="scale(0.015625)"/>
       </defs>
       <use xlink:href="#DejaVuSans-2212"/>
       <use xlink:href="#DejaVuSans-39" transform="translate(83.789062 0)"/>
       <use xlink:href="#DejaVuSans-35" transform="translate(147.412109 0)"/>
       <use xlink:href="#DejaVuSans-2e" transform="translate(211.035156 0)"/>
       <use xlink:href="#DejaVuSans-35" transform="translate(242.822266 0)"/>
      </g>
     </g>
    </g>
    <g id="xtick_2">
     <g id="line2d_2">
      <g>
       <use xlink:href="#m1f001a204d" x="151.709848" y="307.584" style="stroke: #000000; stroke-width: 0.8"/>
      </g>
     </g>
     <g id="text_2">
      <!-- −95.0 -->
      <g transform="translate(133.322661 323.702125) scale(0.12 -0.12)">
       <defs>
        <path id="DejaVuSans-30" d="M 2034 4250 
Q 1547 4250 1301 3770 
Q 1056 3291 1056 2328 
Q 1056 1369 1301 889 
Q 1547 409 2034 409 
Q 2525 409 2770 889 
Q 3016 1369 3016 2328 
Q 3016 3291 2770 3770 
Q 2525 4250 2034 4250 
z
M 2034 4750 
Q 2819 4750 3233 4129 
Q 3647 3509 3647 2328 
Q 3647 1150 3233 529 
Q 2819 -91 2034 -91 
Q 1250 -91 836 529 
Q 422 1150 422 2328 
Q 422 3509 836 4129 
Q 1250 4750 2034 4750 
z
" transform="scale(0.015625)"/>
       </defs>
       <use xlink:href="#DejaVuSans-2212"/>
       <use xlink:href="#DejaVuSans-39" transform="translate(83.789062 0)"/>
       <use xlink:href="#DejaVuSans-35" transform="translate(147.412109 0)"/>
       <use xlink:href="#DejaVuSans-2e" transform="translate(211.035156 0)"/>
       <use xlink:href="#DejaVuSans-30" transform="translate(242.822266 0)"/>
      </g>
     </g>
    </g>
    <g id="xtick_3">
     <g id="line2d_3">
      <g>
       <use xlink:href="#m1f001a204d" x="215.944358" y="307.584" style="stroke: #000000; stroke-width: 0.8"/>
      </g>
     </g>
     <g id="text_3">
      <!-- −94.5 -->
      <g transform="translate(197.557171 323.702125) scale(0.12 -0.12)">
       <defs>
        <path id="DejaVuSans-34" d="M 2419 4116 
L 825 1625 
L 2419 1625 
L 2419 4116 
z
M 2253 4666 
L 3047 4666 
L 3047 1625 
L 3713 1625 
L 3713 1100 
L 3047 1100 
L 3047 0 
L 2419 0 
L 2419 1100 
L 313 1100 
L 313 1709 
L 2253 4666 
z
" transform="scale(0.015625)"/>
       </defs>
       <use xlink:href="#DejaVuSans-2212"/>
       <use xlink:href="#DejaVuSans-39" transform="translate(83.789062 0)"/>
       <use xlink:href="#DejaVuSans-34" transform="translate(147.412109 0)"/>
       <use xlink:href="#DejaVuSans-2e" transform="translate(211.035156 0)"/>
       <use xlink:href="#DejaVuSans-35" transform="translate(242.822266 0)"/>
      </g>
     </g>
    </g>
    <g id="xtick_4">
     <g id="line2d_4">
      <g>
       <use xlink:href="#m1f001a204d" x="280.178868" y="307.584" style="stroke: #000000; stroke-width: 0.8"/>
      </g>
     </g>
     <g id="text_4">
      <!-- −94.0 -->
      <g transform="translate(261.791681 323.702125) scale(0.12 -0.12)">
       <use xlink:href="#DejaVuSans-2212"/>
       <use xlink:href="#DejaVuSans-39" transform="translate(83.789062 0)"/>
       <use xlink:href="#DejaVuSans-34" transform="translate(147.412109 0)"/>
       <use xlink:href="#DejaVuSans-2e" transform="translate(211.035156 0)"/>
       <use xlink:href="#DejaVuSans-30" transform="translate(242.822266 0)"/>
      </g>
     </g>
    </g>
    <g id="xtick_5">
     <g id="line2d_5">
      <g>
       <use xlink:href="#m1f001a204d" x="344.413378" y="307.584" style="stroke: #000000; stroke-width: 0.8"/>
      </g>
     </g>
     <g id="text_5">
      <!-- −93.5 -->
      <g transform="translate(326.02619 323.702125) scale(0.12 -0.12)">
       <defs>
        <path id="DejaVuSans-33" d="M 2597 2516 
Q 3050 2419 3304 2112 
Q 3559 1806 3559 1356 
Q 3559 666 3084 287 
Q 2609 -91 1734 -91 
Q 1441 -91 1130 -33 
Q 819 25 488 141 
L 488 750 
Q 750 597 1062 519 
Q 1375 441 1716 441 
Q 2309 441 2620 675 
Q 2931 909 2931 1356 
Q 2931 1769 2642 2001 
Q 2353 2234 1838 2234 
L 1294 2234 
L 1294 2753 
L 1863 2753 
Q 2328 2753 2575 2939 
Q 2822 3125 2822 3475 
Q 2822 3834 2567 4026 
Q 2313 4219 1838 4219 
Q 1578 4219 1281 4162 
Q 984 4106 628 3988 
L 628 4550 
Q 988 4650 1302 4700 
Q 1616 4750 1894 4750 
Q 2613 4750 3031 4423 
Q 3450 4097 3450 3541 
Q 3450 3153 3228 2886 
Q 3006 2619 2597 2516 
z
" transform="scale(0.015625)"/>
       </defs>
       <use xlink:href="#DejaVuSans-2212"/>
       <use xlink:href="#DejaVuSans-39" transform="translate(83.789062 0)"/>
       <use xlink:href="#DejaVuSans-33" transform="translate(147.412109 0)"/>
       <use xlink:href="#DejaVuSans-2e" transform="translate(211.035156 0)"/>
       <use xlink:href="#DejaVuSans-35" transform="translate(242.822266 0)"/>
      </g>
     </g>
    </g>
    <g id="xtick_6">
     <g id="line2d_6">
      <g>
       <use xlink:href="#m1f001a204d" x="408.647888" y="307.584" style="stroke: #000000; stroke-width: 0.8"/>
      </g>
     </g>
     <g id="text_6">
      <!-- −93.0 -->
      <g transform="translate(390.2607 323.702125) scale(0.12 -0.12)">
       <use xlink:href="#DejaVuSans-2212"/>
       <use xlink:href="#DejaVuSans-39" transform="translate(83.789062 0)"/>
       <use xlink:href="#DejaVuSans-33" transform="translate(147.412109 0)"/>
       <use xlink:href="#DejaVuSans-2e" transform="translate(211.035156 0)"/>
       <use xlink:href="#DejaVuSans-30" transform="translate(242.822266 0)"/>
      </g>
     </g>
    </g>
    <g id="text_7">
     <!-- x -->
     <g transform="translate(232.016875 340.835562) scale(0.14 -0.14)">
      <defs>
       <path id="DejaVuSans-78" d="M 3513 3500 
L 2247 1797 
L 3578 0 
L 2900 0 
L 1881 1375 
L 863 0 
L 184 0 
L 1544 1831 
L 300 3500 
L 978 3500 
L 1906 2253 
L 2834 3500 
L 3513 3500 
z
" transform="scale(0.015625)"/>
      </defs>
      <use xlink:href="#DejaVuSans-78"/>
     </g>
    </g>
   </g>
   <g id="matplotlib.axis_2">
    <g id="ytick_1">
     <g id="line2d_7">
      <defs>
       <path id="m8c363f1976" d="M 0 0 
L -3.5 0 
" style="stroke: #000000; stroke-width: 0.8"/>
      </defs>
      <g>
       <use xlink:href="#m8c363f1976" x="57.6" y="298.406676" style="stroke: #000000; stroke-width: 0.8"/>
      </g>
     </g>
     <g id="text_8">
      <!-- −94.25 -->
      <g transform="translate(6.190625 302.965739) scale(0.12 -0.12)">
       <defs>
        <path id="DejaVuSans-32" d="M 1228 531 
L 3431 531 
L 3431 0 
L 469 0 
L 469 531 
Q 828 903 1448 1529 
Q 2069 2156 2228 2338 
Q 2531 2678 2651 2914 
Q 2772 3150 2772 3378 
Q 2772 3750 2511 3984 
Q 2250 4219 1831 4219 
Q 1534 4219 1204 4116 
Q 875 4013 500 3803 
L 500 4441 
Q 881 4594 1212 4672 
Q 1544 4750 1819 4750 
Q 2544 4750 2975 4387 
Q 3406 4025 3406 3419 
Q 3406 3131 3298 2873 
Q 3191 2616 2906 2266 
Q 2828 2175 2409 1742 
Q 1991 1309 1228 531 
z
" transform="scale(0.015625)"/>
       </defs>
       <use xlink:href="#DejaVuSans-2212"/>
       <use xlink:href="#DejaVuSans-39" transform="translate(83.789062 0)"/>
       <use xlink:href="#DejaVuSans-34" transform="translate(147.412109 0)"/>
       <use xlink:href="#DejaVuSans-2e" transform="translate(211.035156 0)"/>
       <use xlink:href="#DejaVuSans-32" transform="translate(242.822266 0)"/>
       <use xlink:href="#DejaVuSans-35" transform="translate(306.445312 0)"/>
      </g>
     </g>
    </g>
    <g id="ytick_2">
     <g id="line2d_8">
      <g>
       <use xlink:href="#m8c363f1976" x="57.6" y="266.289421" style="stroke: #000000; stroke-width: 0.8"/>
      </g>
     </g>
     <g id="text_9">
      <!-- −94.00 -->
      <g transform="translate(6.190625 270.848484) scale(0.12 -0.12)">
       <use xlink:href="#DejaVuSans-2212"/>
       <use xlink:href="#DejaVuSans-39" transform="translate(83.789062 0)"/>
       <use xlink:href="#DejaVuSans-34" transform="translate(147.412109 0)"/>
       <use xlink:href="#DejaVuSans-2e" transform="translate(211.035156 0)"/>
       <use xlink:href="#DejaVuSans-30" transform="translate(242.822266 0)"/>
       <use xlink:href="#DejaVuSans-30" transform="translate(306.445312 0)"/>
      </g>
     </g>
    </g>
    <g id="ytick_3">
     <g id="line2d_9">
      <g>
       <use xlink:href="#m8c363f1976" x="57.6" y="234.172166" style="stroke: #000000; stroke-width: 0.8"/>
      </g>
     </g>
     <g id="text_10">
      <!-- −93.75 -->
      <g transform="translate(6.190625 238.731229) scale(0.12 -0.12)">
       <defs>
        <path id="DejaVuSans-37" d="M 525 4666 
L 3525 4666 
L 3525 4397 
L 1831 0 
L 1172 0 
L 2766 4134 
L 525 4134 
L 525 4666 
z
" transform="scale(0.015625)"/>
       </defs>
       <use xlink:href="#DejaVuSans-2212"/>
       <use xlink:href="#DejaVuSans-39" transform="translate(83.789062 0)"/>
       <use xlink:href="#DejaVuSans-33" transform="translate(147.412109 0)"/>
       <use xlink:href="#DejaVuSans-2e" transform="translate(211.035156 0)"/>
       <use xlink:href="#DejaVuSans-37" transform="translate(242.822266 0)"/>
       <use xlink:href="#DejaVuSans-35" transform="translate(306.445312 0)"/>
      </g>
     </g>
    </g>
    <g id="ytick_4">
     <g id="line2d_10">
      <g>
       <use xlink:href="#m8c363f1976" x="57.6" y="202.054911" style="stroke: #000000; stroke-width: 0.8"/>
      </g>
     </g>
     <g id="text_11">
      <!-- −93.50 -->
      <g transform="translate(6.190625 206.613974) scale(0.12 -0.12)">
       <use xlink:href="#DejaVuSans-2212"/>
       <use xlink:href="#DejaVuSans-39" transform="translate(83.789062 0)"/>
       <use xlink:href="#DejaVuSans-33" transform="translate(147.412109 0)"/>
       <use xlink:href="#DejaVuSans-2e" transform="translate(211.035156 0)"/>
       <use xlink:href="#DejaVuSans-35" transform="translate(242.822266 0)"/>
       <use xlink:href="#DejaVuSans-30" transform="translate(306.445312 0)"/>
      </g>
     </g>
    </g>
    <g id="ytick_5">
     <g id="line2d_11">
      <g>
       <use xlink:href="#m8c363f1976" x="57.6" y="169.937656" style="stroke: #000000; stroke-width: 0.8"/>
      </g>
     </g>
     <g id="text_12">
      <!-- −93.25 -->
      <g transform="translate(6.190625 174.496719) scale(0.12 -0.12)">
       <use xlink:href="#DejaVuSans-2212"/>
       <use xlink:href="#DejaVuSans-39" transform="translate(83.789062 0)"/>
       <use xlink:href="#DejaVuSans-33" transform="translate(147.412109 0)"/>
       <use xlink:href="#DejaVuSans-2e" transform="translate(211.035156 0)"/>
       <use xlink:href="#DejaVuSans-32" transform="translate(242.822266 0)"/>
       <use xlink:href="#DejaVuSans-35" transform="translate(306.445312 0)"/>
      </g>
     </g>
    </g>
    <g id="ytick_6">
     <g id="line2d_12">
      <g>
       <use xlink:href="#m8c363f1976" x="57.6" y="137.820401" style="stroke: #000000; stroke-width: 0.8"/>
      </g>
     </g>
     <g id="text_13">
      <!-- −93.00 -->
      <g transform="translate(6.190625 142.379464) scale(0.12 -0.12)">
       <use xlink:href="#DejaVuSans-2212"/>
       <use xlink:href="#DejaVuSans-39" transform="translate(83.789062 0)"/>
       <use xlink:href="#DejaVuSans-33" transform="translate(147.412109 0)"/>
       <use xlink:href="#DejaVuSans-2e" transform="translate(211.035156 0)"/>
       <use xlink:href="#DejaVuSans-30" transform="translate(242.822266 0)"/>
       <use xlink:href="#DejaVuSans-30" transform="translate(306.445312 0)"/>
      </g>
     </g>
    </g>
    <g id="ytick_7">
     <g id="line2d_13">
      <g>
       <use xlink:href="#m8c363f1976" x="57.6" y="105.703146" style="stroke: #000000; stroke-width: 0.8"/>
      </g>
     </g>
     <g id="text_14">
      <!-- −92.75 -->
      <g transform="translate(6.190625 110.262209) scale(0.12 -0.12)">
       <use xlink:href="#DejaVuSans-2212"/>
       <use xlink:href="#DejaVuSans-39" transform="translate(83.789062 0)"/>
       <use xlink:href="#DejaVuSans-32" transform="translate(147.412109 0)"/>
       <use xlink:href="#DejaVuSans-2e" transform="translate(211.035156 0)"/>
       <use xlink:href="#DejaVuSans-37" transform="translate(242.822266 0)"/>
       <use xlink:href="#DejaVuSans-35" transform="translate(306.445312 0)"/>
      </g>
     </g>
    </g>
    <g id="ytick_8">
     <g id="line2d_14">
      <g>
       <use xlink:href="#m8c363f1976" x="57.6" y="73.585891" style="stroke: #000000; stroke-width: 0.8"/>
      </g>
     </g>
     <g id="text_15">
      <!-- −92.50 -->
      <g transform="translate(6.190625 78.144954) scale(0.12 -0.12)">
       <use xlink:href="#DejaVuSans-2212"/>
       <use xlink:href="#DejaVuSans-39" transform="translate(83.789062 0)"/>
       <use xlink:href="#DejaVuSans-32" transform="translate(147.412109 0)"/>
       <use xlink:href="#DejaVuSans-2e" transform="translate(211.035156 0)"/>
       <use xlink:href="#DejaVuSans-35" transform="translate(242.822266 0)"/>
       <use xlink:href="#DejaVuSans-30" transform="translate(306.445312 0)"/>
      </g>
     </g>
    </g>
    <g id="text_16">
     <!-- y -->
     <g transform="translate(-0.720937 178.671125) rotate(-90) scale(0.14 -0.14)">
      <defs>
       <path id="DejaVuSans-79" d="M 2059 -325 
Q 1816 -950 1584 -1140 
Q 1353 -1331 966 -1331 
L 506 -1331 
L 506 -850 
L 844 -850 
Q 1081 -850 1212 -737 
Q 1344 -625 1503 -206 
L 1606 56 
L 191 3500 
L 800 3500 
L 1894 763 
L 2988 3500 
L 3597 3500 
L 2059 -325 
z
" transform="scale(0.015625)"/>
      </defs>
      <use xlink:href="#DejaVuSans-79"/>
     </g>
    </g>
   </g>
   <g id="line2d_15">
    <defs>
     <path id="m2421cca437" d="M 0 3 
C 0.795609 3 1.55874 2.683901 2.12132 2.12132 
C 2.683901 1.55874 3 0.795609 3 0 
C 3 -0.795609 2.683901 -1.55874 2.12132 -2.12132 
C 1.55874 -2.683901 0.795609 -3 0 -3 
C -0.795609 -3 -1.55874 -2.683901 -2.12132 -2.12132 
C -2.683901 -1.55874 -3 -0.795609 -3 0 
C -3 0.795609 -2.683901 1.55874 -2.12132 2.12132 
C -1.55874 2.683901 -0.795609 3 0 3 
z
" style="stroke: #0000ff"/>
    </defs>
    <g clip-path="url(#pc2e7462dfa)">
     <use xlink:href="#m2421cca437" x="267.263185" y="185.620536" style="fill: #0000ff; stroke: #0000ff"/>
     <use xlink:href="#m2421cca437" x="215.73884" y="228.973647" style="fill: #0000ff; stroke: #0000ff"/>
     <use xlink:href="#m2421cca437" x="227.786776" y="57.733172" style="fill: #0000ff; stroke: #0000ff"/>
     <use xlink:href="#m2421cca437" x="163.686674" y="218.00828" style="fill: #0000ff; stroke: #0000ff"/>
     <use xlink:href="#m2421cca437" x="335.744127" y="119.170686" style="fill: #0000ff; stroke: #0000ff"/>
     <use xlink:href="#m2421cca437" x="338.376039" y="223.102663" style="fill: #0000ff; stroke: #0000ff"/>
     <use xlink:href="#m2421cca437" x="168.148115" y="80.758273" style="fill: #0000ff; stroke: #0000ff"/>
     <use xlink:href="#m2421cca437" x="248.51824" y="118.856361" style="fill: #0000ff; stroke: #0000ff"/>
     <use xlink:href="#m2421cca437" x="258.898793" y="151.680125" style="fill: #0000ff; stroke: #0000ff"/>
     <use xlink:href="#m2421cca437" x="237.380387" y="261.226808" style="fill: #0000ff; stroke: #0000ff"/>
     <use xlink:href="#m2421cca437" x="122.354095" y="157.382366" style="fill: #0000ff; stroke: #0000ff"/>
     <use xlink:href="#m2421cca437" x="289.312233" y="127.469105" style="fill: #0000ff; stroke: #0000ff"/>
     <use xlink:href="#m2421cca437" x="235.333425" y="198.842345" style="fill: #0000ff; stroke: #0000ff"/>
     <use xlink:href="#m2421cca437" x="273.810823" y="91.187976" style="fill: #0000ff; stroke: #0000ff"/>
     <use xlink:href="#m2421cca437" x="223.351432" y="146.396408" style="fill: #0000ff; stroke: #0000ff"/>
     <use xlink:href="#m2421cca437" x="319.47206" y="155.66509" style="fill: #0000ff; stroke: #0000ff"/>
     <use xlink:href="#m2421cca437" x="296.231533" y="238.179242" style="fill: #0000ff; stroke: #0000ff"/>
     <use xlink:href="#m2421cca437" x="191.708532" y="162.183454" style="fill: #0000ff; stroke: #0000ff"/>
     <use xlink:href="#m2421cca437" x="306.416928" y="198.217663" style="fill: #0000ff; stroke: #0000ff"/>
     <use xlink:href="#m2421cca437" x="164.220397" y="261.09267" style="fill: #0000ff; stroke: #0000ff"/>
    </g>
   </g>
   <g id="line2d_16">
    <defs>
     <path id="m1c0d10e65b" d="M 0 3 
C 0.795609 3 1.55874 2.683901 2.12132 2.12132 
C 2.683901 1.55874 3 0.795609 3 0 
C 3 -0.795609 2.683901 -1.55874 2.12132 -2.12132 
C 1.55874 -2.683901 0.795609 -3 0 -3 
C -0.795609 -3 -1.55874 -2.683901 -2.12132 -2.12132 
C -2.683901 -1.55874 -3 -0.795609 -3 0 
C -3 0.795609 -2.683901 1.55874 -2.12132 2.12132 
C -1.55874 2.683901 -0.795609 3 0 3 
z
" style="stroke: #ff0000"/>
    </defs>
    <g clip-path="url(#pc2e7462dfa)">
     <use xlink:href="#m1c0d10e65b" x="203.6603" y="262.646814" style="fill: #ff0000; stroke: #ff0000"/>
     <use xlink:href="#m1c0d10e65b" x="161.577582" y="158.093529" style="fill: #ff0000; stroke: #ff0000"/>
     <use xlink:href="#m1c0d10e65b" x="124.308879" y="122.044316" style="fill: #ff0000; stroke: #ff0000"/>
     <use xlink:href="#m1c0d10e65b" x="197.568644" y="130.746853" style="fill: #ff0000; stroke: #ff0000"/>
     <use xlink:href="#m1c0d10e65b" x="238.617016" y="171.191805" style="fill: #ff0000; stroke: #ff0000"/>
     <use xlink:href="#m1c0d10e65b" x="236.373424" y="295.488" style="fill: #ff0000; stroke: #ff0000"/>
     <use xlink:href="#m1c0d10e65b" x="187.741836" y="191.303115" style="fill: #ff0000; stroke: #ff0000"/>
     <use xlink:href="#m1c0d10e65b" x="286.76005" y="155.308889" style="fill: #ff0000; stroke: #ff0000"/>
     <use xlink:href="#m1c0d10e65b" x="224.117459" y="96.356305" style="fill: #ff0000; stroke: #ff0000"/>
     <use xlink:href="#m1c0d10e65b" x="305.037693" y="72.040931" style="fill: #ff0000; stroke: #ff0000"/>
     <use xlink:href="#m1c0d10e65b" x="154.955097" y="114.948631" style="fill: #ff0000; stroke: #ff0000"/>
     <use xlink:href="#m1c0d10e65b" x="245.562724" y="229.879422" style="fill: #ff0000; stroke: #ff0000"/>
     <use xlink:href="#m1c0d10e65b" x="188.528796" y="285.182912" style="fill: #ff0000; stroke: #ff0000"/>
     <use xlink:href="#m1c0d10e65b" x="272.130857" y="263.94187" style="fill: #ff0000; stroke: #ff0000"/>
     <use xlink:href="#m1c0d10e65b" x="306.838765" y="271.098055" style="fill: #ff0000; stroke: #ff0000"/>
     <use xlink:href="#m1c0d10e65b" x="265.073457" y="241.105322" style="fill: #ff0000; stroke: #ff0000"/>
     <use xlink:href="#m1c0d10e65b" x="217.17945" y="175.475765" style="fill: #ff0000; stroke: #ff0000"/>
     <use xlink:href="#m1c0d10e65b" x="286.015157" y="284.102615" style="fill: #ff0000; stroke: #ff0000"/>
     <use xlink:href="#m1c0d10e65b" x="356.762086" y="144.997663" style="fill: #ff0000; stroke: #ff0000"/>
     <use xlink:href="#m1c0d10e65b" x="243.973482" y="85.3736" style="fill: #ff0000; stroke: #ff0000"/>
     <use xlink:href="#m1c0d10e65b" x="260.236562" y="53.568" style="fill: #ff0000; stroke: #ff0000"/>
     <use xlink:href="#m1c0d10e65b" x="283.441144" y="58.176995" style="fill: #ff0000; stroke: #ff0000"/>
     <use xlink:href="#m1c0d10e65b" x="279.618841" y="212.776731" style="fill: #ff0000; stroke: #ff0000"/>
     <use xlink:href="#m1c0d10e65b" x="356.874381" y="168.531864" style="fill: #ff0000; stroke: #ff0000"/>
     <use xlink:href="#m1c0d10e65b" x="326.601368" y="86.338495" style="fill: #ff0000; stroke: #ff0000"/>
     <use xlink:href="#m1c0d10e65b" x="203.313007" y="81.96593" style="fill: #ff0000; stroke: #ff0000"/>
     <use xlink:href="#m1c0d10e65b" x="192.457239" y="55.860592" style="fill: #ff0000; stroke: #ff0000"/>
     <use xlink:href="#m1c0d10e65b" x="260.340893" y="216.392305" style="fill: #ff0000; stroke: #ff0000"/>
     <use xlink:href="#m1c0d10e65b" x="135.607117" y="241.853543" style="fill: #ff0000; stroke: #ff0000"/>
     <use xlink:href="#m1c0d10e65b" x="137.755737" y="198.851187" style="fill: #ff0000; stroke: #ff0000"/>
     <use xlink:href="#m1c0d10e65b" x="168.153847" y="184.886617" style="fill: #ff0000; stroke: #ff0000"/>
     <use xlink:href="#m1c0d10e65b" x="148.375308" y="177.823577" style="fill: #ff0000; stroke: #ff0000"/>
     <use xlink:href="#m1c0d10e65b" x="149.49557" y="137.191271" style="fill: #ff0000; stroke: #ff0000"/>
     <use xlink:href="#m1c0d10e65b" x="217.521791" y="117.887736" style="fill: #ff0000; stroke: #ff0000"/>
     <use xlink:href="#m1c0d10e65b" x="212.133745" y="289.614492" style="fill: #ff0000; stroke: #ff0000"/>
     <use xlink:href="#m1c0d10e65b" x="113.99976" y="192.363891" style="fill: #ff0000; stroke: #ff0000"/>
     <use xlink:href="#m1c0d10e65b" x="358.32024" y="194.675597" style="fill: #ff0000; stroke: #ff0000"/>
     <use xlink:href="#m1c0d10e65b" x="179.555952" y="114.161979" style="fill: #ff0000; stroke: #ff0000"/>
     <use xlink:href="#m1c0d10e65b" x="207.709135" y="194.513439" style="fill: #ff0000; stroke: #ff0000"/>
     <use xlink:href="#m1c0d10e65b" x="174.674299" y="136.819319" style="fill: #ff0000; stroke: #ff0000"/>
     <use xlink:href="#m1c0d10e65b" x="136.645811" y="98.005447" style="fill: #ff0000; stroke: #ff0000"/>
     <use xlink:href="#m1c0d10e65b" x="293.455437" y="173.29923" style="fill: #ff0000; stroke: #ff0000"/>
     <use xlink:href="#m1c0d10e65b" x="305.907367" y="101.686969" style="fill: #ff0000; stroke: #ff0000"/>
     <use xlink:href="#m1c0d10e65b" x="192.866175" y="212.562841" style="fill: #ff0000; stroke: #ff0000"/>
     <use xlink:href="#m1c0d10e65b" x="327.585493" y="255.532393" style="fill: #ff0000; stroke: #ff0000"/>
     <use xlink:href="#m1c0d10e65b" x="335.335291" y="183.828667" style="fill: #ff0000; stroke: #ff0000"/>
     <use xlink:href="#m1c0d10e65b" x="123.670674" y="220.088264" style="fill: #ff0000; stroke: #ff0000"/>
     <use xlink:href="#m1c0d10e65b" x="199.334678" y="104.651807" style="fill: #ff0000; stroke: #ff0000"/>
     <use xlink:href="#m1c0d10e65b" x="189.405718" y="241.533111" style="fill: #ff0000; stroke: #ff0000"/>
     <use xlink:href="#m1c0d10e65b" x="261.353283" y="290.403702" style="fill: #ff0000; stroke: #ff0000"/>
    </g>
   </g>
   <g id="line2d_17"/>
   <g id="patch_3">
    <path d="M 57.6 307.584 
L 57.6 41.472 
" style="fill: none; stroke: #000000; stroke-width: 0.8; stroke-linejoin: miter; stroke-linecap: square"/>
   </g>
   <g id="patch_4">
    <path d="M 414.72 307.584 
L 414.72 41.472 
" style="fill: none; stroke: #000000; stroke-width: 0.8; stroke-linejoin: miter; stroke-linecap: square"/>
   </g>
   <g id="patch_5">
    <path d="M 57.6 307.584 
L 414.72 307.584 
" style="fill: none; stroke: #000000; stroke-width: 0.8; stroke-linejoin: miter; stroke-linecap: square"/>
   </g>
   <g id="patch_6">
    <path d="M 57.6 41.472 
L 414.72 41.472 
" style="fill: none; stroke: #000000; stroke-width: 0.8; stroke-linejoin: miter; stroke-linecap: square"/>
   </g>
   <g id="text_17">
    <!-- Velocities at the final time -->
    <g transform="translate(116.81 35.472) scale(0.16 -0.16)">
     <defs>
      <path id="DejaVuSans-Bold-56" d="M 31 4666 
L 1241 4666 
L 2478 1222 
L 3713 4666 
L 4922 4666 
L 3194 0 
L 1759 0 
L 31 4666 
z
" transform="scale(0.015625)"/>
      <path id="DejaVuSans-Bold-65" d="M 4031 1759 
L 4031 1441 
L 1416 1441 
Q 1456 1047 1700 850 
Q 1944 653 2381 653 
Q 2734 653 3104 758 
Q 3475 863 3866 1075 
L 3866 213 
Q 3469 63 3072 -14 
Q 2675 -91 2278 -91 
Q 1328 -91 801 392 
Q 275 875 275 1747 
Q 275 2603 792 3093 
Q 1309 3584 2216 3584 
Q 3041 3584 3536 3087 
Q 4031 2591 4031 1759 
z
M 2881 2131 
Q 2881 2450 2695 2645 
Q 2509 2841 2209 2841 
Q 1884 2841 1681 2658 
Q 1478 2475 1428 2131 
L 2881 2131 
z
" transform="scale(0.015625)"/>
      <path id="DejaVuSans-Bold-6c" d="M 538 4863 
L 1656 4863 
L 1656 0 
L 538 0 
L 538 4863 
z
" transform="scale(0.015625)"/>
      <path id="DejaVuSans-Bold-6f" d="M 2203 2784 
Q 1831 2784 1636 2517 
Q 1441 2250 1441 1747 
Q 1441 1244 1636 976 
Q 1831 709 2203 709 
Q 2569 709 2762 976 
Q 2956 1244 2956 1747 
Q 2956 2250 2762 2517 
Q 2569 2784 2203 2784 
z
M 2203 3584 
Q 3106 3584 3614 3096 
Q 4122 2609 4122 1747 
Q 4122 884 3614 396 
Q 3106 -91 2203 -91 
Q 1297 -91 786 396 
Q 275 884 275 1747 
Q 275 2609 786 3096 
Q 1297 3584 2203 3584 
z
" transform="scale(0.015625)"/>
      <path id="DejaVuSans-Bold-63" d="M 3366 3391 
L 3366 2478 
Q 3138 2634 2908 2709 
Q 2678 2784 2431 2784 
Q 1963 2784 1702 2511 
Q 1441 2238 1441 1747 
Q 1441 1256 1702 982 
Q 1963 709 2431 709 
Q 2694 709 2930 787 
Q 3166 866 3366 1019 
L 3366 103 
Q 3103 6 2833 -42 
Q 2563 -91 2291 -91 
Q 1344 -91 809 395 
Q 275 881 275 1747 
Q 275 2613 809 3098 
Q 1344 3584 2291 3584 
Q 2566 3584 2833 3536 
Q 3100 3488 3366 3391 
z
" transform="scale(0.015625)"/>
      <path id="DejaVuSans-Bold-69" d="M 538 3500 
L 1656 3500 
L 1656 0 
L 538 0 
L 538 3500 
z
M 538 4863 
L 1656 4863 
L 1656 3950 
L 538 3950 
L 538 4863 
z
" transform="scale(0.015625)"/>
      <path id="DejaVuSans-Bold-74" d="M 1759 4494 
L 1759 3500 
L 2913 3500 
L 2913 2700 
L 1759 2700 
L 1759 1216 
Q 1759 972 1856 886 
Q 1953 800 2241 800 
L 2816 800 
L 2816 0 
L 1856 0 
Q 1194 0 917 276 
Q 641 553 641 1216 
L 641 2700 
L 84 2700 
L 84 3500 
L 641 3500 
L 641 4494 
L 1759 4494 
z
" transform="scale(0.015625)"/>
      <path id="DejaVuSans-Bold-73" d="M 3272 3391 
L 3272 2541 
Q 2913 2691 2578 2766 
Q 2244 2841 1947 2841 
Q 1628 2841 1473 2761 
Q 1319 2681 1319 2516 
Q 1319 2381 1436 2309 
Q 1553 2238 1856 2203 
L 2053 2175 
Q 2913 2066 3209 1816 
Q 3506 1566 3506 1031 
Q 3506 472 3093 190 
Q 2681 -91 1863 -91 
Q 1516 -91 1145 -36 
Q 775 19 384 128 
L 384 978 
Q 719 816 1070 734 
Q 1422 653 1784 653 
Q 2113 653 2278 743 
Q 2444 834 2444 1013 
Q 2444 1163 2330 1236 
Q 2216 1309 1875 1350 
L 1678 1375 
Q 931 1469 631 1722 
Q 331 1975 331 2491 
Q 331 3047 712 3315 
Q 1094 3584 1881 3584 
Q 2191 3584 2531 3537 
Q 2872 3491 3272 3391 
z
" transform="scale(0.015625)"/>
      <path id="DejaVuSans-Bold-20" transform="scale(0.015625)"/>
      <path id="DejaVuSans-Bold-61" d="M 2106 1575 
Q 1756 1575 1579 1456 
Q 1403 1338 1403 1106 
Q 1403 894 1545 773 
Q 1688 653 1941 653 
Q 2256 653 2472 879 
Q 2688 1106 2688 1447 
L 2688 1575 
L 2106 1575 
z
M 3816 1997 
L 3816 0 
L 2688 0 
L 2688 519 
Q 2463 200 2181 54 
Q 1900 -91 1497 -91 
Q 953 -91 614 226 
Q 275 544 275 1050 
Q 275 1666 698 1953 
Q 1122 2241 2028 2241 
L 2688 2241 
L 2688 2328 
Q 2688 2594 2478 2717 
Q 2269 2841 1825 2841 
Q 1466 2841 1156 2769 
Q 847 2697 581 2553 
L 581 3406 
Q 941 3494 1303 3539 
Q 1666 3584 2028 3584 
Q 2975 3584 3395 3211 
Q 3816 2838 3816 1997 
z
" transform="scale(0.015625)"/>
      <path id="DejaVuSans-Bold-68" d="M 4056 2131 
L 4056 0 
L 2931 0 
L 2931 347 
L 2931 1625 
Q 2931 2084 2911 2256 
Q 2891 2428 2841 2509 
Q 2775 2619 2662 2680 
Q 2550 2741 2406 2741 
Q 2056 2741 1856 2470 
Q 1656 2200 1656 1722 
L 1656 0 
L 538 0 
L 538 4863 
L 1656 4863 
L 1656 2988 
Q 1909 3294 2193 3439 
Q 2478 3584 2822 3584 
Q 3428 3584 3742 3212 
Q 4056 2841 4056 2131 
z
" transform="scale(0.015625)"/>
      <path id="DejaVuSans-Bold-66" d="M 2841 4863 
L 2841 4128 
L 2222 4128 
Q 1984 4128 1890 4042 
Q 1797 3956 1797 3744 
L 1797 3500 
L 2753 3500 
L 2753 2700 
L 1797 2700 
L 1797 0 
L 678 0 
L 678 2700 
L 122 2700 
L 122 3500 
L 678 3500 
L 678 3744 
Q 678 4316 997 4589 
Q 1316 4863 1984 4863 
L 2841 4863 
z
" transform="scale(0.015625)"/>
      <path id="DejaVuSans-Bold-6e" d="M 4056 2131 
L 4056 0 
L 2931 0 
L 2931 347 
L 2931 1631 
Q 2931 2084 2911 2256 
Q 2891 2428 2841 2509 
Q 2775 2619 2662 2680 
Q 2550 2741 2406 2741 
Q 2056 2741 1856 2470 
Q 1656 2200 1656 1722 
L 1656 0 
L 538 0 
L 538 3500 
L 1656 3500 
L 1656 2988 
Q 1909 3294 2193 3439 
Q 2478 3584 2822 3584 
Q 3428 3584 3742 3212 
Q 4056 2841 4056 2131 
z
" transform="scale(0.015625)"/>
      <path id="DejaVuSans-Bold-6d" d="M 3781 2919 
Q 3994 3244 4286 3414 
Q 4578 3584 4928 3584 
Q 5531 3584 5847 3212 
Q 6163 2841 6163 2131 
L 6163 0 
L 5038 0 
L 5038 1825 
Q 5041 1866 5042 1909 
Q 5044 1953 5044 2034 
Q 5044 2406 4934 2573 
Q 4825 2741 4581 2741 
Q 4263 2741 4089 2478 
Q 3916 2216 3909 1719 
L 3909 0 
L 2784 0 
L 2784 1825 
Q 2784 2406 2684 2573 
Q 2584 2741 2328 2741 
Q 2006 2741 1831 2477 
Q 1656 2213 1656 1722 
L 1656 0 
L 531 0 
L 531 3500 
L 1656 3500 
L 1656 2988 
Q 1863 3284 2130 3434 
Q 2397 3584 2719 3584 
Q 3081 3584 3359 3409 
Q 3638 3234 3781 2919 
z
" transform="scale(0.015625)"/>
     </defs>
     <use xlink:href="#DejaVuSans-Bold-56"/>
     <use xlink:href="#DejaVuSans-Bold-65" transform="translate(71.892578 0)"/>
     <use xlink:href="#DejaVuSans-Bold-6c" transform="translate(139.714844 0)"/>
     <use xlink:href="#DejaVuSans-Bold-6f" transform="translate(173.992188 0)"/>
     <use xlink:href="#DejaVuSans-Bold-63" transform="translate(242.693359 0)"/>
     <use xlink:href="#DejaVuSans-Bold-69" transform="translate(301.970703 0)"/>
     <use xlink:href="#DejaVuSans-Bold-74" transform="translate(336.248047 0)"/>
     <use xlink:href="#DejaVuSans-Bold-69" transform="translate(384.050781 0)"/>
     <use xlink:href="#DejaVuSans-Bold-65" transform="translate(418.328125 0)"/>
     <use xlink:href="#DejaVuSans-Bold-73" transform="translate(486.150391 0)"/>
     <use xlink:href="#DejaVuSans-Bold-20" transform="translate(545.671875 0)"/>
     <use xlink:href="#DejaVuSans-Bold-61" transform="translate(580.486328 0)"/>
     <use xlink:href="#DejaVuSans-Bold-74" transform="translate(647.966797 0)"/>
     <use xlink:href="#DejaVuSans-Bold-20" transform="translate(695.769531 0)"/>
     <use xlink:href="#DejaVuSans-Bold-74" transform="translate(730.583984 0)"/>
     <use xlink:href="#DejaVuSans-Bold-68" transform="translate(778.386719 0)"/>
     <use xlink:href="#DejaVuSans-Bold-65" transform="translate(849.578125 0)"/>
     <use xlink:href="#DejaVuSans-Bold-20" transform="translate(917.400391 0)"/>
     <use xlink:href="#DejaVuSans-Bold-66" transform="translate(952.214844 0)"/>
     <use xlink:href="#DejaVuSans-Bold-69" transform="translate(995.720703 0)"/>
     <use xlink:href="#DejaVuSans-Bold-6e" transform="translate(1029.998047 0)"/>
     <use xlink:href="#DejaVuSans-Bold-61" transform="translate(1101.189453 0)"/>
     <use xlink:href="#DejaVuSans-Bold-6c" transform="translate(1168.669922 0)"/>
     <use xlink:href="#DejaVuSans-Bold-20" transform="translate(1202.947266 0)"/>
     <use xlink:href="#DejaVuSans-Bold-74" transform="translate(1237.761719 0)"/>
     <use xlink:href="#DejaVuSans-Bold-69" transform="translate(1285.564453 0)"/>
     <use xlink:href="#DejaVuSans-Bold-6d" transform="translate(1319.841797 0)"/>
     <use xlink:href="#DejaVuSans-Bold-65" transform="translate(1424.041016 0)"/>
    </g>
   </g>
  </g>
 </g>
 <defs>
  <clipPath id="pc2e7462dfa">
   <rect x="57.6" y="41.472" width="357.12" height="266.112"/>
  </clipPath>
 </defs>
</svg>
