<?xml version="1.0" encoding="utf-8" standalone="no"?>
<!DOCTYPE svg PUBLIC "-//W3C//DTD SVG 1.1//EN"
  "http://www.w3.org/Graphics/SVG/1.1/DTD/svg11.dtd">
<svg xmlns:xlink="http://www.w3.org/1999/xlink" width="360pt" height="288pt" viewBox="0 0 360 288" xmlns="http://www.w3.org/2000/svg" version="1.1">
 <metadata>
  <rdf:RDF xmlns:dc="http://purl.org/dc/elements/1.1/" xmlns:cc="http://creativecommons.org/ns#" xmlns:rdf="http://www.w3.org/1999/02/22-rdf-syntax-ns#">
   <cc:Work>
    <dc:type rdf:resource="http://purl.org/dc/dcmitype/StillImage"/>
    <dc:date>2025-05-06T01:24:16.602052</dc:date>
    <dc:format>image/svg+xml</dc:format>
    <dc:creator>
     <cc:Agent>
      <dc:title>Matplotlib v3.10.1, https://matplotlib.org/</dc:title>
     </cc:Agent>
    </dc:creator>
   </cc:Work>
  </rdf:RDF>
 </metadata>
 <defs>
  <style type="text/css">*{stroke-linejoin: round; stroke-linecap: butt}</style>
 </defs>
 <g id="figure_1">
  <g id="patch_1">
   <path d="M 0 288 
L 360 288 
L 360 0 
L 0 0 
z
" style="fill: #ffffff"/>
  </g>
  <g id="axes_1">
   <g id="patch_2">
    <path d="M 45 256.32 
L 324 256.32 
L 324 34.56 
L 45 34.56 
z
" style="fill: #ffffff"/>
   </g>
   <g id="matplotlib.axis_1">
    <g id="xtick_1">
     <g id="line2d_1">
      <defs>
       <path id="m59746478eb" d="M 0 0 
L 0 3.5 
" style="stroke: #000000; stroke-width: 0.8"/>
      </defs>
      <g>
       <use xlink:href="#m59746478eb" x="100.777678" y="256.32" style="stroke: #000000; stroke-width: 0.8"/>
      </g>
     </g>
     <g id="text_1">
      <!-- 2000 -->
      <g transform="translate(88.052678 270.918437) scale(0.1 -0.1)">
       <defs>
        <path id="DejaVuSans-32" d="M 1228 531 
L 3431 531 
L 3431 0 
L 469 0 
L 469 531 
Q 828 903 1448 1529 
Q 2069 2156 2228 2338 
Q 2531 2678 2651 2914 
Q 2772 3150 2772 3378 
Q 2772 3750 2511 3984 
Q 2250 4219 1831 4219 
Q 1534 4219 1204 4116 
Q 875 4013 500 3803 
L 500 4441 
Q 881 4594 1212 4672 
Q 1544 4750 1819 4750 
Q 2544 4750 2975 4387 
Q 3406 4025 3406 3419 
Q 3406 3131 3298 2873 
Q 3191 2616 2906 2266 
Q 2828 2175 2409 1742 
Q 1991 1309 1228 531 
z
" transform="scale(0.015625)"/>
        <path id="DejaVuSans-30" d="M 2034 4250 
Q 1547 4250 1301 3770 
Q 1056 3291 1056 2328 
Q 1056 1369 1301 889 
Q 1547 409 2034 409 
Q 2525 409 2770 889 
Q 3016 1369 3016 2328 
Q 3016 3291 2770 3770 
Q 2525 4250 2034 4250 
z
M 2034 4750 
Q 2819 4750 3233 4129 
Q 3647 3509 3647 2328 
Q 3647 1150 3233 529 
Q 2819 -91 2034 -91 
Q 1250 -91 836 529 
Q 422 1150 422 2328 
Q 422 3509 836 4129 
Q 1250 4750 2034 4750 
z
" transform="scale(0.015625)"/>
       </defs>
       <use xlink:href="#DejaVuSans-32"/>
       <use xlink:href="#DejaVuSans-30" transform="translate(63.623047 0)"/>
       <use xlink:href="#DejaVuSans-30" transform="translate(127.246094 0)"/>
       <use xlink:href="#DejaVuSans-30" transform="translate(190.869141 0)"/>
      </g>
     </g>
    </g>
    <g id="xtick_2">
     <g id="line2d_2">
      <g>
       <use xlink:href="#m59746478eb" x="156.583258" y="256.32" style="stroke: #000000; stroke-width: 0.8"/>
      </g>
     </g>
     <g id="text_2">
      <!-- 4000 -->
      <g transform="translate(143.858258 270.918437) scale(0.1 -0.1)">
       <defs>
        <path id="DejaVuSans-34" d="M 2419 4116 
L 825 1625 
L 2419 1625 
L 2419 4116 
z
M 2253 4666 
L 3047 4666 
L 3047 1625 
L 3713 1625 
L 3713 1100 
L 3047 1100 
L 3047 0 
L 2419 0 
L 2419 1100 
L 313 1100 
L 313 1709 
L 2253 4666 
z
" transform="scale(0.015625)"/>
       </defs>
       <use xlink:href="#DejaVuSans-34"/>
       <use xlink:href="#DejaVuSans-30" transform="translate(63.623047 0)"/>
       <use xlink:href="#DejaVuSans-30" transform="translate(127.246094 0)"/>
       <use xlink:href="#DejaVuSans-30" transform="translate(190.869141 0)"/>
      </g>
     </g>
    </g>
    <g id="xtick_3">
     <g id="line2d_3">
      <g>
       <use xlink:href="#m59746478eb" x="212.388839" y="256.32" style="stroke: #000000; stroke-width: 0.8"/>
      </g>
     </g>
     <g id="text_3">
      <!-- 6000 -->
      <g transform="translate(199.663839 270.918437) scale(0.1 -0.1)">
       <defs>
        <path id="DejaVuSans-36" d="M 2113 2584 
Q 1688 2584 1439 2293 
Q 1191 2003 1191 1497 
Q 1191 994 1439 701 
Q 1688 409 2113 409 
Q 2538 409 2786 701 
Q 3034 994 3034 1497 
Q 3034 2003 2786 2293 
Q 2538 2584 2113 2584 
z
M 3366 4563 
L 3366 3988 
Q 3128 4100 2886 4159 
Q 2644 4219 2406 4219 
Q 1781 4219 1451 3797 
Q 1122 3375 1075 2522 
Q 1259 2794 1537 2939 
Q 1816 3084 2150 3084 
Q 2853 3084 3261 2657 
Q 3669 2231 3669 1497 
Q 3669 778 3244 343 
Q 2819 -91 2113 -91 
Q 1303 -91 875 529 
Q 447 1150 447 2328 
Q 447 3434 972 4092 
Q 1497 4750 2381 4750 
Q 2619 4750 2861 4703 
Q 3103 4656 3366 4563 
z
" transform="scale(0.015625)"/>
       </defs>
       <use xlink:href="#DejaVuSans-36"/>
       <use xlink:href="#DejaVuSans-30" transform="translate(63.623047 0)"/>
       <use xlink:href="#DejaVuSans-30" transform="translate(127.246094 0)"/>
       <use xlink:href="#DejaVuSans-30" transform="translate(190.869141 0)"/>
      </g>
     </g>
    </g>
    <g id="xtick_4">
     <g id="line2d_4">
      <g>
       <use xlink:href="#m59746478eb" x="268.194419" y="256.32" style="stroke: #000000; stroke-width: 0.8"/>
      </g>
     </g>
     <g id="text_4">
      <!-- 8000 -->
      <g transform="translate(255.469419 270.918437) scale(0.1 -0.1)">
       <defs>
        <path id="DejaVuSans-38" d="M 2034 2216 
Q 1584 2216 1326 1975 
Q 1069 1734 1069 1313 
Q 1069 891 1326 650 
Q 1584 409 2034 409 
Q 2484 409 2743 651 
Q 3003 894 3003 1313 
Q 3003 1734 2745 1975 
Q 2488 2216 2034 2216 
z
M 1403 2484 
Q 997 2584 770 2862 
Q 544 3141 544 3541 
Q 544 4100 942 4425 
Q 1341 4750 2034 4750 
Q 2731 4750 3128 4425 
Q 3525 4100 3525 3541 
Q 3525 3141 3298 2862 
Q 3072 2584 2669 2484 
Q 3125 2378 3379 2068 
Q 3634 1759 3634 1313 
Q 3634 634 3220 271 
Q 2806 -91 2034 -91 
Q 1263 -91 848 271 
Q 434 634 434 1313 
Q 434 1759 690 2068 
Q 947 2378 1403 2484 
z
M 1172 3481 
Q 1172 3119 1398 2916 
Q 1625 2713 2034 2713 
Q 2441 2713 2670 2916 
Q 2900 3119 2900 3481 
Q 2900 3844 2670 4047 
Q 2441 4250 2034 4250 
Q 1625 4250 1398 4047 
Q 1172 3844 1172 3481 
z
" transform="scale(0.015625)"/>
       </defs>
       <use xlink:href="#DejaVuSans-38"/>
       <use xlink:href="#DejaVuSans-30" transform="translate(63.623047 0)"/>
       <use xlink:href="#DejaVuSans-30" transform="translate(127.246094 0)"/>
       <use xlink:href="#DejaVuSans-30" transform="translate(190.869141 0)"/>
      </g>
     </g>
    </g>
    <g id="xtick_5">
     <g id="line2d_5">
      <g>
       <use xlink:href="#m59746478eb" x="324" y="256.32" style="stroke: #000000; stroke-width: 0.8"/>
      </g>
     </g>
     <g id="text_5">
      <!-- 10000 -->
      <g transform="translate(308.09375 270.918437) scale(0.1 -0.1)">
       <defs>
        <path id="DejaVuSans-31" d="M 794 531 
L 1825 531 
L 1825 4091 
L 703 3866 
L 703 4441 
L 1819 4666 
L 2450 4666 
L 2450 531 
L 3481 531 
L 3481 0 
L 794 0 
L 794 531 
z
" transform="scale(0.015625)"/>
       </defs>
       <use xlink:href="#DejaVuSans-31"/>
       <use xlink:href="#DejaVuSans-30" transform="translate(63.623047 0)"/>
       <use xlink:href="#DejaVuSans-30" transform="translate(127.246094 0)"/>
       <use xlink:href="#DejaVuSans-30" transform="translate(190.869141 0)"/>
       <use xlink:href="#DejaVuSans-30" transform="translate(254.492188 0)"/>
      </g>
     </g>
    </g>
    <g id="text_6">
     <!-- timestep -->
     <g transform="translate(153.543594 287.635938) scale(0.14 -0.14)">
      <defs>
       <path id="DejaVuSans-74" d="M 1172 4494 
L 1172 3500 
L 2356 3500 
L 2356 3053 
L 1172 3053 
L 1172 1153 
Q 1172 725 1289 603 
Q 1406 481 1766 481 
L 2356 481 
L 2356 0 
L 1766 0 
Q 1100 0 847 248 
Q 594 497 594 1153 
L 594 3053 
L 172 3053 
L 172 3500 
L 594 3500 
L 594 4494 
L 1172 4494 
z
" transform="scale(0.015625)"/>
       <path id="DejaVuSans-69" d="M 603 3500 
L 1178 3500 
L 1178 0 
L 603 0 
L 603 3500 
z
M 603 4863 
L 1178 4863 
L 1178 4134 
L 603 4134 
L 603 4863 
z
" transform="scale(0.015625)"/>
       <path id="DejaVuSans-6d" d="M 3328 2828 
Q 3544 3216 3844 3400 
Q 4144 3584 4550 3584 
Q 5097 3584 5394 3201 
Q 5691 2819 5691 2113 
L 5691 0 
L 5113 0 
L 5113 2094 
Q 5113 2597 4934 2840 
Q 4756 3084 4391 3084 
Q 3944 3084 3684 2787 
Q 3425 2491 3425 1978 
L 3425 0 
L 2847 0 
L 2847 2094 
Q 2847 2600 2669 2842 
Q 2491 3084 2119 3084 
Q 1678 3084 1418 2786 
Q 1159 2488 1159 1978 
L 1159 0 
L 581 0 
L 581 3500 
L 1159 3500 
L 1159 2956 
Q 1356 3278 1631 3431 
Q 1906 3584 2284 3584 
Q 2666 3584 2933 3390 
Q 3200 3197 3328 2828 
z
" transform="scale(0.015625)"/>
       <path id="DejaVuSans-65" d="M 3597 1894 
L 3597 1613 
L 953 1613 
Q 991 1019 1311 708 
Q 1631 397 2203 397 
Q 2534 397 2845 478 
Q 3156 559 3463 722 
L 3463 178 
Q 3153 47 2828 -22 
Q 2503 -91 2169 -91 
Q 1331 -91 842 396 
Q 353 884 353 1716 
Q 353 2575 817 3079 
Q 1281 3584 2069 3584 
Q 2775 3584 3186 3129 
Q 3597 2675 3597 1894 
z
M 3022 2063 
Q 3016 2534 2758 2815 
Q 2500 3097 2075 3097 
Q 1594 3097 1305 2825 
Q 1016 2553 972 2059 
L 3022 2063 
z
" transform="scale(0.015625)"/>
       <path id="DejaVuSans-73" d="M 2834 3397 
L 2834 2853 
Q 2591 2978 2328 3040 
Q 2066 3103 1784 3103 
Q 1356 3103 1142 2972 
Q 928 2841 928 2578 
Q 928 2378 1081 2264 
Q 1234 2150 1697 2047 
L 1894 2003 
Q 2506 1872 2764 1633 
Q 3022 1394 3022 966 
Q 3022 478 2636 193 
Q 2250 -91 1575 -91 
Q 1294 -91 989 -36 
Q 684 19 347 128 
L 347 722 
Q 666 556 975 473 
Q 1284 391 1588 391 
Q 1994 391 2212 530 
Q 2431 669 2431 922 
Q 2431 1156 2273 1281 
Q 2116 1406 1581 1522 
L 1381 1569 
Q 847 1681 609 1914 
Q 372 2147 372 2553 
Q 372 3047 722 3315 
Q 1072 3584 1716 3584 
Q 2034 3584 2315 3537 
Q 2597 3491 2834 3397 
z
" transform="scale(0.015625)"/>
       <path id="DejaVuSans-70" d="M 1159 525 
L 1159 -1331 
L 581 -1331 
L 581 3500 
L 1159 3500 
L 1159 2969 
Q 1341 3281 1617 3432 
Q 1894 3584 2278 3584 
Q 2916 3584 3314 3078 
Q 3713 2572 3713 1747 
Q 3713 922 3314 415 
Q 2916 -91 2278 -91 
Q 1894 -91 1617 61 
Q 1341 213 1159 525 
z
M 3116 1747 
Q 3116 2381 2855 2742 
Q 2594 3103 2138 3103 
Q 1681 3103 1420 2742 
Q 1159 2381 1159 1747 
Q 1159 1113 1420 752 
Q 1681 391 2138 391 
Q 2594 391 2855 752 
Q 3116 1113 3116 1747 
z
" transform="scale(0.015625)"/>
      </defs>
      <use xlink:href="#DejaVuSans-74"/>
      <use xlink:href="#DejaVuSans-69" transform="translate(39.208984 0)"/>
      <use xlink:href="#DejaVuSans-6d" transform="translate(66.992188 0)"/>
      <use xlink:href="#DejaVuSans-65" transform="translate(164.404297 0)"/>
      <use xlink:href="#DejaVuSans-73" transform="translate(225.927734 0)"/>
      <use xlink:href="#DejaVuSans-74" transform="translate(278.027344 0)"/>
      <use xlink:href="#DejaVuSans-65" transform="translate(317.236328 0)"/>
      <use xlink:href="#DejaVuSans-70" transform="translate(378.759766 0)"/>
     </g>
    </g>
   </g>
   <g id="matplotlib.axis_2">
    <g id="ytick_1">
     <g id="line2d_6">
      <defs>
       <path id="m97755488ab" d="M 0 0 
L -3.5 0 
" style="stroke: #000000; stroke-width: 0.8"/>
      </defs>
      <g>
       <use xlink:href="#m97755488ab" x="45" y="246.24" style="stroke: #000000; stroke-width: 0.8"/>
      </g>
     </g>
     <g id="text_7">
      <!-- 0.0 -->
      <g transform="translate(22.096875 250.039219) scale(0.1 -0.1)">
       <defs>
        <path id="DejaVuSans-2e" d="M 684 794 
L 1344 794 
L 1344 0 
L 684 0 
L 684 794 
z
" transform="scale(0.015625)"/>
       </defs>
       <use xlink:href="#DejaVuSans-30"/>
       <use xlink:href="#DejaVuSans-2e" transform="translate(63.623047 0)"/>
       <use xlink:href="#DejaVuSans-30" transform="translate(95.410156 0)"/>
      </g>
     </g>
    </g>
    <g id="ytick_2">
     <g id="line2d_7">
      <g>
       <use xlink:href="#m97755488ab" x="45" y="205.92" style="stroke: #000000; stroke-width: 0.8"/>
      </g>
     </g>
     <g id="text_8">
      <!-- 0.2 -->
      <g transform="translate(22.096875 209.719219) scale(0.1 -0.1)">
       <use xlink:href="#DejaVuSans-30"/>
       <use xlink:href="#DejaVuSans-2e" transform="translate(63.623047 0)"/>
       <use xlink:href="#DejaVuSans-32" transform="translate(95.410156 0)"/>
      </g>
     </g>
    </g>
    <g id="ytick_3">
     <g id="line2d_8">
      <g>
       <use xlink:href="#m97755488ab" x="45" y="165.6" style="stroke: #000000; stroke-width: 0.8"/>
      </g>
     </g>
     <g id="text_9">
      <!-- 0.4 -->
      <g transform="translate(22.096875 169.399219) scale(0.1 -0.1)">
       <use xlink:href="#DejaVuSans-30"/>
       <use xlink:href="#DejaVuSans-2e" transform="translate(63.623047 0)"/>
       <use xlink:href="#DejaVuSans-34" transform="translate(95.410156 0)"/>
      </g>
     </g>
    </g>
    <g id="ytick_4">
     <g id="line2d_9">
      <g>
       <use xlink:href="#m97755488ab" x="45" y="125.28" style="stroke: #000000; stroke-width: 0.8"/>
      </g>
     </g>
     <g id="text_10">
      <!-- 0.6 -->
      <g transform="translate(22.096875 129.079219) scale(0.1 -0.1)">
       <use xlink:href="#DejaVuSans-30"/>
       <use xlink:href="#DejaVuSans-2e" transform="translate(63.623047 0)"/>
       <use xlink:href="#DejaVuSans-36" transform="translate(95.410156 0)"/>
      </g>
     </g>
    </g>
    <g id="ytick_5">
     <g id="line2d_10">
      <g>
       <use xlink:href="#m97755488ab" x="45" y="84.96" style="stroke: #000000; stroke-width: 0.8"/>
      </g>
     </g>
     <g id="text_11">
      <!-- 0.8 -->
      <g transform="translate(22.096875 88.759219) scale(0.1 -0.1)">
       <use xlink:href="#DejaVuSans-30"/>
       <use xlink:href="#DejaVuSans-2e" transform="translate(63.623047 0)"/>
       <use xlink:href="#DejaVuSans-38" transform="translate(95.410156 0)"/>
      </g>
     </g>
    </g>
    <g id="ytick_6">
     <g id="line2d_11">
      <g>
       <use xlink:href="#m97755488ab" x="45" y="44.64" style="stroke: #000000; stroke-width: 0.8"/>
      </g>
     </g>
     <g id="text_12">
      <!-- 1.0 -->
      <g transform="translate(22.096875 48.439219) scale(0.1 -0.1)">
       <use xlink:href="#DejaVuSans-31"/>
       <use xlink:href="#DejaVuSans-2e" transform="translate(63.623047 0)"/>
       <use xlink:href="#DejaVuSans-30" transform="translate(95.410156 0)"/>
      </g>
     </g>
    </g>
    <g id="text_13">
     <!-- amount -->
     <g transform="translate(15.185312 172.447969) rotate(-90) scale(0.14 -0.14)">
      <defs>
       <path id="DejaVuSans-61" d="M 2194 1759 
Q 1497 1759 1228 1600 
Q 959 1441 959 1056 
Q 959 750 1161 570 
Q 1363 391 1709 391 
Q 2188 391 2477 730 
Q 2766 1069 2766 1631 
L 2766 1759 
L 2194 1759 
z
M 3341 1997 
L 3341 0 
L 2766 0 
L 2766 531 
Q 2569 213 2275 61 
Q 1981 -91 1556 -91 
Q 1019 -91 701 211 
Q 384 513 384 1019 
Q 384 1609 779 1909 
Q 1175 2209 1959 2209 
L 2766 2209 
L 2766 2266 
Q 2766 2663 2505 2880 
Q 2244 3097 1772 3097 
Q 1472 3097 1187 3025 
Q 903 2953 641 2809 
L 641 3341 
Q 956 3463 1253 3523 
Q 1550 3584 1831 3584 
Q 2591 3584 2966 3190 
Q 3341 2797 3341 1997 
z
" transform="scale(0.015625)"/>
       <path id="DejaVuSans-6f" d="M 1959 3097 
Q 1497 3097 1228 2736 
Q 959 2375 959 1747 
Q 959 1119 1226 758 
Q 1494 397 1959 397 
Q 2419 397 2687 759 
Q 2956 1122 2956 1747 
Q 2956 2369 2687 2733 
Q 2419 3097 1959 3097 
z
M 1959 3584 
Q 2709 3584 3137 3096 
Q 3566 2609 3566 1747 
Q 3566 888 3137 398 
Q 2709 -91 1959 -91 
Q 1206 -91 779 398 
Q 353 888 353 1747 
Q 353 2609 779 3096 
Q 1206 3584 1959 3584 
z
" transform="scale(0.015625)"/>
       <path id="DejaVuSans-75" d="M 544 1381 
L 544 3500 
L 1119 3500 
L 1119 1403 
Q 1119 906 1312 657 
Q 1506 409 1894 409 
Q 2359 409 2629 706 
Q 2900 1003 2900 1516 
L 2900 3500 
L 3475 3500 
L 3475 0 
L 2900 0 
L 2900 538 
Q 2691 219 2414 64 
Q 2138 -91 1772 -91 
Q 1169 -91 856 284 
Q 544 659 544 1381 
z
M 1991 3584 
L 1991 3584 
z
" transform="scale(0.015625)"/>
       <path id="DejaVuSans-6e" d="M 3513 2113 
L 3513 0 
L 2938 0 
L 2938 2094 
Q 2938 2591 2744 2837 
Q 2550 3084 2163 3084 
Q 1697 3084 1428 2787 
Q 1159 2491 1159 1978 
L 1159 0 
L 581 0 
L 581 3500 
L 1159 3500 
L 1159 2956 
Q 1366 3272 1645 3428 
Q 1925 3584 2291 3584 
Q 2894 3584 3203 3211 
Q 3513 2838 3513 2113 
z
" transform="scale(0.015625)"/>
      </defs>
      <use xlink:href="#DejaVuSans-61"/>
      <use xlink:href="#DejaVuSans-6d" transform="translate(61.279297 0)"/>
      <use xlink:href="#DejaVuSans-6f" transform="translate(158.691406 0)"/>
      <use xlink:href="#DejaVuSans-75" transform="translate(219.873047 0)"/>
      <use xlink:href="#DejaVuSans-6e" transform="translate(283.251953 0)"/>
      <use xlink:href="#DejaVuSans-74" transform="translate(346.630859 0)"/>
     </g>
    </g>
   </g>
   <g id="line2d_12">
    <path d="M 45 226.465946 
L 45.055806 226.380583 
L 45.083708 226.422899 
L 45.223222 227.090496 
L 45.641764 229.270398 
L 45.781278 229.321493 
L 46.227723 229.206858 
L 46.478848 229.292219 
L 46.757876 229.097877 
L 47.260126 228.264497 
L 47.483348 227.222997 
L 47.873987 223.995835 
L 48.292529 221.330782 
L 48.59946 220.622009 
L 48.906391 220.375701 
L 49.10171 220.266233 
L 49.464446 219.632299 
L 49.715572 218.706351 
L 50.887489 211.921089 
L 51.529253 207.005555 
L 52.450045 202.724854 
L 53.454545 197.497223 
L 53.90099 193.734338 
L 54.933393 184.025658 
L 55.212421 183.103581 
L 55.379838 183.124854 
L 55.60306 183.076912 
L 55.742574 182.730569 
L 56.49595 180.394226 
L 56.858686 178.982259 
L 57.193519 176.702594 
L 58.170117 169.231267 
L 58.393339 168.844736 
L 58.50495 168.978402 
L 58.89559 169.607637 
L 59.146715 169.795388 
L 59.481548 170.060934 
L 59.676868 169.895653 
L 60.067507 169.180848 
L 60.318632 168.026379 
L 60.737174 164.946484 
L 61.351035 160.362535 
L 61.518452 160.155284 
L 61.741674 160.380651 
L 62.522952 161.250527 
L 62.857786 160.940298 
L 63.387939 160.065723 
L 63.666967 158.975332 
L 64.810981 154.197968 
L 65.173717 153.992531 
L 65.452745 154.166566 
L 66.010801 154.97765 
L 66.178218 155.022079 
L 66.289829 154.792799 
L 66.847885 152.777414 
L 67.461746 149.683023 
L 67.79658 148.261492 
L 68.10351 147.714808 
L 68.29883 147.674179 
L 68.466247 147.819489 
L 68.828983 148.531054 
L 69.080108 148.73974 
L 69.247525 148.600381 
L 69.470747 148.084106 
L 70.084608 145.672643 
L 70.782178 142.777222 
L 71.172817 142.087086 
L 71.451845 141.786154 
L 71.675068 141.928309 
L 71.89829 142.184243 
L 72.456346 142.873437 
L 72.791179 142.880574 
L 73.209721 142.710315 
L 73.516652 142.061648 
L 73.851485 140.690195 
L 74.186319 139.64806 
L 74.576958 138.787783 
L 75.414041 138.0389 
L 75.888389 137.84126 
L 76.530153 136.243724 
L 77.227723 133.61599 
L 77.590459 132.556713 
L 78.232223 132.425913 
L 78.706571 132.425907 
L 79.069307 132.476809 
L 79.376238 131.615257 
L 80.715572 127.169659 
L 80.994599 126.825063 
L 81.329433 126.685839 
L 81.831683 126.690477 
L 82.110711 126.615938 
L 82.529253 126.179915 
L 82.808281 125.497311 
L 83.115212 124.170015 
L 83.812781 121.306414 
L 84.119712 120.98277 
L 84.426643 120.9081 
L 84.705671 120.848368 
L 85.40324 120.315725 
L 86.10081 119.216741 
L 86.60306 117.710324 
L 87.272727 115.722956 
L 87.579658 115.27923 
L 87.774977 115.325688 
L 88.444644 115.703268 
L 88.779478 115.409418 
L 89.170117 114.761316 
L 90.621062 111.433103 
L 90.983798 111.144805 
L 91.40234 111.2323 
L 91.653465 111.340782 
L 91.960396 111.15876 
L 92.964896 110.230442 
L 93.29973 109.118715 
L 93.634563 108.168771 
L 93.913591 107.936342 
L 94.220522 107.814173 
L 94.527453 107.933934 
L 94.890189 107.649291 
L 95.531953 106.594155 
L 97.206121 103.139964 
L 97.680468 102.523825 
L 97.90369 102.508453 
L 98.210621 102.561459 
L 98.684968 102.665435 
L 98.936094 102.215498 
L 99.382538 101.473039 
L 99.633663 101.041261 
L 100.108011 100.313056 
L 100.889289 99.290845 
L 101.252025 99.420553 
L 101.726373 99.451656 
L 101.977498 99.336999 
L 102.591359 98.663777 
L 104.265527 96.149916 
L 104.767777 95.717436 
L 105.074707 95.601163 
L 105.29793 95.703686 
L 105.772277 96.126688 
L 106.023402 95.977819 
L 106.30243 95.908808 
L 106.581458 95.876369 
L 106.832583 95.684528 
L 107.306931 95.543574 
L 107.613861 95.620359 
L 108.116112 95.847502 
L 108.590459 95.783598 
L 109.594959 94.381093 
L 109.90189 94.148044 
L 110.766877 93.040292 
L 112.134113 92.268013 
L 113.333933 90.212395 
L 113.752475 90.2738 
L 114.310531 90.501303 
L 115.091809 90.497092 
L 116.068407 89.340785 
L 117.017102 89.140508 
L 117.686769 89.070053 
L 118.244824 88.964153 
L 118.635464 88.68821 
L 119.667867 87.566918 
L 119.918992 87.637996 
L 120.421242 87.995251 
L 121.007201 87.990791 
L 121.70477 87.855926 
L 122.039604 87.766692 
L 122.960396 86.778689 
L 123.378938 86.318261 
L 125.527453 85.670969 
L 126.057606 85.367163 
L 126.448245 85.482384 
L 126.69937 85.655573 
L 127.173717 86.127451 
L 127.564356 86.108644 
L 128.513051 85.527554 
L 128.931593 85.151792 
L 130.884788 84.599312 
L 131.163816 84.561746 
L 132.810081 84.033174 
L 133.20072 83.797922 
L 134.316832 83.556446 
L 134.679568 83.441412 
L 135.237624 83.301732 
L 135.711971 83.110609 
L 136.632763 83.412291 
L 137.051305 83.567619 
L 137.888389 84.346445 
L 138.530153 84.327816 
L 139.813681 83.864851 
L 140.232223 83.57773 
L 141.013501 83.036793 
L 141.878488 82.438639 
L 142.157516 82.536635 
L 142.60396 82.695994 
L 143.859586 82.513052 
L 144.529253 82.287362 
L 145.310531 82.062191 
L 145.980198 81.918985 
L 147.235824 81.882995 
L 148.045005 82.347861 
L 148.686769 82.511629 
L 149.747075 82.623107 
L 150.556256 82.854763 
L 154.09991 82.608616 
L 154.825383 82.471249 
L 156.332133 82.600801 
L 157.19712 82.397897 
L 157.727273 82.269956 
L 158.424842 82.001596 
L 158.815482 82.133131 
L 159.317732 82.237019 
L 160.322232 82.291238 
L 161.80108 81.993685 
L 162.721872 82.193912 
L 164.423942 82.746094 
L 165.930693 83.265942 
L 166.516652 83.131435 
L 167.772277 82.451965 
L 168.637264 81.829251 
L 169.19532 81.665595 
L 170.227723 81.801722 
L 171.539154 82.058295 
L 172.069307 82.191407 
L 173.324932 82.668917 
L 174.162016 82.545372 
L 174.887489 82.727675 
L 175.808281 83.251938 
L 176.226823 83.40726 
L 177.454545 83.529977 
L 178.207921 83.060802 
L 179.547255 82.303168 
L 180.384338 82.122315 
L 181.388839 82.23341 
L 182.811881 82.549562 
L 184.40234 82.395392 
L 185.434743 82.022262 
L 186.020702 82.08554 
L 187.834383 82.514269 
L 189.062106 82.881729 
L 190.708371 82.625361 
L 191.740774 82.160705 
L 194.0009 81.846654 
L 194.642664 81.812806 
L 195.675068 81.810364 
L 196.763276 82.132541 
L 198.883888 82.928583 
L 201.060306 83.287344 
L 201.590459 83.098761 
L 205.49685 81.891387 
L 207.171017 82.036463 
L 207.980198 82.022553 
L 210.407741 82.274295 
L 211.440144 82.71592 
L 212.528353 83.280872 
L 213.839784 83.227836 
L 214.481548 83.032866 
L 217.383438 82.055833 
L 218.49955 81.918146 
L 219.225023 82.088525 
L 221.764176 82.851198 
L 225.0009 82.705242 
L 227.344734 82.914868 
L 228.321332 82.55383 
L 229.632763 82.267195 
L 231.167417 82.214103 
L 232.562556 81.927912 
L 234.627363 82.126474 
L 235.157516 82.340337 
L 236.022502 82.784046 
L 237.306031 82.909827 
L 238.0036 82.713454 
L 239.789379 82.13478 
L 241.045005 82.048543 
L 241.60306 82.187234 
L 242.272727 82.327099 
L 243.612061 82.540252 
L 244.588659 82.598363 
L 246.653465 82.041687 
L 247.323132 82.275936 
L 248.80198 82.953411 
L 250.085509 83.058326 
L 250.978398 82.902633 
L 252.59676 82.438849 
L 254.075608 81.84206 
L 255.247525 81.622759 
L 255.972997 81.720448 
L 256.531053 82.03332 
L 258.093609 82.996453 
L 258.986499 83.0741 
L 260.688569 82.696081 
L 261.888389 82.411957 
L 262.864986 82.552242 
L 264.818182 82.684227 
L 266.659766 82.627706 
L 267.664266 82.456593 
L 268.891989 82.311497 
L 270.119712 82.357531 
L 270.733573 82.464567 
L 271.877588 82.988174 
L 272.937894 83.381253 
L 273.551755 83.281519 
L 276.007201 83.007727 
L 276.732673 82.955858 
L 277.569757 82.776181 
L 278.490549 82.641881 
L 280.276328 82.174126 
L 281.113411 82.17111 
L 281.894689 82.13629 
L 282.564356 82.179997 
L 285.075608 82.761298 
L 285.689469 82.956465 
L 287.69847 82.990041 
L 288.284428 82.754047 
L 289.093609 82.495726 
L 290.265527 82.523268 
L 293.362736 82.810551 
L 294.227723 82.929507 
L 295.567057 82.946936 
L 297.771377 82.421149 
L 298.552655 82.436513 
L 299.50135 82.639248 
L 300.282628 82.718843 
L 301.761476 82.647512 
L 303.10081 82.512065 
L 303.60306 82.506109 
L 304.551755 82.517022 
L 307.035104 82.000113 
L 308.430243 82.386428 
L 309.490549 82.822334 
L 310.439244 82.699925 
L 311.192619 82.422538 
L 313.536454 81.405689 
L 314.317732 81.590179 
L 316.10351 82.149915 
L 316.745275 82.284642 
L 318.307831 82.345503 
L 319.228623 82.291296 
L 319.786679 82.497838 
L 320.567957 82.837187 
L 322.521152 83.111066 
L 324 82.887304 
L 324 82.887304 
" clip-path="url(#p86b7fb1328)" style="fill: none; stroke: #000000; stroke-width: 1.5; stroke-linecap: square"/>
   </g>
   <g id="line2d_13">
    <path d="M 45 232.178202 
L 45.139514 232.646902 
L 45.558056 234.193656 
L 45.669667 234.117994 
L 46.339334 233.187237 
L 46.562556 233.194981 
L 46.729973 233.144243 
L 47.20432 233.114389 
L 47.39964 232.745307 
L 48.041404 231.502205 
L 49.157516 231.578285 
L 49.380738 231.133617 
L 49.827183 229.914493 
L 50.078308 229.657303 
L 50.245725 229.489704 
L 50.859586 228.275365 
L 51.278128 227.655349 
L 51.529253 227.761565 
L 52.952295 229.108566 
L 53.175518 229.293767 
L 53.426643 229.391436 
L 53.621962 229.490727 
L 54.375338 228.985503 
L 54.59856 229.304827 
L 55.407741 230.774939 
L 55.463546 230.722027 
L 56.077408 229.955033 
L 56.412241 229.907856 
L 56.607561 230.031523 
L 57.054005 230.421892 
L 57.305131 230.079205 
L 57.918992 229.370547 
L 58.225923 229.322162 
L 58.449145 229.290558 
L 58.756076 229.380989 
L 58.979298 229.116442 
L 59.39784 228.648243 
L 59.70477 228.5918 
L 60.290729 228.743368 
L 60.541854 228.847936 
L 60.960396 228.566161 
L 61.825383 227.575931 
L 62.29973 227.553163 
L 62.969397 227.782817 
L 63.164716 227.823971 
L 63.360036 227.87924 
L 63.722772 227.931038 
L 64.029703 227.650063 
L 64.225023 227.568869 
L 64.727273 227.612958 
L 65.313231 227.339149 
L 65.564356 227.210521 
L 66.90369 226.522214 
L 67.210621 226.645914 
L 68.047705 226.418485 
L 68.410441 226.898613 
L 68.856886 227.468463 
L 69.052205 227.354973 
L 69.526553 226.976222 
L 69.749775 227.217226 
L 70.028803 227.436066 
L 70.69847 227.315198 
L 70.949595 227.520179 
L 71.256526 227.807608 
L 71.507651 227.796448 
L 72.149415 227.675255 
L 72.623762 228.134932 
L 73.09811 228.733784 
L 73.656166 228.335375 
L 75.023402 227.066393 
L 75.30243 226.97388 
L 75.525653 226.635637 
L 76.055806 225.839532 
L 76.251125 225.831425 
L 76.669667 226.056229 
L 77.646265 225.415076 
L 78.343834 225.424441 
L 78.511251 225.329749 
L 78.790279 225.173316 
L 79.264626 225.232435 
L 79.934293 224.843403 
L 80.10171 224.935505 
L 80.492349 225.034835 
L 80.659766 224.861128 
L 81.943294 223.355555 
L 82.138614 223.545381 
L 83.031503 224.939321 
L 83.282628 225.159845 
L 83.450045 225.122088 
L 84.287129 224.390968 
L 84.705671 224.463252 
L 85.235824 224.648334 
L 85.59856 224.65139 
L 85.849685 224.370101 
L 86.547255 223.443211 
L 86.826283 223.470823 
L 87.161116 223.506636 
L 88.137714 223.345097 
L 88.50045 223.020845 
L 88.751575 223.036577 
L 89.811881 223.868314 
L 91.374437 223.829111 
L 91.709271 224.045878 
L 92.406841 224.053789 
L 92.685869 224.143108 
L 93.243924 224.079349 
L 94.49955 223.28003 
L 94.750675 223.190948 
L 94.973897 223.112594 
L 95.559856 222.654904 
L 96.117912 222.447936 
L 96.564356 222.213261 
L 96.759676 222.399554 
L 97.094509 222.697943 
L 97.373537 222.8284 
L 97.680468 222.917462 
L 98.238524 222.640977 
L 98.545455 222.564759 
L 99.075608 222.348252 
L 99.382538 222.151874 
L 100.191719 221.19198 
L 100.638164 221.023465 
L 101.0009 220.877712 
L 101.865887 221.059114 
L 102.284428 221.313406 
L 102.479748 221.300964 
L 102.89829 221.217872 
L 103.316832 221.141649 
L 104.656166 220.103553 
L 104.935194 219.894644 
L 105.381638 219.385683 
L 105.744374 218.81758 
L 106.274527 218.053515 
L 106.553555 217.938606 
L 107.390639 217.254958 
L 107.837084 217.21108 
L 108.506751 216.978971 
L 109.176418 217.366103 
L 109.678668 216.995803 
L 109.929793 216.898028 
L 110.432043 216.479721 
L 110.655266 216.618015 
L 111.10171 216.873924 
L 112.217822 216.337468 
L 113.138614 215.499035 
L 113.50135 215.429273 
L 113.836184 215.411465 
L 114.310531 215.218978 
L 114.729073 215.092355 
L 114.980198 215.372781 
L 115.259226 215.509246 
L 115.649865 215.561488 
L 116.291629 215.283046 
L 117.072907 214.722748 
L 117.686769 214.875078 
L 118.049505 214.566143 
L 118.356436 214.460286 
L 118.9982 214.604593 
L 119.249325 214.610385 
L 119.584158 214.517035 
L 119.918992 214.525974 
L 120.421242 214.182011 
L 120.672367 214.022365 
L 121.035104 214.00623 
L 121.286229 214.029454 
L 121.816382 214.18675 
L 122.40234 213.741011 
L 122.876688 213.340723 
L 123.183618 213.355633 
L 123.434743 213.527292 
L 123.769577 213.997318 
L 124.10441 214.313011 
L 124.885689 214.133305 
L 125.639064 213.694278 
L 126.336634 213.508836 
L 126.643564 213.403117 
L 127.090009 213.41966 
L 127.871287 213.052688 
L 130.522052 212.386031 
L 131.666067 212.454087 
L 132.726373 212.227523 
L 133.312331 212.220862 
L 133.981998 212.030832 
L 135.209721 212.03085 
L 136.409541 211.328401 
L 136.772277 211.153332 
L 139.227723 210.431269 
L 139.925293 210.459001 
L 140.288029 210.381876 
L 140.622862 210.330703 
L 141.180918 210.482139 
L 141.459946 210.520367 
L 142.213321 210.410286 
L 142.827183 210.325737 
L 143.245725 210.460808 
L 143.468947 210.490835 
L 144.417642 210.207196 
L 144.891989 210.281847 
L 146.482448 209.726028 
L 147.59856 209.610554 
L 148.575158 209.246574 
L 149.551755 209.164313 
L 150.193519 208.831873 
L 150.751575 208.579361 
L 152.621062 208.950059 
L 155.439244 208.204423 
L 156.164716 208.264694 
L 157.755176 208.211743 
L 158.675968 208.155132 
L 159.094509 208.06847 
L 159.485149 207.96902 
L 160.629163 207.857252 
L 161.131413 207.822566 
L 163.419442 207.827578 
L 165.90279 207.294244 
L 167.521152 207.238446 
L 168.079208 207.252692 
L 168.944194 207.275564 
L 169.279028 207.21621 
L 169.976598 207.089361 
L 172.208821 207.044344 
L 173.045905 207.095362 
L 173.659766 207.069705 
L 175.194419 206.939908 
L 175.752475 206.958539 
L 176.171017 206.976407 
L 176.980198 206.896516 
L 180.021602 206.889604 
L 180.914491 206.826334 
L 181.918992 206.713393 
L 183.258326 206.634266 
L 184.067507 206.64695 
L 192.577858 206.588125 
L 193.275428 206.596067 
L 193.861386 206.549514 
L 194.447345 206.560808 
L 195.368137 206.558159 
L 196.59586 206.553463 
L 201.646265 206.444081 
L 202.90189 206.448152 
L 207.143114 206.524327 
L 209.012601 206.456797 
L 209.459046 206.496319 
L 210.128713 206.490395 
L 210.854185 206.455078 
L 212.305131 206.464005 
L 213.449145 206.416127 
L 214.955896 206.45281 
L 216.406841 206.507035 
L 236.664266 206.475471 
L 237.585059 206.476686 
L 238.561656 206.54003 
L 239.454545 206.516834 
L 241.519352 206.521702 
L 242.551755 206.541694 
L 243.751575 206.510209 
L 250.448245 206.520204 
L 251.424842 206.488744 
L 252.819982 206.467946 
L 256.949595 206.519147 
L 262.558056 206.485387 
L 273.691269 206.523438 
L 276.342034 206.551825 
L 277.681368 206.584413 
L 278.378938 206.622439 
L 281.894689 206.612002 
L 283.429343 206.560382 
L 285.633663 206.606968 
L 289.009901 206.583314 
L 290.572457 206.618499 
L 291.242124 206.621189 
L 292.637264 206.671371 
L 294.813681 206.600117 
L 295.371737 206.653837 
L 296.376238 206.679733 
L 297.855086 206.60889 
L 301.175518 206.651846 
L 303.072907 206.626481 
L 312.810981 206.700379 
L 314.875788 206.743116 
L 317.052205 206.659031 
L 317.805581 206.631782 
L 318.391539 206.6288 
L 319.563456 206.652436 
L 320.707471 206.581553 
L 321.935194 206.595069 
L 323.748875 206.608065 
L 324 206.620843 
L 324 206.620843 
" clip-path="url(#p86b7fb1328)" style="fill: none; stroke: #ff0000; stroke-width: 1.5; stroke-linecap: square"/>
   </g>
   <g id="patch_3">
    <path d="M 45 256.32 
L 45 34.56 
" style="fill: none; stroke: #000000; stroke-width: 0.8; stroke-linejoin: miter; stroke-linecap: square"/>
   </g>
   <g id="patch_4">
    <path d="M 324 256.32 
L 324 34.56 
" style="fill: none; stroke: #000000; stroke-width: 0.8; stroke-linejoin: miter; stroke-linecap: square"/>
   </g>
   <g id="patch_5">
    <path d="M 45 256.32 
L 324 256.32 
" style="fill: none; stroke: #000000; stroke-width: 0.8; stroke-linejoin: miter; stroke-linecap: square"/>
   </g>
   <g id="patch_6">
    <path d="M 45 34.56 
L 324 34.56 
" style="fill: none; stroke: #000000; stroke-width: 0.8; stroke-linejoin: miter; stroke-linecap: square"/>
   </g>
   <g id="text_14">
    <!-- Mean quantities over time -->
    <g transform="translate(65.4175 28.56) scale(0.16 -0.16)">
     <defs>
      <path id="DejaVuSans-Bold-4d" d="M 588 4666 
L 2119 4666 
L 3181 2169 
L 4250 4666 
L 5778 4666 
L 5778 0 
L 4641 0 
L 4641 3413 
L 3566 897 
L 2803 897 
L 1728 3413 
L 1728 0 
L 588 0 
L 588 4666 
z
" transform="scale(0.015625)"/>
      <path id="DejaVuSans-Bold-65" d="M 4031 1759 
L 4031 1441 
L 1416 1441 
Q 1456 1047 1700 850 
Q 1944 653 2381 653 
Q 2734 653 3104 758 
Q 3475 863 3866 1075 
L 3866 213 
Q 3469 63 3072 -14 
Q 2675 -91 2278 -91 
Q 1328 -91 801 392 
Q 275 875 275 1747 
Q 275 2603 792 3093 
Q 1309 3584 2216 3584 
Q 3041 3584 3536 3087 
Q 4031 2591 4031 1759 
z
M 2881 2131 
Q 2881 2450 2695 2645 
Q 2509 2841 2209 2841 
Q 1884 2841 1681 2658 
Q 1478 2475 1428 2131 
L 2881 2131 
z
" transform="scale(0.015625)"/>
      <path id="DejaVuSans-Bold-61" d="M 2106 1575 
Q 1756 1575 1579 1456 
Q 1403 1338 1403 1106 
Q 1403 894 1545 773 
Q 1688 653 1941 653 
Q 2256 653 2472 879 
Q 2688 1106 2688 1447 
L 2688 1575 
L 2106 1575 
z
M 3816 1997 
L 3816 0 
L 2688 0 
L 2688 519 
Q 2463 200 2181 54 
Q 1900 -91 1497 -91 
Q 953 -91 614 226 
Q 275 544 275 1050 
Q 275 1666 698 1953 
Q 1122 2241 2028 2241 
L 2688 2241 
L 2688 2328 
Q 2688 2594 2478 2717 
Q 2269 2841 1825 2841 
Q 1466 2841 1156 2769 
Q 847 2697 581 2553 
L 581 3406 
Q 941 3494 1303 3539 
Q 1666 3584 2028 3584 
Q 2975 3584 3395 3211 
Q 3816 2838 3816 1997 
z
" transform="scale(0.015625)"/>
      <path id="DejaVuSans-Bold-6e" d="M 4056 2131 
L 4056 0 
L 2931 0 
L 2931 347 
L 2931 1631 
Q 2931 2084 2911 2256 
Q 2891 2428 2841 2509 
Q 2775 2619 2662 2680 
Q 2550 2741 2406 2741 
Q 2056 2741 1856 2470 
Q 1656 2200 1656 1722 
L 1656 0 
L 538 0 
L 538 3500 
L 1656 3500 
L 1656 2988 
Q 1909 3294 2193 3439 
Q 2478 3584 2822 3584 
Q 3428 3584 3742 3212 
Q 4056 2841 4056 2131 
z
" transform="scale(0.015625)"/>
      <path id="DejaVuSans-Bold-20" transform="scale(0.015625)"/>
      <path id="DejaVuSans-Bold-71" d="M 2181 2772 
Q 1825 2772 1636 2509 
Q 1447 2247 1447 1747 
Q 1447 1247 1636 984 
Q 1825 722 2181 722 
Q 2541 722 2730 984 
Q 2919 1247 2919 1747 
Q 2919 2247 2730 2509 
Q 2541 2772 2181 2772 
z
M 2919 506 
Q 2688 197 2409 53 
Q 2131 -91 1766 -91 
Q 1119 -91 703 423 
Q 288 938 288 1747 
Q 288 2556 703 3067 
Q 1119 3578 1766 3578 
Q 2131 3578 2409 3434 
Q 2688 3291 2919 2981 
L 2919 3500 
L 4044 3500 
L 4044 -1331 
L 2919 -1331 
L 2919 506 
z
" transform="scale(0.015625)"/>
      <path id="DejaVuSans-Bold-75" d="M 500 1363 
L 500 3500 
L 1625 3500 
L 1625 3150 
Q 1625 2866 1622 2436 
Q 1619 2006 1619 1863 
Q 1619 1441 1641 1255 
Q 1663 1069 1716 984 
Q 1784 875 1895 815 
Q 2006 756 2150 756 
Q 2500 756 2700 1025 
Q 2900 1294 2900 1772 
L 2900 3500 
L 4019 3500 
L 4019 0 
L 2900 0 
L 2900 506 
Q 2647 200 2364 54 
Q 2081 -91 1741 -91 
Q 1134 -91 817 281 
Q 500 653 500 1363 
z
" transform="scale(0.015625)"/>
      <path id="DejaVuSans-Bold-74" d="M 1759 4494 
L 1759 3500 
L 2913 3500 
L 2913 2700 
L 1759 2700 
L 1759 1216 
Q 1759 972 1856 886 
Q 1953 800 2241 800 
L 2816 800 
L 2816 0 
L 1856 0 
Q 1194 0 917 276 
Q 641 553 641 1216 
L 641 2700 
L 84 2700 
L 84 3500 
L 641 3500 
L 641 4494 
L 1759 4494 
z
" transform="scale(0.015625)"/>
      <path id="DejaVuSans-Bold-69" d="M 538 3500 
L 1656 3500 
L 1656 0 
L 538 0 
L 538 3500 
z
M 538 4863 
L 1656 4863 
L 1656 3950 
L 538 3950 
L 538 4863 
z
" transform="scale(0.015625)"/>
      <path id="DejaVuSans-Bold-73" d="M 3272 3391 
L 3272 2541 
Q 2913 2691 2578 2766 
Q 2244 2841 1947 2841 
Q 1628 2841 1473 2761 
Q 1319 2681 1319 2516 
Q 1319 2381 1436 2309 
Q 1553 2238 1856 2203 
L 2053 2175 
Q 2913 2066 3209 1816 
Q 3506 1566 3506 1031 
Q 3506 472 3093 190 
Q 2681 -91 1863 -91 
Q 1516 -91 1145 -36 
Q 775 19 384 128 
L 384 978 
Q 719 816 1070 734 
Q 1422 653 1784 653 
Q 2113 653 2278 743 
Q 2444 834 2444 1013 
Q 2444 1163 2330 1236 
Q 2216 1309 1875 1350 
L 1678 1375 
Q 931 1469 631 1722 
Q 331 1975 331 2491 
Q 331 3047 712 3315 
Q 1094 3584 1881 3584 
Q 2191 3584 2531 3537 
Q 2872 3491 3272 3391 
z
" transform="scale(0.015625)"/>
      <path id="DejaVuSans-Bold-6f" d="M 2203 2784 
Q 1831 2784 1636 2517 
Q 1441 2250 1441 1747 
Q 1441 1244 1636 976 
Q 1831 709 2203 709 
Q 2569 709 2762 976 
Q 2956 1244 2956 1747 
Q 2956 2250 2762 2517 
Q 2569 2784 2203 2784 
z
M 2203 3584 
Q 3106 3584 3614 3096 
Q 4122 2609 4122 1747 
Q 4122 884 3614 396 
Q 3106 -91 2203 -91 
Q 1297 -91 786 396 
Q 275 884 275 1747 
Q 275 2609 786 3096 
Q 1297 3584 2203 3584 
z
" transform="scale(0.015625)"/>
      <path id="DejaVuSans-Bold-76" d="M 97 3500 
L 1216 3500 
L 2088 1081 
L 2956 3500 
L 4078 3500 
L 2700 0 
L 1472 0 
L 97 3500 
z
" transform="scale(0.015625)"/>
      <path id="DejaVuSans-Bold-72" d="M 3138 2547 
Q 2991 2616 2845 2648 
Q 2700 2681 2553 2681 
Q 2122 2681 1889 2404 
Q 1656 2128 1656 1613 
L 1656 0 
L 538 0 
L 538 3500 
L 1656 3500 
L 1656 2925 
Q 1872 3269 2151 3426 
Q 2431 3584 2822 3584 
Q 2878 3584 2943 3579 
Q 3009 3575 3134 3559 
L 3138 2547 
z
" transform="scale(0.015625)"/>
      <path id="DejaVuSans-Bold-6d" d="M 3781 2919 
Q 3994 3244 4286 3414 
Q 4578 3584 4928 3584 
Q 5531 3584 5847 3212 
Q 6163 2841 6163 2131 
L 6163 0 
L 5038 0 
L 5038 1825 
Q 5041 1866 5042 1909 
Q 5044 1953 5044 2034 
Q 5044 2406 4934 2573 
Q 4825 2741 4581 2741 
Q 4263 2741 4089 2478 
Q 3916 2216 3909 1719 
L 3909 0 
L 2784 0 
L 2784 1825 
Q 2784 2406 2684 2573 
Q 2584 2741 2328 2741 
Q 2006 2741 1831 2477 
Q 1656 2213 1656 1722 
L 1656 0 
L 531 0 
L 531 3500 
L 1656 3500 
L 1656 2988 
Q 1863 3284 2130 3434 
Q 2397 3584 2719 3584 
Q 3081 3584 3359 3409 
Q 3638 3234 3781 2919 
z
" transform="scale(0.015625)"/>
     </defs>
     <use xlink:href="#DejaVuSans-Bold-4d"/>
     <use xlink:href="#DejaVuSans-Bold-65" transform="translate(99.511719 0)"/>
     <use xlink:href="#DejaVuSans-Bold-61" transform="translate(167.333984 0)"/>
     <use xlink:href="#DejaVuSans-Bold-6e" transform="translate(234.814453 0)"/>
     <use xlink:href="#DejaVuSans-Bold-20" transform="translate(306.005859 0)"/>
     <use xlink:href="#DejaVuSans-Bold-71" transform="translate(340.820312 0)"/>
     <use xlink:href="#DejaVuSans-Bold-75" transform="translate(412.402344 0)"/>
     <use xlink:href="#DejaVuSans-Bold-61" transform="translate(483.59375 0)"/>
     <use xlink:href="#DejaVuSans-Bold-6e" transform="translate(551.074219 0)"/>
     <use xlink:href="#DejaVuSans-Bold-74" transform="translate(622.265625 0)"/>
     <use xlink:href="#DejaVuSans-Bold-69" transform="translate(670.068359 0)"/>
     <use xlink:href="#DejaVuSans-Bold-74" transform="translate(704.345703 0)"/>
     <use xlink:href="#DejaVuSans-Bold-69" transform="translate(752.148438 0)"/>
     <use xlink:href="#DejaVuSans-Bold-65" transform="translate(786.425781 0)"/>
     <use xlink:href="#DejaVuSans-Bold-73" transform="translate(854.248047 0)"/>
     <use xlink:href="#DejaVuSans-Bold-20" transform="translate(913.769531 0)"/>
     <use xlink:href="#DejaVuSans-Bold-6f" transform="translate(948.583984 0)"/>
     <use xlink:href="#DejaVuSans-Bold-76" transform="translate(1017.285156 0)"/>
     <use xlink:href="#DejaVuSans-Bold-65" transform="translate(1082.470703 0)"/>
     <use xlink:href="#DejaVuSans-Bold-72" transform="translate(1150.292969 0)"/>
     <use xlink:href="#DejaVuSans-Bold-20" transform="translate(1199.609375 0)"/>
     <use xlink:href="#DejaVuSans-Bold-74" transform="translate(1234.423828 0)"/>
     <use xlink:href="#DejaVuSans-Bold-69" transform="translate(1282.226562 0)"/>
     <use xlink:href="#DejaVuSans-Bold-6d" transform="translate(1316.503906 0)"/>
     <use xlink:href="#DejaVuSans-Bold-65" transform="translate(1420.703125 0)"/>
    </g>
   </g>
   <g id="legend_1">
    <g id="patch_7">
     <path d="M 226.926562 71.91625 
L 317 71.91625 
Q 319 71.91625 319 69.91625 
L 319 41.56 
Q 319 39.56 317 39.56 
L 226.926562 39.56 
Q 224.926562 39.56 224.926562 41.56 
L 224.926562 69.91625 
Q 224.926562 71.91625 226.926562 71.91625 
z
" style="fill: #ffffff; opacity: 0.8; stroke: #cccccc; stroke-linejoin: miter"/>
    </g>
    <g id="line2d_14">
     <path d="M 228.926562 47.658437 
L 238.926562 47.658437 
L 248.926562 47.658437 
" style="fill: none; stroke: #000000; stroke-width: 1.5; stroke-linecap: square"/>
    </g>
    <g id="text_15">
     <!-- Polarisation -->
     <g transform="translate(256.926562 51.158437) scale(0.1 -0.1)">
      <defs>
       <path id="DejaVuSans-50" d="M 1259 4147 
L 1259 2394 
L 2053 2394 
Q 2494 2394 2734 2622 
Q 2975 2850 2975 3272 
Q 2975 3691 2734 3919 
Q 2494 4147 2053 4147 
L 1259 4147 
z
M 628 4666 
L 2053 4666 
Q 2838 4666 3239 4311 
Q 3641 3956 3641 3272 
Q 3641 2581 3239 2228 
Q 2838 1875 2053 1875 
L 1259 1875 
L 1259 0 
L 628 0 
L 628 4666 
z
" transform="scale(0.015625)"/>
       <path id="DejaVuSans-6c" d="M 603 4863 
L 1178 4863 
L 1178 0 
L 603 0 
L 603 4863 
z
" transform="scale(0.015625)"/>
       <path id="DejaVuSans-72" d="M 2631 2963 
Q 2534 3019 2420 3045 
Q 2306 3072 2169 3072 
Q 1681 3072 1420 2755 
Q 1159 2438 1159 1844 
L 1159 0 
L 581 0 
L 581 3500 
L 1159 3500 
L 1159 2956 
Q 1341 3275 1631 3429 
Q 1922 3584 2338 3584 
Q 2397 3584 2469 3576 
Q 2541 3569 2628 3553 
L 2631 2963 
z
" transform="scale(0.015625)"/>
      </defs>
      <use xlink:href="#DejaVuSans-50"/>
      <use xlink:href="#DejaVuSans-6f" transform="translate(56.677734 0)"/>
      <use xlink:href="#DejaVuSans-6c" transform="translate(117.859375 0)"/>
      <use xlink:href="#DejaVuSans-61" transform="translate(145.642578 0)"/>
      <use xlink:href="#DejaVuSans-72" transform="translate(206.921875 0)"/>
      <use xlink:href="#DejaVuSans-69" transform="translate(248.035156 0)"/>
      <use xlink:href="#DejaVuSans-73" transform="translate(275.818359 0)"/>
      <use xlink:href="#DejaVuSans-61" transform="translate(327.917969 0)"/>
      <use xlink:href="#DejaVuSans-74" transform="translate(389.197266 0)"/>
      <use xlink:href="#DejaVuSans-69" transform="translate(428.40625 0)"/>
      <use xlink:href="#DejaVuSans-6f" transform="translate(456.189453 0)"/>
      <use xlink:href="#DejaVuSans-6e" transform="translate(517.371094 0)"/>
     </g>
    </g>
    <g id="line2d_15">
     <path d="M 228.926562 62.336562 
L 238.926562 62.336562 
L 248.926562 62.336562 
" style="fill: none; stroke: #ff0000; stroke-width: 1.5; stroke-linecap: square"/>
    </g>
    <g id="text_16">
     <!-- Momentum -->
     <g transform="translate(256.926562 65.836562) scale(0.1 -0.1)">
      <defs>
       <path id="DejaVuSans-4d" d="M 628 4666 
L 1569 4666 
L 2759 1491 
L 3956 4666 
L 4897 4666 
L 4897 0 
L 4281 0 
L 4281 4097 
L 3078 897 
L 2444 897 
L 1241 4097 
L 1241 0 
L 628 0 
L 628 4666 
z
" transform="scale(0.015625)"/>
      </defs>
      <use xlink:href="#DejaVuSans-4d"/>
      <use xlink:href="#DejaVuSans-6f" transform="translate(86.279297 0)"/>
      <use xlink:href="#DejaVuSans-6d" transform="translate(147.460938 0)"/>
      <use xlink:href="#DejaVuSans-65" transform="translate(244.873047 0)"/>
      <use xlink:href="#DejaVuSans-6e" transform="translate(306.396484 0)"/>
      <use xlink:href="#DejaVuSans-74" transform="translate(369.775391 0)"/>
      <use xlink:href="#DejaVuSans-75" transform="translate(408.984375 0)"/>
      <use xlink:href="#DejaVuSans-6d" transform="translate(472.363281 0)"/>
     </g>
    </g>
   </g>
  </g>
 </g>
 <defs>
  <clipPath id="p86b7fb1328">
   <rect x="45" y="34.56" width="279" height="221.76"/>
  </clipPath>
 </defs>
</svg>
