<?xml version="1.0" encoding="utf-8" standalone="no"?>
<!DOCTYPE svg PUBLIC "-//W3C//DTD SVG 1.1//EN"
  "http://www.w3.org/Graphics/SVG/1.1/DTD/svg11.dtd">
<svg xmlns:xlink="http://www.w3.org/1999/xlink" width="432pt" height="360pt" viewBox="0 0 432 360" xmlns="http://www.w3.org/2000/svg" version="1.1">
 <metadata>
  <rdf:RDF xmlns:dc="http://purl.org/dc/elements/1.1/" xmlns:cc="http://creativecommons.org/ns#" xmlns:rdf="http://www.w3.org/1999/02/22-rdf-syntax-ns#">
   <cc:Work>
    <dc:type rdf:resource="http://purl.org/dc/dcmitype/StillImage"/>
    <dc:date>2025-05-05T23:14:17.566783</dc:date>
    <dc:format>image/svg+xml</dc:format>
    <dc:creator>
     <cc:Agent>
      <dc:title>Matplotlib v3.10.1, https://matplotlib.org/</dc:title>
     </cc:Agent>
    </dc:creator>
   </cc:Work>
  </rdf:RDF>
 </metadata>
 <defs>
  <style type="text/css">*{stroke-linejoin: round; stroke-linecap: butt}</style>
 </defs>
 <g id="figure_1">
  <g id="patch_1">
   <path d="M 0 360 
L 432 360 
L 432 0 
L 0 0 
z
" style="fill: #ffffff"/>
  </g>
  <g id="axes_1">
   <g id="patch_2">
    <path d="M 47.961178 153.232572 
L 428.99976 153.232572 
L 428.99976 18.118365 
L 47.961178 18.118365 
z
" style="fill: #ffffff"/>
   </g>
   <g id="matplotlib.axis_1">
    <g id="xtick_1">
     <g id="line2d_1">
      <path d="M 65.281113 153.232572 
L 65.281113 18.118365 
" clip-path="url(#pd82c14cd53)" style="fill: none; stroke: #b0b0b0; stroke-width: 0.8; stroke-linecap: square"/>
     </g>
     <g id="line2d_2">
      <defs>
       <path id="m1f08c4f23f" d="M 0 0 
L 0 3.5 
" style="stroke: #000000; stroke-width: 0.8"/>
      </defs>
      <g>
       <use xlink:href="#m1f08c4f23f" x="65.281113" y="153.232572" style="stroke: #000000; stroke-width: 0.8"/>
      </g>
     </g>
    </g>
    <g id="xtick_2">
     <g id="line2d_3">
      <path d="M 134.567784 153.232572 
L 134.567784 18.118365 
" clip-path="url(#pd82c14cd53)" style="fill: none; stroke: #b0b0b0; stroke-width: 0.8; stroke-linecap: square"/>
     </g>
     <g id="line2d_4">
      <g>
       <use xlink:href="#m1f08c4f23f" x="134.567784" y="153.232572" style="stroke: #000000; stroke-width: 0.8"/>
      </g>
     </g>
    </g>
    <g id="xtick_3">
     <g id="line2d_5">
      <path d="M 203.854455 153.232572 
L 203.854455 18.118365 
" clip-path="url(#pd82c14cd53)" style="fill: none; stroke: #b0b0b0; stroke-width: 0.8; stroke-linecap: square"/>
     </g>
     <g id="line2d_6">
      <g>
       <use xlink:href="#m1f08c4f23f" x="203.854455" y="153.232572" style="stroke: #000000; stroke-width: 0.8"/>
      </g>
     </g>
    </g>
    <g id="xtick_4">
     <g id="line2d_7">
      <path d="M 273.141126 153.232572 
L 273.141126 18.118365 
" clip-path="url(#pd82c14cd53)" style="fill: none; stroke: #b0b0b0; stroke-width: 0.8; stroke-linecap: square"/>
     </g>
     <g id="line2d_8">
      <g>
       <use xlink:href="#m1f08c4f23f" x="273.141126" y="153.232572" style="stroke: #000000; stroke-width: 0.8"/>
      </g>
     </g>
    </g>
    <g id="xtick_5">
     <g id="line2d_9">
      <path d="M 342.427797 153.232572 
L 342.427797 18.118365 
" clip-path="url(#pd82c14cd53)" style="fill: none; stroke: #b0b0b0; stroke-width: 0.8; stroke-linecap: square"/>
     </g>
     <g id="line2d_10">
      <g>
       <use xlink:href="#m1f08c4f23f" x="342.427797" y="153.232572" style="stroke: #000000; stroke-width: 0.8"/>
      </g>
     </g>
    </g>
    <g id="xtick_6">
     <g id="line2d_11">
      <path d="M 411.714468 153.232572 
L 411.714468 18.118365 
" clip-path="url(#pd82c14cd53)" style="fill: none; stroke: #b0b0b0; stroke-width: 0.8; stroke-linecap: square"/>
     </g>
     <g id="line2d_12">
      <g>
       <use xlink:href="#m1f08c4f23f" x="411.714468" y="153.232572" style="stroke: #000000; stroke-width: 0.8"/>
      </g>
     </g>
    </g>
    <g id="text_1">
     <!-- timestep -->
     <g transform="translate(216.36875 168.33101) scale(0.1 -0.1)">
      <defs>
       <path id="DejaVuSans-74" d="M 1172 4494 
L 1172 3500 
L 2356 3500 
L 2356 3053 
L 1172 3053 
L 1172 1153 
Q 1172 725 1289 603 
Q 1406 481 1766 481 
L 2356 481 
L 2356 0 
L 1766 0 
Q 1100 0 847 248 
Q 594 497 594 1153 
L 594 3053 
L 172 3053 
L 172 3500 
L 594 3500 
L 594 4494 
L 1172 4494 
z
" transform="scale(0.015625)"/>
       <path id="DejaVuSans-69" d="M 603 3500 
L 1178 3500 
L 1178 0 
L 603 0 
L 603 3500 
z
M 603 4863 
L 1178 4863 
L 1178 4134 
L 603 4134 
L 603 4863 
z
" transform="scale(0.015625)"/>
       <path id="DejaVuSans-6d" d="M 3328 2828 
Q 3544 3216 3844 3400 
Q 4144 3584 4550 3584 
Q 5097 3584 5394 3201 
Q 5691 2819 5691 2113 
L 5691 0 
L 5113 0 
L 5113 2094 
Q 5113 2597 4934 2840 
Q 4756 3084 4391 3084 
Q 3944 3084 3684 2787 
Q 3425 2491 3425 1978 
L 3425 0 
L 2847 0 
L 2847 2094 
Q 2847 2600 2669 2842 
Q 2491 3084 2119 3084 
Q 1678 3084 1418 2786 
Q 1159 2488 1159 1978 
L 1159 0 
L 581 0 
L 581 3500 
L 1159 3500 
L 1159 2956 
Q 1356 3278 1631 3431 
Q 1906 3584 2284 3584 
Q 2666 3584 2933 3390 
Q 3200 3197 3328 2828 
z
" transform="scale(0.015625)"/>
       <path id="DejaVuSans-65" d="M 3597 1894 
L 3597 1613 
L 953 1613 
Q 991 1019 1311 708 
Q 1631 397 2203 397 
Q 2534 397 2845 478 
Q 3156 559 3463 722 
L 3463 178 
Q 3153 47 2828 -22 
Q 2503 -91 2169 -91 
Q 1331 -91 842 396 
Q 353 884 353 1716 
Q 353 2575 817 3079 
Q 1281 3584 2069 3584 
Q 2775 3584 3186 3129 
Q 3597 2675 3597 1894 
z
M 3022 2063 
Q 3016 2534 2758 2815 
Q 2500 3097 2075 3097 
Q 1594 3097 1305 2825 
Q 1016 2553 972 2059 
L 3022 2063 
z
" transform="scale(0.015625)"/>
       <path id="DejaVuSans-73" d="M 2834 3397 
L 2834 2853 
Q 2591 2978 2328 3040 
Q 2066 3103 1784 3103 
Q 1356 3103 1142 2972 
Q 928 2841 928 2578 
Q 928 2378 1081 2264 
Q 1234 2150 1697 2047 
L 1894 2003 
Q 2506 1872 2764 1633 
Q 3022 1394 3022 966 
Q 3022 478 2636 193 
Q 2250 -91 1575 -91 
Q 1294 -91 989 -36 
Q 684 19 347 128 
L 347 722 
Q 666 556 975 473 
Q 1284 391 1588 391 
Q 1994 391 2212 530 
Q 2431 669 2431 922 
Q 2431 1156 2273 1281 
Q 2116 1406 1581 1522 
L 1381 1569 
Q 847 1681 609 1914 
Q 372 2147 372 2553 
Q 372 3047 722 3315 
Q 1072 3584 1716 3584 
Q 2034 3584 2315 3537 
Q 2597 3491 2834 3397 
z
" transform="scale(0.015625)"/>
       <path id="DejaVuSans-70" d="M 1159 525 
L 1159 -1331 
L 581 -1331 
L 581 3500 
L 1159 3500 
L 1159 2969 
Q 1341 3281 1617 3432 
Q 1894 3584 2278 3584 
Q 2916 3584 3314 3078 
Q 3713 2572 3713 1747 
Q 3713 922 3314 415 
Q 2916 -91 2278 -91 
Q 1894 -91 1617 61 
Q 1341 213 1159 525 
z
M 3116 1747 
Q 3116 2381 2855 2742 
Q 2594 3103 2138 3103 
Q 1681 3103 1420 2742 
Q 1159 2381 1159 1747 
Q 1159 1113 1420 752 
Q 1681 391 2138 391 
Q 2594 391 2855 752 
Q 3116 1113 3116 1747 
z
" transform="scale(0.015625)"/>
      </defs>
      <use xlink:href="#DejaVuSans-74"/>
      <use xlink:href="#DejaVuSans-69" transform="translate(39.208984 0)"/>
      <use xlink:href="#DejaVuSans-6d" transform="translate(66.992188 0)"/>
      <use xlink:href="#DejaVuSans-65" transform="translate(164.404297 0)"/>
      <use xlink:href="#DejaVuSans-73" transform="translate(225.927734 0)"/>
      <use xlink:href="#DejaVuSans-74" transform="translate(278.027344 0)"/>
      <use xlink:href="#DejaVuSans-65" transform="translate(317.236328 0)"/>
      <use xlink:href="#DejaVuSans-70" transform="translate(378.759766 0)"/>
     </g>
    </g>
   </g>
   <g id="matplotlib.axis_2">
    <g id="ytick_1">
     <g id="line2d_13">
      <path d="M 47.961178 145.680907 
L 428.99976 145.680907 
" clip-path="url(#pd82c14cd53)" style="fill: none; stroke: #b0b0b0; stroke-width: 0.8; stroke-linecap: square"/>
     </g>
     <g id="line2d_14">
      <defs>
       <path id="mdff06d571c" d="M 0 0 
L -3.5 0 
" style="stroke: #000000; stroke-width: 0.8"/>
      </defs>
      <g>
       <use xlink:href="#mdff06d571c" x="47.961178" y="145.680907" style="stroke: #000000; stroke-width: 0.8"/>
      </g>
     </g>
     <g id="text_2">
      <!-- −0.3 -->
      <g transform="translate(16.678365 149.480126) scale(0.1 -0.1)">
       <defs>
        <path id="DejaVuSans-2212" d="M 678 2272 
L 4684 2272 
L 4684 1741 
L 678 1741 
L 678 2272 
z
" transform="scale(0.015625)"/>
        <path id="DejaVuSans-30" d="M 2034 4250 
Q 1547 4250 1301 3770 
Q 1056 3291 1056 2328 
Q 1056 1369 1301 889 
Q 1547 409 2034 409 
Q 2525 409 2770 889 
Q 3016 1369 3016 2328 
Q 3016 3291 2770 3770 
Q 2525 4250 2034 4250 
z
M 2034 4750 
Q 2819 4750 3233 4129 
Q 3647 3509 3647 2328 
Q 3647 1150 3233 529 
Q 2819 -91 2034 -91 
Q 1250 -91 836 529 
Q 422 1150 422 2328 
Q 422 3509 836 4129 
Q 1250 4750 2034 4750 
z
" transform="scale(0.015625)"/>
        <path id="DejaVuSans-2e" d="M 684 794 
L 1344 794 
L 1344 0 
L 684 0 
L 684 794 
z
" transform="scale(0.015625)"/>
        <path id="DejaVuSans-33" d="M 2597 2516 
Q 3050 2419 3304 2112 
Q 3559 1806 3559 1356 
Q 3559 666 3084 287 
Q 2609 -91 1734 -91 
Q 1441 -91 1130 -33 
Q 819 25 488 141 
L 488 750 
Q 750 597 1062 519 
Q 1375 441 1716 441 
Q 2309 441 2620 675 
Q 2931 909 2931 1356 
Q 2931 1769 2642 2001 
Q 2353 2234 1838 2234 
L 1294 2234 
L 1294 2753 
L 1863 2753 
Q 2328 2753 2575 2939 
Q 2822 3125 2822 3475 
Q 2822 3834 2567 4026 
Q 2313 4219 1838 4219 
Q 1578 4219 1281 4162 
Q 984 4106 628 3988 
L 628 4550 
Q 988 4650 1302 4700 
Q 1616 4750 1894 4750 
Q 2613 4750 3031 4423 
Q 3450 4097 3450 3541 
Q 3450 3153 3228 2886 
Q 3006 2619 2597 2516 
z
" transform="scale(0.015625)"/>
       </defs>
       <use xlink:href="#DejaVuSans-2212"/>
       <use xlink:href="#DejaVuSans-30" transform="translate(83.789062 0)"/>
       <use xlink:href="#DejaVuSans-2e" transform="translate(147.412109 0)"/>
       <use xlink:href="#DejaVuSans-33" transform="translate(179.199219 0)"/>
      </g>
     </g>
    </g>
    <g id="ytick_2">
     <g id="line2d_15">
      <path d="M 47.961178 115.13338 
L 428.99976 115.13338 
" clip-path="url(#pd82c14cd53)" style="fill: none; stroke: #b0b0b0; stroke-width: 0.8; stroke-linecap: square"/>
     </g>
     <g id="line2d_16">
      <g>
       <use xlink:href="#mdff06d571c" x="47.961178" y="115.13338" style="stroke: #000000; stroke-width: 0.8"/>
      </g>
     </g>
     <g id="text_3">
      <!-- −0.2 -->
      <g transform="translate(16.678365 118.932598) scale(0.1 -0.1)">
       <defs>
        <path id="DejaVuSans-32" d="M 1228 531 
L 3431 531 
L 3431 0 
L 469 0 
L 469 531 
Q 828 903 1448 1529 
Q 2069 2156 2228 2338 
Q 2531 2678 2651 2914 
Q 2772 3150 2772 3378 
Q 2772 3750 2511 3984 
Q 2250 4219 1831 4219 
Q 1534 4219 1204 4116 
Q 875 4013 500 3803 
L 500 4441 
Q 881 4594 1212 4672 
Q 1544 4750 1819 4750 
Q 2544 4750 2975 4387 
Q 3406 4025 3406 3419 
Q 3406 3131 3298 2873 
Q 3191 2616 2906 2266 
Q 2828 2175 2409 1742 
Q 1991 1309 1228 531 
z
" transform="scale(0.015625)"/>
       </defs>
       <use xlink:href="#DejaVuSans-2212"/>
       <use xlink:href="#DejaVuSans-30" transform="translate(83.789062 0)"/>
       <use xlink:href="#DejaVuSans-2e" transform="translate(147.412109 0)"/>
       <use xlink:href="#DejaVuSans-32" transform="translate(179.199219 0)"/>
      </g>
     </g>
    </g>
    <g id="ytick_3">
     <g id="line2d_17">
      <path d="M 47.961178 84.585852 
L 428.99976 84.585852 
" clip-path="url(#pd82c14cd53)" style="fill: none; stroke: #b0b0b0; stroke-width: 0.8; stroke-linecap: square"/>
     </g>
     <g id="line2d_18">
      <g>
       <use xlink:href="#mdff06d571c" x="47.961178" y="84.585852" style="stroke: #000000; stroke-width: 0.8"/>
      </g>
     </g>
     <g id="text_4">
      <!-- −0.1 -->
      <g transform="translate(16.678365 88.385071) scale(0.1 -0.1)">
       <defs>
        <path id="DejaVuSans-31" d="M 794 531 
L 1825 531 
L 1825 4091 
L 703 3866 
L 703 4441 
L 1819 4666 
L 2450 4666 
L 2450 531 
L 3481 531 
L 3481 0 
L 794 0 
L 794 531 
z
" transform="scale(0.015625)"/>
       </defs>
       <use xlink:href="#DejaVuSans-2212"/>
       <use xlink:href="#DejaVuSans-30" transform="translate(83.789062 0)"/>
       <use xlink:href="#DejaVuSans-2e" transform="translate(147.412109 0)"/>
       <use xlink:href="#DejaVuSans-31" transform="translate(179.199219 0)"/>
      </g>
     </g>
    </g>
    <g id="ytick_4">
     <g id="line2d_19">
      <path d="M 47.961178 54.038324 
L 428.99976 54.038324 
" clip-path="url(#pd82c14cd53)" style="fill: none; stroke: #b0b0b0; stroke-width: 0.8; stroke-linecap: square"/>
     </g>
     <g id="line2d_20">
      <g>
       <use xlink:href="#mdff06d571c" x="47.961178" y="54.038324" style="stroke: #000000; stroke-width: 0.8"/>
      </g>
     </g>
     <g id="text_5">
      <!-- 0.0 -->
      <g transform="translate(25.058053 57.837543) scale(0.1 -0.1)">
       <use xlink:href="#DejaVuSans-30"/>
       <use xlink:href="#DejaVuSans-2e" transform="translate(63.623047 0)"/>
       <use xlink:href="#DejaVuSans-30" transform="translate(95.410156 0)"/>
      </g>
     </g>
    </g>
    <g id="ytick_5">
     <g id="line2d_21">
      <path d="M 47.961178 23.490796 
L 428.99976 23.490796 
" clip-path="url(#pd82c14cd53)" style="fill: none; stroke: #b0b0b0; stroke-width: 0.8; stroke-linecap: square"/>
     </g>
     <g id="line2d_22">
      <g>
       <use xlink:href="#mdff06d571c" x="47.961178" y="23.490796" style="stroke: #000000; stroke-width: 0.8"/>
      </g>
     </g>
     <g id="text_6">
      <!-- 0.1 -->
      <g transform="translate(25.058053 27.290015) scale(0.1 -0.1)">
       <use xlink:href="#DejaVuSans-30"/>
       <use xlink:href="#DejaVuSans-2e" transform="translate(63.623047 0)"/>
       <use xlink:href="#DejaVuSans-31" transform="translate(95.410156 0)"/>
      </g>
     </g>
    </g>
    <g id="text_7">
     <!-- v_x -->
     <g transform="translate(10.320553 94.094219) rotate(-90) scale(0.1 -0.1)">
      <defs>
       <path id="DejaVuSans-76" d="M 191 3500 
L 800 3500 
L 1894 563 
L 2988 3500 
L 3597 3500 
L 2284 0 
L 1503 0 
L 191 3500 
z
" transform="scale(0.015625)"/>
       <path id="DejaVuSans-5f" d="M 3263 -1063 
L 3263 -1509 
L -63 -1509 
L -63 -1063 
L 3263 -1063 
z
" transform="scale(0.015625)"/>
       <path id="DejaVuSans-78" d="M 3513 3500 
L 2247 1797 
L 3578 0 
L 2900 0 
L 1881 1375 
L 863 0 
L 184 0 
L 1544 1831 
L 300 3500 
L 978 3500 
L 1906 2253 
L 2834 3500 
L 3513 3500 
z
" transform="scale(0.015625)"/>
      </defs>
      <use xlink:href="#DejaVuSans-76"/>
      <use xlink:href="#DejaVuSans-5f" transform="translate(59.179688 0)"/>
      <use xlink:href="#DejaVuSans-78" transform="translate(109.179688 0)"/>
     </g>
    </g>
   </g>
   <g id="line2d_23">
    <path d="M 65.281113 58.473312 
L 65.627546 62.621797 
L 65.835406 63.641095 
L 65.939336 63.686179 
L 66.043266 63.691206 
L 66.28577 62.888238 
L 66.528273 62.093199 
L 66.562916 62.121577 
L 66.666846 62.493417 
L 67.255783 67.902691 
L 67.602217 73.360097 
L 68.087223 81.691899 
L 68.606873 84.674486 
L 68.98795 86.681004 
L 69.230453 90.661864 
L 69.61153 96.446103 
L 69.750103 96.726262 
L 69.784747 96.708933 
L 70.02725 96.348654 
L 70.061893 96.391875 
L 70.23511 96.897177 
L 70.720117 101.442477 
L 71.239767 110.88876 
L 71.655487 116.616307 
L 71.932633 118.74382 
L 72.071207 119.671289 
L 72.902647 128.468633 
L 73.387654 135.362806 
L 73.630157 136.869308 
L 73.699444 136.953658 
L 73.734087 136.914363 
L 73.907304 136.552035 
L 74.011234 135.757193 
L 74.115164 135.897813 
L 74.219094 136.136052 
L 74.28838 136.064722 
L 74.39231 135.745625 
L 74.634814 133.391656 
L 75.189107 126.975932 
L 75.396967 126.267583 
L 75.53554 126.104452 
L 75.95126 124.763943 
L 76.748057 120.227139 
L 76.7827 120.272138 
L 76.817344 120.220206 
L 76.921274 119.427336 
L 77.371637 114.665013 
L 77.51021 113.724722 
L 77.822001 109.425015 
L 78.376294 100.107211 
L 78.688084 97.741563 
L 78.930587 96.690048 
L 79.034517 96.898289 
L 79.207734 97.458641 
L 79.450237 98.27812 
L 79.588811 98.151824 
L 79.658097 98.106387 
L 79.865957 98.405664 
L 80.177747 98.49493 
L 80.454894 98.914231 
L 80.524181 98.814226 
L 80.801327 97.653973 
L 80.939901 97.598726 
L 81.009187 97.613533 
L 81.043831 97.52984 
L 81.113117 97.384563 
L 81.182404 97.458367 
L 81.632767 98.929711 
L 81.909914 98.861314 
L 82.048487 99.567323 
L 82.360277 102.384249 
L 82.845284 107.492112 
L 83.122431 107.417128 
L 83.226361 107.478623 
L 83.538151 104.630902 
L 83.815298 102.560628 
L 83.884584 102.447057 
L 83.919228 102.532375 
L 84.785311 107.392768 
L 85.547464 116.336986 
L 86.586764 136.03598 
L 87.279631 141.293366 
L 87.729994 145.118616 
L 88.041784 147.050261 
L 88.111071 147.086611 
L 88.145714 147.019514 
L 88.284288 146.746089 
L 88.318931 146.765699 
L 88.457504 146.941052 
L 88.492148 146.918399 
L 88.769295 146.022475 
L 89.081085 143.522804 
L 89.843238 133.704049 
L 91.055755 110.957374 
L 91.228971 110.338943 
L 91.332901 110.215237 
L 91.471475 109.483394 
L 91.852551 107.217333 
L 92.164341 106.359946 
L 92.406845 102.766889 
L 92.683991 97.204246 
L 93.238285 86.617803 
L 93.619361 83.702996 
L 94.242942 78.943346 
L 95.074382 67.670699 
L 95.282242 66.558327 
L 95.836535 63.822482 
L 95.905822 63.534268 
L 96.321542 59.097745 
L 96.737262 56.303519 
L 97.049052 55.46857 
L 97.083695 55.567491 
L 97.326198 57.336453 
L 97.534058 60.871597 
L 98.815862 90.318763 
L 99.127652 94.052119 
L 100.236239 113.105558 
L 100.374812 113.598278 
L 100.409455 113.587249 
L 100.548029 113.668438 
L 100.686602 114.282326 
L 100.963749 116.523434 
L 101.310182 121.972926 
L 101.552685 124.544069 
L 101.760545 124.845714 
L 101.864475 124.82599 
L 101.933762 124.784178 
L 102.106979 125.099939 
L 102.141622 125.066415 
L 102.314839 124.670524 
L 102.799845 121.095695 
L 103.076992 115.928674 
L 103.423425 110.354739 
L 103.735215 107.89859 
L 104.254865 101.040164 
L 104.393439 100.465648 
L 104.428082 100.525863 
L 104.635942 101.063755 
L 104.670585 101.042013 
L 104.774516 100.774687 
L 104.982376 99.408562 
L 105.675242 92.6911 
L 106.887759 69.804606 
L 107.407409 58.456552 
L 107.753842 56.171685 
L 107.961702 55.646276 
L 107.996346 55.709825 
L 108.065632 55.931293 
L 108.134919 55.868377 
L 108.238849 55.623365 
L 108.412066 55.046991 
L 108.550639 55.558767 
L 108.654569 56.07664 
L 109.001002 59.920988 
L 110.040302 73.714902 
L 110.248163 75.268377 
L 111.148889 87.026337 
L 111.218176 86.891615 
L 111.426036 85.687424 
L 111.841756 83.315961 
L 111.911043 83.366582 
L 111.945686 83.306894 
L 112.118903 82.994687 
L 112.153546 83.020017 
L 112.292119 83.409229 
L 112.638553 84.334668 
L 112.742483 84.295171 
L 113.123559 86.181107 
L 113.400706 87.694023 
L 113.539279 87.930877 
L 113.712496 88.740896 
L 114.440006 97.005931 
L 114.509293 96.888937 
L 114.751796 96.314561 
L 114.821083 96.431827 
L 115.167516 97.011992 
L 115.236803 96.892165 
L 115.340733 96.824962 
L 115.375376 96.873249 
L 115.479306 97.043368 
L 115.687166 98.203765 
L 115.82574 99.953962 
L 116.206816 105.015162 
L 116.276103 105.169607 
L 116.310746 105.00176 
L 116.414676 104.506184 
L 116.44932 104.530325 
L 116.55325 104.471832 
L 116.934326 102.994778 
L 117.0729 102.579094 
L 117.107543 102.615552 
L 117.142186 102.615213 
L 117.350046 101.568953 
L 117.627193 97.76648 
L 117.973626 94.746534 
L 118.146843 94.025944 
L 118.181486 94.110049 
L 118.32006 94.445914 
L 118.597206 95.342166 
L 118.770423 95.790634 
L 118.94364 97.432342 
L 119.220786 99.825689 
L 119.290073 99.824157 
L 119.428646 99.016922 
L 119.601863 96.299692 
L 120.052226 88.506872 
L 120.364016 86.140941 
L 120.571876 85.422095 
L 120.675806 85.584491 
L 120.81438 86.476468 
L 120.91831 87.077723 
L 120.987597 86.987594 
L 121.195457 86.708821 
L 121.611177 86.238637 
L 121.64582 86.313623 
L 121.784393 87.240058 
L 122.130827 92.007895 
L 122.442617 95.001766 
L 122.615833 96.432164 
L 123.066197 99.984228 
L 123.41263 99.630297 
L 123.551203 99.362023 
L 124.001567 98.330358 
L 124.105497 98.53288 
L 124.348 99.274428 
L 124.936937 101.535347 
L 124.97158 101.465202 
L 125.110153 101.192809 
L 125.144797 101.281006 
L 125.421943 101.953438 
L 125.59516 101.789677 
L 125.80302 100.841987 
L 126.01088 98.757411 
L 126.495887 93.216774 
L 126.63446 92.602883 
L 126.669104 92.617111 
L 126.773034 92.989869 
L 127.05018 94.124331 
L 127.292684 92.747764 
L 127.56983 90.997205 
L 127.604474 91.106407 
L 127.812334 91.883465 
L 127.88162 92.070945 
L 127.916264 92.015564 
L 128.08948 90.931464 
L 128.40127 89.465101 
L 128.886277 88.710048 
L 128.92092 88.771786 
L 129.12878 89.129507 
L 129.23271 88.822773 
L 129.75236 86.014367 
L 129.787004 86.05858 
L 129.96022 87.199055 
L 130.445227 91.114241 
L 131.172737 101.592207 
L 131.380597 102.826102 
L 131.484527 102.602683 
L 131.6231 102.238307 
L 131.692387 102.453439 
L 131.830961 104.116252 
L 132.177394 109.317829 
L 132.731687 112.625298 
L 132.974191 114.622737 
L 133.008834 114.618963 
L 133.112764 114.166285 
L 134.013491 107.404852 
L 134.290637 105.513768 
L 134.359924 105.5601 
L 134.498497 105.97051 
L 135.018147 109.568113 
L 135.052791 109.534894 
L 135.191364 108.811275 
L 135.711014 105.89266 
L 135.814944 105.644236 
L 135.884231 105.800193 
L 136.022804 105.817699 
L 136.161377 104.668446 
L 136.715671 97.371687 
L 137.200678 91.267607 
L 137.651041 88.151793 
L 137.997474 87.476946 
L 138.205334 87.063562 
L 138.309264 87.234648 
L 138.343908 87.13887 
L 138.482481 86.438926 
L 138.690341 85.134154 
L 138.724984 85.145319 
L 138.863558 86.154899 
L 140.214648 104.812192 
L 141.219304 120.371089 
L 141.496451 121.582561 
L 141.877528 125.228959 
L 142.189318 127.763929 
L 142.431821 127.926521 
L 142.570395 127.935408 
L 142.778255 128.98414 
L 143.020758 130.285428 
L 143.055401 130.248514 
L 143.193975 130.210004 
L 143.401835 129.757189 
L 143.575051 128.978786 
L 144.025415 125.308614 
L 144.302561 123.347682 
L 144.822211 115.003129 
L 145.203288 112.524629 
L 145.480435 110.062146 
L 145.861511 107.251938 
L 145.930798 107.316179 
L 146.034728 107.724221 
L 146.866168 113.275511 
L 146.970098 113.137159 
L 147.108671 112.256952 
L 147.420461 107.052934 
L 147.905468 99.496046 
L 148.113328 98.163878 
L 148.494405 95.900539 
L 148.667622 94.955964 
L 148.944768 92.983871 
L 149.499062 90.625384 
L 149.602992 90.724079 
L 149.845495 90.938626 
L 149.949425 90.758909 
L 150.157285 90.165757 
L 150.469075 89.005272 
L 150.711578 88.155105 
L 150.746222 88.179108 
L 150.988725 88.310668 
L 151.196585 88.299846 
L 151.265872 88.330996 
L 151.404445 88.848519 
L 151.993382 92.182527 
L 152.097312 92.239542 
L 152.720892 91.312675 
L 152.998038 93.162817 
L 153.829479 102.534287 
L 153.864122 102.577408 
L 154.106625 103.579034 
L 154.279842 104.364252 
L 154.591632 106.614533 
L 155.388429 116.676006 
L 155.596289 116.978579 
L 155.769505 117.156601 
L 155.804149 117.120162 
L 155.873435 117.061354 
L 155.908079 117.137882 
L 156.115939 117.911808 
L 156.600945 120.508393 
L 156.670232 120.569039 
L 156.704875 120.529735 
L 156.843449 119.790264 
L 156.982022 119.392581 
L 157.085952 119.593008 
L 157.189882 120.464028 
L 157.570959 124.325891 
L 157.640245 124.332883 
L 157.813462 123.599297 
L 158.159895 122.243821 
L 158.229182 122.403737 
L 158.402399 123.162034 
L 158.471685 123.062554 
L 158.644902 123.071562 
L 159.060622 124.308027 
L 159.857419 128.810811 
L 160.169209 130.167905 
L 160.654216 130.601301 
L 160.758146 131.345991 
L 161.312439 136.85583 
L 161.347082 136.771481 
L 161.589586 135.845867 
L 161.762802 134.745338 
L 161.866732 134.816177 
L 161.970662 134.722128 
L 162.005306 134.813633 
L 162.109236 135.171181 
L 162.421026 137.385666 
L 162.524956 137.14813 
L 162.698172 135.624366 
L 163.183179 131.132773 
L 163.598899 128.861754 
L 163.702829 128.48636 
L 163.737472 128.56249 
L 163.841402 129.085542 
L 164.014619 130.194245 
L 164.049262 130.179378 
L 164.153192 129.729378 
L 164.603556 126.441751 
L 164.949989 122.597495 
L 165.781429 118.348832 
L 165.850716 118.416535 
L 166.197149 120.420591 
L 166.508939 120.934692 
L 166.612869 121.052781 
L 166.890016 122.04343 
L 167.167163 123.168413 
L 167.617526 125.232404 
L 167.686813 125.210591 
L 167.860029 124.497288 
L 167.998603 123.925505 
L 168.102533 123.99236 
L 168.241106 123.821717 
L 168.275749 123.86795 
L 168.483609 126.301511 
L 169.384336 138.800722 
L 169.73077 140.37645 
L 169.903986 141.032312 
L 169.973273 140.923858 
L 170.181133 139.337969 
L 170.527566 136.421941 
L 170.631496 136.420723 
L 170.77007 136.817947 
L 170.839356 136.918116 
L 170.874 136.842041 
L 171.047216 135.844638 
L 172.051873 125.875182 
L 172.363663 122.950385 
L 172.53688 120.784044 
L 172.779383 118.708749 
L 172.883313 118.780001 
L 172.987243 119.204319 
L 173.26439 120.005651 
L 173.437606 119.832221 
L 173.506893 119.726021 
L 173.88797 118.676264 
L 173.957256 118.892575 
L 174.650123 123.039482 
L 174.82334 122.973274 
L 174.857983 123.047973 
L 174.996557 123.612366 
L 175.0312 123.542253 
L 175.34299 122.501711 
L 175.377633 122.54921 
L 175.689423 122.760273 
L 175.75871 122.709345 
L 176.105143 120.989865 
L 176.243717 118.924253 
L 176.69408 112.752474 
L 176.90194 111.892417 
L 177.144443 110.189471 
L 178.079813 100.799072 
L 178.599463 96.758106 
L 178.66875 96.769803 
L 178.807323 96.454148 
L 179.049827 95.041788 
L 179.326973 93.154188 
L 179.950553 90.717183 
L 180.2277 89.163015 
L 180.33163 89.22561 
L 180.470204 89.703149 
L 180.64342 91.573733 
L 180.95521 98.91282 
L 181.613434 114.059225 
L 181.89058 116.223231 
L 181.959867 116.289791 
L 182.09844 116.672373 
L 182.133084 116.614292 
L 182.340944 115.624717 
L 182.583447 114.675381 
L 182.652734 114.669706 
L 183.03381 117.218433 
L 183.24167 116.903417 
L 183.3456 116.503153 
L 183.380244 116.66363 
L 183.588104 117.871272 
L 183.622747 117.742491 
L 183.830607 117.141856 
L 183.86525 117.172661 
L 184.038467 117.570091 
L 184.107754 117.379168 
L 184.765977 114.512431 
L 185.077767 114.548406 
L 185.181697 113.424798 
L 185.666704 104.152504 
L 186.047781 98.268981 
L 186.117067 98.082758 
L 186.151711 98.098393 
L 186.324927 99.651467 
L 187.329584 111.793392 
L 187.537444 112.363604 
L 187.745304 111.731056 
L 187.918521 110.63954 
L 188.299597 106.78146 
L 188.749961 102.331511 
L 188.888534 101.7274 
L 189.512114 98.082704 
L 190.031764 91.684142 
L 190.101051 91.778287 
L 190.170337 91.682814 
L 190.447484 90.581023 
L 190.689987 87.550334 
L 191.105707 82.99395 
L 191.486784 81.629247 
L 191.556071 81.727889 
L 191.729288 82.900143 
L 192.075721 85.28206 
L 192.630014 92.758613 
L 192.699301 92.908692 
L 192.733944 92.846853 
L 192.872518 91.837645 
L 193.634671 84.771498 
L 193.669314 84.801428 
L 193.773244 85.392371 
L 194.119678 89.170863 
L 194.570041 93.79685 
L 194.985761 96.013975 
L 195.297551 97.562915 
L 195.332194 97.503163 
L 195.505411 97.148375 
L 196.025061 95.769968 
L 196.302208 95.948009 
L 196.406138 96.241221 
L 196.475424 96.078662 
L 196.717928 94.757883 
L 196.995075 91.319688 
L 197.341508 86.997877 
L 197.514725 86.522385 
L 197.618655 86.756845 
L 197.861158 89.393548 
L 198.276878 95.160496 
L 198.623311 99.251602 
L 199.385465 104.186932 
L 199.731898 108.059945 
L 200.771198 111.840374 
L 200.840485 111.750955 
L 201.117631 110.76373 
L 201.325491 109.511705 
L 201.741211 103.634046 
L 202.884442 85.459431 
L 203.161588 85.009091 
L 203.196232 85.037302 
L 203.404092 85.760308 
L 203.508022 85.966983 
L 203.715882 86.312277 
L 204.027672 85.986338 
L 204.339462 84.836733 
L 204.824468 82.538183 
L 205.066972 81.265239 
L 205.205545 80.526157 
L 205.655908 77.323218 
L 205.794482 77.202537 
L 205.933055 77.215582 
L 206.071628 76.929643 
L 206.175558 76.844003 
L 206.210202 76.893564 
L 206.314132 77.338954 
L 206.521992 79.720494 
L 207.457362 92.05781 
L 207.492005 92.048194 
L 207.630579 91.902724 
L 207.838439 91.404041 
L 207.873082 91.436105 
L 208.150229 92.521199 
L 208.462019 93.742977 
L 208.565949 93.535648 
L 208.877739 91.515795 
L 209.432032 87.166659 
L 209.778465 83.572756 
L 209.951682 83.350613 
L 210.020969 83.585615 
L 210.263472 84.845172 
L 210.298115 84.778438 
L 210.436689 84.77783 
L 210.540619 85.033648 
L 210.713835 86.272727 
L 211.198842 91.322075 
L 211.787779 98.496775 
L 211.926352 98.504815 
L 212.203499 98.167415 
L 212.307429 97.990122 
L 212.480645 97.019696 
L 212.723149 93.750392 
L 213.381372 84.622397 
L 213.589232 84.007778 
L 213.831736 83.206163 
L 214.178169 82.026808 
L 214.524602 81.391723 
L 215.390686 76.210537 
L 215.529259 76.191187 
L 215.667832 76.379094 
L 216.048909 77.931396 
L 216.464629 80.667286 
L 216.880349 82.873237 
L 217.122852 85.494613 
L 217.988936 96.831733 
L 218.751089 101.162382 
L 218.924306 101.065523 
L 219.028236 100.944834 
L 219.166809 101.312394 
L 219.201453 101.293672 
L 219.374669 101.016411 
L 219.409313 101.110722 
L 219.617173 101.624108 
L 219.651816 101.601057 
L 219.755746 101.184873 
L 219.894319 99.537294 
L 220.310039 91.096667 
L 220.968263 80.088487 
L 221.418626 75.989478 
L 221.522556 76.543236 
L 221.695773 79.107997 
L 222.250066 88.113229 
L 222.735073 90.009158 
L 222.769716 89.959972 
L 222.977576 89.082539 
L 223.081506 89.290124 
L 223.185436 89.451047 
L 223.220079 89.392441 
L 223.358653 88.682304 
L 223.566513 87.999578 
L 223.670443 87.903693 
L 223.94759 89.022325 
L 224.15545 89.524677 
L 224.25938 89.181499 
L 224.46724 87.629359 
L 224.744386 86.37789 
L 224.952246 85.831705 
L 224.98689 85.852975 
L 225.160106 86.343729 
L 225.471896 87.984656 
L 225.749043 89.164029 
L 226.060833 91.49903 
L 226.822986 99.195407 
L 227.134776 100.036124 
L 227.342636 99.690689 
L 227.550496 99.470866 
L 227.58514 99.51517 
L 227.793 100.408467 
L 228.10479 102.376702 
L 228.451223 107.203044 
L 228.866943 112.398776 
L 229.45588 115.201148 
L 229.629097 115.375246 
L 229.733027 115.206308 
L 230.70304 109.479614 
L 231.049473 106.057371 
L 231.188047 105.611391 
L 231.74234 103.639751 
L 231.915557 103.530127 
L 232.26199 102.184108 
L 232.504493 99.768958 
L 232.954857 95.386153 
L 233.128073 94.549142 
L 233.232003 94.770591 
L 233.40522 95.229993 
L 233.439863 95.195104 
L 233.578437 94.539581 
L 235.137387 84.668413 
L 235.518464 83.392638 
L 235.726324 81.020977 
L 236.21133 76.722444 
L 236.31526 76.542616 
L 236.349904 76.599276 
L 236.41919 76.776952 
L 236.453834 76.702609 
L 236.696337 76.12144 
L 237.56242 72.326176 
L 238.60172 62.235426 
L 238.948154 60.796319 
L 239.12137 59.810695 
L 239.156014 59.881007 
L 239.259944 59.931425 
L 239.43316 60.171816 
L 239.779594 61.292642 
L 240.299244 65.732984 
L 241.165327 77.484771 
L 242.516417 86.656259 
L 242.897494 88.383646 
L 242.966781 88.498337 
L 243.763577 93.38862 
L 243.936794 94.614479 
L 244.595017 100.813744 
L 244.837521 101.728974 
L 244.906807 101.632161 
L 245.080024 100.394898 
L 245.461101 96.386884 
L 245.738248 91.631762 
L 246.465758 78.187753 
L 247.297198 66.616512 
L 247.608988 61.616436 
L 248.267211 47.502595 
L 248.821504 40.532783 
L 249.687588 33.659448 
L 250.137951 28.044618 
L 250.449741 25.327801 
L 250.761531 24.596137 
L 251.004035 24.271994 
L 251.107965 24.536539 
L 251.350468 26.299942 
L 251.731545 29.769138 
L 252.077978 30.013824 
L 252.216551 30.6617 
L 252.459055 33.180068 
L 252.909418 41.647234 
L 255.507668 94.221404 
L 255.958031 99.015299 
L 256.789472 106.21722 
L 256.997332 106.930378 
L 257.101262 106.453434 
L 257.482338 102.841871 
L 258.140562 93.904879 
L 258.868072 82.229256 
L 259.318435 80.546751 
L 259.526295 80.359636 
L 259.803442 79.752882 
L 260.011302 79.468197 
L 260.323092 79.370949 
L 260.496308 79.33701 
L 260.704168 78.709166 
L 261.812755 75.792786 
L 261.951329 76.261961 
L 262.297762 78.559178 
L 263.544922 91.248643 
L 263.822069 92.000036 
L 264.064572 92.152168 
L 264.203145 91.855992 
L 264.480292 90.591166 
L 264.757439 88.542864 
L 265.277089 84.444624 
L 265.727452 82.919091 
L 265.831382 82.617544 
L 266.177815 81.84437 
L 266.351032 81.97042 
L 266.524249 82.698807 
L 267.286402 86.516972 
L 267.321046 86.506284 
L 267.494262 86.157938 
L 268.083199 84.830179 
L 268.394989 85.361494 
L 268.429632 85.234016 
L 268.776066 83.130382 
L 269.746079 76.148822 
L 270.716092 67.718939 
L 271.270386 63.473112 
L 271.790036 61.237933 
L 271.893966 61.35607 
L 272.067182 62.055507 
L 272.413616 65.018129 
L 272.690763 66.727289 
L 273.348986 69.293649 
L 273.868636 70.079533 
L 274.318999 72.256899 
L 275.462229 78.275337 
L 276.189739 80.540245 
L 276.432243 80.709989 
L 277.055823 82.498171 
L 277.471543 83.700171 
L 277.714046 83.785162 
L 278.129766 83.839148 
L 278.406913 84.691908 
L 279.134423 86.915267 
L 279.41157 87.358849 
L 279.550143 87.302816 
L 279.72336 86.932016 
L 279.93122 85.889158 
L 280.381583 81.890935 
L 281.28231 71.101718 
L 282.910546 45.734845 
L 283.326267 43.45833 
L 283.638057 42.79568 
L 283.707343 42.777559 
L 283.949847 43.829187 
L 284.712 47.171918 
L 285.12772 47.835049 
L 285.54344 48.579689 
L 285.85523 49.597766 
L 286.16702 51.545198 
L 286.963817 56.762516 
L 288.34955 61.288342 
L 288.97313 63.724671 
L 289.59671 66.105668 
L 290.22029 69.040109 
L 290.566724 69.396642 
L 290.809227 69.394041 
L 291.05173 69.356527 
L 291.190304 69.619179 
L 291.398164 70.580263 
L 291.77924 73.673057 
L 292.783897 82.232544 
L 293.268904 86.603804 
L 293.892484 92.160918 
L 295.105001 97.571599 
L 295.451434 98.382664 
L 295.624651 98.412475 
L 295.832511 98.128245 
L 296.282874 96.838528 
L 297.252887 94.16408 
L 297.564677 91.746125 
L 298.915767 78.832418 
L 299.366131 75.373333 
L 299.920424 69.057407 
L 300.717221 56.894955 
L 301.479374 46.021252 
L 301.825808 43.933421 
L 302.033668 43.646667 
L 302.172241 43.745685 
L 302.414744 44.283778 
L 302.726534 45.636184 
L 304.839778 56.582782 
L 305.394071 59.851263 
L 305.809791 64.147575 
L 307.541958 84.119041 
L 308.373398 90.073099 
L 309.170195 95.394605 
L 309.412698 95.744663 
L 309.585915 95.680174 
L 309.759131 95.315273 
L 310.590572 91.870218 
L 311.040935 89.445577 
L 312.114878 82.880609 
L 312.599885 80.034553 
L 315.336708 61.420643 
L 315.683142 60.336239 
L 315.821715 60.288512 
L 315.960289 60.541477 
L 316.306722 61.858128 
L 316.653155 62.864341 
L 317.068875 63.902436 
L 317.449952 65.743674 
L 318.038889 68.473036 
L 318.801042 71.336496 
L 319.182119 72.465253 
L 319.667125 72.689441 
L 320.602495 72.83942 
L 321.087502 72.586531 
L 321.295362 72.761764 
L 321.607152 73.040832 
L 321.849656 72.846214 
L 322.057516 72.342151 
L 322.369306 70.840499 
L 323.339319 65.465833 
L 323.581822 65.229537 
L 323.755039 65.355812 
L 323.997542 65.879267 
L 324.586479 67.375935 
L 324.898269 68.284692 
L 325.417919 70.713558 
L 326.249359 74.253927 
L 326.699723 74.381997 
L 326.976869 74.10193 
L 327.392589 73.286928 
L 328.327959 71.295823 
L 328.501176 71.53362 
L 328.812966 72.480955 
L 329.297973 74.700787 
L 330.060126 78.358905 
L 331.237999 82.330488 
L 331.515146 82.369907 
L 331.688363 82.134173 
L 331.930866 81.279292 
L 332.2773 78.912244 
L 334.321256 62.426477 
L 334.598403 61.958021 
L 334.77162 62.019697 
L 335.014123 62.46367 
L 335.533773 63.441541 
L 336.4345 64.270721 
L 336.64236 64.033598 
L 337.023436 63.503231 
L 337.196653 63.701071 
L 337.439157 64.442858 
L 337.820233 66.586543 
L 338.894177 74.229779 
L 339.5524 79.105268 
L 339.829547 79.830168 
L 339.96812 79.777999 
L 340.141337 79.326037 
L 340.453127 77.626636 
L 340.90349 75.493917 
L 341.21528 75.031584 
L 341.52707 74.631409 
L 341.700287 73.948321 
L 342.081363 71.076777 
L 342.704944 66.613684 
L 342.947447 66.006196 
L 343.08602 66.059104 
L 343.259237 66.496018 
L 344.22925 69.662161 
L 344.54104 69.730849 
L 345.095334 69.875443 
L 345.545697 70.454976 
L 345.89213 70.927315 
L 346.550354 71.07953 
L 347.416437 71.697152 
L 347.693584 71.433899 
L 348.005374 71.174165 
L 348.317164 71.238006 
L 348.767527 71.444985 
L 348.940744 71.273957 
L 349.113961 70.683523 
L 349.633611 69.244479 
L 349.910757 68.911883 
L 350.083974 68.996365 
L 350.361121 69.584522 
L 350.742197 70.065611 
L 351.331134 70.515165 
L 352.266504 70.787241 
L 352.439721 70.62293 
L 352.682224 70.018392 
L 352.994014 68.537916 
L 354.102601 62.267904 
L 354.622251 59.985556 
L 355.384404 56.470613 
L 355.661551 56.167199 
L 355.938698 55.997887 
L 356.181201 55.710812 
L 356.319774 55.831694 
L 356.527634 56.45251 
L 356.839424 58.245397 
L 357.359074 62.7448 
L 357.878724 69.663242 
L 358.710164 84.512104 
L 359.368388 94.72133 
L 359.714821 97.43692 
L 359.922681 97.901048 
L 360.026611 97.796378 
L 360.199828 97.155417 
L 360.476975 95.096166 
L 361.724135 84.44817 
L 362.520931 78.305932 
L 363.421658 70.833388 
L 363.872021 68.919124 
L 365.708118 63.62617 
L 365.881335 63.672479 
L 366.054552 63.986487 
L 366.297055 64.948879 
L 367.024565 69.323456 
L 368.306368 76.829123 
L 369.311025 81.977562 
L 369.726745 83.007329 
L 369.969249 83.179806 
L 370.142465 83.069732 
L 370.419612 82.553486 
L 370.731402 81.491248 
L 371.043192 79.53016 
L 371.493555 74.371671 
L 372.394282 65.019932 
L 373.676085 53.913908 
L 374.057162 52.524926 
L 374.265022 52.356462 
L 374.403595 52.507422 
L 374.611455 53.232137 
L 374.923245 55.419308 
L 376.724699 71.885155 
L 377.313636 77.083003 
L 377.729356 79.200049 
L 377.937216 79.428056 
L 378.075789 79.259315 
L 378.318292 78.465356 
L 378.837942 75.661552 
L 379.530809 72.283707 
L 379.773312 71.496675 
L 380.223676 70.404786 
L 380.362249 70.396834 
L 380.535466 70.722041 
L 380.847256 72.040209 
L 382.891213 81.817252 
L 383.168359 82.095754 
L 383.480149 82.089964 
L 383.791939 82.087126 
L 384.138373 82.188937 
L 384.519449 82.295459 
L 384.831239 82.386284 
L 385.073743 82.082903 
L 385.420176 81.242958 
L 386.18233 78.789619 
L 386.979126 75.674061 
L 387.256273 75.392725 
L 387.775923 75.177882 
L 388.05307 74.520108 
L 388.503433 72.672454 
L 388.98844 69.629863 
L 390.097026 61.701224 
L 390.304886 60.700639 
L 391.621333 53.116221 
L 391.829193 52.953316 
L 391.967767 53.051994 
L 392.41813 54.004778 
L 392.72992 55.954498 
L 393.388143 61.7492 
L 394.947093 76.232808 
L 395.362813 78.123806 
L 395.986393 80.757376 
L 396.57533 84.710812 
L 397.025694 87.001827 
L 397.337484 87.587703 
L 397.787847 88.203385 
L 398.03035 89.122496 
L 398.619287 92.604011 
L 398.96572 94.210252 
L 399.242867 94.571773 
L 399.554657 94.56936 
L 399.866447 94.440853 
L 400.074307 93.984117 
L 400.905747 91.054602 
L 401.113607 89.463899 
L 402.430054 76.986994 
L 403.157564 70.086673 
L 403.885074 64.629781 
L 404.508654 61.674877 
L 405.374737 60.039726 
L 405.513311 60.075784 
L 405.651884 60.392717 
L 406.067604 61.858248 
L 406.136891 61.763751 
L 406.587254 60.692562 
L 407.002974 59.502848 
L 407.210834 59.43842 
L 407.384051 59.640074 
L 407.765128 60.527354 
L 407.972988 61.593674 
L 408.388708 63.679718 
L 408.873714 66.328304 
L 409.220148 69.556424 
L 410.259448 81.732306 
L 410.363378 81.612111 
L 410.605881 80.551069 
L 411.437321 76.203737 
L 411.679824 75.354085 
L 411.679824 75.354085 
" clip-path="url(#pd82c14cd53)" style="fill: none; stroke: #0000ff; stroke-width: 2; stroke-linecap: square"/>
   </g>
   <g id="patch_3">
    <path d="M 47.961178 153.232572 
L 47.961178 18.118365 
" style="fill: none; stroke: #000000; stroke-width: 0.8; stroke-linejoin: miter; stroke-linecap: square"/>
   </g>
   <g id="patch_4">
    <path d="M 428.99976 153.232572 
L 428.99976 18.118365 
" style="fill: none; stroke: #000000; stroke-width: 0.8; stroke-linejoin: miter; stroke-linecap: square"/>
   </g>
   <g id="patch_5">
    <path d="M 47.961178 153.232572 
L 428.99976 153.232572 
" style="fill: none; stroke: #000000; stroke-width: 0.8; stroke-linejoin: miter; stroke-linecap: square"/>
   </g>
   <g id="patch_6">
    <path d="M 47.961178 18.118365 
L 428.99976 18.118365 
" style="fill: none; stroke: #000000; stroke-width: 0.8; stroke-linejoin: miter; stroke-linecap: square"/>
   </g>
   <g id="text_8">
    <!-- Mean velocity component v_x over time -->
    <g transform="translate(104.205156 12.118365) scale(0.12 -0.12)">
     <defs>
      <path id="DejaVuSans-Bold-4d" d="M 588 4666 
L 2119 4666 
L 3181 2169 
L 4250 4666 
L 5778 4666 
L 5778 0 
L 4641 0 
L 4641 3413 
L 3566 897 
L 2803 897 
L 1728 3413 
L 1728 0 
L 588 0 
L 588 4666 
z
" transform="scale(0.015625)"/>
      <path id="DejaVuSans-Bold-65" d="M 4031 1759 
L 4031 1441 
L 1416 1441 
Q 1456 1047 1700 850 
Q 1944 653 2381 653 
Q 2734 653 3104 758 
Q 3475 863 3866 1075 
L 3866 213 
Q 3469 63 3072 -14 
Q 2675 -91 2278 -91 
Q 1328 -91 801 392 
Q 275 875 275 1747 
Q 275 2603 792 3093 
Q 1309 3584 2216 3584 
Q 3041 3584 3536 3087 
Q 4031 2591 4031 1759 
z
M 2881 2131 
Q 2881 2450 2695 2645 
Q 2509 2841 2209 2841 
Q 1884 2841 1681 2658 
Q 1478 2475 1428 2131 
L 2881 2131 
z
" transform="scale(0.015625)"/>
      <path id="DejaVuSans-Bold-61" d="M 2106 1575 
Q 1756 1575 1579 1456 
Q 1403 1338 1403 1106 
Q 1403 894 1545 773 
Q 1688 653 1941 653 
Q 2256 653 2472 879 
Q 2688 1106 2688 1447 
L 2688 1575 
L 2106 1575 
z
M 3816 1997 
L 3816 0 
L 2688 0 
L 2688 519 
Q 2463 200 2181 54 
Q 1900 -91 1497 -91 
Q 953 -91 614 226 
Q 275 544 275 1050 
Q 275 1666 698 1953 
Q 1122 2241 2028 2241 
L 2688 2241 
L 2688 2328 
Q 2688 2594 2478 2717 
Q 2269 2841 1825 2841 
Q 1466 2841 1156 2769 
Q 847 2697 581 2553 
L 581 3406 
Q 941 3494 1303 3539 
Q 1666 3584 2028 3584 
Q 2975 3584 3395 3211 
Q 3816 2838 3816 1997 
z
" transform="scale(0.015625)"/>
      <path id="DejaVuSans-Bold-6e" d="M 4056 2131 
L 4056 0 
L 2931 0 
L 2931 347 
L 2931 1631 
Q 2931 2084 2911 2256 
Q 2891 2428 2841 2509 
Q 2775 2619 2662 2680 
Q 2550 2741 2406 2741 
Q 2056 2741 1856 2470 
Q 1656 2200 1656 1722 
L 1656 0 
L 538 0 
L 538 3500 
L 1656 3500 
L 1656 2988 
Q 1909 3294 2193 3439 
Q 2478 3584 2822 3584 
Q 3428 3584 3742 3212 
Q 4056 2841 4056 2131 
z
" transform="scale(0.015625)"/>
      <path id="DejaVuSans-Bold-20" transform="scale(0.015625)"/>
      <path id="DejaVuSans-Bold-76" d="M 97 3500 
L 1216 3500 
L 2088 1081 
L 2956 3500 
L 4078 3500 
L 2700 0 
L 1472 0 
L 97 3500 
z
" transform="scale(0.015625)"/>
      <path id="DejaVuSans-Bold-6c" d="M 538 4863 
L 1656 4863 
L 1656 0 
L 538 0 
L 538 4863 
z
" transform="scale(0.015625)"/>
      <path id="DejaVuSans-Bold-6f" d="M 2203 2784 
Q 1831 2784 1636 2517 
Q 1441 2250 1441 1747 
Q 1441 1244 1636 976 
Q 1831 709 2203 709 
Q 2569 709 2762 976 
Q 2956 1244 2956 1747 
Q 2956 2250 2762 2517 
Q 2569 2784 2203 2784 
z
M 2203 3584 
Q 3106 3584 3614 3096 
Q 4122 2609 4122 1747 
Q 4122 884 3614 396 
Q 3106 -91 2203 -91 
Q 1297 -91 786 396 
Q 275 884 275 1747 
Q 275 2609 786 3096 
Q 1297 3584 2203 3584 
z
" transform="scale(0.015625)"/>
      <path id="DejaVuSans-Bold-63" d="M 3366 3391 
L 3366 2478 
Q 3138 2634 2908 2709 
Q 2678 2784 2431 2784 
Q 1963 2784 1702 2511 
Q 1441 2238 1441 1747 
Q 1441 1256 1702 982 
Q 1963 709 2431 709 
Q 2694 709 2930 787 
Q 3166 866 3366 1019 
L 3366 103 
Q 3103 6 2833 -42 
Q 2563 -91 2291 -91 
Q 1344 -91 809 395 
Q 275 881 275 1747 
Q 275 2613 809 3098 
Q 1344 3584 2291 3584 
Q 2566 3584 2833 3536 
Q 3100 3488 3366 3391 
z
" transform="scale(0.015625)"/>
      <path id="DejaVuSans-Bold-69" d="M 538 3500 
L 1656 3500 
L 1656 0 
L 538 0 
L 538 3500 
z
M 538 4863 
L 1656 4863 
L 1656 3950 
L 538 3950 
L 538 4863 
z
" transform="scale(0.015625)"/>
      <path id="DejaVuSans-Bold-74" d="M 1759 4494 
L 1759 3500 
L 2913 3500 
L 2913 2700 
L 1759 2700 
L 1759 1216 
Q 1759 972 1856 886 
Q 1953 800 2241 800 
L 2816 800 
L 2816 0 
L 1856 0 
Q 1194 0 917 276 
Q 641 553 641 1216 
L 641 2700 
L 84 2700 
L 84 3500 
L 641 3500 
L 641 4494 
L 1759 4494 
z
" transform="scale(0.015625)"/>
      <path id="DejaVuSans-Bold-79" d="M 78 3500 
L 1197 3500 
L 2138 1125 
L 2938 3500 
L 4056 3500 
L 2584 -331 
Q 2363 -916 2067 -1148 
Q 1772 -1381 1288 -1381 
L 641 -1381 
L 641 -647 
L 991 -647 
Q 1275 -647 1404 -556 
Q 1534 -466 1606 -231 
L 1638 -134 
L 78 3500 
z
" transform="scale(0.015625)"/>
      <path id="DejaVuSans-Bold-6d" d="M 3781 2919 
Q 3994 3244 4286 3414 
Q 4578 3584 4928 3584 
Q 5531 3584 5847 3212 
Q 6163 2841 6163 2131 
L 6163 0 
L 5038 0 
L 5038 1825 
Q 5041 1866 5042 1909 
Q 5044 1953 5044 2034 
Q 5044 2406 4934 2573 
Q 4825 2741 4581 2741 
Q 4263 2741 4089 2478 
Q 3916 2216 3909 1719 
L 3909 0 
L 2784 0 
L 2784 1825 
Q 2784 2406 2684 2573 
Q 2584 2741 2328 2741 
Q 2006 2741 1831 2477 
Q 1656 2213 1656 1722 
L 1656 0 
L 531 0 
L 531 3500 
L 1656 3500 
L 1656 2988 
Q 1863 3284 2130 3434 
Q 2397 3584 2719 3584 
Q 3081 3584 3359 3409 
Q 3638 3234 3781 2919 
z
" transform="scale(0.015625)"/>
      <path id="DejaVuSans-Bold-70" d="M 1656 506 
L 1656 -1331 
L 538 -1331 
L 538 3500 
L 1656 3500 
L 1656 2988 
Q 1888 3294 2169 3439 
Q 2450 3584 2816 3584 
Q 3463 3584 3878 3070 
Q 4294 2556 4294 1747 
Q 4294 938 3878 423 
Q 3463 -91 2816 -91 
Q 2450 -91 2169 54 
Q 1888 200 1656 506 
z
M 2400 2772 
Q 2041 2772 1848 2508 
Q 1656 2244 1656 1747 
Q 1656 1250 1848 986 
Q 2041 722 2400 722 
Q 2759 722 2948 984 
Q 3138 1247 3138 1747 
Q 3138 2247 2948 2509 
Q 2759 2772 2400 2772 
z
" transform="scale(0.015625)"/>
      <path id="DejaVuSans-Bold-5f" d="M 3200 -916 
L 3200 -1509 
L 0 -1509 
L 0 -916 
L 3200 -916 
z
" transform="scale(0.015625)"/>
      <path id="DejaVuSans-Bold-78" d="M 1422 1791 
L 159 3500 
L 1344 3500 
L 2059 2463 
L 2784 3500 
L 3969 3500 
L 2706 1797 
L 4031 0 
L 2847 0 
L 2059 1106 
L 1281 0 
L 97 0 
L 1422 1791 
z
" transform="scale(0.015625)"/>
      <path id="DejaVuSans-Bold-72" d="M 3138 2547 
Q 2991 2616 2845 2648 
Q 2700 2681 2553 2681 
Q 2122 2681 1889 2404 
Q 1656 2128 1656 1613 
L 1656 0 
L 538 0 
L 538 3500 
L 1656 3500 
L 1656 2925 
Q 1872 3269 2151 3426 
Q 2431 3584 2822 3584 
Q 2878 3584 2943 3579 
Q 3009 3575 3134 3559 
L 3138 2547 
z
" transform="scale(0.015625)"/>
     </defs>
     <use xlink:href="#DejaVuSans-Bold-4d"/>
     <use xlink:href="#DejaVuSans-Bold-65" transform="translate(99.511719 0)"/>
     <use xlink:href="#DejaVuSans-Bold-61" transform="translate(167.333984 0)"/>
     <use xlink:href="#DejaVuSans-Bold-6e" transform="translate(234.814453 0)"/>
     <use xlink:href="#DejaVuSans-Bold-20" transform="translate(306.005859 0)"/>
     <use xlink:href="#DejaVuSans-Bold-76" transform="translate(340.820312 0)"/>
     <use xlink:href="#DejaVuSans-Bold-65" transform="translate(406.005859 0)"/>
     <use xlink:href="#DejaVuSans-Bold-6c" transform="translate(473.828125 0)"/>
     <use xlink:href="#DejaVuSans-Bold-6f" transform="translate(508.105469 0)"/>
     <use xlink:href="#DejaVuSans-Bold-63" transform="translate(576.806641 0)"/>
     <use xlink:href="#DejaVuSans-Bold-69" transform="translate(636.083984 0)"/>
     <use xlink:href="#DejaVuSans-Bold-74" transform="translate(670.361328 0)"/>
     <use xlink:href="#DejaVuSans-Bold-79" transform="translate(718.164062 0)"/>
     <use xlink:href="#DejaVuSans-Bold-20" transform="translate(783.349609 0)"/>
     <use xlink:href="#DejaVuSans-Bold-63" transform="translate(818.164062 0)"/>
     <use xlink:href="#DejaVuSans-Bold-6f" transform="translate(877.441406 0)"/>
     <use xlink:href="#DejaVuSans-Bold-6d" transform="translate(946.142578 0)"/>
     <use xlink:href="#DejaVuSans-Bold-70" transform="translate(1050.341797 0)"/>
     <use xlink:href="#DejaVuSans-Bold-6f" transform="translate(1121.923828 0)"/>
     <use xlink:href="#DejaVuSans-Bold-6e" transform="translate(1190.625 0)"/>
     <use xlink:href="#DejaVuSans-Bold-65" transform="translate(1261.816406 0)"/>
     <use xlink:href="#DejaVuSans-Bold-6e" transform="translate(1329.638672 0)"/>
     <use xlink:href="#DejaVuSans-Bold-74" transform="translate(1400.830078 0)"/>
     <use xlink:href="#DejaVuSans-Bold-20" transform="translate(1448.632812 0)"/>
     <use xlink:href="#DejaVuSans-Bold-76" transform="translate(1483.447266 0)"/>
     <use xlink:href="#DejaVuSans-Bold-5f" transform="translate(1548.632812 0)"/>
     <use xlink:href="#DejaVuSans-Bold-78" transform="translate(1598.632812 0)"/>
     <use xlink:href="#DejaVuSans-Bold-20" transform="translate(1663.134766 0)"/>
     <use xlink:href="#DejaVuSans-Bold-6f" transform="translate(1697.949219 0)"/>
     <use xlink:href="#DejaVuSans-Bold-76" transform="translate(1766.650391 0)"/>
     <use xlink:href="#DejaVuSans-Bold-65" transform="translate(1831.835938 0)"/>
     <use xlink:href="#DejaVuSans-Bold-72" transform="translate(1899.658203 0)"/>
     <use xlink:href="#DejaVuSans-Bold-20" transform="translate(1948.974609 0)"/>
     <use xlink:href="#DejaVuSans-Bold-74" transform="translate(1983.789062 0)"/>
     <use xlink:href="#DejaVuSans-Bold-69" transform="translate(2031.591797 0)"/>
     <use xlink:href="#DejaVuSans-Bold-6d" transform="translate(2065.869141 0)"/>
     <use xlink:href="#DejaVuSans-Bold-65" transform="translate(2170.068359 0)"/>
    </g>
   </g>
  </g>
  <g id="axes_2">
   <g id="patch_7">
    <path d="M 47.961178 326.64351 
L 428.99976 326.64351 
L 428.99976 191.529302 
L 47.961178 191.529302 
z
" style="fill: #ffffff"/>
   </g>
   <g id="matplotlib.axis_3">
    <g id="xtick_7">
     <g id="line2d_24">
      <path d="M 65.281113 326.64351 
L 65.281113 191.529302 
" clip-path="url(#p6b216e808a)" style="fill: none; stroke: #b0b0b0; stroke-width: 0.8; stroke-linecap: square"/>
     </g>
     <g id="line2d_25">
      <g>
       <use xlink:href="#m1f08c4f23f" x="65.281113" y="326.64351" style="stroke: #000000; stroke-width: 0.8"/>
      </g>
     </g>
     <g id="text_9">
      <!-- 0 -->
      <g transform="translate(62.099863 341.241947) scale(0.1 -0.1)">
       <use xlink:href="#DejaVuSans-30"/>
      </g>
     </g>
    </g>
    <g id="xtick_8">
     <g id="line2d_26">
      <path d="M 134.567784 326.64351 
L 134.567784 191.529302 
" clip-path="url(#p6b216e808a)" style="fill: none; stroke: #b0b0b0; stroke-width: 0.8; stroke-linecap: square"/>
     </g>
     <g id="line2d_27">
      <g>
       <use xlink:href="#m1f08c4f23f" x="134.567784" y="326.64351" style="stroke: #000000; stroke-width: 0.8"/>
      </g>
     </g>
     <g id="text_10">
      <!-- 2000 -->
      <g transform="translate(121.842784 341.241947) scale(0.1 -0.1)">
       <use xlink:href="#DejaVuSans-32"/>
       <use xlink:href="#DejaVuSans-30" transform="translate(63.623047 0)"/>
       <use xlink:href="#DejaVuSans-30" transform="translate(127.246094 0)"/>
       <use xlink:href="#DejaVuSans-30" transform="translate(190.869141 0)"/>
      </g>
     </g>
    </g>
    <g id="xtick_9">
     <g id="line2d_28">
      <path d="M 203.854455 326.64351 
L 203.854455 191.529302 
" clip-path="url(#p6b216e808a)" style="fill: none; stroke: #b0b0b0; stroke-width: 0.8; stroke-linecap: square"/>
     </g>
     <g id="line2d_29">
      <g>
       <use xlink:href="#m1f08c4f23f" x="203.854455" y="326.64351" style="stroke: #000000; stroke-width: 0.8"/>
      </g>
     </g>
     <g id="text_11">
      <!-- 4000 -->
      <g transform="translate(191.129455 341.241947) scale(0.1 -0.1)">
       <defs>
        <path id="DejaVuSans-34" d="M 2419 4116 
L 825 1625 
L 2419 1625 
L 2419 4116 
z
M 2253 4666 
L 3047 4666 
L 3047 1625 
L 3713 1625 
L 3713 1100 
L 3047 1100 
L 3047 0 
L 2419 0 
L 2419 1100 
L 313 1100 
L 313 1709 
L 2253 4666 
z
" transform="scale(0.015625)"/>
       </defs>
       <use xlink:href="#DejaVuSans-34"/>
       <use xlink:href="#DejaVuSans-30" transform="translate(63.623047 0)"/>
       <use xlink:href="#DejaVuSans-30" transform="translate(127.246094 0)"/>
       <use xlink:href="#DejaVuSans-30" transform="translate(190.869141 0)"/>
      </g>
     </g>
    </g>
    <g id="xtick_10">
     <g id="line2d_30">
      <path d="M 273.141126 326.64351 
L 273.141126 191.529302 
" clip-path="url(#p6b216e808a)" style="fill: none; stroke: #b0b0b0; stroke-width: 0.8; stroke-linecap: square"/>
     </g>
     <g id="line2d_31">
      <g>
       <use xlink:href="#m1f08c4f23f" x="273.141126" y="326.64351" style="stroke: #000000; stroke-width: 0.8"/>
      </g>
     </g>
     <g id="text_12">
      <!-- 6000 -->
      <g transform="translate(260.416126 341.241947) scale(0.1 -0.1)">
       <defs>
        <path id="DejaVuSans-36" d="M 2113 2584 
Q 1688 2584 1439 2293 
Q 1191 2003 1191 1497 
Q 1191 994 1439 701 
Q 1688 409 2113 409 
Q 2538 409 2786 701 
Q 3034 994 3034 1497 
Q 3034 2003 2786 2293 
Q 2538 2584 2113 2584 
z
M 3366 4563 
L 3366 3988 
Q 3128 4100 2886 4159 
Q 2644 4219 2406 4219 
Q 1781 4219 1451 3797 
Q 1122 3375 1075 2522 
Q 1259 2794 1537 2939 
Q 1816 3084 2150 3084 
Q 2853 3084 3261 2657 
Q 3669 2231 3669 1497 
Q 3669 778 3244 343 
Q 2819 -91 2113 -91 
Q 1303 -91 875 529 
Q 447 1150 447 2328 
Q 447 3434 972 4092 
Q 1497 4750 2381 4750 
Q 2619 4750 2861 4703 
Q 3103 4656 3366 4563 
z
" transform="scale(0.015625)"/>
       </defs>
       <use xlink:href="#DejaVuSans-36"/>
       <use xlink:href="#DejaVuSans-30" transform="translate(63.623047 0)"/>
       <use xlink:href="#DejaVuSans-30" transform="translate(127.246094 0)"/>
       <use xlink:href="#DejaVuSans-30" transform="translate(190.869141 0)"/>
      </g>
     </g>
    </g>
    <g id="xtick_11">
     <g id="line2d_32">
      <path d="M 342.427797 326.64351 
L 342.427797 191.529302 
" clip-path="url(#p6b216e808a)" style="fill: none; stroke: #b0b0b0; stroke-width: 0.8; stroke-linecap: square"/>
     </g>
     <g id="line2d_33">
      <g>
       <use xlink:href="#m1f08c4f23f" x="342.427797" y="326.64351" style="stroke: #000000; stroke-width: 0.8"/>
      </g>
     </g>
     <g id="text_13">
      <!-- 8000 -->
      <g transform="translate(329.702797 341.241947) scale(0.1 -0.1)">
       <defs>
        <path id="DejaVuSans-38" d="M 2034 2216 
Q 1584 2216 1326 1975 
Q 1069 1734 1069 1313 
Q 1069 891 1326 650 
Q 1584 409 2034 409 
Q 2484 409 2743 651 
Q 3003 894 3003 1313 
Q 3003 1734 2745 1975 
Q 2488 2216 2034 2216 
z
M 1403 2484 
Q 997 2584 770 2862 
Q 544 3141 544 3541 
Q 544 4100 942 4425 
Q 1341 4750 2034 4750 
Q 2731 4750 3128 4425 
Q 3525 4100 3525 3541 
Q 3525 3141 3298 2862 
Q 3072 2584 2669 2484 
Q 3125 2378 3379 2068 
Q 3634 1759 3634 1313 
Q 3634 634 3220 271 
Q 2806 -91 2034 -91 
Q 1263 -91 848 271 
Q 434 634 434 1313 
Q 434 1759 690 2068 
Q 947 2378 1403 2484 
z
M 1172 3481 
Q 1172 3119 1398 2916 
Q 1625 2713 2034 2713 
Q 2441 2713 2670 2916 
Q 2900 3119 2900 3481 
Q 2900 3844 2670 4047 
Q 2441 4250 2034 4250 
Q 1625 4250 1398 4047 
Q 1172 3844 1172 3481 
z
" transform="scale(0.015625)"/>
       </defs>
       <use xlink:href="#DejaVuSans-38"/>
       <use xlink:href="#DejaVuSans-30" transform="translate(63.623047 0)"/>
       <use xlink:href="#DejaVuSans-30" transform="translate(127.246094 0)"/>
       <use xlink:href="#DejaVuSans-30" transform="translate(190.869141 0)"/>
      </g>
     </g>
    </g>
    <g id="xtick_12">
     <g id="line2d_34">
      <path d="M 411.714468 326.64351 
L 411.714468 191.529302 
" clip-path="url(#p6b216e808a)" style="fill: none; stroke: #b0b0b0; stroke-width: 0.8; stroke-linecap: square"/>
     </g>
     <g id="line2d_35">
      <g>
       <use xlink:href="#m1f08c4f23f" x="411.714468" y="326.64351" style="stroke: #000000; stroke-width: 0.8"/>
      </g>
     </g>
     <g id="text_14">
      <!-- 10000 -->
      <g transform="translate(395.808218 341.241947) scale(0.1 -0.1)">
       <use xlink:href="#DejaVuSans-31"/>
       <use xlink:href="#DejaVuSans-30" transform="translate(63.623047 0)"/>
       <use xlink:href="#DejaVuSans-30" transform="translate(127.246094 0)"/>
       <use xlink:href="#DejaVuSans-30" transform="translate(190.869141 0)"/>
       <use xlink:href="#DejaVuSans-30" transform="translate(254.492188 0)"/>
      </g>
     </g>
    </g>
    <g id="text_15">
     <!-- timestep -->
     <g transform="translate(216.36875 354.920073) scale(0.1 -0.1)">
      <use xlink:href="#DejaVuSans-74"/>
      <use xlink:href="#DejaVuSans-69" transform="translate(39.208984 0)"/>
      <use xlink:href="#DejaVuSans-6d" transform="translate(66.992188 0)"/>
      <use xlink:href="#DejaVuSans-65" transform="translate(164.404297 0)"/>
      <use xlink:href="#DejaVuSans-73" transform="translate(225.927734 0)"/>
      <use xlink:href="#DejaVuSans-74" transform="translate(278.027344 0)"/>
      <use xlink:href="#DejaVuSans-65" transform="translate(317.236328 0)"/>
      <use xlink:href="#DejaVuSans-70" transform="translate(378.759766 0)"/>
     </g>
    </g>
   </g>
   <g id="matplotlib.axis_4">
    <g id="ytick_6">
     <g id="line2d_36">
      <path d="M 47.961178 325.223457 
L 428.99976 325.223457 
" clip-path="url(#p6b216e808a)" style="fill: none; stroke: #b0b0b0; stroke-width: 0.8; stroke-linecap: square"/>
     </g>
     <g id="line2d_37">
      <g>
       <use xlink:href="#mdff06d571c" x="47.961178" y="325.223457" style="stroke: #000000; stroke-width: 0.8"/>
      </g>
     </g>
     <g id="text_16">
      <!-- −0.3 -->
      <g transform="translate(16.678365 329.022676) scale(0.1 -0.1)">
       <use xlink:href="#DejaVuSans-2212"/>
       <use xlink:href="#DejaVuSans-30" transform="translate(83.789062 0)"/>
       <use xlink:href="#DejaVuSans-2e" transform="translate(147.412109 0)"/>
       <use xlink:href="#DejaVuSans-33" transform="translate(179.199219 0)"/>
      </g>
     </g>
    </g>
    <g id="ytick_7">
     <g id="line2d_38">
      <path d="M 47.961178 295.797037 
L 428.99976 295.797037 
" clip-path="url(#p6b216e808a)" style="fill: none; stroke: #b0b0b0; stroke-width: 0.8; stroke-linecap: square"/>
     </g>
     <g id="line2d_39">
      <g>
       <use xlink:href="#mdff06d571c" x="47.961178" y="295.797037" style="stroke: #000000; stroke-width: 0.8"/>
      </g>
     </g>
     <g id="text_17">
      <!-- −0.2 -->
      <g transform="translate(16.678365 299.596256) scale(0.1 -0.1)">
       <use xlink:href="#DejaVuSans-2212"/>
       <use xlink:href="#DejaVuSans-30" transform="translate(83.789062 0)"/>
       <use xlink:href="#DejaVuSans-2e" transform="translate(147.412109 0)"/>
       <use xlink:href="#DejaVuSans-32" transform="translate(179.199219 0)"/>
      </g>
     </g>
    </g>
    <g id="ytick_8">
     <g id="line2d_40">
      <path d="M 47.961178 266.370617 
L 428.99976 266.370617 
" clip-path="url(#p6b216e808a)" style="fill: none; stroke: #b0b0b0; stroke-width: 0.8; stroke-linecap: square"/>
     </g>
     <g id="line2d_41">
      <g>
       <use xlink:href="#mdff06d571c" x="47.961178" y="266.370617" style="stroke: #000000; stroke-width: 0.8"/>
      </g>
     </g>
     <g id="text_18">
      <!-- −0.1 -->
      <g transform="translate(16.678365 270.169836) scale(0.1 -0.1)">
       <use xlink:href="#DejaVuSans-2212"/>
       <use xlink:href="#DejaVuSans-30" transform="translate(83.789062 0)"/>
       <use xlink:href="#DejaVuSans-2e" transform="translate(147.412109 0)"/>
       <use xlink:href="#DejaVuSans-31" transform="translate(179.199219 0)"/>
      </g>
     </g>
    </g>
    <g id="ytick_9">
     <g id="line2d_42">
      <path d="M 47.961178 236.944198 
L 428.99976 236.944198 
" clip-path="url(#p6b216e808a)" style="fill: none; stroke: #b0b0b0; stroke-width: 0.8; stroke-linecap: square"/>
     </g>
     <g id="line2d_43">
      <g>
       <use xlink:href="#mdff06d571c" x="47.961178" y="236.944198" style="stroke: #000000; stroke-width: 0.8"/>
      </g>
     </g>
     <g id="text_19">
      <!-- 0.0 -->
      <g transform="translate(25.058053 240.743416) scale(0.1 -0.1)">
       <use xlink:href="#DejaVuSans-30"/>
       <use xlink:href="#DejaVuSans-2e" transform="translate(63.623047 0)"/>
       <use xlink:href="#DejaVuSans-30" transform="translate(95.410156 0)"/>
      </g>
     </g>
    </g>
    <g id="ytick_10">
     <g id="line2d_44">
      <path d="M 47.961178 207.517778 
L 428.99976 207.517778 
" clip-path="url(#p6b216e808a)" style="fill: none; stroke: #b0b0b0; stroke-width: 0.8; stroke-linecap: square"/>
     </g>
     <g id="line2d_45">
      <g>
       <use xlink:href="#mdff06d571c" x="47.961178" y="207.517778" style="stroke: #000000; stroke-width: 0.8"/>
      </g>
     </g>
     <g id="text_20">
      <!-- 0.1 -->
      <g transform="translate(25.058053 211.316997) scale(0.1 -0.1)">
       <use xlink:href="#DejaVuSans-30"/>
       <use xlink:href="#DejaVuSans-2e" transform="translate(63.623047 0)"/>
       <use xlink:href="#DejaVuSans-31" transform="translate(95.410156 0)"/>
      </g>
     </g>
    </g>
    <g id="text_21">
     <!-- v_y -->
     <g transform="translate(10.320553 267.505156) rotate(-90) scale(0.1 -0.1)">
      <defs>
       <path id="DejaVuSans-79" d="M 2059 -325 
Q 1816 -950 1584 -1140 
Q 1353 -1331 966 -1331 
L 506 -1331 
L 506 -850 
L 844 -850 
Q 1081 -850 1212 -737 
Q 1344 -625 1503 -206 
L 1606 56 
L 191 3500 
L 800 3500 
L 1894 763 
L 2988 3500 
L 3597 3500 
L 2059 -325 
z
" transform="scale(0.015625)"/>
      </defs>
      <use xlink:href="#DejaVuSans-76"/>
      <use xlink:href="#DejaVuSans-5f" transform="translate(59.179688 0)"/>
      <use xlink:href="#DejaVuSans-79" transform="translate(109.179688 0)"/>
     </g>
    </g>
   </g>
   <g id="line2d_46">
    <path d="M 65.281113 231.681981 
L 65.419686 231.326271 
L 65.45433 231.404064 
L 65.627546 232.563707 
L 65.939336 236.716238 
L 66.320413 243.144155 
L 67.463643 268.522284 
L 68.05258 272.803495 
L 68.225797 273.198403 
L 68.641517 275.142169 
L 68.745447 275.360748 
L 69.09188 277.529521 
L 69.5076 281.879291 
L 70.13118 283.962894 
L 70.33904 284.587212 
L 70.373683 284.53767 
L 70.75476 283.215128 
L 70.824047 283.378923 
L 71.031907 283.647534 
L 71.5862 287.617188 
L 72.036563 292.046495 
L 72.071207 291.987573 
L 72.244423 290.502597 
L 73.56087 274.682953 
L 73.76873 274.191675 
L 73.803374 274.23351 
L 73.941947 274.8324 
L 74.253737 276.764809 
L 74.39231 276.542256 
L 74.669457 275.902662 
L 74.7041 275.996195 
L 74.946604 277.189467 
L 75.01589 277.208532 
L 75.466254 275.156016 
L 75.570184 275.294108 
L 76.020547 276.477191 
L 76.297694 274.901836 
L 76.88663 268.837629 
L 77.129134 266.980796 
L 77.19842 267.101307 
L 77.440924 268.77457 
L 77.752714 270.766427 
L 77.822001 270.766052 
L 78.064504 270.052381 
L 78.168434 270.399516 
L 78.861301 275.390424 
L 79.103804 276.987982 
L 80.004531 281.442686 
L 80.732041 287.734899 
L 81.424907 296.952683 
L 81.563481 297.217428 
L 81.667411 296.945007 
L 81.909914 294.902329 
L 82.256347 293.056653 
L 82.325634 293.120634 
L 82.602781 293.891599 
L 82.637424 293.849812 
L 82.775997 293.112606 
L 82.983857 290.426412 
L 83.676724 278.017087 
L 83.746011 277.795123 
L 83.780654 277.883876 
L 83.919228 278.726248 
L 84.196374 280.016837 
L 84.473521 280.999651 
L 84.542808 280.809383 
L 84.681381 279.87511 
L 85.166388 277.115358 
L 85.512821 274.783915 
L 85.997828 268.891548 
L 86.378904 264.685792 
L 86.967841 261.204855 
L 87.071771 261.344337 
L 87.244988 261.63051 
L 87.279631 261.602445 
L 87.556778 260.762151 
L 87.868568 259.719282 
L 87.937854 259.932967 
L 88.596078 265.729856 
L 89.323588 275.84031 
L 89.635378 276.581081 
L 89.843238 276.539399 
L 89.912525 276.499935 
L 89.947168 276.572188 
L 90.051098 277.39474 
L 90.640035 282.457002 
L 91.159685 285.170504 
L 91.228971 285.047044 
L 91.402188 284.100611 
L 91.540761 283.517475 
L 91.575405 283.532842 
L 91.956481 284.122554 
L 92.060411 284.107912 
L 92.198985 283.947716 
L 92.233628 284.00782 
L 92.372201 285.253628 
L 93.238285 293.858499 
L 93.272928 293.830907 
L 93.307571 293.906478 
L 93.480788 294.145141 
L 93.861865 295.746454 
L 93.931152 295.347341 
L 94.277585 292.838126 
L 94.346872 292.921099 
L 94.658662 294.241153 
L 95.005095 295.380964 
L 95.247598 296.137108 
L 95.767248 298.51584 
L 95.801892 298.439044 
L 96.044395 296.98648 
L 96.390828 291.940789 
L 96.771905 287.465835 
L 96.806548 287.4878 
L 96.875835 287.314964 
L 96.910478 287.45518 
L 97.256912 290.398775 
L 97.534058 291.717893 
L 97.672632 291.780737 
L 97.776562 291.525745 
L 98.400142 288.776014 
L 98.434785 288.849895 
L 98.573358 289.758425 
L 99.127652 294.039617 
L 99.266225 294.043548 
L 99.404799 293.382887 
L 100.097665 288.266626 
L 100.270882 288.473785 
L 100.409455 289.912977 
L 100.859819 299.083676 
L 101.448755 311.774594 
L 101.795189 314.465578 
L 102.176265 316.350323 
L 102.384125 317.451841 
L 102.453412 317.456913 
L 102.488055 317.412125 
L 102.730559 317.383553 
L 103.180922 319.85645 
L 103.319495 320.501955 
L 103.354139 320.494914 
L 103.458069 320.086382 
L 104.670585 314.646992 
L 104.982376 313.362962 
L 105.779172 308.556544 
L 106.056319 303.101112 
L 106.437396 293.636449 
L 106.991689 278.455026 
L 107.372766 274.11368 
L 107.580626 273.034864 
L 107.719199 272.450231 
L 107.753842 272.47523 
L 107.927059 273.034958 
L 108.030989 273.446662 
L 108.100276 273.393645 
L 108.169562 273.215429 
L 108.238849 272.937331 
L 108.273492 273.060843 
L 108.412066 273.915554 
L 109.001002 279.849732 
L 109.486009 282.947504 
L 109.797799 287.330379 
L 111.252819 311.306473 
L 111.703183 314.884995 
L 111.911043 315.980139 
L 111.980329 315.963333 
L 112.084259 315.500803 
L 112.603909 310.625235 
L 113.054273 305.494947 
L 113.747139 300.260196 
L 114.197503 297.714008 
L 114.301433 297.558124 
L 114.578579 296.882814 
L 115.652523 290.212499 
L 116.172173 281.977925 
L 116.55325 275.63614 
L 116.830396 274.399286 
L 117.038256 273.078488 
L 117.350046 271.092707 
L 117.38469 271.101542 
L 117.661836 273.129284 
L 118.1122 277.756569 
L 118.354703 279.32531 
L 118.52792 279.511758 
L 118.562563 279.45101 
L 118.666493 279.23829 
L 118.874353 278.382465 
L 119.04757 276.820065 
L 119.740436 267.62431 
L 119.809723 267.45324 
L 119.844366 267.49497 
L 120.052226 268.575932 
L 120.225443 269.156511 
L 120.260086 269.146905 
L 120.329373 268.941542 
L 120.467946 268.506512 
L 120.50259 268.528045 
L 120.745093 268.767847 
L 121.056883 270.087188 
L 121.091527 270.048387 
L 121.368673 270.42276 
L 121.64582 272.814543 
L 121.922967 275.441782 
L 121.95761 275.428801 
L 122.096183 275.8521 
L 122.407973 276.639847 
L 122.650477 277.605471 
L 122.823693 280.494982 
L 123.966923 305.306744 
L 124.174783 306.121165 
L 124.348 306.248125 
L 124.45193 305.905823 
L 124.833007 303.511094 
L 124.902293 303.759293 
L 125.17944 304.738049 
L 125.49123 304.62059 
L 125.59516 304.820955 
L 125.872307 305.523917 
L 125.90695 305.500325 
L 126.01088 305.059248 
L 126.184097 302.791362 
L 127.36197 284.805767 
L 127.604474 283.511417 
L 127.950907 284.507751 
L 127.98555 284.476492 
L 128.08948 284.107184 
L 128.5052 280.978314 
L 128.747704 276.679614 
L 129.5445 264.268759 
L 129.994864 259.830865 
L 130.410584 259.129019 
L 130.653087 260.191089 
L 130.99952 264.409662 
L 131.20738 268.823508 
L 131.51917 274.520468 
L 131.588457 274.752694 
L 131.6231 274.731443 
L 131.72703 274.170541 
L 133.078121 262.3026 
L 133.216694 262.434784 
L 133.320624 262.669539 
L 133.667057 266.570836 
L 133.944204 268.178502 
L 134.082777 267.563178 
L 134.429211 265.138647 
L 134.498497 265.355404 
L 134.533141 265.340508 
L 134.810287 265.903853 
L 134.879574 265.720048 
L 135.260651 263.932796 
L 135.503154 264.385666 
L 135.641727 264.862553 
L 135.780301 266.001952 
L 137.096747 284.755442 
L 137.443181 288.393339 
L 138.482481 294.151564 
L 138.724984 295.422709 
L 138.828914 295.280096 
L 139.106061 294.535784 
L 139.140704 294.592128 
L 139.209991 295.075008 
L 139.764284 302.244323 
L 140.353221 309.438174 
L 140.387864 309.381054 
L 140.526438 308.690001 
L 141.115374 304.570018 
L 141.461808 302.891495 
L 141.600381 302.994551 
L 141.635024 302.963016 
L 141.877528 302.633278 
L 142.016101 301.595794 
L 142.708968 292.606794 
L 143.193975 286.395992 
L 143.575051 283.429398 
L 143.782911 282.694153 
L 143.817555 282.707032 
L 143.921485 283.161608 
L 144.060058 284.064486 
L 144.406491 288.541347 
L 144.752925 292.127973 
L 144.787568 292.319136 
L 144.822211 292.236401 
L 144.995428 290.905275 
L 145.411148 286.65965 
L 146.242588 280.610024 
L 146.346518 280.902097 
L 146.519735 283.164915 
L 147.662965 302.034838 
L 147.905468 304.085641 
L 147.974755 303.859952 
L 148.182615 301.735601 
L 149.291202 284.997267 
L 150.053355 278.270677 
L 150.295858 274.637069 
L 151.127298 261.815467 
L 151.335158 261.176008 
L 151.369802 261.258267 
L 151.612305 262.801519 
L 151.924095 267.444984 
L 153.171255 285.325122 
L 153.656262 293.4811 
L 154.314485 304.865684 
L 154.591632 308.212837 
L 155.388429 313.88989 
L 155.423072 313.859505 
L 155.630932 313.604856 
L 155.804149 314.007813 
L 155.838792 313.984297 
L 155.977365 313.785822 
L 156.150582 312.596415 
L 156.497015 307.802402 
L 157.155239 300.534521 
L 157.397742 301.459876 
L 157.467029 301.285147 
L 157.674889 300.119621 
L 157.952035 296.904882 
L 158.263825 293.819782 
L 158.471685 292.850875 
L 158.644902 292.216934 
L 159.060622 289.683579 
L 159.199196 288.898972 
L 159.788132 283.530504 
L 159.995992 279.68797 
L 160.480999 270.562036 
L 160.723502 268.869683 
L 160.966006 268.121956 
L 161.069936 267.995459 
L 161.104579 268.02304 
L 161.173866 268.067863 
L 161.208509 268.03473 
L 161.312439 267.611342 
L 161.520299 265.866594 
L 162.109236 258.173452 
L 162.421026 254.419035 
L 163.044606 249.289224 
L 163.391039 247.574534 
L 163.668186 244.387208 
L 164.568913 233.239697 
L 164.776773 233.303895 
L 164.949989 234.615596 
L 165.400353 238.429706 
L 165.608213 239.291192 
L 165.816073 241.09668 
L 166.231793 244.761521 
L 166.508939 245.354808 
L 166.751443 247.404416 
L 167.271093 250.416783 
L 167.513596 250.9931 
L 167.721456 250.733676 
L 167.929316 249.899369 
L 167.963959 249.974747 
L 168.379679 252.39175 
L 168.795399 254.895522 
L 168.830043 254.843113 
L 168.933973 254.827862 
L 169.176476 255.344409 
L 169.211119 255.296016 
L 169.349693 254.642065 
L 169.765413 252.569265 
L 170.007916 251.501936 
L 170.35435 248.933902 
L 170.735426 244.26187 
L 171.012573 243.450928 
L 171.18579 243.210578 
L 171.324363 243.447226 
L 171.740083 244.563851 
L 171.80937 244.436528 
L 172.01723 243.10503 
L 172.606166 236.755386 
L 173.68011 222.502972 
L 173.853326 222.136535 
L 173.922613 222.193127 
L 174.026543 222.70522 
L 174.165116 223.115308 
L 174.30369 221.91906 
L 174.788696 216.615955 
L 175.0312 214.896043 
L 175.23906 213.938252 
L 175.65478 210.646185 
L 175.724067 210.807232 
L 176.035857 212.78179 
L 176.416933 216.378934 
L 177.075157 220.670928 
L 177.21373 221.269072 
L 177.52552 222.83495 
L 177.560163 222.878717 
L 177.73338 222.578668 
L 177.975883 222.062733 
L 178.25303 221.114788 
L 178.391603 222.054965 
L 180.470204 248.109312 
L 181.024497 252.252362 
L 181.197714 252.534899 
L 181.301644 252.607848 
L 181.47486 253.939365 
L 182.029154 259.702666 
L 182.09844 259.868289 
L 182.133084 259.850862 
L 182.237014 259.452172 
L 182.444874 257.068296 
L 182.652734 255.257464 
L 182.72202 255.202251 
L 182.895237 254.776915 
L 183.13774 252.359404 
L 183.622747 247.599181 
L 183.96918 245.963031 
L 184.038467 246.056096 
L 184.07311 246.031047 
L 184.350257 245.490319 
L 184.48883 244.36027 
L 184.90455 240.80458 
L 185.562774 237.359831 
L 185.874564 236.929766 
L 186.013137 235.598189 
L 186.532787 230.647294 
L 187.156367 227.110019 
L 187.398871 226.329026 
L 187.537444 226.442479 
L 187.676017 226.656915 
L 187.710661 226.635231 
L 187.849234 225.965914 
L 188.368884 223.466323 
L 188.542101 223.082293 
L 189.754617 214.346032 
L 190.586057 207.578506 
L 190.689987 207.319444 
L 190.724631 207.380361 
L 191.036421 208.716098 
L 191.278924 209.809167 
L 191.798574 210.985788 
L 192.041078 212.600899 
L 192.422154 215.489782 
L 192.595371 215.872234 
L 193.218951 219.789182 
L 193.738601 227.578546 
L 194.396824 237.086282 
L 194.743258 240.365327 
L 195.228264 244.605328 
L 195.540054 249.004568 
L 196.232921 258.357783 
L 196.544711 259.961947 
L 196.579354 259.946997 
L 196.648641 259.880172 
L 196.752571 259.447565 
L 197.445438 254.079268 
L 198.276878 241.804966 
L 199.281535 230.524771 
L 199.905115 220.828389 
L 200.112975 220.129821 
L 200.251548 220.075699 
L 200.390121 220.018806 
L 200.736555 219.345301 
L 200.771198 219.378 
L 200.909771 219.693044 
L 201.048345 220.893619 
L 202.538008 239.139152 
L 202.607295 239.264504 
L 202.641938 239.238951 
L 202.780512 238.798947 
L 202.884442 238.882978 
L 202.988372 238.93921 
L 203.126945 238.990164 
L 203.265518 238.749903 
L 203.681238 236.992311 
L 203.715882 237.130217 
L 203.923742 237.471471 
L 204.096958 237.451932 
L 204.443392 237.020433 
L 204.824468 235.7293 
L 204.859112 235.817695 
L 204.997685 236.359021 
L 205.170902 238.064187 
L 205.586622 243.127719 
L 206.106272 248.305807 
L 206.521992 249.696974 
L 206.591278 249.608141 
L 206.695208 249.267932 
L 207.006998 245.76037 
L 207.353432 242.631392 
L 207.873082 240.101415 
L 208.046299 239.919148 
L 208.184872 239.913115 
L 208.323445 238.940744 
L 208.669879 234.108403 
L 209.362745 221.947021 
L 209.639892 220.362807 
L 209.813109 219.932854 
L 209.917039 219.901138 
L 209.986325 219.820416 
L 210.194185 220.2248 
L 210.540619 219.579069 
L 210.609905 219.627954 
L 210.921695 219.890833 
L 211.198842 220.117712 
L 211.649205 222.295973 
L 211.857065 222.893814 
L 211.995639 223.15389 
L 212.030282 223.112943 
L 212.134212 222.86702 
L 212.411359 222.108429 
L 212.446002 222.143919 
L 212.549932 222.535359 
L 212.792435 224.042711 
L 212.827079 223.986748 
L 213.138869 223.404486 
L 213.173512 223.458752 
L 213.312086 224.219319 
L 213.658519 229.022736 
L 214.351386 238.825639 
L 214.559246 239.598585 
L 214.732462 239.129301 
L 214.801749 239.303924 
L 215.113539 240.729227 
L 215.633189 245.109159 
L 216.083552 250.206934 
L 216.118196 250.153421 
L 216.395342 249.092774 
L 217.503929 242.298096 
L 217.642502 241.628237 
L 217.781076 241.801396 
L 218.127509 243.067074 
L 218.370013 244.588355 
L 218.473943 244.476418 
L 218.612516 244.213371 
L 218.647159 244.235989 
L 218.751089 244.628329 
L 219.409313 248.713297 
L 219.721103 249.057147 
L 219.790389 248.962087 
L 220.413969 246.263227 
L 220.864333 243.267469 
L 221.141479 242.836382 
L 221.487913 242.426528 
L 221.522556 242.501571 
L 222.007563 244.110913 
L 222.076849 244.007669 
L 222.388639 243.394721 
L 222.527213 243.375626 
L 222.873646 242.650313 
L 223.012219 241.826847 
L 223.393296 238.622417 
L 223.670443 239.378342 
L 224.15545 240.746166 
L 224.328666 240.62786 
L 224.536526 240.371431 
L 224.6751 240.276635 
L 224.744386 239.805161 
L 224.98689 238.57974 
L 225.333323 237.688575 
L 225.887616 234.480868 
L 225.991546 234.706098 
L 226.85763 237.92297 
L 226.996203 237.487213 
L 227.446566 235.195386 
L 227.723713 234.264354 
L 227.89693 234.447043 
L 228.485866 236.531405 
L 228.589796 236.516539 
L 228.8323 237.694559 
L 229.005516 237.718519 
L 229.14409 237.333222 
L 229.594453 234.595614 
L 229.906243 231.790433 
L 229.97553 231.576044 
L 230.044817 231.624949 
L 230.18339 232.304856 
L 230.49518 233.481635 
L 230.564467 233.379492 
L 230.70304 232.160467 
L 231.257333 224.759722 
L 231.84627 217.273497 
L 232.088773 214.959566 
L 232.920213 207.026846 
L 232.954857 207.036944 
L 233.19736 209.576971 
L 233.71701 215.647525 
L 233.82094 215.859927 
L 233.855583 215.824805 
L 234.098087 214.976071 
L 234.305947 214.328385 
L 234.44452 214.277204 
L 234.54845 214.380338 
L 235.48382 217.001252 
L 235.58775 217.099166 
L 235.622394 217.05585 
L 235.760967 216.506508 
L 236.072757 215.373413 
L 236.176687 215.418979 
L 236.349904 216.003077 
L 237.112057 220.75755 
L 237.423847 221.344777 
L 237.493134 221.318412 
L 237.597064 220.873223 
L 238.047427 216.281776 
L 238.116714 216.33882 
L 238.463147 216.516618 
L 238.49779 216.399456 
L 238.567077 216.455636 
L 238.671007 216.388994 
L 238.878867 215.808931 
L 238.948154 215.661723 
L 238.982797 215.71151 
L 239.918167 218.090666 
L 239.952811 217.960523 
L 240.333887 217.324753 
L 240.368531 217.33445 
L 240.645677 218.142776 
L 240.818894 218.223399 
L 240.922824 218.592025 
L 241.407831 222.54922 
L 242.031411 226.428818 
L 242.135341 226.434438 
L 242.412487 226.60512 
L 242.551061 226.583395 
L 242.689634 226.175813 
L 242.862851 225.350623 
L 242.897494 225.417571 
L 243.728934 227.632625 
L 243.867507 227.633318 
L 243.971437 227.442642 
L 244.248584 225.718306 
L 245.010737 218.78298 
L 245.530388 210.846385 
L 245.876821 206.629145 
L 246.361828 203.170993 
L 246.465758 203.059525 
L 246.604331 202.822114 
L 246.638974 202.902679 
L 246.881478 203.323936 
L 246.985408 203.179936 
L 247.816848 198.091221 
L 247.990064 197.98738 
L 248.301854 197.989591 
L 248.544358 197.672723 
L 248.613644 197.779307 
L 248.786861 198.557355 
L 249.445084 203.341308 
L 249.826161 209.653874 
L 250.345811 222.789757 
L 251.073321 241.82943 
L 251.419755 245.057425 
L 251.974048 250.214069 
L 252.355125 255.632173 
L 252.736201 265.33309 
L 253.463711 283.169566 
L 253.775501 285.495307 
L 253.914075 285.814072 
L 253.948718 285.761637 
L 254.121935 284.916458 
L 254.468368 281.591957 
L 254.918731 275.250562 
L 255.784815 262.754239 
L 256.096605 260.609533 
L 256.858758 252.144756 
L 257.101262 248.742981 
L 258.417708 224.088614 
L 258.729498 222.61457 
L 259.006645 221.990516 
L 259.318435 222.0716 
L 259.491652 222.352936 
L 259.699512 223.329492 
L 259.907372 225.547096 
L 260.738812 239.147078 
L 261.085245 243.21387 
L 261.570252 245.351432 
L 261.847399 246.933349 
L 262.124545 248.414132 
L 262.228475 248.424121 
L 262.367049 248.133714 
L 262.574909 246.983288 
L 263.579565 239.683403 
L 263.683495 239.482275 
L 263.718139 239.497589 
L 263.960642 240.00119 
L 264.272432 240.493188 
L 264.445649 240.202043 
L 264.999942 238.803317 
L 265.311732 238.005187 
L 265.484949 237.170491 
L 265.969955 234.465386 
L 266.870682 232.290571 
L 266.974612 232.104842 
L 267.182472 230.828089 
L 267.563549 228.572345 
L 268.048556 226.679094 
L 268.602849 223.525378 
L 268.983926 222.417075 
L 269.053212 222.505202 
L 270.092512 225.957378 
L 270.785379 228.931638 
L 271.027882 228.945843 
L 271.408959 228.736416 
L 271.651462 229.692337 
L 271.963252 232.341929 
L 272.690763 238.643706 
L 272.863979 238.870182 
L 272.967909 238.637973 
L 273.314343 237.840209 
L 273.556846 237.778191 
L 273.695419 238.039552 
L 274.076496 239.548701 
L 274.734719 242.813446 
L 275.808663 248.756156 
L 275.912593 248.639194 
L 276.085809 247.878127 
L 277.229039 239.845224 
L 277.817976 235.120361 
L 278.753346 229.177366 
L 279.272996 225.873431 
L 279.61943 223.99381 
L 279.965863 220.52941 
L 280.693373 212.992911 
L 281.143736 210.694889 
L 281.455526 209.36216 
L 281.767316 208.125487 
L 281.871246 208.076864 
L 281.90589 208.110603 
L 282.044463 208.506841 
L 282.286966 210.121893 
L 282.668043 214.42124 
L 284.157707 236.79739 
L 284.50414 238.569294 
L 285.508797 241.399749 
L 286.201663 242.852025 
L 286.47881 243.97935 
L 287.448823 247.070033 
L 288.24562 252.621298 
L 288.488124 253.151184 
L 288.626697 253.107887 
L 289.18099 252.626203 
L 289.527424 252.652845 
L 289.769927 252.689509 
L 290.254934 253.199927 
L 290.53208 254.378629 
L 291.121017 258.242391 
L 291.536737 260.42214 
L 291.709954 260.583371 
L 291.848527 260.356444 
L 292.09103 259.373549 
L 292.50675 257.779591 
L 292.887827 257.308793 
L 293.164974 256.757424 
L 293.407477 255.617706 
L 293.75391 252.573366 
L 295.693937 233.397426 
L 296.075014 231.133036 
L 296.698594 227.870856 
L 297.079671 224.343259 
L 298.153614 212.819974 
L 298.673264 211.184411 
L 298.985054 210.561683 
L 299.435418 210.215663 
L 299.608634 210.371966 
L 299.851138 210.993029 
L 300.232214 212.693551 
L 300.786508 216.243075 
L 301.271514 220.846376 
L 302.865108 236.245287 
L 303.696548 244.499775 
L 304.424058 252.883465 
L 304.805135 255.143705 
L 305.255498 256.420472 
L 305.879078 257.68374 
L 306.156225 257.762888 
L 306.502658 257.657177 
L 306.710518 257.337804 
L 306.987665 256.337842 
L 307.576601 252.961276 
L 308.408041 247.433282 
L 311.768445 217.246923 
L 312.357382 215.187263 
L 312.530598 215.163174 
L 312.703815 215.520702 
L 312.980962 216.843807 
L 313.604542 221.52651 
L 314.193478 225.037353 
L 314.713128 226.996129 
L 315.336708 228.895412 
L 315.717785 231.165663 
L 316.272079 234.598357 
L 316.757085 235.878316 
L 317.276735 236.52523 
L 317.519239 236.586464 
L 317.761742 236.394636 
L 318.177462 236.043094 
L 318.489252 235.957295 
L 318.662469 235.967011 
L 318.835685 235.626027 
L 319.320692 234.485343 
L 320.983572 230.418646 
L 321.468579 229.895524 
L 321.711082 229.8881 
L 321.953586 229.602368 
L 322.611809 228.648642 
L 322.785026 228.774686 
L 323.027529 229.351661 
L 323.373962 230.923587 
L 323.962899 234.868989 
L 324.413262 237.446965 
L 324.898269 239.088169 
L 325.071486 239.183326 
L 325.210059 239.016213 
L 325.452562 238.249142 
L 326.006856 236.393411 
L 327.080799 233.304626 
L 327.323303 233.124293 
L 327.531163 233.210203 
L 327.773666 233.617939 
L 328.154743 234.84235 
L 328.639749 236.248236 
L 329.159399 236.878983 
L 329.436546 237.039368 
L 329.644406 236.903421 
L 330.267986 236.029744 
L 330.649063 235.044706 
L 331.653719 231.406391 
L 332.104083 228.642438 
L 332.762306 224.870293 
L 333.281956 223.066053 
L 333.697676 222.222683 
L 333.870893 222.181515 
L 334.04411 222.417948 
L 334.286613 223.213461 
L 334.66769 225.433507 
L 335.845563 234.366659 
L 337.439157 245.860954 
L 337.750947 246.608745 
L 338.132023 247.202818 
L 338.478457 247.784988 
L 338.651673 247.72424 
L 338.894177 247.260793 
L 339.13668 246.315505 
L 339.483113 243.821139 
L 340.660987 234.357622 
L 341.31921 230.780419 
L 341.977433 227.06526 
L 342.15065 226.913291 
L 342.289223 227.128998 
L 342.497083 227.99174 
L 342.912804 231.010433 
L 343.50174 234.93873 
L 343.91746 236.302432 
L 344.575684 237.602549 
L 344.85283 237.817693 
L 345.06069 237.747627 
L 345.337837 237.439665 
L 345.407124 237.567297 
L 345.614984 237.695096 
L 345.753557 237.495316 
L 346.169277 236.188361 
L 347.381794 232.387122 
L 347.55501 232.393497 
L 347.728227 232.740872 
L 348.109304 234.314427 
L 348.594311 236.058516 
L 348.802171 236.142683 
L 349.113961 236.053822 
L 349.495037 236.494727 
L 350.361121 236.898982 
L 350.568981 236.965409 
L 350.742197 236.764225 
L 350.950057 236.087336 
L 351.331134 233.838515 
L 351.920071 230.59495 
L 352.231861 229.895926 
L 352.647581 229.232379 
L 353.201874 228.125303 
L 353.825454 227.782395 
L 354.067958 227.92442 
L 354.310461 228.355466 
L 354.587608 229.573977 
L 354.968684 232.265494 
L 355.453691 237.900315 
L 356.839424 254.15479 
L 357.185858 255.808221 
L 357.497648 256.399244 
L 357.705508 256.406555 
L 357.948011 256.133726 
L 358.259801 255.369844 
L 358.606234 253.911412 
L 359.021955 250.973629 
L 359.610891 244.898513 
L 360.788765 231.963337 
L 361.516275 227.790129 
L 362.001281 224.517024 
L 362.832721 217.953042 
L 363.144511 216.905399 
L 363.283085 216.915646 
L 363.456301 217.336526 
L 363.733448 218.780062 
L 364.357028 223.711249 
L 365.638832 233.427514 
L 367.128495 239.763617 
L 367.405642 240.102404 
L 367.578858 240.051643 
L 367.821362 239.656532 
L 368.167795 238.576492 
L 368.791375 235.736452 
L 370.281039 227.600675 
L 371.493555 220.322905 
L 371.805345 220.036269 
L 372.532855 219.755733 
L 372.706072 219.948467 
L 372.913932 220.559595 
L 373.225722 222.353684 
L 373.641442 226.311685 
L 374.161092 233.66027 
L 375.235036 249.872785 
L 375.616112 252.059457 
L 375.893259 252.659678 
L 376.066476 252.686111 
L 376.239692 252.469537 
L 376.482196 251.76033 
L 376.897916 249.635622 
L 377.660069 244.461423 
L 378.145076 241.897157 
L 378.664726 240.462823 
L 379.115089 239.661909 
L 379.357592 239.658119 
L 379.530809 239.734871 
L 380.015816 241.345598 
L 380.431536 242.076373 
L 380.604753 242.084368 
L 380.777969 241.830691 
L 381.124403 240.769248 
L 381.713339 239.113361 
L 381.990486 238.883334 
L 382.267633 238.989395 
L 382.717996 239.115542 
L 383.480149 239.00638 
L 383.757296 238.94568 
L 384.034443 239.622828 
L 384.242303 239.846764 
L 384.380876 239.673211 
L 384.588736 238.871247 
L 385.039099 235.962868 
L 385.905183 229.694371 
L 386.320903 228.29047 
L 386.840553 227.107368 
L 387.290916 225.276962 
L 387.810566 223.498448 
L 388.226286 222.621882 
L 388.538076 222.376894 
L 388.711293 222.453637 
L 388.919153 222.8258 
L 389.40416 224.476491 
L 390.582033 228.017969 
L 390.893823 229.155861 
L 391.552047 234.348812 
L 392.52206 244.881084 
L 393.284213 251.911998 
L 393.87315 255.260415 
L 394.254227 256.099075 
L 394.3928 255.90741 
L 394.60066 255.112702 
L 394.91245 252.952611 
L 395.778533 246.352075 
L 396.090323 245.373142 
L 396.402113 245.074121 
L 396.644617 244.794091 
L 396.921764 244.06045 
L 397.857134 241.238122 
L 398.099637 240.565118 
L 398.65393 237.528249 
L 399.138937 235.602751 
L 399.658587 234.764197 
L 400.178237 234.064071 
L 400.386097 233.292843 
L 400.6286 231.429341 
L 401.14825 224.981144 
L 401.633257 219.61787 
L 401.979691 218.067383 
L 402.152907 217.959205 
L 402.360767 218.288765 
L 403.538641 221.218137 
L 403.607927 221.323733 
L 403.642571 221.293963 
L 403.781144 221.330994 
L 404.300794 221.858882 
L 404.543297 221.941268 
L 404.785801 222.639953 
L 405.236164 224.601616 
L 405.547954 226.555634 
L 406.136891 230.556651 
L 406.448681 233.355744 
L 407.626554 245.752451 
L 408.284778 249.702258 
L 408.631211 251.040864 
L 408.769784 251.028902 
L 408.943001 250.698371 
L 409.254791 249.266402 
L 409.670511 246.522843 
L 409.982301 242.503239 
L 410.744454 232.292222 
L 411.160174 228.178163 
L 411.402678 227.406846 
L 411.610538 227.371139 
L 411.679824 227.399901 
L 411.679824 227.399901 
" clip-path="url(#p6b216e808a)" style="fill: none; stroke: #ff0000; stroke-width: 2; stroke-linecap: square"/>
   </g>
   <g id="patch_8">
    <path d="M 47.961178 326.64351 
L 47.961178 191.529302 
" style="fill: none; stroke: #000000; stroke-width: 0.8; stroke-linejoin: miter; stroke-linecap: square"/>
   </g>
   <g id="patch_9">
    <path d="M 428.99976 326.64351 
L 428.99976 191.529302 
" style="fill: none; stroke: #000000; stroke-width: 0.8; stroke-linejoin: miter; stroke-linecap: square"/>
   </g>
   <g id="patch_10">
    <path d="M 47.961178 326.64351 
L 428.99976 326.64351 
" style="fill: none; stroke: #000000; stroke-width: 0.8; stroke-linejoin: miter; stroke-linecap: square"/>
   </g>
   <g id="patch_11">
    <path d="M 47.961178 191.529302 
L 428.99976 191.529302 
" style="fill: none; stroke: #000000; stroke-width: 0.8; stroke-linejoin: miter; stroke-linecap: square"/>
   </g>
   <g id="text_22">
    <!-- Mean velocity component v_y over time -->
    <g transform="translate(104.163906 185.529302) scale(0.12 -0.12)">
     <use xlink:href="#DejaVuSans-Bold-4d"/>
     <use xlink:href="#DejaVuSans-Bold-65" transform="translate(99.511719 0)"/>
     <use xlink:href="#DejaVuSans-Bold-61" transform="translate(167.333984 0)"/>
     <use xlink:href="#DejaVuSans-Bold-6e" transform="translate(234.814453 0)"/>
     <use xlink:href="#DejaVuSans-Bold-20" transform="translate(306.005859 0)"/>
     <use xlink:href="#DejaVuSans-Bold-76" transform="translate(340.820312 0)"/>
     <use xlink:href="#DejaVuSans-Bold-65" transform="translate(406.005859 0)"/>
     <use xlink:href="#DejaVuSans-Bold-6c" transform="translate(473.828125 0)"/>
     <use xlink:href="#DejaVuSans-Bold-6f" transform="translate(508.105469 0)"/>
     <use xlink:href="#DejaVuSans-Bold-63" transform="translate(576.806641 0)"/>
     <use xlink:href="#DejaVuSans-Bold-69" transform="translate(636.083984 0)"/>
     <use xlink:href="#DejaVuSans-Bold-74" transform="translate(670.361328 0)"/>
     <use xlink:href="#DejaVuSans-Bold-79" transform="translate(718.164062 0)"/>
     <use xlink:href="#DejaVuSans-Bold-20" transform="translate(783.349609 0)"/>
     <use xlink:href="#DejaVuSans-Bold-63" transform="translate(818.164062 0)"/>
     <use xlink:href="#DejaVuSans-Bold-6f" transform="translate(877.441406 0)"/>
     <use xlink:href="#DejaVuSans-Bold-6d" transform="translate(946.142578 0)"/>
     <use xlink:href="#DejaVuSans-Bold-70" transform="translate(1050.341797 0)"/>
     <use xlink:href="#DejaVuSans-Bold-6f" transform="translate(1121.923828 0)"/>
     <use xlink:href="#DejaVuSans-Bold-6e" transform="translate(1190.625 0)"/>
     <use xlink:href="#DejaVuSans-Bold-65" transform="translate(1261.816406 0)"/>
     <use xlink:href="#DejaVuSans-Bold-6e" transform="translate(1329.638672 0)"/>
     <use xlink:href="#DejaVuSans-Bold-74" transform="translate(1400.830078 0)"/>
     <use xlink:href="#DejaVuSans-Bold-20" transform="translate(1448.632812 0)"/>
     <use xlink:href="#DejaVuSans-Bold-76" transform="translate(1483.447266 0)"/>
     <use xlink:href="#DejaVuSans-Bold-5f" transform="translate(1548.632812 0)"/>
     <use xlink:href="#DejaVuSans-Bold-79" transform="translate(1598.632812 0)"/>
     <use xlink:href="#DejaVuSans-Bold-20" transform="translate(1663.818359 0)"/>
     <use xlink:href="#DejaVuSans-Bold-6f" transform="translate(1698.632812 0)"/>
     <use xlink:href="#DejaVuSans-Bold-76" transform="translate(1767.333984 0)"/>
     <use xlink:href="#DejaVuSans-Bold-65" transform="translate(1832.519531 0)"/>
     <use xlink:href="#DejaVuSans-Bold-72" transform="translate(1900.341797 0)"/>
     <use xlink:href="#DejaVuSans-Bold-20" transform="translate(1949.658203 0)"/>
     <use xlink:href="#DejaVuSans-Bold-74" transform="translate(1984.472656 0)"/>
     <use xlink:href="#DejaVuSans-Bold-69" transform="translate(2032.275391 0)"/>
     <use xlink:href="#DejaVuSans-Bold-6d" transform="translate(2066.552734 0)"/>
     <use xlink:href="#DejaVuSans-Bold-65" transform="translate(2170.751953 0)"/>
    </g>
   </g>
  </g>
 </g>
 <defs>
  <clipPath id="pd82c14cd53">
   <rect x="47.961178" y="18.118365" width="381.038583" height="135.114207"/>
  </clipPath>
  <clipPath id="p6b216e808a">
   <rect x="47.961178" y="191.529302" width="381.038583" height="135.114208"/>
  </clipPath>
 </defs>
</svg>
