<?xml version="1.0" encoding="utf-8" standalone="no"?>
<!DOCTYPE svg PUBLIC "-//W3C//DTD SVG 1.1//EN"
  "http://www.w3.org/Graphics/SVG/1.1/DTD/svg11.dtd">
<svg xmlns:xlink="http://www.w3.org/1999/xlink" width="460.8pt" height="345.6pt" viewBox="0 0 460.8 345.6" xmlns="http://www.w3.org/2000/svg" version="1.1">
 <metadata>
  <rdf:RDF xmlns:dc="http://purl.org/dc/elements/1.1/" xmlns:cc="http://creativecommons.org/ns#" xmlns:rdf="http://www.w3.org/1999/02/22-rdf-syntax-ns#">
   <cc:Work>
    <dc:type rdf:resource="http://purl.org/dc/dcmitype/StillImage"/>
    <dc:date>2025-05-05T23:13:50.253823</dc:date>
    <dc:format>image/svg+xml</dc:format>
    <dc:creator>
     <cc:Agent>
      <dc:title>Matplotlib v3.10.1, https://matplotlib.org/</dc:title>
     </cc:Agent>
    </dc:creator>
   </cc:Work>
  </rdf:RDF>
 </metadata>
 <defs>
  <style type="text/css">*{stroke-linejoin: round; stroke-linecap: butt}</style>
 </defs>
 <g id="figure_1">
  <g id="patch_1">
   <path d="M 0 345.6 
L 460.8 345.6 
L 460.8 0 
L 0 0 
z
" style="fill: #ffffff"/>
  </g>
  <g id="axes_1">
   <g id="patch_2">
    <path d="M 57.6 307.584 
L 414.72 307.584 
L 414.72 41.472 
L 57.6 41.472 
z
" style="fill: #ffffff"/>
   </g>
   <g id="Quiver_1">
    <path d="M 203.407479 239.451934 
L 196.25817 245.974826 
L 198.614745 246.882179 
L 187.988705 251.991003 
L 194.047789 241.876642 
L 194.735851 244.306313 
L 201.88516 237.783422 
L 203.407479 239.451934 
" clip-path="url(#pb8e86b871e)"/>
    <path d="M 247.710095 110.513144 
L 240.551514 117.028209 
L 242.906959 117.938491 
L 232.274577 123.034103 
L 238.346228 112.927281 
L 239.03127 115.357806 
L 246.189852 108.84274 
L 247.710095 110.513144 
" clip-path="url(#pb8e86b871e)"/>
    <path d="M 232.211451 241.038046 
L 225.079381 247.53423 
L 227.435192 248.443564 
L 216.804861 253.543453 
L 222.872446 243.434189 
L 223.558466 245.864439 
L 230.690535 239.368255 
L 232.211451 241.038046 
" clip-path="url(#pb8e86b871e)"/>
    <path d="M 217.898715 97.639021 
L 210.739134 104.15618 
L 213.094661 105.066248 
L 202.46274 110.162822 
L 208.533478 100.05545 
L 209.218739 102.485914 
L 216.378321 95.968755 
L 217.898715 97.639021 
" clip-path="url(#pb8e86b871e)"/>
    <path d="M 172.43784 192.871268 
L 165.283297 199.387676 
L 167.639091 200.297054 
L 157.008664 205.396744 
L 163.076439 195.287593 
L 163.762413 197.717856 
L 170.916956 191.201448 
L 172.43784 192.871268 
" clip-path="url(#pb8e86b871e)"/>
    <path d="M 181.670266 74.384374 
L 174.509767 80.902986 
L 176.865337 81.812943 
L 166.233656 86.910018 
L 172.303917 76.802361 
L 172.989293 79.232791 
L 180.149793 72.71418 
L 181.670266 74.384374 
" clip-path="url(#pb8e86b871e)"/>
    <path d="M 252.281604 167.032412 
L 245.130763 173.543691 
L 247.486434 174.453386 
L 236.855322 179.551647 
L 242.924456 169.443312 
L 243.610103 171.873666 
L 250.760944 165.362388 
L 252.281604 167.032412 
" clip-path="url(#pb8e86b871e)"/>
    <path d="M 198.664447 210.555569 
L 191.507698 217.076447 
L 193.863663 217.985383 
L 183.234194 223.08707 
L 189.300069 212.97678 
L 189.9865 215.406913 
L 197.143249 208.886035 
L 198.664447 210.555569 
" clip-path="url(#pb8e86b871e)"/>
    <path d="M 245.353232 80.140927 
L 238.193165 86.65627 
L 240.548535 87.566745 
L 229.915734 92.661484 
L 235.988216 82.555161 
L 236.673058 84.985742 
L 243.833126 78.470399 
L 245.353232 80.140927 
" clip-path="url(#pb8e86b871e)"/>
    <path d="M 294.074082 121.457162 
L 286.919097 127.968466 
L 289.274509 128.878836 
L 278.641936 133.974051 
L 284.713965 123.867455 
L 285.398916 126.298006 
L 292.553901 119.786702 
L 294.074082 121.457162 
" clip-path="url(#pb8e86b871e)"/>
    <path d="M 176.510421 253.4975 
L 169.35791 260.010273 
L 171.71358 260.919973 
L 161.082457 266.018213 
L 167.151611 255.90989 
L 167.837254 258.340246 
L 174.989765 251.827473 
L 176.510421 253.4975 
" clip-path="url(#pb8e86b871e)"/>
    <path d="M 275.584982 95.41201 
L 268.425922 101.926463 
L 270.781294 102.836933 
L 260.148504 107.931694 
L 266.220965 97.825358 
L 266.905812 100.255938 
L 274.064872 93.741485 
L 275.584982 95.41201 
" clip-path="url(#pb8e86b871e)"/>
    <path d="M 308.712938 88.871793 
L 301.554615 95.384126 
L 303.909886 96.294857 
L 293.276532 101.388441 
L 299.350112 91.282777 
L 300.03469 93.713433 
L 307.193013 87.201099 
L 308.712938 88.871793 
" clip-path="url(#pb8e86b871e)"/>
    <path d="M 188.271361 105.39664 
L 181.11248 111.914638 
L 183.46811 112.824441 
L 172.836763 117.922213 
L 178.906361 107.814157 
L 179.591897 110.244543 
L 186.750778 103.726546 
L 188.271361 105.39664 
" clip-path="url(#pb8e86b871e)"/>
    <path d="M 228.049413 149.302635 
L 220.894852 155.816411 
L 223.250462 156.726266 
L 212.619004 161.823805 
L 218.688824 151.715883 
L 219.374306 154.146284 
L 226.528867 147.632507 
L 228.049413 149.302635 
" clip-path="url(#pb8e86b871e)"/>
    <path d="M 209.028056 127.612929 
L 201.869244 134.131327 
L 204.224906 135.041046 
L 193.59374 140.139195 
L 199.662981 130.030924 
L 200.348602 132.461286 
L 207.507414 125.942888 
L 209.028056 127.612929 
" clip-path="url(#pb8e86b871e)"/>
    <path d="M 179.637257 136.199904 
L 172.479712 142.718276 
L 174.835452 143.627793 
L 164.204725 148.726856 
L 170.273095 138.618063 
L 170.958926 141.048366 
L 178.116472 134.529994 
L 179.637257 136.199904 
" clip-path="url(#pb8e86b871e)"/>
    <path d="M 268.087672 189.536905 
L 260.946643 196.044924 
L 263.30271 196.953595 
L 252.673812 202.056473 
L 258.738556 191.945503 
L 259.425258 194.37556 
L 266.566287 187.867541 
L 268.087672 189.536905 
" clip-path="url(#pb8e86b871e)"/>
    <path d="M 277.025247 147.785425 
L 269.871864 154.296859 
L 272.227386 155.206943 
L 261.595432 160.303449 
L 267.666234 150.196116 
L 268.35148 152.626583 
L 275.504863 146.11515 
L 277.025247 147.785425 
" clip-path="url(#pb8e86b871e)"/>
    <path d="M 212.258527 65.117209 
L 205.097734 71.634583 
L 207.4532 72.544812 
L 196.820933 77.640665 
L 202.892356 67.533705 
L 203.577453 69.964214 
L 210.738246 63.44684 
L 212.258527 65.117209 
" clip-path="url(#pb8e86b871e)"/>
    <path d="M 146.259467 126.305087 
L 139.102686 132.823315 
L 141.458465 133.732732 
L 130.827953 138.832245 
L 136.895897 128.723196 
L 137.58183 131.153469 
L 144.738611 124.635241 
L 146.259467 126.305087 
" clip-path="url(#pb8e86b871e)"/>
    <path d="M 219.295683 218.505054 
L 212.130701 225.033287 
L 214.486656 225.942249 
L 203.85713 231.043817 
L 209.923119 220.933594 
L 210.609522 223.363735 
L 217.774504 216.835503 
L 219.295683 218.505054 
" clip-path="url(#pb8e86b871e)"/>
    <path d="M 354.418223 156.299077 
L 347.264136 162.808702 
L 349.619488 163.719226 
L 338.98658 168.813741 
L 345.059275 158.707545 
L 345.744065 161.138141 
L 352.898152 154.628517 
L 354.418223 156.299077 
" clip-path="url(#pb8e86b871e)"/>
    <path d="M 295.647899 163.534188 
L 288.49959 170.042179 
L 290.855194 170.952051 
L 280.223699 176.049514 
L 286.293591 165.941635 
L 286.979056 168.372041 
L 294.127365 161.864049 
L 295.647899 163.534188 
" clip-path="url(#pb8e86b871e)"/>
    <path d="M 245.080166 274.885057 
L 237.924549 281.415049 
L 240.281217 282.32216 
L 229.655702 287.432075 
L 235.713748 277.317092 
L 236.40206 279.746693 
L 243.557676 273.216701 
L 245.080166 274.885057 
" clip-path="url(#pb8e86b871e)"/>
    <path d="M 349.879125 215.002694 
L 342.72948 221.512766 
L 345.085144 222.422482 
L 334.453986 227.520648 
L 340.523209 217.412368 
L 341.208835 219.842728 
L 348.35848 213.332656 
L 349.879125 215.002694 
" clip-path="url(#pb8e86b871e)"/>
    <path d="M 343.181671 234.354699 
L 336.027967 240.865447 
L 338.383421 241.775707 
L 327.751087 246.871419 
L 333.822644 236.764539 
L 334.507708 239.195058 
L 341.661412 232.68431 
L 343.181671 234.354699 
" clip-path="url(#pb8e86b871e)"/>
    <path d="M 154.596544 144.406071 
L 147.43961 150.924098 
L 149.795366 151.833577 
L 139.164721 156.932813 
L 145.232927 146.823922 
L 145.918798 149.254213 
L 153.075731 142.736186 
L 154.596544 144.406071 
" clip-path="url(#pb8e86b871e)"/>
    <path d="M 237.030955 54.403246 
L 229.870468 60.91929 
L 232.225861 61.829707 
L 221.593185 66.924707 
L 227.66542 56.818234 
L 228.350321 59.248799 
L 235.510808 52.732754 
L 237.030955 54.403246 
" clip-path="url(#pb8e86b871e)"/>
    <path d="M 227.869473 264.699819 
L 220.719978 271.20601 
L 223.075381 272.1164 
L 212.442763 277.211521 
L 218.514883 267.104979 
L 219.199812 269.535536 
L 226.349307 263.029346 
L 227.869473 264.699819 
" clip-path="url(#pb8e86b871e)"/>
    <path d="M 313.49777 166.165209 
L 306.349843 172.67665 
L 308.705711 173.585837 
L 298.075696 178.686387 
L 304.142653 168.576746 
L 304.828824 171.006953 
L 311.976751 164.495511 
L 313.49777 166.165209 
" clip-path="url(#pb8e86b871e)"/>
    <path d="M 331.2338 250.613876 
L 324.082527 257.120955 
L 326.437879 258.031477 
L 315.804977 263.126004 
L 321.87766 253.019802 
L 322.562454 255.450397 
L 329.713727 248.943317 
L 331.2338 250.613876 
" clip-path="url(#pb8e86b871e)"/>
    <path d="M 266.372842 294.131432 
L 259.22504 300.640301 
L 261.580736 301.549932 
L 250.949763 306.648483 
L 257.018621 296.539983 
L 257.704334 298.970318 
L 264.852137 292.461449 
L 266.372842 294.131432 
" clip-path="url(#pb8e86b871e)"/>
    <path d="M 277.104419 169.489324 
L 269.955398 175.998381 
L 272.31103 176.908178 
L 261.679698 182.00598 
L 267.749268 171.897907 
L 268.43481 174.328291 
L 275.583832 167.819234 
L 277.104419 169.489324 
" clip-path="url(#pb8e86b871e)"/>
    <path d="M 292.04844 68.269561 
L 284.888841 74.782755 
L 287.244092 75.69354 
L 276.610621 80.786881 
L 282.684432 70.681356 
L 283.368955 73.112027 
L 290.528553 66.598833 
L 292.04844 68.269561 
" clip-path="url(#pb8e86b871e)"/>
    <path d="M 329.274905 215.846702 
L 322.120866 222.36114 
L 324.476555 223.27079 
L 313.845539 228.369252 
L 319.914482 218.260802 
L 320.600175 220.691144 
L 327.754214 214.176706 
L 329.274905 215.846702 
" clip-path="url(#pb8e86b871e)"/>
    <path d="M 248.301727 224.506671 
L 241.147633 230.996961 
L 243.501634 231.910973 
L 232.861192 236.989735 
L 238.948847 226.892544 
L 239.630038 229.324151 
L 246.784131 222.833861 
L 248.301727 224.506671 
" clip-path="url(#pb8e86b871e)"/>
    <path d="M 259.594909 56.825678 
L 252.435367 63.340566 
L 254.790739 64.251037 
L 244.157948 69.345796 
L 250.230411 59.239461 
L 250.915258 61.670041 
L 258.0748 55.155152 
L 259.594909 56.825678 
" clip-path="url(#pb8e86b871e)"/>
    <path d="M 356.325555 175.764855 
L 349.171986 182.274513 
L 351.527372 183.184947 
L 340.894661 188.279872 
L 346.966966 178.173442 
L 347.65185 180.604012 
L 354.80542 174.094353 
L 356.325555 175.764855 
" clip-path="url(#pb8e86b871e)"/>
    <path d="M 300.52291 145.877629 
L 293.369994 152.387825 
L 295.725459 153.298055 
L 285.093189 158.393901 
L 291.164618 148.286945 
L 291.849713 150.717455 
L 299.00263 144.207259 
L 300.52291 145.877629 
" clip-path="url(#pb8e86b871e)"/>
    <path d="M 318.831981 116.707488 
L 311.676701 123.219463 
L 314.032141 124.12976 
L 303.399725 129.225304 
L 309.471443 119.11852 
L 310.156469 121.54905 
L 317.311748 115.037075 
L 318.831981 116.707488 
" clip-path="url(#pb8e86b871e)"/>
    <path d="M 157.538867 271.592913 
L 150.384067 278.106482 
L 152.739648 279.016413 
L 142.108024 284.113607 
L 148.178172 274.005882 
L 148.863575 276.436305 
L 156.018375 269.922736 
L 157.538867 271.592913 
" clip-path="url(#pb8e86b871e)"/>
    <path d="M 287.028354 287.553294 
L 279.88605 294.061526 
L 282.242051 294.970369 
L 271.612783 300.072475 
L 277.67826 289.961946 
L 278.364786 292.392052 
L 285.50709 285.88382 
L 287.028354 287.553294 
" clip-path="url(#pb8e86b871e)"/>
    <path d="M 276.743599 210.13722 
L 269.573517 216.668337 
L 271.929349 217.577615 
L 261.299138 222.677754 
L 267.366485 212.568347 
L 268.052562 214.998581 
L 275.222645 208.467464 
L 276.743599 210.13722 
" clip-path="url(#pb8e86b871e)"/>
    <path d="M 208.696106 263.664096 
L 201.547172 270.180742 
L 203.903337 271.089157 
L 193.274995 276.19319 
L 199.338639 266.081561 
L 200.025605 268.511543 
L 207.174539 261.994897 
L 208.696106 263.664096 
" clip-path="url(#pb8e86b871e)"/>
    <path d="M 258.811201 211.570528 
L 251.661978 218.079079 
L 254.017563 218.989 
L 243.385961 224.086241 
L 249.456064 213.978488 
L 250.141479 216.408909 
L 257.290701 209.900358 
L 258.811201 211.570528 
" clip-path="url(#pb8e86b871e)"/>
    <path d="M 332.341495 101.657363 
L 325.183993 108.167801 
L 327.539185 109.078739 
L 316.905384 114.171389 
L 322.97985 104.066258 
L 323.664215 106.496974 
L 330.821717 99.986536 
L 332.341495 101.657363 
" clip-path="url(#pb8e86b871e)"/>
    <path d="M 302.588992 276.498615 
L 295.447618 283.000084 
L 297.803207 283.909993 
L 287.171631 289.007287 
L 293.241684 278.899504 
L 293.927111 281.329921 
L 301.068484 274.828452 
L 302.588992 276.498615 
" clip-path="url(#pb8e86b871e)"/>
    <path d="M 320.11888 232.912091 
L 312.963712 239.419304 
L 315.318826 240.33044 
L 304.684595 245.422193 
L 310.759915 235.317575 
L 311.444075 237.748349 
L 318.599243 231.241136 
L 320.11888 232.912091 
" clip-path="url(#pb8e86b871e)"/>
    <path d="M 337.496905 193.05818 
L 330.339076 199.578727 
L 332.69495 200.487899 
L 322.064969 205.588519 
L 328.131859 195.478837 
L 328.818046 197.90904 
L 335.975875 191.388493 
L 337.496905 193.05818 
" clip-path="url(#pb8e86b871e)"/>
    <path d="M 131.307088 113.961023 
L 124.148683 120.479886 
L 126.504404 121.389455 
L 115.873563 126.488282 
L 121.942158 116.379624 
L 122.627935 118.809942 
L 129.78634 112.29108 
L 131.307088 113.961023 
" clip-path="url(#pb8e86b871e)"/>
    <path d="M 233.802816 215.724471 
L 226.63894 222.221015 
L 228.992756 223.135499 
L 218.351296 228.212126 
L 224.440978 218.116157 
L 225.12168 220.547901 
L 232.285557 214.051357 
L 233.802816 215.724471 
" clip-path="url(#pb8e86b871e)"/>
    <path d="M 148.946363 180.513615 
L 141.790616 187.030532 
L 144.14637 187.940016 
L 133.515714 193.039228 
L 139.583943 182.93035 
L 140.269807 185.360643 
L 147.425554 178.843727 
L 148.946363 180.513615 
" clip-path="url(#pb8e86b871e)"/>
    <path d="M 117.514941 204.31416 
L 110.360693 210.830081 
L 112.716471 211.739498 
L 102.085959 216.83901 
L 108.153903 206.729961 
L 108.839836 209.160235 
L 115.994085 202.644315 
L 117.514941 204.31416 
" clip-path="url(#pb8e86b871e)"/>
    <path d="M 274.414866 67.175336 
L 267.254382 73.691203 
L 269.609762 74.601652 
L 258.977018 79.696509 
L 265.049388 69.590118 
L 265.734257 72.020692 
L 272.894741 65.504825 
L 274.414866 67.175336 
" clip-path="url(#pb8e86b871e)"/>
    <path d="M 322.355724 181.534515 
L 315.206347 188.05092 
L 317.562468 188.959451 
L 306.933874 194.06296 
L 312.998016 183.95163 
L 313.684863 186.381646 
L 320.834241 179.865242 
L 322.355724 181.534515 
" clip-path="url(#pb8e86b871e)"/>
    <path d="M 230.095014 123.619775 
L 222.936682 130.135247 
L 225.292171 131.045414 
L 214.660035 136.141541 
L 220.731198 126.034425 
L 221.416357 128.464917 
L 228.574689 121.949445 
L 230.095014 123.619775 
" clip-path="url(#pb8e86b871e)"/>
    <path d="M 218.86952 199.135701 
L 211.716409 205.649761 
L 214.072131 206.559327 
L 203.441297 211.658169 
L 209.509878 201.549502 
L 210.195658 203.979819 
L 217.348769 197.46576 
L 218.86952 199.135701 
" clip-path="url(#pb8e86b871e)"/>
    <path d="M 250.485183 253.149999 
L 243.300745 259.707071 
L 245.657467 260.614043 
L 235.032253 265.724585 
L 241.089702 255.609244 
L 241.778157 258.038804 
L 248.962595 251.481733 
L 250.485183 253.149999 
" clip-path="url(#pb8e86b871e)"/>
    <path d="M 124.789282 225.484529 
L 117.634353 231.999538 
L 119.990025 232.909231 
L 109.358916 238.007499 
L 115.428043 227.89916 
L 116.113692 230.329514 
L 123.268621 223.814505 
L 124.789282 225.484529 
" clip-path="url(#pb8e86b871e)"/>
    <path d="M 318.284229 201.078833 
L 311.120883 207.604521 
L 313.476764 208.513672 
L 302.846828 213.614385 
L 308.91363 203.504651 
L 309.599838 205.934847 
L 316.763184 199.409159 
L 318.284229 201.078833 
" clip-path="url(#pb8e86b871e)"/>
    <path d="M 163.236728 119.078218 
L 156.079524 125.595838 
L 158.435234 126.505434 
L 147.804335 131.60414 
L 153.873046 121.495551 
L 154.558795 123.925877 
L 161.715999 117.408257 
L 163.236728 119.078218 
" clip-path="url(#pb8e86b871e)"/>
    <path d="M 351.01579 137.345908 
L 343.861674 143.854861 
L 346.216976 144.765512 
L 335.583796 149.859458 
L 341.657031 139.753587 
L 342.341692 142.18422 
L 349.495809 135.675267 
L 351.01579 137.345908 
" clip-path="url(#pb8e86b871e)"/>
    <path d="M 341.855966 119.344876 
L 334.700279 125.854918 
L 337.055557 126.76563 
L 326.422245 131.8593 
L 332.495742 121.753587 
L 333.18034 124.184237 
L 340.336027 117.674195 
L 341.855966 119.344876 
" clip-path="url(#pb8e86b871e)"/>
    <path d="M 247.55945 296.322687 
L 240.404308 302.843488 
L 242.760369 303.752174 
L 232.131441 308.854987 
L 238.196246 298.744054 
L 238.882934 301.174114 
L 246.038076 294.653313 
L 247.55945 296.322687 
" clip-path="url(#pb8e86b871e)"/>
    <path d="M 356.147986 195.77476 
L 348.996517 202.281775 
L 351.351852 203.19234 
L 340.718855 208.28667 
L 346.791727 198.18058 
L 347.476475 200.611188 
L 354.627944 194.104173 
L 356.147986 195.77476 
" clip-path="url(#pb8e86b871e)"/>
    <path d="M 319.081765 265.589236 
L 311.934611 272.093174 
L 314.290006 273.003587 
L 303.657341 278.098609 
L 309.729554 267.992123 
L 310.414461 270.422687 
L 317.561614 263.918748 
L 319.081765 265.589236 
" clip-path="url(#pb8e86b871e)"/>
    <path d="M 270.31631 121.749225 
L 263.159989 128.262326 
L 265.515441 129.172591 
L 254.883095 134.268279 
L 260.954675 124.161413 
L 261.639734 126.591934 
L 268.796055 120.078832 
L 270.31631 121.749225 
" clip-path="url(#pb8e86b871e)"/>
    <path d="M 336.871645 168.0588 
L 329.718056 174.572155 
L 332.073698 175.481927 
L 321.44242 180.579842 
L 327.511882 170.471705 
L 328.197451 172.902081 
L 335.35104 166.388726 
L 336.871645 168.0588 
" clip-path="url(#pb8e86b871e)"/>
    <path d="M 146.195174 162.137598 
L 139.039528 168.654734 
L 141.395302 169.564162 
L 130.764768 174.663627 
L 136.832756 164.554605 
L 137.518679 166.984882 
L 144.674325 160.467745 
L 146.195174 162.137598 
" clip-path="url(#pb8e86b871e)"/>
    <path d="M 221.165913 290.821262 
L 214.010296 297.33464 
L 216.365812 298.24474 
L 205.733824 303.341174 
L 211.804694 293.233882 
L 212.489924 295.664354 
L 219.64554 289.150976 
L 221.165913 290.821262 
" clip-path="url(#pb8e86b871e)"/>
    <path d="M 225.382215 175.728664 
L 218.225809 182.241862 
L 220.581262 183.152123 
L 209.948923 188.247827 
L 216.020488 178.140953 
L 216.705551 180.571472 
L 223.861957 174.058274 
L 225.382215 175.728664 
" clip-path="url(#pb8e86b871e)"/>
    <path d="M 171.70137 223.259422 
L 164.549433 229.77518 
L 166.905347 230.684248 
L 156.275591 235.785337 
L 162.342035 225.675388 
L 163.028329 228.10556 
L 170.180266 221.589802 
L 171.70137 223.259422 
" clip-path="url(#pb8e86b871e)"/>
    <path d="M 188.441607 282.685701 
L 181.285101 289.200525 
L 183.640661 290.11051 
L 173.008921 295.207462 
L 179.0793 285.099874 
L 179.764647 287.530313 
L 186.921153 281.015489 
L 188.441607 282.685701 
" clip-path="url(#pb8e86b871e)"/>
    <path d="M 143.680872 244.614191 
L 136.526496 251.129042 
L 138.882193 252.038673 
L 128.251218 257.137221 
L 134.320079 247.028723 
L 135.005792 249.459058 
L 142.160168 242.944208 
L 143.680872 244.614191 
" clip-path="url(#pb8e86b871e)"/>
    <path d="M 171.852072 164.637292 
L 164.696431 171.155028 
L 167.052248 172.064348 
L 156.421949 177.164304 
L 162.48947 167.055001 
L 163.175505 169.485246 
L 170.331146 162.96751 
L 171.852072 164.637292 
" clip-path="url(#pb8e86b871e)"/>
    <path d="M 241.520234 196.03206 
L 234.378723 202.531143 
L 236.734137 203.441506 
L 226.10158 208.536755 
L 232.173578 198.430139 
L 232.858536 200.860688 
L 240.000048 194.361605 
L 241.520234 196.03206 
" clip-path="url(#pb8e86b871e)"/>
    <path d="M 144.15326 206.901269 
L 136.999872 213.417567 
L 139.355732 214.326775 
L 128.725672 219.42723 
L 134.792719 209.317643 
L 135.478868 211.747856 
L 142.632256 205.231559 
L 144.15326 206.901269 
" clip-path="url(#pb8e86b871e)"/>
    <path d="M 297.498717 248.029754 
L 290.34945 254.532085 
L 292.704598 255.443134 
L 282.070556 260.535282 
L 288.145501 250.430438 
L 288.829751 252.861186 
L 295.979018 246.358856 
L 297.498717 248.029754 
" clip-path="url(#pb8e86b871e)"/>
    <path d="M 298.075179 216.802757 
L 290.906236 223.319436 
L 293.261138 224.231123 
L 282.625717 229.320391 
L 288.703398 219.217193 
L 289.386989 221.648126 
L 296.555932 215.131447 
L 298.075179 216.802757 
" clip-path="url(#pb8e86b871e)"/>
    <path d="M 125.234918 143.621828 
L 118.077908 150.139759 
L 120.433652 151.049268 
L 109.802943 156.14837 
L 115.871277 146.039555 
L 116.557116 148.469855 
L 123.714127 141.951924 
L 125.234918 143.621828 
" clip-path="url(#pb8e86b871e)"/>
    <path d="M 252.111689 138.448083 
L 244.956595 144.96131 
L 247.312133 145.871351 
L 236.680272 150.96805 
L 242.750891 140.860607 
L 243.436181 143.291062 
L 250.591275 136.777835 
L 252.111689 138.448083 
" clip-path="url(#pb8e86b871e)"/>
    <path d="M 153.877588 94.995118 
L 146.718137 101.514068 
L 149.073798 102.423793 
L 138.44262 107.521919 
L 144.511883 97.413661 
L 145.197499 99.844024 
L 152.356949 93.325074 
L 153.877588 94.995118 
" clip-path="url(#pb8e86b871e)"/>
    <path d="M 121.480003 177.274378 
L 114.324331 183.791846 
L 116.680128 184.701219 
L 106.049713 189.800934 
L 112.117464 179.691769 
L 112.803443 182.12203 
L 119.959115 175.604561 
L 121.480003 177.274378 
" clip-path="url(#pb8e86b871e)"/>
    <path d="M 296.253778 186.954236 
L 289.108967 193.462069 
L 291.464782 194.371395 
L 280.834467 199.47132 
L 286.902019 189.362035 
L 287.588046 191.792282 
L 294.732857 185.284449 
L 296.253778 186.954236 
" clip-path="url(#pb8e86b871e)"/>
    <path d="M 324.263459 143.073407 
L 317.109791 149.585034 
L 319.465308 150.49513 
L 308.833328 155.591582 
L 314.904182 145.48428 
L 315.589415 147.914751 
L 322.743084 141.403124 
L 324.263459 143.073407 
" clip-path="url(#pb8e86b871e)"/>
    <path d="M 269.178406 233.669534 
L 261.99826 240.20332 
L 264.353642 241.113764 
L 253.720908 246.208642 
L 259.793257 236.102239 
L 260.478131 238.532811 
L 267.658278 231.999026 
L 269.178406 233.669534 
" clip-path="url(#pb8e86b871e)"/>
    <path d="M 199.394304 182.959011 
L 192.238655 189.479175 
L 194.59464 190.388059 
L 183.965284 195.48998 
L 190.030937 185.379556 
L 190.717421 187.809674 
L 197.873069 181.28951 
L 199.394304 182.959011 
" clip-path="url(#pb8e86b871e)"/>
    <path d="M 200.972872 156.237724 
L 193.815661 162.756388 
L 196.171443 163.665798 
L 185.540948 168.765347 
L 191.608857 158.656277 
L 192.294799 161.086548 
L 199.45201 154.567883 
L 200.972872 156.237724 
" clip-path="url(#pb8e86b871e)"/>
    <path d="M 270.314963 266.342762 
L 263.174846 272.851923 
L 265.53105 273.760239 
L 254.902924 278.864722 
L 260.96614 268.752837 
L 261.65321 271.182789 
L 268.793326 264.673628 
L 270.314963 266.342762 
" clip-path="url(#pb8e86b871e)"/>
   </g>
   <g id="matplotlib.axis_1">
    <g id="xtick_1">
     <g id="line2d_1">
      <defs>
       <path id="m3da7133359" d="M 0 0 
L 0 3.5 
" style="stroke: #000000; stroke-width: 0.8"/>
      </defs>
      <g>
       <use xlink:href="#m3da7133359" x="109.224673" y="307.584" style="stroke: #000000; stroke-width: 0.8"/>
      </g>
     </g>
     <g id="text_1">
      <!-- −84.0 -->
      <g transform="translate(90.837486 323.702125) scale(0.12 -0.12)">
       <defs>
        <path id="DejaVuSans-2212" d="M 678 2272 
L 4684 2272 
L 4684 1741 
L 678 1741 
L 678 2272 
z
" transform="scale(0.015625)"/>
        <path id="DejaVuSans-38" d="M 2034 2216 
Q 1584 2216 1326 1975 
Q 1069 1734 1069 1313 
Q 1069 891 1326 650 
Q 1584 409 2034 409 
Q 2484 409 2743 651 
Q 3003 894 3003 1313 
Q 3003 1734 2745 1975 
Q 2488 2216 2034 2216 
z
M 1403 2484 
Q 997 2584 770 2862 
Q 544 3141 544 3541 
Q 544 4100 942 4425 
Q 1341 4750 2034 4750 
Q 2731 4750 3128 4425 
Q 3525 4100 3525 3541 
Q 3525 3141 3298 2862 
Q 3072 2584 2669 2484 
Q 3125 2378 3379 2068 
Q 3634 1759 3634 1313 
Q 3634 634 3220 271 
Q 2806 -91 2034 -91 
Q 1263 -91 848 271 
Q 434 634 434 1313 
Q 434 1759 690 2068 
Q 947 2378 1403 2484 
z
M 1172 3481 
Q 1172 3119 1398 2916 
Q 1625 2713 2034 2713 
Q 2441 2713 2670 2916 
Q 2900 3119 2900 3481 
Q 2900 3844 2670 4047 
Q 2441 4250 2034 4250 
Q 1625 4250 1398 4047 
Q 1172 3844 1172 3481 
z
" transform="scale(0.015625)"/>
        <path id="DejaVuSans-34" d="M 2419 4116 
L 825 1625 
L 2419 1625 
L 2419 4116 
z
M 2253 4666 
L 3047 4666 
L 3047 1625 
L 3713 1625 
L 3713 1100 
L 3047 1100 
L 3047 0 
L 2419 0 
L 2419 1100 
L 313 1100 
L 313 1709 
L 2253 4666 
z
" transform="scale(0.015625)"/>
        <path id="DejaVuSans-2e" d="M 684 794 
L 1344 794 
L 1344 0 
L 684 0 
L 684 794 
z
" transform="scale(0.015625)"/>
        <path id="DejaVuSans-30" d="M 2034 4250 
Q 1547 4250 1301 3770 
Q 1056 3291 1056 2328 
Q 1056 1369 1301 889 
Q 1547 409 2034 409 
Q 2525 409 2770 889 
Q 3016 1369 3016 2328 
Q 3016 3291 2770 3770 
Q 2525 4250 2034 4250 
z
M 2034 4750 
Q 2819 4750 3233 4129 
Q 3647 3509 3647 2328 
Q 3647 1150 3233 529 
Q 2819 -91 2034 -91 
Q 1250 -91 836 529 
Q 422 1150 422 2328 
Q 422 3509 836 4129 
Q 1250 4750 2034 4750 
z
" transform="scale(0.015625)"/>
       </defs>
       <use xlink:href="#DejaVuSans-2212"/>
       <use xlink:href="#DejaVuSans-38" transform="translate(83.789062 0)"/>
       <use xlink:href="#DejaVuSans-34" transform="translate(147.412109 0)"/>
       <use xlink:href="#DejaVuSans-2e" transform="translate(211.035156 0)"/>
       <use xlink:href="#DejaVuSans-30" transform="translate(242.822266 0)"/>
      </g>
     </g>
    </g>
    <g id="xtick_2">
     <g id="line2d_2">
      <g>
       <use xlink:href="#m3da7133359" x="171.57503" y="307.584" style="stroke: #000000; stroke-width: 0.8"/>
      </g>
     </g>
     <g id="text_2">
      <!-- −83.5 -->
      <g transform="translate(153.187843 323.702125) scale(0.12 -0.12)">
       <defs>
        <path id="DejaVuSans-33" d="M 2597 2516 
Q 3050 2419 3304 2112 
Q 3559 1806 3559 1356 
Q 3559 666 3084 287 
Q 2609 -91 1734 -91 
Q 1441 -91 1130 -33 
Q 819 25 488 141 
L 488 750 
Q 750 597 1062 519 
Q 1375 441 1716 441 
Q 2309 441 2620 675 
Q 2931 909 2931 1356 
Q 2931 1769 2642 2001 
Q 2353 2234 1838 2234 
L 1294 2234 
L 1294 2753 
L 1863 2753 
Q 2328 2753 2575 2939 
Q 2822 3125 2822 3475 
Q 2822 3834 2567 4026 
Q 2313 4219 1838 4219 
Q 1578 4219 1281 4162 
Q 984 4106 628 3988 
L 628 4550 
Q 988 4650 1302 4700 
Q 1616 4750 1894 4750 
Q 2613 4750 3031 4423 
Q 3450 4097 3450 3541 
Q 3450 3153 3228 2886 
Q 3006 2619 2597 2516 
z
" transform="scale(0.015625)"/>
        <path id="DejaVuSans-35" d="M 691 4666 
L 3169 4666 
L 3169 4134 
L 1269 4134 
L 1269 2991 
Q 1406 3038 1543 3061 
Q 1681 3084 1819 3084 
Q 2600 3084 3056 2656 
Q 3513 2228 3513 1497 
Q 3513 744 3044 326 
Q 2575 -91 1722 -91 
Q 1428 -91 1123 -41 
Q 819 9 494 109 
L 494 744 
Q 775 591 1075 516 
Q 1375 441 1709 441 
Q 2250 441 2565 725 
Q 2881 1009 2881 1497 
Q 2881 1984 2565 2268 
Q 2250 2553 1709 2553 
Q 1456 2553 1204 2497 
Q 953 2441 691 2322 
L 691 4666 
z
" transform="scale(0.015625)"/>
       </defs>
       <use xlink:href="#DejaVuSans-2212"/>
       <use xlink:href="#DejaVuSans-38" transform="translate(83.789062 0)"/>
       <use xlink:href="#DejaVuSans-33" transform="translate(147.412109 0)"/>
       <use xlink:href="#DejaVuSans-2e" transform="translate(211.035156 0)"/>
       <use xlink:href="#DejaVuSans-35" transform="translate(242.822266 0)"/>
      </g>
     </g>
    </g>
    <g id="xtick_3">
     <g id="line2d_3">
      <g>
       <use xlink:href="#m3da7133359" x="233.925388" y="307.584" style="stroke: #000000; stroke-width: 0.8"/>
      </g>
     </g>
     <g id="text_3">
      <!-- −83.0 -->
      <g transform="translate(215.5382 323.702125) scale(0.12 -0.12)">
       <use xlink:href="#DejaVuSans-2212"/>
       <use xlink:href="#DejaVuSans-38" transform="translate(83.789062 0)"/>
       <use xlink:href="#DejaVuSans-33" transform="translate(147.412109 0)"/>
       <use xlink:href="#DejaVuSans-2e" transform="translate(211.035156 0)"/>
       <use xlink:href="#DejaVuSans-30" transform="translate(242.822266 0)"/>
      </g>
     </g>
    </g>
    <g id="xtick_4">
     <g id="line2d_4">
      <g>
       <use xlink:href="#m3da7133359" x="296.275745" y="307.584" style="stroke: #000000; stroke-width: 0.8"/>
      </g>
     </g>
     <g id="text_4">
      <!-- −82.5 -->
      <g transform="translate(277.888558 323.702125) scale(0.12 -0.12)">
       <defs>
        <path id="DejaVuSans-32" d="M 1228 531 
L 3431 531 
L 3431 0 
L 469 0 
L 469 531 
Q 828 903 1448 1529 
Q 2069 2156 2228 2338 
Q 2531 2678 2651 2914 
Q 2772 3150 2772 3378 
Q 2772 3750 2511 3984 
Q 2250 4219 1831 4219 
Q 1534 4219 1204 4116 
Q 875 4013 500 3803 
L 500 4441 
Q 881 4594 1212 4672 
Q 1544 4750 1819 4750 
Q 2544 4750 2975 4387 
Q 3406 4025 3406 3419 
Q 3406 3131 3298 2873 
Q 3191 2616 2906 2266 
Q 2828 2175 2409 1742 
Q 1991 1309 1228 531 
z
" transform="scale(0.015625)"/>
       </defs>
       <use xlink:href="#DejaVuSans-2212"/>
       <use xlink:href="#DejaVuSans-38" transform="translate(83.789062 0)"/>
       <use xlink:href="#DejaVuSans-32" transform="translate(147.412109 0)"/>
       <use xlink:href="#DejaVuSans-2e" transform="translate(211.035156 0)"/>
       <use xlink:href="#DejaVuSans-35" transform="translate(242.822266 0)"/>
      </g>
     </g>
    </g>
    <g id="xtick_5">
     <g id="line2d_5">
      <g>
       <use xlink:href="#m3da7133359" x="358.626102" y="307.584" style="stroke: #000000; stroke-width: 0.8"/>
      </g>
     </g>
     <g id="text_5">
      <!-- −82.0 -->
      <g transform="translate(340.238915 323.702125) scale(0.12 -0.12)">
       <use xlink:href="#DejaVuSans-2212"/>
       <use xlink:href="#DejaVuSans-38" transform="translate(83.789062 0)"/>
       <use xlink:href="#DejaVuSans-32" transform="translate(147.412109 0)"/>
       <use xlink:href="#DejaVuSans-2e" transform="translate(211.035156 0)"/>
       <use xlink:href="#DejaVuSans-30" transform="translate(242.822266 0)"/>
      </g>
     </g>
    </g>
    <g id="text_6">
     <!-- x -->
     <g transform="translate(232.016875 340.835562) scale(0.14 -0.14)">
      <defs>
       <path id="DejaVuSans-78" d="M 3513 3500 
L 2247 1797 
L 3578 0 
L 2900 0 
L 1881 1375 
L 863 0 
L 184 0 
L 1544 1831 
L 300 3500 
L 978 3500 
L 1906 2253 
L 2834 3500 
L 3513 3500 
z
" transform="scale(0.015625)"/>
      </defs>
      <use xlink:href="#DejaVuSans-78"/>
     </g>
    </g>
   </g>
   <g id="matplotlib.axis_2">
    <g id="ytick_1">
     <g id="line2d_6">
      <defs>
       <path id="md35d9ff7bd" d="M 0 0 
L -3.5 0 
" style="stroke: #000000; stroke-width: 0.8"/>
      </defs>
      <g>
       <use xlink:href="#md35d9ff7bd" x="57.6" y="304.989131" style="stroke: #000000; stroke-width: 0.8"/>
      </g>
     </g>
     <g id="text_7">
      <!-- −52.75 -->
      <g transform="translate(6.190625 309.548194) scale(0.12 -0.12)">
       <defs>
        <path id="DejaVuSans-37" d="M 525 4666 
L 3525 4666 
L 3525 4397 
L 1831 0 
L 1172 0 
L 2766 4134 
L 525 4134 
L 525 4666 
z
" transform="scale(0.015625)"/>
       </defs>
       <use xlink:href="#DejaVuSans-2212"/>
       <use xlink:href="#DejaVuSans-35" transform="translate(83.789062 0)"/>
       <use xlink:href="#DejaVuSans-32" transform="translate(147.412109 0)"/>
       <use xlink:href="#DejaVuSans-2e" transform="translate(211.035156 0)"/>
       <use xlink:href="#DejaVuSans-37" transform="translate(242.822266 0)"/>
       <use xlink:href="#DejaVuSans-35" transform="translate(306.445312 0)"/>
      </g>
     </g>
    </g>
    <g id="ytick_2">
     <g id="line2d_7">
      <g>
       <use xlink:href="#md35d9ff7bd" x="57.6" y="273.813952" style="stroke: #000000; stroke-width: 0.8"/>
      </g>
     </g>
     <g id="text_8">
      <!-- −52.50 -->
      <g transform="translate(6.190625 278.373015) scale(0.12 -0.12)">
       <use xlink:href="#DejaVuSans-2212"/>
       <use xlink:href="#DejaVuSans-35" transform="translate(83.789062 0)"/>
       <use xlink:href="#DejaVuSans-32" transform="translate(147.412109 0)"/>
       <use xlink:href="#DejaVuSans-2e" transform="translate(211.035156 0)"/>
       <use xlink:href="#DejaVuSans-35" transform="translate(242.822266 0)"/>
       <use xlink:href="#DejaVuSans-30" transform="translate(306.445312 0)"/>
      </g>
     </g>
    </g>
    <g id="ytick_3">
     <g id="line2d_8">
      <g>
       <use xlink:href="#md35d9ff7bd" x="57.6" y="242.638774" style="stroke: #000000; stroke-width: 0.8"/>
      </g>
     </g>
     <g id="text_9">
      <!-- −52.25 -->
      <g transform="translate(6.190625 247.197836) scale(0.12 -0.12)">
       <use xlink:href="#DejaVuSans-2212"/>
       <use xlink:href="#DejaVuSans-35" transform="translate(83.789062 0)"/>
       <use xlink:href="#DejaVuSans-32" transform="translate(147.412109 0)"/>
       <use xlink:href="#DejaVuSans-2e" transform="translate(211.035156 0)"/>
       <use xlink:href="#DejaVuSans-32" transform="translate(242.822266 0)"/>
       <use xlink:href="#DejaVuSans-35" transform="translate(306.445312 0)"/>
      </g>
     </g>
    </g>
    <g id="ytick_4">
     <g id="line2d_9">
      <g>
       <use xlink:href="#md35d9ff7bd" x="57.6" y="211.463595" style="stroke: #000000; stroke-width: 0.8"/>
      </g>
     </g>
     <g id="text_10">
      <!-- −52.00 -->
      <g transform="translate(6.190625 216.022658) scale(0.12 -0.12)">
       <use xlink:href="#DejaVuSans-2212"/>
       <use xlink:href="#DejaVuSans-35" transform="translate(83.789062 0)"/>
       <use xlink:href="#DejaVuSans-32" transform="translate(147.412109 0)"/>
       <use xlink:href="#DejaVuSans-2e" transform="translate(211.035156 0)"/>
       <use xlink:href="#DejaVuSans-30" transform="translate(242.822266 0)"/>
       <use xlink:href="#DejaVuSans-30" transform="translate(306.445312 0)"/>
      </g>
     </g>
    </g>
    <g id="ytick_5">
     <g id="line2d_10">
      <g>
       <use xlink:href="#md35d9ff7bd" x="57.6" y="180.288416" style="stroke: #000000; stroke-width: 0.8"/>
      </g>
     </g>
     <g id="text_11">
      <!-- −51.75 -->
      <g transform="translate(6.190625 184.847479) scale(0.12 -0.12)">
       <defs>
        <path id="DejaVuSans-31" d="M 794 531 
L 1825 531 
L 1825 4091 
L 703 3866 
L 703 4441 
L 1819 4666 
L 2450 4666 
L 2450 531 
L 3481 531 
L 3481 0 
L 794 0 
L 794 531 
z
" transform="scale(0.015625)"/>
       </defs>
       <use xlink:href="#DejaVuSans-2212"/>
       <use xlink:href="#DejaVuSans-35" transform="translate(83.789062 0)"/>
       <use xlink:href="#DejaVuSans-31" transform="translate(147.412109 0)"/>
       <use xlink:href="#DejaVuSans-2e" transform="translate(211.035156 0)"/>
       <use xlink:href="#DejaVuSans-37" transform="translate(242.822266 0)"/>
       <use xlink:href="#DejaVuSans-35" transform="translate(306.445312 0)"/>
      </g>
     </g>
    </g>
    <g id="ytick_6">
     <g id="line2d_11">
      <g>
       <use xlink:href="#md35d9ff7bd" x="57.6" y="149.113238" style="stroke: #000000; stroke-width: 0.8"/>
      </g>
     </g>
     <g id="text_12">
      <!-- −51.50 -->
      <g transform="translate(6.190625 153.6723) scale(0.12 -0.12)">
       <use xlink:href="#DejaVuSans-2212"/>
       <use xlink:href="#DejaVuSans-35" transform="translate(83.789062 0)"/>
       <use xlink:href="#DejaVuSans-31" transform="translate(147.412109 0)"/>
       <use xlink:href="#DejaVuSans-2e" transform="translate(211.035156 0)"/>
       <use xlink:href="#DejaVuSans-35" transform="translate(242.822266 0)"/>
       <use xlink:href="#DejaVuSans-30" transform="translate(306.445312 0)"/>
      </g>
     </g>
    </g>
    <g id="ytick_7">
     <g id="line2d_12">
      <g>
       <use xlink:href="#md35d9ff7bd" x="57.6" y="117.938059" style="stroke: #000000; stroke-width: 0.8"/>
      </g>
     </g>
     <g id="text_13">
      <!-- −51.25 -->
      <g transform="translate(6.190625 122.497122) scale(0.12 -0.12)">
       <use xlink:href="#DejaVuSans-2212"/>
       <use xlink:href="#DejaVuSans-35" transform="translate(83.789062 0)"/>
       <use xlink:href="#DejaVuSans-31" transform="translate(147.412109 0)"/>
       <use xlink:href="#DejaVuSans-2e" transform="translate(211.035156 0)"/>
       <use xlink:href="#DejaVuSans-32" transform="translate(242.822266 0)"/>
       <use xlink:href="#DejaVuSans-35" transform="translate(306.445312 0)"/>
      </g>
     </g>
    </g>
    <g id="ytick_8">
     <g id="line2d_13">
      <g>
       <use xlink:href="#md35d9ff7bd" x="57.6" y="86.762881" style="stroke: #000000; stroke-width: 0.8"/>
      </g>
     </g>
     <g id="text_14">
      <!-- −51.00 -->
      <g transform="translate(6.190625 91.321943) scale(0.12 -0.12)">
       <use xlink:href="#DejaVuSans-2212"/>
       <use xlink:href="#DejaVuSans-35" transform="translate(83.789062 0)"/>
       <use xlink:href="#DejaVuSans-31" transform="translate(147.412109 0)"/>
       <use xlink:href="#DejaVuSans-2e" transform="translate(211.035156 0)"/>
       <use xlink:href="#DejaVuSans-30" transform="translate(242.822266 0)"/>
       <use xlink:href="#DejaVuSans-30" transform="translate(306.445312 0)"/>
      </g>
     </g>
    </g>
    <g id="ytick_9">
     <g id="line2d_14">
      <g>
       <use xlink:href="#md35d9ff7bd" x="57.6" y="55.587702" style="stroke: #000000; stroke-width: 0.8"/>
      </g>
     </g>
     <g id="text_15">
      <!-- −50.75 -->
      <g transform="translate(6.190625 60.146764) scale(0.12 -0.12)">
       <use xlink:href="#DejaVuSans-2212"/>
       <use xlink:href="#DejaVuSans-35" transform="translate(83.789062 0)"/>
       <use xlink:href="#DejaVuSans-30" transform="translate(147.412109 0)"/>
       <use xlink:href="#DejaVuSans-2e" transform="translate(211.035156 0)"/>
       <use xlink:href="#DejaVuSans-37" transform="translate(242.822266 0)"/>
       <use xlink:href="#DejaVuSans-35" transform="translate(306.445312 0)"/>
      </g>
     </g>
    </g>
    <g id="text_16">
     <!-- y -->
     <g transform="translate(-0.720937 178.671125) rotate(-90) scale(0.14 -0.14)">
      <defs>
       <path id="DejaVuSans-79" d="M 2059 -325 
Q 1816 -950 1584 -1140 
Q 1353 -1331 966 -1331 
L 506 -1331 
L 506 -850 
L 844 -850 
Q 1081 -850 1212 -737 
Q 1344 -625 1503 -206 
L 1606 56 
L 191 3500 
L 800 3500 
L 1894 763 
L 2988 3500 
L 3597 3500 
L 2059 -325 
z
" transform="scale(0.015625)"/>
      </defs>
      <use xlink:href="#DejaVuSans-79"/>
     </g>
    </g>
   </g>
   <g id="line2d_15">
    <defs>
     <path id="m7470339101" d="M 0 3 
C 0.795609 3 1.55874 2.683901 2.12132 2.12132 
C 2.683901 1.55874 3 0.795609 3 0 
C 3 -0.795609 2.683901 -1.55874 2.12132 -2.12132 
C 1.55874 -2.683901 0.795609 -3 0 -3 
C -0.795609 -3 -1.55874 -2.683901 -2.12132 -2.12132 
C -2.683901 -1.55874 -3 -0.795609 -3 0 
C -3 0.795609 -2.683901 1.55874 -2.12132 2.12132 
C -1.55874 2.683901 -0.795609 3 0 3 
z
" style="stroke: #0000ff"/>
    </defs>
    <g clip-path="url(#pb8e86b871e)">
     <use xlink:href="#m7470339101" x="202.646319" y="238.617678" style="fill: #0000ff; stroke: #0000ff"/>
     <use xlink:href="#m7470339101" x="246.949974" y="109.677942" style="fill: #0000ff; stroke: #0000ff"/>
     <use xlink:href="#m7470339101" x="231.450993" y="240.203151" style="fill: #0000ff; stroke: #0000ff"/>
     <use xlink:href="#m7470339101" x="217.138518" y="96.803888" style="fill: #0000ff; stroke: #0000ff"/>
     <use xlink:href="#m7470339101" x="171.677398" y="192.036358" style="fill: #0000ff; stroke: #0000ff"/>
     <use xlink:href="#m7470339101" x="180.91003" y="73.549277" style="fill: #0000ff; stroke: #0000ff"/>
     <use xlink:href="#m7470339101" x="251.521274" y="166.1974" style="fill: #0000ff; stroke: #0000ff"/>
     <use xlink:href="#m7470339101" x="197.903848" y="209.720802" style="fill: #0000ff; stroke: #0000ff"/>
     <use xlink:href="#m7470339101" x="244.593179" y="79.305663" style="fill: #0000ff; stroke: #0000ff"/>
     <use xlink:href="#m7470339101" x="293.313992" y="120.621932" style="fill: #0000ff; stroke: #0000ff"/>
     <use xlink:href="#m7470339101" x="175.750093" y="252.662486" style="fill: #0000ff; stroke: #0000ff"/>
     <use xlink:href="#m7470339101" x="274.824927" y="94.576747" style="fill: #0000ff; stroke: #0000ff"/>
     <use xlink:href="#m7470339101" x="307.952975" y="88.036446" style="fill: #0000ff; stroke: #0000ff"/>
     <use xlink:href="#m7470339101" x="187.51107" y="104.561593" style="fill: #0000ff; stroke: #0000ff"/>
     <use xlink:href="#m7470339101" x="227.28914" y="148.467571" style="fill: #0000ff; stroke: #0000ff"/>
     <use xlink:href="#m7470339101" x="208.267735" y="126.777909" style="fill: #0000ff; stroke: #0000ff"/>
     <use xlink:href="#m7470339101" x="178.876865" y="135.364949" style="fill: #0000ff; stroke: #0000ff"/>
     <use xlink:href="#m7470339101" x="267.326979" y="188.702223" style="fill: #0000ff; stroke: #0000ff"/>
     <use xlink:href="#m7470339101" x="276.265055" y="146.950287" style="fill: #0000ff; stroke: #0000ff"/>
     <use xlink:href="#m7470339101" x="211.498386" y="64.282025" style="fill: #0000ff; stroke: #0000ff"/>
    </g>
   </g>
   <g id="line2d_16">
    <defs>
     <path id="m4fd889140e" d="M 0 3 
C 0.795609 3 1.55874 2.683901 2.12132 2.12132 
C 2.683901 1.55874 3 0.795609 3 0 
C 3 -0.795609 2.683901 -1.55874 2.12132 -2.12132 
C 1.55874 -2.683901 0.795609 -3 0 -3 
C -0.795609 -3 -1.55874 -2.683901 -2.12132 -2.12132 
C -2.683901 -1.55874 -3 -0.795609 -3 0 
C -3 0.795609 -2.683901 1.55874 -2.12132 2.12132 
C -1.55874 2.683901 -0.795609 3 0 3 
z
" style="stroke: #ff0000"/>
    </defs>
    <g clip-path="url(#pb8e86b871e)">
     <use xlink:href="#m4fd889140e" x="145.499039" y="125.470164" style="fill: #ff0000; stroke: #ff0000"/>
     <use xlink:href="#m4fd889140e" x="218.535094" y="217.670279" style="fill: #ff0000; stroke: #ff0000"/>
     <use xlink:href="#m4fd889140e" x="353.658188" y="155.463797" style="fill: #ff0000; stroke: #ff0000"/>
     <use xlink:href="#m4fd889140e" x="294.887632" y="162.699119" style="fill: #ff0000; stroke: #ff0000"/>
     <use xlink:href="#m4fd889140e" x="244.318921" y="274.050879" style="fill: #ff0000; stroke: #ff0000"/>
     <use xlink:href="#m4fd889140e" x="349.118802" y="214.167675" style="fill: #ff0000; stroke: #ff0000"/>
     <use xlink:href="#m4fd889140e" x="342.421542" y="233.519504" style="fill: #ff0000; stroke: #ff0000"/>
     <use xlink:href="#m4fd889140e" x="153.836137" y="143.571128" style="fill: #ff0000; stroke: #ff0000"/>
     <use xlink:href="#m4fd889140e" x="236.270882" y="53.568" style="fill: #ff0000; stroke: #ff0000"/>
     <use xlink:href="#m4fd889140e" x="227.10939" y="263.864582" style="fill: #ff0000; stroke: #ff0000"/>
     <use xlink:href="#m4fd889140e" x="312.73726" y="165.33036" style="fill: #ff0000; stroke: #ff0000"/>
     <use xlink:href="#m4fd889140e" x="330.473764" y="249.778597" style="fill: #ff0000; stroke: #ff0000"/>
     <use xlink:href="#m4fd889140e" x="265.61249" y="293.296441" style="fill: #ff0000; stroke: #ff0000"/>
     <use xlink:href="#m4fd889140e" x="276.344125" y="168.654279" style="fill: #ff0000; stroke: #ff0000"/>
     <use xlink:href="#m4fd889140e" x="291.288496" y="67.434197" style="fill: #ff0000; stroke: #ff0000"/>
     <use xlink:href="#m4fd889140e" x="328.51456" y="215.011704" style="fill: #ff0000; stroke: #ff0000"/>
     <use xlink:href="#m4fd889140e" x="247.542929" y="223.670266" style="fill: #ff0000; stroke: #ff0000"/>
     <use xlink:href="#m4fd889140e" x="258.834854" y="55.990415" style="fill: #ff0000; stroke: #ff0000"/>
     <use xlink:href="#m4fd889140e" x="355.565487" y="174.929604" style="fill: #ff0000; stroke: #ff0000"/>
     <use xlink:href="#m4fd889140e" x="299.76277" y="145.042444" style="fill: #ff0000; stroke: #ff0000"/>
     <use xlink:href="#m4fd889140e" x="318.071864" y="115.872281" style="fill: #ff0000; stroke: #ff0000"/>
     <use xlink:href="#m4fd889140e" x="156.778621" y="270.757824" style="fill: #ff0000; stroke: #ff0000"/>
     <use xlink:href="#m4fd889140e" x="286.267722" y="286.718557" style="fill: #ff0000; stroke: #ff0000"/>
     <use xlink:href="#m4fd889140e" x="275.983122" y="209.302342" style="fill: #ff0000; stroke: #ff0000"/>
     <use xlink:href="#m4fd889140e" x="207.935323" y="262.829496" style="fill: #ff0000; stroke: #ff0000"/>
     <use xlink:href="#m4fd889140e" x="258.050951" y="210.735443" style="fill: #ff0000; stroke: #ff0000"/>
     <use xlink:href="#m4fd889140e" x="331.581606" y="100.82195" style="fill: #ff0000; stroke: #ff0000"/>
     <use xlink:href="#m4fd889140e" x="301.828738" y="275.663534" style="fill: #ff0000; stroke: #ff0000"/>
     <use xlink:href="#m4fd889140e" x="319.359062" y="232.076614" style="fill: #ff0000; stroke: #ff0000"/>
     <use xlink:href="#m4fd889140e" x="336.73639" y="192.223336" style="fill: #ff0000; stroke: #ff0000"/>
     <use xlink:href="#m4fd889140e" x="130.546714" y="113.126052" style="fill: #ff0000; stroke: #ff0000"/>
     <use xlink:href="#m4fd889140e" x="233.044187" y="214.887914" style="fill: #ff0000; stroke: #ff0000"/>
     <use xlink:href="#m4fd889140e" x="148.185958" y="179.678671" style="fill: #ff0000; stroke: #ff0000"/>
     <use xlink:href="#m4fd889140e" x="116.754513" y="203.479237" style="fill: #ff0000; stroke: #ff0000"/>
     <use xlink:href="#m4fd889140e" x="273.654804" y="66.34008" style="fill: #ff0000; stroke: #ff0000"/>
     <use xlink:href="#m4fd889140e" x="321.594982" y="180.699879" style="fill: #ff0000; stroke: #ff0000"/>
     <use xlink:href="#m4fd889140e" x="229.334851" y="122.78461" style="fill: #ff0000; stroke: #ff0000"/>
     <use xlink:href="#m4fd889140e" x="218.109144" y="198.300731" style="fill: #ff0000; stroke: #ff0000"/>
     <use xlink:href="#m4fd889140e" x="249.723889" y="252.315866" style="fill: #ff0000; stroke: #ff0000"/>
     <use xlink:href="#m4fd889140e" x="124.028952" y="224.649517" style="fill: #ff0000; stroke: #ff0000"/>
     <use xlink:href="#m4fd889140e" x="317.523706" y="200.243996" style="fill: #ff0000; stroke: #ff0000"/>
     <use xlink:href="#m4fd889140e" x="162.476364" y="118.243237" style="fill: #ff0000; stroke: #ff0000"/>
     <use xlink:href="#m4fd889140e" x="350.2558" y="136.510588" style="fill: #ff0000; stroke: #ff0000"/>
     <use xlink:href="#m4fd889140e" x="341.095996" y="118.509536" style="fill: #ff0000; stroke: #ff0000"/>
     <use xlink:href="#m4fd889140e" x="246.798763" y="295.488" style="fill: #ff0000; stroke: #ff0000"/>
     <use xlink:href="#m4fd889140e" x="355.387965" y="194.939467" style="fill: #ff0000; stroke: #ff0000"/>
     <use xlink:href="#m4fd889140e" x="318.32169" y="264.753992" style="fill: #ff0000; stroke: #ff0000"/>
     <use xlink:href="#m4fd889140e" x="269.556183" y="120.914029" style="fill: #ff0000; stroke: #ff0000"/>
     <use xlink:href="#m4fd889140e" x="336.111342" y="167.223763" style="fill: #ff0000; stroke: #ff0000"/>
     <use xlink:href="#m4fd889140e" x="145.434749" y="161.302672" style="fill: #ff0000; stroke: #ff0000"/>
    </g>
   </g>
   <g id="line2d_17">
    <defs>
     <path id="m11594d6aad" d="M 0 3 
C 0.795609 3 1.55874 2.683901 2.12132 2.12132 
C 2.683901 1.55874 3 0.795609 3 0 
C 3 -0.795609 2.683901 -1.55874 2.12132 -2.12132 
C 1.55874 -2.683901 0.795609 -3 0 -3 
C -0.795609 -3 -1.55874 -2.683901 -2.12132 -2.12132 
C -2.683901 -1.55874 -3 -0.795609 -3 0 
C -3 0.795609 -2.683901 1.55874 -2.12132 2.12132 
C -1.55874 2.683901 -0.795609 3 0 3 
z
" style="stroke: #000000"/>
    </defs>
    <g clip-path="url(#pb8e86b871e)">
     <use xlink:href="#m11594d6aad" x="220.405727" y="289.986119" style="stroke: #000000"/>
     <use xlink:href="#m11594d6aad" x="224.622086" y="174.893469" style="stroke: #000000"/>
     <use xlink:href="#m11594d6aad" x="170.940818" y="222.424612" style="stroke: #000000"/>
     <use xlink:href="#m11594d6aad" x="187.68138" y="281.850595" style="stroke: #000000"/>
     <use xlink:href="#m11594d6aad" x="142.92052" y="243.7792" style="stroke: #000000"/>
     <use xlink:href="#m11594d6aad" x="171.091609" y="163.802401" style="stroke: #000000"/>
     <use xlink:href="#m11594d6aad" x="240.760141" y="195.196833" style="stroke: #000000"/>
     <use xlink:href="#m11594d6aad" x="143.392758" y="206.066414" style="stroke: #000000"/>
     <use xlink:href="#m11594d6aad" x="296.738868" y="247.194305" style="stroke: #000000"/>
     <use xlink:href="#m11594d6aad" x="297.315556" y="215.967102" style="stroke: #000000"/>
     <use xlink:href="#m11594d6aad" x="124.474522" y="142.786876" style="stroke: #000000"/>
     <use xlink:href="#m11594d6aad" x="251.351482" y="137.612959" style="stroke: #000000"/>
     <use xlink:href="#m11594d6aad" x="153.117269" y="94.160096" style="stroke: #000000"/>
     <use xlink:href="#m11594d6aad" x="120.719559" y="176.43947" style="stroke: #000000"/>
     <use xlink:href="#m11594d6aad" x="295.493318" y="186.119342" style="stroke: #000000"/>
     <use xlink:href="#m11594d6aad" x="323.503271" y="142.238266" style="stroke: #000000"/>
     <use xlink:href="#m11594d6aad" x="268.418342" y="232.83428" style="stroke: #000000"/>
     <use xlink:href="#m11594d6aad" x="198.633687" y="182.12426" style="stroke: #000000"/>
     <use xlink:href="#m11594d6aad" x="200.212441" y="155.402804" style="stroke: #000000"/>
     <use xlink:href="#m11594d6aad" x="269.554144" y="265.508195" style="stroke: #000000"/>
    </g>
   </g>
   <g id="patch_3">
    <path d="M 57.6 307.584 
L 57.6 41.472 
" style="fill: none; stroke: #000000; stroke-width: 0.8; stroke-linejoin: miter; stroke-linecap: square"/>
   </g>
   <g id="patch_4">
    <path d="M 414.72 307.584 
L 414.72 41.472 
" style="fill: none; stroke: #000000; stroke-width: 0.8; stroke-linejoin: miter; stroke-linecap: square"/>
   </g>
   <g id="patch_5">
    <path d="M 57.6 307.584 
L 414.72 307.584 
" style="fill: none; stroke: #000000; stroke-width: 0.8; stroke-linejoin: miter; stroke-linecap: square"/>
   </g>
   <g id="patch_6">
    <path d="M 57.6 41.472 
L 414.72 41.472 
" style="fill: none; stroke: #000000; stroke-width: 0.8; stroke-linejoin: miter; stroke-linecap: square"/>
   </g>
   <g id="text_17">
    <!-- Velocities at the final time -->
    <g transform="translate(116.81 35.472) scale(0.16 -0.16)">
     <defs>
      <path id="DejaVuSans-Bold-56" d="M 31 4666 
L 1241 4666 
L 2478 1222 
L 3713 4666 
L 4922 4666 
L 3194 0 
L 1759 0 
L 31 4666 
z
" transform="scale(0.015625)"/>
      <path id="DejaVuSans-Bold-65" d="M 4031 1759 
L 4031 1441 
L 1416 1441 
Q 1456 1047 1700 850 
Q 1944 653 2381 653 
Q 2734 653 3104 758 
Q 3475 863 3866 1075 
L 3866 213 
Q 3469 63 3072 -14 
Q 2675 -91 2278 -91 
Q 1328 -91 801 392 
Q 275 875 275 1747 
Q 275 2603 792 3093 
Q 1309 3584 2216 3584 
Q 3041 3584 3536 3087 
Q 4031 2591 4031 1759 
z
M 2881 2131 
Q 2881 2450 2695 2645 
Q 2509 2841 2209 2841 
Q 1884 2841 1681 2658 
Q 1478 2475 1428 2131 
L 2881 2131 
z
" transform="scale(0.015625)"/>
      <path id="DejaVuSans-Bold-6c" d="M 538 4863 
L 1656 4863 
L 1656 0 
L 538 0 
L 538 4863 
z
" transform="scale(0.015625)"/>
      <path id="DejaVuSans-Bold-6f" d="M 2203 2784 
Q 1831 2784 1636 2517 
Q 1441 2250 1441 1747 
Q 1441 1244 1636 976 
Q 1831 709 2203 709 
Q 2569 709 2762 976 
Q 2956 1244 2956 1747 
Q 2956 2250 2762 2517 
Q 2569 2784 2203 2784 
z
M 2203 3584 
Q 3106 3584 3614 3096 
Q 4122 2609 4122 1747 
Q 4122 884 3614 396 
Q 3106 -91 2203 -91 
Q 1297 -91 786 396 
Q 275 884 275 1747 
Q 275 2609 786 3096 
Q 1297 3584 2203 3584 
z
" transform="scale(0.015625)"/>
      <path id="DejaVuSans-Bold-63" d="M 3366 3391 
L 3366 2478 
Q 3138 2634 2908 2709 
Q 2678 2784 2431 2784 
Q 1963 2784 1702 2511 
Q 1441 2238 1441 1747 
Q 1441 1256 1702 982 
Q 1963 709 2431 709 
Q 2694 709 2930 787 
Q 3166 866 3366 1019 
L 3366 103 
Q 3103 6 2833 -42 
Q 2563 -91 2291 -91 
Q 1344 -91 809 395 
Q 275 881 275 1747 
Q 275 2613 809 3098 
Q 1344 3584 2291 3584 
Q 2566 3584 2833 3536 
Q 3100 3488 3366 3391 
z
" transform="scale(0.015625)"/>
      <path id="DejaVuSans-Bold-69" d="M 538 3500 
L 1656 3500 
L 1656 0 
L 538 0 
L 538 3500 
z
M 538 4863 
L 1656 4863 
L 1656 3950 
L 538 3950 
L 538 4863 
z
" transform="scale(0.015625)"/>
      <path id="DejaVuSans-Bold-74" d="M 1759 4494 
L 1759 3500 
L 2913 3500 
L 2913 2700 
L 1759 2700 
L 1759 1216 
Q 1759 972 1856 886 
Q 1953 800 2241 800 
L 2816 800 
L 2816 0 
L 1856 0 
Q 1194 0 917 276 
Q 641 553 641 1216 
L 641 2700 
L 84 2700 
L 84 3500 
L 641 3500 
L 641 4494 
L 1759 4494 
z
" transform="scale(0.015625)"/>
      <path id="DejaVuSans-Bold-73" d="M 3272 3391 
L 3272 2541 
Q 2913 2691 2578 2766 
Q 2244 2841 1947 2841 
Q 1628 2841 1473 2761 
Q 1319 2681 1319 2516 
Q 1319 2381 1436 2309 
Q 1553 2238 1856 2203 
L 2053 2175 
Q 2913 2066 3209 1816 
Q 3506 1566 3506 1031 
Q 3506 472 3093 190 
Q 2681 -91 1863 -91 
Q 1516 -91 1145 -36 
Q 775 19 384 128 
L 384 978 
Q 719 816 1070 734 
Q 1422 653 1784 653 
Q 2113 653 2278 743 
Q 2444 834 2444 1013 
Q 2444 1163 2330 1236 
Q 2216 1309 1875 1350 
L 1678 1375 
Q 931 1469 631 1722 
Q 331 1975 331 2491 
Q 331 3047 712 3315 
Q 1094 3584 1881 3584 
Q 2191 3584 2531 3537 
Q 2872 3491 3272 3391 
z
" transform="scale(0.015625)"/>
      <path id="DejaVuSans-Bold-20" transform="scale(0.015625)"/>
      <path id="DejaVuSans-Bold-61" d="M 2106 1575 
Q 1756 1575 1579 1456 
Q 1403 1338 1403 1106 
Q 1403 894 1545 773 
Q 1688 653 1941 653 
Q 2256 653 2472 879 
Q 2688 1106 2688 1447 
L 2688 1575 
L 2106 1575 
z
M 3816 1997 
L 3816 0 
L 2688 0 
L 2688 519 
Q 2463 200 2181 54 
Q 1900 -91 1497 -91 
Q 953 -91 614 226 
Q 275 544 275 1050 
Q 275 1666 698 1953 
Q 1122 2241 2028 2241 
L 2688 2241 
L 2688 2328 
Q 2688 2594 2478 2717 
Q 2269 2841 1825 2841 
Q 1466 2841 1156 2769 
Q 847 2697 581 2553 
L 581 3406 
Q 941 3494 1303 3539 
Q 1666 3584 2028 3584 
Q 2975 3584 3395 3211 
Q 3816 2838 3816 1997 
z
" transform="scale(0.015625)"/>
      <path id="DejaVuSans-Bold-68" d="M 4056 2131 
L 4056 0 
L 2931 0 
L 2931 347 
L 2931 1625 
Q 2931 2084 2911 2256 
Q 2891 2428 2841 2509 
Q 2775 2619 2662 2680 
Q 2550 2741 2406 2741 
Q 2056 2741 1856 2470 
Q 1656 2200 1656 1722 
L 1656 0 
L 538 0 
L 538 4863 
L 1656 4863 
L 1656 2988 
Q 1909 3294 2193 3439 
Q 2478 3584 2822 3584 
Q 3428 3584 3742 3212 
Q 4056 2841 4056 2131 
z
" transform="scale(0.015625)"/>
      <path id="DejaVuSans-Bold-66" d="M 2841 4863 
L 2841 4128 
L 2222 4128 
Q 1984 4128 1890 4042 
Q 1797 3956 1797 3744 
L 1797 3500 
L 2753 3500 
L 2753 2700 
L 1797 2700 
L 1797 0 
L 678 0 
L 678 2700 
L 122 2700 
L 122 3500 
L 678 3500 
L 678 3744 
Q 678 4316 997 4589 
Q 1316 4863 1984 4863 
L 2841 4863 
z
" transform="scale(0.015625)"/>
      <path id="DejaVuSans-Bold-6e" d="M 4056 2131 
L 4056 0 
L 2931 0 
L 2931 347 
L 2931 1631 
Q 2931 2084 2911 2256 
Q 2891 2428 2841 2509 
Q 2775 2619 2662 2680 
Q 2550 2741 2406 2741 
Q 2056 2741 1856 2470 
Q 1656 2200 1656 1722 
L 1656 0 
L 538 0 
L 538 3500 
L 1656 3500 
L 1656 2988 
Q 1909 3294 2193 3439 
Q 2478 3584 2822 3584 
Q 3428 3584 3742 3212 
Q 4056 2841 4056 2131 
z
" transform="scale(0.015625)"/>
      <path id="DejaVuSans-Bold-6d" d="M 3781 2919 
Q 3994 3244 4286 3414 
Q 4578 3584 4928 3584 
Q 5531 3584 5847 3212 
Q 6163 2841 6163 2131 
L 6163 0 
L 5038 0 
L 5038 1825 
Q 5041 1866 5042 1909 
Q 5044 1953 5044 2034 
Q 5044 2406 4934 2573 
Q 4825 2741 4581 2741 
Q 4263 2741 4089 2478 
Q 3916 2216 3909 1719 
L 3909 0 
L 2784 0 
L 2784 1825 
Q 2784 2406 2684 2573 
Q 2584 2741 2328 2741 
Q 2006 2741 1831 2477 
Q 1656 2213 1656 1722 
L 1656 0 
L 531 0 
L 531 3500 
L 1656 3500 
L 1656 2988 
Q 1863 3284 2130 3434 
Q 2397 3584 2719 3584 
Q 3081 3584 3359 3409 
Q 3638 3234 3781 2919 
z
" transform="scale(0.015625)"/>
     </defs>
     <use xlink:href="#DejaVuSans-Bold-56"/>
     <use xlink:href="#DejaVuSans-Bold-65" transform="translate(71.892578 0)"/>
     <use xlink:href="#DejaVuSans-Bold-6c" transform="translate(139.714844 0)"/>
     <use xlink:href="#DejaVuSans-Bold-6f" transform="translate(173.992188 0)"/>
     <use xlink:href="#DejaVuSans-Bold-63" transform="translate(242.693359 0)"/>
     <use xlink:href="#DejaVuSans-Bold-69" transform="translate(301.970703 0)"/>
     <use xlink:href="#DejaVuSans-Bold-74" transform="translate(336.248047 0)"/>
     <use xlink:href="#DejaVuSans-Bold-69" transform="translate(384.050781 0)"/>
     <use xlink:href="#DejaVuSans-Bold-65" transform="translate(418.328125 0)"/>
     <use xlink:href="#DejaVuSans-Bold-73" transform="translate(486.150391 0)"/>
     <use xlink:href="#DejaVuSans-Bold-20" transform="translate(545.671875 0)"/>
     <use xlink:href="#DejaVuSans-Bold-61" transform="translate(580.486328 0)"/>
     <use xlink:href="#DejaVuSans-Bold-74" transform="translate(647.966797 0)"/>
     <use xlink:href="#DejaVuSans-Bold-20" transform="translate(695.769531 0)"/>
     <use xlink:href="#DejaVuSans-Bold-74" transform="translate(730.583984 0)"/>
     <use xlink:href="#DejaVuSans-Bold-68" transform="translate(778.386719 0)"/>
     <use xlink:href="#DejaVuSans-Bold-65" transform="translate(849.578125 0)"/>
     <use xlink:href="#DejaVuSans-Bold-20" transform="translate(917.400391 0)"/>
     <use xlink:href="#DejaVuSans-Bold-66" transform="translate(952.214844 0)"/>
     <use xlink:href="#DejaVuSans-Bold-69" transform="translate(995.720703 0)"/>
     <use xlink:href="#DejaVuSans-Bold-6e" transform="translate(1029.998047 0)"/>
     <use xlink:href="#DejaVuSans-Bold-61" transform="translate(1101.189453 0)"/>
     <use xlink:href="#DejaVuSans-Bold-6c" transform="translate(1168.669922 0)"/>
     <use xlink:href="#DejaVuSans-Bold-20" transform="translate(1202.947266 0)"/>
     <use xlink:href="#DejaVuSans-Bold-74" transform="translate(1237.761719 0)"/>
     <use xlink:href="#DejaVuSans-Bold-69" transform="translate(1285.564453 0)"/>
     <use xlink:href="#DejaVuSans-Bold-6d" transform="translate(1319.841797 0)"/>
     <use xlink:href="#DejaVuSans-Bold-65" transform="translate(1424.041016 0)"/>
    </g>
   </g>
  </g>
 </g>
 <defs>
  <clipPath id="pb8e86b871e">
   <rect x="57.6" y="41.472" width="357.12" height="266.112"/>
  </clipPath>
 </defs>
</svg>
