<?xml version="1.0" encoding="utf-8" standalone="no"?>
<!DOCTYPE svg PUBLIC "-//W3C//DTD SVG 1.1//EN"
  "http://www.w3.org/Graphics/SVG/1.1/DTD/svg11.dtd">
<svg xmlns:xlink="http://www.w3.org/1999/xlink" width="460.8pt" height="345.6pt" viewBox="0 0 460.8 345.6" xmlns="http://www.w3.org/2000/svg" version="1.1">
 <metadata>
  <rdf:RDF xmlns:dc="http://purl.org/dc/elements/1.1/" xmlns:cc="http://creativecommons.org/ns#" xmlns:rdf="http://www.w3.org/1999/02/22-rdf-syntax-ns#">
   <cc:Work>
    <dc:type rdf:resource="http://purl.org/dc/dcmitype/StillImage"/>
    <dc:date>2025-05-05T23:14:17.433331</dc:date>
    <dc:format>image/svg+xml</dc:format>
    <dc:creator>
     <cc:Agent>
      <dc:title>Matplotlib v3.10.1, https://matplotlib.org/</dc:title>
     </cc:Agent>
    </dc:creator>
   </cc:Work>
  </rdf:RDF>
 </metadata>
 <defs>
  <style type="text/css">*{stroke-linejoin: round; stroke-linecap: butt}</style>
 </defs>
 <g id="figure_1">
  <g id="patch_1">
   <path d="M 0 345.6 
L 460.8 345.6 
L 460.8 0 
L 0 0 
z
" style="fill: #ffffff"/>
  </g>
  <g id="axes_1">
   <g id="patch_2">
    <path d="M 57.6 307.584 
L 414.72 307.584 
L 414.72 41.472 
L 57.6 41.472 
z
" style="fill: #ffffff"/>
   </g>
   <g id="matplotlib.axis_1">
    <g id="xtick_1">
     <g id="line2d_1">
      <defs>
       <path id="m4d66473e5b" d="M 0 0 
L 0 3.5 
" style="stroke: #000000; stroke-width: 0.8"/>
      </defs>
      <g>
       <use xlink:href="#m4d66473e5b" x="73.832727" y="307.584" style="stroke: #000000; stroke-width: 0.8"/>
      </g>
     </g>
     <g id="text_1">
      <!-- 0 -->
      <g transform="translate(70.015227 323.702125) scale(0.12 -0.12)">
       <defs>
        <path id="DejaVuSans-30" d="M 2034 4250 
Q 1547 4250 1301 3770 
Q 1056 3291 1056 2328 
Q 1056 1369 1301 889 
Q 1547 409 2034 409 
Q 2525 409 2770 889 
Q 3016 1369 3016 2328 
Q 3016 3291 2770 3770 
Q 2525 4250 2034 4250 
z
M 2034 4750 
Q 2819 4750 3233 4129 
Q 3647 3509 3647 2328 
Q 3647 1150 3233 529 
Q 2819 -91 2034 -91 
Q 1250 -91 836 529 
Q 422 1150 422 2328 
Q 422 3509 836 4129 
Q 1250 4750 2034 4750 
z
" transform="scale(0.015625)"/>
       </defs>
       <use xlink:href="#DejaVuSans-30"/>
      </g>
     </g>
    </g>
    <g id="xtick_2">
     <g id="line2d_2">
      <g>
       <use xlink:href="#m4d66473e5b" x="138.77013" y="307.584" style="stroke: #000000; stroke-width: 0.8"/>
      </g>
     </g>
     <g id="text_2">
      <!-- 2000 -->
      <g transform="translate(123.50013 323.702125) scale(0.12 -0.12)">
       <defs>
        <path id="DejaVuSans-32" d="M 1228 531 
L 3431 531 
L 3431 0 
L 469 0 
L 469 531 
Q 828 903 1448 1529 
Q 2069 2156 2228 2338 
Q 2531 2678 2651 2914 
Q 2772 3150 2772 3378 
Q 2772 3750 2511 3984 
Q 2250 4219 1831 4219 
Q 1534 4219 1204 4116 
Q 875 4013 500 3803 
L 500 4441 
Q 881 4594 1212 4672 
Q 1544 4750 1819 4750 
Q 2544 4750 2975 4387 
Q 3406 4025 3406 3419 
Q 3406 3131 3298 2873 
Q 3191 2616 2906 2266 
Q 2828 2175 2409 1742 
Q 1991 1309 1228 531 
z
" transform="scale(0.015625)"/>
       </defs>
       <use xlink:href="#DejaVuSans-32"/>
       <use xlink:href="#DejaVuSans-30" transform="translate(63.623047 0)"/>
       <use xlink:href="#DejaVuSans-30" transform="translate(127.246094 0)"/>
       <use xlink:href="#DejaVuSans-30" transform="translate(190.869141 0)"/>
      </g>
     </g>
    </g>
    <g id="xtick_3">
     <g id="line2d_3">
      <g>
       <use xlink:href="#m4d66473e5b" x="203.707533" y="307.584" style="stroke: #000000; stroke-width: 0.8"/>
      </g>
     </g>
     <g id="text_3">
      <!-- 4000 -->
      <g transform="translate(188.437533 323.702125) scale(0.12 -0.12)">
       <defs>
        <path id="DejaVuSans-34" d="M 2419 4116 
L 825 1625 
L 2419 1625 
L 2419 4116 
z
M 2253 4666 
L 3047 4666 
L 3047 1625 
L 3713 1625 
L 3713 1100 
L 3047 1100 
L 3047 0 
L 2419 0 
L 2419 1100 
L 313 1100 
L 313 1709 
L 2253 4666 
z
" transform="scale(0.015625)"/>
       </defs>
       <use xlink:href="#DejaVuSans-34"/>
       <use xlink:href="#DejaVuSans-30" transform="translate(63.623047 0)"/>
       <use xlink:href="#DejaVuSans-30" transform="translate(127.246094 0)"/>
       <use xlink:href="#DejaVuSans-30" transform="translate(190.869141 0)"/>
      </g>
     </g>
    </g>
    <g id="xtick_4">
     <g id="line2d_4">
      <g>
       <use xlink:href="#m4d66473e5b" x="268.644936" y="307.584" style="stroke: #000000; stroke-width: 0.8"/>
      </g>
     </g>
     <g id="text_4">
      <!-- 6000 -->
      <g transform="translate(253.374936 323.702125) scale(0.12 -0.12)">
       <defs>
        <path id="DejaVuSans-36" d="M 2113 2584 
Q 1688 2584 1439 2293 
Q 1191 2003 1191 1497 
Q 1191 994 1439 701 
Q 1688 409 2113 409 
Q 2538 409 2786 701 
Q 3034 994 3034 1497 
Q 3034 2003 2786 2293 
Q 2538 2584 2113 2584 
z
M 3366 4563 
L 3366 3988 
Q 3128 4100 2886 4159 
Q 2644 4219 2406 4219 
Q 1781 4219 1451 3797 
Q 1122 3375 1075 2522 
Q 1259 2794 1537 2939 
Q 1816 3084 2150 3084 
Q 2853 3084 3261 2657 
Q 3669 2231 3669 1497 
Q 3669 778 3244 343 
Q 2819 -91 2113 -91 
Q 1303 -91 875 529 
Q 447 1150 447 2328 
Q 447 3434 972 4092 
Q 1497 4750 2381 4750 
Q 2619 4750 2861 4703 
Q 3103 4656 3366 4563 
z
" transform="scale(0.015625)"/>
       </defs>
       <use xlink:href="#DejaVuSans-36"/>
       <use xlink:href="#DejaVuSans-30" transform="translate(63.623047 0)"/>
       <use xlink:href="#DejaVuSans-30" transform="translate(127.246094 0)"/>
       <use xlink:href="#DejaVuSans-30" transform="translate(190.869141 0)"/>
      </g>
     </g>
    </g>
    <g id="xtick_5">
     <g id="line2d_5">
      <g>
       <use xlink:href="#m4d66473e5b" x="333.582339" y="307.584" style="stroke: #000000; stroke-width: 0.8"/>
      </g>
     </g>
     <g id="text_5">
      <!-- 8000 -->
      <g transform="translate(318.312339 323.702125) scale(0.12 -0.12)">
       <defs>
        <path id="DejaVuSans-38" d="M 2034 2216 
Q 1584 2216 1326 1975 
Q 1069 1734 1069 1313 
Q 1069 891 1326 650 
Q 1584 409 2034 409 
Q 2484 409 2743 651 
Q 3003 894 3003 1313 
Q 3003 1734 2745 1975 
Q 2488 2216 2034 2216 
z
M 1403 2484 
Q 997 2584 770 2862 
Q 544 3141 544 3541 
Q 544 4100 942 4425 
Q 1341 4750 2034 4750 
Q 2731 4750 3128 4425 
Q 3525 4100 3525 3541 
Q 3525 3141 3298 2862 
Q 3072 2584 2669 2484 
Q 3125 2378 3379 2068 
Q 3634 1759 3634 1313 
Q 3634 634 3220 271 
Q 2806 -91 2034 -91 
Q 1263 -91 848 271 
Q 434 634 434 1313 
Q 434 1759 690 2068 
Q 947 2378 1403 2484 
z
M 1172 3481 
Q 1172 3119 1398 2916 
Q 1625 2713 2034 2713 
Q 2441 2713 2670 2916 
Q 2900 3119 2900 3481 
Q 2900 3844 2670 4047 
Q 2441 4250 2034 4250 
Q 1625 4250 1398 4047 
Q 1172 3844 1172 3481 
z
" transform="scale(0.015625)"/>
       </defs>
       <use xlink:href="#DejaVuSans-38"/>
       <use xlink:href="#DejaVuSans-30" transform="translate(63.623047 0)"/>
       <use xlink:href="#DejaVuSans-30" transform="translate(127.246094 0)"/>
       <use xlink:href="#DejaVuSans-30" transform="translate(190.869141 0)"/>
      </g>
     </g>
    </g>
    <g id="xtick_6">
     <g id="line2d_6">
      <g>
       <use xlink:href="#m4d66473e5b" x="398.519741" y="307.584" style="stroke: #000000; stroke-width: 0.8"/>
      </g>
     </g>
     <g id="text_6">
      <!-- 10000 -->
      <g transform="translate(379.432241 323.702125) scale(0.12 -0.12)">
       <defs>
        <path id="DejaVuSans-31" d="M 794 531 
L 1825 531 
L 1825 4091 
L 703 3866 
L 703 4441 
L 1819 4666 
L 2450 4666 
L 2450 531 
L 3481 531 
L 3481 0 
L 794 0 
L 794 531 
z
" transform="scale(0.015625)"/>
       </defs>
       <use xlink:href="#DejaVuSans-31"/>
       <use xlink:href="#DejaVuSans-30" transform="translate(63.623047 0)"/>
       <use xlink:href="#DejaVuSans-30" transform="translate(127.246094 0)"/>
       <use xlink:href="#DejaVuSans-30" transform="translate(190.869141 0)"/>
       <use xlink:href="#DejaVuSans-30" transform="translate(254.492188 0)"/>
      </g>
     </g>
    </g>
    <g id="text_7">
     <!-- timestep -->
     <g transform="translate(205.203594 340.835562) scale(0.14 -0.14)">
      <defs>
       <path id="DejaVuSans-74" d="M 1172 4494 
L 1172 3500 
L 2356 3500 
L 2356 3053 
L 1172 3053 
L 1172 1153 
Q 1172 725 1289 603 
Q 1406 481 1766 481 
L 2356 481 
L 2356 0 
L 1766 0 
Q 1100 0 847 248 
Q 594 497 594 1153 
L 594 3053 
L 172 3053 
L 172 3500 
L 594 3500 
L 594 4494 
L 1172 4494 
z
" transform="scale(0.015625)"/>
       <path id="DejaVuSans-69" d="M 603 3500 
L 1178 3500 
L 1178 0 
L 603 0 
L 603 3500 
z
M 603 4863 
L 1178 4863 
L 1178 4134 
L 603 4134 
L 603 4863 
z
" transform="scale(0.015625)"/>
       <path id="DejaVuSans-6d" d="M 3328 2828 
Q 3544 3216 3844 3400 
Q 4144 3584 4550 3584 
Q 5097 3584 5394 3201 
Q 5691 2819 5691 2113 
L 5691 0 
L 5113 0 
L 5113 2094 
Q 5113 2597 4934 2840 
Q 4756 3084 4391 3084 
Q 3944 3084 3684 2787 
Q 3425 2491 3425 1978 
L 3425 0 
L 2847 0 
L 2847 2094 
Q 2847 2600 2669 2842 
Q 2491 3084 2119 3084 
Q 1678 3084 1418 2786 
Q 1159 2488 1159 1978 
L 1159 0 
L 581 0 
L 581 3500 
L 1159 3500 
L 1159 2956 
Q 1356 3278 1631 3431 
Q 1906 3584 2284 3584 
Q 2666 3584 2933 3390 
Q 3200 3197 3328 2828 
z
" transform="scale(0.015625)"/>
       <path id="DejaVuSans-65" d="M 3597 1894 
L 3597 1613 
L 953 1613 
Q 991 1019 1311 708 
Q 1631 397 2203 397 
Q 2534 397 2845 478 
Q 3156 559 3463 722 
L 3463 178 
Q 3153 47 2828 -22 
Q 2503 -91 2169 -91 
Q 1331 -91 842 396 
Q 353 884 353 1716 
Q 353 2575 817 3079 
Q 1281 3584 2069 3584 
Q 2775 3584 3186 3129 
Q 3597 2675 3597 1894 
z
M 3022 2063 
Q 3016 2534 2758 2815 
Q 2500 3097 2075 3097 
Q 1594 3097 1305 2825 
Q 1016 2553 972 2059 
L 3022 2063 
z
" transform="scale(0.015625)"/>
       <path id="DejaVuSans-73" d="M 2834 3397 
L 2834 2853 
Q 2591 2978 2328 3040 
Q 2066 3103 1784 3103 
Q 1356 3103 1142 2972 
Q 928 2841 928 2578 
Q 928 2378 1081 2264 
Q 1234 2150 1697 2047 
L 1894 2003 
Q 2506 1872 2764 1633 
Q 3022 1394 3022 966 
Q 3022 478 2636 193 
Q 2250 -91 1575 -91 
Q 1294 -91 989 -36 
Q 684 19 347 128 
L 347 722 
Q 666 556 975 473 
Q 1284 391 1588 391 
Q 1994 391 2212 530 
Q 2431 669 2431 922 
Q 2431 1156 2273 1281 
Q 2116 1406 1581 1522 
L 1381 1569 
Q 847 1681 609 1914 
Q 372 2147 372 2553 
Q 372 3047 722 3315 
Q 1072 3584 1716 3584 
Q 2034 3584 2315 3537 
Q 2597 3491 2834 3397 
z
" transform="scale(0.015625)"/>
       <path id="DejaVuSans-70" d="M 1159 525 
L 1159 -1331 
L 581 -1331 
L 581 3500 
L 1159 3500 
L 1159 2969 
Q 1341 3281 1617 3432 
Q 1894 3584 2278 3584 
Q 2916 3584 3314 3078 
Q 3713 2572 3713 1747 
Q 3713 922 3314 415 
Q 2916 -91 2278 -91 
Q 1894 -91 1617 61 
Q 1341 213 1159 525 
z
M 3116 1747 
Q 3116 2381 2855 2742 
Q 2594 3103 2138 3103 
Q 1681 3103 1420 2742 
Q 1159 2381 1159 1747 
Q 1159 1113 1420 752 
Q 1681 391 2138 391 
Q 2594 391 2855 752 
Q 3116 1113 3116 1747 
z
" transform="scale(0.015625)"/>
      </defs>
      <use xlink:href="#DejaVuSans-74"/>
      <use xlink:href="#DejaVuSans-69" transform="translate(39.208984 0)"/>
      <use xlink:href="#DejaVuSans-6d" transform="translate(66.992188 0)"/>
      <use xlink:href="#DejaVuSans-65" transform="translate(164.404297 0)"/>
      <use xlink:href="#DejaVuSans-73" transform="translate(225.927734 0)"/>
      <use xlink:href="#DejaVuSans-74" transform="translate(278.027344 0)"/>
      <use xlink:href="#DejaVuSans-65" transform="translate(317.236328 0)"/>
      <use xlink:href="#DejaVuSans-70" transform="translate(378.759766 0)"/>
     </g>
    </g>
   </g>
   <g id="matplotlib.axis_2">
    <g id="ytick_1">
     <g id="line2d_7">
      <defs>
       <path id="m9fcead03e3" d="M 0 0 
L -3.5 0 
" style="stroke: #000000; stroke-width: 0.8"/>
      </defs>
      <g>
       <use xlink:href="#m9fcead03e3" x="57.6" y="295.507822" style="stroke: #000000; stroke-width: 0.8"/>
      </g>
     </g>
     <g id="text_8">
      <!-- 0.0 -->
      <g transform="translate(31.51625 300.066884) scale(0.12 -0.12)">
       <defs>
        <path id="DejaVuSans-2e" d="M 684 794 
L 1344 794 
L 1344 0 
L 684 0 
L 684 794 
z
" transform="scale(0.015625)"/>
       </defs>
       <use xlink:href="#DejaVuSans-30"/>
       <use xlink:href="#DejaVuSans-2e" transform="translate(63.623047 0)"/>
       <use xlink:href="#DejaVuSans-30" transform="translate(95.410156 0)"/>
      </g>
     </g>
    </g>
    <g id="ytick_2">
     <g id="line2d_8">
      <g>
       <use xlink:href="#m9fcead03e3" x="57.6" y="246.837941" style="stroke: #000000; stroke-width: 0.8"/>
      </g>
     </g>
     <g id="text_9">
      <!-- 0.2 -->
      <g transform="translate(31.51625 251.397003) scale(0.12 -0.12)">
       <use xlink:href="#DejaVuSans-30"/>
       <use xlink:href="#DejaVuSans-2e" transform="translate(63.623047 0)"/>
       <use xlink:href="#DejaVuSans-32" transform="translate(95.410156 0)"/>
      </g>
     </g>
    </g>
    <g id="ytick_3">
     <g id="line2d_9">
      <g>
       <use xlink:href="#m9fcead03e3" x="57.6" y="198.16806" style="stroke: #000000; stroke-width: 0.8"/>
      </g>
     </g>
     <g id="text_10">
      <!-- 0.4 -->
      <g transform="translate(31.51625 202.727122) scale(0.12 -0.12)">
       <use xlink:href="#DejaVuSans-30"/>
       <use xlink:href="#DejaVuSans-2e" transform="translate(63.623047 0)"/>
       <use xlink:href="#DejaVuSans-34" transform="translate(95.410156 0)"/>
      </g>
     </g>
    </g>
    <g id="ytick_4">
     <g id="line2d_10">
      <g>
       <use xlink:href="#m9fcead03e3" x="57.6" y="149.498179" style="stroke: #000000; stroke-width: 0.8"/>
      </g>
     </g>
     <g id="text_11">
      <!-- 0.6 -->
      <g transform="translate(31.51625 154.057241) scale(0.12 -0.12)">
       <use xlink:href="#DejaVuSans-30"/>
       <use xlink:href="#DejaVuSans-2e" transform="translate(63.623047 0)"/>
       <use xlink:href="#DejaVuSans-36" transform="translate(95.410156 0)"/>
      </g>
     </g>
    </g>
    <g id="ytick_5">
     <g id="line2d_11">
      <g>
       <use xlink:href="#m9fcead03e3" x="57.6" y="100.828298" style="stroke: #000000; stroke-width: 0.8"/>
      </g>
     </g>
     <g id="text_12">
      <!-- 0.8 -->
      <g transform="translate(31.51625 105.38736) scale(0.12 -0.12)">
       <use xlink:href="#DejaVuSans-30"/>
       <use xlink:href="#DejaVuSans-2e" transform="translate(63.623047 0)"/>
       <use xlink:href="#DejaVuSans-38" transform="translate(95.410156 0)"/>
      </g>
     </g>
    </g>
    <g id="ytick_6">
     <g id="line2d_12">
      <g>
       <use xlink:href="#m9fcead03e3" x="57.6" y="52.158417" style="stroke: #000000; stroke-width: 0.8"/>
      </g>
     </g>
     <g id="text_13">
      <!-- 1.0 -->
      <g transform="translate(31.51625 56.717479) scale(0.12 -0.12)">
       <use xlink:href="#DejaVuSans-31"/>
       <use xlink:href="#DejaVuSans-2e" transform="translate(63.623047 0)"/>
       <use xlink:href="#DejaVuSans-30" transform="translate(95.410156 0)"/>
      </g>
     </g>
    </g>
    <g id="text_14">
     <!-- quantity -->
     <g transform="translate(24.604688 203.710344) rotate(-90) scale(0.14 -0.14)">
      <defs>
       <path id="DejaVuSans-71" d="M 947 1747 
Q 947 1113 1208 752 
Q 1469 391 1925 391 
Q 2381 391 2643 752 
Q 2906 1113 2906 1747 
Q 2906 2381 2643 2742 
Q 2381 3103 1925 3103 
Q 1469 3103 1208 2742 
Q 947 2381 947 1747 
z
M 2906 525 
Q 2725 213 2448 61 
Q 2172 -91 1784 -91 
Q 1150 -91 751 415 
Q 353 922 353 1747 
Q 353 2572 751 3078 
Q 1150 3584 1784 3584 
Q 2172 3584 2448 3432 
Q 2725 3281 2906 2969 
L 2906 3500 
L 3481 3500 
L 3481 -1331 
L 2906 -1331 
L 2906 525 
z
" transform="scale(0.015625)"/>
       <path id="DejaVuSans-75" d="M 544 1381 
L 544 3500 
L 1119 3500 
L 1119 1403 
Q 1119 906 1312 657 
Q 1506 409 1894 409 
Q 2359 409 2629 706 
Q 2900 1003 2900 1516 
L 2900 3500 
L 3475 3500 
L 3475 0 
L 2900 0 
L 2900 538 
Q 2691 219 2414 64 
Q 2138 -91 1772 -91 
Q 1169 -91 856 284 
Q 544 659 544 1381 
z
M 1991 3584 
L 1991 3584 
z
" transform="scale(0.015625)"/>
       <path id="DejaVuSans-61" d="M 2194 1759 
Q 1497 1759 1228 1600 
Q 959 1441 959 1056 
Q 959 750 1161 570 
Q 1363 391 1709 391 
Q 2188 391 2477 730 
Q 2766 1069 2766 1631 
L 2766 1759 
L 2194 1759 
z
M 3341 1997 
L 3341 0 
L 2766 0 
L 2766 531 
Q 2569 213 2275 61 
Q 1981 -91 1556 -91 
Q 1019 -91 701 211 
Q 384 513 384 1019 
Q 384 1609 779 1909 
Q 1175 2209 1959 2209 
L 2766 2209 
L 2766 2266 
Q 2766 2663 2505 2880 
Q 2244 3097 1772 3097 
Q 1472 3097 1187 3025 
Q 903 2953 641 2809 
L 641 3341 
Q 956 3463 1253 3523 
Q 1550 3584 1831 3584 
Q 2591 3584 2966 3190 
Q 3341 2797 3341 1997 
z
" transform="scale(0.015625)"/>
       <path id="DejaVuSans-6e" d="M 3513 2113 
L 3513 0 
L 2938 0 
L 2938 2094 
Q 2938 2591 2744 2837 
Q 2550 3084 2163 3084 
Q 1697 3084 1428 2787 
Q 1159 2491 1159 1978 
L 1159 0 
L 581 0 
L 581 3500 
L 1159 3500 
L 1159 2956 
Q 1366 3272 1645 3428 
Q 1925 3584 2291 3584 
Q 2894 3584 3203 3211 
Q 3513 2838 3513 2113 
z
" transform="scale(0.015625)"/>
       <path id="DejaVuSans-79" d="M 2059 -325 
Q 1816 -950 1584 -1140 
Q 1353 -1331 966 -1331 
L 506 -1331 
L 506 -850 
L 844 -850 
Q 1081 -850 1212 -737 
Q 1344 -625 1503 -206 
L 1606 56 
L 191 3500 
L 800 3500 
L 1894 763 
L 2988 3500 
L 3597 3500 
L 2059 -325 
z
" transform="scale(0.015625)"/>
      </defs>
      <use xlink:href="#DejaVuSans-71"/>
      <use xlink:href="#DejaVuSans-75" transform="translate(63.476562 0)"/>
      <use xlink:href="#DejaVuSans-61" transform="translate(126.855469 0)"/>
      <use xlink:href="#DejaVuSans-6e" transform="translate(188.134766 0)"/>
      <use xlink:href="#DejaVuSans-74" transform="translate(251.513672 0)"/>
      <use xlink:href="#DejaVuSans-69" transform="translate(290.722656 0)"/>
      <use xlink:href="#DejaVuSans-74" transform="translate(318.505859 0)"/>
      <use xlink:href="#DejaVuSans-79" transform="translate(357.714844 0)"/>
     </g>
    </g>
   </g>
   <g id="line2d_13">
    <path d="M 73.832727 288.200725 
L 74.060008 286.503158 
L 74.157414 286.470043 
L 74.319758 286.873798 
L 74.51457 287.346319 
L 74.676914 287.271937 
L 74.77432 286.73671 
L 74.936663 284.456186 
L 75.5211 273.567899 
L 76.495161 259.285147 
L 76.722442 257.758748 
L 77.306878 253.392435 
L 77.599097 247.694356 
L 77.891315 244.329609 
L 78.02119 244.035271 
L 78.053658 244.05624 
L 78.183533 244.554993 
L 78.76797 247.471803 
L 78.800439 247.452943 
L 78.897845 247.011532 
L 79.222532 243.246374 
L 80.229061 228.936043 
L 80.586217 228.815953 
L 80.813498 226.784943 
L 81.170654 223.59966 
L 81.235591 223.554467 
L 81.26806 223.647725 
L 81.462872 223.903862 
L 81.560278 223.687182 
L 81.917434 222.367382 
L 81.949903 222.454021 
L 82.01484 222.811024 
L 82.079777 222.747471 
L 82.209652 222.469301 
L 82.242121 222.580381 
L 82.469402 224.737285 
L 82.826558 227.883366 
L 82.859026 227.925071 
L 82.923964 227.831458 
L 82.956432 227.796328 
L 83.183713 230.821066 
L 83.443463 233.765318 
L 83.800619 234.89915 
L 83.865556 234.94427 
L 84.320118 236.824462 
L 84.482461 237.561071 
L 84.51493 237.551986 
L 84.612336 237.360902 
L 84.644805 237.388795 
L 84.742211 238.046119 
L 85.164304 241.787533 
L 85.294179 242.633196 
L 85.52146 245.141445 
L 86.040959 252.625807 
L 86.235771 252.95691 
L 86.463052 252.824625 
L 87.01502 250.929094 
L 87.27477 250.560401 
L 87.502051 249.580367 
L 87.794269 246.978551 
L 88.151425 243.846601 
L 88.281299 243.281493 
L 88.50858 240.40367 
L 89.125486 231.184528 
L 89.190423 231.112559 
L 89.222892 231.166402 
L 89.580047 232.194838 
L 90.229421 237.637775 
L 90.911264 245.983511 
L 91.171014 249.601965 
L 91.235951 249.752191 
L 91.26842 249.682498 
L 91.658044 247.261891 
L 92.372356 240.941643 
L 92.632105 238.598719 
L 93.281479 232.487832 
L 93.573698 231.052479 
L 93.606166 231.080767 
L 93.800979 231.075443 
L 93.963322 230.274818 
L 94.482821 227.434474 
L 94.710102 226.687396 
L 94.742571 226.72023 
L 94.872446 226.680194 
L 95.294539 225.515536 
L 95.327008 225.638932 
L 95.424414 225.79291 
L 95.489351 225.722862 
L 95.943913 224.340569 
L 96.333537 222.287327 
L 96.430943 222.296011 
L 96.560818 222.729938 
L 96.75563 225.214552 
L 97.664754 238.757294 
L 97.924504 240.647978 
L 97.989441 240.812341 
L 98.054379 240.759753 
L 98.249191 240.646078 
L 98.281659 240.716003 
L 98.573878 241.786531 
L 98.866096 242.982736 
L 99.02844 243.953044 
L 99.25572 245.093865 
L 99.385595 244.905074 
L 99.450533 245.045302 
L 99.937563 244.517022 
L 100.229782 243.372059 
L 100.489531 241.955192 
L 100.554469 241.902306 
L 100.586937 241.947624 
L 100.684343 242.821746 
L 101.236311 248.215821 
L 101.658404 249.543352 
L 101.950623 249.082254 
L 102.405185 247.570399 
L 102.470122 247.645542 
L 102.632465 248.562641 
L 103.314308 256.191346 
L 103.444183 256.110147 
L 103.574058 255.077878 
L 104.126026 249.480854 
L 104.548119 248.050155 
L 104.580588 247.991684 
L 104.613056 248.062687 
L 104.742931 248.332133 
L 104.7754 248.317227 
L 104.970212 247.801672 
L 105.327368 245.852055 
L 105.619586 243.321935 
L 105.879336 241.842433 
L 106.236491 241.046428 
L 106.755991 236.955383 
L 107.01574 233.920037 
L 107.437833 224.015597 
L 107.794989 216.766211 
L 108.119676 213.15025 
L 108.346957 212.515443 
L 108.444363 212.692641 
L 108.574238 213.799793 
L 109.645705 225.732078 
L 109.970392 228.131632 
L 110.327548 231.930804 
L 110.424954 232.043404 
L 110.457422 232.006504 
L 110.976922 229.952028 
L 111.139265 229.204488 
L 111.171734 229.316175 
L 111.593827 231.32451 
L 111.788639 232.704021 
L 111.983451 235.880192 
L 112.502951 250.541648 
L 112.957512 263.125282 
L 113.314668 268.389149 
L 113.606887 269.440512 
L 113.639355 269.412992 
L 113.834167 269.000481 
L 113.866636 268.868112 
L 113.931574 268.919337 
L 114.02898 269.061733 
L 114.093917 269.260912 
L 114.126386 269.180745 
L 114.256261 268.441633 
L 115.327728 256.545999 
L 116.951163 235.335181 
L 117.081038 234.86843 
L 117.27585 234.32225 
L 117.600537 233.934184 
L 117.730412 233.845606 
L 117.827818 233.524468 
L 118.087567 231.839607 
L 118.120036 231.922188 
L 118.249911 232.927487 
L 118.50966 234.824302 
L 118.607067 234.526039 
L 119.094097 232.627421 
L 119.126566 232.670991 
L 119.288909 233.674377 
L 120.814938 245.6241 
L 120.977282 245.705448 
L 121.237031 245.455403 
L 121.464312 244.918591 
L 121.561718 245.202975 
L 121.724062 246.715006 
L 121.983811 248.067031 
L 122.048749 248.018859 
L 122.113686 247.868698 
L 122.146155 248.017683 
L 122.243561 248.619168 
L 122.633186 250.892759 
L 123.02281 252.057609 
L 123.087747 252.023795 
L 123.28256 251.297275 
L 123.477372 250.75449 
L 123.542309 250.803669 
L 123.639715 250.876446 
L 123.931934 251.705468 
L 124.02934 251.481767 
L 124.224152 250.729513 
L 124.256621 250.836895 
L 124.418964 251.910768 
L 124.711182 255.875217 
L 125.068338 260.710262 
L 125.360556 261.934094 
L 125.587837 262.582452 
L 125.652775 262.461066 
L 125.815118 261.608174 
L 126.107337 259.446999 
L 126.334617 259.630161 
L 126.367086 259.545194 
L 126.561898 258.385588 
L 127.27621 252.355815 
L 127.633366 251.561578 
L 127.828178 248.425122 
L 128.412614 238.820866 
L 129.061988 232.477582 
L 129.191863 232.213096 
L 129.224332 232.223613 
L 129.386675 233.124818 
L 129.549019 233.941014 
L 129.581488 233.934372 
L 129.613956 233.974176 
L 129.646425 233.912861 
L 129.7763 233.655658 
L 129.808769 233.700099 
L 130.26333 234.163212 
L 130.458143 234.296567 
L 130.620486 234.58209 
L 130.750361 235.354493 
L 130.977642 238.863216 
L 131.334797 245.057793 
L 131.951703 251.400363 
L 132.211452 252.511834 
L 132.243921 252.49349 
L 132.536139 251.602348 
L 132.568608 251.643353 
L 132.698483 252.226692 
L 134.127106 261.910337 
L 134.354387 263.596207 
L 134.419324 263.635586 
L 134.451793 263.607869 
L 134.77648 263.206018 
L 134.906355 262.448027 
L 135.26351 257.710536 
L 135.78301 250.240432 
L 135.847947 249.932875 
L 135.912884 250.053594 
L 136.107697 250.521592 
L 136.172634 250.410086 
L 136.464852 248.792851 
L 136.497321 248.990872 
L 136.854477 250.490112 
L 136.886945 250.436249 
L 137.049289 249.435594 
L 137.309039 248.094576 
L 137.406445 248.160133 
L 137.601257 248.423418 
L 137.633726 248.359968 
L 137.925944 247.810084 
L 138.055819 247.528099 
L 138.088287 247.581753 
L 138.250631 248.342337 
L 138.640255 250.596127 
L 138.672724 250.53539 
L 139.02988 249.780468 
L 139.062348 249.833217 
L 139.159755 250.188564 
L 139.744191 252.934443 
L 139.841597 253.079374 
L 139.906535 253.001927 
L 140.036409 252.217524 
L 140.231222 251.501435 
L 140.328628 251.43395 
L 140.52344 251.086536 
L 140.588377 251.16769 
L 140.685783 251.308505 
L 140.718252 251.284531 
L 140.848127 250.930809 
L 141.172814 248.52415 
L 141.400095 247.140141 
L 141.594907 246.806523 
L 141.692313 246.363919 
L 141.757251 246.535008 
L 141.887125 246.865681 
L 141.919594 246.85066 
L 142.081938 246.509904 
L 142.114406 246.53329 
L 142.536499 247.302562 
L 142.731312 246.863881 
L 143.120936 244.802344 
L 143.737841 236.43659 
L 144.192403 230.379941 
L 144.549559 226.960002 
L 144.809309 226.108442 
L 144.874246 226.421103 
L 145.036589 226.515282 
L 145.133996 226.229415 
L 145.296339 224.75823 
L 145.588557 222.676554 
L 145.750901 222.434974 
L 145.815838 222.38085 
L 145.848307 222.461782 
L 146.108057 223.152513 
L 146.465212 225.187368 
L 146.595087 225.63967 
L 147.341867 231.005575 
L 147.601617 232.669817 
L 147.666554 232.696277 
L 147.699023 232.630591 
L 147.828898 232.101013 
L 147.893835 232.227245 
L 148.121116 233.506411 
L 148.673084 237.354068 
L 148.802959 237.536912 
L 148.835428 237.520807 
L 148.932834 237.52978 
L 148.997771 237.6308 
L 149.062708 237.570094 
L 149.225052 237.557676 
L 149.354927 238.045076 
L 149.647145 239.577734 
L 149.712082 239.44836 
L 149.841957 238.451784 
L 150.199113 235.023295 
L 150.361457 234.459209 
L 150.426394 234.508457 
L 150.621206 235.175102 
L 150.848487 236.091255 
L 150.913424 235.933499 
L 151.010831 235.796986 
L 151.108237 236.097121 
L 151.140705 236.064973 
L 151.205643 236.021734 
L 151.238111 236.051608 
L 151.303049 236.245248 
L 151.562798 239.383173 
L 151.887485 243.92494 
L 152.147235 247.283611 
L 152.471922 249.827339 
L 152.829078 251.577943 
L 152.926484 251.849379 
L 153.478452 256.657637 
L 154.160295 263.619731 
L 154.420044 264.736348 
L 154.484982 264.6741 
L 154.679794 263.3015 
L 155.394105 257.343134 
L 155.621386 256.304558 
L 155.946073 252.87612 
L 156.53051 241.844752 
L 156.985072 233.30619 
L 157.27729 230.936408 
L 158.121476 222.91274 
L 158.511101 221.851765 
L 158.900725 219.906301 
L 158.965662 220.153506 
L 159.160475 221.691303 
L 159.647505 226.586083 
L 159.809849 227.229929 
L 159.842317 227.211121 
L 159.972192 226.814863 
L 160.069598 226.380872 
L 160.134536 226.407772 
L 160.199473 226.662491 
L 160.491691 229.286164 
L 160.751441 230.883958 
L 160.848847 230.669061 
L 161.076128 230.215128 
L 161.108597 230.180947 
L 161.335878 230.833701 
L 161.628096 230.876747 
L 161.855377 230.540512 
L 161.887846 230.636784 
L 162.082658 230.912052 
L 162.309939 231.687393 
L 162.342407 231.656251 
L 162.504751 231.444856 
L 162.53722 231.519553 
L 162.634626 231.838942 
L 163.186594 234.608971 
L 163.284 234.512334 
L 163.446343 233.34248 
L 163.933374 229.808071 
L 164.03078 229.955599 
L 164.160655 230.269882 
L 164.745091 232.686395 
L 164.842497 232.977474 
L 165.03731 235.117542 
L 165.491871 239.838712 
L 165.719152 240.605759 
L 165.946433 240.646543 
L 166.076308 240.479148 
L 166.303589 239.320588 
L 166.368526 239.45836 
L 166.53087 240.696766 
L 167.115306 245.39311 
L 167.375056 246.251262 
L 167.439993 246.181919 
L 167.602337 245.789522 
L 167.634806 245.93489 
L 167.829618 247.547001 
L 167.991961 248.474835 
L 168.02443 248.461646 
L 168.121836 248.080926 
L 168.511461 245.923221 
L 169.03096 244.314056 
L 169.323178 243.311386 
L 169.51799 242.582892 
L 169.810209 241.605476 
L 169.972552 241.999428 
L 170.167364 242.83715 
L 170.329708 243.297553 
L 170.362177 243.286294 
L 170.52452 242.310106 
L 170.914145 237.669577 
L 171.368706 232.507972 
L 171.790799 231.149824 
L 171.985612 230.663592 
L 172.01808 230.695726 
L 172.180424 231.300049 
L 172.602517 234.156603 
L 172.732392 233.862528 
L 172.797329 234.015405 
L 173.219422 237.192491 
L 173.706453 241.262346 
L 174.193483 243.446503 
L 174.290889 244.001141 
L 174.712983 247.479081 
L 174.810389 247.534954 
L 175.03767 247.615626 
L 175.167544 247.272458 
L 175.427294 246.777079 
L 175.557169 246.76911 
L 175.654575 246.723068 
L 175.946793 245.546213 
L 176.368886 242.768276 
L 176.433824 242.850204 
L 176.53123 242.883976 
L 176.661105 242.634506 
L 176.693573 242.698328 
L 176.855917 243.038877 
L 176.888386 243.027159 
L 177.01826 242.862976 
L 177.310479 242.322377 
L 177.375416 242.306018 
L 177.570228 243.524983 
L 177.894915 247.371854 
L 178.317008 251.23993 
L 178.576758 252.206456 
L 178.706633 252.920494 
L 179.063789 255.544399 
L 179.323538 257.329881 
L 179.7781 260.657922 
L 180.03785 262.252202 
L 180.070318 262.244368 
L 180.167724 262.267009 
L 180.297599 262.854315 
L 180.52488 265.453239 
L 180.817098 268.085475 
L 181.044379 268.769841 
L 181.239192 268.321881 
L 181.304129 268.462639 
L 181.498941 268.825563 
L 181.693753 268.48357 
L 181.823628 267.911042 
L 182.01844 265.398773 
L 183.057439 247.670856 
L 183.122376 247.483825 
L 183.187314 247.545918 
L 183.28472 247.515628 
L 183.382126 247.848726 
L 183.804219 250.277478 
L 183.869156 250.087322 
L 184.161375 249.010231 
L 184.193843 249.080817 
L 184.486062 250.06104 
L 184.51853 249.99325 
L 184.713343 249.166309 
L 184.77828 249.366407 
L 184.908155 249.589633 
L 184.940624 249.533977 
L 185.135436 248.963971 
L 185.167904 249.053593 
L 185.492591 250.834072 
L 185.719872 251.697573 
L 185.78481 251.746869 
L 185.817278 251.718768 
L 186.109497 251.144945 
L 186.141965 251.165138 
L 186.401715 254.070658 
L 187.116027 263.5124 
L 187.148495 263.408872 
L 187.310839 262.019203 
L 188.122556 253.37914 
L 188.349837 252.311138 
L 188.382306 252.265108 
L 188.414775 252.294088 
L 188.77193 253.379427 
L 189.129086 255.576234 
L 189.745991 259.906737 
L 190.005741 260.498784 
L 190.135616 260.385831 
L 190.168084 260.435308 
L 190.297959 261.020006 
L 190.720052 263.62365 
L 191.044739 262.616086 
L 191.207083 262.332021 
L 191.304489 262.491259 
L 191.466833 263.509133 
L 192.083738 267.823311 
L 192.213613 267.917093 
L 192.765581 266.106983 
L 193.122736 263.342878 
L 193.220142 263.3961 
L 193.317548 263.833619 
L 193.609767 266.604911 
L 194.096797 272.06695 
L 194.194203 272.426864 
L 194.226672 272.392686 
L 194.453953 271.213487 
L 195.03839 266.998008 
L 195.363077 265.829365 
L 195.687764 264.786903 
L 195.882576 264.925581 
L 196.044919 264.730247 
L 196.53195 262.821851 
L 196.824168 261.233294 
L 196.889106 261.401878 
L 197.051449 262.292773 
L 197.506011 267.186672 
L 197.895635 270.275859 
L 197.928104 270.251488 
L 198.02551 269.989255 
L 198.480072 266.9423 
L 198.902165 263.893705 
L 199.356727 262.203263 
L 199.551539 260.288583 
L 199.941164 256.230197 
L 200.78535 252.2726 
L 200.817819 252.255206 
L 200.850287 252.326334 
L 201.27238 254.087809 
L 201.467193 255.716546 
L 201.856817 261.794367 
L 202.441254 270.67986 
L 202.798409 274.119407 
L 203.058159 274.657751 
L 203.090628 274.640798 
L 203.317909 274.161248 
L 203.707533 273.534138 
L 203.740002 273.550924 
L 203.837408 273.647275 
L 204.324438 274.45829 
L 204.454313 274.626821 
L 204.584188 274.999466 
L 204.811469 275.86469 
L 205.006281 276.516803 
L 205.330968 277.881941 
L 205.363437 277.864831 
L 205.460843 277.720162 
L 205.688124 277.180194 
L 205.753061 277.253394 
L 205.882936 277.377785 
L 205.915405 277.341919 
L 206.045279 276.776709 
L 206.727122 270.604547 
L 206.986872 269.005952 
L 207.084278 268.809442 
L 207.149215 268.927737 
L 207.408965 269.397943 
L 207.473902 269.274988 
L 208.090808 266.657497 
L 208.188214 266.763748 
L 208.415495 267.035168 
L 208.447963 266.996193 
L 208.577838 266.644851 
L 208.675244 266.448346 
L 208.707713 266.499973 
L 208.77265 266.65438 
L 208.999931 268.602423 
L 209.324618 270.538723 
L 209.486962 270.690382 
L 209.909055 270.28181 
L 210.03893 270.127512 
L 210.331148 268.966503 
L 210.655835 266.403201 
L 211.110397 263.167277 
L 211.467553 263.070546 
L 211.597427 262.926159 
L 211.629896 262.94917 
L 211.727302 263.203346 
L 211.889646 264.393573 
L 212.668895 271.998293 
L 213.220862 275.711657 
L 213.545549 276.535429 
L 213.642956 276.584487 
L 213.740362 276.884794 
L 214.227392 279.396557 
L 214.519611 280.024967 
L 214.617017 279.793606 
L 214.844298 278.771541 
L 215.52614 274.985853 
L 215.753421 274.214299 
L 216.013171 272.659124 
L 216.370326 268.761663 
L 216.727482 265.665076 
L 216.922294 265.166642 
L 217.052169 265.003581 
L 217.701543 263.593641 
L 217.928824 263.70661 
L 217.961293 263.632614 
L 218.091168 263.459383 
L 218.123636 263.477249 
L 218.253511 263.484808 
L 218.578198 262.823887 
L 218.610667 262.84602 
L 218.675604 263.010197 
L 219.000291 267.070864 
L 219.77954 276.552155 
L 220.169165 279.579441 
L 220.201633 279.525861 
L 220.331508 278.691136 
L 221.045819 271.815004 
L 221.402975 270.909722 
L 221.467913 270.985877 
L 221.695194 271.453149 
L 221.727662 271.429946 
L 221.825068 271.418498 
L 221.954943 271.851515 
L 222.214693 272.602596 
L 222.27963 272.611066 
L 222.636786 271.603847 
L 222.734192 271.609609 
L 222.864067 272.029754 
L 223.28616 273.465855 
L 223.480972 273.730408 
L 223.513441 273.700708 
L 223.740722 273.118407 
L 224.682314 269.233716 
L 225.364157 265.641313 
L 225.494032 265.585649 
L 225.623906 265.878781 
L 225.851187 266.248924 
L 225.916125 266.258858 
L 225.948593 266.212804 
L 226.27328 265.03357 
L 226.53303 262.716743 
L 227.27981 254.17606 
L 227.53956 253.51219 
L 227.799309 253.235033 
L 227.831778 253.294365 
L 227.994122 253.857694 
L 228.351277 255.393765 
L 228.77337 257.32659 
L 229.195464 260.025883 
L 229.29287 260.240733 
L 229.617557 260.755839 
L 229.714963 260.673154 
L 229.909775 259.779153 
L 230.169525 258.753963 
L 230.461743 258.353141 
L 230.591618 258.496236 
L 230.721493 258.474637 
L 230.981242 258.784904 
L 231.403335 261.454186 
L 232.085178 265.324951 
L 232.182584 266.020759 
L 232.669615 269.568578 
L 232.994302 270.862476 
L 233.838488 273.714553 
L 234.065769 273.887421 
L 234.228112 273.890453 
L 235.202173 278.227007 
L 235.332048 278.599636 
L 235.396986 278.520991 
L 235.591798 277.631644 
L 235.689204 277.83774 
L 236.338578 280.448776 
L 236.371047 280.418524 
L 236.565859 280.163482 
L 236.598327 280.20346 
L 237.150295 281.130067 
L 237.474982 281.292864 
L 237.604857 280.878467 
L 237.832138 279.724897 
L 238.643856 275.171216 
L 238.806199 275.177195 
L 238.936074 275.193091 
L 239.260761 274.536847 
L 239.845198 272.262884 
L 240.851727 268.585247 
L 241.04654 268.195584 
L 241.143946 268.051034 
L 241.338758 267.009556 
L 242.215413 261.037905 
L 242.28035 261.115903 
L 242.507631 261.545193 
L 242.994662 263.771035 
L 243.449223 265.999984 
L 243.676504 267.077273 
L 243.871317 268.441133 
L 244.131066 269.615792 
L 244.715503 268.311626 
L 244.812909 268.427673 
L 245.105127 268.48782 
L 245.235002 268.324236 
L 245.722033 266.672327 
L 245.754501 266.695948 
L 245.916845 267.085168 
L 246.53375 269.204458 
L 247.248062 274.013146 
L 247.637686 276.03986 
L 247.735092 276.014603 
L 247.994842 275.540845 
L 248.059779 275.627037 
L 248.222123 276.166162 
L 248.54681 277.452796 
L 248.77409 276.899675 
L 249.326058 274.503667 
L 249.585808 271.886062 
L 250.462463 262.184118 
L 250.689744 261.473202 
L 250.884556 261.476848 
L 251.274181 261.885444 
L 251.436524 262.231662 
L 251.826148 263.107971 
L 251.891086 263.056551 
L 252.053429 263.327164 
L 252.313179 263.143418 
L 252.443054 262.851674 
L 252.767741 262.07239 
L 252.995022 261.758913 
L 253.514521 260.430542 
L 253.579458 260.598213 
L 253.806739 261.994892 
L 254.488582 268.059317 
L 255.267831 275.537307 
L 255.689924 276.359683 
L 255.982142 276.566246 
L 256.176954 277.025467 
L 256.663985 278.239452 
L 258.02767 280.648004 
L 258.28742 279.64546 
L 258.54717 278.349125 
L 259.683574 271.514185 
L 259.878386 271.393182 
L 260.235542 271.4788 
L 260.495292 271.99937 
L 260.755041 272.949804 
L 261.307009 275.821179 
L 262.151195 277.892565 
L 262.313539 277.739656 
L 262.833038 276.074315 
L 263.222663 274.714182 
L 263.352537 274.768818 
L 263.644756 274.921757 
L 263.839568 274.779216 
L 263.969443 274.349908 
L 264.196724 273.539968 
L 264.261661 273.587383 
L 264.424005 273.969103 
L 264.813629 275.448518 
L 265.398066 278.940006 
L 265.820159 281.982634 
L 266.404595 285.577094 
L 266.826688 287.235448 
L 267.151376 288.305187 
L 267.573469 289.881575 
L 267.670875 289.865459 
L 267.80075 289.444141 
L 268.385186 286.877011 
L 268.742342 286.01674 
L 269.03456 285.804189 
L 269.229372 285.665207 
L 269.456653 285.11125 
L 269.911215 283.399571 
L 270.917745 278.883317 
L 271.307369 277.984848 
L 271.469713 277.919126 
L 271.956743 278.234209 
L 272.151556 278.117401 
L 272.768461 277.477164 
L 273.158085 277.489236 
L 273.320429 277.297162 
L 273.677584 276.213243 
L 274.391896 274.130885 
L 274.976333 273.421847 
L 275.463363 273.461001 
L 276.0478 274.407583 
L 276.891986 277.085844 
L 277.346548 279.403271 
L 277.736172 282.221706 
L 278.515421 287.894339 
L 278.775171 289.18294 
L 279.197264 290.675582 
L 279.554419 291.163346 
L 279.814169 291.195128 
L 280.268731 291.128968 
L 280.658355 291.391583 
L 280.885636 291.596175 
L 280.918105 291.500272 
L 281.470073 290.448074 
L 281.957103 289.291765 
L 282.931164 284.386005 
L 283.190914 284.018215 
L 283.710413 283.714463 
L 284.164975 283.024946 
L 285.333848 279.900409 
L 285.755941 277.92118 
L 286.242972 276.009012 
L 287.509251 272.536873 
L 287.931344 271.147642 
L 288.191094 270.947433 
L 288.580718 270.689451 
L 288.905405 270.062817 
L 289.652186 268.705374 
L 289.879466 268.671996 
L 290.139216 268.948075 
L 290.561309 269.331825 
L 291.015871 269.432194 
L 291.502902 269.529931 
L 291.697714 269.948988 
L 292.834118 273.186477 
L 293.191274 274.156043 
L 293.580898 276.00848 
L 294.360147 281.238749 
L 295.04199 284.979508 
L 296.503082 290.849919 
L 296.827769 291.813865 
L 296.957643 291.808499 
L 297.087518 291.457718 
L 297.347268 289.842301 
L 298.158985 284.592454 
L 298.581078 283.344944 
L 299.100578 281.782084 
L 301.568199 272.919073 
L 302.54226 270.500013 
L 302.866947 270.416757 
L 303.029291 270.587121 
L 303.808539 271.829559 
L 304.360507 272.717653 
L 304.944944 273.853086 
L 305.334568 274.171949 
L 305.594318 274.796709 
L 305.919005 276.272206 
L 306.600848 280.866418 
L 307.347628 284.946805 
L 308.646376 290.665741 
L 308.841188 290.978643 
L 308.971063 290.894575 
L 309.847718 289.47904 
L 310.269811 288.061333 
L 310.724373 286.822481 
L 311.373747 285.410004 
L 311.828309 284.470757 
L 313.094588 283.747468 
L 313.614087 283.754765 
L 313.906306 283.423616 
L 314.133586 283.334453 
L 314.425805 283.422189 
L 314.653086 283.773288 
L 314.977773 284.779476 
L 315.951834 288.20712 
L 316.179115 288.35927 
L 316.341458 288.228072 
L 317.315519 286.490667 
L 317.964893 284.446449 
L 318.28958 283.598488 
L 318.581799 283.407416 
L 318.971423 283.268717 
L 319.263641 283.43315 
L 319.653266 283.964223 
L 320.335108 285.046907 
L 320.529921 284.926366 
L 320.822139 284.367829 
L 321.276701 283.017631 
L 321.926075 281.059251 
L 322.640386 279.380001 
L 323.094948 278.38806 
L 323.484572 278.125937 
L 323.679385 278.255664 
L 323.906666 278.763171 
L 324.426165 280.798441 
L 325.172945 283.361253 
L 326.0496 285.871433 
L 326.861317 288.573012 
L 327.348348 289.464442 
L 327.575629 289.547122 
L 327.80291 289.378952 
L 328.257472 289.045019 
L 328.354878 288.961153 
L 328.712033 287.886823 
L 329.945844 283.220154 
L 330.757562 280.229024 
L 331.017311 279.927592 
L 331.179655 279.979072 
L 331.406936 280.358394 
L 331.79656 281.619069 
L 332.121247 282.375301 
L 332.316059 282.43206 
L 332.575809 282.21723 
L 332.835558 282.073789 
L 332.965433 282.27395 
L 333.225183 283.211377 
L 334.29665 287.825972 
L 334.458994 287.628045 
L 335.400586 285.905382 
L 335.920085 285.979591 
L 336.212303 285.922369 
L 337.54352 285.099602 
L 338.127957 284.578714 
L 338.355238 284.656615 
L 339.069549 285.188417 
L 339.718923 285.070412 
L 340.141016 285.972581 
L 340.563109 286.484921 
L 340.757922 286.464708 
L 342.121607 285.24929 
L 342.770981 284.501701 
L 342.965793 284.512691 
L 343.258012 284.800115 
L 343.55023 285.467616 
L 344.361947 287.616725 
L 344.784041 288.674201 
L 345.206134 290.830832 
L 345.758102 294.048082 
L 345.79057 293.995842 
L 345.952914 293.187486 
L 346.53735 288.641486 
L 347.121787 284.231391 
L 347.673755 282.020677 
L 348.128317 279.932026 
L 348.647816 276.187026 
L 349.427065 270.445726 
L 349.784221 269.290332 
L 349.979033 269.223284 
L 350.141376 269.469958 
L 350.401126 270.371766 
L 351.732343 276.134335 
L 352.706404 277.951873 
L 353.193434 279.414626 
L 353.712933 281.748656 
L 355.271431 289.254396 
L 355.531181 289.569457 
L 355.693524 289.515246 
L 355.888336 289.147976 
L 356.277961 287.737703 
L 357.641646 282.442255 
L 358.453364 279.540038 
L 359.037801 277.803544 
L 359.394956 277.245994 
L 359.687175 277.165981 
L 360.141736 277.291793 
L 360.401486 277.647023 
L 360.628767 278.571988 
L 361.537891 282.503339 
L 362.187265 284.809054 
L 362.706764 287.841894 
L 363.226263 292.232365 
L 363.518481 294.520766 
L 363.55095 294.415483 
L 363.778231 292.184842 
L 364.362668 286.782774 
L 364.784761 284.737966 
L 365.499072 282.686351 
L 366.408196 280.157075 
L 366.700414 279.855342 
L 366.862758 279.941512 
L 367.090038 280.353502 
L 367.447194 281.540577 
L 368.193974 284.041665 
L 368.55113 284.65399 
L 369.038161 285.170461 
L 369.232973 285.06029 
L 369.525191 284.486554 
L 370.596658 281.579739 
L 371.538251 278.720623 
L 371.862938 278.533083 
L 372.220093 278.612339 
L 372.54478 278.581622 
L 373.486373 278.615103 
L 374.590308 279.643024 
L 375.272151 281.001087 
L 375.499432 280.958776 
L 376.278681 280.495299 
L 376.570899 280.757061 
L 376.863118 281.294626 
L 377.187805 282.455576 
L 377.707304 285.53492 
L 378.129397 287.359824 
L 378.681365 289.122686 
L 379.135927 291.090539 
L 379.882707 294.847974 
L 379.980113 294.563896 
L 380.207394 293.025567 
L 381.571079 283.117906 
L 382.187985 279.653599 
L 382.480203 279.040684 
L 382.739953 278.898623 
L 382.999702 279.062 
L 383.324389 279.221102 
L 383.519201 279.056562 
L 383.778951 278.432915 
L 384.201044 276.602713 
L 384.655606 274.871424 
L 384.882887 274.671996 
L 385.142636 274.770283 
L 385.402386 274.817569 
L 385.56473 274.612995 
L 385.856948 273.730254 
L 386.31151 271.729304 
L 386.636197 270.771268 
L 386.960884 270.454742 
L 387.188165 270.464972 
L 387.480383 270.698912 
L 387.772601 271.390747 
L 388.194694 272.258981 
L 388.486913 272.602772 
L 388.876537 273.857708 
L 389.331099 275.238202 
L 389.590849 276.061142 
L 390.272691 279.628607 
L 390.922065 283.202031 
L 392.188345 286.15634 
L 393.194874 288.976849 
L 393.324749 289.352903 
L 393.974123 291.890051 
L 394.006592 291.857678 
L 394.168935 291.327515 
L 395.792371 283.814165 
L 396.214464 282.821313 
L 396.539151 280.839392 
L 396.961244 278.776654 
L 397.156056 278.445624 
L 397.285931 278.582261 
L 397.708024 279.675833 
L 398.097648 280.379732 
L 398.422335 281.005674 
L 398.487273 281.15598 
L 398.487273 281.15598 
" clip-path="url(#p7746892039)" style="fill: none; stroke: #000000; stroke-width: 1.5; stroke-linecap: square"/>
   </g>
   <g id="line2d_14">
    <path d="M 73.832727 292.749292 
L 74.189883 288.992905 
L 74.579507 287.605548 
L 74.709382 287.305063 
L 75.358756 291.020896 
L 75.975662 295.452507 
L 76.040599 295.199038 
L 76.495161 292.623324 
L 76.982191 286.862377 
L 77.209472 285.984612 
L 77.436753 284.310369 
L 77.956252 278.478311 
L 78.280939 275.276661 
L 78.800439 273.726411 
L 78.930313 273.706147 
L 78.995251 273.901806 
L 79.319938 275.706097 
L 79.417344 275.576822 
L 79.644625 274.872073 
L 80.001781 271.062074 
L 80.196593 269.832614 
L 80.293999 269.96244 
L 80.456342 270.803868 
L 80.683623 271.668061 
L 80.878435 272.110247 
L 81.073248 273.454558 
L 81.722622 279.935189 
L 81.982371 280.568842 
L 82.079777 280.660437 
L 82.112246 280.631626 
L 82.436933 280.210534 
L 82.501871 280.335031 
L 82.859026 281.989168 
L 82.891495 281.927242 
L 83.638275 278.644056 
L 83.670744 278.685622 
L 83.800619 279.240575 
L 84.092837 281.633648 
L 84.547399 287.558528 
L 84.937023 291.776239 
L 85.294179 292.937674 
L 85.424054 292.708838 
L 85.586397 292.255831 
L 85.748741 292.036352 
L 86.040959 292.214412 
L 86.398115 290.564606 
L 87.664394 281.69335 
L 87.7618 281.832046 
L 87.989081 282.094221 
L 88.183893 282.491187 
L 88.411174 284.252473 
L 88.833267 288.057874 
L 89.060548 288.918329 
L 89.190423 289.596456 
L 89.450173 292.917192 
L 89.644985 295.455521 
L 89.677454 295.154947 
L 90.359296 285.605083 
L 90.846327 278.656804 
L 90.878796 278.608352 
L 90.911264 278.658938 
L 91.041139 279.425152 
L 91.463232 282.240772 
L 92.469762 287.236236 
L 92.76198 290.269625 
L 93.184073 295.377119 
L 93.216542 295.019649 
L 93.443823 293.675752 
L 93.541229 293.642655 
L 93.573698 293.693922 
L 93.865916 294.483462 
L 93.898385 294.458976 
L 94.158134 293.789683 
L 94.482821 292.377685 
L 94.645165 292.415577 
L 94.77504 292.102219 
L 95.034789 291.621355 
L 95.132195 291.808476 
L 95.359476 293.104101 
L 95.716632 295.405015 
L 95.943913 294.201756 
L 95.976382 294.207028 
L 96.073788 294.634683 
L 96.236131 295.475528 
L 96.2686 295.293912 
L 97.145255 290.951464 
L 97.177724 290.908913 
L 97.210192 291.007127 
L 97.437473 291.839171 
L 97.632285 293.601405 
L 97.794629 295.467327 
L 97.859566 295.064229 
L 97.989441 294.760725 
L 98.02191 294.783797 
L 98.281659 295.480007 
L 98.346597 295.379301 
L 98.638815 294.733083 
L 98.963502 292.732954 
L 99.385595 290.976269 
L 99.645345 290.478427 
L 99.742751 290.696388 
L 100.359656 292.522353 
L 100.586937 292.23914 
L 100.911624 291.189746 
L 101.333717 289.405823 
L 101.463592 289.51453 
L 101.723342 290.197001 
L 102.01556 289.376973 
L 102.210372 289.26101 
L 102.372716 288.550463 
L 103.574058 281.924453 
L 103.703933 281.560632 
L 104.158494 279.312819 
L 104.288369 279.482279 
L 104.418244 280.115773 
L 105.132555 285.666756 
L 105.359836 285.849265 
L 105.489711 286.207621 
L 106.00921 288.714171 
L 106.26896 290.204245 
L 106.333897 290.066556 
L 106.561178 288.211398 
L 106.853397 284.040794 
L 107.794989 269.222591 
L 108.282019 264.543876 
L 108.379426 264.212203 
L 108.411894 264.274952 
L 108.574238 264.743501 
L 108.801519 266.337126 
L 109.191143 269.323219 
L 109.645705 271.234844 
L 109.678174 271.213706 
L 109.808048 270.882179 
L 110.067798 270.09356 
L 110.230142 270.172779 
L 110.295079 270.30913 
L 110.360016 270.211426 
L 110.554829 269.940125 
L 110.587297 269.96033 
L 110.782109 270.235035 
L 110.847047 270.112707 
L 111.00939 269.179129 
L 111.301609 267.712312 
L 111.52889 266.641917 
L 111.788639 265.721639 
L 111.853577 265.798487 
L 112.01592 266.799309 
L 112.340607 268.931561 
L 112.405545 268.941126 
L 112.535419 268.461961 
L 112.989981 266.153369 
L 113.184793 266.761924 
L 113.477012 268.540333 
L 113.834167 271.185698 
L 113.866636 271.267877 
L 113.964042 271.212376 
L 114.02898 271.234282 
L 114.061448 271.149121 
L 114.548479 270.46018 
L 114.678354 270.580598 
L 115.230322 272.92864 
L 115.457602 273.764285 
L 115.490071 273.694323 
L 115.814758 272.497021 
L 115.944633 272.561 
L 116.106977 272.524531 
L 116.301789 272.600026 
L 116.431664 272.413487 
L 117.081038 269.788806 
L 117.373256 268.116971 
L 117.470662 268.385685 
L 118.184973 271.681103 
L 118.249911 271.603153 
L 118.477192 270.162116 
L 118.76941 268.632577 
L 118.964222 269.028408 
L 119.223972 270.439679 
L 119.938283 279.63347 
L 120.035689 279.631968 
L 120.165564 279.643719 
L 120.26297 279.820215 
L 120.457783 280.967503 
L 120.912344 284.479685 
L 121.074688 284.617018 
L 121.172094 284.671333 
L 121.2695 284.794861 
L 121.301969 284.762037 
L 121.431844 284.367287 
L 121.724062 282.342937 
L 121.821468 282.713471 
L 121.951343 283.130026 
L 121.983811 283.120119 
L 122.146155 282.614757 
L 122.698123 280.975583 
L 122.795529 281.0622 
L 122.892935 281.422332 
L 123.087747 282.08491 
L 123.444903 282.621864 
L 123.834527 283.566311 
L 123.866996 283.503584 
L 124.02934 282.33239 
L 124.613776 277.059386 
L 124.841057 277.035138 
L 124.938463 277.296571 
L 125.133276 278.045859 
L 125.198213 277.920917 
L 125.425494 277.061663 
L 125.685243 276.018746 
L 125.815118 276.097212 
L 126.302149 278.321457 
L 127.178804 282.086993 
L 127.341147 281.913806 
L 127.568428 280.953627 
L 128.802239 276.000809 
L 129.094457 275.269849 
L 129.386675 273.858597 
L 129.7763 272.439685 
L 129.808769 272.448132 
L 129.938643 272.761098 
L 130.490611 274.917026 
L 130.555549 274.833536 
L 130.750361 274.788127 
L 130.945173 274.819455 
L 130.977642 274.777513 
L 131.01011 274.837774 
L 131.107517 275.112909 
L 131.367266 276.599988 
L 131.659484 278.332326 
L 131.789359 278.492172 
L 131.821828 278.390287 
L 132.178984 276.862803 
L 132.243921 276.900974 
L 132.536139 275.456807 
L 132.828358 272.797848 
L 133.153045 270.149398 
L 133.445263 269.528286 
L 133.607607 267.882403 
L 134.0297 259.142021 
L 134.321918 255.812418 
L 134.419324 255.656934 
L 134.451793 255.671505 
L 134.77648 256.283092 
L 134.938823 257.214105 
L 135.166104 258.4033 
L 135.328448 258.959374 
L 135.685603 262.457289 
L 136.01029 265.570554 
L 136.237571 266.165497 
L 136.334977 266.399081 
L 136.659665 267.927339 
L 137.244101 274.149984 
L 137.341507 274.364427 
L 137.373976 274.338893 
L 137.601257 273.685739 
L 137.7636 271.957727 
L 138.380506 264.688476 
L 138.445443 264.586997 
L 138.477912 264.642679 
L 138.802599 265.256318 
L 138.932474 265.24383 
L 139.127286 264.933414 
L 139.549379 263.296295 
L 139.614316 263.419158 
L 139.939003 264.785905 
L 140.003941 264.632998 
L 140.361096 263.005724 
L 140.426034 263.0896 
L 140.78319 263.762105 
L 140.815658 263.7321 
L 140.978002 263.686037 
L 141.075408 263.778755 
L 141.367626 264.692304 
L 141.497501 264.907864 
L 141.692313 265.955696 
L 142.698843 273.52297 
L 143.250811 277.454622 
L 144.094997 284.653403 
L 144.127466 284.615247 
L 144.289809 284.337022 
L 144.322278 284.379331 
L 144.484622 284.626802 
L 144.646965 285.123157 
L 144.841777 285.985676 
L 145.133996 287.478383 
L 145.198933 287.502263 
L 145.231402 287.463751 
L 145.458683 287.293355 
L 145.556089 287.336743 
L 146.172994 289.027852 
L 146.205463 289.011062 
L 146.400275 288.49634 
L 146.595087 288.135482 
L 146.692493 288.405986 
L 146.822368 288.336208 
L 146.952243 288.453466 
L 147.179524 289.201533 
L 147.406805 290.375338 
L 147.471742 290.285371 
L 147.601617 289.578613 
L 148.02371 287.318357 
L 148.056179 287.323594 
L 148.186054 287.352269 
L 148.543209 287.629703 
L 148.867896 287.209778 
L 149.582208 279.918863 
L 150.978362 261.122993 
L 151.303049 257.858661 
L 151.53033 256.970495 
L 151.887485 258.898639 
L 152.179704 260.139656 
L 152.309579 259.707435 
L 152.569328 257.720041 
L 152.796609 256.533887 
L 152.861547 256.56729 
L 153.153765 257.177526 
L 153.186234 257.161697 
L 153.28364 257.187129 
L 153.381046 257.159794 
L 153.510921 256.828951 
L 153.77067 255.613972 
L 153.835608 255.72737 
L 154.03042 257.155634 
L 154.420044 259.970257 
L 154.582388 260.215796 
L 154.744731 259.964302 
L 154.972012 258.707849 
L 155.361637 255.750561 
L 155.52398 255.22966 
L 155.686324 253.639466 
L 155.978542 250.802839 
L 156.173354 250.754636 
L 156.660385 249.241851 
L 156.855197 248.275697 
L 157.244821 250.897502 
L 157.309759 251.026083 
L 157.342227 251.005942 
L 157.472102 250.499013 
L 157.829258 248.686028 
L 157.861727 248.721539 
L 157.926664 248.628174 
L 158.251351 247.81377 
L 159.160475 242.883741 
L 159.290349 243.1477 
L 159.420224 243.615074 
L 159.452693 243.595566 
L 159.582568 242.930164 
L 159.77738 242.337872 
L 159.907255 242.146811 
L 159.939723 242.286428 
L 160.394285 244.907989 
L 160.491691 244.858153 
L 160.621566 244.144127 
L 160.816378 241.120448 
L 161.076128 237.759312 
L 161.465752 236.645369 
L 161.563158 236.700997 
L 161.887846 237.486678 
L 162.180064 240.845375 
L 162.439813 243.346193 
L 162.7645 244.758882 
L 162.861907 244.944505 
L 162.894375 244.88027 
L 163.089187 243.916879 
L 163.316468 243.136845 
L 163.381406 242.98347 
L 163.803499 239.987451 
L 164.128186 237.120061 
L 164.258061 236.040441 
L 164.355467 236.114713 
L 164.452873 235.809624 
L 164.485342 235.949692 
L 164.582748 236.280755 
L 164.712623 237.332243 
L 165.102247 240.425187 
L 165.167184 240.276334 
L 165.913964 235.960915 
L 166.238652 233.32686 
L 166.498401 232.662982 
L 166.563339 232.746719 
L 166.628276 232.768542 
L 166.660745 232.706494 
L 166.790619 232.01145 
L 166.985432 230.905457 
L 167.0179 230.965346 
L 167.115306 231.253432 
L 167.927024 235.442932 
L 167.991961 235.359916 
L 168.251711 234.038114 
L 168.706273 232.473844 
L 169.193303 232.780108 
L 169.290709 233.141195 
L 169.550459 233.880223 
L 169.647865 233.578326 
L 170.102427 231.410973 
L 170.167364 231.583412 
L 170.232302 231.668177 
L 170.26477 231.620225 
L 170.362177 231.391508 
L 170.394645 231.4918 
L 170.492051 231.765343 
L 170.654395 232.21753 
L 170.78427 231.677185 
L 171.2713 227.734891 
L 171.725862 223.092817 
L 171.920674 222.000059 
L 172.27783 220.48881 
L 172.505111 220.053161 
L 173.02461 217.233755 
L 173.089548 217.12596 
L 173.122016 217.184092 
L 173.219422 218.318917 
L 173.609047 222.345353 
L 173.673984 222.658163 
L 173.738922 222.511824 
L 173.966202 220.502351 
L 174.355827 217.552443 
L 174.51817 217.36586 
L 174.712983 218.138408 
L 174.842857 219.368424 
L 175.167544 222.174029 
L 175.200013 222.259522 
L 175.26495 222.18138 
L 175.622106 221.016081 
L 175.719512 221.249145 
L 175.78445 221.435305 
L 175.816918 221.425451 
L 176.27148 219.304385 
L 176.466292 218.276178 
L 176.53123 218.33394 
L 176.628636 218.528649 
L 176.693573 218.464174 
L 176.855917 218.332226 
L 177.732572 214.808533 
L 177.829978 214.990297 
L 177.862447 214.96582 
L 177.959853 214.905865 
L 177.992321 214.936979 
L 178.122196 215.27465 
L 178.187134 215.172618 
L 178.219602 215.155188 
L 178.414415 215.886944 
L 178.446883 215.798642 
L 178.609227 214.447154 
L 179.063789 209.902632 
L 179.096257 209.954862 
L 179.161195 209.871115 
L 179.291069 209.8004 
L 179.356007 209.789754 
L 179.583288 210.97331 
L 179.907975 213.972599 
L 180.03785 213.75092 
L 180.232662 213.230494 
L 180.297599 213.528647 
L 180.557349 217.910959 
L 180.946973 223.341159 
L 181.011911 223.477527 
L 181.044379 223.383475 
L 181.174254 221.847075 
L 181.498941 217.993171 
L 181.661285 217.460163 
L 181.693753 217.509613 
L 181.823628 217.687338 
L 181.856097 217.66682 
L 182.083378 217.010022 
L 182.505471 213.157159 
L 182.797689 210.749154 
L 182.992501 210.748221 
L 183.089908 210.530181 
L 183.122376 210.59299 
L 183.317188 211.427571 
L 183.512001 211.293105 
L 183.804219 210.209731 
L 183.836688 210.261928 
L 184.128906 211.511293 
L 184.226312 211.364642 
L 184.388656 210.313302 
L 185.070498 206.390626 
L 185.102967 206.533557 
L 185.232842 207.620303 
L 185.460123 209.664006 
L 185.52506 209.52375 
L 186.012091 206.286563 
L 186.304309 201.608267 
L 186.856277 191.87247 
L 187.310839 188.843562 
L 187.343307 188.884996 
L 187.440714 189.23382 
L 187.830338 191.368661 
L 187.895275 191.127587 
L 188.122556 189.997998 
L 188.155025 190.020123 
L 188.479712 190.918034 
L 188.836868 191.999221 
L 188.999211 192.417076 
L 189.03168 192.395427 
L 189.226492 191.958648 
L 189.258961 192.085989 
L 189.453773 192.718846 
L 189.551179 192.633504 
L 189.681054 192.488808 
L 189.908335 192.295908 
L 190.103147 191.038342 
L 190.492771 187.237114 
L 190.557709 187.566662 
L 190.947333 189.399455 
L 190.979802 189.424816 
L 191.012271 189.373163 
L 191.109677 189.107271 
L 191.142145 189.238468 
L 191.27202 189.623275 
L 191.304489 189.613649 
L 191.401895 189.278754 
L 191.434364 189.099865 
L 191.499301 189.178889 
L 191.596707 189.494639 
L 191.823988 191.600704 
L 192.083738 193.78699 
L 192.116207 193.780679 
L 192.246081 193.026792 
L 192.473362 189.939999 
L 193.252611 177.315475 
L 193.317548 176.797721 
L 193.382486 177.116377 
L 193.642235 179.159423 
L 193.837048 180.878218 
L 194.03186 182.023786 
L 194.194203 181.981466 
L 194.453953 181.056155 
L 194.876046 177.733254 
L 194.908515 177.795155 
L 195.330608 180.742196 
L 195.817638 185.312873 
L 195.947513 186.195692 
L 195.979982 186.148494 
L 196.044919 185.857588 
L 196.109857 185.931625 
L 196.207263 185.914514 
L 196.304669 185.700109 
L 196.337138 185.853841 
L 196.467013 186.529712 
L 196.694293 187.302783 
L 196.726762 187.259562 
L 196.7917 187.342932 
L 196.986512 187.270602 
L 197.083918 186.768893 
L 197.441074 182.249565 
L 197.798229 178.433077 
L 197.960573 178.015119 
L 198.02551 177.991012 
L 198.155385 177.744563 
L 198.187854 177.835411 
L 198.28526 178.169408 
L 198.382666 179.355618 
L 198.804759 183.916061 
L 198.902165 183.723237 
L 199.096977 182.983599 
L 199.129446 183.136074 
L 199.194383 182.981409 
L 199.648945 180.199065 
L 200.460663 172.159477 
L 200.493131 172.172408 
L 200.590538 172.662857 
L 201.045099 177.630078 
L 201.110037 177.492116 
L 201.27238 175.861095 
L 201.824348 169.888661 
L 201.921754 169.398022 
L 202.181504 167.07452 
L 202.213973 167.144843 
L 202.408785 168.38206 
L 202.473722 168.256356 
L 202.603597 167.888317 
L 202.636066 167.912622 
L 202.765941 168.533425 
L 202.928284 169.980855 
L 203.123096 171.065071 
L 203.28544 171.057175 
L 203.382846 170.795947 
L 203.675064 169.912598 
L 203.934814 169.173339 
L 204.29197 165.801874 
L 204.584188 160.976116 
L 205.168624 149.604355 
L 205.395905 148.483674 
L 205.493312 148.527478 
L 205.558249 148.755815 
L 206.467373 160.236553 
L 206.53231 160.20535 
L 206.727122 159.625578 
L 206.79206 159.654706 
L 206.889466 159.832078 
L 207.051809 160.888592 
L 207.311559 166.743689 
L 207.53884 169.300465 
L 207.571308 169.35037 
L 207.603777 169.318959 
L 207.895995 168.147407 
L 208.155745 165.712874 
L 208.870056 158.158253 
L 209.129806 157.053141 
L 209.227212 156.802572 
L 209.259681 156.825446 
L 209.51943 156.989764 
L 209.616837 156.632981 
L 209.681774 156.304517 
L 209.746711 156.52231 
L 210.006461 156.89818 
L 210.331148 159.140957 
L 210.363617 159.12115 
L 210.493492 158.51524 
L 211.012991 154.048657 
L 211.240272 155.414254 
L 211.370146 155.391706 
L 211.435084 155.273095 
L 211.467553 155.310402 
L 211.53249 155.771565 
L 211.79224 157.481089 
L 211.857177 157.401246 
L 211.954583 156.738488 
L 212.344208 150.462994 
L 212.733832 144.28555 
L 213.02605 142.876433 
L 213.123456 143.044158 
L 213.448143 143.827029 
L 213.480612 143.72749 
L 214.162455 139.928983 
L 214.649485 136.646059 
L 214.681954 136.697021 
L 214.811829 137.029538 
L 215.136516 139.329462 
L 215.201453 138.993608 
L 216.597607 125.781174 
L 216.630076 125.854882 
L 216.987232 131.928144 
L 217.376856 136.5116 
L 217.571668 137.369255 
L 217.669075 137.331704 
L 217.766481 137.292381 
L 217.798949 137.331992 
L 217.863887 137.331552 
L 217.993762 136.690185 
L 218.740542 131.110539 
L 218.837948 131.431376 
L 219.000291 131.8446 
L 219.03276 131.812615 
L 219.552259 130.274919 
L 219.617197 130.349751 
L 219.876946 130.914696 
L 219.941884 130.861695 
L 220.071758 130.758409 
L 220.266571 128.970896 
L 220.52632 126.692567 
L 220.656195 126.497971 
L 220.688664 126.575196 
L 221.143226 127.320382 
L 221.208163 127.24194 
L 221.402975 126.538036 
L 221.954943 123.592987 
L 222.27963 120.799134 
L 222.312099 120.80622 
L 222.831598 118.070319 
L 223.221222 112.896617 
L 223.416035 110.936766 
L 223.675784 109.45373 
L 223.740722 109.435176 
L 223.77319 109.493327 
L 223.903065 109.847311 
L 223.935534 109.793417 
L 224.000471 109.444074 
L 224.065409 109.480674 
L 224.130346 109.616024 
L 224.162815 109.559434 
L 224.714783 107.792511 
L 224.909595 107.389824 
L 225.104407 107.063248 
L 225.299219 106.018943 
L 225.331688 106.075108 
L 226.208343 109.800365 
L 226.500561 108.96502 
L 226.662905 107.556839 
L 226.857717 105.033294 
L 226.922654 105.232836 
L 227.117467 106.394047 
L 227.799309 110.138446 
L 228.383746 112.088726 
L 228.611027 112.374416 
L 228.805839 112.133592 
L 228.903245 111.527186 
L 229.227932 107.363012 
L 229.325338 107.596938 
L 229.455213 108.065342 
L 229.585088 109.52192 
L 229.877306 112.365493 
L 229.974712 112.46756 
L 230.007181 112.443911 
L 230.03965 112.352083 
L 230.072118 112.52571 
L 230.266931 113.693632 
L 230.364337 113.85105 
L 230.396805 113.799713 
L 230.624086 112.703328 
L 230.689024 112.913042 
L 231.04618 114.129645 
L 231.53321 118.279227 
L 231.728022 118.630931 
L 231.79296 118.569783 
L 232.020241 116.887087 
L 232.085178 116.483508 
L 232.117647 116.508124 
L 232.377396 118.652092 
L 232.474802 118.127837 
L 232.799489 114.603274 
L 232.929364 113.369121 
L 232.994302 113.449414 
L 233.124176 113.601202 
L 233.156645 113.550485 
L 233.416395 113.089734 
L 233.448863 113.179185 
L 233.481332 113.126231 
L 233.676144 112.109018 
L 233.838488 110.447763 
L 234.325518 104.377234 
L 234.390456 104.365474 
L 234.650205 105.296678 
L 234.715143 105.128733 
L 234.747611 105.054429 
L 234.812549 105.096331 
L 235.007361 105.112275 
L 235.137236 104.548334 
L 235.494392 102.84963 
L 235.559329 102.784378 
L 236.565859 106.539682 
L 236.598327 106.457034 
L 236.695734 106.046732 
L 236.760671 106.184042 
L 237.117827 106.111292 
L 237.410045 105.287351 
L 237.442514 105.487207 
L 237.669795 106.590586 
L 237.702263 106.581936 
L 237.799669 106.181046 
L 238.059419 103.005031 
L 238.2867 100.571067 
L 238.416575 100.01788 
L 238.513981 99.438538 
L 238.54645 99.591213 
L 238.838668 101.338482 
L 238.903605 101.465187 
L 239.065949 103.305525 
L 239.358167 105.895882 
L 239.455573 105.816982 
L 239.650385 104.762616 
L 240.007541 102.169605 
L 240.267291 100.631304 
L 240.429634 101.026595 
L 240.78679 102.971843 
L 240.851727 102.829785 
L 241.111477 101.209485 
L 241.371227 99.935041 
L 241.566039 99.662184 
L 241.695914 99.040205 
L 242.897256 89.294922 
L 243.416755 83.843387 
L 243.676504 82.028495 
L 243.77391 82.323419 
L 244.325878 84.96959 
L 244.358347 84.951696 
L 244.715503 84.12476 
L 244.78044 83.986723 
L 244.845378 84.046536 
L 244.910315 83.990767 
L 245.105127 84.92768 
L 245.137596 84.891316 
L 245.462283 83.624419 
L 245.722033 82.067491 
L 245.754501 82.072209 
L 245.981782 82.2079 
L 246.014251 82.156562 
L 246.274 81.280103 
L 246.696094 79.770832 
L 246.858437 78.559536 
L 247.215593 75.800667 
L 247.345468 75.692916 
L 247.377936 75.727259 
L 247.442874 76.196404 
L 247.767561 78.419434 
L 247.897436 78.587431 
L 247.929904 78.572555 
L 248.254591 78.296252 
L 248.351997 78.158731 
L 248.384466 78.220592 
L 248.676684 78.89353 
L 248.741622 78.782376 
L 248.936434 77.387308 
L 249.326058 74.564043 
L 249.455933 74.344973 
L 249.488402 74.385937 
L 249.748152 75.310279 
L 250.137776 76.861415 
L 250.202713 76.798871 
L 250.365057 76.094976 
L 250.657275 75.304919 
L 250.754681 75.433029 
L 251.014431 76.679473 
L 251.436524 78.591202 
L 251.696274 79.515578 
L 251.728742 79.488523 
L 251.923555 78.767129 
L 252.053429 77.712043 
L 252.410585 74.518897 
L 252.670335 74.058791 
L 252.735272 74.139397 
L 252.832678 74.53227 
L 253.319709 78.587292 
L 253.417115 78.774902 
L 253.449584 78.73189 
L 253.54699 78.21055 
L 254.03402 74.366928 
L 254.196364 73.579453 
L 254.261301 73.684316 
L 254.618457 74.869414 
L 254.650925 74.807404 
L 254.813269 74.192318 
L 255.008081 72.658401 
L 255.52758 68.166275 
L 255.624986 68.108283 
L 255.949674 68.914965 
L 256.014611 68.837988 
L 256.176954 68.293965 
L 256.469173 66.834342 
L 256.501641 66.900573 
L 256.923735 68.148359 
L 257.54064 69.120448 
L 257.702983 68.849706 
L 257.995202 68.33904 
L 258.319889 68.429274 
L 258.449764 68.275415 
L 258.482232 68.303146 
L 258.871857 68.854271 
L 258.936794 68.734929 
L 259.423825 66.894544 
L 259.488762 67.04938 
L 259.975792 69.328423 
L 260.04073 69.235564 
L 260.235542 68.458229 
L 260.625167 67.052429 
L 260.722573 66.982241 
L 260.917385 67.721839 
L 261.566759 71.3768 
L 261.729102 71.359595 
L 261.923915 72.041568 
L 261.956383 72.025673 
L 262.021321 71.973613 
L 262.151195 71.250658 
L 262.475882 69.308414 
L 262.735632 68.800304 
L 262.833038 68.831061 
L 262.930444 68.921257 
L 262.962913 68.886393 
L 263.092788 68.433205 
L 263.644756 65.895453 
L 263.904505 64.869243 
L 263.936974 64.909922 
L 264.131786 65.525473 
L 264.521411 67.114403 
L 264.553879 67.103192 
L 264.651285 66.833767 
L 265.138316 65.052985 
L 265.463003 64.097585 
L 265.592878 64.089158 
L 265.885096 64.536952 
L 266.04744 64.676565 
L 266.177314 64.713792 
L 266.53447 65.023873 
L 266.79422 65.094986 
L 267.053969 64.653587 
L 267.28125 64.246292 
L 267.476063 63.043382 
L 268.092968 57.838109 
L 268.190374 57.855682 
L 268.320249 57.894444 
L 268.515061 58.62668 
L 268.742342 59.226661 
L 269.229372 59.594662 
L 269.391716 59.351971 
L 269.846278 58.523785 
L 270.106027 58.789308 
L 270.657995 59.646906 
L 271.015151 60.469292 
L 271.04762 60.4486 
L 271.469713 59.871903 
L 271.664525 59.109678 
L 271.7944 59.199927 
L 271.956743 59.039242 
L 272.313899 58.688401 
L 272.508711 58.714062 
L 273.02821 59.173505 
L 273.060679 59.139464 
L 273.255491 58.617404 
L 273.54771 57.806382 
L 273.580178 57.816993 
L 273.710053 58.14081 
L 274.164615 59.497199 
L 274.391896 59.681429 
L 274.521771 59.543808 
L 274.749052 58.795853 
L 275.236082 57.085349 
L 275.365957 57.006872 
L 275.755581 58.060881 
L 275.885456 58.080948 
L 276.080268 57.652012 
L 276.275081 57.427329 
L 276.404955 57.492526 
L 276.697174 57.869707 
L 277.021861 57.894159 
L 277.28161 57.513446 
L 277.476423 57.187387 
L 277.54136 57.25127 
L 277.898516 57.6602 
L 278.418015 57.722805 
L 279.359607 56.254348 
L 279.521951 56.231656 
L 279.814169 56.539274 
L 280.04145 56.644814 
L 280.398606 56.402836 
L 281.112917 55.714385 
L 281.470073 56.082209 
L 281.892166 56.385667 
L 281.989572 56.417923 
L 282.314259 56.693999 
L 282.606477 56.619213 
L 282.931164 56.310159 
L 283.28832 56.02953 
L 283.580538 56.116798 
L 283.905225 56.18882 
L 284.100038 56.012001 
L 284.29485 55.743654 
L 284.359787 55.805468 
L 284.814349 56.159545 
L 285.333848 56.078784 
L 285.78841 56.498324 
L 286.145566 56.885439 
L 286.502722 56.96024 
L 286.827409 56.948425 
L 287.054689 56.975632 
L 287.28197 56.723109 
L 287.736532 56.168667 
L 287.898876 56.230105 
L 288.126157 56.690601 
L 288.418375 57.20376 
L 288.645656 57.148465 
L 288.840468 56.691949 
L 289.29503 55.621865 
L 289.522311 55.607254 
L 289.846998 55.84183 
L 290.236622 56.095653 
L 290.626247 56.205315 
L 290.983402 56.412904 
L 291.178215 56.239716 
L 291.502902 55.529376 
L 291.730182 55.293922 
L 291.892526 55.37254 
L 292.509431 55.938089 
L 292.866587 55.740024 
L 293.223743 55.466532 
L 293.515961 55.5143 
L 293.905585 55.857786 
L 294.165335 55.945706 
L 294.392616 55.768558 
L 294.652366 55.577983 
L 294.977053 55.66532 
L 295.171865 55.387011 
L 295.529021 54.569893 
L 295.593958 54.632914 
L 296.016051 54.987135 
L 296.210863 54.839337 
L 296.892706 53.996565 
L 297.119987 54.217171 
L 297.80183 55.253809 
L 298.386266 55.373318 
L 298.678485 55.151158 
L 299.068109 54.855719 
L 299.360327 54.870137 
L 300.074639 55.265242 
L 300.659075 54.846445 
L 301.405855 55.549563 
L 301.665605 55.589514 
L 302.54226 55.958977 
L 302.769541 55.749821 
L 303.094228 55.429669 
L 303.516321 55.145336 
L 303.841008 55.700688 
L 304.230633 56.135975 
L 304.55532 56.219624 
L 304.880007 56.260667 
L 305.139756 56.41945 
L 305.3021 56.254624 
L 305.594318 55.458395 
L 305.919005 54.73618 
L 306.04888 54.727943 
L 306.503442 55.542748 
L 306.665785 55.405902 
L 307.217753 54.450996 
L 307.28269 54.499426 
L 307.509971 54.931946 
L 307.932064 55.715283 
L 308.094408 55.625072 
L 308.419095 54.996716 
L 308.613907 54.844976 
L 309.587968 55.24867 
L 309.847718 55.388243 
L 310.074999 55.235282 
L 310.756842 54.604084 
L 311.211403 54.990139 
L 311.53609 55.261216 
L 311.958183 55.30677 
L 312.607557 54.526805 
L 313.386806 54.148377 
L 313.808899 53.766423 
L 314.003712 53.813492 
L 314.360867 54.263663 
L 314.750492 54.640062 
L 315.107647 54.65983 
L 316.146646 54.51792 
L 316.471333 54.756941 
L 317.218113 55.703135 
L 317.250582 55.668442 
L 317.445394 55.230699 
L 317.835018 54.35824 
L 317.964893 54.532868 
L 318.451924 55.471861 
L 318.614267 55.332437 
L 319.101298 54.580934 
L 319.166235 54.630353 
L 319.913015 55.220183 
L 320.822139 54.769469 
L 321.439044 54.106039 
L 321.666325 54.202403 
L 321.926075 54.647492 
L 322.380637 55.450049 
L 322.54298 55.404121 
L 322.80273 54.960839 
L 322.965073 54.819406 
L 323.581979 54.698653 
L 324.069009 54.411319 
L 324.55604 54.169803 
L 324.848258 54.151446 
L 325.108008 54.456991 
L 325.432695 54.75707 
L 325.595038 54.677583 
L 325.887256 54.166973 
L 326.276881 53.635675 
L 326.601568 53.574517 
L 326.991192 53.742436 
L 327.770441 54.180848 
L 328.062659 54.182966 
L 328.28994 54.411965 
L 328.679565 54.950143 
L 328.841908 54.830922 
L 329.361407 54.247212 
L 330.140656 54.406887 
L 330.465343 54.312493 
L 330.725093 54.532362 
L 331.244592 55.022844 
L 331.439404 54.928036 
L 331.829029 54.647858 
L 332.023841 54.894381 
L 332.380997 55.300372 
L 332.54334 55.139867 
L 332.80309 54.423341 
L 333.127777 53.666829 
L 333.322589 53.654329 
L 334.0369 53.913515 
L 334.29665 54.108225 
L 334.816149 54.595576 
L 335.04343 54.393434 
L 335.368117 54.130481 
L 335.595398 54.284197 
L 335.985023 54.557737 
L 336.407116 54.606365 
L 336.731803 54.857846 
L 337.251302 54.812665 
L 337.575989 54.359787 
L 337.835738 54.191837 
L 338.192894 54.246193 
L 338.777331 54.614615 
L 339.29683 54.41713 
L 339.589048 54.666694 
L 340.238422 55.433719 
L 340.270891 55.403458 
L 340.563109 54.889501 
L 340.692984 54.768309 
L 340.725453 54.792944 
L 341.147546 55.016405 
L 341.602108 54.880238 
L 342.219013 54.164665 
L 342.478763 54.481344 
L 342.706044 54.64203 
L 342.998262 54.475334 
L 343.258012 54.412555 
L 343.485293 54.699128 
L 343.777511 55.000045 
L 343.972323 54.910753 
L 344.264541 54.434266 
L 344.654166 53.881696 
L 344.784041 53.955984 
L 345.238602 54.410014 
L 345.465883 54.241609 
L 345.920445 53.850354 
L 346.115257 53.908356 
L 346.602288 54.432843 
L 346.959444 54.603248 
L 347.284131 54.739473 
L 347.511412 54.555452 
L 347.965973 54.126169 
L 348.193254 54.343914 
L 348.842628 55.114066 
L 349.654346 55.276058 
L 350.108908 55.016018 
L 350.531001 54.913305 
L 350.79075 55.094597 
L 351.569999 55.841201 
L 351.829749 55.611167 
L 352.089498 55.476105 
L 352.479123 55.341835 
L 353.031091 54.736388 
L 353.55059 53.968004 
L 353.712933 54.068969 
L 354.362308 54.755419 
L 354.654526 54.707652 
L 354.946744 54.393378 
L 355.206494 54.248115 
L 355.531181 54.347246 
L 355.953274 54.461608 
L 356.570179 54.298197 
L 356.959804 54.087591 
L 357.54424 54.08923 
L 357.771521 54.365173 
L 358.29102 55.050668 
L 358.518301 55.001976 
L 359.005332 54.522406 
L 359.330019 54.33914 
L 359.622237 54.476962 
L 359.946924 54.577004 
L 360.433955 54.581118 
L 360.823579 55.071892 
L 361.083329 55.031791 
L 361.408016 54.694658 
L 361.700234 54.473388 
L 361.895046 54.587011 
L 362.447014 55.097576 
L 362.641826 54.855269 
L 363.161326 54.103133 
L 363.615887 54.04183 
L 363.940574 54.199081 
L 364.492542 54.580436 
L 364.947104 54.235538 
L 365.174385 54.10472 
L 365.693884 54.162786 
L 366.083509 54.209791 
L 366.408196 54.050998 
L 366.732883 53.946463 
L 367.122507 54.118713 
L 367.80435 54.349664 
L 368.226443 54.191088 
L 368.940754 54.532638 
L 369.265441 54.613923 
L 369.817409 54.545383 
L 370.596658 54.966162 
L 371.018751 54.885335 
L 371.31097 54.852866 
L 371.862938 55.137497 
L 372.80453 55.86896 
L 373.226623 55.977272 
L 373.583779 56.263382 
L 373.746122 56.058063 
L 374.168215 55.407608 
L 374.590308 55.223602 
L 375.402026 54.692916 
L 375.759182 55.093752 
L 376.116337 55.427614 
L 376.376087 55.338525 
L 376.700774 54.847125 
L 377.090398 54.401527 
L 377.350148 54.412941 
L 378.29174 54.840361 
L 378.486553 55.083453 
L 379.038521 55.810851 
L 379.233333 55.801522 
L 379.493082 55.492587 
L 380.077519 54.781616 
L 380.272331 54.812407 
L 380.661956 54.808647 
L 381.116517 54.800773 
L 381.408736 55.246258 
L 381.79836 55.960522 
L 382.05811 56.186726 
L 382.772421 57.112221 
L 382.934765 56.99821 
L 383.454264 56.02904 
L 383.778951 55.64832 
L 384.006232 55.663295 
L 384.265982 55.644963 
L 384.753012 55.42363 
L 384.947824 55.757026 
L 385.694604 57.424829 
L 385.921885 57.371152 
L 386.214104 56.980397 
L 386.571259 56.55077 
L 386.863478 56.755915 
L 387.253102 57.073648 
L 387.772601 57.595607 
L 388.097288 58.148515 
L 388.2921 58.182338 
L 388.746662 57.682261 
L 389.071349 57.160053 
L 389.331099 57.549156 
L 389.655786 57.855042 
L 389.785661 57.699636 
L 390.012942 57.392608 
L 390.142816 57.811102 
L 390.467503 58.65573 
L 391.05194 59.314331 
L 391.181815 59.304567 
L 391.376627 58.899217 
L 391.79872 57.959383 
L 392.123407 57.98289 
L 392.448094 58.045037 
L 392.610438 57.975175 
L 392.870187 57.55367 
L 393.162406 57.063329 
L 393.259812 57.039991 
L 393.292281 57.079707 
L 394.039061 58.900651 
L 394.363748 59.470866 
L 394.493622 59.366539 
L 394.753372 58.746978 
L 395.110528 57.983567 
L 395.370277 58.085422 
L 395.662496 58.074742 
L 395.824839 58.24716 
L 396.149526 59.013674 
L 396.571619 60.377933 
L 396.604088 60.365206 
L 396.766432 60.04784 
L 397.220993 58.387641 
L 397.610618 57.206333 
L 397.675555 57.18552 
L 397.708024 57.224635 
L 398.487273 58.26873 
L 398.487273 58.26873 
" clip-path="url(#p7746892039)" style="fill: none; stroke: #ff0000; stroke-width: 1.5; stroke-linecap: square"/>
   </g>
   <g id="patch_3">
    <path d="M 57.6 307.584 
L 57.6 41.472 
" style="fill: none; stroke: #000000; stroke-width: 0.8; stroke-linejoin: miter; stroke-linecap: square"/>
   </g>
   <g id="patch_4">
    <path d="M 414.72 307.584 
L 414.72 41.472 
" style="fill: none; stroke: #000000; stroke-width: 0.8; stroke-linejoin: miter; stroke-linecap: square"/>
   </g>
   <g id="patch_5">
    <path d="M 57.6 307.584 
L 414.72 307.584 
" style="fill: none; stroke: #000000; stroke-width: 0.8; stroke-linejoin: miter; stroke-linecap: square"/>
   </g>
   <g id="patch_6">
    <path d="M 57.6 41.472 
L 414.72 41.472 
" style="fill: none; stroke: #000000; stroke-width: 0.8; stroke-linejoin: miter; stroke-linecap: square"/>
   </g>
   <g id="text_15">
    <!-- Quantities over time -->
    <g transform="translate(143.26875 35.472) scale(0.16 -0.16)">
     <defs>
      <path id="DejaVuSans-Bold-51" d="M 2847 -84 
L 2753 -84 
Q 1600 -84 959 553 
Q 319 1191 319 2328 
Q 319 3463 958 4106 
Q 1597 4750 2719 4750 
Q 3853 4750 4486 4112 
Q 5119 3475 5119 2328 
Q 5119 1541 4783 972 
Q 4447 403 3816 116 
L 4756 -934 
L 3609 -934 
L 2847 -84 
z
M 2719 3878 
Q 2169 3878 1866 3472 
Q 1563 3066 1563 2328 
Q 1563 1578 1859 1179 
Q 2156 781 2719 781 
Q 3272 781 3575 1187 
Q 3878 1594 3878 2328 
Q 3878 3066 3575 3472 
Q 3272 3878 2719 3878 
z
" transform="scale(0.015625)"/>
      <path id="DejaVuSans-Bold-75" d="M 500 1363 
L 500 3500 
L 1625 3500 
L 1625 3150 
Q 1625 2866 1622 2436 
Q 1619 2006 1619 1863 
Q 1619 1441 1641 1255 
Q 1663 1069 1716 984 
Q 1784 875 1895 815 
Q 2006 756 2150 756 
Q 2500 756 2700 1025 
Q 2900 1294 2900 1772 
L 2900 3500 
L 4019 3500 
L 4019 0 
L 2900 0 
L 2900 506 
Q 2647 200 2364 54 
Q 2081 -91 1741 -91 
Q 1134 -91 817 281 
Q 500 653 500 1363 
z
" transform="scale(0.015625)"/>
      <path id="DejaVuSans-Bold-61" d="M 2106 1575 
Q 1756 1575 1579 1456 
Q 1403 1338 1403 1106 
Q 1403 894 1545 773 
Q 1688 653 1941 653 
Q 2256 653 2472 879 
Q 2688 1106 2688 1447 
L 2688 1575 
L 2106 1575 
z
M 3816 1997 
L 3816 0 
L 2688 0 
L 2688 519 
Q 2463 200 2181 54 
Q 1900 -91 1497 -91 
Q 953 -91 614 226 
Q 275 544 275 1050 
Q 275 1666 698 1953 
Q 1122 2241 2028 2241 
L 2688 2241 
L 2688 2328 
Q 2688 2594 2478 2717 
Q 2269 2841 1825 2841 
Q 1466 2841 1156 2769 
Q 847 2697 581 2553 
L 581 3406 
Q 941 3494 1303 3539 
Q 1666 3584 2028 3584 
Q 2975 3584 3395 3211 
Q 3816 2838 3816 1997 
z
" transform="scale(0.015625)"/>
      <path id="DejaVuSans-Bold-6e" d="M 4056 2131 
L 4056 0 
L 2931 0 
L 2931 347 
L 2931 1631 
Q 2931 2084 2911 2256 
Q 2891 2428 2841 2509 
Q 2775 2619 2662 2680 
Q 2550 2741 2406 2741 
Q 2056 2741 1856 2470 
Q 1656 2200 1656 1722 
L 1656 0 
L 538 0 
L 538 3500 
L 1656 3500 
L 1656 2988 
Q 1909 3294 2193 3439 
Q 2478 3584 2822 3584 
Q 3428 3584 3742 3212 
Q 4056 2841 4056 2131 
z
" transform="scale(0.015625)"/>
      <path id="DejaVuSans-Bold-74" d="M 1759 4494 
L 1759 3500 
L 2913 3500 
L 2913 2700 
L 1759 2700 
L 1759 1216 
Q 1759 972 1856 886 
Q 1953 800 2241 800 
L 2816 800 
L 2816 0 
L 1856 0 
Q 1194 0 917 276 
Q 641 553 641 1216 
L 641 2700 
L 84 2700 
L 84 3500 
L 641 3500 
L 641 4494 
L 1759 4494 
z
" transform="scale(0.015625)"/>
      <path id="DejaVuSans-Bold-69" d="M 538 3500 
L 1656 3500 
L 1656 0 
L 538 0 
L 538 3500 
z
M 538 4863 
L 1656 4863 
L 1656 3950 
L 538 3950 
L 538 4863 
z
" transform="scale(0.015625)"/>
      <path id="DejaVuSans-Bold-65" d="M 4031 1759 
L 4031 1441 
L 1416 1441 
Q 1456 1047 1700 850 
Q 1944 653 2381 653 
Q 2734 653 3104 758 
Q 3475 863 3866 1075 
L 3866 213 
Q 3469 63 3072 -14 
Q 2675 -91 2278 -91 
Q 1328 -91 801 392 
Q 275 875 275 1747 
Q 275 2603 792 3093 
Q 1309 3584 2216 3584 
Q 3041 3584 3536 3087 
Q 4031 2591 4031 1759 
z
M 2881 2131 
Q 2881 2450 2695 2645 
Q 2509 2841 2209 2841 
Q 1884 2841 1681 2658 
Q 1478 2475 1428 2131 
L 2881 2131 
z
" transform="scale(0.015625)"/>
      <path id="DejaVuSans-Bold-73" d="M 3272 3391 
L 3272 2541 
Q 2913 2691 2578 2766 
Q 2244 2841 1947 2841 
Q 1628 2841 1473 2761 
Q 1319 2681 1319 2516 
Q 1319 2381 1436 2309 
Q 1553 2238 1856 2203 
L 2053 2175 
Q 2913 2066 3209 1816 
Q 3506 1566 3506 1031 
Q 3506 472 3093 190 
Q 2681 -91 1863 -91 
Q 1516 -91 1145 -36 
Q 775 19 384 128 
L 384 978 
Q 719 816 1070 734 
Q 1422 653 1784 653 
Q 2113 653 2278 743 
Q 2444 834 2444 1013 
Q 2444 1163 2330 1236 
Q 2216 1309 1875 1350 
L 1678 1375 
Q 931 1469 631 1722 
Q 331 1975 331 2491 
Q 331 3047 712 3315 
Q 1094 3584 1881 3584 
Q 2191 3584 2531 3537 
Q 2872 3491 3272 3391 
z
" transform="scale(0.015625)"/>
      <path id="DejaVuSans-Bold-20" transform="scale(0.015625)"/>
      <path id="DejaVuSans-Bold-6f" d="M 2203 2784 
Q 1831 2784 1636 2517 
Q 1441 2250 1441 1747 
Q 1441 1244 1636 976 
Q 1831 709 2203 709 
Q 2569 709 2762 976 
Q 2956 1244 2956 1747 
Q 2956 2250 2762 2517 
Q 2569 2784 2203 2784 
z
M 2203 3584 
Q 3106 3584 3614 3096 
Q 4122 2609 4122 1747 
Q 4122 884 3614 396 
Q 3106 -91 2203 -91 
Q 1297 -91 786 396 
Q 275 884 275 1747 
Q 275 2609 786 3096 
Q 1297 3584 2203 3584 
z
" transform="scale(0.015625)"/>
      <path id="DejaVuSans-Bold-76" d="M 97 3500 
L 1216 3500 
L 2088 1081 
L 2956 3500 
L 4078 3500 
L 2700 0 
L 1472 0 
L 97 3500 
z
" transform="scale(0.015625)"/>
      <path id="DejaVuSans-Bold-72" d="M 3138 2547 
Q 2991 2616 2845 2648 
Q 2700 2681 2553 2681 
Q 2122 2681 1889 2404 
Q 1656 2128 1656 1613 
L 1656 0 
L 538 0 
L 538 3500 
L 1656 3500 
L 1656 2925 
Q 1872 3269 2151 3426 
Q 2431 3584 2822 3584 
Q 2878 3584 2943 3579 
Q 3009 3575 3134 3559 
L 3138 2547 
z
" transform="scale(0.015625)"/>
      <path id="DejaVuSans-Bold-6d" d="M 3781 2919 
Q 3994 3244 4286 3414 
Q 4578 3584 4928 3584 
Q 5531 3584 5847 3212 
Q 6163 2841 6163 2131 
L 6163 0 
L 5038 0 
L 5038 1825 
Q 5041 1866 5042 1909 
Q 5044 1953 5044 2034 
Q 5044 2406 4934 2573 
Q 4825 2741 4581 2741 
Q 4263 2741 4089 2478 
Q 3916 2216 3909 1719 
L 3909 0 
L 2784 0 
L 2784 1825 
Q 2784 2406 2684 2573 
Q 2584 2741 2328 2741 
Q 2006 2741 1831 2477 
Q 1656 2213 1656 1722 
L 1656 0 
L 531 0 
L 531 3500 
L 1656 3500 
L 1656 2988 
Q 1863 3284 2130 3434 
Q 2397 3584 2719 3584 
Q 3081 3584 3359 3409 
Q 3638 3234 3781 2919 
z
" transform="scale(0.015625)"/>
     </defs>
     <use xlink:href="#DejaVuSans-Bold-51"/>
     <use xlink:href="#DejaVuSans-Bold-75" transform="translate(85.009766 0)"/>
     <use xlink:href="#DejaVuSans-Bold-61" transform="translate(156.201172 0)"/>
     <use xlink:href="#DejaVuSans-Bold-6e" transform="translate(223.681641 0)"/>
     <use xlink:href="#DejaVuSans-Bold-74" transform="translate(294.873047 0)"/>
     <use xlink:href="#DejaVuSans-Bold-69" transform="translate(342.675781 0)"/>
     <use xlink:href="#DejaVuSans-Bold-74" transform="translate(376.953125 0)"/>
     <use xlink:href="#DejaVuSans-Bold-69" transform="translate(424.755859 0)"/>
     <use xlink:href="#DejaVuSans-Bold-65" transform="translate(459.033203 0)"/>
     <use xlink:href="#DejaVuSans-Bold-73" transform="translate(526.855469 0)"/>
     <use xlink:href="#DejaVuSans-Bold-20" transform="translate(586.376953 0)"/>
     <use xlink:href="#DejaVuSans-Bold-6f" transform="translate(621.191406 0)"/>
     <use xlink:href="#DejaVuSans-Bold-76" transform="translate(689.892578 0)"/>
     <use xlink:href="#DejaVuSans-Bold-65" transform="translate(755.078125 0)"/>
     <use xlink:href="#DejaVuSans-Bold-72" transform="translate(822.900391 0)"/>
     <use xlink:href="#DejaVuSans-Bold-20" transform="translate(872.216797 0)"/>
     <use xlink:href="#DejaVuSans-Bold-74" transform="translate(907.03125 0)"/>
     <use xlink:href="#DejaVuSans-Bold-69" transform="translate(954.833984 0)"/>
     <use xlink:href="#DejaVuSans-Bold-6d" transform="translate(989.111328 0)"/>
     <use xlink:href="#DejaVuSans-Bold-65" transform="translate(1093.310547 0)"/>
    </g>
   </g>
   <g id="legend_1">
    <g id="patch_7">
     <path d="M 64.6 78.82825 
L 154.673438 78.82825 
Q 156.673438 78.82825 156.673438 76.82825 
L 156.673438 48.472 
Q 156.673438 46.472 154.673438 46.472 
L 64.6 46.472 
Q 62.6 46.472 62.6 48.472 
L 62.6 76.82825 
Q 62.6 78.82825 64.6 78.82825 
z
" style="fill: #ffffff; opacity: 0.8; stroke: #cccccc; stroke-linejoin: miter"/>
    </g>
    <g id="line2d_15">
     <path d="M 66.6 54.570437 
L 76.6 54.570437 
L 86.6 54.570437 
" style="fill: none; stroke: #000000; stroke-width: 1.5; stroke-linecap: square"/>
    </g>
    <g id="text_16">
     <!-- Polarisation -->
     <g transform="translate(94.6 58.070437) scale(0.1 -0.1)">
      <defs>
       <path id="DejaVuSans-50" d="M 1259 4147 
L 1259 2394 
L 2053 2394 
Q 2494 2394 2734 2622 
Q 2975 2850 2975 3272 
Q 2975 3691 2734 3919 
Q 2494 4147 2053 4147 
L 1259 4147 
z
M 628 4666 
L 2053 4666 
Q 2838 4666 3239 4311 
Q 3641 3956 3641 3272 
Q 3641 2581 3239 2228 
Q 2838 1875 2053 1875 
L 1259 1875 
L 1259 0 
L 628 0 
L 628 4666 
z
" transform="scale(0.015625)"/>
       <path id="DejaVuSans-6f" d="M 1959 3097 
Q 1497 3097 1228 2736 
Q 959 2375 959 1747 
Q 959 1119 1226 758 
Q 1494 397 1959 397 
Q 2419 397 2687 759 
Q 2956 1122 2956 1747 
Q 2956 2369 2687 2733 
Q 2419 3097 1959 3097 
z
M 1959 3584 
Q 2709 3584 3137 3096 
Q 3566 2609 3566 1747 
Q 3566 888 3137 398 
Q 2709 -91 1959 -91 
Q 1206 -91 779 398 
Q 353 888 353 1747 
Q 353 2609 779 3096 
Q 1206 3584 1959 3584 
z
" transform="scale(0.015625)"/>
       <path id="DejaVuSans-6c" d="M 603 4863 
L 1178 4863 
L 1178 0 
L 603 0 
L 603 4863 
z
" transform="scale(0.015625)"/>
       <path id="DejaVuSans-72" d="M 2631 2963 
Q 2534 3019 2420 3045 
Q 2306 3072 2169 3072 
Q 1681 3072 1420 2755 
Q 1159 2438 1159 1844 
L 1159 0 
L 581 0 
L 581 3500 
L 1159 3500 
L 1159 2956 
Q 1341 3275 1631 3429 
Q 1922 3584 2338 3584 
Q 2397 3584 2469 3576 
Q 2541 3569 2628 3553 
L 2631 2963 
z
" transform="scale(0.015625)"/>
      </defs>
      <use xlink:href="#DejaVuSans-50"/>
      <use xlink:href="#DejaVuSans-6f" transform="translate(56.677734 0)"/>
      <use xlink:href="#DejaVuSans-6c" transform="translate(117.859375 0)"/>
      <use xlink:href="#DejaVuSans-61" transform="translate(145.642578 0)"/>
      <use xlink:href="#DejaVuSans-72" transform="translate(206.921875 0)"/>
      <use xlink:href="#DejaVuSans-69" transform="translate(248.035156 0)"/>
      <use xlink:href="#DejaVuSans-73" transform="translate(275.818359 0)"/>
      <use xlink:href="#DejaVuSans-61" transform="translate(327.917969 0)"/>
      <use xlink:href="#DejaVuSans-74" transform="translate(389.197266 0)"/>
      <use xlink:href="#DejaVuSans-69" transform="translate(428.40625 0)"/>
      <use xlink:href="#DejaVuSans-6f" transform="translate(456.189453 0)"/>
      <use xlink:href="#DejaVuSans-6e" transform="translate(517.371094 0)"/>
     </g>
    </g>
    <g id="line2d_16">
     <path d="M 66.6 69.248562 
L 76.6 69.248562 
L 86.6 69.248562 
" style="fill: none; stroke: #ff0000; stroke-width: 1.5; stroke-linecap: square"/>
    </g>
    <g id="text_17">
     <!-- Momentum -->
     <g transform="translate(94.6 72.748562) scale(0.1 -0.1)">
      <defs>
       <path id="DejaVuSans-4d" d="M 628 4666 
L 1569 4666 
L 2759 1491 
L 3956 4666 
L 4897 4666 
L 4897 0 
L 4281 0 
L 4281 4097 
L 3078 897 
L 2444 897 
L 1241 4097 
L 1241 0 
L 628 0 
L 628 4666 
z
" transform="scale(0.015625)"/>
      </defs>
      <use xlink:href="#DejaVuSans-4d"/>
      <use xlink:href="#DejaVuSans-6f" transform="translate(86.279297 0)"/>
      <use xlink:href="#DejaVuSans-6d" transform="translate(147.460938 0)"/>
      <use xlink:href="#DejaVuSans-65" transform="translate(244.873047 0)"/>
      <use xlink:href="#DejaVuSans-6e" transform="translate(306.396484 0)"/>
      <use xlink:href="#DejaVuSans-74" transform="translate(369.775391 0)"/>
      <use xlink:href="#DejaVuSans-75" transform="translate(408.984375 0)"/>
      <use xlink:href="#DejaVuSans-6d" transform="translate(472.363281 0)"/>
     </g>
    </g>
   </g>
  </g>
 </g>
 <defs>
  <clipPath id="p7746892039">
   <rect x="57.6" y="41.472" width="357.12" height="266.112"/>
  </clipPath>
 </defs>
</svg>
