<?xml version="1.0" encoding="utf-8" standalone="no"?>
<!DOCTYPE svg PUBLIC "-//W3C//DTD SVG 1.1//EN"
  "http://www.w3.org/Graphics/SVG/1.1/DTD/svg11.dtd">
<svg xmlns:xlink="http://www.w3.org/1999/xlink" width="432pt" height="360pt" viewBox="0 0 432 360" xmlns="http://www.w3.org/2000/svg" version="1.1">
 <metadata>
  <rdf:RDF xmlns:dc="http://purl.org/dc/elements/1.1/" xmlns:cc="http://creativecommons.org/ns#" xmlns:rdf="http://www.w3.org/1999/02/22-rdf-syntax-ns#">
   <cc:Work>
    <dc:type rdf:resource="http://purl.org/dc/dcmitype/StillImage"/>
    <dc:date>2025-05-06T01:24:16.543779</dc:date>
    <dc:format>image/svg+xml</dc:format>
    <dc:creator>
     <cc:Agent>
      <dc:title>Matplotlib v3.10.1, https://matplotlib.org/</dc:title>
     </cc:Agent>
    </dc:creator>
   </cc:Work>
  </rdf:RDF>
 </metadata>
 <defs>
  <style type="text/css">*{stroke-linejoin: round; stroke-linecap: butt}</style>
 </defs>
 <g id="figure_1">
  <g id="patch_1">
   <path d="M 0 360 
L 432 360 
L 432 0 
L 0 0 
z
" style="fill: #ffffff"/>
  </g>
  <g id="axes_1">
   <g id="patch_2">
    <path d="M 47.961178 153.232572 
L 428.99976 153.232572 
L 428.99976 18.118365 
L 47.961178 18.118365 
z
" style="fill: #ffffff"/>
   </g>
   <g id="matplotlib.axis_1">
    <g id="xtick_1">
     <g id="line2d_1">
      <path d="M 65.24647 153.232572 
L 65.24647 18.118365 
" clip-path="url(#p8fc7f61197)" style="fill: none; stroke: #b0b0b0; stroke-width: 0.8; stroke-linecap: square"/>
     </g>
     <g id="line2d_2">
      <defs>
       <path id="m1aecdb10b3" d="M 0 0 
L 0 3.5 
" style="stroke: #000000; stroke-width: 0.8"/>
      </defs>
      <g>
       <use xlink:href="#m1aecdb10b3" x="65.24647" y="153.232572" style="stroke: #000000; stroke-width: 0.8"/>
      </g>
     </g>
    </g>
    <g id="xtick_2">
     <g id="line2d_3">
      <path d="M 134.533141 153.232572 
L 134.533141 18.118365 
" clip-path="url(#p8fc7f61197)" style="fill: none; stroke: #b0b0b0; stroke-width: 0.8; stroke-linecap: square"/>
     </g>
     <g id="line2d_4">
      <g>
       <use xlink:href="#m1aecdb10b3" x="134.533141" y="153.232572" style="stroke: #000000; stroke-width: 0.8"/>
      </g>
     </g>
    </g>
    <g id="xtick_3">
     <g id="line2d_5">
      <path d="M 203.819812 153.232572 
L 203.819812 18.118365 
" clip-path="url(#p8fc7f61197)" style="fill: none; stroke: #b0b0b0; stroke-width: 0.8; stroke-linecap: square"/>
     </g>
     <g id="line2d_6">
      <g>
       <use xlink:href="#m1aecdb10b3" x="203.819812" y="153.232572" style="stroke: #000000; stroke-width: 0.8"/>
      </g>
     </g>
    </g>
    <g id="xtick_4">
     <g id="line2d_7">
      <path d="M 273.106483 153.232572 
L 273.106483 18.118365 
" clip-path="url(#p8fc7f61197)" style="fill: none; stroke: #b0b0b0; stroke-width: 0.8; stroke-linecap: square"/>
     </g>
     <g id="line2d_8">
      <g>
       <use xlink:href="#m1aecdb10b3" x="273.106483" y="153.232572" style="stroke: #000000; stroke-width: 0.8"/>
      </g>
     </g>
    </g>
    <g id="xtick_5">
     <g id="line2d_9">
      <path d="M 342.393153 153.232572 
L 342.393153 18.118365 
" clip-path="url(#p8fc7f61197)" style="fill: none; stroke: #b0b0b0; stroke-width: 0.8; stroke-linecap: square"/>
     </g>
     <g id="line2d_10">
      <g>
       <use xlink:href="#m1aecdb10b3" x="342.393153" y="153.232572" style="stroke: #000000; stroke-width: 0.8"/>
      </g>
     </g>
    </g>
    <g id="xtick_6">
     <g id="line2d_11">
      <path d="M 411.679824 153.232572 
L 411.679824 18.118365 
" clip-path="url(#p8fc7f61197)" style="fill: none; stroke: #b0b0b0; stroke-width: 0.8; stroke-linecap: square"/>
     </g>
     <g id="line2d_12">
      <g>
       <use xlink:href="#m1aecdb10b3" x="411.679824" y="153.232572" style="stroke: #000000; stroke-width: 0.8"/>
      </g>
     </g>
    </g>
    <g id="text_1">
     <!-- timestep -->
     <g transform="translate(216.36875 168.33101) scale(0.1 -0.1)">
      <defs>
       <path id="DejaVuSans-74" d="M 1172 4494 
L 1172 3500 
L 2356 3500 
L 2356 3053 
L 1172 3053 
L 1172 1153 
Q 1172 725 1289 603 
Q 1406 481 1766 481 
L 2356 481 
L 2356 0 
L 1766 0 
Q 1100 0 847 248 
Q 594 497 594 1153 
L 594 3053 
L 172 3053 
L 172 3500 
L 594 3500 
L 594 4494 
L 1172 4494 
z
" transform="scale(0.015625)"/>
       <path id="DejaVuSans-69" d="M 603 3500 
L 1178 3500 
L 1178 0 
L 603 0 
L 603 3500 
z
M 603 4863 
L 1178 4863 
L 1178 4134 
L 603 4134 
L 603 4863 
z
" transform="scale(0.015625)"/>
       <path id="DejaVuSans-6d" d="M 3328 2828 
Q 3544 3216 3844 3400 
Q 4144 3584 4550 3584 
Q 5097 3584 5394 3201 
Q 5691 2819 5691 2113 
L 5691 0 
L 5113 0 
L 5113 2094 
Q 5113 2597 4934 2840 
Q 4756 3084 4391 3084 
Q 3944 3084 3684 2787 
Q 3425 2491 3425 1978 
L 3425 0 
L 2847 0 
L 2847 2094 
Q 2847 2600 2669 2842 
Q 2491 3084 2119 3084 
Q 1678 3084 1418 2786 
Q 1159 2488 1159 1978 
L 1159 0 
L 581 0 
L 581 3500 
L 1159 3500 
L 1159 2956 
Q 1356 3278 1631 3431 
Q 1906 3584 2284 3584 
Q 2666 3584 2933 3390 
Q 3200 3197 3328 2828 
z
" transform="scale(0.015625)"/>
       <path id="DejaVuSans-65" d="M 3597 1894 
L 3597 1613 
L 953 1613 
Q 991 1019 1311 708 
Q 1631 397 2203 397 
Q 2534 397 2845 478 
Q 3156 559 3463 722 
L 3463 178 
Q 3153 47 2828 -22 
Q 2503 -91 2169 -91 
Q 1331 -91 842 396 
Q 353 884 353 1716 
Q 353 2575 817 3079 
Q 1281 3584 2069 3584 
Q 2775 3584 3186 3129 
Q 3597 2675 3597 1894 
z
M 3022 2063 
Q 3016 2534 2758 2815 
Q 2500 3097 2075 3097 
Q 1594 3097 1305 2825 
Q 1016 2553 972 2059 
L 3022 2063 
z
" transform="scale(0.015625)"/>
       <path id="DejaVuSans-73" d="M 2834 3397 
L 2834 2853 
Q 2591 2978 2328 3040 
Q 2066 3103 1784 3103 
Q 1356 3103 1142 2972 
Q 928 2841 928 2578 
Q 928 2378 1081 2264 
Q 1234 2150 1697 2047 
L 1894 2003 
Q 2506 1872 2764 1633 
Q 3022 1394 3022 966 
Q 3022 478 2636 193 
Q 2250 -91 1575 -91 
Q 1294 -91 989 -36 
Q 684 19 347 128 
L 347 722 
Q 666 556 975 473 
Q 1284 391 1588 391 
Q 1994 391 2212 530 
Q 2431 669 2431 922 
Q 2431 1156 2273 1281 
Q 2116 1406 1581 1522 
L 1381 1569 
Q 847 1681 609 1914 
Q 372 2147 372 2553 
Q 372 3047 722 3315 
Q 1072 3584 1716 3584 
Q 2034 3584 2315 3537 
Q 2597 3491 2834 3397 
z
" transform="scale(0.015625)"/>
       <path id="DejaVuSans-70" d="M 1159 525 
L 1159 -1331 
L 581 -1331 
L 581 3500 
L 1159 3500 
L 1159 2969 
Q 1341 3281 1617 3432 
Q 1894 3584 2278 3584 
Q 2916 3584 3314 3078 
Q 3713 2572 3713 1747 
Q 3713 922 3314 415 
Q 2916 -91 2278 -91 
Q 1894 -91 1617 61 
Q 1341 213 1159 525 
z
M 3116 1747 
Q 3116 2381 2855 2742 
Q 2594 3103 2138 3103 
Q 1681 3103 1420 2742 
Q 1159 2381 1159 1747 
Q 1159 1113 1420 752 
Q 1681 391 2138 391 
Q 2594 391 2855 752 
Q 3116 1113 3116 1747 
z
" transform="scale(0.015625)"/>
      </defs>
      <use xlink:href="#DejaVuSans-74"/>
      <use xlink:href="#DejaVuSans-69" transform="translate(39.208984 0)"/>
      <use xlink:href="#DejaVuSans-6d" transform="translate(66.992188 0)"/>
      <use xlink:href="#DejaVuSans-65" transform="translate(164.404297 0)"/>
      <use xlink:href="#DejaVuSans-73" transform="translate(225.927734 0)"/>
      <use xlink:href="#DejaVuSans-74" transform="translate(278.027344 0)"/>
      <use xlink:href="#DejaVuSans-65" transform="translate(317.236328 0)"/>
      <use xlink:href="#DejaVuSans-70" transform="translate(378.759766 0)"/>
     </g>
    </g>
   </g>
   <g id="matplotlib.axis_2">
    <g id="ytick_1">
     <g id="line2d_13">
      <path d="M 47.961178 136.90031 
L 428.99976 136.90031 
" clip-path="url(#p8fc7f61197)" style="fill: none; stroke: #b0b0b0; stroke-width: 0.8; stroke-linecap: square"/>
     </g>
     <g id="line2d_14">
      <defs>
       <path id="m141324de42" d="M 0 0 
L -3.5 0 
" style="stroke: #000000; stroke-width: 0.8"/>
      </defs>
      <g>
       <use xlink:href="#m141324de42" x="47.961178" y="136.90031" style="stroke: #000000; stroke-width: 0.8"/>
      </g>
     </g>
     <g id="text_2">
      <!-- −0.2 -->
      <g transform="translate(16.678365 140.699529) scale(0.1 -0.1)">
       <defs>
        <path id="DejaVuSans-2212" d="M 678 2272 
L 4684 2272 
L 4684 1741 
L 678 1741 
L 678 2272 
z
" transform="scale(0.015625)"/>
        <path id="DejaVuSans-30" d="M 2034 4250 
Q 1547 4250 1301 3770 
Q 1056 3291 1056 2328 
Q 1056 1369 1301 889 
Q 1547 409 2034 409 
Q 2525 409 2770 889 
Q 3016 1369 3016 2328 
Q 3016 3291 2770 3770 
Q 2525 4250 2034 4250 
z
M 2034 4750 
Q 2819 4750 3233 4129 
Q 3647 3509 3647 2328 
Q 3647 1150 3233 529 
Q 2819 -91 2034 -91 
Q 1250 -91 836 529 
Q 422 1150 422 2328 
Q 422 3509 836 4129 
Q 1250 4750 2034 4750 
z
" transform="scale(0.015625)"/>
        <path id="DejaVuSans-2e" d="M 684 794 
L 1344 794 
L 1344 0 
L 684 0 
L 684 794 
z
" transform="scale(0.015625)"/>
        <path id="DejaVuSans-32" d="M 1228 531 
L 3431 531 
L 3431 0 
L 469 0 
L 469 531 
Q 828 903 1448 1529 
Q 2069 2156 2228 2338 
Q 2531 2678 2651 2914 
Q 2772 3150 2772 3378 
Q 2772 3750 2511 3984 
Q 2250 4219 1831 4219 
Q 1534 4219 1204 4116 
Q 875 4013 500 3803 
L 500 4441 
Q 881 4594 1212 4672 
Q 1544 4750 1819 4750 
Q 2544 4750 2975 4387 
Q 3406 4025 3406 3419 
Q 3406 3131 3298 2873 
Q 3191 2616 2906 2266 
Q 2828 2175 2409 1742 
Q 1991 1309 1228 531 
z
" transform="scale(0.015625)"/>
       </defs>
       <use xlink:href="#DejaVuSans-2212"/>
       <use xlink:href="#DejaVuSans-30" transform="translate(83.789062 0)"/>
       <use xlink:href="#DejaVuSans-2e" transform="translate(147.412109 0)"/>
       <use xlink:href="#DejaVuSans-32" transform="translate(179.199219 0)"/>
      </g>
     </g>
    </g>
    <g id="ytick_2">
     <g id="line2d_15">
      <path d="M 47.961178 113.184821 
L 428.99976 113.184821 
" clip-path="url(#p8fc7f61197)" style="fill: none; stroke: #b0b0b0; stroke-width: 0.8; stroke-linecap: square"/>
     </g>
     <g id="line2d_16">
      <g>
       <use xlink:href="#m141324de42" x="47.961178" y="113.184821" style="stroke: #000000; stroke-width: 0.8"/>
      </g>
     </g>
     <g id="text_3">
      <!-- −0.1 -->
      <g transform="translate(16.678365 116.984039) scale(0.1 -0.1)">
       <defs>
        <path id="DejaVuSans-31" d="M 794 531 
L 1825 531 
L 1825 4091 
L 703 3866 
L 703 4441 
L 1819 4666 
L 2450 4666 
L 2450 531 
L 3481 531 
L 3481 0 
L 794 0 
L 794 531 
z
" transform="scale(0.015625)"/>
       </defs>
       <use xlink:href="#DejaVuSans-2212"/>
       <use xlink:href="#DejaVuSans-30" transform="translate(83.789062 0)"/>
       <use xlink:href="#DejaVuSans-2e" transform="translate(147.412109 0)"/>
       <use xlink:href="#DejaVuSans-31" transform="translate(179.199219 0)"/>
      </g>
     </g>
    </g>
    <g id="ytick_3">
     <g id="line2d_17">
      <path d="M 47.961178 89.469331 
L 428.99976 89.469331 
" clip-path="url(#p8fc7f61197)" style="fill: none; stroke: #b0b0b0; stroke-width: 0.8; stroke-linecap: square"/>
     </g>
     <g id="line2d_18">
      <g>
       <use xlink:href="#m141324de42" x="47.961178" y="89.469331" style="stroke: #000000; stroke-width: 0.8"/>
      </g>
     </g>
     <g id="text_4">
      <!-- 0.0 -->
      <g transform="translate(25.058053 93.26855) scale(0.1 -0.1)">
       <use xlink:href="#DejaVuSans-30"/>
       <use xlink:href="#DejaVuSans-2e" transform="translate(63.623047 0)"/>
       <use xlink:href="#DejaVuSans-30" transform="translate(95.410156 0)"/>
      </g>
     </g>
    </g>
    <g id="ytick_4">
     <g id="line2d_19">
      <path d="M 47.961178 65.753841 
L 428.99976 65.753841 
" clip-path="url(#p8fc7f61197)" style="fill: none; stroke: #b0b0b0; stroke-width: 0.8; stroke-linecap: square"/>
     </g>
     <g id="line2d_20">
      <g>
       <use xlink:href="#m141324de42" x="47.961178" y="65.753841" style="stroke: #000000; stroke-width: 0.8"/>
      </g>
     </g>
     <g id="text_5">
      <!-- 0.1 -->
      <g transform="translate(25.058053 69.55306) scale(0.1 -0.1)">
       <use xlink:href="#DejaVuSans-30"/>
       <use xlink:href="#DejaVuSans-2e" transform="translate(63.623047 0)"/>
       <use xlink:href="#DejaVuSans-31" transform="translate(95.410156 0)"/>
      </g>
     </g>
    </g>
    <g id="ytick_5">
     <g id="line2d_21">
      <path d="M 47.961178 42.038351 
L 428.99976 42.038351 
" clip-path="url(#p8fc7f61197)" style="fill: none; stroke: #b0b0b0; stroke-width: 0.8; stroke-linecap: square"/>
     </g>
     <g id="line2d_22">
      <g>
       <use xlink:href="#m141324de42" x="47.961178" y="42.038351" style="stroke: #000000; stroke-width: 0.8"/>
      </g>
     </g>
     <g id="text_6">
      <!-- 0.2 -->
      <g transform="translate(25.058053 45.83757) scale(0.1 -0.1)">
       <use xlink:href="#DejaVuSans-30"/>
       <use xlink:href="#DejaVuSans-2e" transform="translate(63.623047 0)"/>
       <use xlink:href="#DejaVuSans-32" transform="translate(95.410156 0)"/>
      </g>
     </g>
    </g>
    <g id="ytick_6">
     <g id="line2d_23">
      <path d="M 47.961178 18.322862 
L 428.99976 18.322862 
" clip-path="url(#p8fc7f61197)" style="fill: none; stroke: #b0b0b0; stroke-width: 0.8; stroke-linecap: square"/>
     </g>
     <g id="line2d_24">
      <g>
       <use xlink:href="#m141324de42" x="47.961178" y="18.322862" style="stroke: #000000; stroke-width: 0.8"/>
      </g>
     </g>
     <g id="text_7">
      <!-- 0.3 -->
      <g transform="translate(25.058053 22.12208) scale(0.1 -0.1)">
       <defs>
        <path id="DejaVuSans-33" d="M 2597 2516 
Q 3050 2419 3304 2112 
Q 3559 1806 3559 1356 
Q 3559 666 3084 287 
Q 2609 -91 1734 -91 
Q 1441 -91 1130 -33 
Q 819 25 488 141 
L 488 750 
Q 750 597 1062 519 
Q 1375 441 1716 441 
Q 2309 441 2620 675 
Q 2931 909 2931 1356 
Q 2931 1769 2642 2001 
Q 2353 2234 1838 2234 
L 1294 2234 
L 1294 2753 
L 1863 2753 
Q 2328 2753 2575 2939 
Q 2822 3125 2822 3475 
Q 2822 3834 2567 4026 
Q 2313 4219 1838 4219 
Q 1578 4219 1281 4162 
Q 984 4106 628 3988 
L 628 4550 
Q 988 4650 1302 4700 
Q 1616 4750 1894 4750 
Q 2613 4750 3031 4423 
Q 3450 4097 3450 3541 
Q 3450 3153 3228 2886 
Q 3006 2619 2597 2516 
z
" transform="scale(0.015625)"/>
       </defs>
       <use xlink:href="#DejaVuSans-30"/>
       <use xlink:href="#DejaVuSans-2e" transform="translate(63.623047 0)"/>
       <use xlink:href="#DejaVuSans-33" transform="translate(95.410156 0)"/>
      </g>
     </g>
    </g>
    <g id="text_8">
     <!-- v_x -->
     <g transform="translate(10.320553 94.094219) rotate(-90) scale(0.1 -0.1)">
      <defs>
       <path id="DejaVuSans-76" d="M 191 3500 
L 800 3500 
L 1894 563 
L 2988 3500 
L 3597 3500 
L 2284 0 
L 1503 0 
L 191 3500 
z
" transform="scale(0.015625)"/>
       <path id="DejaVuSans-5f" d="M 3263 -1063 
L 3263 -1509 
L -63 -1509 
L -63 -1063 
L 3263 -1063 
z
" transform="scale(0.015625)"/>
       <path id="DejaVuSans-78" d="M 3513 3500 
L 2247 1797 
L 3578 0 
L 2900 0 
L 1881 1375 
L 863 0 
L 184 0 
L 1544 1831 
L 300 3500 
L 978 3500 
L 1906 2253 
L 2834 3500 
L 3513 3500 
z
" transform="scale(0.015625)"/>
      </defs>
      <use xlink:href="#DejaVuSans-76"/>
      <use xlink:href="#DejaVuSans-5f" transform="translate(59.179688 0)"/>
      <use xlink:href="#DejaVuSans-78" transform="translate(109.179688 0)"/>
     </g>
    </g>
   </g>
   <g id="line2d_25">
    <path d="M 65.281113 89.648672 
L 66.28577 88.328289 
L 66.90935 87.849651 
L 67.22114 87.727034 
L 67.602217 87.595478 
L 68.26044 86.680316 
L 68.98795 85.341611 
L 69.40367 84.43151 
L 69.92332 82.671449 
L 71.516913 76.984498 
L 72.486927 72.583538 
L 74.669457 59.406003 
L 75.84733 54.440829 
L 76.436267 51.875218 
L 77.475567 45.381792 
L 77.960574 42.856545 
L 79.242377 37.971082 
L 79.727384 37.361237 
L 80.454894 36.276195 
L 81.217047 35.153264 
L 82.360277 32.131018 
L 83.018501 31.682322 
L 83.780654 31.365532 
L 84.092444 30.85694 
L 84.473521 29.427283 
L 85.027814 27.41666 
L 86.136401 24.275438 
L 86.344261 24.310337 
L 86.621408 24.522936 
L 87.002484 24.704522 
L 87.314274 24.971483 
L 88.803938 25.98175 
L 90.362888 26.58601 
L 90.709321 26.685809 
L 90.986468 27.022341 
L 91.748621 28.339687 
L 92.476131 28.677769 
L 92.718635 28.60598 
L 94.554732 27.156007 
L 94.797235 27.22562 
L 95.039738 27.660947 
L 95.455458 28.146227 
L 95.836535 28.551147 
L 96.390828 29.33755 
L 96.633332 29.278263 
L 97.360842 28.919341 
L 98.053708 28.869102 
L 98.711932 28.750144 
L 98.989078 29.034137 
L 100.548029 30.745572 
L 100.929105 30.67298 
L 101.171609 30.659482 
L 101.483399 30.893597 
L 101.829832 31.134008 
L 102.453412 31.223502 
L 102.903775 32.056175 
L 103.284852 32.606786 
L 103.700572 33.114469 
L 104.497369 34.546893 
L 104.982376 34.969436 
L 105.709886 35.560395 
L 107.130262 37.222917 
L 107.615269 37.840408 
L 108.446709 38.970212 
L 109.243506 39.695103 
L 110.421379 39.852245 
L 110.975673 40.254594 
L 111.218176 40.771688 
L 113.504636 46.923947 
L 114.162859 47.94159 
L 114.821083 48.607119 
L 115.513949 49.148525 
L 116.795753 50.764095 
L 117.835053 51.650677 
L 118.354703 51.750215 
L 119.012926 51.458812 
L 119.428646 51.761384 
L 120.1908 52.537551 
L 121.680463 55.000532 
L 123.62049 57.15087 
L 123.862993 57.114551 
L 124.417287 56.954494 
L 124.936937 57.168546 
L 125.456587 57.64702 
L 126.11481 58.12364 
L 126.495887 58.768715 
L 127.188754 60.028215 
L 127.916264 61.11559 
L 128.366627 61.730976 
L 128.886277 62.3719 
L 129.821647 63.785427 
L 130.202724 64.698867 
L 130.722374 65.752709 
L 131.20738 65.932377 
L 131.553814 66.069224 
L 131.796317 66.362501 
L 132.281324 67.323819 
L 132.870261 68.198761 
L 133.563127 68.91371 
L 134.463854 70.333373 
L 138.239978 73.850618 
L 138.690341 74.254672 
L 139.417851 74.912043 
L 139.729641 74.940032 
L 139.972144 74.683036 
L 140.526438 74.089799 
L 140.838228 74.22812 
L 141.565738 74.478101 
L 142.016101 74.461458 
L 142.466464 74.875364 
L 142.882185 75.377887 
L 143.332548 75.947473 
L 144.129345 76.769951 
L 145.307218 78.282414 
L 145.757581 78.190453 
L 145.965441 78.309038 
L 146.381161 78.617355 
L 146.866168 79.069831 
L 147.940111 80.246834 
L 148.840838 80.829147 
L 149.152628 81.280463 
L 149.602992 81.924193 
L 150.642292 82.652123 
L 151.161942 82.551179 
L 152.270528 82.836561 
L 152.790178 83.478079 
L 153.171255 83.776546 
L 153.760192 84.288967 
L 155.041995 85.227607 
L 155.527002 85.327411 
L 156.600945 85.481076 
L 157.085952 85.635895 
L 157.570959 85.679081 
L 157.917392 85.544289 
L 158.263825 85.208287 
L 158.852762 84.655122 
L 159.164552 84.576155 
L 159.788132 84.879676 
L 160.273139 85.089791 
L 161.000649 85.403039 
L 162.559599 86.234798 
L 163.702829 86.428895 
L 164.568913 86.369175 
L 164.915346 86.484108 
L 166.058576 87.356286 
L 166.474296 87.310061 
L 167.167163 87.022931 
L 167.444309 87.187122 
L 168.379679 87.918657 
L 170.215776 88.780175 
L 170.908643 89.117863 
L 171.60151 89.14028 
L 172.051873 89.124618 
L 173.57618 88.912312 
L 173.957256 89.021354 
L 175.273703 89.570103 
L 175.931927 90.305885 
L 176.313003 90.630888 
L 176.79801 90.725889 
L 177.179087 90.752382 
L 178.218387 90.815813 
L 178.841967 90.337994 
L 179.29233 90.123715 
L 180.054483 89.771181 
L 180.608777 89.557986 
L 180.989854 89.650678 
L 181.717364 89.854343 
L 182.92988 90.000748 
L 183.65739 90.467362 
L 184.558117 91.009042 
L 186.082424 91.643286 
L 188.230311 92.253792 
L 189.373541 93.391562 
L 190.066407 94.08723 
L 190.828561 94.416956 
L 191.313568 94.392438 
L 192.352868 94.308322 
L 194.085034 94.413995 
L 195.747914 95.268105 
L 197.341508 95.55909 
L 198.519381 95.430176 
L 199.177605 95.33061 
L 199.870471 95.33716 
L 200.355478 95.319932 
L 201.256205 95.269698 
L 201.775855 95.557387 
L 202.711225 95.98748 
L 203.126945 96.183989 
L 203.715882 96.704788 
L 204.893755 97.802033 
L 205.621265 98.209196 
L 209.743822 99.722243 
L 210.644549 99.658138 
L 211.891709 99.359661 
L 214.247456 98.247129 
L 215.113539 98.381213 
L 215.875692 98.629686 
L 218.300726 100.523895 
L 219.270739 101.526063 
L 219.755746 101.710134 
L 221.730416 102.104647 
L 223.116149 102.067549 
L 224.328666 101.890215 
L 225.991546 101.946443 
L 228.278006 101.365953 
L 228.93623 101.49451 
L 229.698383 101.905206 
L 231.153403 102.979264 
L 232.15806 103.867632 
L 233.266647 104.53564 
L 234.54845 104.892187 
L 235.79561 105.312128 
L 237.631707 105.872538 
L 238.567077 105.973327 
L 239.675664 105.875475 
L 241.996767 105.319607 
L 243.105354 104.87362 
L 243.763577 104.788106 
L 244.456444 104.979032 
L 244.976094 105.319805 
L 245.703604 106.140058 
L 247.608988 108.510781 
L 249.652944 110.933265 
L 250.519028 111.583316 
L 251.004035 111.735228 
L 251.627615 111.673303 
L 252.077978 111.430799 
L 252.666915 110.840811 
L 253.463711 110.092152 
L 254.018005 109.899952 
L 254.676228 109.980012 
L 256.235178 110.315029 
L 258.036632 111.1191 
L 259.179862 111.846714 
L 260.634882 112.891509 
L 263.267775 115.502878 
L 263.995285 115.79424 
L 265.519592 116.218198 
L 266.073885 116.381794 
L 267.147829 116.596477 
L 268.325702 116.897593 
L 269.884652 117.156757 
L 270.820022 117.03284 
L 272.067182 116.912591 
L 273.660776 117.317652 
L 274.838649 118.035517 
L 275.600803 118.871395 
L 276.605459 119.87536 
L 277.85262 120.786023 
L 278.649416 121.390358 
L 280.45087 122.946686 
L 281.07445 123.234 
L 281.732673 123.301518 
L 282.668043 123.46869 
L 283.603413 123.585555 
L 284.50414 123.681411 
L 287.240963 124.317488 
L 288.314907 124.365978 
L 290.73994 124.971386 
L 291.57138 125.423765 
L 293.095687 126.671233 
L 294.793211 128.307217 
L 296.075014 128.741106 
L 300.336144 130.062112 
L 300.959724 130.015456 
L 301.410088 129.759725 
L 302.795821 128.762325 
L 303.523331 128.518519 
L 303.904408 128.639051 
L 304.424058 129.116481 
L 307.611245 132.396691 
L 308.200181 132.761399 
L 308.789118 132.910567 
L 312.184165 133.186558 
L 313.015605 133.613554 
L 314.089548 134.079147 
L 315.821715 134.779955 
L 316.861015 134.623763 
L 317.727099 134.214484 
L 319.043545 133.719003 
L 319.771055 133.737148 
L 320.359992 133.941592 
L 321.226076 134.484359 
L 322.230732 135.435319 
L 323.477892 136.87783 
L 324.586479 138.075025 
L 325.383276 138.460212 
L 326.041499 138.52612 
L 326.491863 138.326894 
L 327.150086 137.775228 
L 328.016169 136.661679 
L 328.778323 135.835525 
L 329.297973 135.574124 
L 329.782979 135.585678 
L 331.030139 136.016831 
L 331.688363 136.55351 
L 333.351243 138.099713 
L 334.04411 138.749312 
L 334.633046 138.973609 
L 335.325913 138.974261 
L 337.612373 138.704041 
L 338.30524 138.845852 
L 339.44847 139.34876 
L 340.90349 140.077667 
L 343.08602 140.66394 
L 343.778887 140.58946 
L 344.43711 140.310908 
L 346.169277 139.624871 
L 346.966074 139.599375 
L 347.8668 139.77148 
L 348.836814 140.166636 
L 350.291834 140.662395 
L 351.227204 140.671328 
L 352.474364 140.576807 
L 353.132587 140.844738 
L 354.241174 141.321193 
L 355.938698 141.902966 
L 357.393718 141.893413 
L 358.675521 141.656741 
L 359.506961 142.068684 
L 360.511618 142.400086 
L 361.412345 142.446679 
L 361.966638 142.227178 
L 363.040581 141.691788 
L 364.079881 141.518449 
L 364.772748 141.657705 
L 365.396328 142.02705 
L 367.474928 143.405212 
L 368.410298 143.588992 
L 369.172452 143.531604 
L 370.246395 143.504055 
L 371.181765 143.702723 
L 372.290352 143.911244 
L 373.606799 143.693044 
L 374.576812 143.568078 
L 375.200392 143.75311 
L 376.690056 144.324286 
L 378.145076 144.651608 
L 379.184376 144.685732 
L 380.258319 144.452353 
L 381.193689 144.253701 
L 381.990486 144.121961 
L 382.925856 143.960368 
L 384.138373 144.20014 
L 385.350889 144.70861 
L 386.80591 145.325048 
L 388.226286 146.037844 
L 389.785236 146.338001 
L 390.374173 146.230055 
L 391.101683 145.817963 
L 393.04171 144.567358 
L 393.699933 144.45943 
L 394.254227 144.516393 
L 394.91245 144.872791 
L 395.882463 145.724472 
L 396.88712 146.587094 
L 397.787847 146.961343 
L 398.411427 147.090223 
L 398.96572 146.963624 
L 401.078964 146.400169 
L 402.533984 146.782103 
L 403.642571 147.078685 
L 405.617241 146.825934 
L 408.423351 146.12702 
L 410.190161 146.463648 
L 411.679824 146.929481 
L 411.679824 146.929481 
" clip-path="url(#p8fc7f61197)" style="fill: none; stroke: #0000ff; stroke-width: 2; stroke-linecap: square"/>
   </g>
   <g id="patch_3">
    <path d="M 47.961178 153.232572 
L 47.961178 18.118365 
" style="fill: none; stroke: #000000; stroke-width: 0.8; stroke-linejoin: miter; stroke-linecap: square"/>
   </g>
   <g id="patch_4">
    <path d="M 428.99976 153.232572 
L 428.99976 18.118365 
" style="fill: none; stroke: #000000; stroke-width: 0.8; stroke-linejoin: miter; stroke-linecap: square"/>
   </g>
   <g id="patch_5">
    <path d="M 47.961178 153.232572 
L 428.99976 153.232572 
" style="fill: none; stroke: #000000; stroke-width: 0.8; stroke-linejoin: miter; stroke-linecap: square"/>
   </g>
   <g id="patch_6">
    <path d="M 47.961178 18.118365 
L 428.99976 18.118365 
" style="fill: none; stroke: #000000; stroke-width: 0.8; stroke-linejoin: miter; stroke-linecap: square"/>
   </g>
   <g id="text_9">
    <!-- Mean velocity component v_x over time -->
    <g transform="translate(104.205156 12.118365) scale(0.12 -0.12)">
     <defs>
      <path id="DejaVuSans-Bold-4d" d="M 588 4666 
L 2119 4666 
L 3181 2169 
L 4250 4666 
L 5778 4666 
L 5778 0 
L 4641 0 
L 4641 3413 
L 3566 897 
L 2803 897 
L 1728 3413 
L 1728 0 
L 588 0 
L 588 4666 
z
" transform="scale(0.015625)"/>
      <path id="DejaVuSans-Bold-65" d="M 4031 1759 
L 4031 1441 
L 1416 1441 
Q 1456 1047 1700 850 
Q 1944 653 2381 653 
Q 2734 653 3104 758 
Q 3475 863 3866 1075 
L 3866 213 
Q 3469 63 3072 -14 
Q 2675 -91 2278 -91 
Q 1328 -91 801 392 
Q 275 875 275 1747 
Q 275 2603 792 3093 
Q 1309 3584 2216 3584 
Q 3041 3584 3536 3087 
Q 4031 2591 4031 1759 
z
M 2881 2131 
Q 2881 2450 2695 2645 
Q 2509 2841 2209 2841 
Q 1884 2841 1681 2658 
Q 1478 2475 1428 2131 
L 2881 2131 
z
" transform="scale(0.015625)"/>
      <path id="DejaVuSans-Bold-61" d="M 2106 1575 
Q 1756 1575 1579 1456 
Q 1403 1338 1403 1106 
Q 1403 894 1545 773 
Q 1688 653 1941 653 
Q 2256 653 2472 879 
Q 2688 1106 2688 1447 
L 2688 1575 
L 2106 1575 
z
M 3816 1997 
L 3816 0 
L 2688 0 
L 2688 519 
Q 2463 200 2181 54 
Q 1900 -91 1497 -91 
Q 953 -91 614 226 
Q 275 544 275 1050 
Q 275 1666 698 1953 
Q 1122 2241 2028 2241 
L 2688 2241 
L 2688 2328 
Q 2688 2594 2478 2717 
Q 2269 2841 1825 2841 
Q 1466 2841 1156 2769 
Q 847 2697 581 2553 
L 581 3406 
Q 941 3494 1303 3539 
Q 1666 3584 2028 3584 
Q 2975 3584 3395 3211 
Q 3816 2838 3816 1997 
z
" transform="scale(0.015625)"/>
      <path id="DejaVuSans-Bold-6e" d="M 4056 2131 
L 4056 0 
L 2931 0 
L 2931 347 
L 2931 1631 
Q 2931 2084 2911 2256 
Q 2891 2428 2841 2509 
Q 2775 2619 2662 2680 
Q 2550 2741 2406 2741 
Q 2056 2741 1856 2470 
Q 1656 2200 1656 1722 
L 1656 0 
L 538 0 
L 538 3500 
L 1656 3500 
L 1656 2988 
Q 1909 3294 2193 3439 
Q 2478 3584 2822 3584 
Q 3428 3584 3742 3212 
Q 4056 2841 4056 2131 
z
" transform="scale(0.015625)"/>
      <path id="DejaVuSans-Bold-20" transform="scale(0.015625)"/>
      <path id="DejaVuSans-Bold-76" d="M 97 3500 
L 1216 3500 
L 2088 1081 
L 2956 3500 
L 4078 3500 
L 2700 0 
L 1472 0 
L 97 3500 
z
" transform="scale(0.015625)"/>
      <path id="DejaVuSans-Bold-6c" d="M 538 4863 
L 1656 4863 
L 1656 0 
L 538 0 
L 538 4863 
z
" transform="scale(0.015625)"/>
      <path id="DejaVuSans-Bold-6f" d="M 2203 2784 
Q 1831 2784 1636 2517 
Q 1441 2250 1441 1747 
Q 1441 1244 1636 976 
Q 1831 709 2203 709 
Q 2569 709 2762 976 
Q 2956 1244 2956 1747 
Q 2956 2250 2762 2517 
Q 2569 2784 2203 2784 
z
M 2203 3584 
Q 3106 3584 3614 3096 
Q 4122 2609 4122 1747 
Q 4122 884 3614 396 
Q 3106 -91 2203 -91 
Q 1297 -91 786 396 
Q 275 884 275 1747 
Q 275 2609 786 3096 
Q 1297 3584 2203 3584 
z
" transform="scale(0.015625)"/>
      <path id="DejaVuSans-Bold-63" d="M 3366 3391 
L 3366 2478 
Q 3138 2634 2908 2709 
Q 2678 2784 2431 2784 
Q 1963 2784 1702 2511 
Q 1441 2238 1441 1747 
Q 1441 1256 1702 982 
Q 1963 709 2431 709 
Q 2694 709 2930 787 
Q 3166 866 3366 1019 
L 3366 103 
Q 3103 6 2833 -42 
Q 2563 -91 2291 -91 
Q 1344 -91 809 395 
Q 275 881 275 1747 
Q 275 2613 809 3098 
Q 1344 3584 2291 3584 
Q 2566 3584 2833 3536 
Q 3100 3488 3366 3391 
z
" transform="scale(0.015625)"/>
      <path id="DejaVuSans-Bold-69" d="M 538 3500 
L 1656 3500 
L 1656 0 
L 538 0 
L 538 3500 
z
M 538 4863 
L 1656 4863 
L 1656 3950 
L 538 3950 
L 538 4863 
z
" transform="scale(0.015625)"/>
      <path id="DejaVuSans-Bold-74" d="M 1759 4494 
L 1759 3500 
L 2913 3500 
L 2913 2700 
L 1759 2700 
L 1759 1216 
Q 1759 972 1856 886 
Q 1953 800 2241 800 
L 2816 800 
L 2816 0 
L 1856 0 
Q 1194 0 917 276 
Q 641 553 641 1216 
L 641 2700 
L 84 2700 
L 84 3500 
L 641 3500 
L 641 4494 
L 1759 4494 
z
" transform="scale(0.015625)"/>
      <path id="DejaVuSans-Bold-79" d="M 78 3500 
L 1197 3500 
L 2138 1125 
L 2938 3500 
L 4056 3500 
L 2584 -331 
Q 2363 -916 2067 -1148 
Q 1772 -1381 1288 -1381 
L 641 -1381 
L 641 -647 
L 991 -647 
Q 1275 -647 1404 -556 
Q 1534 -466 1606 -231 
L 1638 -134 
L 78 3500 
z
" transform="scale(0.015625)"/>
      <path id="DejaVuSans-Bold-6d" d="M 3781 2919 
Q 3994 3244 4286 3414 
Q 4578 3584 4928 3584 
Q 5531 3584 5847 3212 
Q 6163 2841 6163 2131 
L 6163 0 
L 5038 0 
L 5038 1825 
Q 5041 1866 5042 1909 
Q 5044 1953 5044 2034 
Q 5044 2406 4934 2573 
Q 4825 2741 4581 2741 
Q 4263 2741 4089 2478 
Q 3916 2216 3909 1719 
L 3909 0 
L 2784 0 
L 2784 1825 
Q 2784 2406 2684 2573 
Q 2584 2741 2328 2741 
Q 2006 2741 1831 2477 
Q 1656 2213 1656 1722 
L 1656 0 
L 531 0 
L 531 3500 
L 1656 3500 
L 1656 2988 
Q 1863 3284 2130 3434 
Q 2397 3584 2719 3584 
Q 3081 3584 3359 3409 
Q 3638 3234 3781 2919 
z
" transform="scale(0.015625)"/>
      <path id="DejaVuSans-Bold-70" d="M 1656 506 
L 1656 -1331 
L 538 -1331 
L 538 3500 
L 1656 3500 
L 1656 2988 
Q 1888 3294 2169 3439 
Q 2450 3584 2816 3584 
Q 3463 3584 3878 3070 
Q 4294 2556 4294 1747 
Q 4294 938 3878 423 
Q 3463 -91 2816 -91 
Q 2450 -91 2169 54 
Q 1888 200 1656 506 
z
M 2400 2772 
Q 2041 2772 1848 2508 
Q 1656 2244 1656 1747 
Q 1656 1250 1848 986 
Q 2041 722 2400 722 
Q 2759 722 2948 984 
Q 3138 1247 3138 1747 
Q 3138 2247 2948 2509 
Q 2759 2772 2400 2772 
z
" transform="scale(0.015625)"/>
      <path id="DejaVuSans-Bold-5f" d="M 3200 -916 
L 3200 -1509 
L 0 -1509 
L 0 -916 
L 3200 -916 
z
" transform="scale(0.015625)"/>
      <path id="DejaVuSans-Bold-78" d="M 1422 1791 
L 159 3500 
L 1344 3500 
L 2059 2463 
L 2784 3500 
L 3969 3500 
L 2706 1797 
L 4031 0 
L 2847 0 
L 2059 1106 
L 1281 0 
L 97 0 
L 1422 1791 
z
" transform="scale(0.015625)"/>
      <path id="DejaVuSans-Bold-72" d="M 3138 2547 
Q 2991 2616 2845 2648 
Q 2700 2681 2553 2681 
Q 2122 2681 1889 2404 
Q 1656 2128 1656 1613 
L 1656 0 
L 538 0 
L 538 3500 
L 1656 3500 
L 1656 2925 
Q 1872 3269 2151 3426 
Q 2431 3584 2822 3584 
Q 2878 3584 2943 3579 
Q 3009 3575 3134 3559 
L 3138 2547 
z
" transform="scale(0.015625)"/>
     </defs>
     <use xlink:href="#DejaVuSans-Bold-4d"/>
     <use xlink:href="#DejaVuSans-Bold-65" transform="translate(99.511719 0)"/>
     <use xlink:href="#DejaVuSans-Bold-61" transform="translate(167.333984 0)"/>
     <use xlink:href="#DejaVuSans-Bold-6e" transform="translate(234.814453 0)"/>
     <use xlink:href="#DejaVuSans-Bold-20" transform="translate(306.005859 0)"/>
     <use xlink:href="#DejaVuSans-Bold-76" transform="translate(340.820312 0)"/>
     <use xlink:href="#DejaVuSans-Bold-65" transform="translate(406.005859 0)"/>
     <use xlink:href="#DejaVuSans-Bold-6c" transform="translate(473.828125 0)"/>
     <use xlink:href="#DejaVuSans-Bold-6f" transform="translate(508.105469 0)"/>
     <use xlink:href="#DejaVuSans-Bold-63" transform="translate(576.806641 0)"/>
     <use xlink:href="#DejaVuSans-Bold-69" transform="translate(636.083984 0)"/>
     <use xlink:href="#DejaVuSans-Bold-74" transform="translate(670.361328 0)"/>
     <use xlink:href="#DejaVuSans-Bold-79" transform="translate(718.164062 0)"/>
     <use xlink:href="#DejaVuSans-Bold-20" transform="translate(783.349609 0)"/>
     <use xlink:href="#DejaVuSans-Bold-63" transform="translate(818.164062 0)"/>
     <use xlink:href="#DejaVuSans-Bold-6f" transform="translate(877.441406 0)"/>
     <use xlink:href="#DejaVuSans-Bold-6d" transform="translate(946.142578 0)"/>
     <use xlink:href="#DejaVuSans-Bold-70" transform="translate(1050.341797 0)"/>
     <use xlink:href="#DejaVuSans-Bold-6f" transform="translate(1121.923828 0)"/>
     <use xlink:href="#DejaVuSans-Bold-6e" transform="translate(1190.625 0)"/>
     <use xlink:href="#DejaVuSans-Bold-65" transform="translate(1261.816406 0)"/>
     <use xlink:href="#DejaVuSans-Bold-6e" transform="translate(1329.638672 0)"/>
     <use xlink:href="#DejaVuSans-Bold-74" transform="translate(1400.830078 0)"/>
     <use xlink:href="#DejaVuSans-Bold-20" transform="translate(1448.632812 0)"/>
     <use xlink:href="#DejaVuSans-Bold-76" transform="translate(1483.447266 0)"/>
     <use xlink:href="#DejaVuSans-Bold-5f" transform="translate(1548.632812 0)"/>
     <use xlink:href="#DejaVuSans-Bold-78" transform="translate(1598.632812 0)"/>
     <use xlink:href="#DejaVuSans-Bold-20" transform="translate(1663.134766 0)"/>
     <use xlink:href="#DejaVuSans-Bold-6f" transform="translate(1697.949219 0)"/>
     <use xlink:href="#DejaVuSans-Bold-76" transform="translate(1766.650391 0)"/>
     <use xlink:href="#DejaVuSans-Bold-65" transform="translate(1831.835938 0)"/>
     <use xlink:href="#DejaVuSans-Bold-72" transform="translate(1899.658203 0)"/>
     <use xlink:href="#DejaVuSans-Bold-20" transform="translate(1948.974609 0)"/>
     <use xlink:href="#DejaVuSans-Bold-74" transform="translate(1983.789062 0)"/>
     <use xlink:href="#DejaVuSans-Bold-69" transform="translate(2031.591797 0)"/>
     <use xlink:href="#DejaVuSans-Bold-6d" transform="translate(2065.869141 0)"/>
     <use xlink:href="#DejaVuSans-Bold-65" transform="translate(2170.068359 0)"/>
    </g>
   </g>
  </g>
  <g id="axes_2">
   <g id="patch_7">
    <path d="M 47.961178 326.64351 
L 428.99976 326.64351 
L 428.99976 191.529302 
L 47.961178 191.529302 
z
" style="fill: #ffffff"/>
   </g>
   <g id="matplotlib.axis_3">
    <g id="xtick_7">
     <g id="line2d_26">
      <path d="M 65.24647 326.64351 
L 65.24647 191.529302 
" clip-path="url(#p69fdff247c)" style="fill: none; stroke: #b0b0b0; stroke-width: 0.8; stroke-linecap: square"/>
     </g>
     <g id="line2d_27">
      <g>
       <use xlink:href="#m1aecdb10b3" x="65.24647" y="326.64351" style="stroke: #000000; stroke-width: 0.8"/>
      </g>
     </g>
     <g id="text_10">
      <!-- 0 -->
      <g transform="translate(62.06522 341.241947) scale(0.1 -0.1)">
       <use xlink:href="#DejaVuSans-30"/>
      </g>
     </g>
    </g>
    <g id="xtick_8">
     <g id="line2d_28">
      <path d="M 134.533141 326.64351 
L 134.533141 191.529302 
" clip-path="url(#p69fdff247c)" style="fill: none; stroke: #b0b0b0; stroke-width: 0.8; stroke-linecap: square"/>
     </g>
     <g id="line2d_29">
      <g>
       <use xlink:href="#m1aecdb10b3" x="134.533141" y="326.64351" style="stroke: #000000; stroke-width: 0.8"/>
      </g>
     </g>
     <g id="text_11">
      <!-- 2000 -->
      <g transform="translate(121.808141 341.241947) scale(0.1 -0.1)">
       <use xlink:href="#DejaVuSans-32"/>
       <use xlink:href="#DejaVuSans-30" transform="translate(63.623047 0)"/>
       <use xlink:href="#DejaVuSans-30" transform="translate(127.246094 0)"/>
       <use xlink:href="#DejaVuSans-30" transform="translate(190.869141 0)"/>
      </g>
     </g>
    </g>
    <g id="xtick_9">
     <g id="line2d_30">
      <path d="M 203.819812 326.64351 
L 203.819812 191.529302 
" clip-path="url(#p69fdff247c)" style="fill: none; stroke: #b0b0b0; stroke-width: 0.8; stroke-linecap: square"/>
     </g>
     <g id="line2d_31">
      <g>
       <use xlink:href="#m1aecdb10b3" x="203.819812" y="326.64351" style="stroke: #000000; stroke-width: 0.8"/>
      </g>
     </g>
     <g id="text_12">
      <!-- 4000 -->
      <g transform="translate(191.094812 341.241947) scale(0.1 -0.1)">
       <defs>
        <path id="DejaVuSans-34" d="M 2419 4116 
L 825 1625 
L 2419 1625 
L 2419 4116 
z
M 2253 4666 
L 3047 4666 
L 3047 1625 
L 3713 1625 
L 3713 1100 
L 3047 1100 
L 3047 0 
L 2419 0 
L 2419 1100 
L 313 1100 
L 313 1709 
L 2253 4666 
z
" transform="scale(0.015625)"/>
       </defs>
       <use xlink:href="#DejaVuSans-34"/>
       <use xlink:href="#DejaVuSans-30" transform="translate(63.623047 0)"/>
       <use xlink:href="#DejaVuSans-30" transform="translate(127.246094 0)"/>
       <use xlink:href="#DejaVuSans-30" transform="translate(190.869141 0)"/>
      </g>
     </g>
    </g>
    <g id="xtick_10">
     <g id="line2d_32">
      <path d="M 273.106483 326.64351 
L 273.106483 191.529302 
" clip-path="url(#p69fdff247c)" style="fill: none; stroke: #b0b0b0; stroke-width: 0.8; stroke-linecap: square"/>
     </g>
     <g id="line2d_33">
      <g>
       <use xlink:href="#m1aecdb10b3" x="273.106483" y="326.64351" style="stroke: #000000; stroke-width: 0.8"/>
      </g>
     </g>
     <g id="text_13">
      <!-- 6000 -->
      <g transform="translate(260.381483 341.241947) scale(0.1 -0.1)">
       <defs>
        <path id="DejaVuSans-36" d="M 2113 2584 
Q 1688 2584 1439 2293 
Q 1191 2003 1191 1497 
Q 1191 994 1439 701 
Q 1688 409 2113 409 
Q 2538 409 2786 701 
Q 3034 994 3034 1497 
Q 3034 2003 2786 2293 
Q 2538 2584 2113 2584 
z
M 3366 4563 
L 3366 3988 
Q 3128 4100 2886 4159 
Q 2644 4219 2406 4219 
Q 1781 4219 1451 3797 
Q 1122 3375 1075 2522 
Q 1259 2794 1537 2939 
Q 1816 3084 2150 3084 
Q 2853 3084 3261 2657 
Q 3669 2231 3669 1497 
Q 3669 778 3244 343 
Q 2819 -91 2113 -91 
Q 1303 -91 875 529 
Q 447 1150 447 2328 
Q 447 3434 972 4092 
Q 1497 4750 2381 4750 
Q 2619 4750 2861 4703 
Q 3103 4656 3366 4563 
z
" transform="scale(0.015625)"/>
       </defs>
       <use xlink:href="#DejaVuSans-36"/>
       <use xlink:href="#DejaVuSans-30" transform="translate(63.623047 0)"/>
       <use xlink:href="#DejaVuSans-30" transform="translate(127.246094 0)"/>
       <use xlink:href="#DejaVuSans-30" transform="translate(190.869141 0)"/>
      </g>
     </g>
    </g>
    <g id="xtick_11">
     <g id="line2d_34">
      <path d="M 342.393153 326.64351 
L 342.393153 191.529302 
" clip-path="url(#p69fdff247c)" style="fill: none; stroke: #b0b0b0; stroke-width: 0.8; stroke-linecap: square"/>
     </g>
     <g id="line2d_35">
      <g>
       <use xlink:href="#m1aecdb10b3" x="342.393153" y="326.64351" style="stroke: #000000; stroke-width: 0.8"/>
      </g>
     </g>
     <g id="text_14">
      <!-- 8000 -->
      <g transform="translate(329.668153 341.241947) scale(0.1 -0.1)">
       <defs>
        <path id="DejaVuSans-38" d="M 2034 2216 
Q 1584 2216 1326 1975 
Q 1069 1734 1069 1313 
Q 1069 891 1326 650 
Q 1584 409 2034 409 
Q 2484 409 2743 651 
Q 3003 894 3003 1313 
Q 3003 1734 2745 1975 
Q 2488 2216 2034 2216 
z
M 1403 2484 
Q 997 2584 770 2862 
Q 544 3141 544 3541 
Q 544 4100 942 4425 
Q 1341 4750 2034 4750 
Q 2731 4750 3128 4425 
Q 3525 4100 3525 3541 
Q 3525 3141 3298 2862 
Q 3072 2584 2669 2484 
Q 3125 2378 3379 2068 
Q 3634 1759 3634 1313 
Q 3634 634 3220 271 
Q 2806 -91 2034 -91 
Q 1263 -91 848 271 
Q 434 634 434 1313 
Q 434 1759 690 2068 
Q 947 2378 1403 2484 
z
M 1172 3481 
Q 1172 3119 1398 2916 
Q 1625 2713 2034 2713 
Q 2441 2713 2670 2916 
Q 2900 3119 2900 3481 
Q 2900 3844 2670 4047 
Q 2441 4250 2034 4250 
Q 1625 4250 1398 4047 
Q 1172 3844 1172 3481 
z
" transform="scale(0.015625)"/>
       </defs>
       <use xlink:href="#DejaVuSans-38"/>
       <use xlink:href="#DejaVuSans-30" transform="translate(63.623047 0)"/>
       <use xlink:href="#DejaVuSans-30" transform="translate(127.246094 0)"/>
       <use xlink:href="#DejaVuSans-30" transform="translate(190.869141 0)"/>
      </g>
     </g>
    </g>
    <g id="xtick_12">
     <g id="line2d_36">
      <path d="M 411.679824 326.64351 
L 411.679824 191.529302 
" clip-path="url(#p69fdff247c)" style="fill: none; stroke: #b0b0b0; stroke-width: 0.8; stroke-linecap: square"/>
     </g>
     <g id="line2d_37">
      <g>
       <use xlink:href="#m1aecdb10b3" x="411.679824" y="326.64351" style="stroke: #000000; stroke-width: 0.8"/>
      </g>
     </g>
     <g id="text_15">
      <!-- 10000 -->
      <g transform="translate(395.773574 341.241947) scale(0.1 -0.1)">
       <use xlink:href="#DejaVuSans-31"/>
       <use xlink:href="#DejaVuSans-30" transform="translate(63.623047 0)"/>
       <use xlink:href="#DejaVuSans-30" transform="translate(127.246094 0)"/>
       <use xlink:href="#DejaVuSans-30" transform="translate(190.869141 0)"/>
       <use xlink:href="#DejaVuSans-30" transform="translate(254.492188 0)"/>
      </g>
     </g>
    </g>
    <g id="text_16">
     <!-- timestep -->
     <g transform="translate(216.36875 354.920073) scale(0.1 -0.1)">
      <use xlink:href="#DejaVuSans-74"/>
      <use xlink:href="#DejaVuSans-69" transform="translate(39.208984 0)"/>
      <use xlink:href="#DejaVuSans-6d" transform="translate(66.992188 0)"/>
      <use xlink:href="#DejaVuSans-65" transform="translate(164.404297 0)"/>
      <use xlink:href="#DejaVuSans-73" transform="translate(225.927734 0)"/>
      <use xlink:href="#DejaVuSans-74" transform="translate(278.027344 0)"/>
      <use xlink:href="#DejaVuSans-65" transform="translate(317.236328 0)"/>
      <use xlink:href="#DejaVuSans-70" transform="translate(378.759766 0)"/>
     </g>
    </g>
   </g>
   <g id="matplotlib.axis_4">
    <g id="ytick_7">
     <g id="line2d_38">
      <path d="M 47.961178 306.889462 
L 428.99976 306.889462 
" clip-path="url(#p69fdff247c)" style="fill: none; stroke: #b0b0b0; stroke-width: 0.8; stroke-linecap: square"/>
     </g>
     <g id="line2d_39">
      <g>
       <use xlink:href="#m141324de42" x="47.961178" y="306.889462" style="stroke: #000000; stroke-width: 0.8"/>
      </g>
     </g>
     <g id="text_17">
      <!-- −0.1 -->
      <g transform="translate(16.678365 310.688681) scale(0.1 -0.1)">
       <use xlink:href="#DejaVuSans-2212"/>
       <use xlink:href="#DejaVuSans-30" transform="translate(83.789062 0)"/>
       <use xlink:href="#DejaVuSans-2e" transform="translate(147.412109 0)"/>
       <use xlink:href="#DejaVuSans-31" transform="translate(179.199219 0)"/>
      </g>
     </g>
    </g>
    <g id="ytick_8">
     <g id="line2d_40">
      <path d="M 47.961178 276.823085 
L 428.99976 276.823085 
" clip-path="url(#p69fdff247c)" style="fill: none; stroke: #b0b0b0; stroke-width: 0.8; stroke-linecap: square"/>
     </g>
     <g id="line2d_41">
      <g>
       <use xlink:href="#m141324de42" x="47.961178" y="276.823085" style="stroke: #000000; stroke-width: 0.8"/>
      </g>
     </g>
     <g id="text_18">
      <!-- 0.0 -->
      <g transform="translate(25.058053 280.622304) scale(0.1 -0.1)">
       <use xlink:href="#DejaVuSans-30"/>
       <use xlink:href="#DejaVuSans-2e" transform="translate(63.623047 0)"/>
       <use xlink:href="#DejaVuSans-30" transform="translate(95.410156 0)"/>
      </g>
     </g>
    </g>
    <g id="ytick_9">
     <g id="line2d_42">
      <path d="M 47.961178 246.756707 
L 428.99976 246.756707 
" clip-path="url(#p69fdff247c)" style="fill: none; stroke: #b0b0b0; stroke-width: 0.8; stroke-linecap: square"/>
     </g>
     <g id="line2d_43">
      <g>
       <use xlink:href="#m141324de42" x="47.961178" y="246.756707" style="stroke: #000000; stroke-width: 0.8"/>
      </g>
     </g>
     <g id="text_19">
      <!-- 0.1 -->
      <g transform="translate(25.058053 250.555926) scale(0.1 -0.1)">
       <use xlink:href="#DejaVuSans-30"/>
       <use xlink:href="#DejaVuSans-2e" transform="translate(63.623047 0)"/>
       <use xlink:href="#DejaVuSans-31" transform="translate(95.410156 0)"/>
      </g>
     </g>
    </g>
    <g id="ytick_10">
     <g id="line2d_44">
      <path d="M 47.961178 216.69033 
L 428.99976 216.69033 
" clip-path="url(#p69fdff247c)" style="fill: none; stroke: #b0b0b0; stroke-width: 0.8; stroke-linecap: square"/>
     </g>
     <g id="line2d_45">
      <g>
       <use xlink:href="#m141324de42" x="47.961178" y="216.69033" style="stroke: #000000; stroke-width: 0.8"/>
      </g>
     </g>
     <g id="text_20">
      <!-- 0.2 -->
      <g transform="translate(25.058053 220.489549) scale(0.1 -0.1)">
       <use xlink:href="#DejaVuSans-30"/>
       <use xlink:href="#DejaVuSans-2e" transform="translate(63.623047 0)"/>
       <use xlink:href="#DejaVuSans-32" transform="translate(95.410156 0)"/>
      </g>
     </g>
    </g>
    <g id="text_21">
     <!-- v_y -->
     <g transform="translate(10.320553 267.505156) rotate(-90) scale(0.1 -0.1)">
      <defs>
       <path id="DejaVuSans-79" d="M 2059 -325 
Q 1816 -950 1584 -1140 
Q 1353 -1331 966 -1331 
L 506 -1331 
L 506 -850 
L 844 -850 
Q 1081 -850 1212 -737 
Q 1344 -625 1503 -206 
L 1606 56 
L 191 3500 
L 800 3500 
L 1894 763 
L 2988 3500 
L 3597 3500 
L 2059 -325 
z
" transform="scale(0.015625)"/>
      </defs>
      <use xlink:href="#DejaVuSans-76"/>
      <use xlink:href="#DejaVuSans-5f" transform="translate(59.179688 0)"/>
      <use xlink:href="#DejaVuSans-79" transform="translate(109.179688 0)"/>
     </g>
    </g>
   </g>
   <g id="line2d_46">
    <path d="M 65.281113 276.751164 
L 65.627546 276.125127 
L 66.251126 275.070752 
L 66.49363 275.007491 
L 66.736133 274.997212 
L 67.11721 274.94261 
L 67.429 275.032163 
L 67.567573 274.846908 
L 68.017937 273.679866 
L 68.329727 273.200539 
L 68.67616 272.670093 
L 69.022593 272.236335 
L 69.542243 271.899316 
L 69.81939 271.177703 
L 70.512257 268.384673 
L 71.967277 261.390656 
L 72.382997 258.503514 
L 74.634814 240.791292 
L 75.466254 235.716147 
L 77.163777 225.828839 
L 77.856644 220.893638 
L 79.138447 214.53624 
L 79.554167 213.409193 
L 79.935244 212.400424 
L 80.558824 209.932006 
L 81.320977 205.919667 
L 82.290991 201.865512 
L 82.672067 201.730383 
L 82.949214 201.584241 
L 83.434221 201.122113 
L 83.468864 201.153621 
L 84.438878 201.924674 
L 84.716024 201.603284 
L 84.958528 200.923565 
L 85.789968 198.13077 
L 86.136401 197.784857 
L 86.725338 197.756804 
L 87.244988 198.204422 
L 87.695351 198.957101 
L 88.630721 200.394472 
L 88.942511 200.466018 
L 89.185015 200.378564 
L 89.427518 200.032252 
L 89.912525 199.235109 
L 90.362888 198.5324 
L 90.778608 197.878492 
L 91.055755 197.682081 
L 91.298258 197.704019 
L 91.540761 198.01711 
L 91.956481 198.482617 
L 93.134355 199.371715 
L 93.480788 199.285892 
L 94.104368 198.840327 
L 94.450802 199.269663 
L 95.039738 199.987011 
L 95.940465 200.584559 
L 96.252255 200.999465 
L 96.702618 201.953655 
L 97.187625 203.184112 
L 97.430128 203.209707 
L 97.776562 203.220413 
L 98.088352 203.5605 
L 98.608002 204.102792 
L 99.127652 204.374266 
L 99.993735 205.364257 
L 100.340169 205.163896 
L 100.721245 204.618319 
L 101.344825 203.549882 
L 101.656615 203.347123 
L 101.864475 203.142682 
L 102.280195 202.59752 
L 102.522699 202.867341 
L 104.047005 205.065933 
L 105.086306 207.190573 
L 105.432739 207.61389 
L 105.987032 208.146955 
L 106.575969 208.529736 
L 106.922402 208.816202 
L 107.615269 210.114652 
L 109.382079 215.584562 
L 109.624582 215.75675 
L 110.040302 215.850663 
L 110.317449 216.289734 
L 112.430693 221.312921 
L 113.435349 222.860854 
L 114.543936 224.316181 
L 114.959656 225.383195 
L 115.583236 227.087712 
L 117.107543 228.858311 
L 118.1122 229.899514 
L 118.874353 231.156418 
L 119.636506 232.036363 
L 120.467946 233.839176 
L 120.952953 234.784505 
L 121.888323 235.85379 
L 122.442617 236.534706 
L 122.99691 236.914309 
L 124.24407 238.275665 
L 124.798363 238.434161 
L 125.07551 238.908322 
L 126.253383 241.29041 
L 126.773034 241.904438 
L 127.188754 242.438302 
L 128.19341 244.533635 
L 128.539844 245.551157 
L 128.955564 246.617757 
L 129.579144 247.50359 
L 130.029507 247.798311 
L 130.618444 247.774624 
L 131.553814 248.516523 
L 132.004177 248.749809 
L 134.048134 251.238273 
L 134.394567 251.568193 
L 134.741001 251.342479 
L 135.641727 250.493599 
L 136.057447 250.538164 
L 136.403881 250.84667 
L 137.062104 251.522545 
L 138.586411 252.789594 
L 139.279278 253.630439 
L 140.318578 255.358937 
L 141.946814 256.274984 
L 143.367191 257.427955 
L 144.060058 257.674167 
L 144.337205 258.10366 
L 144.995428 259.103154 
L 145.480435 259.491439 
L 145.896155 259.961636 
L 147.039385 260.619447 
L 148.147972 262.08074 
L 149.429775 264.019152 
L 150.261215 264.471371 
L 150.711578 264.244921 
L 151.473732 263.592652 
L 152.062668 263.429168 
L 152.409102 263.498495 
L 153.101968 263.558554 
L 153.760192 263.965496 
L 154.903422 265.033684 
L 155.249855 265.026299 
L 155.527002 264.994516 
L 156.462372 265.292706 
L 156.739519 265.469189 
L 157.640245 266.356517 
L 158.229182 266.882198 
L 159.857419 267.437651 
L 160.446356 268.045086 
L 161.312439 268.890305 
L 162.663529 269.612985 
L 163.183179 269.876883 
L 163.668186 270.108139 
L 163.979976 270.066935 
L 164.361053 269.931328 
L 164.603556 270.043182 
L 165.192493 270.441851 
L 165.573569 270.363677 
L 166.612869 269.526262 
L 167.444309 269.637639 
L 168.379679 270.059906 
L 168.691469 270.317202 
L 169.453623 271.528538 
L 170.111846 272.278095 
L 170.735426 272.686807 
L 171.18579 272.985849 
L 171.70544 273.221792 
L 174.546193 272.908543 
L 174.961913 272.911203 
L 175.377633 272.624481 
L 176.347647 271.600282 
L 177.352303 271.086351 
L 178.218387 270.84093 
L 178.703393 270.950245 
L 179.049827 271.181707 
L 179.638763 271.755054 
L 180.296987 272.327377 
L 181.024497 272.687127 
L 182.09844 272.8152 
L 182.583447 273.2643 
L 183.310957 273.98904 
L 183.76132 274.137364 
L 184.350257 274.088091 
L 184.765977 273.874849 
L 185.250984 273.728822 
L 185.909207 273.872736 
L 186.394214 273.96613 
L 187.017794 274.110574 
L 187.537444 274.464894 
L 188.334241 275.202338 
L 189.546757 275.808094 
L 190.135694 275.696896 
L 192.041078 275.090465 
L 192.872518 275.211342 
L 194.396824 275.677794 
L 195.158978 275.675038 
L 196.267564 275.251568 
L 198.796528 275.183502 
L 199.316178 275.45581 
L 199.801185 275.933526 
L 200.563338 276.780046 
L 200.944415 276.919398 
L 202.364792 277.064736 
L 203.369448 277.365861 
L 203.819812 277.388899 
L 204.651252 276.913529 
L 206.279488 276.005308 
L 206.695208 276.081317 
L 207.318788 276.247995 
L 208.565949 276.48134 
L 209.085599 276.518289 
L 209.709179 276.390976 
L 210.852409 276.030227 
L 212.238142 275.448661 
L 212.965652 275.61786 
L 214.074239 276.031362 
L 216.326056 277.788684 
L 216.811062 278.078042 
L 218.508586 279.362562 
L 219.028236 279.248233 
L 219.721103 278.848448 
L 220.621829 277.970266 
L 221.799703 276.845106 
L 222.319353 276.639527 
L 222.665786 276.725283 
L 224.224736 277.376603 
L 224.813673 277.429966 
L 225.333323 277.318457 
L 226.926916 276.823738 
L 227.827643 277.217915 
L 229.317307 278.566381 
L 231.188047 280.538435 
L 231.776983 280.910014 
L 232.435207 281.0676 
L 233.09343 280.899695 
L 234.479164 280.14789 
L 235.89954 278.955751 
L 236.904197 278.573034 
L 237.493134 278.639435 
L 238.91351 278.833578 
L 239.987454 279.133064 
L 241.026754 279.502762 
L 243.070711 279.885702 
L 243.694291 280.355473 
L 244.248584 281.01364 
L 244.976094 281.783376 
L 246.846834 283.341626 
L 248.405784 283.526616 
L 249.098651 283.346957 
L 249.791518 282.817586 
L 250.449741 282.448285 
L 252.874775 281.862417 
L 254.364438 281.954202 
L 256.339108 282.841884 
L 259.422365 285.409396 
L 262.401692 287.523379 
L 263.406349 287.837403 
L 263.822069 287.759941 
L 264.584222 287.298696 
L 265.173159 287.001188 
L 266.454962 286.532136 
L 267.806052 285.88091 
L 270.300372 285.752761 
L 271.097169 285.609164 
L 271.686106 285.788948 
L 272.309686 286.104967 
L 272.863979 286.623868 
L 273.522203 287.623408 
L 275.115796 289.912277 
L 275.704733 290.49918 
L 276.674746 291.038727 
L 277.540829 291.377844 
L 278.718703 291.487325 
L 279.584786 291.147289 
L 281.17838 290.358508 
L 282.356253 289.70682 
L 283.187693 289.586117 
L 283.741987 289.723639 
L 286.548097 290.676321 
L 287.795257 290.819142 
L 288.45348 291.103616 
L 289.007774 291.621939 
L 290.22029 292.856671 
L 290.705297 293.310618 
L 291.77924 294.742652 
L 292.50675 295.535861 
L 293.23426 296.030356 
L 293.64998 296.055583 
L 294.065701 295.878294 
L 295.278217 295.210391 
L 296.767881 295.124321 
L 297.287531 294.870696 
L 298.500047 293.845475 
L 299.504704 292.561317 
L 300.093641 291.958239 
L 300.613291 291.777274 
L 301.063654 291.85165 
L 301.479374 292.127113 
L 302.068311 292.888873 
L 302.691891 294.059162 
L 304.008338 296.755318 
L 304.943708 298.101935 
L 306.052295 299.282627 
L 306.571945 299.540087 
L 307.403385 299.670012 
L 307.992321 299.471043 
L 308.996978 298.751956 
L 309.620558 298.320612 
L 310.625215 298.007427 
L 311.525942 297.759697 
L 312.149522 298.043983 
L 313.743115 298.909738 
L 314.505268 298.999353 
L 314.955632 298.741065 
L 316.376009 297.831585 
L 317.242092 297.710774 
L 317.969602 298.00685 
L 318.593182 298.423059 
L 319.147475 299.077625 
L 319.736412 300.114378 
L 320.706425 301.819929 
L 321.433936 302.603679 
L 321.918942 302.869019 
L 322.958242 303.078765 
L 323.512536 303.082997 
L 324.309332 302.839958 
L 325.279346 302.296638 
L 327.461876 300.882009 
L 328.050813 300.823834 
L 328.951539 301.015319 
L 329.609763 301.458586 
L 330.475846 301.960318 
L 331.203356 302.246494 
L 332.17337 302.734728 
L 332.970166 303.158788 
L 333.801606 303.875663 
L 334.87555 304.852434 
L 335.672346 305.204087 
L 338.374527 305.990211 
L 338.963463 306.180798 
L 339.587043 306.149868 
L 341.31921 305.823565 
L 343.60567 306.175449 
L 344.194607 305.871223 
L 345.47641 305.142727 
L 346.30785 305.054637 
L 347.03536 305.303912 
L 347.728227 305.737227 
L 348.663597 306.595508 
L 351.331134 309.188234 
L 352.024001 309.422035 
L 353.097944 309.703972 
L 353.513664 309.69953 
L 354.518321 309.676754 
L 355.453691 309.793378 
L 356.977998 309.860009 
L 357.670864 309.907264 
L 359.021955 309.516289 
L 360.858051 308.970209 
L 361.828065 309.117135 
L 362.728791 309.414913 
L 366.054552 311.466081 
L 367.856005 312.797778 
L 368.687445 312.960257 
L 369.449598 312.747383 
L 370.904619 312.098431 
L 372.879289 311.941514 
L 375.616112 312.525458 
L 377.660069 313.714394 
L 378.526152 313.77608 
L 379.704026 313.778642 
L 380.258319 314.030571 
L 381.955843 314.995661 
L 382.579423 315.105556 
L 384.658023 315.044237 
L 389.230943 315.633066 
L 390.13167 316.038619 
L 390.75525 316.040126 
L 391.48276 315.814905 
L 391.933123 315.764754 
L 392.62599 315.928419 
L 393.97708 316.695259 
L 394.843163 317.3103 
L 396.36747 318.557545 
L 397.09498 318.794218 
L 397.787847 318.776533 
L 398.307497 318.52933 
L 400.52467 317.224746 
L 400.975034 317.286715 
L 401.56397 317.600948 
L 402.637914 318.167856 
L 404.300794 318.743175 
L 405.582597 318.966013 
L 407.765128 319.068401 
L 408.527281 319.623175 
L 409.081574 319.900884 
L 411.679824 320.501955 
L 411.679824 320.501955 
" clip-path="url(#p69fdff247c)" style="fill: none; stroke: #ff0000; stroke-width: 2; stroke-linecap: square"/>
   </g>
   <g id="patch_8">
    <path d="M 47.961178 326.64351 
L 47.961178 191.529302 
" style="fill: none; stroke: #000000; stroke-width: 0.8; stroke-linejoin: miter; stroke-linecap: square"/>
   </g>
   <g id="patch_9">
    <path d="M 428.99976 326.64351 
L 428.99976 191.529302 
" style="fill: none; stroke: #000000; stroke-width: 0.8; stroke-linejoin: miter; stroke-linecap: square"/>
   </g>
   <g id="patch_10">
    <path d="M 47.961178 326.64351 
L 428.99976 326.64351 
" style="fill: none; stroke: #000000; stroke-width: 0.8; stroke-linejoin: miter; stroke-linecap: square"/>
   </g>
   <g id="patch_11">
    <path d="M 47.961178 191.529302 
L 428.99976 191.529302 
" style="fill: none; stroke: #000000; stroke-width: 0.8; stroke-linejoin: miter; stroke-linecap: square"/>
   </g>
   <g id="text_22">
    <!-- Mean velocity component v_y over time -->
    <g transform="translate(104.163906 185.529302) scale(0.12 -0.12)">
     <use xlink:href="#DejaVuSans-Bold-4d"/>
     <use xlink:href="#DejaVuSans-Bold-65" transform="translate(99.511719 0)"/>
     <use xlink:href="#DejaVuSans-Bold-61" transform="translate(167.333984 0)"/>
     <use xlink:href="#DejaVuSans-Bold-6e" transform="translate(234.814453 0)"/>
     <use xlink:href="#DejaVuSans-Bold-20" transform="translate(306.005859 0)"/>
     <use xlink:href="#DejaVuSans-Bold-76" transform="translate(340.820312 0)"/>
     <use xlink:href="#DejaVuSans-Bold-65" transform="translate(406.005859 0)"/>
     <use xlink:href="#DejaVuSans-Bold-6c" transform="translate(473.828125 0)"/>
     <use xlink:href="#DejaVuSans-Bold-6f" transform="translate(508.105469 0)"/>
     <use xlink:href="#DejaVuSans-Bold-63" transform="translate(576.806641 0)"/>
     <use xlink:href="#DejaVuSans-Bold-69" transform="translate(636.083984 0)"/>
     <use xlink:href="#DejaVuSans-Bold-74" transform="translate(670.361328 0)"/>
     <use xlink:href="#DejaVuSans-Bold-79" transform="translate(718.164062 0)"/>
     <use xlink:href="#DejaVuSans-Bold-20" transform="translate(783.349609 0)"/>
     <use xlink:href="#DejaVuSans-Bold-63" transform="translate(818.164062 0)"/>
     <use xlink:href="#DejaVuSans-Bold-6f" transform="translate(877.441406 0)"/>
     <use xlink:href="#DejaVuSans-Bold-6d" transform="translate(946.142578 0)"/>
     <use xlink:href="#DejaVuSans-Bold-70" transform="translate(1050.341797 0)"/>
     <use xlink:href="#DejaVuSans-Bold-6f" transform="translate(1121.923828 0)"/>
     <use xlink:href="#DejaVuSans-Bold-6e" transform="translate(1190.625 0)"/>
     <use xlink:href="#DejaVuSans-Bold-65" transform="translate(1261.816406 0)"/>
     <use xlink:href="#DejaVuSans-Bold-6e" transform="translate(1329.638672 0)"/>
     <use xlink:href="#DejaVuSans-Bold-74" transform="translate(1400.830078 0)"/>
     <use xlink:href="#DejaVuSans-Bold-20" transform="translate(1448.632812 0)"/>
     <use xlink:href="#DejaVuSans-Bold-76" transform="translate(1483.447266 0)"/>
     <use xlink:href="#DejaVuSans-Bold-5f" transform="translate(1548.632812 0)"/>
     <use xlink:href="#DejaVuSans-Bold-79" transform="translate(1598.632812 0)"/>
     <use xlink:href="#DejaVuSans-Bold-20" transform="translate(1663.818359 0)"/>
     <use xlink:href="#DejaVuSans-Bold-6f" transform="translate(1698.632812 0)"/>
     <use xlink:href="#DejaVuSans-Bold-76" transform="translate(1767.333984 0)"/>
     <use xlink:href="#DejaVuSans-Bold-65" transform="translate(1832.519531 0)"/>
     <use xlink:href="#DejaVuSans-Bold-72" transform="translate(1900.341797 0)"/>
     <use xlink:href="#DejaVuSans-Bold-20" transform="translate(1949.658203 0)"/>
     <use xlink:href="#DejaVuSans-Bold-74" transform="translate(1984.472656 0)"/>
     <use xlink:href="#DejaVuSans-Bold-69" transform="translate(2032.275391 0)"/>
     <use xlink:href="#DejaVuSans-Bold-6d" transform="translate(2066.552734 0)"/>
     <use xlink:href="#DejaVuSans-Bold-65" transform="translate(2170.751953 0)"/>
    </g>
   </g>
  </g>
 </g>
 <defs>
  <clipPath id="p8fc7f61197">
   <rect x="47.961178" y="18.118365" width="381.038583" height="135.114207"/>
  </clipPath>
  <clipPath id="p69fdff247c">
   <rect x="47.961178" y="191.529302" width="381.038583" height="135.114208"/>
  </clipPath>
 </defs>
</svg>
