<?xml version="1.0" encoding="utf-8" standalone="no"?>
<!DOCTYPE svg PUBLIC "-//W3C//DTD SVG 1.1//EN"
  "http://www.w3.org/Graphics/SVG/1.1/DTD/svg11.dtd">
<svg xmlns:xlink="http://www.w3.org/1999/xlink" width="460.8pt" height="345.6pt" viewBox="0 0 460.8 345.6" xmlns="http://www.w3.org/2000/svg" version="1.1">
 <metadata>
  <rdf:RDF xmlns:dc="http://purl.org/dc/elements/1.1/" xmlns:cc="http://creativecommons.org/ns#" xmlns:rdf="http://www.w3.org/1999/02/22-rdf-syntax-ns#">
   <cc:Work>
    <dc:type rdf:resource="http://purl.org/dc/dcmitype/StillImage"/>
    <dc:date>2025-05-05T23:14:17.227531</dc:date>
    <dc:format>image/svg+xml</dc:format>
    <dc:creator>
     <cc:Agent>
      <dc:title>Matplotlib v3.10.1, https://matplotlib.org/</dc:title>
     </cc:Agent>
    </dc:creator>
   </cc:Work>
  </rdf:RDF>
 </metadata>
 <defs>
  <style type="text/css">*{stroke-linejoin: round; stroke-linecap: butt}</style>
 </defs>
 <g id="figure_1">
  <g id="patch_1">
   <path d="M 0 345.6 
L 460.8 345.6 
L 460.8 0 
L 0 0 
z
" style="fill: #ffffff"/>
  </g>
  <g id="axes_1">
   <g id="patch_2">
    <path d="M 57.6 307.584 
L 414.72 307.584 
L 414.72 41.472 
L 57.6 41.472 
z
" style="fill: #ffffff"/>
   </g>
   <g id="Quiver_1">
    <path d="M 322.25622 175.862423 
L 320.962998 181.962294 
L 323.406731 181.325971 
L 317.750283 191.670894 
L 316.778186 179.920666 
L 318.753483 181.493859 
L 320.046705 175.393988 
L 322.25622 175.862423 
" clip-path="url(#p6f0ab342f6)"/>
    <path d="M 293.203335 142.105459 
L 297.358852 147.918418 
L 298.539507 145.686202 
L 302.350949 156.843519 
L 293.027277 149.626736 
L 295.521442 149.23193 
L 291.365925 143.41897 
L 293.203335 142.105459 
" clip-path="url(#p6f0ab342f6)"/>
    <path d="M 190.60425 76.806518 
L 201.575888 71.849209 
L 199.616759 70.255926 
L 211.303132 68.69339 
L 202.406731 76.430758 
L 202.505879 73.907486 
L 191.534241 78.864796 
L 190.60425 76.806518 
" clip-path="url(#p6f0ab342f6)"/>
    <path d="M 306.591897 156.190742 
L 307.90876 166.835044 
L 310.01164 165.436963 
L 308.035897 177.060614 
L 303.287031 166.2689 
L 305.667223 167.112356 
L 304.350361 156.468054 
L 306.591897 156.190742 
" clip-path="url(#p6f0ab342f6)"/>
    <path d="M 232.944041 180.0424 
L 232.601295 179.724144 
L 232.307529 180.727891 
L 229.834841 176.517094 
L 234.217065 178.671417 
L 233.237807 179.038653 
L 233.580553 179.356909 
L 232.944041 180.0424 
" clip-path="url(#p6f0ab342f6)"/>
    <path d="M 261.53481 258.990129 
L 250.269295 262.549288 
L 252.026569 264.362772 
L 240.237448 264.534357 
L 249.985291 257.901683 
L 249.588869 260.395592 
L 260.854384 256.836433 
L 261.53481 258.990129 
" clip-path="url(#p6f0ab342f6)"/>
    <path d="M 252.105349 195.413796 
L 252.069412 199.668057 
L 254.337496 198.557863 
L 250.854287 209.821969 
L 247.561862 198.500628 
L 249.810868 199.648979 
L 249.846805 195.394718 
L 252.105349 195.413796 
" clip-path="url(#p6f0ab342f6)"/>
    <path d="M 131.439676 132.554632 
L 136.291307 126.679691 
L 133.830664 126.112265 
L 143.633969 119.561843 
L 139.055295 130.426859 
L 138.032851 128.117889 
L 133.18122 133.99283 
L 131.439676 132.554632 
" clip-path="url(#p6f0ab342f6)"/>
    <path d="M 303.396267 203.375646 
L 298.924884 213.231528 
L 301.448306 213.136248 
L 293.697309 222.020778 
L 295.277758 210.336815 
L 296.868035 212.298384 
L 301.339418 202.442502 
L 303.396267 203.375646 
" clip-path="url(#p6f0ab342f6)"/>
    <path d="M 250.232668 122.417409 
L 261.342265 127.357471 
L 261.228068 124.834834 
L 270.170463 132.518999 
L 258.474978 131.026198 
L 260.424568 129.421259 
L 249.314971 124.481197 
L 250.232668 122.417409 
" clip-path="url(#p6f0ab342f6)"/>
    <path d="M 192.210855 288.638772 
L 181.414759 283.776463 
L 181.516954 286.299614 
L 172.611218 278.572992 
L 184.299468 280.121419 
L 182.342264 281.717065 
L 193.13836 286.579373 
L 192.210855 288.638772 
" clip-path="url(#p6f0ab342f6)"/>
    <path d="M 233.147303 130.140775 
L 241.28972 131.453134 
L 240.534193 129.043588 
L 251.144337 134.185346 
L 239.456002 135.733132 
L 240.930323 133.682982 
L 232.787905 132.370623 
L 233.147303 130.140775 
" clip-path="url(#p6f0ab342f6)"/>
    <path d="M 278.336616 284.454495 
L 267.405806 288.73425 
L 269.280845 290.425689 
L 257.529829 291.388216 
L 266.810478 284.116189 
L 266.58235 286.631083 
L 277.513161 282.351329 
L 278.336616 284.454495 
" clip-path="url(#p6f0ab342f6)"/>
    <path d="M 190.763849 101.522685 
L 201.797773 96.267077 
L 199.806946 94.713583 
L 211.459472 92.915954 
L 202.720737 100.830961 
L 202.769036 98.306203 
L 191.735113 103.561811 
L 190.763849 101.522685 
" clip-path="url(#p6f0ab342f6)"/>
    <path d="M 310.587651 255.140201 
L 301.911065 265.012718 
L 304.353114 265.655472 
L 294.353193 271.901623 
L 299.263502 261.182403 
L 300.214528 263.521695 
L 308.891114 253.649178 
L 310.587651 255.140201 
" clip-path="url(#p6f0ab342f6)"/>
    <path d="M 290.705449 93.053319 
L 301.142538 98.660492 
L 301.216624 96.136359 
L 309.5616 104.465476 
L 298.009859 102.105374 
L 300.073616 100.650163 
L 289.636527 95.042991 
L 290.705449 93.053319 
" clip-path="url(#p6f0ab342f6)"/>
    <path d="M 160.737947 197.735976 
L 159.777482 190.367129 
L 157.683763 191.778892 
L 159.583669 180.142606 
L 164.402804 190.903124 
L 162.017162 190.075206 
L 162.977628 197.444053 
L 160.737947 197.735976 
" clip-path="url(#p6f0ab342f6)"/>
    <path d="M 159.003833 242.307207 
L 148.840639 233.193085 
L 148.173452 235.628572 
L 142.027796 225.566578 
L 152.697285 230.584028 
L 150.348584 231.51157 
L 160.511777 240.625693 
L 159.003833 242.307207 
" clip-path="url(#p6f0ab342f6)"/>
    <path d="M 131.467497 208.385549 
L 128.019438 202.358107 
L 126.619698 204.459883 
L 123.952826 192.975084 
L 132.501205 201.095308 
L 129.97994 201.236582 
L 133.427999 207.264024 
L 131.467497 208.385549 
" clip-path="url(#p6f0ab342f6)"/>
    <path d="M 169.273538 153.590462 
L 173.595512 146.91909 
L 171.085891 146.638847 
L 180.069506 139.002913 
L 176.77269 150.322976 
L 175.491111 148.147133 
L 171.169138 154.818505 
L 169.273538 153.590462 
" clip-path="url(#p6f0ab342f6)"/>
    <path d="M 313.204645 90.973707 
L 322.097716 97.100841 
L 322.4492 94.600203 
L 329.826622 103.797292 
L 318.604872 100.179954 
L 320.816273 98.960759 
L 311.923202 92.833625 
L 313.204645 90.973707 
" clip-path="url(#p6f0ab342f6)"/>
    <path d="M 270.263116 70.330976 
L 277.009806 73.705171 
L 277.010061 71.179951 
L 285.594994 79.261519 
L 273.979187 77.240173 
L 275.999515 75.725245 
L 269.252825 72.35105 
L 270.263116 70.330976 
" clip-path="url(#p6f0ab342f6)"/>
    <path d="M 249.257495 292.884157 
L 239.381934 295.762145 
L 241.098077 297.6146 
L 229.308074 297.521632 
L 239.202279 291.109337 
L 238.750002 293.593724 
L 248.625562 290.715736 
L 249.257495 292.884157 
" clip-path="url(#p6f0ab342f6)"/>
    <path d="M 209.177466 151.185884 
L 216.313749 142.72313 
L 213.85907 142.130438 
L 223.729196 135.681142 
L 219.03907 146.498514 
L 218.040416 144.179155 
L 210.904133 152.641909 
L 209.177466 151.185884 
" clip-path="url(#p6f0ab342f6)"/>
    <path d="M 239.309053 84.384484 
L 251.421192 83.702854 
L 250.166756 81.51125 
L 261.632402 84.259301 
L 250.547477 88.276421 
L 251.548099 85.957911 
L 239.43596 86.639541 
L 239.309053 84.384484 
" clip-path="url(#p6f0ab342f6)"/>
    <path d="M 290.808322 202.891795 
L 281.941823 203.862446 
L 283.310221 205.984761 
L 271.715476 203.845905 
L 282.572844 199.249127 
L 281.696031 201.617235 
L 290.562529 200.646584 
L 290.808322 202.891795 
" clip-path="url(#p6f0ab342f6)"/>
    <path d="M 143.781007 243.730878 
L 132.780375 235.424162 
L 132.320543 237.907162 
L 125.349806 228.398133 
L 136.40374 232.499761 
L 134.141441 233.621695 
L 145.142072 241.928411 
L 143.781007 243.730878 
" clip-path="url(#p6f0ab342f6)"/>
    <path d="M 232.088898 216.031209 
L 231.001911 215.907679 
L 231.841838 218.205182 
L 221.342562 213.708924 
L 232.583017 211.683263 
L 231.248971 213.733706 
L 232.335957 213.857236 
L 232.088898 216.031209 
" clip-path="url(#p6f0ab342f6)"/>
    <path d="M 178.019137 201.281166 
L 176.317155 194.794942 
L 174.419117 196.46053 
L 174.82984 184.677316 
L 180.973115 194.740764 
L 178.501821 194.221687 
L 180.203803 200.707911 
L 178.019137 201.281166 
" clip-path="url(#p6f0ab342f6)"/>
    <path d="M 141.219253 175.277233 
L 140.167985 163.439422 
L 138.01811 164.764101 
L 140.393801 153.215555 
L 144.767424 164.164721 
L 142.417756 163.239629 
L 143.469024 175.077439 
L 141.219253 175.277233 
" clip-path="url(#p6f0ab342f6)"/>
    <path d="M 333.779168 151.278252 
L 335.372207 158.521825 
L 337.335549 156.933738 
L 336.452351 168.690982 
L 330.717823 158.389137 
L 333.166298 159.006958 
L 331.573259 151.763385 
L 333.779168 151.278252 
" clip-path="url(#p6f0ab342f6)"/>
    <path d="M 187.467031 256.350813 
L 175.654073 252.353878 
L 175.999916 254.855303 
L 166.388374 248.026608 
L 178.171604 248.436872 
L 176.377969 250.214401 
L 188.190927 254.211336 
L 187.467031 256.350813 
" clip-path="url(#p6f0ab342f6)"/>
    <path d="M 200.15012 201.951062 
L 199.950929 201.449148 
L 199.146293 202.349444 
L 198.660122 196.732738 
L 202.157773 201.154297 
L 200.954755 201.050766 
L 201.153946 201.552679 
L 200.15012 201.951062 
" clip-path="url(#p6f0ab342f6)"/>
    <path d="M 276.075872 166.96092 
L 277.652582 176.017503 
L 279.684043 174.517535 
L 278.283258 186.224397 
L 273.008576 175.679704 
L 275.427427 176.404892 
L 273.850716 167.348309 
L 276.075872 166.96092 
" clip-path="url(#p6f0ab342f6)"/>
    <path d="M 251.423691 63.977354 
L 263.583909 63.783187 
L 262.41868 61.54288 
L 273.764456 64.750087 
L 262.526859 68.317892 
L 263.619968 66.041525 
L 251.459751 66.235691 
L 251.423691 63.977354 
" clip-path="url(#p6f0ab342f6)"/>
    <path d="M 232.443642 140.364145 
L 226.320376 139.947687 
L 227.293825 142.277737 
L 216.256619 138.131304 
L 227.753607 135.517478 
L 226.473636 137.694267 
L 232.596903 138.110726 
L 232.443642 140.364145 
" clip-path="url(#p6f0ab342f6)"/>
    <path d="M 218.477852 178.156792 
L 219.442589 172.932132 
L 217.016449 173.632548 
L 222.398683 163.142344 
L 223.679682 174.862918 
L 221.663666 173.342256 
L 220.69893 178.566915 
L 218.477852 178.156792 
" clip-path="url(#p6f0ab342f6)"/>
    <path d="M 202.391516 224.370258 
L 197.448807 222.341633 
L 197.635966 224.859907 
L 188.474923 217.437771 
L 200.208713 218.591457 
L 198.306389 220.252149 
L 203.249098 222.280775 
L 202.391516 224.370258 
" clip-path="url(#p6f0ab342f6)"/>
    <path d="M 191.54272 198.492728 
L 190.442051 193.742766 
L 188.496658 195.352791 
L 189.247831 183.586374 
L 195.097631 193.823202 
L 192.642376 193.232903 
L 193.743045 197.982865 
L 191.54272 198.492728 
" clip-path="url(#p6f0ab342f6)"/>
    <path d="M 165.712905 291.000509 
L 151.109332 283.413066 
L 151.070127 285.937982 
L 142.610869 277.724957 
L 154.194117 279.92523 
L 152.150662 281.408816 
L 166.754235 288.996259 
L 165.712905 291.000509 
" clip-path="url(#p6f0ab342f6)"/>
    <path d="M 334.749355 223.889038 
L 330.631763 233.437249 
L 333.152953 233.294645 
L 325.569995 242.323021 
L 326.930973 230.611465 
L 328.55777 232.542855 
L 332.675362 222.994644 
L 334.749355 223.889038 
" clip-path="url(#p6f0ab342f6)"/>
    <path d="M 145.989617 222.214123 
L 139.81144 211.081362 
L 138.384532 213.164789 
L 135.866987 201.646335 
L 144.309224 209.876854 
L 141.786337 209.985384 
L 147.964514 221.118145 
L 145.989617 222.214123 
" clip-path="url(#p6f0ab342f6)"/>
    <path d="M 186.175888 199.199618 
L 186.552841 199.028326 
L 185.833304 198.445712 
L 190.11671 197.863648 
L 186.861057 200.70743 
L 186.895426 199.782231 
L 186.518473 199.953524 
L 186.175888 199.199618 
" clip-path="url(#p6f0ab342f6)"/>
    <path d="M 210.635984 114.241299 
L 222.38957 106.834432 
L 220.229968 105.525672 
L 231.59048 102.371057 
L 223.842501 111.258219 
L 223.593748 108.745281 
L 211.840161 116.152148 
L 210.635984 114.241299 
" clip-path="url(#p6f0ab342f6)"/>
    <path d="M 311.999895 275.717221 
L 301.450499 284.211249 
L 303.746611 285.262252 
L 292.825644 289.705821 
L 299.497147 279.984511 
L 300.034011 282.452002 
L 310.583407 273.957974 
L 311.999895 275.717221 
" clip-path="url(#p6f0ab342f6)"/>
    <path d="M 248.430256 112.329127 
L 258.230954 113.468402 
L 257.369991 111.094486 
L 268.196387 115.763744 
L 256.587603 117.82504 
L 257.970158 115.71192 
L 248.16946 114.572645 
L 248.430256 112.329127 
" clip-path="url(#p6f0ab342f6)"/>
    <path d="M 242.7302 224.610458 
L 232.921533 222.149117 
L 233.467161 224.614685 
L 223.338222 218.580001 
L 235.116337 218.042569 
L 233.471259 219.958412 
L 243.279926 222.419753 
L 242.7302 224.610458 
" clip-path="url(#p6f0ab342f6)"/>
    <path d="M 280.114585 246.689892 
L 268.780705 255.645397 
L 271.067076 256.717424 
L 260.105797 261.0606 
L 266.866217 251.400914 
L 267.380419 253.873227 
L 278.714299 244.917722 
L 280.114585 246.689892 
" clip-path="url(#p6f0ab342f6)"/>
    <path d="M 220.709312 267.781034 
L 208.588263 264.726267 
L 209.131371 267.192391 
L 199.008603 261.14736 
L 210.787261 260.621964 
L 209.140226 262.536124 
L 221.261276 265.590891 
L 220.709312 267.781034 
" clip-path="url(#p6f0ab342f6)"/>
    <path d="M 118.227673 163.289436 
L 119.646742 152.207004 
L 117.262974 153.040303 
L 122.057811 142.268936 
L 123.983975 153.900905 
L 121.887075 152.493871 
L 120.468007 163.576303 
L 118.227673 163.289436 
" clip-path="url(#p6f0ab342f6)"/>
    <path d="M 341.656124 150.589137 
L 345.417127 159.857813 
L 347.085393 157.962127 
L 348.192275 169.700424 
L 340.806733 160.509854 
L 343.324241 160.707055 
L 339.563238 151.43838 
L 341.656124 150.589137 
" clip-path="url(#p6f0ab342f6)"/>
    <path d="M 120.636034 176.218692 
L 119.409915 166.759796 
L 117.315203 168.170086 
L 119.223294 156.535139 
L 124.034859 167.299044 
L 121.6498 166.469449 
L 122.875919 175.928345 
L 120.636034 176.218692 
" clip-path="url(#p6f0ab342f6)"/>
    <path d="M 289.246276 114.181819 
L 293.998036 119.600843 
L 294.951698 117.262625 
L 299.849919 127.987375 
L 289.857047 121.729953 
L 292.299819 121.089952 
L 287.548059 115.670928 
L 289.246276 114.181819 
" clip-path="url(#p6f0ab342f6)"/>
    <path d="M 336.072478 258.009632 
L 329.681887 265.981136 
L 332.15051 266.512769 
L 322.443363 273.204862 
L 326.863774 262.274502 
L 327.919642 264.56838 
L 334.310233 256.596876 
L 336.072478 258.009632 
" clip-path="url(#p6f0ab342f6)"/>
    <path d="M 129.415356 176.248362 
L 129.408509 165.422626 
L 127.150598 166.553367 
L 130.531393 155.2581 
L 133.926473 166.549081 
L 131.667134 165.421197 
L 131.67398 176.246934 
L 129.415356 176.248362 
" clip-path="url(#p6f0ab342f6)"/>
    <path d="M 323.298588 111.307627 
L 330.908059 118.262624 
L 331.598256 115.833558 
L 337.648451 125.953239 
L 327.026904 120.83508 
L 329.384275 119.929798 
L 321.774804 112.974802 
L 323.298588 111.307627 
" clip-path="url(#p6f0ab342f6)"/>
    <path d="M 227.057401 219.64806 
L 220.947895 218.101088 
L 221.488254 220.567816 
L 211.37223 214.511507 
L 223.151466 213.999239 
L 221.502299 215.911562 
L 227.611805 217.458535 
L 227.057401 219.64806 
" clip-path="url(#p6f0ab342f6)"/>
    <path d="M 332.486106 199.479193 
L 330.685412 213.042895 
L 333.073014 212.220648 
L 328.228327 222.969686 
L 326.356073 211.328918 
L 328.446432 212.745651 
L 330.247125 199.18195 
L 332.486106 199.479193 
" clip-path="url(#p6f0ab342f6)"/>
    <path d="M 179.656242 115.850666 
L 186.768857 106.383842 
L 184.284752 105.930019 
L 193.776886 98.936293 
L 189.702018 110.00012 
L 188.574613 107.740542 
L 181.461998 117.207366 
L 179.656242 115.850666 
" clip-path="url(#p6f0ab342f6)"/>
    <path d="M 128.445827 239.844302 
L 122.346604 230.922139 
L 121.119336 233.129071 
L 117.543025 221.894178 
L 126.713097 229.305155 
L 124.211191 229.6475 
L 130.310414 238.569664 
L 128.445827 239.844302 
" clip-path="url(#p6f0ab342f6)"/>
    <path d="M 163.834461 268.558363 
L 153.33471 263.195556 
L 153.313076 265.720684 
L 144.796874 257.56672 
L 156.395151 259.68634 
L 154.362069 261.184109 
L 164.86182 266.546915 
L 163.834461 268.558363 
" clip-path="url(#p6f0ab342f6)"/>
    <path d="M 236.00877 52.439157 
L 250.663879 52.862102 
L 249.600192 50.571839 
L 260.790884 54.284149 
L 249.404723 57.344894 
L 250.598722 55.119787 
L 235.943614 54.696843 
L 236.00877 52.439157 
" clip-path="url(#p6f0ab342f6)"/>
    <path d="M 177.87639 161.469544 
L 180.183731 152.07485 
L 177.720936 152.632861 
L 183.704645 142.473725 
L 184.301256 154.24899 
L 182.377171 152.61356 
L 180.06983 162.008254 
L 177.87639 161.469544 
" clip-path="url(#p6f0ab342f6)"/>
    <path d="M 263.189661 296.587052 
L 248.941006 299.953631 
L 250.559411 301.892058 
L 238.789863 301.19167 
L 249.00135 295.297747 
L 248.421652 297.755527 
L 262.670307 294.388948 
L 263.189661 296.587052 
" clip-path="url(#p6f0ab342f6)"/>
    <path d="M 331.785122 126.69632 
L 335.609722 132.667319 
L 336.902523 130.498125 
L 340.140819 141.835067 
L 331.196769 134.152829 
L 333.707804 133.885553 
L 329.883204 127.914555 
L 331.785122 126.69632 
" clip-path="url(#p6f0ab342f6)"/>
    <path d="M 188.57754 224.575007 
L 178.719117 218.596258 
L 178.513517 221.113094 
L 170.614196 212.360176 
L 182.027161 215.319408 
L 179.890332 216.665029 
L 189.748755 222.643779 
L 188.57754 224.575007 
" clip-path="url(#p6f0ab342f6)"/>
    <path d="M 297.141975 70.591606 
L 308.27304 77.209145 
L 308.456528 74.690601 
L 316.43242 83.373801 
L 304.993905 80.514923 
L 307.118833 79.150586 
L 295.987767 72.533046 
L 297.141975 70.591606 
" clip-path="url(#p6f0ab342f6)"/>
    <path d="M 336.435141 236.428542 
L 329.911426 245.304745 
L 332.400174 245.732372 
L 322.982245 252.825709 
L 326.940331 241.719568 
L 328.091478 243.967143 
L 334.615193 235.090941 
L 336.435141 236.428542 
" clip-path="url(#p6f0ab342f6)"/>
    <path d="M 312.209121 120.099759 
L 319.472169 127.535182 
L 320.298751 125.149077 
L 325.766444 135.594992 
L 315.451628 129.88383 
L 317.856461 129.113433 
L 310.593413 121.67801 
L 312.209121 120.099759 
" clip-path="url(#p6f0ab342f6)"/>
    <path d="M 229.730964 189.954349 
L 230.499828 189.700218 
L 229.222703 188.416621 
L 237.673734 188.181908 
L 230.747486 193.029805 
L 231.008089 191.237946 
L 230.239225 191.492077 
L 229.730964 189.954349 
" clip-path="url(#p6f0ab342f6)"/>
    <path d="M 214.602745 63.891004 
L 228.81924 61.318359 
L 227.305783 59.296928 
L 239.02171 60.619753 
L 228.512362 65.96451 
L 229.221433 63.540886 
L 215.004938 66.113532 
L 214.602745 63.891004 
" clip-path="url(#p6f0ab342f6)"/>
    <path d="M 276.508741 206.914137 
L 272.081954 214.234368 
L 274.599047 214.436787 
L 265.856123 222.347165 
L 268.800925 210.930469 
L 270.149246 213.065595 
L 274.576034 205.745364 
L 276.508741 206.914137 
" clip-path="url(#p6f0ab342f6)"/>
    <path d="M 261.752511 97.505542 
L 271.796348 101.3555 
L 271.550261 98.8423 
L 280.882621 106.047844 
L 269.12503 105.169285 
L 270.987938 103.464495 
L 260.9441 99.614537 
L 261.752511 97.505542 
" clip-path="url(#p6f0ab342f6)"/>
    <path d="M 221.141579 290.698762 
L 210.808753 290.79803 
L 211.959711 293.045702 
L 200.63456 289.766409 
L 211.894618 286.270139 
L 210.787055 288.539509 
L 221.119881 288.440241 
L 221.141579 290.698762 
" clip-path="url(#p6f0ab342f6)"/>
    <path d="M 178.330657 238.194004 
L 169.93614 230.905108 
L 169.308037 233.350966 
L 163.002049 223.388671 
L 173.750513 228.23463 
L 171.416965 229.199663 
L 179.811482 236.488559 
L 178.330657 238.194004 
" clip-path="url(#p6f0ab342f6)"/>
    <path d="M 223.909266 234.118315 
L 212.643776 231.489495 
L 213.230278 233.945661 
L 203.002508 228.080038 
L 214.770072 227.347061 
L 213.157041 229.289962 
L 224.422531 231.918781 
L 223.909266 234.118315 
" clip-path="url(#p6f0ab342f6)"/>
    <path d="M 304.33389 224.766645 
L 297.378267 234.786287 
L 299.877649 235.146599 
L 290.654565 242.491498 
L 294.311508 231.282591 
L 295.522887 233.498284 
L 302.478509 223.478642 
L 304.33389 224.766645 
" clip-path="url(#p6f0ab342f6)"/>
    <path d="M 199.177879 129.981665 
L 204.840658 122.733905 
L 202.365572 122.233223 
L 211.988168 115.420113 
L 207.70496 126.404964 
L 206.620454 124.124485 
L 200.957675 131.372245 
L 199.177879 129.981665 
" clip-path="url(#p6f0ab342f6)"/>
    <path d="M 161.12421 115.755293 
L 169.615015 108.360168 
L 167.280006 107.398676 
L 178.021106 102.536416 
L 171.730239 112.508267 
L 171.098426 110.063364 
L 162.607621 117.45849 
L 161.12421 115.755293 
" clip-path="url(#p6f0ab342f6)"/>
    <path d="M 151.639486 85.970018 
L 159.494161 77.610182 
L 157.074822 76.886624 
L 167.276802 70.976258 
L 162.012965 81.526369 
L 161.140209 79.156764 
L 153.285534 87.516599 
L 151.639486 85.970018 
" clip-path="url(#p6f0ab342f6)"/>
    <path d="M 225.959573 95.184499 
L 236.491392 94.994123 
L 235.321443 92.756277 
L 246.673956 95.939558 
L 235.443905 99.531046 
L 236.532213 97.25238 
L 226.000394 97.442755 
L 225.959573 95.184499 
" clip-path="url(#p6f0ab342f6)"/>
    <path d="M 203.20981 246.302265 
L 191.484455 240.942703 
L 191.572598 243.466384 
L 182.710026 235.69029 
L 194.389473 237.303779 
L 192.423413 238.888502 
L 204.148768 244.248063 
L 203.20981 246.302265 
" clip-path="url(#p6f0ab342f6)"/>
    <path d="M 289.07653 178.569848 
L 285.277743 188.197027 
L 287.793233 187.975563 
L 280.496645 197.236914 
L 281.4903 185.48849 
L 283.176766 187.368003 
L 286.975553 177.740823 
L 289.07653 178.569848 
" clip-path="url(#p6f0ab342f6)"/>
    <path d="M 213.442776 139.509536 
L 218.363004 135.697858 
L 216.087017 134.603958 
L 227.089435 130.36608 
L 220.236707 139.960502 
L 219.746234 137.483372 
L 214.826006 141.29505 
L 213.442776 139.509536 
" clip-path="url(#p6f0ab342f6)"/>
    <path d="M 272.53686 148.467285 
L 277.818801 158.270313 
L 279.271495 156.204783 
L 281.645675 167.75364 
L 273.306393 159.418822 
L 275.830433 159.34166 
L 270.548493 149.538631 
L 272.53686 148.467285 
" clip-path="url(#p6f0ab342f6)"/>
    <path d="M 260.618789 233.74372 
L 251.103139 239.382188 
L 253.226083 240.74961 
L 241.783427 243.591871 
L 249.771923 234.920264 
L 249.951752 237.439073 
L 259.467402 231.800605 
L 260.618789 233.74372 
" clip-path="url(#p6f0ab342f6)"/>
    <path d="M 354.095024 188.129938 
L 353.014828 198.194717 
L 355.381067 197.312874 
L 350.807368 208.179985 
L 348.643882 196.58981 
L 350.7691 197.953696 
L 351.849296 187.888917 
L 354.095024 188.129938 
" clip-path="url(#p6f0ab342f6)"/>
    <path d="M 155.75628 134.934795 
L 159.91333 128.68075 
L 157.407185 128.370954 
L 166.480155 120.841409 
L 163.050177 132.121838 
L 161.794327 129.931044 
L 157.637278 136.185089 
L 155.75628 134.934795 
" clip-path="url(#p6f0ab342f6)"/>
    <path d="M 189.143413 178.308796 
L 190.003915 163.920139 
L 187.681901 164.912603 
L 191.737969 153.84187 
L 194.445692 165.317107 
L 192.258512 164.054974 
L 191.39801 178.443631 
L 189.143413 178.308796 
" clip-path="url(#p6f0ab342f6)"/>
    <path d="M 236.710201 259.509371 
L 226.925161 258.834078 
L 227.89629 261.165095 
L 216.863217 257.007676 
L 228.362802 254.405298 
L 227.080665 256.580812 
L 236.865705 257.256105 
L 236.710201 259.509371 
" clip-path="url(#p6f0ab342f6)"/>
   </g>
   <g id="matplotlib.axis_1">
    <g id="xtick_1">
     <g id="line2d_1">
      <defs>
       <path id="m588d7094fb" d="M 0 0 
L 0 3.5 
" style="stroke: #000000; stroke-width: 0.8"/>
      </defs>
      <g>
       <use xlink:href="#m588d7094fb" x="79.968101" y="307.584" style="stroke: #000000; stroke-width: 0.8"/>
      </g>
     </g>
     <g id="text_1">
      <!-- −12.0 -->
      <g transform="translate(61.580914 323.702125) scale(0.12 -0.12)">
       <defs>
        <path id="DejaVuSans-2212" d="M 678 2272 
L 4684 2272 
L 4684 1741 
L 678 1741 
L 678 2272 
z
" transform="scale(0.015625)"/>
        <path id="DejaVuSans-31" d="M 794 531 
L 1825 531 
L 1825 4091 
L 703 3866 
L 703 4441 
L 1819 4666 
L 2450 4666 
L 2450 531 
L 3481 531 
L 3481 0 
L 794 0 
L 794 531 
z
" transform="scale(0.015625)"/>
        <path id="DejaVuSans-32" d="M 1228 531 
L 3431 531 
L 3431 0 
L 469 0 
L 469 531 
Q 828 903 1448 1529 
Q 2069 2156 2228 2338 
Q 2531 2678 2651 2914 
Q 2772 3150 2772 3378 
Q 2772 3750 2511 3984 
Q 2250 4219 1831 4219 
Q 1534 4219 1204 4116 
Q 875 4013 500 3803 
L 500 4441 
Q 881 4594 1212 4672 
Q 1544 4750 1819 4750 
Q 2544 4750 2975 4387 
Q 3406 4025 3406 3419 
Q 3406 3131 3298 2873 
Q 3191 2616 2906 2266 
Q 2828 2175 2409 1742 
Q 1991 1309 1228 531 
z
" transform="scale(0.015625)"/>
        <path id="DejaVuSans-2e" d="M 684 794 
L 1344 794 
L 1344 0 
L 684 0 
L 684 794 
z
" transform="scale(0.015625)"/>
        <path id="DejaVuSans-30" d="M 2034 4250 
Q 1547 4250 1301 3770 
Q 1056 3291 1056 2328 
Q 1056 1369 1301 889 
Q 1547 409 2034 409 
Q 2525 409 2770 889 
Q 3016 1369 3016 2328 
Q 3016 3291 2770 3770 
Q 2525 4250 2034 4250 
z
M 2034 4750 
Q 2819 4750 3233 4129 
Q 3647 3509 3647 2328 
Q 3647 1150 3233 529 
Q 2819 -91 2034 -91 
Q 1250 -91 836 529 
Q 422 1150 422 2328 
Q 422 3509 836 4129 
Q 1250 4750 2034 4750 
z
" transform="scale(0.015625)"/>
       </defs>
       <use xlink:href="#DejaVuSans-2212"/>
       <use xlink:href="#DejaVuSans-31" transform="translate(83.789062 0)"/>
       <use xlink:href="#DejaVuSans-32" transform="translate(147.412109 0)"/>
       <use xlink:href="#DejaVuSans-2e" transform="translate(211.035156 0)"/>
       <use xlink:href="#DejaVuSans-30" transform="translate(242.822266 0)"/>
      </g>
     </g>
    </g>
    <g id="xtick_2">
     <g id="line2d_2">
      <g>
       <use xlink:href="#m588d7094fb" x="134.822977" y="307.584" style="stroke: #000000; stroke-width: 0.8"/>
      </g>
     </g>
     <g id="text_2">
      <!-- −11.5 -->
      <g transform="translate(116.43579 323.702125) scale(0.12 -0.12)">
       <defs>
        <path id="DejaVuSans-35" d="M 691 4666 
L 3169 4666 
L 3169 4134 
L 1269 4134 
L 1269 2991 
Q 1406 3038 1543 3061 
Q 1681 3084 1819 3084 
Q 2600 3084 3056 2656 
Q 3513 2228 3513 1497 
Q 3513 744 3044 326 
Q 2575 -91 1722 -91 
Q 1428 -91 1123 -41 
Q 819 9 494 109 
L 494 744 
Q 775 591 1075 516 
Q 1375 441 1709 441 
Q 2250 441 2565 725 
Q 2881 1009 2881 1497 
Q 2881 1984 2565 2268 
Q 2250 2553 1709 2553 
Q 1456 2553 1204 2497 
Q 953 2441 691 2322 
L 691 4666 
z
" transform="scale(0.015625)"/>
       </defs>
       <use xlink:href="#DejaVuSans-2212"/>
       <use xlink:href="#DejaVuSans-31" transform="translate(83.789062 0)"/>
       <use xlink:href="#DejaVuSans-31" transform="translate(147.412109 0)"/>
       <use xlink:href="#DejaVuSans-2e" transform="translate(211.035156 0)"/>
       <use xlink:href="#DejaVuSans-35" transform="translate(242.822266 0)"/>
      </g>
     </g>
    </g>
    <g id="xtick_3">
     <g id="line2d_3">
      <g>
       <use xlink:href="#m588d7094fb" x="189.677853" y="307.584" style="stroke: #000000; stroke-width: 0.8"/>
      </g>
     </g>
     <g id="text_3">
      <!-- −11.0 -->
      <g transform="translate(171.290666 323.702125) scale(0.12 -0.12)">
       <use xlink:href="#DejaVuSans-2212"/>
       <use xlink:href="#DejaVuSans-31" transform="translate(83.789062 0)"/>
       <use xlink:href="#DejaVuSans-31" transform="translate(147.412109 0)"/>
       <use xlink:href="#DejaVuSans-2e" transform="translate(211.035156 0)"/>
       <use xlink:href="#DejaVuSans-30" transform="translate(242.822266 0)"/>
      </g>
     </g>
    </g>
    <g id="xtick_4">
     <g id="line2d_4">
      <g>
       <use xlink:href="#m588d7094fb" x="244.532729" y="307.584" style="stroke: #000000; stroke-width: 0.8"/>
      </g>
     </g>
     <g id="text_4">
      <!-- −10.5 -->
      <g transform="translate(226.145542 323.702125) scale(0.12 -0.12)">
       <use xlink:href="#DejaVuSans-2212"/>
       <use xlink:href="#DejaVuSans-31" transform="translate(83.789062 0)"/>
       <use xlink:href="#DejaVuSans-30" transform="translate(147.412109 0)"/>
       <use xlink:href="#DejaVuSans-2e" transform="translate(211.035156 0)"/>
       <use xlink:href="#DejaVuSans-35" transform="translate(242.822266 0)"/>
      </g>
     </g>
    </g>
    <g id="xtick_5">
     <g id="line2d_5">
      <g>
       <use xlink:href="#m588d7094fb" x="299.387605" y="307.584" style="stroke: #000000; stroke-width: 0.8"/>
      </g>
     </g>
     <g id="text_5">
      <!-- −10.0 -->
      <g transform="translate(281.000418 323.702125) scale(0.12 -0.12)">
       <use xlink:href="#DejaVuSans-2212"/>
       <use xlink:href="#DejaVuSans-31" transform="translate(83.789062 0)"/>
       <use xlink:href="#DejaVuSans-30" transform="translate(147.412109 0)"/>
       <use xlink:href="#DejaVuSans-2e" transform="translate(211.035156 0)"/>
       <use xlink:href="#DejaVuSans-30" transform="translate(242.822266 0)"/>
      </g>
     </g>
    </g>
    <g id="xtick_6">
     <g id="line2d_6">
      <g>
       <use xlink:href="#m588d7094fb" x="354.242481" y="307.584" style="stroke: #000000; stroke-width: 0.8"/>
      </g>
     </g>
     <g id="text_6">
      <!-- −9.5 -->
      <g transform="translate(339.672793 323.702125) scale(0.12 -0.12)">
       <defs>
        <path id="DejaVuSans-39" d="M 703 97 
L 703 672 
Q 941 559 1184 500 
Q 1428 441 1663 441 
Q 2288 441 2617 861 
Q 2947 1281 2994 2138 
Q 2813 1869 2534 1725 
Q 2256 1581 1919 1581 
Q 1219 1581 811 2004 
Q 403 2428 403 3163 
Q 403 3881 828 4315 
Q 1253 4750 1959 4750 
Q 2769 4750 3195 4129 
Q 3622 3509 3622 2328 
Q 3622 1225 3098 567 
Q 2575 -91 1691 -91 
Q 1453 -91 1209 -44 
Q 966 3 703 97 
z
M 1959 2075 
Q 2384 2075 2632 2365 
Q 2881 2656 2881 3163 
Q 2881 3666 2632 3958 
Q 2384 4250 1959 4250 
Q 1534 4250 1286 3958 
Q 1038 3666 1038 3163 
Q 1038 2656 1286 2365 
Q 1534 2075 1959 2075 
z
" transform="scale(0.015625)"/>
       </defs>
       <use xlink:href="#DejaVuSans-2212"/>
       <use xlink:href="#DejaVuSans-39" transform="translate(83.789062 0)"/>
       <use xlink:href="#DejaVuSans-2e" transform="translate(147.412109 0)"/>
       <use xlink:href="#DejaVuSans-35" transform="translate(179.199219 0)"/>
      </g>
     </g>
    </g>
    <g id="xtick_7">
     <g id="line2d_7">
      <g>
       <use xlink:href="#m588d7094fb" x="409.097357" y="307.584" style="stroke: #000000; stroke-width: 0.8"/>
      </g>
     </g>
     <g id="text_7">
      <!-- −9.0 -->
      <g transform="translate(394.527669 323.702125) scale(0.12 -0.12)">
       <use xlink:href="#DejaVuSans-2212"/>
       <use xlink:href="#DejaVuSans-39" transform="translate(83.789062 0)"/>
       <use xlink:href="#DejaVuSans-2e" transform="translate(147.412109 0)"/>
       <use xlink:href="#DejaVuSans-30" transform="translate(179.199219 0)"/>
      </g>
     </g>
    </g>
    <g id="text_8">
     <!-- x -->
     <g transform="translate(232.016875 340.835562) scale(0.14 -0.14)">
      <defs>
       <path id="DejaVuSans-78" d="M 3513 3500 
L 2247 1797 
L 3578 0 
L 2900 0 
L 1881 1375 
L 863 0 
L 184 0 
L 1544 1831 
L 300 3500 
L 978 3500 
L 1906 2253 
L 2834 3500 
L 3513 3500 
z
" transform="scale(0.015625)"/>
      </defs>
      <use xlink:href="#DejaVuSans-78"/>
     </g>
    </g>
   </g>
   <g id="matplotlib.axis_2">
    <g id="ytick_1">
     <g id="line2d_8">
      <defs>
       <path id="m6356f344fc" d="M 0 0 
L -3.5 0 
" style="stroke: #000000; stroke-width: 0.8"/>
      </defs>
      <g>
       <use xlink:href="#m6356f344fc" x="57.6" y="281.444388" style="stroke: #000000; stroke-width: 0.8"/>
      </g>
     </g>
     <g id="text_9">
      <!-- −5.0 -->
      <g transform="translate(21.460625 286.00345) scale(0.12 -0.12)">
       <use xlink:href="#DejaVuSans-2212"/>
       <use xlink:href="#DejaVuSans-35" transform="translate(83.789062 0)"/>
       <use xlink:href="#DejaVuSans-2e" transform="translate(147.412109 0)"/>
       <use xlink:href="#DejaVuSans-30" transform="translate(179.199219 0)"/>
      </g>
     </g>
    </g>
    <g id="ytick_2">
     <g id="line2d_9">
      <g>
       <use xlink:href="#m6356f344fc" x="57.6" y="226.589512" style="stroke: #000000; stroke-width: 0.8"/>
      </g>
     </g>
     <g id="text_10">
      <!-- −4.5 -->
      <g transform="translate(21.460625 231.148574) scale(0.12 -0.12)">
       <defs>
        <path id="DejaVuSans-34" d="M 2419 4116 
L 825 1625 
L 2419 1625 
L 2419 4116 
z
M 2253 4666 
L 3047 4666 
L 3047 1625 
L 3713 1625 
L 3713 1100 
L 3047 1100 
L 3047 0 
L 2419 0 
L 2419 1100 
L 313 1100 
L 313 1709 
L 2253 4666 
z
" transform="scale(0.015625)"/>
       </defs>
       <use xlink:href="#DejaVuSans-2212"/>
       <use xlink:href="#DejaVuSans-34" transform="translate(83.789062 0)"/>
       <use xlink:href="#DejaVuSans-2e" transform="translate(147.412109 0)"/>
       <use xlink:href="#DejaVuSans-35" transform="translate(179.199219 0)"/>
      </g>
     </g>
    </g>
    <g id="ytick_3">
     <g id="line2d_10">
      <g>
       <use xlink:href="#m6356f344fc" x="57.6" y="171.734636" style="stroke: #000000; stroke-width: 0.8"/>
      </g>
     </g>
     <g id="text_11">
      <!-- −4.0 -->
      <g transform="translate(21.460625 176.293698) scale(0.12 -0.12)">
       <use xlink:href="#DejaVuSans-2212"/>
       <use xlink:href="#DejaVuSans-34" transform="translate(83.789062 0)"/>
       <use xlink:href="#DejaVuSans-2e" transform="translate(147.412109 0)"/>
       <use xlink:href="#DejaVuSans-30" transform="translate(179.199219 0)"/>
      </g>
     </g>
    </g>
    <g id="ytick_4">
     <g id="line2d_11">
      <g>
       <use xlink:href="#m6356f344fc" x="57.6" y="116.87976" style="stroke: #000000; stroke-width: 0.8"/>
      </g>
     </g>
     <g id="text_12">
      <!-- −3.5 -->
      <g transform="translate(21.460625 121.438822) scale(0.12 -0.12)">
       <defs>
        <path id="DejaVuSans-33" d="M 2597 2516 
Q 3050 2419 3304 2112 
Q 3559 1806 3559 1356 
Q 3559 666 3084 287 
Q 2609 -91 1734 -91 
Q 1441 -91 1130 -33 
Q 819 25 488 141 
L 488 750 
Q 750 597 1062 519 
Q 1375 441 1716 441 
Q 2309 441 2620 675 
Q 2931 909 2931 1356 
Q 2931 1769 2642 2001 
Q 2353 2234 1838 2234 
L 1294 2234 
L 1294 2753 
L 1863 2753 
Q 2328 2753 2575 2939 
Q 2822 3125 2822 3475 
Q 2822 3834 2567 4026 
Q 2313 4219 1838 4219 
Q 1578 4219 1281 4162 
Q 984 4106 628 3988 
L 628 4550 
Q 988 4650 1302 4700 
Q 1616 4750 1894 4750 
Q 2613 4750 3031 4423 
Q 3450 4097 3450 3541 
Q 3450 3153 3228 2886 
Q 3006 2619 2597 2516 
z
" transform="scale(0.015625)"/>
       </defs>
       <use xlink:href="#DejaVuSans-2212"/>
       <use xlink:href="#DejaVuSans-33" transform="translate(83.789062 0)"/>
       <use xlink:href="#DejaVuSans-2e" transform="translate(147.412109 0)"/>
       <use xlink:href="#DejaVuSans-35" transform="translate(179.199219 0)"/>
      </g>
     </g>
    </g>
    <g id="ytick_5">
     <g id="line2d_12">
      <g>
       <use xlink:href="#m6356f344fc" x="57.6" y="62.024884" style="stroke: #000000; stroke-width: 0.8"/>
      </g>
     </g>
     <g id="text_13">
      <!-- −3.0 -->
      <g transform="translate(21.460625 66.583946) scale(0.12 -0.12)">
       <use xlink:href="#DejaVuSans-2212"/>
       <use xlink:href="#DejaVuSans-33" transform="translate(83.789062 0)"/>
       <use xlink:href="#DejaVuSans-2e" transform="translate(147.412109 0)"/>
       <use xlink:href="#DejaVuSans-30" transform="translate(179.199219 0)"/>
      </g>
     </g>
    </g>
    <g id="text_14">
     <!-- y -->
     <g transform="translate(14.549063 178.671125) rotate(-90) scale(0.14 -0.14)">
      <defs>
       <path id="DejaVuSans-79" d="M 2059 -325 
Q 1816 -950 1584 -1140 
Q 1353 -1331 966 -1331 
L 506 -1331 
L 506 -850 
L 844 -850 
Q 1081 -850 1212 -737 
Q 1344 -625 1503 -206 
L 1606 56 
L 191 3500 
L 800 3500 
L 1894 763 
L 2988 3500 
L 3597 3500 
L 2059 -325 
z
" transform="scale(0.015625)"/>
      </defs>
      <use xlink:href="#DejaVuSans-79"/>
     </g>
    </g>
   </g>
   <g id="line2d_13">
    <defs>
     <path id="maa900f8b32" d="M 0 3 
C 0.795609 3 1.55874 2.683901 2.12132 2.12132 
C 2.683901 1.55874 3 0.795609 3 0 
C 3 -0.795609 2.683901 -1.55874 2.12132 -2.12132 
C 1.55874 -2.683901 0.795609 -3 0 -3 
C -0.795609 -3 -1.55874 -2.683901 -2.12132 -2.12132 
C -2.683901 -1.55874 -3 -0.795609 -3 0 
C -3 0.795609 -2.683901 1.55874 -2.12132 2.12132 
C -1.55874 2.683901 -0.795609 3 0 3 
z
" style="stroke: #0000ff"/>
    </defs>
    <g clip-path="url(#p6f0ab342f6)">
     <use xlink:href="#maa900f8b32" x="321.151462" y="175.628205" style="fill: #0000ff; stroke: #0000ff"/>
     <use xlink:href="#maa900f8b32" x="292.28463" y="142.762214" style="fill: #0000ff; stroke: #0000ff"/>
     <use xlink:href="#maa900f8b32" x="191.069245" y="77.835657" style="fill: #0000ff; stroke: #0000ff"/>
     <use xlink:href="#maa900f8b32" x="305.471129" y="156.329398" style="fill: #0000ff; stroke: #0000ff"/>
     <use xlink:href="#maa900f8b32" x="233.262297" y="179.699654" style="fill: #0000ff; stroke: #0000ff"/>
     <use xlink:href="#maa900f8b32" x="261.194597" y="257.913281" style="fill: #0000ff; stroke: #0000ff"/>
     <use xlink:href="#maa900f8b32" x="250.976077" y="195.404257" style="fill: #0000ff; stroke: #0000ff"/>
     <use xlink:href="#maa900f8b32" x="132.310448" y="133.273731" style="fill: #0000ff; stroke: #0000ff"/>
     <use xlink:href="#maa900f8b32" x="302.367842" y="202.909074" style="fill: #0000ff; stroke: #0000ff"/>
     <use xlink:href="#maa900f8b32" x="249.773819" y="123.449303" style="fill: #0000ff; stroke: #0000ff"/>
     <use xlink:href="#maa900f8b32" x="192.674608" y="287.609073" style="fill: #0000ff; stroke: #0000ff"/>
     <use xlink:href="#maa900f8b32" x="232.967604" y="131.255699" style="fill: #0000ff; stroke: #0000ff"/>
     <use xlink:href="#maa900f8b32" x="277.924888" y="283.402912" style="fill: #0000ff; stroke: #0000ff"/>
     <use xlink:href="#maa900f8b32" x="191.249481" y="102.542248" style="fill: #0000ff; stroke: #0000ff"/>
     <use xlink:href="#maa900f8b32" x="309.739382" y="254.394689" style="fill: #0000ff; stroke: #0000ff"/>
     <use xlink:href="#maa900f8b32" x="290.170988" y="94.048155" style="fill: #0000ff; stroke: #0000ff"/>
     <use xlink:href="#maa900f8b32" x="161.857787" y="197.590015" style="fill: #0000ff; stroke: #0000ff"/>
     <use xlink:href="#maa900f8b32" x="159.757805" y="241.46645" style="fill: #0000ff; stroke: #0000ff"/>
     <use xlink:href="#maa900f8b32" x="132.447748" y="207.824786" style="fill: #0000ff; stroke: #0000ff"/>
     <use xlink:href="#maa900f8b32" x="170.221338" y="154.204483" style="fill: #0000ff; stroke: #0000ff"/>
    </g>
   </g>
   <g id="line2d_14">
    <defs>
     <path id="m3be3b2d2a5" d="M 0 3 
C 0.795609 3 1.55874 2.683901 2.12132 2.12132 
C 2.683901 1.55874 3 0.795609 3 0 
C 3 -0.795609 2.683901 -1.55874 2.12132 -2.12132 
C 1.55874 -2.683901 0.795609 -3 0 -3 
C -0.795609 -3 -1.55874 -2.683901 -2.12132 -2.12132 
C -2.683901 -1.55874 -3 -0.795609 -3 0 
C -3 0.795609 -2.683901 1.55874 -2.12132 2.12132 
C -1.55874 2.683901 -0.795609 3 0 3 
z
" style="stroke: #ff0000"/>
    </defs>
    <g clip-path="url(#p6f0ab342f6)">
     <use xlink:href="#m3be3b2d2a5" x="312.563923" y="91.903666" style="fill: #ff0000; stroke: #ff0000"/>
     <use xlink:href="#m3be3b2d2a5" x="269.757971" y="71.341013" style="fill: #ff0000; stroke: #ff0000"/>
     <use xlink:href="#m3be3b2d2a5" x="248.941529" y="291.799946" style="fill: #ff0000; stroke: #ff0000"/>
     <use xlink:href="#m3be3b2d2a5" x="210.040799" y="151.913897" style="fill: #ff0000; stroke: #ff0000"/>
     <use xlink:href="#m3be3b2d2a5" x="239.372506" y="85.512013" style="fill: #ff0000; stroke: #ff0000"/>
     <use xlink:href="#m3be3b2d2a5" x="290.685425" y="201.76919" style="fill: #ff0000; stroke: #ff0000"/>
     <use xlink:href="#m3be3b2d2a5" x="144.46154" y="242.829644" style="fill: #ff0000; stroke: #ff0000"/>
     <use xlink:href="#m3be3b2d2a5" x="232.212427" y="214.944222" style="fill: #ff0000; stroke: #ff0000"/>
     <use xlink:href="#m3be3b2d2a5" x="179.11147" y="200.994539" style="fill: #ff0000; stroke: #ff0000"/>
     <use xlink:href="#m3be3b2d2a5" x="142.344139" y="175.177336" style="fill: #ff0000; stroke: #ff0000"/>
     <use xlink:href="#m3be3b2d2a5" x="332.676214" y="151.520818" style="fill: #ff0000; stroke: #ff0000"/>
     <use xlink:href="#m3be3b2d2a5" x="187.828979" y="255.281075" style="fill: #ff0000; stroke: #ff0000"/>
     <use xlink:href="#m3be3b2d2a5" x="200.652033" y="201.751871" style="fill: #ff0000; stroke: #ff0000"/>
     <use xlink:href="#m3be3b2d2a5" x="274.963294" y="167.154615" style="fill: #ff0000; stroke: #ff0000"/>
     <use xlink:href="#m3be3b2d2a5" x="251.441721" y="65.106523" style="fill: #ff0000; stroke: #ff0000"/>
     <use xlink:href="#m3be3b2d2a5" x="232.520273" y="139.237436" style="fill: #ff0000; stroke: #ff0000"/>
     <use xlink:href="#m3be3b2d2a5" x="219.588391" y="178.361854" style="fill: #ff0000; stroke: #ff0000"/>
     <use xlink:href="#m3be3b2d2a5" x="202.820307" y="223.325517" style="fill: #ff0000; stroke: #ff0000"/>
     <use xlink:href="#m3be3b2d2a5" x="192.642882" y="198.237796" style="fill: #ff0000; stroke: #ff0000"/>
     <use xlink:href="#m3be3b2d2a5" x="166.23357" y="289.998384" style="fill: #ff0000; stroke: #ff0000"/>
     <use xlink:href="#m3be3b2d2a5" x="333.712358" y="223.441841" style="fill: #ff0000; stroke: #ff0000"/>
     <use xlink:href="#m3be3b2d2a5" x="146.977065" y="221.666134" style="fill: #ff0000; stroke: #ff0000"/>
     <use xlink:href="#m3be3b2d2a5" x="186.347181" y="199.576571" style="fill: #ff0000; stroke: #ff0000"/>
     <use xlink:href="#m3be3b2d2a5" x="211.238073" y="115.196724" style="fill: #ff0000; stroke: #ff0000"/>
     <use xlink:href="#m3be3b2d2a5" x="311.291651" y="274.837598" style="fill: #ff0000; stroke: #ff0000"/>
     <use xlink:href="#m3be3b2d2a5" x="248.299858" y="113.450886" style="fill: #ff0000; stroke: #ff0000"/>
     <use xlink:href="#m3be3b2d2a5" x="243.005063" y="223.515106" style="fill: #ff0000; stroke: #ff0000"/>
     <use xlink:href="#m3be3b2d2a5" x="279.414442" y="245.803807" style="fill: #ff0000; stroke: #ff0000"/>
     <use xlink:href="#m3be3b2d2a5" x="220.985294" y="266.685963" style="fill: #ff0000; stroke: #ff0000"/>
     <use xlink:href="#m3be3b2d2a5" x="119.34784" y="163.432869" style="fill: #ff0000; stroke: #ff0000"/>
     <use xlink:href="#m3be3b2d2a5" x="340.609681" y="151.013759" style="fill: #ff0000; stroke: #ff0000"/>
     <use xlink:href="#m3be3b2d2a5" x="121.755977" y="176.073518" style="fill: #ff0000; stroke: #ff0000"/>
     <use xlink:href="#m3be3b2d2a5" x="288.397167" y="114.926373" style="fill: #ff0000; stroke: #ff0000"/>
     <use xlink:href="#m3be3b2d2a5" x="335.191355" y="257.303254" style="fill: #ff0000; stroke: #ff0000"/>
     <use xlink:href="#m3be3b2d2a5" x="130.544668" y="176.247648" style="fill: #ff0000; stroke: #ff0000"/>
     <use xlink:href="#m3be3b2d2a5" x="322.536696" y="112.141215" style="fill: #ff0000; stroke: #ff0000"/>
     <use xlink:href="#m3be3b2d2a5" x="227.334603" y="218.553298" style="fill: #ff0000; stroke: #ff0000"/>
     <use xlink:href="#m3be3b2d2a5" x="331.366616" y="199.330572" style="fill: #ff0000; stroke: #ff0000"/>
     <use xlink:href="#m3be3b2d2a5" x="180.55912" y="116.529016" style="fill: #ff0000; stroke: #ff0000"/>
     <use xlink:href="#m3be3b2d2a5" x="129.378121" y="239.206983" style="fill: #ff0000; stroke: #ff0000"/>
     <use xlink:href="#m3be3b2d2a5" x="164.348141" y="267.552639" style="fill: #ff0000; stroke: #ff0000"/>
     <use xlink:href="#m3be3b2d2a5" x="235.976192" y="53.568" style="fill: #ff0000; stroke: #ff0000"/>
     <use xlink:href="#m3be3b2d2a5" x="178.97311" y="161.738899" style="fill: #ff0000; stroke: #ff0000"/>
     <use xlink:href="#m3be3b2d2a5" x="262.929984" y="295.488" style="fill: #ff0000; stroke: #ff0000"/>
     <use xlink:href="#m3be3b2d2a5" x="330.834163" y="127.305438" style="fill: #ff0000; stroke: #ff0000"/>
     <use xlink:href="#m3be3b2d2a5" x="189.163147" y="223.609393" style="fill: #ff0000; stroke: #ff0000"/>
     <use xlink:href="#m3be3b2d2a5" x="296.564871" y="71.562326" style="fill: #ff0000; stroke: #ff0000"/>
     <use xlink:href="#m3be3b2d2a5" x="335.525167" y="235.759741" style="fill: #ff0000; stroke: #ff0000"/>
     <use xlink:href="#m3be3b2d2a5" x="311.401267" y="120.888884" style="fill: #ff0000; stroke: #ff0000"/>
     <use xlink:href="#m3be3b2d2a5" x="229.985095" y="190.723213" style="fill: #ff0000; stroke: #ff0000"/>
    </g>
   </g>
   <g id="line2d_15">
    <defs>
     <path id="mafc7e6485b" d="M 0 3 
C 0.795609 3 1.55874 2.683901 2.12132 2.12132 
C 2.683901 1.55874 3 0.795609 3 0 
C 3 -0.795609 2.683901 -1.55874 2.12132 -2.12132 
C 1.55874 -2.683901 0.795609 -3 0 -3 
C -0.795609 -3 -1.55874 -2.683901 -2.12132 -2.12132 
C -2.683901 -1.55874 -3 -0.795609 -3 0 
C -3 0.795609 -2.683901 1.55874 -2.12132 2.12132 
C -1.55874 2.683901 -0.795609 3 0 3 
z
" style="stroke: #000000"/>
    </defs>
    <g clip-path="url(#p6f0ab342f6)">
     <use xlink:href="#mafc7e6485b" x="214.803842" y="65.002268" style="stroke: #000000"/>
     <use xlink:href="#mafc7e6485b" x="275.542388" y="206.329751" style="stroke: #000000"/>
     <use xlink:href="#mafc7e6485b" x="261.348306" y="98.560039" style="stroke: #000000"/>
     <use xlink:href="#mafc7e6485b" x="221.13073" y="289.569501" style="stroke: #000000"/>
     <use xlink:href="#mafc7e6485b" x="179.071069" y="237.341281" style="stroke: #000000"/>
     <use xlink:href="#mafc7e6485b" x="224.165899" y="233.018548" style="stroke: #000000"/>
     <use xlink:href="#mafc7e6485b" x="303.4062" y="224.122643" style="stroke: #000000"/>
     <use xlink:href="#mafc7e6485b" x="200.067777" y="130.676955" style="stroke: #000000"/>
     <use xlink:href="#mafc7e6485b" x="161.865916" y="116.606891" style="stroke: #000000"/>
     <use xlink:href="#mafc7e6485b" x="152.46251" y="86.743309" style="stroke: #000000"/>
     <use xlink:href="#mafc7e6485b" x="225.979983" y="96.313627" style="stroke: #000000"/>
     <use xlink:href="#mafc7e6485b" x="203.679289" y="245.275164" style="stroke: #000000"/>
     <use xlink:href="#mafc7e6485b" x="288.026042" y="178.155335" style="stroke: #000000"/>
     <use xlink:href="#mafc7e6485b" x="214.134391" y="140.402293" style="stroke: #000000"/>
     <use xlink:href="#mafc7e6485b" x="271.542677" y="149.002958" style="stroke: #000000"/>
     <use xlink:href="#mafc7e6485b" x="260.043095" y="232.772162" style="stroke: #000000"/>
     <use xlink:href="#mafc7e6485b" x="352.97216" y="188.009428" style="stroke: #000000"/>
     <use xlink:href="#mafc7e6485b" x="156.696779" y="135.559942" style="stroke: #000000"/>
     <use xlink:href="#mafc7e6485b" x="190.270711" y="178.376213" style="stroke: #000000"/>
     <use xlink:href="#mafc7e6485b" x="236.787953" y="258.382738" style="stroke: #000000"/>
    </g>
   </g>
   <g id="patch_3">
    <path d="M 57.6 307.584 
L 57.6 41.472 
" style="fill: none; stroke: #000000; stroke-width: 0.8; stroke-linejoin: miter; stroke-linecap: square"/>
   </g>
   <g id="patch_4">
    <path d="M 414.72 307.584 
L 414.72 41.472 
" style="fill: none; stroke: #000000; stroke-width: 0.8; stroke-linejoin: miter; stroke-linecap: square"/>
   </g>
   <g id="patch_5">
    <path d="M 57.6 307.584 
L 414.72 307.584 
" style="fill: none; stroke: #000000; stroke-width: 0.8; stroke-linejoin: miter; stroke-linecap: square"/>
   </g>
   <g id="patch_6">
    <path d="M 57.6 41.472 
L 414.72 41.472 
" style="fill: none; stroke: #000000; stroke-width: 0.8; stroke-linejoin: miter; stroke-linecap: square"/>
   </g>
   <g id="text_15">
    <!-- Velocities at the final time -->
    <g transform="translate(116.81 35.472) scale(0.16 -0.16)">
     <defs>
      <path id="DejaVuSans-Bold-56" d="M 31 4666 
L 1241 4666 
L 2478 1222 
L 3713 4666 
L 4922 4666 
L 3194 0 
L 1759 0 
L 31 4666 
z
" transform="scale(0.015625)"/>
      <path id="DejaVuSans-Bold-65" d="M 4031 1759 
L 4031 1441 
L 1416 1441 
Q 1456 1047 1700 850 
Q 1944 653 2381 653 
Q 2734 653 3104 758 
Q 3475 863 3866 1075 
L 3866 213 
Q 3469 63 3072 -14 
Q 2675 -91 2278 -91 
Q 1328 -91 801 392 
Q 275 875 275 1747 
Q 275 2603 792 3093 
Q 1309 3584 2216 3584 
Q 3041 3584 3536 3087 
Q 4031 2591 4031 1759 
z
M 2881 2131 
Q 2881 2450 2695 2645 
Q 2509 2841 2209 2841 
Q 1884 2841 1681 2658 
Q 1478 2475 1428 2131 
L 2881 2131 
z
" transform="scale(0.015625)"/>
      <path id="DejaVuSans-Bold-6c" d="M 538 4863 
L 1656 4863 
L 1656 0 
L 538 0 
L 538 4863 
z
" transform="scale(0.015625)"/>
      <path id="DejaVuSans-Bold-6f" d="M 2203 2784 
Q 1831 2784 1636 2517 
Q 1441 2250 1441 1747 
Q 1441 1244 1636 976 
Q 1831 709 2203 709 
Q 2569 709 2762 976 
Q 2956 1244 2956 1747 
Q 2956 2250 2762 2517 
Q 2569 2784 2203 2784 
z
M 2203 3584 
Q 3106 3584 3614 3096 
Q 4122 2609 4122 1747 
Q 4122 884 3614 396 
Q 3106 -91 2203 -91 
Q 1297 -91 786 396 
Q 275 884 275 1747 
Q 275 2609 786 3096 
Q 1297 3584 2203 3584 
z
" transform="scale(0.015625)"/>
      <path id="DejaVuSans-Bold-63" d="M 3366 3391 
L 3366 2478 
Q 3138 2634 2908 2709 
Q 2678 2784 2431 2784 
Q 1963 2784 1702 2511 
Q 1441 2238 1441 1747 
Q 1441 1256 1702 982 
Q 1963 709 2431 709 
Q 2694 709 2930 787 
Q 3166 866 3366 1019 
L 3366 103 
Q 3103 6 2833 -42 
Q 2563 -91 2291 -91 
Q 1344 -91 809 395 
Q 275 881 275 1747 
Q 275 2613 809 3098 
Q 1344 3584 2291 3584 
Q 2566 3584 2833 3536 
Q 3100 3488 3366 3391 
z
" transform="scale(0.015625)"/>
      <path id="DejaVuSans-Bold-69" d="M 538 3500 
L 1656 3500 
L 1656 0 
L 538 0 
L 538 3500 
z
M 538 4863 
L 1656 4863 
L 1656 3950 
L 538 3950 
L 538 4863 
z
" transform="scale(0.015625)"/>
      <path id="DejaVuSans-Bold-74" d="M 1759 4494 
L 1759 3500 
L 2913 3500 
L 2913 2700 
L 1759 2700 
L 1759 1216 
Q 1759 972 1856 886 
Q 1953 800 2241 800 
L 2816 800 
L 2816 0 
L 1856 0 
Q 1194 0 917 276 
Q 641 553 641 1216 
L 641 2700 
L 84 2700 
L 84 3500 
L 641 3500 
L 641 4494 
L 1759 4494 
z
" transform="scale(0.015625)"/>
      <path id="DejaVuSans-Bold-73" d="M 3272 3391 
L 3272 2541 
Q 2913 2691 2578 2766 
Q 2244 2841 1947 2841 
Q 1628 2841 1473 2761 
Q 1319 2681 1319 2516 
Q 1319 2381 1436 2309 
Q 1553 2238 1856 2203 
L 2053 2175 
Q 2913 2066 3209 1816 
Q 3506 1566 3506 1031 
Q 3506 472 3093 190 
Q 2681 -91 1863 -91 
Q 1516 -91 1145 -36 
Q 775 19 384 128 
L 384 978 
Q 719 816 1070 734 
Q 1422 653 1784 653 
Q 2113 653 2278 743 
Q 2444 834 2444 1013 
Q 2444 1163 2330 1236 
Q 2216 1309 1875 1350 
L 1678 1375 
Q 931 1469 631 1722 
Q 331 1975 331 2491 
Q 331 3047 712 3315 
Q 1094 3584 1881 3584 
Q 2191 3584 2531 3537 
Q 2872 3491 3272 3391 
z
" transform="scale(0.015625)"/>
      <path id="DejaVuSans-Bold-20" transform="scale(0.015625)"/>
      <path id="DejaVuSans-Bold-61" d="M 2106 1575 
Q 1756 1575 1579 1456 
Q 1403 1338 1403 1106 
Q 1403 894 1545 773 
Q 1688 653 1941 653 
Q 2256 653 2472 879 
Q 2688 1106 2688 1447 
L 2688 1575 
L 2106 1575 
z
M 3816 1997 
L 3816 0 
L 2688 0 
L 2688 519 
Q 2463 200 2181 54 
Q 1900 -91 1497 -91 
Q 953 -91 614 226 
Q 275 544 275 1050 
Q 275 1666 698 1953 
Q 1122 2241 2028 2241 
L 2688 2241 
L 2688 2328 
Q 2688 2594 2478 2717 
Q 2269 2841 1825 2841 
Q 1466 2841 1156 2769 
Q 847 2697 581 2553 
L 581 3406 
Q 941 3494 1303 3539 
Q 1666 3584 2028 3584 
Q 2975 3584 3395 3211 
Q 3816 2838 3816 1997 
z
" transform="scale(0.015625)"/>
      <path id="DejaVuSans-Bold-68" d="M 4056 2131 
L 4056 0 
L 2931 0 
L 2931 347 
L 2931 1625 
Q 2931 2084 2911 2256 
Q 2891 2428 2841 2509 
Q 2775 2619 2662 2680 
Q 2550 2741 2406 2741 
Q 2056 2741 1856 2470 
Q 1656 2200 1656 1722 
L 1656 0 
L 538 0 
L 538 4863 
L 1656 4863 
L 1656 2988 
Q 1909 3294 2193 3439 
Q 2478 3584 2822 3584 
Q 3428 3584 3742 3212 
Q 4056 2841 4056 2131 
z
" transform="scale(0.015625)"/>
      <path id="DejaVuSans-Bold-66" d="M 2841 4863 
L 2841 4128 
L 2222 4128 
Q 1984 4128 1890 4042 
Q 1797 3956 1797 3744 
L 1797 3500 
L 2753 3500 
L 2753 2700 
L 1797 2700 
L 1797 0 
L 678 0 
L 678 2700 
L 122 2700 
L 122 3500 
L 678 3500 
L 678 3744 
Q 678 4316 997 4589 
Q 1316 4863 1984 4863 
L 2841 4863 
z
" transform="scale(0.015625)"/>
      <path id="DejaVuSans-Bold-6e" d="M 4056 2131 
L 4056 0 
L 2931 0 
L 2931 347 
L 2931 1631 
Q 2931 2084 2911 2256 
Q 2891 2428 2841 2509 
Q 2775 2619 2662 2680 
Q 2550 2741 2406 2741 
Q 2056 2741 1856 2470 
Q 1656 2200 1656 1722 
L 1656 0 
L 538 0 
L 538 3500 
L 1656 3500 
L 1656 2988 
Q 1909 3294 2193 3439 
Q 2478 3584 2822 3584 
Q 3428 3584 3742 3212 
Q 4056 2841 4056 2131 
z
" transform="scale(0.015625)"/>
      <path id="DejaVuSans-Bold-6d" d="M 3781 2919 
Q 3994 3244 4286 3414 
Q 4578 3584 4928 3584 
Q 5531 3584 5847 3212 
Q 6163 2841 6163 2131 
L 6163 0 
L 5038 0 
L 5038 1825 
Q 5041 1866 5042 1909 
Q 5044 1953 5044 2034 
Q 5044 2406 4934 2573 
Q 4825 2741 4581 2741 
Q 4263 2741 4089 2478 
Q 3916 2216 3909 1719 
L 3909 0 
L 2784 0 
L 2784 1825 
Q 2784 2406 2684 2573 
Q 2584 2741 2328 2741 
Q 2006 2741 1831 2477 
Q 1656 2213 1656 1722 
L 1656 0 
L 531 0 
L 531 3500 
L 1656 3500 
L 1656 2988 
Q 1863 3284 2130 3434 
Q 2397 3584 2719 3584 
Q 3081 3584 3359 3409 
Q 3638 3234 3781 2919 
z
" transform="scale(0.015625)"/>
     </defs>
     <use xlink:href="#DejaVuSans-Bold-56"/>
     <use xlink:href="#DejaVuSans-Bold-65" transform="translate(71.892578 0)"/>
     <use xlink:href="#DejaVuSans-Bold-6c" transform="translate(139.714844 0)"/>
     <use xlink:href="#DejaVuSans-Bold-6f" transform="translate(173.992188 0)"/>
     <use xlink:href="#DejaVuSans-Bold-63" transform="translate(242.693359 0)"/>
     <use xlink:href="#DejaVuSans-Bold-69" transform="translate(301.970703 0)"/>
     <use xlink:href="#DejaVuSans-Bold-74" transform="translate(336.248047 0)"/>
     <use xlink:href="#DejaVuSans-Bold-69" transform="translate(384.050781 0)"/>
     <use xlink:href="#DejaVuSans-Bold-65" transform="translate(418.328125 0)"/>
     <use xlink:href="#DejaVuSans-Bold-73" transform="translate(486.150391 0)"/>
     <use xlink:href="#DejaVuSans-Bold-20" transform="translate(545.671875 0)"/>
     <use xlink:href="#DejaVuSans-Bold-61" transform="translate(580.486328 0)"/>
     <use xlink:href="#DejaVuSans-Bold-74" transform="translate(647.966797 0)"/>
     <use xlink:href="#DejaVuSans-Bold-20" transform="translate(695.769531 0)"/>
     <use xlink:href="#DejaVuSans-Bold-74" transform="translate(730.583984 0)"/>
     <use xlink:href="#DejaVuSans-Bold-68" transform="translate(778.386719 0)"/>
     <use xlink:href="#DejaVuSans-Bold-65" transform="translate(849.578125 0)"/>
     <use xlink:href="#DejaVuSans-Bold-20" transform="translate(917.400391 0)"/>
     <use xlink:href="#DejaVuSans-Bold-66" transform="translate(952.214844 0)"/>
     <use xlink:href="#DejaVuSans-Bold-69" transform="translate(995.720703 0)"/>
     <use xlink:href="#DejaVuSans-Bold-6e" transform="translate(1029.998047 0)"/>
     <use xlink:href="#DejaVuSans-Bold-61" transform="translate(1101.189453 0)"/>
     <use xlink:href="#DejaVuSans-Bold-6c" transform="translate(1168.669922 0)"/>
     <use xlink:href="#DejaVuSans-Bold-20" transform="translate(1202.947266 0)"/>
     <use xlink:href="#DejaVuSans-Bold-74" transform="translate(1237.761719 0)"/>
     <use xlink:href="#DejaVuSans-Bold-69" transform="translate(1285.564453 0)"/>
     <use xlink:href="#DejaVuSans-Bold-6d" transform="translate(1319.841797 0)"/>
     <use xlink:href="#DejaVuSans-Bold-65" transform="translate(1424.041016 0)"/>
    </g>
   </g>
  </g>
 </g>
 <defs>
  <clipPath id="p6f0ab342f6">
   <rect x="57.6" y="41.472" width="357.12" height="266.112"/>
  </clipPath>
 </defs>
</svg>
