<?xml version="1.0" encoding="utf-8" standalone="no"?>
<!DOCTYPE svg PUBLIC "-//W3C//DTD SVG 1.1//EN"
  "http://www.w3.org/Graphics/SVG/1.1/DTD/svg11.dtd">
<svg xmlns:xlink="http://www.w3.org/1999/xlink" width="460.8pt" height="345.6pt" viewBox="0 0 460.8 345.6" xmlns="http://www.w3.org/2000/svg" version="1.1">
 <metadata>
  <rdf:RDF xmlns:dc="http://purl.org/dc/elements/1.1/" xmlns:cc="http://creativecommons.org/ns#" xmlns:rdf="http://www.w3.org/1999/02/22-rdf-syntax-ns#">
   <cc:Work>
    <dc:type rdf:resource="http://purl.org/dc/dcmitype/StillImage"/>
    <dc:date>2025-05-05T23:14:04.706909</dc:date>
    <dc:format>image/svg+xml</dc:format>
    <dc:creator>
     <cc:Agent>
      <dc:title>Matplotlib v3.10.1, https://matplotlib.org/</dc:title>
     </cc:Agent>
    </dc:creator>
   </cc:Work>
  </rdf:RDF>
 </metadata>
 <defs>
  <style type="text/css">*{stroke-linejoin: round; stroke-linecap: butt}</style>
 </defs>
 <g id="figure_1">
  <g id="patch_1">
   <path d="M 0 345.6 
L 460.8 345.6 
L 460.8 0 
L 0 0 
z
" style="fill: #ffffff"/>
  </g>
  <g id="axes_1">
   <g id="patch_2">
    <path d="M 57.6 307.584 
L 414.72 307.584 
L 414.72 41.472 
L 57.6 41.472 
z
" style="fill: #ffffff"/>
   </g>
   <g id="Quiver_1">
    <path d="M 243.441147 123.445245 
L 250.126387 116.45036 
L 247.713297 115.70623 
L 257.965227 109.882938 
L 252.611759 120.38785 
L 251.759208 118.0109 
L 245.073968 125.005785 
L 243.441147 123.445245 
" clip-path="url(#p2a54a49829)"/>
    <path d="M 346.147747 212.127799 
L 352.830739 205.132972 
L 350.417527 204.389238 
L 360.668503 198.564265 
L 355.316756 209.070055 
L 354.463816 206.693244 
L 347.780824 213.688072 
L 346.147747 212.127799 
" clip-path="url(#p2a54a49829)"/>
    <path d="M 157.373231 204.280266 
L 164.057165 197.280952 
L 161.643767 196.537821 
L 171.893288 190.710287 
L 166.544165 201.217413 
L 165.690631 198.840816 
L 159.006697 205.84013 
L 157.373231 204.280266 
" clip-path="url(#p2a54a49829)"/>
    <path d="M 263.899782 179.180706 
L 270.581604 172.188251 
L 268.168452 171.444319 
L 278.419905 165.620186 
L 273.067297 176.125537 
L 272.214552 173.748657 
L 265.532731 180.741112 
L 263.899782 179.180706 
" clip-path="url(#p2a54a49829)"/>
    <path d="M 317.968742 153.059524 
L 324.652178 146.066885 
L 322.239106 145.322694 
L 332.491186 139.499664 
L 327.137448 150.004439 
L 326.284958 147.627467 
L 319.601523 154.620105 
L 317.968742 153.059524 
" clip-path="url(#p2a54a49829)"/>
    <path d="M 290.490955 99.306212 
L 297.174648 92.314442 
L 294.761637 91.570054 
L 305.01419 85.747858 
L 299.659598 96.252198 
L 298.807301 93.875157 
L 292.123608 100.866926 
L 290.490955 99.306212 
" clip-path="url(#p2a54a49829)"/>
    <path d="M 283.567397 154.015521 
L 290.250105 147.023006 
L 287.837 146.278925 
L 298.088814 140.455428 
L 292.735554 150.960447 
L 291.882957 148.583514 
L 285.200248 155.576028 
L 283.567397 154.015521 
" clip-path="url(#p2a54a49829)"/>
    <path d="M 296.037418 228.663129 
L 302.718895 221.671121 
L 300.305748 220.927174 
L 310.557238 215.103104 
L 305.204565 225.608422 
L 304.351834 223.231537 
L 297.670357 230.223545 
L 296.037418 228.663129 
" clip-path="url(#p2a54a49829)"/>
    <path d="M 191.866795 258.66747 
L 198.546595 251.672232 
L 196.133184 250.929144 
L 206.382599 245.101426 
L 201.033666 255.608649 
L 200.18009 253.232067 
L 193.500289 260.227304 
L 191.866795 258.66747 
" clip-path="url(#p2a54a49829)"/>
    <path d="M 197.696768 65.773092 
L 204.392775 58.769903 
L 201.979841 58.025263 
L 212.233001 52.204135 
L 206.877314 62.707917 
L 206.025266 60.330787 
L 199.329259 67.333977 
L 197.696768 65.773092 
" clip-path="url(#p2a54a49829)"/>
    <path d="M 165.005264 239.026202 
L 171.688154 232.028532 
L 169.274785 231.285306 
L 179.524534 225.458176 
L 174.174999 235.965092 
L 173.321558 233.588461 
L 166.638668 240.58613 
L 165.005264 239.026202 
" clip-path="url(#p2a54a49829)"/>
    <path d="M 256.008232 210.010539 
L 262.688469 203.018811 
L 260.275268 202.275039 
L 270.526334 196.450224 
L 265.174425 206.955932 
L 264.321521 204.579108 
L 257.641284 211.570836 
L 256.008232 210.010539 
" clip-path="url(#p2a54a49829)"/>
    <path d="M 301.685501 128.928368 
L 308.369289 121.93605 
L 305.956254 121.19174 
L 316.20862 115.369214 
L 310.854366 125.873726 
L 310.001993 123.496712 
L 303.318205 130.48903 
L 301.685501 128.928368 
" clip-path="url(#p2a54a49829)"/>
    <path d="M 216.746677 236.833524 
L 223.426832 229.839201 
L 221.013489 229.095892 
L 231.263439 223.269114 
L 225.913542 233.775846 
L 225.060183 231.399186 
L 218.380028 238.393509 
L 216.746677 236.833524 
" clip-path="url(#p2a54a49829)"/>
    <path d="M 256.526098 150.207944 
L 263.209234 143.214741 
L 260.796116 142.470701 
L 271.04783 136.647027 
L 265.694751 147.152139 
L 264.842112 144.77522 
L 258.158977 151.768423 
L 256.526098 150.207944 
" clip-path="url(#p2a54a49829)"/>
    <path d="M 142.969543 172.335766 
L 149.654823 165.334199 
L 147.24138 164.591214 
L 157.49055 158.763063 
L 152.14206 169.270511 
L 151.288383 166.893965 
L 144.603103 173.895532 
L 142.969543 172.335766 
" clip-path="url(#p2a54a49829)"/>
    <path d="M 328.875415 243.113401 
L 335.558802 236.117417 
L 333.14555 235.373811 
L 343.396216 229.548294 
L 338.045027 240.054368 
L 337.191961 237.677603 
L 330.508574 244.673587 
L 328.875415 243.113401 
" clip-path="url(#p2a54a49829)"/>
    <path d="M 209.670773 179.049394 
L 216.3543 172.053544 
L 213.941063 171.309889 
L 224.191847 165.484578 
L 218.840446 175.990545 
L 217.987428 173.613762 
L 211.303901 180.609612 
L 209.670773 179.049394 
" clip-path="url(#p2a54a49829)"/>
    <path d="M 246.712583 238.173995 
L 253.392701 231.181636 
L 250.97946 230.437995 
L 261.230211 224.612627 
L 255.878869 235.118623 
L 255.025837 232.741846 
L 248.34572 239.734205 
L 246.712583 238.173995 
" clip-path="url(#p2a54a49829)"/>
    <path d="M 186.769146 194.817908 
L 193.451741 187.820898 
L 191.038391 187.077611 
L 201.288286 181.250737 
L 195.938488 191.757519 
L 195.085107 189.380867 
L 188.402511 196.377878 
L 186.769146 194.817908 
" clip-path="url(#p2a54a49829)"/>
    <path d="M 298.633355 278.174602 
L 305.316569 271.179906 
L 302.903376 270.436109 
L 313.154503 264.611402 
L 307.802483 275.117053 
L 306.949604 272.740221 
L 300.26639 279.734917 
L 298.633355 278.174602 
" clip-path="url(#p2a54a49829)"/>
    <path d="M 228.556534 170.252116 
L 235.239709 163.258125 
L 232.826551 162.514214 
L 243.077954 156.689993 
L 237.725436 167.19539 
L 236.87267 164.818517 
L 230.189496 171.812508 
L 228.556534 170.252116 
" clip-path="url(#p2a54a49829)"/>
    <path d="M 138.727482 147.107024 
L 145.415797 140.104282 
L 143.00246 139.360951 
L 153.252462 133.534264 
L 147.902471 144.040949 
L 147.049134 141.664281 
L 140.36082 148.667023 
L 138.727482 147.107024 
" clip-path="url(#p2a54a49829)"/>
    <path d="M 270.524066 228.194876 
L 277.204835 221.203095 
L 274.791661 220.459237 
L 285.042937 214.634792 
L 279.690649 225.140306 
L 278.837831 222.763452 
L 272.157061 229.755233 
L 270.524066 228.194876 
" clip-path="url(#p2a54a49829)"/>
    <path d="M 356.460332 184.483945 
L 363.142892 177.491076 
L 360.729759 176.747082 
L 370.981361 170.923211 
L 365.628485 181.428425 
L 364.7758 179.051523 
L 358.093241 186.044393 
L 356.460332 184.483945 
" clip-path="url(#p2a54a49829)"/>
    <path d="M 191.708623 233.802356 
L 198.388009 226.808315 
L 195.974638 226.065096 
L 206.224371 220.237936 
L 200.874866 230.744867 
L 200.021418 228.368239 
L 193.342032 235.36228 
L 191.708623 233.802356 
" clip-path="url(#p2a54a49829)"/>
    <path d="M 196.296491 218.080975 
L 202.979144 211.083779 
L 200.565787 210.340514 
L 210.815629 204.513547 
L 205.465926 215.020378 
L 204.612523 212.643734 
L 197.929871 219.64093 
L 196.296491 218.080975 
" clip-path="url(#p2a54a49829)"/>
    <path d="M 200.680681 106.798966 
L 207.369475 99.800608 
L 204.956397 99.056436 
L 215.20843 93.233323 
L 209.854777 103.738142 
L 209.002268 101.361177 
L 202.313474 108.359535 
L 200.680681 106.798966 
" clip-path="url(#p2a54a49829)"/>
    <path d="M 167.2527 180.368746 
L 173.936939 173.369898 
L 171.523582 172.626632 
L 181.773429 166.799673 
L 176.423718 177.306499 
L 175.570317 174.929854 
L 168.886078 181.928702 
L 167.2527 180.368746 
" clip-path="url(#p2a54a49829)"/>
    <path d="M 281.738177 265.047772 
L 288.419734 258.054997 
L 286.006551 257.311168 
L 296.257756 251.486598 
L 290.905596 261.992178 
L 290.052749 259.615334 
L 283.371192 266.608109 
L 281.738177 265.047772 
" clip-path="url(#p2a54a49829)"/>
    <path d="M 132.754435 196.819031 
L 139.438723 189.81751 
L 137.025228 189.074695 
L 147.273984 183.245818 
L 141.926239 193.753646 
L 141.072394 191.377161 
L 134.388106 198.378682 
L 132.754435 196.819031 
" clip-path="url(#p2a54a49829)"/>
    <path d="M 157.120514 266.335142 
L 163.792832 259.33127 
L 161.378548 258.591021 
L 171.621104 252.751254 
L 166.28453 263.26476 
L 165.428159 260.889183 
L 158.755842 267.893055 
L 157.120514 266.335142 
" clip-path="url(#p2a54a49829)"/>
    <path d="M 308.541429 204.18267 
L 315.221211 197.190796 
L 312.807977 196.447132 
L 323.058784 190.621862 
L 317.707341 201.127807 
L 316.854332 198.751022 
L 310.17455 205.742895 
L 308.541429 204.18267 
" clip-path="url(#p2a54a49829)"/>
    <path d="M 114.22632 185.002956 
L 120.912418 177.998502 
L 118.498867 177.255866 
L 128.747193 171.42623 
L 123.400225 181.934454 
L 122.546204 179.558031 
L 115.860106 186.562485 
L 114.22632 185.002956 
" clip-path="url(#p2a54a49829)"/>
    <path d="M 188.25416 286.927752 
L 194.930824 279.930904 
L 192.517153 279.18866 
L 202.76453 273.357359 
L 197.41927 283.866451 
L 196.564863 281.490168 
L 189.888199 288.487016 
L 188.25416 286.927752 
" clip-path="url(#p2a54a49829)"/>
    <path d="M 280.450475 286.933053 
L 287.13258 279.939387 
L 284.71938 279.195613 
L 294.970453 273.37081 
L 289.618531 283.876511 
L 288.76563 281.499686 
L 282.083525 288.493353 
L 280.450475 286.933053 
" clip-path="url(#p2a54a49829)"/>
    <path d="M 241.877952 263.441107 
L 248.558992 256.447904 
L 246.145757 255.704242 
L 256.396558 249.878962 
L 251.045126 260.384912 
L 250.192115 258.008127 
L 243.511075 265.00133 
L 241.877952 263.441107 
" clip-path="url(#p2a54a49829)"/>
    <path d="M 171.460421 71.3627 
L 178.157009 64.357138 
L 175.743982 63.612803 
L 185.996409 57.790384 
L 180.642045 68.29484 
L 179.789697 65.917817 
L 173.093109 72.923379 
L 171.460421 71.3627 
" clip-path="url(#p2a54a49829)"/>
    <path d="M 302.092765 187.884364 
L 308.773191 180.892326 
L 306.359984 180.148574 
L 316.611003 174.323677 
L 311.259178 184.829427 
L 310.406256 182.45261 
L 303.725829 189.444648 
L 302.092765 187.884364 
" clip-path="url(#p2a54a49829)"/>
    <path d="M 319.921289 216.821882 
L 326.603615 209.827203 
L 324.190373 209.083563 
L 334.441121 203.258189 
L 329.089785 213.764188 
L 328.236752 211.387411 
L 321.554427 218.38209 
L 319.921289 216.821882 
" clip-path="url(#p2a54a49829)"/>
    <path d="M 170.771281 277.855346 
L 177.457917 270.863541 
L 175.045067 270.118629 
L 185.298885 264.29866 
L 179.942011 274.801837 
L 179.090231 272.42461 
L 172.403596 279.416415 
L 170.771281 277.855346 
" clip-path="url(#p2a54a49829)"/>
    <path d="M 123.22316 130.374672 
L 129.914093 123.36793 
L 127.500689 122.624816 
L 137.750168 116.797209 
L 132.401121 127.304374 
L 131.54757 124.927783 
L 124.856637 131.934525 
L 123.22316 130.374672 
" clip-path="url(#p2a54a49829)"/>
    <path d="M 154.014844 83.297135 
L 160.710838 76.289844 
L 158.297686 75.545913 
L 168.549138 69.721776 
L 163.196533 80.227129 
L 162.343787 77.850249 
L 155.647793 84.857541 
L 154.014844 83.297135 
" clip-path="url(#p2a54a49829)"/>
    <path d="M 261.42179 294.707932 
L 268.102908 287.713893 
L 265.689633 286.970361 
L 275.94012 281.144529 
L 270.589254 291.650767 
L 269.736115 289.274028 
L 263.054997 296.268068 
L 261.42179 294.707932 
" clip-path="url(#p2a54a49829)"/>
    <path d="M 299.223406 253.98428 
L 305.905722 246.99185 
L 303.492599 246.247824 
L 313.744278 240.424089 
L 308.391263 250.929233 
L 307.53861 248.552319 
L 300.856294 255.544749 
L 299.223406 253.98428 
" clip-path="url(#p2a54a49829)"/>
    <path d="M 178.247942 217.998078 
L 184.927378 211.002574 
L 182.513932 210.259598 
L 192.763077 204.431405 
L 187.414631 214.938876 
L 186.560944 212.562333 
L 179.881509 219.557838 
L 178.247942 217.998078 
" clip-path="url(#p2a54a49829)"/>
    <path d="M 130.109821 112.076138 
L 136.802681 105.0689 
L 134.389358 104.325524 
L 144.63947 98.49903 
L 139.289281 109.005614 
L 138.435989 106.62893 
L 131.743128 113.636168 
L 130.109821 112.076138 
" clip-path="url(#p2a54a49829)"/>
    <path d="M 223.204253 52.787441 
L 229.899416 45.787141 
L 227.48659 45.042156 
L 237.740583 39.222496 
L 232.383392 49.725511 
L 231.531684 47.348259 
L 224.836521 54.348559 
L 223.204253 52.787441 
" clip-path="url(#p2a54a49829)"/>
    <path d="M 285.763041 177.57758 
L 292.444464 170.585536 
L 290.031312 169.841605 
L 300.282762 164.017467 
L 294.930159 174.522821 
L 294.077413 172.145941 
L 287.39599 179.137985 
L 285.763041 177.57758 
" clip-path="url(#p2a54a49829)"/>
    <path d="M 262.52625 256.392296 
L 269.207786 249.398608 
L 266.794553 248.65494 
L 277.045368 242.829685 
L 271.69391 253.335622 
L 270.840905 250.958835 
L 264.159369 257.952523 
L 262.52625 256.392296 
" clip-path="url(#p2a54a49829)"/>
    <path d="M 184.949196 171.693488 
L 191.632747 164.695424 
L 189.219394 163.952146 
L 199.469267 158.125233 
L 194.119509 168.632036 
L 193.266119 166.255387 
L 186.582568 173.253451 
L 184.949196 171.693488 
" clip-path="url(#p2a54a49829)"/>
    <path d="M 317.260512 106.943735 
L 323.943759 99.951221 
L 321.530684 99.207042 
L 331.782732 93.383958 
L 326.42905 103.888762 
L 325.576548 101.511794 
L 318.893301 108.504308 
L 317.260512 106.943735 
" clip-path="url(#p2a54a49829)"/>
    <path d="M 114.735933 166.248354 
L 121.42344 159.24384 
L 119.009965 158.50096 
L 129.258879 152.67236 
L 123.91085 163.180043 
L 123.057069 160.803535 
L 116.369561 167.808049 
L 114.735933 166.248354 
" clip-path="url(#p2a54a49829)"/>
    <path d="M 301.912124 170.583393 
L 308.594175 163.590498 
L 306.181013 162.846601 
L 316.432383 157.022321 
L 311.079925 167.527749 
L 310.227146 165.150881 
L 303.545095 172.143776 
L 301.912124 170.583393 
" clip-path="url(#p2a54a49829)"/>
    <path d="M 141.217399 254.669491 
L 147.902003 247.675897 
L 145.488946 246.931659 
L 155.741137 241.108825 
L 150.387199 251.613498 
L 149.534754 249.23651 
L 142.85015 256.230104 
L 141.217399 254.669491 
" clip-path="url(#p2a54a49829)"/>
    <path d="M 315.060143 266.540609 
L 321.744949 259.54491 
L 319.331792 258.800999 
L 329.583195 252.976778 
L 324.230677 263.482175 
L 323.377911 261.105302 
L 316.693105 268.101001 
L 315.060143 266.540609 
" clip-path="url(#p2a54a49829)"/>
    <path d="M 225.600622 73.200221 
L 232.294179 66.201854 
L 229.881365 65.456826 
L 240.135464 59.637351 
L 234.778083 70.140269 
L 233.926418 67.763002 
L 227.232861 74.761369 
L 225.600622 73.200221 
" clip-path="url(#p2a54a49829)"/>
    <path d="M 115.947907 206.244867 
L 122.632666 199.242835 
L 120.21917 198.500023 
L 130.467919 192.671133 
L 125.120187 203.178967 
L 124.266339 200.802483 
L 117.581579 207.804516 
L 115.947907 206.244867 
" clip-path="url(#p2a54a49829)"/>
    <path d="M 276.619015 245.033433 
L 283.300775 238.040868 
L 280.887614 237.296966 
L 291.138996 231.472707 
L 285.786518 241.978124 
L 284.933743 239.601254 
L 278.251982 246.593819 
L 276.619015 245.033433 
" clip-path="url(#p2a54a49829)"/>
    <path d="M 203.535243 89.922708 
L 210.223027 82.923652 
L 207.809856 82.179782 
L 218.061159 76.355385 
L 212.708822 86.860874 
L 211.856016 84.484016 
L 205.168232 91.483072 
L 203.535243 89.922708 
" clip-path="url(#p2a54a49829)"/>
    <path d="M 327.364089 93.474844 
L 334.05142 86.483663 
L 331.638643 85.738518 
L 341.893023 79.919539 
L 336.535134 90.422198 
L 335.683584 88.04489 
L 328.996252 95.036071 
L 327.364089 93.474844 
" clip-path="url(#p2a54a49829)"/>
    <path d="M 244.720406 168.593196 
L 251.403284 161.599874 
L 248.990145 160.855901 
L 259.241697 155.031942 
L 253.888911 165.537202 
L 253.036206 163.160308 
L 246.353328 170.15363 
L 244.720406 168.593196 
" clip-path="url(#p2a54a49829)"/>
    <path d="M 260.143071 274.846484 
L 266.824915 267.852827 
L 264.411701 267.109098 
L 274.662665 261.284103 
L 269.31094 271.789905 
L 268.457995 269.413096 
L 261.776151 276.406752 
L 260.143071 274.846484 
" clip-path="url(#p2a54a49829)"/>
    <path d="M 117.268569 148.212761 
L 123.957866 141.206563 
L 121.544401 140.46365 
L 131.793394 134.63519 
L 126.445222 145.1428 
L 125.591473 142.76628 
L 118.902177 149.772477 
L 117.268569 148.212761 
" clip-path="url(#p2a54a49829)"/>
    <path d="M 310.236917 79.375162 
L 316.925422 72.383516 
L 314.512686 71.63824 
L 324.767383 65.81982 
L 319.408922 76.322187 
L 318.557501 73.944832 
L 311.868995 80.936478 
L 310.236917 79.375162 
" clip-path="url(#p2a54a49829)"/>
    <path d="M 206.364176 293.830106 
L 213.04585 286.83387 
L 210.632489 286.090616 
L 220.882305 280.263603 
L 215.53265 290.770458 
L 214.679236 288.393817 
L 207.997563 295.390053 
L 206.364176 293.830106 
" clip-path="url(#p2a54a49829)"/>
    <path d="M 212.383706 273.260638 
L 219.064452 266.265338 
L 216.65109 265.522091 
L 226.900891 259.695051 
L 221.551262 270.20192 
L 220.697843 267.825281 
L 214.017097 274.820581 
L 212.383706 273.260638 
" clip-path="url(#p2a54a49829)"/>
    <path d="M 234.245007 217.995164 
L 240.925537 211.002092 
L 238.512281 210.2585 
L 248.762915 204.432925 
L 243.411784 214.939029 
L 242.558704 212.562269 
L 235.878175 219.555341 
L 234.245007 217.995164 
" clip-path="url(#p2a54a49829)"/>
    <path d="M 224.598086 259.129261 
L 231.279823 252.134771 
L 228.866559 251.391205 
L 239.11713 245.565519 
L 233.766114 256.071681 
L 232.913008 253.69493 
L 226.231271 260.68942 
L 224.598086 259.129261 
" clip-path="url(#p2a54a49829)"/>
    <path d="M 143.996062 98.921731 
L 150.689508 91.91456 
L 148.276222 91.171067 
L 158.526615 85.345069 
L 153.175918 95.851394 
L 152.322741 93.474669 
L 145.629295 100.48184 
L 143.996062 98.921731 
" clip-path="url(#p2a54a49829)"/>
    <path d="M 282.138054 68.233898 
L 288.829622 61.238866 
L 286.416876 60.493621 
L 296.671496 54.675066 
L 291.313173 65.177504 
L 290.461721 62.80016 
L 283.770153 69.795192 
L 282.138054 68.233898 
" clip-path="url(#p2a54a49829)"/>
    <path d="M 233.972631 290.288604 
L 240.653203 283.294043 
L 238.23987 282.550699 
L 248.489903 276.724067 
L 243.139857 287.230723 
L 242.286532 284.854051 
L 235.60596 291.848612 
L 233.972631 290.288604 
" clip-path="url(#p2a54a49829)"/>
    <path d="M 271.381347 124.7472 
L 278.065207 117.754372 
L 275.652149 117.010137 
L 285.904335 111.187294 
L 280.550406 121.691972 
L 279.697959 119.314984 
L 273.014099 126.307811 
L 271.381347 124.7472 
" clip-path="url(#p2a54a49829)"/>
    <path d="M 338.744388 123.571463 
L 345.428582 116.579349 
L 343.015581 115.834931 
L 353.268209 110.012866 
L 347.913482 120.517137 
L 347.061216 118.140085 
L 340.377022 125.132198 
L 338.744388 123.571463 
" clip-path="url(#p2a54a49829)"/>
    <path d="M 175.926032 99.08065 
L 182.616422 92.078799 
L 180.203248 91.334941 
L 190.454523 85.510495 
L 185.102236 96.01601 
L 184.249418 93.639156 
L 177.559028 100.641006 
L 175.926032 99.08065 
" clip-path="url(#p2a54a49829)"/>
    <path d="M 185.369909 129.376435 
L 192.056747 122.376695 
L 189.643487 121.633113 
L 199.894094 115.807491 
L 194.543012 126.31362 
L 193.689922 123.936864 
L 187.003084 130.936604 
L 185.369909 129.376435 
" clip-path="url(#p2a54a49829)"/>
    <path d="M 258.064811 94.788882 
L 264.750748 87.793957 
L 262.337694 87.049709 
L 272.589911 81.22692 
L 267.235925 91.73157 
L 266.383492 89.354577 
L 259.697555 96.349502 
L 258.064811 94.788882 
" clip-path="url(#p2a54a49829)"/>
    <path d="M 200.327264 153.717233 
L 207.011336 146.720701 
L 204.598093 145.977065 
L 214.848831 140.151672 
L 209.497514 150.657681 
L 208.644476 148.280906 
L 201.960404 155.277438 
L 200.327264 153.717233 
" clip-path="url(#p2a54a49829)"/>
    <path d="M 214.48115 125.471671 
L 221.166938 118.476145 
L 218.753844 117.732027 
L 229.005747 111.908685 
L 223.652328 122.413623 
L 222.799766 120.036677 
L 216.113978 127.032203 
L 214.48115 125.471671 
" clip-path="url(#p2a54a49829)"/>
    <path d="M 237.58122 190.881267 
L 244.262815 183.888164 
L 241.849616 183.144384 
L 252.100701 177.319603 
L 246.748758 187.825293 
L 245.895862 185.448466 
L 239.214267 192.44157 
L 237.58122 190.881267 
" clip-path="url(#p2a54a49829)"/>
    <path d="M 154.144224 126.205542 
L 160.832788 119.202854 
L 158.419468 118.459469 
L 168.669601 112.633013 
L 163.319375 123.139577 
L 162.466091 120.76289 
L 155.777526 127.765578 
L 154.144224 126.205542 
" clip-path="url(#p2a54a49829)"/>
    <path d="M 327.900291 184.404604 
L 334.580965 177.412516 
L 332.167769 176.668728 
L 342.418875 170.843984 
L 337.066893 181.349654 
L 336.214006 178.972825 
L 329.533332 185.964912 
L 327.900291 184.404604 
" clip-path="url(#p2a54a49829)"/>
    <path d="M 228.086358 97.157875 
L 234.77229 90.162343 
L 232.359204 89.4182 
L 242.611166 83.594963 
L 237.25764 94.099846 
L 236.405102 91.722892 
L 229.71917 98.718424 
L 228.086358 97.157875 
" clip-path="url(#p2a54a49829)"/>
    <path d="M 168.715231 154.995027 
L 175.400772 147.995189 
L 172.987435 147.251858 
L 183.237437 141.425171 
L 177.887447 151.931856 
L 177.034109 149.555188 
L 170.348568 156.555027 
L 168.715231 154.995027 
" clip-path="url(#p2a54a49829)"/>
    <path d="M 350.315323 156.578239 
L 356.998633 149.586224 
L 354.585588 148.841948 
L 364.837873 143.019279 
L 359.483765 153.523866 
L 358.631359 151.146864 
L 351.948048 158.138878 
L 350.315323 156.578239 
" clip-path="url(#p2a54a49829)"/>
    <path d="M 132.666417 228.170519 
L 139.349013 221.168547 
L 136.9354 220.426115 
L 147.183232 214.595612 
L 141.837154 225.104288 
L 140.982931 222.727938 
L 134.300335 229.72991 
L 132.666417 228.170519 
" clip-path="url(#p2a54a49829)"/>
    <path d="M 282.155076 202.159495 
L 288.835265 195.168378 
L 286.422094 194.42451 
L 296.673393 188.600106 
L 291.321063 199.105599 
L 290.468255 196.728741 
L 283.788066 203.719858 
L 282.155076 202.159495 
" clip-path="url(#p2a54a49829)"/>
    <path d="M 215.271745 207.004702 
L 221.952384 200.010379 
L 219.539068 199.266983 
L 229.789229 193.440576 
L 224.438951 203.947114 
L 223.585679 201.570423 
L 216.905039 208.564746 
L 215.271745 207.004702 
" clip-path="url(#p2a54a49829)"/>
    <path d="M 249.664453 61.458849 
L 256.357624 54.460891 
L 253.944811 53.715862 
L 264.198912 47.896392 
L 258.841527 58.399308 
L 257.989863 56.02204 
L 251.296692 63.019997 
L 249.664453 61.458849 
" clip-path="url(#p2a54a49829)"/>
    <path d="M 228.326072 149.439815 
L 235.009942 142.445542 
L 232.596808 141.701553 
L 242.848397 135.877659 
L 237.495545 146.382886 
L 236.642855 144.005986 
L 229.958984 151.000259 
L 228.326072 149.439815 
" clip-path="url(#p2a54a49829)"/>
   </g>
   <g id="matplotlib.axis_1">
    <g id="xtick_1">
     <g id="line2d_1">
      <defs>
       <path id="m59449fc0be" d="M 0 0 
L 0 3.5 
" style="stroke: #000000; stroke-width: 0.8"/>
      </defs>
      <g>
       <use xlink:href="#m59449fc0be" x="72.43499" y="307.584" style="stroke: #000000; stroke-width: 0.8"/>
      </g>
     </g>
     <g id="text_1">
      <!-- 70.0 -->
      <g transform="translate(59.075615 323.702125) scale(0.12 -0.12)">
       <defs>
        <path id="DejaVuSans-37" d="M 525 4666 
L 3525 4666 
L 3525 4397 
L 1831 0 
L 1172 0 
L 2766 4134 
L 525 4134 
L 525 4666 
z
" transform="scale(0.015625)"/>
        <path id="DejaVuSans-30" d="M 2034 4250 
Q 1547 4250 1301 3770 
Q 1056 3291 1056 2328 
Q 1056 1369 1301 889 
Q 1547 409 2034 409 
Q 2525 409 2770 889 
Q 3016 1369 3016 2328 
Q 3016 3291 2770 3770 
Q 2525 4250 2034 4250 
z
M 2034 4750 
Q 2819 4750 3233 4129 
Q 3647 3509 3647 2328 
Q 3647 1150 3233 529 
Q 2819 -91 2034 -91 
Q 1250 -91 836 529 
Q 422 1150 422 2328 
Q 422 3509 836 4129 
Q 1250 4750 2034 4750 
z
" transform="scale(0.015625)"/>
        <path id="DejaVuSans-2e" d="M 684 794 
L 1344 794 
L 1344 0 
L 684 0 
L 684 794 
z
" transform="scale(0.015625)"/>
       </defs>
       <use xlink:href="#DejaVuSans-37"/>
       <use xlink:href="#DejaVuSans-30" transform="translate(63.623047 0)"/>
       <use xlink:href="#DejaVuSans-2e" transform="translate(127.246094 0)"/>
       <use xlink:href="#DejaVuSans-30" transform="translate(159.033203 0)"/>
      </g>
     </g>
    </g>
    <g id="xtick_2">
     <g id="line2d_2">
      <g>
       <use xlink:href="#m59449fc0be" x="135.094718" y="307.584" style="stroke: #000000; stroke-width: 0.8"/>
      </g>
     </g>
     <g id="text_2">
      <!-- 70.5 -->
      <g transform="translate(121.735343 323.702125) scale(0.12 -0.12)">
       <defs>
        <path id="DejaVuSans-35" d="M 691 4666 
L 3169 4666 
L 3169 4134 
L 1269 4134 
L 1269 2991 
Q 1406 3038 1543 3061 
Q 1681 3084 1819 3084 
Q 2600 3084 3056 2656 
Q 3513 2228 3513 1497 
Q 3513 744 3044 326 
Q 2575 -91 1722 -91 
Q 1428 -91 1123 -41 
Q 819 9 494 109 
L 494 744 
Q 775 591 1075 516 
Q 1375 441 1709 441 
Q 2250 441 2565 725 
Q 2881 1009 2881 1497 
Q 2881 1984 2565 2268 
Q 2250 2553 1709 2553 
Q 1456 2553 1204 2497 
Q 953 2441 691 2322 
L 691 4666 
z
" transform="scale(0.015625)"/>
       </defs>
       <use xlink:href="#DejaVuSans-37"/>
       <use xlink:href="#DejaVuSans-30" transform="translate(63.623047 0)"/>
       <use xlink:href="#DejaVuSans-2e" transform="translate(127.246094 0)"/>
       <use xlink:href="#DejaVuSans-35" transform="translate(159.033203 0)"/>
      </g>
     </g>
    </g>
    <g id="xtick_3">
     <g id="line2d_3">
      <g>
       <use xlink:href="#m59449fc0be" x="197.754447" y="307.584" style="stroke: #000000; stroke-width: 0.8"/>
      </g>
     </g>
     <g id="text_3">
      <!-- 71.0 -->
      <g transform="translate(184.395072 323.702125) scale(0.12 -0.12)">
       <defs>
        <path id="DejaVuSans-31" d="M 794 531 
L 1825 531 
L 1825 4091 
L 703 3866 
L 703 4441 
L 1819 4666 
L 2450 4666 
L 2450 531 
L 3481 531 
L 3481 0 
L 794 0 
L 794 531 
z
" transform="scale(0.015625)"/>
       </defs>
       <use xlink:href="#DejaVuSans-37"/>
       <use xlink:href="#DejaVuSans-31" transform="translate(63.623047 0)"/>
       <use xlink:href="#DejaVuSans-2e" transform="translate(127.246094 0)"/>
       <use xlink:href="#DejaVuSans-30" transform="translate(159.033203 0)"/>
      </g>
     </g>
    </g>
    <g id="xtick_4">
     <g id="line2d_4">
      <g>
       <use xlink:href="#m59449fc0be" x="260.414176" y="307.584" style="stroke: #000000; stroke-width: 0.8"/>
      </g>
     </g>
     <g id="text_4">
      <!-- 71.5 -->
      <g transform="translate(247.054801 323.702125) scale(0.12 -0.12)">
       <use xlink:href="#DejaVuSans-37"/>
       <use xlink:href="#DejaVuSans-31" transform="translate(63.623047 0)"/>
       <use xlink:href="#DejaVuSans-2e" transform="translate(127.246094 0)"/>
       <use xlink:href="#DejaVuSans-35" transform="translate(159.033203 0)"/>
      </g>
     </g>
    </g>
    <g id="xtick_5">
     <g id="line2d_5">
      <g>
       <use xlink:href="#m59449fc0be" x="323.073904" y="307.584" style="stroke: #000000; stroke-width: 0.8"/>
      </g>
     </g>
     <g id="text_5">
      <!-- 72.0 -->
      <g transform="translate(309.714529 323.702125) scale(0.12 -0.12)">
       <defs>
        <path id="DejaVuSans-32" d="M 1228 531 
L 3431 531 
L 3431 0 
L 469 0 
L 469 531 
Q 828 903 1448 1529 
Q 2069 2156 2228 2338 
Q 2531 2678 2651 2914 
Q 2772 3150 2772 3378 
Q 2772 3750 2511 3984 
Q 2250 4219 1831 4219 
Q 1534 4219 1204 4116 
Q 875 4013 500 3803 
L 500 4441 
Q 881 4594 1212 4672 
Q 1544 4750 1819 4750 
Q 2544 4750 2975 4387 
Q 3406 4025 3406 3419 
Q 3406 3131 3298 2873 
Q 3191 2616 2906 2266 
Q 2828 2175 2409 1742 
Q 1991 1309 1228 531 
z
" transform="scale(0.015625)"/>
       </defs>
       <use xlink:href="#DejaVuSans-37"/>
       <use xlink:href="#DejaVuSans-32" transform="translate(63.623047 0)"/>
       <use xlink:href="#DejaVuSans-2e" transform="translate(127.246094 0)"/>
       <use xlink:href="#DejaVuSans-30" transform="translate(159.033203 0)"/>
      </g>
     </g>
    </g>
    <g id="xtick_6">
     <g id="line2d_6">
      <g>
       <use xlink:href="#m59449fc0be" x="385.733633" y="307.584" style="stroke: #000000; stroke-width: 0.8"/>
      </g>
     </g>
     <g id="text_6">
      <!-- 72.5 -->
      <g transform="translate(372.374258 323.702125) scale(0.12 -0.12)">
       <use xlink:href="#DejaVuSans-37"/>
       <use xlink:href="#DejaVuSans-32" transform="translate(63.623047 0)"/>
       <use xlink:href="#DejaVuSans-2e" transform="translate(127.246094 0)"/>
       <use xlink:href="#DejaVuSans-35" transform="translate(159.033203 0)"/>
      </g>
     </g>
    </g>
    <g id="text_7">
     <!-- x -->
     <g transform="translate(232.016875 340.835562) scale(0.14 -0.14)">
      <defs>
       <path id="DejaVuSans-78" d="M 3513 3500 
L 2247 1797 
L 3578 0 
L 2900 0 
L 1881 1375 
L 863 0 
L 184 0 
L 1544 1831 
L 300 3500 
L 978 3500 
L 1906 2253 
L 2834 3500 
L 3513 3500 
z
" transform="scale(0.015625)"/>
      </defs>
      <use xlink:href="#DejaVuSans-78"/>
     </g>
    </g>
   </g>
   <g id="matplotlib.axis_2">
    <g id="ytick_1">
     <g id="line2d_7">
      <defs>
       <path id="m73e0a1e6c4" d="M 0 0 
L -3.5 0 
" style="stroke: #000000; stroke-width: 0.8"/>
      </defs>
      <g>
       <use xlink:href="#m73e0a1e6c4" x="57.6" y="282.799582" style="stroke: #000000; stroke-width: 0.8"/>
      </g>
     </g>
     <g id="text_8">
      <!-- 85.50 -->
      <g transform="translate(16.24625 287.358644) scale(0.12 -0.12)">
       <defs>
        <path id="DejaVuSans-38" d="M 2034 2216 
Q 1584 2216 1326 1975 
Q 1069 1734 1069 1313 
Q 1069 891 1326 650 
Q 1584 409 2034 409 
Q 2484 409 2743 651 
Q 3003 894 3003 1313 
Q 3003 1734 2745 1975 
Q 2488 2216 2034 2216 
z
M 1403 2484 
Q 997 2584 770 2862 
Q 544 3141 544 3541 
Q 544 4100 942 4425 
Q 1341 4750 2034 4750 
Q 2731 4750 3128 4425 
Q 3525 4100 3525 3541 
Q 3525 3141 3298 2862 
Q 3072 2584 2669 2484 
Q 3125 2378 3379 2068 
Q 3634 1759 3634 1313 
Q 3634 634 3220 271 
Q 2806 -91 2034 -91 
Q 1263 -91 848 271 
Q 434 634 434 1313 
Q 434 1759 690 2068 
Q 947 2378 1403 2484 
z
M 1172 3481 
Q 1172 3119 1398 2916 
Q 1625 2713 2034 2713 
Q 2441 2713 2670 2916 
Q 2900 3119 2900 3481 
Q 2900 3844 2670 4047 
Q 2441 4250 2034 4250 
Q 1625 4250 1398 4047 
Q 1172 3844 1172 3481 
z
" transform="scale(0.015625)"/>
       </defs>
       <use xlink:href="#DejaVuSans-38"/>
       <use xlink:href="#DejaVuSans-35" transform="translate(63.623047 0)"/>
       <use xlink:href="#DejaVuSans-2e" transform="translate(127.246094 0)"/>
       <use xlink:href="#DejaVuSans-35" transform="translate(159.033203 0)"/>
       <use xlink:href="#DejaVuSans-30" transform="translate(222.65625 0)"/>
      </g>
     </g>
    </g>
    <g id="ytick_2">
     <g id="line2d_8">
      <g>
       <use xlink:href="#m73e0a1e6c4" x="57.6" y="251.469718" style="stroke: #000000; stroke-width: 0.8"/>
      </g>
     </g>
     <g id="text_9">
      <!-- 85.75 -->
      <g transform="translate(16.24625 256.02878) scale(0.12 -0.12)">
       <use xlink:href="#DejaVuSans-38"/>
       <use xlink:href="#DejaVuSans-35" transform="translate(63.623047 0)"/>
       <use xlink:href="#DejaVuSans-2e" transform="translate(127.246094 0)"/>
       <use xlink:href="#DejaVuSans-37" transform="translate(159.033203 0)"/>
       <use xlink:href="#DejaVuSans-35" transform="translate(222.65625 0)"/>
      </g>
     </g>
    </g>
    <g id="ytick_3">
     <g id="line2d_9">
      <g>
       <use xlink:href="#m73e0a1e6c4" x="57.6" y="220.139853" style="stroke: #000000; stroke-width: 0.8"/>
      </g>
     </g>
     <g id="text_10">
      <!-- 86.00 -->
      <g transform="translate(16.24625 224.698916) scale(0.12 -0.12)">
       <defs>
        <path id="DejaVuSans-36" d="M 2113 2584 
Q 1688 2584 1439 2293 
Q 1191 2003 1191 1497 
Q 1191 994 1439 701 
Q 1688 409 2113 409 
Q 2538 409 2786 701 
Q 3034 994 3034 1497 
Q 3034 2003 2786 2293 
Q 2538 2584 2113 2584 
z
M 3366 4563 
L 3366 3988 
Q 3128 4100 2886 4159 
Q 2644 4219 2406 4219 
Q 1781 4219 1451 3797 
Q 1122 3375 1075 2522 
Q 1259 2794 1537 2939 
Q 1816 3084 2150 3084 
Q 2853 3084 3261 2657 
Q 3669 2231 3669 1497 
Q 3669 778 3244 343 
Q 2819 -91 2113 -91 
Q 1303 -91 875 529 
Q 447 1150 447 2328 
Q 447 3434 972 4092 
Q 1497 4750 2381 4750 
Q 2619 4750 2861 4703 
Q 3103 4656 3366 4563 
z
" transform="scale(0.015625)"/>
       </defs>
       <use xlink:href="#DejaVuSans-38"/>
       <use xlink:href="#DejaVuSans-36" transform="translate(63.623047 0)"/>
       <use xlink:href="#DejaVuSans-2e" transform="translate(127.246094 0)"/>
       <use xlink:href="#DejaVuSans-30" transform="translate(159.033203 0)"/>
       <use xlink:href="#DejaVuSans-30" transform="translate(222.65625 0)"/>
      </g>
     </g>
    </g>
    <g id="ytick_4">
     <g id="line2d_10">
      <g>
       <use xlink:href="#m73e0a1e6c4" x="57.6" y="188.809989" style="stroke: #000000; stroke-width: 0.8"/>
      </g>
     </g>
     <g id="text_11">
      <!-- 86.25 -->
      <g transform="translate(16.24625 193.369052) scale(0.12 -0.12)">
       <use xlink:href="#DejaVuSans-38"/>
       <use xlink:href="#DejaVuSans-36" transform="translate(63.623047 0)"/>
       <use xlink:href="#DejaVuSans-2e" transform="translate(127.246094 0)"/>
       <use xlink:href="#DejaVuSans-32" transform="translate(159.033203 0)"/>
       <use xlink:href="#DejaVuSans-35" transform="translate(222.65625 0)"/>
      </g>
     </g>
    </g>
    <g id="ytick_5">
     <g id="line2d_11">
      <g>
       <use xlink:href="#m73e0a1e6c4" x="57.6" y="157.480125" style="stroke: #000000; stroke-width: 0.8"/>
      </g>
     </g>
     <g id="text_12">
      <!-- 86.50 -->
      <g transform="translate(16.24625 162.039187) scale(0.12 -0.12)">
       <use xlink:href="#DejaVuSans-38"/>
       <use xlink:href="#DejaVuSans-36" transform="translate(63.623047 0)"/>
       <use xlink:href="#DejaVuSans-2e" transform="translate(127.246094 0)"/>
       <use xlink:href="#DejaVuSans-35" transform="translate(159.033203 0)"/>
       <use xlink:href="#DejaVuSans-30" transform="translate(222.65625 0)"/>
      </g>
     </g>
    </g>
    <g id="ytick_6">
     <g id="line2d_12">
      <g>
       <use xlink:href="#m73e0a1e6c4" x="57.6" y="126.15026" style="stroke: #000000; stroke-width: 0.8"/>
      </g>
     </g>
     <g id="text_13">
      <!-- 86.75 -->
      <g transform="translate(16.24625 130.709323) scale(0.12 -0.12)">
       <use xlink:href="#DejaVuSans-38"/>
       <use xlink:href="#DejaVuSans-36" transform="translate(63.623047 0)"/>
       <use xlink:href="#DejaVuSans-2e" transform="translate(127.246094 0)"/>
       <use xlink:href="#DejaVuSans-37" transform="translate(159.033203 0)"/>
       <use xlink:href="#DejaVuSans-35" transform="translate(222.65625 0)"/>
      </g>
     </g>
    </g>
    <g id="ytick_7">
     <g id="line2d_13">
      <g>
       <use xlink:href="#m73e0a1e6c4" x="57.6" y="94.820396" style="stroke: #000000; stroke-width: 0.8"/>
      </g>
     </g>
     <g id="text_14">
      <!-- 87.00 -->
      <g transform="translate(16.24625 99.379459) scale(0.12 -0.12)">
       <use xlink:href="#DejaVuSans-38"/>
       <use xlink:href="#DejaVuSans-37" transform="translate(63.623047 0)"/>
       <use xlink:href="#DejaVuSans-2e" transform="translate(127.246094 0)"/>
       <use xlink:href="#DejaVuSans-30" transform="translate(159.033203 0)"/>
       <use xlink:href="#DejaVuSans-30" transform="translate(222.65625 0)"/>
      </g>
     </g>
    </g>
    <g id="ytick_8">
     <g id="line2d_14">
      <g>
       <use xlink:href="#m73e0a1e6c4" x="57.6" y="63.490532" style="stroke: #000000; stroke-width: 0.8"/>
      </g>
     </g>
     <g id="text_15">
      <!-- 87.25 -->
      <g transform="translate(16.24625 68.049594) scale(0.12 -0.12)">
       <use xlink:href="#DejaVuSans-38"/>
       <use xlink:href="#DejaVuSans-37" transform="translate(63.623047 0)"/>
       <use xlink:href="#DejaVuSans-2e" transform="translate(127.246094 0)"/>
       <use xlink:href="#DejaVuSans-32" transform="translate(159.033203 0)"/>
       <use xlink:href="#DejaVuSans-35" transform="translate(222.65625 0)"/>
      </g>
     </g>
    </g>
    <g id="text_16">
     <!-- y -->
     <g transform="translate(9.334688 178.671125) rotate(-90) scale(0.14 -0.14)">
      <defs>
       <path id="DejaVuSans-79" d="M 2059 -325 
Q 1816 -950 1584 -1140 
Q 1353 -1331 966 -1331 
L 506 -1331 
L 506 -850 
L 844 -850 
Q 1081 -850 1212 -737 
Q 1344 -625 1503 -206 
L 1606 56 
L 191 3500 
L 800 3500 
L 1894 763 
L 2988 3500 
L 3597 3500 
L 2059 -325 
z
" transform="scale(0.015625)"/>
      </defs>
      <use xlink:href="#DejaVuSans-79"/>
     </g>
    </g>
   </g>
   <g id="line2d_15">
    <defs>
     <path id="mc0915d91eb" d="M 0 3 
C 0.795609 3 1.55874 2.683901 2.12132 2.12132 
C 2.683901 1.55874 3 0.795609 3 0 
C 3 -0.795609 2.683901 -1.55874 2.12132 -2.12132 
C 1.55874 -2.683901 0.795609 -3 0 -3 
C -0.795609 -3 -1.55874 -2.683901 -2.12132 -2.12132 
C -2.683901 -1.55874 -3 -0.795609 -3 0 
C -3 0.795609 -2.683901 1.55874 -2.12132 2.12132 
C -1.55874 2.683901 -0.795609 3 0 3 
z
" style="stroke: #0000ff"/>
    </defs>
    <g clip-path="url(#p2a54a49829)">
     <use xlink:href="#mc0915d91eb" x="244.257558" y="124.225515" style="fill: #0000ff; stroke: #0000ff"/>
     <use xlink:href="#mc0915d91eb" x="346.964286" y="212.907936" style="fill: #0000ff; stroke: #0000ff"/>
     <use xlink:href="#mc0915d91eb" x="158.189964" y="205.060198" style="fill: #0000ff; stroke: #0000ff"/>
     <use xlink:href="#mc0915d91eb" x="264.716257" y="179.960909" style="fill: #0000ff; stroke: #0000ff"/>
     <use xlink:href="#mc0915d91eb" x="318.785133" y="153.839814" style="fill: #0000ff; stroke: #0000ff"/>
     <use xlink:href="#mc0915d91eb" x="291.307281" y="100.086569" style="fill: #0000ff; stroke: #0000ff"/>
     <use xlink:href="#mc0915d91eb" x="284.383823" y="154.795774" style="fill: #0000ff; stroke: #0000ff"/>
     <use xlink:href="#mc0915d91eb" x="296.853887" y="229.443337" style="fill: #0000ff; stroke: #0000ff"/>
     <use xlink:href="#mc0915d91eb" x="192.683542" y="259.447387" style="fill: #0000ff; stroke: #0000ff"/>
     <use xlink:href="#mc0915d91eb" x="198.513013" y="66.553534" style="fill: #0000ff; stroke: #0000ff"/>
     <use xlink:href="#mc0915d91eb" x="165.821966" y="239.806166" style="fill: #0000ff; stroke: #0000ff"/>
     <use xlink:href="#mc0915d91eb" x="256.824758" y="210.790687" style="fill: #0000ff; stroke: #0000ff"/>
     <use xlink:href="#mc0915d91eb" x="302.501853" y="129.708699" style="fill: #0000ff; stroke: #0000ff"/>
     <use xlink:href="#mc0915d91eb" x="217.563352" y="237.613516" style="fill: #0000ff; stroke: #0000ff"/>
     <use xlink:href="#mc0915d91eb" x="257.342538" y="150.988183" style="fill: #0000ff; stroke: #0000ff"/>
     <use xlink:href="#mc0915d91eb" x="143.786323" y="173.115649" style="fill: #0000ff; stroke: #0000ff"/>
     <use xlink:href="#mc0915d91eb" x="329.691995" y="243.893494" style="fill: #0000ff; stroke: #0000ff"/>
     <use xlink:href="#mc0915d91eb" x="210.487337" y="179.829503" style="fill: #0000ff; stroke: #0000ff"/>
     <use xlink:href="#mc0915d91eb" x="247.529151" y="238.9541" style="fill: #0000ff; stroke: #0000ff"/>
     <use xlink:href="#mc0915d91eb" x="187.585829" y="195.597893" style="fill: #0000ff; stroke: #0000ff"/>
    </g>
   </g>
   <g id="line2d_16">
    <defs>
     <path id="m5fd389d776" d="M 0 3 
C 0.795609 3 1.55874 2.683901 2.12132 2.12132 
C 2.683901 1.55874 3 0.795609 3 0 
C 3 -0.795609 2.683901 -1.55874 2.12132 -2.12132 
C 1.55874 -2.683901 0.795609 -3 0 -3 
C -0.795609 -3 -1.55874 -2.683901 -2.12132 -2.12132 
C -2.683901 -1.55874 -3 -0.795609 -3 0 
C -3 0.795609 -2.683901 1.55874 -2.12132 2.12132 
C -1.55874 2.683901 -0.795609 3 0 3 
z
" style="stroke: #ff0000"/>
    </defs>
    <g clip-path="url(#p2a54a49829)">
     <use xlink:href="#m5fd389d776" x="299.449873" y="278.95476" style="fill: #ff0000; stroke: #ff0000"/>
     <use xlink:href="#m5fd389d776" x="229.373015" y="171.032312" style="fill: #ff0000; stroke: #ff0000"/>
     <use xlink:href="#m5fd389d776" x="139.544151" y="147.887023" style="fill: #ff0000; stroke: #ff0000"/>
     <use xlink:href="#m5fd389d776" x="271.340563" y="228.975054" style="fill: #ff0000; stroke: #ff0000"/>
     <use xlink:href="#m5fd389d776" x="357.276787" y="185.264169" style="fill: #ff0000; stroke: #ff0000"/>
     <use xlink:href="#m5fd389d776" x="192.525328" y="234.582318" style="fill: #ff0000; stroke: #ff0000"/>
     <use xlink:href="#m5fd389d776" x="197.113181" y="218.860953" style="fill: #ff0000; stroke: #ff0000"/>
     <use xlink:href="#m5fd389d776" x="201.497077" y="107.57925" style="fill: #ff0000; stroke: #ff0000"/>
     <use xlink:href="#m5fd389d776" x="168.069389" y="181.148724" style="fill: #ff0000; stroke: #ff0000"/>
     <use xlink:href="#m5fd389d776" x="282.554685" y="265.82794" style="fill: #ff0000; stroke: #ff0000"/>
     <use xlink:href="#m5fd389d776" x="133.57127" y="197.598857" style="fill: #ff0000; stroke: #ff0000"/>
     <use xlink:href="#m5fd389d776" x="157.938178" y="267.114099" style="fill: #ff0000; stroke: #ff0000"/>
     <use xlink:href="#m5fd389d776" x="309.35799" y="204.962782" style="fill: #ff0000; stroke: #ff0000"/>
     <use xlink:href="#m5fd389d776" x="115.043213" y="185.782721" style="fill: #ff0000; stroke: #ff0000"/>
     <use xlink:href="#m5fd389d776" x="189.07118" y="287.707384" style="fill: #ff0000; stroke: #ff0000"/>
     <use xlink:href="#m5fd389d776" x="281.267" y="287.713203" style="fill: #ff0000; stroke: #ff0000"/>
     <use xlink:href="#m5fd389d776" x="242.694514" y="264.221218" style="fill: #ff0000; stroke: #ff0000"/>
     <use xlink:href="#m5fd389d776" x="172.276765" y="72.14304" style="fill: #ff0000; stroke: #ff0000"/>
     <use xlink:href="#m5fd389d776" x="302.909297" y="188.664506" style="fill: #ff0000; stroke: #ff0000"/>
     <use xlink:href="#m5fd389d776" x="320.737858" y="217.601986" style="fill: #ff0000; stroke: #ff0000"/>
     <use xlink:href="#m5fd389d776" x="171.587439" y="278.635881" style="fill: #ff0000; stroke: #ff0000"/>
     <use xlink:href="#m5fd389d776" x="124.039898" y="131.154599" style="fill: #ff0000; stroke: #ff0000"/>
     <use xlink:href="#m5fd389d776" x="154.831319" y="84.077338" style="fill: #ff0000; stroke: #ff0000"/>
     <use xlink:href="#m5fd389d776" x="262.238394" y="295.488" style="fill: #ff0000; stroke: #ff0000"/>
     <use xlink:href="#m5fd389d776" x="300.03985" y="254.764515" style="fill: #ff0000; stroke: #ff0000"/>
     <use xlink:href="#m5fd389d776" x="179.064726" y="218.777958" style="fill: #ff0000; stroke: #ff0000"/>
     <use xlink:href="#m5fd389d776" x="130.926475" y="112.856153" style="fill: #ff0000; stroke: #ff0000"/>
     <use xlink:href="#m5fd389d776" x="224.020387" y="53.568" style="fill: #ff0000; stroke: #ff0000"/>
     <use xlink:href="#m5fd389d776" x="286.579515" y="178.357782" style="fill: #ff0000; stroke: #ff0000"/>
     <use xlink:href="#m5fd389d776" x="263.342809" y="257.17241" style="fill: #ff0000; stroke: #ff0000"/>
     <use xlink:href="#m5fd389d776" x="185.765882" y="172.47347" style="fill: #ff0000; stroke: #ff0000"/>
     <use xlink:href="#m5fd389d776" x="318.076907" y="107.724022" style="fill: #ff0000; stroke: #ff0000"/>
     <use xlink:href="#m5fd389d776" x="115.552747" y="167.028202" style="fill: #ff0000; stroke: #ff0000"/>
     <use xlink:href="#m5fd389d776" x="302.72861" y="171.363585" style="fill: #ff0000; stroke: #ff0000"/>
     <use xlink:href="#m5fd389d776" x="142.033774" y="255.449797" style="fill: #ff0000; stroke: #ff0000"/>
     <use xlink:href="#m5fd389d776" x="315.876624" y="267.320805" style="fill: #ff0000; stroke: #ff0000"/>
     <use xlink:href="#m5fd389d776" x="226.416742" y="73.980795" style="fill: #ff0000; stroke: #ff0000"/>
     <use xlink:href="#m5fd389d776" x="116.764743" y="207.024692" style="fill: #ff0000; stroke: #ff0000"/>
     <use xlink:href="#m5fd389d776" x="277.435498" y="245.813626" style="fill: #ff0000; stroke: #ff0000"/>
     <use xlink:href="#m5fd389d776" x="204.351737" y="90.70289" style="fill: #ff0000; stroke: #ff0000"/>
     <use xlink:href="#m5fd389d776" x="328.180171" y="94.255458" style="fill: #ff0000; stroke: #ff0000"/>
     <use xlink:href="#m5fd389d776" x="245.536867" y="169.373413" style="fill: #ff0000; stroke: #ff0000"/>
     <use xlink:href="#m5fd389d776" x="260.959611" y="275.626618" style="fill: #ff0000; stroke: #ff0000"/>
     <use xlink:href="#m5fd389d776" x="118.085373" y="148.992619" style="fill: #ff0000; stroke: #ff0000"/>
     <use xlink:href="#m5fd389d776" x="311.052956" y="80.15582" style="fill: #ff0000; stroke: #ff0000"/>
     <use xlink:href="#m5fd389d776" x="207.18087" y="294.610079" style="fill: #ff0000; stroke: #ff0000"/>
     <use xlink:href="#m5fd389d776" x="213.200402" y="274.040609" style="fill: #ff0000; stroke: #ff0000"/>
     <use xlink:href="#m5fd389d776" x="235.061591" y="218.775252" style="fill: #ff0000; stroke: #ff0000"/>
     <use xlink:href="#m5fd389d776" x="225.414678" y="259.90934" style="fill: #ff0000; stroke: #ff0000"/>
     <use xlink:href="#m5fd389d776" x="144.812679" y="99.701786" style="fill: #ff0000; stroke: #ff0000"/>
    </g>
   </g>
   <g id="line2d_17">
    <defs>
     <path id="m593287c1e4" d="M 0 3 
C 0.795609 3 1.55874 2.683901 2.12132 2.12132 
C 2.683901 1.55874 3 0.795609 3 0 
C 3 -0.795609 2.683901 -1.55874 2.12132 -2.12132 
C 1.55874 -2.683901 0.795609 -3 0 -3 
C -0.795609 -3 -1.55874 -2.683901 -2.12132 -2.12132 
C -2.683901 -1.55874 -3 -0.795609 -3 0 
C -3 0.795609 -2.683901 1.55874 -2.12132 2.12132 
C -1.55874 2.683901 -0.795609 3 0 3 
z
" style="stroke: #000000"/>
    </defs>
    <g clip-path="url(#p2a54a49829)">
     <use xlink:href="#m593287c1e4" x="282.954103" y="69.014545" style="stroke: #000000"/>
     <use xlink:href="#m593287c1e4" x="234.789295" y="291.068608" style="stroke: #000000"/>
     <use xlink:href="#m593287c1e4" x="272.197723" y="125.527505" style="stroke: #000000"/>
     <use xlink:href="#m593287c1e4" x="339.560705" y="124.351831" style="stroke: #000000"/>
     <use xlink:href="#m593287c1e4" x="176.74253" y="99.860828" style="stroke: #000000"/>
     <use xlink:href="#m593287c1e4" x="186.186496" y="130.156519" style="stroke: #000000"/>
     <use xlink:href="#m593287c1e4" x="258.881183" y="95.569192" style="stroke: #000000"/>
     <use xlink:href="#m593287c1e4" x="201.143834" y="154.497335" style="stroke: #000000"/>
     <use xlink:href="#m593287c1e4" x="215.297564" y="126.251937" style="stroke: #000000"/>
     <use xlink:href="#m593287c1e4" x="238.397744" y="191.661419" style="stroke: #000000"/>
     <use xlink:href="#m593287c1e4" x="154.960875" y="126.98556" style="stroke: #000000"/>
     <use xlink:href="#m593287c1e4" x="328.716811" y="185.184758" style="stroke: #000000"/>
     <use xlink:href="#m593287c1e4" x="228.902764" y="97.938149" style="stroke: #000000"/>
     <use xlink:href="#m593287c1e4" x="169.531899" y="155.775027" style="stroke: #000000"/>
     <use xlink:href="#m593287c1e4" x="351.131685" y="157.358558" style="stroke: #000000"/>
     <use xlink:href="#m593287c1e4" x="133.483376" y="228.950215" style="stroke: #000000"/>
     <use xlink:href="#m593287c1e4" x="282.971571" y="202.939677" style="stroke: #000000"/>
     <use xlink:href="#m593287c1e4" x="216.088392" y="207.784724" style="stroke: #000000"/>
     <use xlink:href="#m593287c1e4" x="250.480573" y="62.239423" style="stroke: #000000"/>
     <use xlink:href="#m593287c1e4" x="229.142528" y="150.220037" style="stroke: #000000"/>
    </g>
   </g>
   <g id="patch_3">
    <path d="M 57.6 307.584 
L 57.6 41.472 
" style="fill: none; stroke: #000000; stroke-width: 0.8; stroke-linejoin: miter; stroke-linecap: square"/>
   </g>
   <g id="patch_4">
    <path d="M 414.72 307.584 
L 414.72 41.472 
" style="fill: none; stroke: #000000; stroke-width: 0.8; stroke-linejoin: miter; stroke-linecap: square"/>
   </g>
   <g id="patch_5">
    <path d="M 57.6 307.584 
L 414.72 307.584 
" style="fill: none; stroke: #000000; stroke-width: 0.8; stroke-linejoin: miter; stroke-linecap: square"/>
   </g>
   <g id="patch_6">
    <path d="M 57.6 41.472 
L 414.72 41.472 
" style="fill: none; stroke: #000000; stroke-width: 0.8; stroke-linejoin: miter; stroke-linecap: square"/>
   </g>
   <g id="text_17">
    <!-- Velocities at the final time -->
    <g transform="translate(116.81 35.472) scale(0.16 -0.16)">
     <defs>
      <path id="DejaVuSans-Bold-56" d="M 31 4666 
L 1241 4666 
L 2478 1222 
L 3713 4666 
L 4922 4666 
L 3194 0 
L 1759 0 
L 31 4666 
z
" transform="scale(0.015625)"/>
      <path id="DejaVuSans-Bold-65" d="M 4031 1759 
L 4031 1441 
L 1416 1441 
Q 1456 1047 1700 850 
Q 1944 653 2381 653 
Q 2734 653 3104 758 
Q 3475 863 3866 1075 
L 3866 213 
Q 3469 63 3072 -14 
Q 2675 -91 2278 -91 
Q 1328 -91 801 392 
Q 275 875 275 1747 
Q 275 2603 792 3093 
Q 1309 3584 2216 3584 
Q 3041 3584 3536 3087 
Q 4031 2591 4031 1759 
z
M 2881 2131 
Q 2881 2450 2695 2645 
Q 2509 2841 2209 2841 
Q 1884 2841 1681 2658 
Q 1478 2475 1428 2131 
L 2881 2131 
z
" transform="scale(0.015625)"/>
      <path id="DejaVuSans-Bold-6c" d="M 538 4863 
L 1656 4863 
L 1656 0 
L 538 0 
L 538 4863 
z
" transform="scale(0.015625)"/>
      <path id="DejaVuSans-Bold-6f" d="M 2203 2784 
Q 1831 2784 1636 2517 
Q 1441 2250 1441 1747 
Q 1441 1244 1636 976 
Q 1831 709 2203 709 
Q 2569 709 2762 976 
Q 2956 1244 2956 1747 
Q 2956 2250 2762 2517 
Q 2569 2784 2203 2784 
z
M 2203 3584 
Q 3106 3584 3614 3096 
Q 4122 2609 4122 1747 
Q 4122 884 3614 396 
Q 3106 -91 2203 -91 
Q 1297 -91 786 396 
Q 275 884 275 1747 
Q 275 2609 786 3096 
Q 1297 3584 2203 3584 
z
" transform="scale(0.015625)"/>
      <path id="DejaVuSans-Bold-63" d="M 3366 3391 
L 3366 2478 
Q 3138 2634 2908 2709 
Q 2678 2784 2431 2784 
Q 1963 2784 1702 2511 
Q 1441 2238 1441 1747 
Q 1441 1256 1702 982 
Q 1963 709 2431 709 
Q 2694 709 2930 787 
Q 3166 866 3366 1019 
L 3366 103 
Q 3103 6 2833 -42 
Q 2563 -91 2291 -91 
Q 1344 -91 809 395 
Q 275 881 275 1747 
Q 275 2613 809 3098 
Q 1344 3584 2291 3584 
Q 2566 3584 2833 3536 
Q 3100 3488 3366 3391 
z
" transform="scale(0.015625)"/>
      <path id="DejaVuSans-Bold-69" d="M 538 3500 
L 1656 3500 
L 1656 0 
L 538 0 
L 538 3500 
z
M 538 4863 
L 1656 4863 
L 1656 3950 
L 538 3950 
L 538 4863 
z
" transform="scale(0.015625)"/>
      <path id="DejaVuSans-Bold-74" d="M 1759 4494 
L 1759 3500 
L 2913 3500 
L 2913 2700 
L 1759 2700 
L 1759 1216 
Q 1759 972 1856 886 
Q 1953 800 2241 800 
L 2816 800 
L 2816 0 
L 1856 0 
Q 1194 0 917 276 
Q 641 553 641 1216 
L 641 2700 
L 84 2700 
L 84 3500 
L 641 3500 
L 641 4494 
L 1759 4494 
z
" transform="scale(0.015625)"/>
      <path id="DejaVuSans-Bold-73" d="M 3272 3391 
L 3272 2541 
Q 2913 2691 2578 2766 
Q 2244 2841 1947 2841 
Q 1628 2841 1473 2761 
Q 1319 2681 1319 2516 
Q 1319 2381 1436 2309 
Q 1553 2238 1856 2203 
L 2053 2175 
Q 2913 2066 3209 1816 
Q 3506 1566 3506 1031 
Q 3506 472 3093 190 
Q 2681 -91 1863 -91 
Q 1516 -91 1145 -36 
Q 775 19 384 128 
L 384 978 
Q 719 816 1070 734 
Q 1422 653 1784 653 
Q 2113 653 2278 743 
Q 2444 834 2444 1013 
Q 2444 1163 2330 1236 
Q 2216 1309 1875 1350 
L 1678 1375 
Q 931 1469 631 1722 
Q 331 1975 331 2491 
Q 331 3047 712 3315 
Q 1094 3584 1881 3584 
Q 2191 3584 2531 3537 
Q 2872 3491 3272 3391 
z
" transform="scale(0.015625)"/>
      <path id="DejaVuSans-Bold-20" transform="scale(0.015625)"/>
      <path id="DejaVuSans-Bold-61" d="M 2106 1575 
Q 1756 1575 1579 1456 
Q 1403 1338 1403 1106 
Q 1403 894 1545 773 
Q 1688 653 1941 653 
Q 2256 653 2472 879 
Q 2688 1106 2688 1447 
L 2688 1575 
L 2106 1575 
z
M 3816 1997 
L 3816 0 
L 2688 0 
L 2688 519 
Q 2463 200 2181 54 
Q 1900 -91 1497 -91 
Q 953 -91 614 226 
Q 275 544 275 1050 
Q 275 1666 698 1953 
Q 1122 2241 2028 2241 
L 2688 2241 
L 2688 2328 
Q 2688 2594 2478 2717 
Q 2269 2841 1825 2841 
Q 1466 2841 1156 2769 
Q 847 2697 581 2553 
L 581 3406 
Q 941 3494 1303 3539 
Q 1666 3584 2028 3584 
Q 2975 3584 3395 3211 
Q 3816 2838 3816 1997 
z
" transform="scale(0.015625)"/>
      <path id="DejaVuSans-Bold-68" d="M 4056 2131 
L 4056 0 
L 2931 0 
L 2931 347 
L 2931 1625 
Q 2931 2084 2911 2256 
Q 2891 2428 2841 2509 
Q 2775 2619 2662 2680 
Q 2550 2741 2406 2741 
Q 2056 2741 1856 2470 
Q 1656 2200 1656 1722 
L 1656 0 
L 538 0 
L 538 4863 
L 1656 4863 
L 1656 2988 
Q 1909 3294 2193 3439 
Q 2478 3584 2822 3584 
Q 3428 3584 3742 3212 
Q 4056 2841 4056 2131 
z
" transform="scale(0.015625)"/>
      <path id="DejaVuSans-Bold-66" d="M 2841 4863 
L 2841 4128 
L 2222 4128 
Q 1984 4128 1890 4042 
Q 1797 3956 1797 3744 
L 1797 3500 
L 2753 3500 
L 2753 2700 
L 1797 2700 
L 1797 0 
L 678 0 
L 678 2700 
L 122 2700 
L 122 3500 
L 678 3500 
L 678 3744 
Q 678 4316 997 4589 
Q 1316 4863 1984 4863 
L 2841 4863 
z
" transform="scale(0.015625)"/>
      <path id="DejaVuSans-Bold-6e" d="M 4056 2131 
L 4056 0 
L 2931 0 
L 2931 347 
L 2931 1631 
Q 2931 2084 2911 2256 
Q 2891 2428 2841 2509 
Q 2775 2619 2662 2680 
Q 2550 2741 2406 2741 
Q 2056 2741 1856 2470 
Q 1656 2200 1656 1722 
L 1656 0 
L 538 0 
L 538 3500 
L 1656 3500 
L 1656 2988 
Q 1909 3294 2193 3439 
Q 2478 3584 2822 3584 
Q 3428 3584 3742 3212 
Q 4056 2841 4056 2131 
z
" transform="scale(0.015625)"/>
      <path id="DejaVuSans-Bold-6d" d="M 3781 2919 
Q 3994 3244 4286 3414 
Q 4578 3584 4928 3584 
Q 5531 3584 5847 3212 
Q 6163 2841 6163 2131 
L 6163 0 
L 5038 0 
L 5038 1825 
Q 5041 1866 5042 1909 
Q 5044 1953 5044 2034 
Q 5044 2406 4934 2573 
Q 4825 2741 4581 2741 
Q 4263 2741 4089 2478 
Q 3916 2216 3909 1719 
L 3909 0 
L 2784 0 
L 2784 1825 
Q 2784 2406 2684 2573 
Q 2584 2741 2328 2741 
Q 2006 2741 1831 2477 
Q 1656 2213 1656 1722 
L 1656 0 
L 531 0 
L 531 3500 
L 1656 3500 
L 1656 2988 
Q 1863 3284 2130 3434 
Q 2397 3584 2719 3584 
Q 3081 3584 3359 3409 
Q 3638 3234 3781 2919 
z
" transform="scale(0.015625)"/>
     </defs>
     <use xlink:href="#DejaVuSans-Bold-56"/>
     <use xlink:href="#DejaVuSans-Bold-65" transform="translate(71.892578 0)"/>
     <use xlink:href="#DejaVuSans-Bold-6c" transform="translate(139.714844 0)"/>
     <use xlink:href="#DejaVuSans-Bold-6f" transform="translate(173.992188 0)"/>
     <use xlink:href="#DejaVuSans-Bold-63" transform="translate(242.693359 0)"/>
     <use xlink:href="#DejaVuSans-Bold-69" transform="translate(301.970703 0)"/>
     <use xlink:href="#DejaVuSans-Bold-74" transform="translate(336.248047 0)"/>
     <use xlink:href="#DejaVuSans-Bold-69" transform="translate(384.050781 0)"/>
     <use xlink:href="#DejaVuSans-Bold-65" transform="translate(418.328125 0)"/>
     <use xlink:href="#DejaVuSans-Bold-73" transform="translate(486.150391 0)"/>
     <use xlink:href="#DejaVuSans-Bold-20" transform="translate(545.671875 0)"/>
     <use xlink:href="#DejaVuSans-Bold-61" transform="translate(580.486328 0)"/>
     <use xlink:href="#DejaVuSans-Bold-74" transform="translate(647.966797 0)"/>
     <use xlink:href="#DejaVuSans-Bold-20" transform="translate(695.769531 0)"/>
     <use xlink:href="#DejaVuSans-Bold-74" transform="translate(730.583984 0)"/>
     <use xlink:href="#DejaVuSans-Bold-68" transform="translate(778.386719 0)"/>
     <use xlink:href="#DejaVuSans-Bold-65" transform="translate(849.578125 0)"/>
     <use xlink:href="#DejaVuSans-Bold-20" transform="translate(917.400391 0)"/>
     <use xlink:href="#DejaVuSans-Bold-66" transform="translate(952.214844 0)"/>
     <use xlink:href="#DejaVuSans-Bold-69" transform="translate(995.720703 0)"/>
     <use xlink:href="#DejaVuSans-Bold-6e" transform="translate(1029.998047 0)"/>
     <use xlink:href="#DejaVuSans-Bold-61" transform="translate(1101.189453 0)"/>
     <use xlink:href="#DejaVuSans-Bold-6c" transform="translate(1168.669922 0)"/>
     <use xlink:href="#DejaVuSans-Bold-20" transform="translate(1202.947266 0)"/>
     <use xlink:href="#DejaVuSans-Bold-74" transform="translate(1237.761719 0)"/>
     <use xlink:href="#DejaVuSans-Bold-69" transform="translate(1285.564453 0)"/>
     <use xlink:href="#DejaVuSans-Bold-6d" transform="translate(1319.841797 0)"/>
     <use xlink:href="#DejaVuSans-Bold-65" transform="translate(1424.041016 0)"/>
    </g>
   </g>
  </g>
 </g>
 <defs>
  <clipPath id="p2a54a49829">
   <rect x="57.6" y="41.472" width="357.12" height="266.112"/>
  </clipPath>
 </defs>
</svg>
