<?xml version="1.0" encoding="utf-8" standalone="no"?>
<!DOCTYPE svg PUBLIC "-//W3C//DTD SVG 1.1//EN"
  "http://www.w3.org/Graphics/SVG/1.1/DTD/svg11.dtd">
<svg xmlns:xlink="http://www.w3.org/1999/xlink" width="460.8pt" height="345.6pt" viewBox="0 0 460.8 345.6" xmlns="http://www.w3.org/2000/svg" version="1.1">
 <metadata>
  <rdf:RDF xmlns:dc="http://purl.org/dc/elements/1.1/" xmlns:cc="http://creativecommons.org/ns#" xmlns:rdf="http://www.w3.org/1999/02/22-rdf-syntax-ns#">
   <cc:Work>
    <dc:type rdf:resource="http://purl.org/dc/dcmitype/StillImage"/>
    <dc:date>2025-05-05T23:11:48.859656</dc:date>
    <dc:format>image/svg+xml</dc:format>
    <dc:creator>
     <cc:Agent>
      <dc:title>Matplotlib v3.10.1, https://matplotlib.org/</dc:title>
     </cc:Agent>
    </dc:creator>
   </cc:Work>
  </rdf:RDF>
 </metadata>
 <defs>
  <style type="text/css">*{stroke-linejoin: round; stroke-linecap: butt}</style>
 </defs>
 <g id="figure_1">
  <g id="patch_1">
   <path d="M 0 345.6 
L 460.8 345.6 
L 460.8 0 
L 0 0 
z
" style="fill: #ffffff"/>
  </g>
  <g id="axes_1">
   <g id="patch_2">
    <path d="M 57.6 307.584 
L 414.72 307.584 
L 414.72 41.472 
L 57.6 41.472 
z
" style="fill: #ffffff"/>
   </g>
   <g id="Quiver_1">
    <path d="M 235.967335 90.541965 
L 241.849889 84.660884 
L 239.133609 83.755079 
L 250.90544 77.418303 
L 244.565715 89.188547 
L 243.660591 86.47204 
L 237.778037 92.35312 
L 235.967335 90.541965 
" clip-path="url(#pd8c504e69e)"/>
    <path d="M 248.528263 154.391029 
L 254.401317 148.52184 
L 251.685222 147.615482 
L 263.458346 141.281106 
L 257.11622 153.050057 
L 256.21165 150.333365 
L 250.338596 156.202554 
L 248.528263 154.391029 
" clip-path="url(#pd8c504e69e)"/>
    <path d="M 314.548981 167.920958 
L 320.431842 162.037849 
L 317.715429 161.132442 
L 329.486334 154.793943 
L 323.148331 166.565115 
L 322.242809 163.84874 
L 316.359948 169.731849 
L 314.548981 167.920958 
" clip-path="url(#pd8c504e69e)"/>
    <path d="M 205.952537 214.838458 
L 211.831045 208.955442 
L 209.114305 208.051018 
L 220.882913 201.708256 
L 214.549174 213.481723 
L 213.642668 210.765676 
L 207.76416 216.648693 
L 205.952537 214.838458 
" clip-path="url(#pd8c504e69e)"/>
    <path d="M 257.958785 121.713315 
L 263.832694 115.843112 
L 261.116586 114.936791 
L 272.889624 108.602254 
L 266.547658 120.371291 
L 265.643051 117.654613 
L 259.769143 123.524815 
L 257.958785 121.713315 
" clip-path="url(#pd8c504e69e)"/>
    <path d="M 322.409514 248.514182 
L 328.285286 242.638876 
L 325.568928 241.733304 
L 337.340217 235.395519 
L 331.0015 247.166306 
L 330.096143 244.449877 
L 324.220371 250.325183 
L 322.409514 248.514182 
" clip-path="url(#pd8c504e69e)"/>
    <path d="M 222.274591 183.736588 
L 228.159411 177.850408 
L 225.442914 176.945257 
L 237.213219 170.605647 
L 230.876328 182.377417 
L 229.97055 179.661128 
L 224.085729 185.547307 
L 222.274591 183.736588 
" clip-path="url(#pd8c504e69e)"/>
    <path d="M 314.69424 209.659866 
L 320.574752 203.781731 
L 317.858542 202.875717 
L 329.630861 196.539845 
L 323.29023 208.309602 
L 322.385315 205.593026 
L 316.504803 211.471161 
L 314.69424 209.659866 
" clip-path="url(#pd8c504e69e)"/>
    <path d="M 336.199337 113.343104 
L 342.077242 107.466028 
L 339.360913 106.560372 
L 351.132398 100.222951 
L 344.793316 111.993542 
L 343.888043 109.277085 
L 338.010139 115.154161 
L 336.199337 113.343104 
" clip-path="url(#pd8c504e69e)"/>
    <path d="M 274.742682 213.365334 
L 280.630861 207.484781 
L 277.915055 206.577557 
L 289.690197 200.246935 
L 283.34432 212.013863 
L 282.440616 209.296883 
L 276.552437 215.177436 
L 274.742682 213.365334 
" clip-path="url(#pd8c504e69e)"/>
    <path d="M 196.449098 157.295205 
L 202.324585 151.41754 
L 199.608024 150.512579 
L 211.377887 144.172146 
L 205.041817 155.944359 
L 204.135849 153.228133 
L 198.260362 159.105798 
L 196.449098 157.295205 
" clip-path="url(#pd8c504e69e)"/>
    <path d="M 351.214486 151.262202 
L 357.094838 145.382709 
L 354.37851 144.477046 
L 366.150011 138.139655 
L 359.8109 149.91023 
L 358.905634 147.19377 
L 353.025282 153.073263 
L 351.214486 151.262202 
" clip-path="url(#pd8c504e69e)"/>
    <path d="M 295.589719 107.97081 
L 301.465162 102.094077 
L 298.74867 101.188911 
L 310.519012 94.849368 
L 304.182052 106.621101 
L 303.27629 103.904807 
L 297.400847 109.78154 
L 295.589719 107.97081 
" clip-path="url(#pd8c504e69e)"/>
    <path d="M 350.695061 191.858199 
L 356.574154 185.980127 
L 353.857839 185.074427 
L 365.629427 178.737198 
L 359.290154 190.507685 
L 358.384925 187.791213 
L 352.505833 193.669285 
L 350.695061 191.858199 
" clip-path="url(#pd8c504e69e)"/>
    <path d="M 273.789807 176.48142 
L 279.667978 170.605274 
L 276.95174 169.699342 
L 288.72387 163.363119 
L 282.383591 175.133065 
L 281.478595 172.416515 
L 275.600424 178.292661 
L 273.789807 176.48142 
" clip-path="url(#pd8c504e69e)"/>
    <path d="M 219.693201 280.90592 
L 225.567661 275.025955 
L 222.850844 274.121763 
L 234.618913 267.778001 
L 228.286174 279.552005 
L 227.379438 276.836036 
L 221.504977 282.716 
L 219.693201 280.90592 
" clip-path="url(#pd8c504e69e)"/>
    <path d="M 222.693858 127.493975 
L 228.574388 121.61266 
L 225.857934 120.707377 
L 237.628548 114.368339 
L 231.291084 126.1398 
L 230.385438 123.423468 
L 224.504908 129.304783 
L 222.693858 127.493975 
" clip-path="url(#pd8c504e69e)"/>
    <path d="M 269.133334 64.152072 
L 275.020084 58.27349 
L 272.30432 57.36614 
L 284.079757 51.036063 
L 277.733334 62.802698 
L 276.829756 60.085676 
L 270.943005 65.964258 
L 269.133334 64.152072 
" clip-path="url(#pd8c504e69e)"/>
    <path d="M 285.788643 144.155888 
L 291.664523 138.280332 
L 288.948155 137.374793 
L 300.719368 131.036866 
L 294.380792 142.807729 
L 293.475402 140.091311 
L 287.599522 145.966867 
L 285.788643 144.155888 
" clip-path="url(#pd8c504e69e)"/>
    <path d="M 198.885541 97.033189 
L 204.76853 91.150021 
L 202.052123 90.244598 
L 213.823065 83.906168 
L 207.484992 95.677302 
L 206.579487 92.960923 
L 200.696497 98.84409 
L 198.885541 97.033189 
" clip-path="url(#pd8c504e69e)"/>
    <path d="M 175.705106 224.387349 
L 181.583959 218.505751 
L 178.867354 217.600921 
L 190.636913 211.259923 
L 184.301409 223.03244 
L 183.39531 220.316258 
L 177.516457 226.197855 
L 175.705106 224.387349 
" clip-path="url(#pd8c504e69e)"/>
    <path d="M 237.269102 52.661988 
L 243.161606 46.776613 
L 240.445762 45.869505 
L 252.220635 39.538381 
L 245.875258 51.305579 
L 244.971439 48.588638 
L 239.078934 54.474012 
L 237.269102 52.661988 
" clip-path="url(#pd8c504e69e)"/>
    <path d="M 193.732683 127.211978 
L 199.613683 121.330698 
L 196.897268 120.425298 
L 208.668156 114.086768 
L 202.330184 125.857956 
L 201.424655 123.141584 
L 195.543655 129.022864 
L 193.732683 127.211978 
" clip-path="url(#pd8c504e69e)"/>
    <path d="M 213.669551 249.331903 
L 219.550475 243.44797 
L 216.83385 242.5432 
L 228.603266 236.201938 
L 222.268026 247.974597 
L 221.361867 245.258435 
L 215.480943 251.142369 
L 213.669551 249.331903 
" clip-path="url(#pd8c504e69e)"/>
    <path d="M 258.173903 268.080795 
L 264.043347 262.206895 
L 261.32661 261.302461 
L 273.095242 254.959744 
L 266.761458 266.733186 
L 265.854963 264.017137 
L 259.985519 269.891037 
L 258.173903 268.080795 
" clip-path="url(#pd8c504e69e)"/>
    <path d="M 152.713301 229.637773 
L 158.591923 223.757011 
L 155.875364 222.852041 
L 167.645249 216.511648 
L 161.30914 228.283839 
L 160.403181 225.567611 
L 154.524559 231.448373 
L 152.713301 229.637773 
" clip-path="url(#pd8c504e69e)"/>
    <path d="M 163.863553 294.582535 
L 169.743206 288.70289 
L 167.026813 287.797423 
L 178.797855 281.45918 
L 172.459596 293.230214 
L 171.554133 290.51382 
L 165.67448 296.393465 
L 163.863553 294.582535 
" clip-path="url(#pd8c504e69e)"/>
    <path d="M 126.242849 136.871112 
L 132.126641 130.983598 
L 129.409961 130.078992 
L 141.178994 123.737019 
L 134.844466 135.510061 
L 133.938142 132.793954 
L 128.05435 138.681468 
L 126.242849 136.871112 
" clip-path="url(#pd8c504e69e)"/>
    <path d="M 171.617305 179.454598 
L 177.497292 173.572838 
L 174.780762 172.667783 
L 186.550845 166.327757 
L 180.214368 178.099751 
L 179.308494 175.383494 
L 173.428507 181.265254 
L 171.617305 179.454598 
" clip-path="url(#pd8c504e69e)"/>
    <path d="M 240.782162 254.026402 
L 246.658715 248.14498 
L 243.941947 247.240641 
L 255.71036 240.897516 
L 249.376983 252.671177 
L 248.470394 249.955159 
L 242.593841 255.836581 
L 240.782162 254.026402 
" clip-path="url(#pd8c504e69e)"/>
    <path d="M 144.481449 157.021384 
L 150.359407 151.138065 
L 147.642601 150.233838 
L 159.410749 143.890223 
L 153.077864 155.664148 
L 152.171161 152.948168 
L 146.293203 158.831487 
L 144.481449 157.021384 
" clip-path="url(#pd8c504e69e)"/>
    <path d="M 193.705991 185.957972 
L 199.587972 180.077009 
L 196.871657 179.17131 
L 208.643244 172.834078 
L 202.303973 184.604567 
L 201.398744 181.888095 
L 195.516763 187.769058 
L 193.705991 185.957972 
" clip-path="url(#pd8c504e69e)"/>
    <path d="M 166.739226 157.894113 
L 172.615641 152.013023 
L 169.898887 151.108639 
L 181.667404 144.765707 
L 175.333834 156.539265 
L 174.427289 153.823232 
L 168.550875 159.704322 
L 166.739226 157.894113 
" clip-path="url(#pd8c504e69e)"/>
    <path d="M 194.599189 62.192268 
L 200.491439 56.304535 
L 197.775393 55.398029 
L 209.54886 49.064291 
L 203.206096 60.832898 
L 202.301673 58.116158 
L 196.409424 64.003891 
L 194.599189 62.192268 
" clip-path="url(#pd8c504e69e)"/>
    <path d="M 172.650471 75.534073 
L 178.541179 69.643686 
L 175.824811 68.738148 
L 187.596022 62.400218 
L 181.257449 74.171083 
L 180.352059 71.454665 
L 174.461351 77.345051 
L 172.650471 75.534073 
" clip-path="url(#pd8c504e69e)"/>
    <path d="M 283.986158 258.665631 
L 289.853347 252.797835 
L 287.136907 251.892511 
L 298.907617 245.553651 
L 292.569975 257.325017 
L 291.66437 254.608671 
L 285.797181 260.476466 
L 283.986158 258.665631 
" clip-path="url(#pd8c504e69e)"/>
    <path d="M 123.46368 189.749947 
L 129.344291 183.867451 
L 126.627753 182.962422 
L 138.397776 176.622286 
L 132.06141 188.394339 
L 131.15551 185.67809 
L 125.274899 191.560586 
L 123.46368 189.749947 
" clip-path="url(#pd8c504e69e)"/>
    <path d="M 250.082947 202.237748 
L 255.961519 196.370657 
L 253.246012 195.462538 
L 265.023239 189.135796 
L 258.673485 200.900633 
L 257.770677 198.183356 
L 251.892105 204.050446 
L 250.082947 202.237748 
" clip-path="url(#pd8c504e69e)"/>
    <path d="M 147.705232 181.690389 
L 153.585868 175.807023 
L 150.869265 174.902189 
L 162.638832 168.561207 
L 156.303312 180.333715 
L 155.397217 177.617532 
L 149.516581 183.500898 
L 147.705232 181.690389 
" clip-path="url(#pd8c504e69e)"/>
    <path d="M 154.46092 91.607089 
L 160.350626 85.717237 
L 157.634221 84.811807 
L 169.405181 78.473409 
L 163.067076 90.244526 
L 162.161577 87.528144 
L 156.271872 93.417996 
L 154.46092 91.607089 
" clip-path="url(#pd8c504e69e)"/>
    <path d="M 320.646886 82.780882 
L 326.527866 76.904756 
L 323.811847 75.99817 
L 335.585501 69.664779 
L 329.24239 81.433199 
L 328.338047 78.716432 
L 322.457067 84.592558 
L 320.646886 82.780882 
" clip-path="url(#pd8c504e69e)"/>
    <path d="M 265.790925 244.180266 
L 271.66545 238.303513 
L 268.948885 237.398563 
L 280.718722 231.058081 
L 274.382702 242.83032 
L 273.476723 240.114098 
L 267.602198 245.990851 
L 265.790925 244.180266 
" clip-path="url(#pd8c504e69e)"/>
    <path d="M 121.253484 164.465913 
L 127.133438 158.583157 
L 124.416829 157.678339 
L 136.186357 151.337285 
L 129.85091 163.109832 
L 128.944799 160.393654 
L 123.064845 166.27641 
L 121.253484 164.465913 
" clip-path="url(#pd8c504e69e)"/>
    <path d="M 156.574274 203.902959 
L 162.451297 198.022476 
L 159.734637 197.117811 
L 171.503809 190.776095 
L 165.169023 202.548998 
L 164.262759 199.832871 
L 158.385736 205.713355 
L 156.574274 203.902959 
" clip-path="url(#pd8c504e69e)"/>
    <path d="M 348.570629 225.695613 
L 354.447912 219.819555 
L 351.731613 218.913808 
L 363.503312 212.576784 
L 357.163833 224.347161 
L 356.258652 221.630673 
L 350.381369 227.506731 
L 348.570629 225.695613 
" clip-path="url(#pd8c504e69e)"/>
    <path d="M 138.31178 111.336975 
L 144.199292 105.447117 
L 141.482719 104.542194 
L 153.252494 98.201598 
L 146.916587 109.973898 
L 146.010582 107.257685 
L 140.12307 113.147544 
L 138.31178 111.336975 
" clip-path="url(#pd8c504e69e)"/>
    <path d="M 178.639992 201.254184 
L 184.517132 195.372544 
L 181.800392 194.468119 
L 193.569004 188.125364 
L 187.235258 199.898827 
L 186.328754 197.18278 
L 180.451613 203.06442 
L 178.639992 201.254184 
" clip-path="url(#pd8c504e69e)"/>
    <path d="M 133.750817 211.474608 
L 139.62861 205.59429 
L 136.912022 204.689409 
L 148.681699 198.34863 
L 142.345976 210.121029 
L 141.439928 207.40483 
L 135.562135 213.285148 
L 133.750817 211.474608 
" clip-path="url(#pd8c504e69e)"/>
    <path d="M 277.072537 285.84168 
L 282.944083 279.968076 
L 280.227531 279.063087 
L 291.997458 272.722773 
L 285.66127 284.494922 
L 284.755329 281.778687 
L 278.883783 287.652292 
L 277.072537 285.84168 
" clip-path="url(#pd8c504e69e)"/>
    <path d="M 170.330879 248.972051 
L 176.209958 243.090057 
L 173.49334 242.185266 
L 185.262807 235.844098 
L 178.927473 247.616706 
L 178.021336 244.900537 
L 172.142257 250.782531 
L 170.330879 248.972051 
" clip-path="url(#pd8c504e69e)"/>
    <path d="M 119.294672 250.57034 
L 125.174272 244.691013 
L 122.457899 243.785486 
L 134.229084 237.447506 
L 127.89056 249.218398 
L 126.985159 246.501984 
L 121.105559 252.381311 
L 119.294672 250.57034 
" clip-path="url(#pd8c504e69e)"/>
    <path d="M 291.91126 236.44786 
L 297.784326 230.580414 
L 295.068367 229.673649 
L 306.842438 223.341034 
L 300.498552 235.109036 
L 299.594388 232.39221 
L 293.721322 238.259655 
L 291.91126 236.44786 
" clip-path="url(#pd8c504e69e)"/>
    <path d="M 301.521729 275.779328 
L 307.396426 269.903754 
L 304.679965 268.998492 
L 316.450529 262.659361 
L 310.113158 274.430873 
L 309.20749 271.714547 
L 303.332794 277.590122 
L 301.521729 275.779328 
" clip-path="url(#pd8c504e69e)"/>
    <path d="M 295.633826 189.997129 
L 301.522037 184.109622 
L 298.805698 183.203995 
L 310.577115 176.866449 
L 304.23816 188.637107 
L 303.332858 185.92066 
L 297.444647 191.808166 
L 295.633826 189.997129 
" clip-path="url(#pd8c504e69e)"/>
    <path d="M 189.900461 267.444357 
L 195.778186 261.560945 
L 193.061355 260.656794 
L 204.829326 254.312851 
L 198.496768 266.086953 
L 197.58999 263.370998 
L 191.712266 269.25441 
L 189.900461 267.444357 
" clip-path="url(#pd8c504e69e)"/>
    <path d="M 192.781024 242.931456 
L 198.66218 237.047705 
L 195.945587 236.14284 
L 207.715226 229.801992 
L 201.379572 241.574428 
L 200.473508 238.858235 
L 194.592353 244.741986 
L 192.781024 242.931456 
" clip-path="url(#pd8c504e69e)"/>
    <path d="M 300.757755 71.042611 
L 306.642264 65.164018 
L 303.926326 64.257187 
L 315.700551 57.924858 
L 309.35638 69.692706 
L 308.452282 66.975858 
L 302.567773 72.85445 
L 300.757755 71.042611 
" clip-path="url(#pd8c504e69e)"/>
    <path d="M 229.120024 234.548385 
L 235.001033 228.66412 
L 232.284389 227.759408 
L 244.053673 221.4179 
L 237.718679 233.190691 
L 236.812463 230.474548 
L 230.931454 236.358813 
L 229.120024 234.548385 
" clip-path="url(#pd8c504e69e)"/>
    <path d="M 315.176876 137.368447 
L 321.053419 131.48794 
L 318.336721 130.583392 
L 330.105621 124.241172 
L 323.771339 136.014347 
L 322.864959 133.298259 
L 316.988415 139.178766 
L 315.176876 137.368447 
" clip-path="url(#pd8c504e69e)"/>
    <path d="M 234.413428 212.229289 
L 240.288454 206.347601 
L 237.571548 205.443676 
L 249.338993 199.098755 
L 243.007413 210.873383 
L 242.100409 208.157503 
L 236.225383 214.039191 
L 234.413428 212.229289 
" clip-path="url(#pd8c504e69e)"/>
    <path d="M 269.208926 94.516302 
L 275.078713 88.647046 
L 272.362361 87.741458 
L 284.133686 81.40374 
L 277.794902 93.174491 
L 276.88956 90.458057 
L 271.019773 96.327313 
L 269.208926 94.516302 
" clip-path="url(#pd8c504e69e)"/>
    <path d="M 169.598444 110.566883 
L 175.481796 104.682943 
L 172.765358 103.777614 
L 184.536079 97.438775 
L 178.198416 109.21013 
L 177.292816 106.493782 
L 171.409464 112.377722 
L 169.598444 110.566883 
" clip-path="url(#pd8c504e69e)"/>
    <path d="M 249.840058 229.462257 
L 255.72162 223.579663 
L 253.005147 222.674437 
L 264.775628 216.335153 
L 258.43841 228.106747 
L 257.532707 225.390433 
L 251.651146 231.273027 
L 249.840058 229.462257 
" clip-path="url(#pd8c504e69e)"/>
    <path d="M 151.974865 131.677924 
L 157.857158 125.792542 
L 155.140527 124.88779 
L 166.909901 118.546449 
L 160.57474 130.319151 
L 159.668562 127.602995 
L 153.786269 133.488377 
L 151.974865 131.677924 
" clip-path="url(#pd8c504e69e)"/>
    <path d="M 247.928316 183.419641 
L 253.805525 177.55438 
L 251.090054 176.646152 
L 262.867536 170.319882 
L 256.51731 182.084464 
L 255.61461 179.367151 
L 249.737402 185.232411 
L 247.928316 183.419641 
" clip-path="url(#pd8c504e69e)"/>
    <path d="M 251.045107 292.235907 
L 256.916109 286.360999 
L 254.199415 285.456438 
L 265.968346 279.114274 
L 259.634008 290.887418 
L 258.72764 288.171326 
L 252.856638 294.046234 
L 251.045107 292.235907 
" clip-path="url(#pd8c504e69e)"/>
    <path d="M 216.761233 61.173972 
L 222.653043 55.286127 
L 219.936955 54.379748 
L 231.710126 48.04546 
L 225.367912 59.814364 
L 224.463362 57.097666 
L 218.571552 62.98551 
L 216.761233 61.173972 
" clip-path="url(#pd8c504e69e)"/>
    <path d="M 222.819739 155.818469 
L 228.697526 149.933694 
L 225.980595 149.029844 
L 237.747866 142.684601 
L 231.416609 154.459402 
L 230.509531 151.743547 
L 224.631744 157.628322 
L 222.819739 155.818469 
" clip-path="url(#pd8c504e69e)"/>
    <path d="M 139.694179 274.418601 
L 145.573922 268.53905 
L 142.857544 267.633541 
L 154.628686 261.295483 
L 148.290241 273.066417 
L 147.384821 270.350009 
L 141.505078 276.229559 
L 139.694179 274.418601 
" clip-path="url(#pd8c504e69e)"/>
    <path d="M 174.189357 134.832021 
L 180.070595 128.949232 
L 177.354082 128.044126 
L 189.124285 121.704323 
L 182.787585 133.476197 
L 181.881763 130.759923 
L 176.000525 136.642712 
L 174.189357 134.832021 
" clip-path="url(#pd8c504e69e)"/>
   </g>
   <g id="matplotlib.axis_1">
    <g id="xtick_1">
     <g id="line2d_1">
      <defs>
       <path id="m9e698ed246" d="M 0 0 
L 0 3.5 
" style="stroke: #000000; stroke-width: 0.8"/>
      </defs>
      <g>
       <use xlink:href="#m9e698ed246" x="58.358347" y="307.584" style="stroke: #000000; stroke-width: 0.8"/>
      </g>
     </g>
     <g id="text_1">
      <!-- 93.0 -->
      <g transform="translate(44.998972 323.702125) scale(0.12 -0.12)">
       <defs>
        <path id="DejaVuSans-39" d="M 703 97 
L 703 672 
Q 941 559 1184 500 
Q 1428 441 1663 441 
Q 2288 441 2617 861 
Q 2947 1281 2994 2138 
Q 2813 1869 2534 1725 
Q 2256 1581 1919 1581 
Q 1219 1581 811 2004 
Q 403 2428 403 3163 
Q 403 3881 828 4315 
Q 1253 4750 1959 4750 
Q 2769 4750 3195 4129 
Q 3622 3509 3622 2328 
Q 3622 1225 3098 567 
Q 2575 -91 1691 -91 
Q 1453 -91 1209 -44 
Q 966 3 703 97 
z
M 1959 2075 
Q 2384 2075 2632 2365 
Q 2881 2656 2881 3163 
Q 2881 3666 2632 3958 
Q 2384 4250 1959 4250 
Q 1534 4250 1286 3958 
Q 1038 3666 1038 3163 
Q 1038 2656 1286 2365 
Q 1534 2075 1959 2075 
z
" transform="scale(0.015625)"/>
        <path id="DejaVuSans-33" d="M 2597 2516 
Q 3050 2419 3304 2112 
Q 3559 1806 3559 1356 
Q 3559 666 3084 287 
Q 2609 -91 1734 -91 
Q 1441 -91 1130 -33 
Q 819 25 488 141 
L 488 750 
Q 750 597 1062 519 
Q 1375 441 1716 441 
Q 2309 441 2620 675 
Q 2931 909 2931 1356 
Q 2931 1769 2642 2001 
Q 2353 2234 1838 2234 
L 1294 2234 
L 1294 2753 
L 1863 2753 
Q 2328 2753 2575 2939 
Q 2822 3125 2822 3475 
Q 2822 3834 2567 4026 
Q 2313 4219 1838 4219 
Q 1578 4219 1281 4162 
Q 984 4106 628 3988 
L 628 4550 
Q 988 4650 1302 4700 
Q 1616 4750 1894 4750 
Q 2613 4750 3031 4423 
Q 3450 4097 3450 3541 
Q 3450 3153 3228 2886 
Q 3006 2619 2597 2516 
z
" transform="scale(0.015625)"/>
        <path id="DejaVuSans-2e" d="M 684 794 
L 1344 794 
L 1344 0 
L 684 0 
L 684 794 
z
" transform="scale(0.015625)"/>
        <path id="DejaVuSans-30" d="M 2034 4250 
Q 1547 4250 1301 3770 
Q 1056 3291 1056 2328 
Q 1056 1369 1301 889 
Q 1547 409 2034 409 
Q 2525 409 2770 889 
Q 3016 1369 3016 2328 
Q 3016 3291 2770 3770 
Q 2525 4250 2034 4250 
z
M 2034 4750 
Q 2819 4750 3233 4129 
Q 3647 3509 3647 2328 
Q 3647 1150 3233 529 
Q 2819 -91 2034 -91 
Q 1250 -91 836 529 
Q 422 1150 422 2328 
Q 422 3509 836 4129 
Q 1250 4750 2034 4750 
z
" transform="scale(0.015625)"/>
       </defs>
       <use xlink:href="#DejaVuSans-39"/>
       <use xlink:href="#DejaVuSans-33" transform="translate(63.623047 0)"/>
       <use xlink:href="#DejaVuSans-2e" transform="translate(127.246094 0)"/>
       <use xlink:href="#DejaVuSans-30" transform="translate(159.033203 0)"/>
      </g>
     </g>
    </g>
    <g id="xtick_2">
     <g id="line2d_2">
      <g>
       <use xlink:href="#m9e698ed246" x="121.008664" y="307.584" style="stroke: #000000; stroke-width: 0.8"/>
      </g>
     </g>
     <g id="text_2">
      <!-- 93.5 -->
      <g transform="translate(107.649289 323.702125) scale(0.12 -0.12)">
       <defs>
        <path id="DejaVuSans-35" d="M 691 4666 
L 3169 4666 
L 3169 4134 
L 1269 4134 
L 1269 2991 
Q 1406 3038 1543 3061 
Q 1681 3084 1819 3084 
Q 2600 3084 3056 2656 
Q 3513 2228 3513 1497 
Q 3513 744 3044 326 
Q 2575 -91 1722 -91 
Q 1428 -91 1123 -41 
Q 819 9 494 109 
L 494 744 
Q 775 591 1075 516 
Q 1375 441 1709 441 
Q 2250 441 2565 725 
Q 2881 1009 2881 1497 
Q 2881 1984 2565 2268 
Q 2250 2553 1709 2553 
Q 1456 2553 1204 2497 
Q 953 2441 691 2322 
L 691 4666 
z
" transform="scale(0.015625)"/>
       </defs>
       <use xlink:href="#DejaVuSans-39"/>
       <use xlink:href="#DejaVuSans-33" transform="translate(63.623047 0)"/>
       <use xlink:href="#DejaVuSans-2e" transform="translate(127.246094 0)"/>
       <use xlink:href="#DejaVuSans-35" transform="translate(159.033203 0)"/>
      </g>
     </g>
    </g>
    <g id="xtick_3">
     <g id="line2d_3">
      <g>
       <use xlink:href="#m9e698ed246" x="183.658982" y="307.584" style="stroke: #000000; stroke-width: 0.8"/>
      </g>
     </g>
     <g id="text_3">
      <!-- 94.0 -->
      <g transform="translate(170.299607 323.702125) scale(0.12 -0.12)">
       <defs>
        <path id="DejaVuSans-34" d="M 2419 4116 
L 825 1625 
L 2419 1625 
L 2419 4116 
z
M 2253 4666 
L 3047 4666 
L 3047 1625 
L 3713 1625 
L 3713 1100 
L 3047 1100 
L 3047 0 
L 2419 0 
L 2419 1100 
L 313 1100 
L 313 1709 
L 2253 4666 
z
" transform="scale(0.015625)"/>
       </defs>
       <use xlink:href="#DejaVuSans-39"/>
       <use xlink:href="#DejaVuSans-34" transform="translate(63.623047 0)"/>
       <use xlink:href="#DejaVuSans-2e" transform="translate(127.246094 0)"/>
       <use xlink:href="#DejaVuSans-30" transform="translate(159.033203 0)"/>
      </g>
     </g>
    </g>
    <g id="xtick_4">
     <g id="line2d_4">
      <g>
       <use xlink:href="#m9e698ed246" x="246.3093" y="307.584" style="stroke: #000000; stroke-width: 0.8"/>
      </g>
     </g>
     <g id="text_4">
      <!-- 94.5 -->
      <g transform="translate(232.949925 323.702125) scale(0.12 -0.12)">
       <use xlink:href="#DejaVuSans-39"/>
       <use xlink:href="#DejaVuSans-34" transform="translate(63.623047 0)"/>
       <use xlink:href="#DejaVuSans-2e" transform="translate(127.246094 0)"/>
       <use xlink:href="#DejaVuSans-35" transform="translate(159.033203 0)"/>
      </g>
     </g>
    </g>
    <g id="xtick_5">
     <g id="line2d_5">
      <g>
       <use xlink:href="#m9e698ed246" x="308.959618" y="307.584" style="stroke: #000000; stroke-width: 0.8"/>
      </g>
     </g>
     <g id="text_5">
      <!-- 95.0 -->
      <g transform="translate(295.600243 323.702125) scale(0.12 -0.12)">
       <use xlink:href="#DejaVuSans-39"/>
       <use xlink:href="#DejaVuSans-35" transform="translate(63.623047 0)"/>
       <use xlink:href="#DejaVuSans-2e" transform="translate(127.246094 0)"/>
       <use xlink:href="#DejaVuSans-30" transform="translate(159.033203 0)"/>
      </g>
     </g>
    </g>
    <g id="xtick_6">
     <g id="line2d_6">
      <g>
       <use xlink:href="#m9e698ed246" x="371.609936" y="307.584" style="stroke: #000000; stroke-width: 0.8"/>
      </g>
     </g>
     <g id="text_6">
      <!-- 95.5 -->
      <g transform="translate(358.250561 323.702125) scale(0.12 -0.12)">
       <use xlink:href="#DejaVuSans-39"/>
       <use xlink:href="#DejaVuSans-35" transform="translate(63.623047 0)"/>
       <use xlink:href="#DejaVuSans-2e" transform="translate(127.246094 0)"/>
       <use xlink:href="#DejaVuSans-35" transform="translate(159.033203 0)"/>
      </g>
     </g>
    </g>
    <g id="text_7">
     <!-- x -->
     <g transform="translate(232.016875 340.835562) scale(0.14 -0.14)">
      <defs>
       <path id="DejaVuSans-78" d="M 3513 3500 
L 2247 1797 
L 3578 0 
L 2900 0 
L 1881 1375 
L 863 0 
L 184 0 
L 1544 1831 
L 300 3500 
L 978 3500 
L 1906 2253 
L 2834 3500 
L 3513 3500 
z
" transform="scale(0.015625)"/>
      </defs>
      <use xlink:href="#DejaVuSans-78"/>
     </g>
    </g>
   </g>
   <g id="matplotlib.axis_2">
    <g id="ytick_1">
     <g id="line2d_7">
      <defs>
       <path id="m47ccba461c" d="M 0 0 
L -3.5 0 
" style="stroke: #000000; stroke-width: 0.8"/>
      </defs>
      <g>
       <use xlink:href="#m47ccba461c" x="57.6" y="295.473058" style="stroke: #000000; stroke-width: 0.8"/>
      </g>
     </g>
     <g id="text_8">
      <!-- 94.75 -->
      <g transform="translate(16.24625 300.032121) scale(0.12 -0.12)">
       <defs>
        <path id="DejaVuSans-37" d="M 525 4666 
L 3525 4666 
L 3525 4397 
L 1831 0 
L 1172 0 
L 2766 4134 
L 525 4134 
L 525 4666 
z
" transform="scale(0.015625)"/>
       </defs>
       <use xlink:href="#DejaVuSans-39"/>
       <use xlink:href="#DejaVuSans-34" transform="translate(63.623047 0)"/>
       <use xlink:href="#DejaVuSans-2e" transform="translate(127.246094 0)"/>
       <use xlink:href="#DejaVuSans-37" transform="translate(159.033203 0)"/>
       <use xlink:href="#DejaVuSans-35" transform="translate(222.65625 0)"/>
      </g>
     </g>
    </g>
    <g id="ytick_2">
     <g id="line2d_8">
      <g>
       <use xlink:href="#m47ccba461c" x="57.6" y="264.1479" style="stroke: #000000; stroke-width: 0.8"/>
      </g>
     </g>
     <g id="text_9">
      <!-- 95.00 -->
      <g transform="translate(16.24625 268.706962) scale(0.12 -0.12)">
       <use xlink:href="#DejaVuSans-39"/>
       <use xlink:href="#DejaVuSans-35" transform="translate(63.623047 0)"/>
       <use xlink:href="#DejaVuSans-2e" transform="translate(127.246094 0)"/>
       <use xlink:href="#DejaVuSans-30" transform="translate(159.033203 0)"/>
       <use xlink:href="#DejaVuSans-30" transform="translate(222.65625 0)"/>
      </g>
     </g>
    </g>
    <g id="ytick_3">
     <g id="line2d_9">
      <g>
       <use xlink:href="#m47ccba461c" x="57.6" y="232.822741" style="stroke: #000000; stroke-width: 0.8"/>
      </g>
     </g>
     <g id="text_10">
      <!-- 95.25 -->
      <g transform="translate(16.24625 237.381803) scale(0.12 -0.12)">
       <defs>
        <path id="DejaVuSans-32" d="M 1228 531 
L 3431 531 
L 3431 0 
L 469 0 
L 469 531 
Q 828 903 1448 1529 
Q 2069 2156 2228 2338 
Q 2531 2678 2651 2914 
Q 2772 3150 2772 3378 
Q 2772 3750 2511 3984 
Q 2250 4219 1831 4219 
Q 1534 4219 1204 4116 
Q 875 4013 500 3803 
L 500 4441 
Q 881 4594 1212 4672 
Q 1544 4750 1819 4750 
Q 2544 4750 2975 4387 
Q 3406 4025 3406 3419 
Q 3406 3131 3298 2873 
Q 3191 2616 2906 2266 
Q 2828 2175 2409 1742 
Q 1991 1309 1228 531 
z
" transform="scale(0.015625)"/>
       </defs>
       <use xlink:href="#DejaVuSans-39"/>
       <use xlink:href="#DejaVuSans-35" transform="translate(63.623047 0)"/>
       <use xlink:href="#DejaVuSans-2e" transform="translate(127.246094 0)"/>
       <use xlink:href="#DejaVuSans-32" transform="translate(159.033203 0)"/>
       <use xlink:href="#DejaVuSans-35" transform="translate(222.65625 0)"/>
      </g>
     </g>
    </g>
    <g id="ytick_4">
     <g id="line2d_10">
      <g>
       <use xlink:href="#m47ccba461c" x="57.6" y="201.497582" style="stroke: #000000; stroke-width: 0.8"/>
      </g>
     </g>
     <g id="text_11">
      <!-- 95.50 -->
      <g transform="translate(16.24625 206.056644) scale(0.12 -0.12)">
       <use xlink:href="#DejaVuSans-39"/>
       <use xlink:href="#DejaVuSans-35" transform="translate(63.623047 0)"/>
       <use xlink:href="#DejaVuSans-2e" transform="translate(127.246094 0)"/>
       <use xlink:href="#DejaVuSans-35" transform="translate(159.033203 0)"/>
       <use xlink:href="#DejaVuSans-30" transform="translate(222.65625 0)"/>
      </g>
     </g>
    </g>
    <g id="ytick_5">
     <g id="line2d_11">
      <g>
       <use xlink:href="#m47ccba461c" x="57.6" y="170.172423" style="stroke: #000000; stroke-width: 0.8"/>
      </g>
     </g>
     <g id="text_12">
      <!-- 95.75 -->
      <g transform="translate(16.24625 174.731485) scale(0.12 -0.12)">
       <use xlink:href="#DejaVuSans-39"/>
       <use xlink:href="#DejaVuSans-35" transform="translate(63.623047 0)"/>
       <use xlink:href="#DejaVuSans-2e" transform="translate(127.246094 0)"/>
       <use xlink:href="#DejaVuSans-37" transform="translate(159.033203 0)"/>
       <use xlink:href="#DejaVuSans-35" transform="translate(222.65625 0)"/>
      </g>
     </g>
    </g>
    <g id="ytick_6">
     <g id="line2d_12">
      <g>
       <use xlink:href="#m47ccba461c" x="57.6" y="138.847264" style="stroke: #000000; stroke-width: 0.8"/>
      </g>
     </g>
     <g id="text_13">
      <!-- 96.00 -->
      <g transform="translate(16.24625 143.406326) scale(0.12 -0.12)">
       <defs>
        <path id="DejaVuSans-36" d="M 2113 2584 
Q 1688 2584 1439 2293 
Q 1191 2003 1191 1497 
Q 1191 994 1439 701 
Q 1688 409 2113 409 
Q 2538 409 2786 701 
Q 3034 994 3034 1497 
Q 3034 2003 2786 2293 
Q 2538 2584 2113 2584 
z
M 3366 4563 
L 3366 3988 
Q 3128 4100 2886 4159 
Q 2644 4219 2406 4219 
Q 1781 4219 1451 3797 
Q 1122 3375 1075 2522 
Q 1259 2794 1537 2939 
Q 1816 3084 2150 3084 
Q 2853 3084 3261 2657 
Q 3669 2231 3669 1497 
Q 3669 778 3244 343 
Q 2819 -91 2113 -91 
Q 1303 -91 875 529 
Q 447 1150 447 2328 
Q 447 3434 972 4092 
Q 1497 4750 2381 4750 
Q 2619 4750 2861 4703 
Q 3103 4656 3366 4563 
z
" transform="scale(0.015625)"/>
       </defs>
       <use xlink:href="#DejaVuSans-39"/>
       <use xlink:href="#DejaVuSans-36" transform="translate(63.623047 0)"/>
       <use xlink:href="#DejaVuSans-2e" transform="translate(127.246094 0)"/>
       <use xlink:href="#DejaVuSans-30" transform="translate(159.033203 0)"/>
       <use xlink:href="#DejaVuSans-30" transform="translate(222.65625 0)"/>
      </g>
     </g>
    </g>
    <g id="ytick_7">
     <g id="line2d_13">
      <g>
       <use xlink:href="#m47ccba461c" x="57.6" y="107.522105" style="stroke: #000000; stroke-width: 0.8"/>
      </g>
     </g>
     <g id="text_14">
      <!-- 96.25 -->
      <g transform="translate(16.24625 112.081167) scale(0.12 -0.12)">
       <use xlink:href="#DejaVuSans-39"/>
       <use xlink:href="#DejaVuSans-36" transform="translate(63.623047 0)"/>
       <use xlink:href="#DejaVuSans-2e" transform="translate(127.246094 0)"/>
       <use xlink:href="#DejaVuSans-32" transform="translate(159.033203 0)"/>
       <use xlink:href="#DejaVuSans-35" transform="translate(222.65625 0)"/>
      </g>
     </g>
    </g>
    <g id="ytick_8">
     <g id="line2d_14">
      <g>
       <use xlink:href="#m47ccba461c" x="57.6" y="76.196946" style="stroke: #000000; stroke-width: 0.8"/>
      </g>
     </g>
     <g id="text_15">
      <!-- 96.50 -->
      <g transform="translate(16.24625 80.756009) scale(0.12 -0.12)">
       <use xlink:href="#DejaVuSans-39"/>
       <use xlink:href="#DejaVuSans-36" transform="translate(63.623047 0)"/>
       <use xlink:href="#DejaVuSans-2e" transform="translate(127.246094 0)"/>
       <use xlink:href="#DejaVuSans-35" transform="translate(159.033203 0)"/>
       <use xlink:href="#DejaVuSans-30" transform="translate(222.65625 0)"/>
      </g>
     </g>
    </g>
    <g id="ytick_9">
     <g id="line2d_15">
      <g>
       <use xlink:href="#m47ccba461c" x="57.6" y="44.871787" style="stroke: #000000; stroke-width: 0.8"/>
      </g>
     </g>
     <g id="text_16">
      <!-- 96.75 -->
      <g transform="translate(16.24625 49.43085) scale(0.12 -0.12)">
       <use xlink:href="#DejaVuSans-39"/>
       <use xlink:href="#DejaVuSans-36" transform="translate(63.623047 0)"/>
       <use xlink:href="#DejaVuSans-2e" transform="translate(127.246094 0)"/>
       <use xlink:href="#DejaVuSans-37" transform="translate(159.033203 0)"/>
       <use xlink:href="#DejaVuSans-35" transform="translate(222.65625 0)"/>
      </g>
     </g>
    </g>
    <g id="text_17">
     <!-- y -->
     <g transform="translate(9.334688 178.671125) rotate(-90) scale(0.14 -0.14)">
      <defs>
       <path id="DejaVuSans-79" d="M 2059 -325 
Q 1816 -950 1584 -1140 
Q 1353 -1331 966 -1331 
L 506 -1331 
L 506 -850 
L 844 -850 
Q 1081 -850 1212 -737 
Q 1344 -625 1503 -206 
L 1606 56 
L 191 3500 
L 800 3500 
L 1894 763 
L 2988 3500 
L 3597 3500 
L 2059 -325 
z
" transform="scale(0.015625)"/>
      </defs>
      <use xlink:href="#DejaVuSans-79"/>
     </g>
    </g>
   </g>
   <g id="line2d_16">
    <defs>
     <path id="mafecbc3f71" d="M 0 3 
C 0.795609 3 1.55874 2.683901 2.12132 2.12132 
C 2.683901 1.55874 3 0.795609 3 0 
C 3 -0.795609 2.683901 -1.55874 2.12132 -2.12132 
C 1.55874 -2.683901 0.795609 -3 0 -3 
C -0.795609 -3 -1.55874 -2.683901 -2.12132 -2.12132 
C -2.683901 -1.55874 -3 -0.795609 -3 0 
C -3 0.795609 -2.683901 1.55874 -2.12132 2.12132 
C -1.55874 2.683901 -0.795609 3 0 3 
z
" style="stroke: #0000ff"/>
    </defs>
    <g clip-path="url(#pd8c504e69e)">
     <use xlink:href="#mafecbc3f71" x="236.872686" y="91.447542" style="fill: #0000ff; stroke: #0000ff"/>
     <use xlink:href="#mafecbc3f71" x="249.433429" y="155.296791" style="fill: #0000ff; stroke: #0000ff"/>
     <use xlink:href="#mafecbc3f71" x="315.454465" y="168.826403" style="fill: #0000ff; stroke: #0000ff"/>
     <use xlink:href="#mafecbc3f71" x="206.858348" y="215.743575" style="fill: #0000ff; stroke: #0000ff"/>
     <use xlink:href="#mafecbc3f71" x="258.863964" y="122.619065" style="fill: #0000ff; stroke: #0000ff"/>
     <use xlink:href="#mafecbc3f71" x="323.314943" y="249.419683" style="fill: #0000ff; stroke: #0000ff"/>
     <use xlink:href="#mafecbc3f71" x="223.18016" y="184.641948" style="fill: #0000ff; stroke: #0000ff"/>
     <use xlink:href="#mafecbc3f71" x="315.599521" y="210.565514" style="fill: #0000ff; stroke: #0000ff"/>
     <use xlink:href="#mafecbc3f71" x="337.104738" y="114.248632" style="fill: #0000ff; stroke: #0000ff"/>
     <use xlink:href="#mafecbc3f71" x="275.64756" y="214.271385" style="fill: #0000ff; stroke: #0000ff"/>
     <use xlink:href="#mafecbc3f71" x="197.35473" y="158.200502" style="fill: #0000ff; stroke: #0000ff"/>
     <use xlink:href="#mafecbc3f71" x="352.119884" y="152.167732" style="fill: #0000ff; stroke: #0000ff"/>
     <use xlink:href="#mafecbc3f71" x="296.495283" y="108.876175" style="fill: #0000ff; stroke: #0000ff"/>
     <use xlink:href="#mafecbc3f71" x="351.600447" y="192.763742" style="fill: #0000ff; stroke: #0000ff"/>
     <use xlink:href="#mafecbc3f71" x="274.695116" y="177.38704" style="fill: #0000ff; stroke: #0000ff"/>
     <use xlink:href="#mafecbc3f71" x="220.599089" y="281.81096" style="fill: #0000ff; stroke: #0000ff"/>
     <use xlink:href="#mafecbc3f71" x="223.599383" y="128.399379" style="fill: #0000ff; stroke: #0000ff"/>
     <use xlink:href="#mafecbc3f71" x="270.038169" y="65.058165" style="fill: #0000ff; stroke: #0000ff"/>
     <use xlink:href="#mafecbc3f71" x="286.694083" y="145.061377" style="fill: #0000ff; stroke: #0000ff"/>
     <use xlink:href="#mafecbc3f71" x="199.791019" y="97.93864" style="fill: #0000ff; stroke: #0000ff"/>
    </g>
   </g>
   <g id="line2d_17">
    <defs>
     <path id="m14701b1e1a" d="M 0 3 
C 0.795609 3 1.55874 2.683901 2.12132 2.12132 
C 2.683901 1.55874 3 0.795609 3 0 
C 3 -0.795609 2.683901 -1.55874 2.12132 -2.12132 
C 1.55874 -2.683901 0.795609 -3 0 -3 
C -0.795609 -3 -1.55874 -2.683901 -2.12132 -2.12132 
C -2.683901 -1.55874 -3 -0.795609 -3 0 
C -3 0.795609 -2.683901 1.55874 -2.12132 2.12132 
C -1.55874 2.683901 -0.795609 3 0 3 
z
" style="stroke: #ff0000"/>
    </defs>
    <g clip-path="url(#pd8c504e69e)">
     <use xlink:href="#m14701b1e1a" x="176.610781" y="225.292602" style="fill: #ff0000; stroke: #ff0000"/>
     <use xlink:href="#m14701b1e1a" x="238.174018" y="53.568" style="fill: #ff0000; stroke: #ff0000"/>
     <use xlink:href="#m14701b1e1a" x="194.638169" y="128.117421" style="fill: #ff0000; stroke: #ff0000"/>
     <use xlink:href="#m14701b1e1a" x="214.575247" y="250.237136" style="fill: #ff0000; stroke: #ff0000"/>
     <use xlink:href="#m14701b1e1a" x="259.079711" y="268.985916" style="fill: #ff0000; stroke: #ff0000"/>
     <use xlink:href="#m14701b1e1a" x="153.61893" y="230.543073" style="fill: #ff0000; stroke: #ff0000"/>
     <use xlink:href="#m14701b1e1a" x="164.769017" y="295.488" style="fill: #ff0000; stroke: #ff0000"/>
     <use xlink:href="#m14701b1e1a" x="127.148599" y="137.77629" style="fill: #ff0000; stroke: #ff0000"/>
     <use xlink:href="#m14701b1e1a" x="172.522906" y="180.359926" style="fill: #ff0000; stroke: #ff0000"/>
     <use xlink:href="#m14701b1e1a" x="241.688001" y="254.931491" style="fill: #ff0000; stroke: #ff0000"/>
     <use xlink:href="#m14701b1e1a" x="145.387326" y="157.926435" style="fill: #ff0000; stroke: #ff0000"/>
     <use xlink:href="#m14701b1e1a" x="194.611377" y="186.863515" style="fill: #ff0000; stroke: #ff0000"/>
     <use xlink:href="#m14701b1e1a" x="167.64505" y="158.799217" style="fill: #ff0000; stroke: #ff0000"/>
     <use xlink:href="#m14701b1e1a" x="195.504306" y="63.098079" style="fill: #ff0000; stroke: #ff0000"/>
     <use xlink:href="#m14701b1e1a" x="173.555911" y="76.439562" style="fill: #ff0000; stroke: #ff0000"/>
     <use xlink:href="#m14701b1e1a" x="284.89167" y="259.571049" style="fill: #ff0000; stroke: #ff0000"/>
     <use xlink:href="#m14701b1e1a" x="124.369289" y="190.655266" style="fill: #ff0000; stroke: #ff0000"/>
     <use xlink:href="#m14701b1e1a" x="250.987526" y="203.144097" style="fill: #ff0000; stroke: #ff0000"/>
     <use xlink:href="#m14701b1e1a" x="148.610906" y="182.595644" style="fill: #ff0000; stroke: #ff0000"/>
     <use xlink:href="#m14701b1e1a" x="155.366396" y="92.512543" style="fill: #ff0000; stroke: #ff0000"/>
     <use xlink:href="#m14701b1e1a" x="321.551977" y="83.68672" style="fill: #ff0000; stroke: #ff0000"/>
     <use xlink:href="#m14701b1e1a" x="266.696562" y="245.085558" style="fill: #ff0000; stroke: #ff0000"/>
     <use xlink:href="#m14701b1e1a" x="122.159164" y="165.371162" style="fill: #ff0000; stroke: #ff0000"/>
     <use xlink:href="#m14701b1e1a" x="157.480005" y="204.808157" style="fill: #ff0000; stroke: #ff0000"/>
     <use xlink:href="#m14701b1e1a" x="349.475999" y="226.601172" style="fill: #ff0000; stroke: #ff0000"/>
     <use xlink:href="#m14701b1e1a" x="139.217425" y="112.242259" style="fill: #ff0000; stroke: #ff0000"/>
     <use xlink:href="#m14701b1e1a" x="179.545802" y="202.159302" style="fill: #ff0000; stroke: #ff0000"/>
     <use xlink:href="#m14701b1e1a" x="134.656476" y="212.379878" style="fill: #ff0000; stroke: #ff0000"/>
     <use xlink:href="#m14701b1e1a" x="277.97816" y="286.746986" style="fill: #ff0000; stroke: #ff0000"/>
     <use xlink:href="#m14701b1e1a" x="171.236568" y="249.877291" style="fill: #ff0000; stroke: #ff0000"/>
     <use xlink:href="#m14701b1e1a" x="120.200116" y="251.475826" style="fill: #ff0000; stroke: #ff0000"/>
     <use xlink:href="#m14701b1e1a" x="292.816291" y="237.353758" style="fill: #ff0000; stroke: #ff0000"/>
     <use xlink:href="#m14701b1e1a" x="302.427261" y="276.684725" style="fill: #ff0000; stroke: #ff0000"/>
     <use xlink:href="#m14701b1e1a" x="296.539237" y="190.902648" style="fill: #ff0000; stroke: #ff0000"/>
     <use xlink:href="#m14701b1e1a" x="190.806364" y="268.349384" style="fill: #ff0000; stroke: #ff0000"/>
     <use xlink:href="#m14701b1e1a" x="193.686689" y="243.836721" style="fill: #ff0000; stroke: #ff0000"/>
     <use xlink:href="#m14701b1e1a" x="301.662764" y="71.94853" style="fill: #ff0000; stroke: #ff0000"/>
     <use xlink:href="#m14701b1e1a" x="230.025739" y="235.453599" style="fill: #ff0000; stroke: #ff0000"/>
     <use xlink:href="#m14701b1e1a" x="316.082646" y="138.273606" style="fill: #ff0000; stroke: #ff0000"/>
     <use xlink:href="#m14701b1e1a" x="235.319406" y="213.13424" style="fill: #ff0000; stroke: #ff0000"/>
     <use xlink:href="#m14701b1e1a" x="270.114349" y="95.421808" style="fill: #ff0000; stroke: #ff0000"/>
     <use xlink:href="#m14701b1e1a" x="170.503954" y="111.472303" style="fill: #ff0000; stroke: #ff0000"/>
     <use xlink:href="#m14701b1e1a" x="250.745602" y="230.367642" style="fill: #ff0000; stroke: #ff0000"/>
     <use xlink:href="#m14701b1e1a" x="152.880567" y="132.583151" style="fill: #ff0000; stroke: #ff0000"/>
     <use xlink:href="#m14701b1e1a" x="248.832859" y="184.326026" style="fill: #ff0000; stroke: #ff0000"/>
     <use xlink:href="#m14701b1e1a" x="251.950872" y="293.14107" style="fill: #ff0000; stroke: #ff0000"/>
     <use xlink:href="#m14701b1e1a" x="217.666392" y="62.079741" style="fill: #ff0000; stroke: #ff0000"/>
     <use xlink:href="#m14701b1e1a" x="223.725741" y="156.723396" style="fill: #ff0000; stroke: #ff0000"/>
     <use xlink:href="#m14701b1e1a" x="140.599629" y="275.32408" style="fill: #ff0000; stroke: #ff0000"/>
     <use xlink:href="#m14701b1e1a" x="175.094941" y="135.737366" style="fill: #ff0000; stroke: #ff0000"/>
    </g>
   </g>
   <g id="line2d_18"/>
   <g id="patch_3">
    <path d="M 57.6 307.584 
L 57.6 41.472 
" style="fill: none; stroke: #000000; stroke-width: 0.8; stroke-linejoin: miter; stroke-linecap: square"/>
   </g>
   <g id="patch_4">
    <path d="M 414.72 307.584 
L 414.72 41.472 
" style="fill: none; stroke: #000000; stroke-width: 0.8; stroke-linejoin: miter; stroke-linecap: square"/>
   </g>
   <g id="patch_5">
    <path d="M 57.6 307.584 
L 414.72 307.584 
" style="fill: none; stroke: #000000; stroke-width: 0.8; stroke-linejoin: miter; stroke-linecap: square"/>
   </g>
   <g id="patch_6">
    <path d="M 57.6 41.472 
L 414.72 41.472 
" style="fill: none; stroke: #000000; stroke-width: 0.8; stroke-linejoin: miter; stroke-linecap: square"/>
   </g>
   <g id="text_18">
    <!-- Velocities at the final time -->
    <g transform="translate(116.81 35.472) scale(0.16 -0.16)">
     <defs>
      <path id="DejaVuSans-Bold-56" d="M 31 4666 
L 1241 4666 
L 2478 1222 
L 3713 4666 
L 4922 4666 
L 3194 0 
L 1759 0 
L 31 4666 
z
" transform="scale(0.015625)"/>
      <path id="DejaVuSans-Bold-65" d="M 4031 1759 
L 4031 1441 
L 1416 1441 
Q 1456 1047 1700 850 
Q 1944 653 2381 653 
Q 2734 653 3104 758 
Q 3475 863 3866 1075 
L 3866 213 
Q 3469 63 3072 -14 
Q 2675 -91 2278 -91 
Q 1328 -91 801 392 
Q 275 875 275 1747 
Q 275 2603 792 3093 
Q 1309 3584 2216 3584 
Q 3041 3584 3536 3087 
Q 4031 2591 4031 1759 
z
M 2881 2131 
Q 2881 2450 2695 2645 
Q 2509 2841 2209 2841 
Q 1884 2841 1681 2658 
Q 1478 2475 1428 2131 
L 2881 2131 
z
" transform="scale(0.015625)"/>
      <path id="DejaVuSans-Bold-6c" d="M 538 4863 
L 1656 4863 
L 1656 0 
L 538 0 
L 538 4863 
z
" transform="scale(0.015625)"/>
      <path id="DejaVuSans-Bold-6f" d="M 2203 2784 
Q 1831 2784 1636 2517 
Q 1441 2250 1441 1747 
Q 1441 1244 1636 976 
Q 1831 709 2203 709 
Q 2569 709 2762 976 
Q 2956 1244 2956 1747 
Q 2956 2250 2762 2517 
Q 2569 2784 2203 2784 
z
M 2203 3584 
Q 3106 3584 3614 3096 
Q 4122 2609 4122 1747 
Q 4122 884 3614 396 
Q 3106 -91 2203 -91 
Q 1297 -91 786 396 
Q 275 884 275 1747 
Q 275 2609 786 3096 
Q 1297 3584 2203 3584 
z
" transform="scale(0.015625)"/>
      <path id="DejaVuSans-Bold-63" d="M 3366 3391 
L 3366 2478 
Q 3138 2634 2908 2709 
Q 2678 2784 2431 2784 
Q 1963 2784 1702 2511 
Q 1441 2238 1441 1747 
Q 1441 1256 1702 982 
Q 1963 709 2431 709 
Q 2694 709 2930 787 
Q 3166 866 3366 1019 
L 3366 103 
Q 3103 6 2833 -42 
Q 2563 -91 2291 -91 
Q 1344 -91 809 395 
Q 275 881 275 1747 
Q 275 2613 809 3098 
Q 1344 3584 2291 3584 
Q 2566 3584 2833 3536 
Q 3100 3488 3366 3391 
z
" transform="scale(0.015625)"/>
      <path id="DejaVuSans-Bold-69" d="M 538 3500 
L 1656 3500 
L 1656 0 
L 538 0 
L 538 3500 
z
M 538 4863 
L 1656 4863 
L 1656 3950 
L 538 3950 
L 538 4863 
z
" transform="scale(0.015625)"/>
      <path id="DejaVuSans-Bold-74" d="M 1759 4494 
L 1759 3500 
L 2913 3500 
L 2913 2700 
L 1759 2700 
L 1759 1216 
Q 1759 972 1856 886 
Q 1953 800 2241 800 
L 2816 800 
L 2816 0 
L 1856 0 
Q 1194 0 917 276 
Q 641 553 641 1216 
L 641 2700 
L 84 2700 
L 84 3500 
L 641 3500 
L 641 4494 
L 1759 4494 
z
" transform="scale(0.015625)"/>
      <path id="DejaVuSans-Bold-73" d="M 3272 3391 
L 3272 2541 
Q 2913 2691 2578 2766 
Q 2244 2841 1947 2841 
Q 1628 2841 1473 2761 
Q 1319 2681 1319 2516 
Q 1319 2381 1436 2309 
Q 1553 2238 1856 2203 
L 2053 2175 
Q 2913 2066 3209 1816 
Q 3506 1566 3506 1031 
Q 3506 472 3093 190 
Q 2681 -91 1863 -91 
Q 1516 -91 1145 -36 
Q 775 19 384 128 
L 384 978 
Q 719 816 1070 734 
Q 1422 653 1784 653 
Q 2113 653 2278 743 
Q 2444 834 2444 1013 
Q 2444 1163 2330 1236 
Q 2216 1309 1875 1350 
L 1678 1375 
Q 931 1469 631 1722 
Q 331 1975 331 2491 
Q 331 3047 712 3315 
Q 1094 3584 1881 3584 
Q 2191 3584 2531 3537 
Q 2872 3491 3272 3391 
z
" transform="scale(0.015625)"/>
      <path id="DejaVuSans-Bold-20" transform="scale(0.015625)"/>
      <path id="DejaVuSans-Bold-61" d="M 2106 1575 
Q 1756 1575 1579 1456 
Q 1403 1338 1403 1106 
Q 1403 894 1545 773 
Q 1688 653 1941 653 
Q 2256 653 2472 879 
Q 2688 1106 2688 1447 
L 2688 1575 
L 2106 1575 
z
M 3816 1997 
L 3816 0 
L 2688 0 
L 2688 519 
Q 2463 200 2181 54 
Q 1900 -91 1497 -91 
Q 953 -91 614 226 
Q 275 544 275 1050 
Q 275 1666 698 1953 
Q 1122 2241 2028 2241 
L 2688 2241 
L 2688 2328 
Q 2688 2594 2478 2717 
Q 2269 2841 1825 2841 
Q 1466 2841 1156 2769 
Q 847 2697 581 2553 
L 581 3406 
Q 941 3494 1303 3539 
Q 1666 3584 2028 3584 
Q 2975 3584 3395 3211 
Q 3816 2838 3816 1997 
z
" transform="scale(0.015625)"/>
      <path id="DejaVuSans-Bold-68" d="M 4056 2131 
L 4056 0 
L 2931 0 
L 2931 347 
L 2931 1625 
Q 2931 2084 2911 2256 
Q 2891 2428 2841 2509 
Q 2775 2619 2662 2680 
Q 2550 2741 2406 2741 
Q 2056 2741 1856 2470 
Q 1656 2200 1656 1722 
L 1656 0 
L 538 0 
L 538 4863 
L 1656 4863 
L 1656 2988 
Q 1909 3294 2193 3439 
Q 2478 3584 2822 3584 
Q 3428 3584 3742 3212 
Q 4056 2841 4056 2131 
z
" transform="scale(0.015625)"/>
      <path id="DejaVuSans-Bold-66" d="M 2841 4863 
L 2841 4128 
L 2222 4128 
Q 1984 4128 1890 4042 
Q 1797 3956 1797 3744 
L 1797 3500 
L 2753 3500 
L 2753 2700 
L 1797 2700 
L 1797 0 
L 678 0 
L 678 2700 
L 122 2700 
L 122 3500 
L 678 3500 
L 678 3744 
Q 678 4316 997 4589 
Q 1316 4863 1984 4863 
L 2841 4863 
z
" transform="scale(0.015625)"/>
      <path id="DejaVuSans-Bold-6e" d="M 4056 2131 
L 4056 0 
L 2931 0 
L 2931 347 
L 2931 1631 
Q 2931 2084 2911 2256 
Q 2891 2428 2841 2509 
Q 2775 2619 2662 2680 
Q 2550 2741 2406 2741 
Q 2056 2741 1856 2470 
Q 1656 2200 1656 1722 
L 1656 0 
L 538 0 
L 538 3500 
L 1656 3500 
L 1656 2988 
Q 1909 3294 2193 3439 
Q 2478 3584 2822 3584 
Q 3428 3584 3742 3212 
Q 4056 2841 4056 2131 
z
" transform="scale(0.015625)"/>
      <path id="DejaVuSans-Bold-6d" d="M 3781 2919 
Q 3994 3244 4286 3414 
Q 4578 3584 4928 3584 
Q 5531 3584 5847 3212 
Q 6163 2841 6163 2131 
L 6163 0 
L 5038 0 
L 5038 1825 
Q 5041 1866 5042 1909 
Q 5044 1953 5044 2034 
Q 5044 2406 4934 2573 
Q 4825 2741 4581 2741 
Q 4263 2741 4089 2478 
Q 3916 2216 3909 1719 
L 3909 0 
L 2784 0 
L 2784 1825 
Q 2784 2406 2684 2573 
Q 2584 2741 2328 2741 
Q 2006 2741 1831 2477 
Q 1656 2213 1656 1722 
L 1656 0 
L 531 0 
L 531 3500 
L 1656 3500 
L 1656 2988 
Q 1863 3284 2130 3434 
Q 2397 3584 2719 3584 
Q 3081 3584 3359 3409 
Q 3638 3234 3781 2919 
z
" transform="scale(0.015625)"/>
     </defs>
     <use xlink:href="#DejaVuSans-Bold-56"/>
     <use xlink:href="#DejaVuSans-Bold-65" transform="translate(71.892578 0)"/>
     <use xlink:href="#DejaVuSans-Bold-6c" transform="translate(139.714844 0)"/>
     <use xlink:href="#DejaVuSans-Bold-6f" transform="translate(173.992188 0)"/>
     <use xlink:href="#DejaVuSans-Bold-63" transform="translate(242.693359 0)"/>
     <use xlink:href="#DejaVuSans-Bold-69" transform="translate(301.970703 0)"/>
     <use xlink:href="#DejaVuSans-Bold-74" transform="translate(336.248047 0)"/>
     <use xlink:href="#DejaVuSans-Bold-69" transform="translate(384.050781 0)"/>
     <use xlink:href="#DejaVuSans-Bold-65" transform="translate(418.328125 0)"/>
     <use xlink:href="#DejaVuSans-Bold-73" transform="translate(486.150391 0)"/>
     <use xlink:href="#DejaVuSans-Bold-20" transform="translate(545.671875 0)"/>
     <use xlink:href="#DejaVuSans-Bold-61" transform="translate(580.486328 0)"/>
     <use xlink:href="#DejaVuSans-Bold-74" transform="translate(647.966797 0)"/>
     <use xlink:href="#DejaVuSans-Bold-20" transform="translate(695.769531 0)"/>
     <use xlink:href="#DejaVuSans-Bold-74" transform="translate(730.583984 0)"/>
     <use xlink:href="#DejaVuSans-Bold-68" transform="translate(778.386719 0)"/>
     <use xlink:href="#DejaVuSans-Bold-65" transform="translate(849.578125 0)"/>
     <use xlink:href="#DejaVuSans-Bold-20" transform="translate(917.400391 0)"/>
     <use xlink:href="#DejaVuSans-Bold-66" transform="translate(952.214844 0)"/>
     <use xlink:href="#DejaVuSans-Bold-69" transform="translate(995.720703 0)"/>
     <use xlink:href="#DejaVuSans-Bold-6e" transform="translate(1029.998047 0)"/>
     <use xlink:href="#DejaVuSans-Bold-61" transform="translate(1101.189453 0)"/>
     <use xlink:href="#DejaVuSans-Bold-6c" transform="translate(1168.669922 0)"/>
     <use xlink:href="#DejaVuSans-Bold-20" transform="translate(1202.947266 0)"/>
     <use xlink:href="#DejaVuSans-Bold-74" transform="translate(1237.761719 0)"/>
     <use xlink:href="#DejaVuSans-Bold-69" transform="translate(1285.564453 0)"/>
     <use xlink:href="#DejaVuSans-Bold-6d" transform="translate(1319.841797 0)"/>
     <use xlink:href="#DejaVuSans-Bold-65" transform="translate(1424.041016 0)"/>
    </g>
   </g>
  </g>
 </g>
 <defs>
  <clipPath id="pd8c504e69e">
   <rect x="57.6" y="41.472" width="357.12" height="266.112"/>
  </clipPath>
 </defs>
</svg>
