<?xml version="1.0" encoding="utf-8" standalone="no"?>
<!DOCTYPE svg PUBLIC "-//W3C//DTD SVG 1.1//EN"
  "http://www.w3.org/Graphics/SVG/1.1/DTD/svg11.dtd">
<svg xmlns:xlink="http://www.w3.org/1999/xlink" width="460.8pt" height="345.6pt" viewBox="0 0 460.8 345.6" xmlns="http://www.w3.org/2000/svg" version="1.1">
 <metadata>
  <rdf:RDF xmlns:dc="http://purl.org/dc/elements/1.1/" xmlns:cc="http://creativecommons.org/ns#" xmlns:rdf="http://www.w3.org/1999/02/22-rdf-syntax-ns#">
   <cc:Work>
    <dc:type rdf:resource="http://purl.org/dc/dcmitype/StillImage"/>
    <dc:date>2025-05-05T23:08:15.705337</dc:date>
    <dc:format>image/svg+xml</dc:format>
    <dc:creator>
     <cc:Agent>
      <dc:title>Matplotlib v3.10.1, https://matplotlib.org/</dc:title>
     </cc:Agent>
    </dc:creator>
   </cc:Work>
  </rdf:RDF>
 </metadata>
 <defs>
  <style type="text/css">*{stroke-linejoin: round; stroke-linecap: butt}</style>
 </defs>
 <g id="figure_1">
  <g id="patch_1">
   <path d="M 0 345.6 
L 460.8 345.6 
L 460.8 0 
L 0 0 
z
" style="fill: #ffffff"/>
  </g>
  <g id="axes_1">
   <g id="patch_2">
    <path d="M 57.6 307.584 
L 414.72 307.584 
L 414.72 41.472 
L 57.6 41.472 
z
" style="fill: #ffffff"/>
   </g>
   <g id="Quiver_1">
    <path d="M 170.12199 208.604601 
L 176.001899 202.72586 
L 173.285595 201.820126 
L 185.057262 195.483044 
L 178.717842 207.253452 
L 177.812648 204.536969 
L 171.932739 210.41571 
L 170.12199 208.604601 
" clip-path="url(#pcab687151e)"/>
    <path d="M 210.927502 150.367818 
L 216.806188 144.489584 
L 214.089829 143.584015 
L 225.861111 137.246217 
L 219.522407 149.017011 
L 218.617047 146.300583 
L 212.738361 152.178816 
L 210.927502 150.367818 
" clip-path="url(#pcab687151e)"/>
    <path d="M 262.968603 215.424588 
L 268.850745 209.542399 
L 266.134348 208.636945 
L 277.905361 202.298648 
L 271.567156 214.069711 
L 270.661681 211.353321 
L 264.779539 217.235509 
L 262.968603 215.424588 
" clip-path="url(#pcab687151e)"/>
    <path d="M 228.400306 222.121796 
L 234.281822 216.241114 
L 231.565493 215.335457 
L 243.33698 208.99804 
L 236.997894 220.768629 
L 236.092623 218.052171 
L 230.211107 223.932853 
L 228.400306 222.121796 
" clip-path="url(#pcab687151e)"/>
    <path d="M 305.122306 85.530313 
L 311.001881 79.651633 
L 308.285556 78.745961 
L 320.057077 72.408606 
L 313.71793 84.179162 
L 312.812672 81.462699 
L 306.933097 87.341379 
L 305.122306 85.530313 
" clip-path="url(#pcab687151e)"/>
    <path d="M 289.794977 192.197539 
L 295.67638 186.313654 
L 292.959795 185.408763 
L 304.729496 179.068028 
L 298.393728 190.840403 
L 297.487691 188.124201 
L 291.606288 194.008085 
L 289.794977 192.197539 
" clip-path="url(#pcab687151e)"/>
    <path d="M 153.468532 147.764029 
L 159.347823 141.884669 
L 156.631424 140.97922 
L 168.402425 134.6409 
L 162.064243 146.411975 
L 161.158762 143.695587 
L 155.279472 149.574947 
L 153.468532 147.764029 
" clip-path="url(#pcab687151e)"/>
    <path d="M 268.195172 65.942409 
L 274.076396 60.060986 
L 271.359987 59.155568 
L 283.130918 52.817117 
L 276.792866 64.588263 
L 275.887356 61.871885 
L 270.006132 67.753308 
L 268.195172 65.942409 
" clip-path="url(#pcab687151e)"/>
    <path d="M 183.42764 121.968353 
L 189.306329 116.089096 
L 186.589892 115.183762 
L 198.360624 108.844943 
L 192.022941 120.616287 
L 191.117346 117.899937 
L 185.238657 123.779194 
L 183.42764 121.968353 
" clip-path="url(#pcab687151e)"/>
    <path d="M 193.814159 236.277945 
L 199.695301 230.397838 
L 196.978987 229.492135 
L 208.750583 223.154919 
L 202.411296 234.925399 
L 201.506071 232.208926 
L 195.624929 238.089033 
L 193.814159 236.277945 
" clip-path="url(#pcab687151e)"/>
    <path d="M 302.525472 157.810823 
L 308.406421 151.926283 
L 305.689752 151.021648 
L 317.458855 144.679805 
L 311.124196 156.452777 
L 310.217903 153.73666 
L 304.336954 159.6212 
L 302.525472 157.810823 
" clip-path="url(#pcab687151e)"/>
    <path d="M 319.33926 248.249254 
L 325.218731 242.369002 
L 322.502278 241.463718 
L 334.272894 235.124685 
L 327.935425 246.896144 
L 327.02978 244.179811 
L 321.15031 250.060063 
L 319.33926 248.249254 
" clip-path="url(#pcab687151e)"/>
    <path d="M 176.160133 78.74907 
L 182.040055 72.86863 
L 179.323621 71.963285 
L 191.09438 65.624515 
L 184.756648 77.395832 
L 183.851063 74.679479 
L 177.971142 80.559919 
L 176.160133 78.74907 
" clip-path="url(#pcab687151e)"/>
    <path d="M 169.515682 266.521224 
L 175.395236 260.640487 
L 172.678752 259.735296 
L 184.449152 253.395859 
L 178.112085 265.167536 
L 177.206347 262.451233 
L 171.326794 268.331971 
L 169.515682 266.521224 
" clip-path="url(#pcab687151e)"/>
    <path d="M 271.910886 107.488631 
L 277.787794 101.608004 
L 275.071114 100.703399 
L 286.840146 94.361424 
L 280.505619 106.134466 
L 279.599296 103.41836 
L 273.722387 109.298987 
L 271.910886 107.488631 
" clip-path="url(#pcab687151e)"/>
    <path d="M 235.30451 106.264048 
L 241.17986 100.386804 
L 238.46332 99.481777 
L 250.233336 93.141629 
L 243.896983 104.913688 
L 242.99108 102.197441 
L 237.115731 108.074685 
L 235.30451 106.264048 
" clip-path="url(#pcab687151e)"/>
    <path d="M 191.48239 179.115902 
L 197.361017 173.237262 
L 194.644623 172.3318 
L 206.415654 165.993536 
L 200.077415 177.764581 
L 199.171948 175.048189 
L 193.293321 180.926829 
L 191.48239 179.115902 
" clip-path="url(#pcab687151e)"/>
    <path d="M 142.453298 237.187262 
L 148.332474 231.307076 
L 145.616002 230.401845 
L 157.386496 224.062582 
L 151.049256 235.834165 
L 150.143558 233.117849 
L 144.264383 238.998035 
L 142.453298 237.187262 
" clip-path="url(#pcab687151e)"/>
    <path d="M 255.285725 180.66385 
L 261.165433 174.78308 
L 258.448957 173.877861 
L 270.219423 167.538546 
L 263.882235 179.310157 
L 262.976525 176.593845 
L 257.096817 182.474616 
L 255.285725 180.66385 
" clip-path="url(#pcab687151e)"/>
    <path d="M 145.502304 106.045815 
L 151.382013 100.165701 
L 148.665589 99.26033 
L 160.436409 92.921674 
L 154.098563 104.69293 
L 153.193005 101.976568 
L 147.313296 107.856682 
L 145.502304 106.045815 
" clip-path="url(#pcab687151e)"/>
    <path d="M 204.318873 56.701781 
L 210.199041 50.821372 
L 207.482629 49.915963 
L 219.253538 43.577472 
L 212.915527 55.348639 
L 212.010007 52.632264 
L 206.129839 58.512673 
L 204.318873 56.701781 
" clip-path="url(#pcab687151e)"/>
    <path d="M 201.758151 207.533872 
L 207.638814 201.654104 
L 204.92249 200.748432 
L 216.69401 194.411077 
L 210.354863 206.181633 
L 209.449605 203.46517 
L 203.568942 209.344939 
L 201.758151 207.533872 
" clip-path="url(#pcab687151e)"/>
    <path d="M 355.841758 179.604696 
L 361.720073 173.726842 
L 359.003715 172.821271 
L 370.775002 166.483482 
L 364.436289 178.254271 
L 363.530931 175.537842 
L 357.652616 181.415696 
L 355.841758 179.604696 
" clip-path="url(#pcab687151e)"/>
    <path d="M 259.715291 268.74833 
L 265.595076 262.868185 
L 262.878655 261.962803 
L 274.649499 255.624192 
L 268.311608 267.395424 
L 267.406061 264.679058 
L 261.526275 270.559204 
L 259.715291 268.74833 
" clip-path="url(#pcab687151e)"/>
    <path d="M 296.215948 125.894658 
L 302.099512 120.006116 
L 299.382736 119.1018 
L 311.151094 112.758573 
L 304.81782 124.532289 
L 303.911207 121.816279 
L 298.027642 127.704821 
L 296.215948 125.894658 
" clip-path="url(#pcab687151e)"/>
    <path d="M 238.056665 158.336369 
L 243.937245 152.455421 
L 241.220823 151.550042 
L 252.991663 145.211422 
L 246.65378 156.982658 
L 245.748231 154.266293 
L 239.867651 160.147242 
L 238.056665 158.336369 
" clip-path="url(#pcab687151e)"/>
    <path d="M 234.771257 272.152882 
L 240.650757 266.273526 
L 237.934374 265.368028 
L 249.705489 259.02992 
L 243.367095 270.800881 
L 242.461664 268.084477 
L 236.582164 273.963833 
L 234.771257 272.152882 
" clip-path="url(#pcab687151e)"/>
    <path d="M 346.613032 126.80075 
L 352.493385 120.919993 
L 349.77696 120.014622 
L 361.547781 113.675966 
L 355.209934 125.447222 
L 354.304376 122.73086 
L 348.424023 128.611617 
L 346.613032 126.80075 
" clip-path="url(#pcab687151e)"/>
    <path d="M 213.862329 77.906695 
L 219.743876 72.024933 
L 217.027466 71.119518 
L 228.798389 64.781052 
L 222.460353 76.552206 
L 221.554838 73.835829 
L 215.673291 79.717591 
L 213.862329 77.906695 
" clip-path="url(#pcab687151e)"/>
    <path d="M 137.266607 175.131311 
L 143.145997 169.25176 
L 140.429591 168.346333 
L 152.200543 162.007921 
L 145.862452 173.779045 
L 144.956951 171.062664 
L 139.077561 176.942215 
L 137.266607 175.131311 
" clip-path="url(#pcab687151e)"/>
    <path d="M 276.11934 287.842522 
L 281.999011 281.962605 
L 279.282599 281.057197 
L 291.053504 274.7187 
L 284.715499 286.48987 
L 283.809978 283.773496 
L 277.930307 289.653413 
L 276.11934 287.842522 
" clip-path="url(#pcab687151e)"/>
    <path d="M 257.427982 151.051818 
L 263.309691 145.169935 
L 260.593285 144.264511 
L 272.364229 137.926086 
L 266.026151 149.697218 
L 265.120647 146.980838 
L 259.238938 152.86272 
L 257.427982 151.051818 
" clip-path="url(#pcab687151e)"/>
    <path d="M 300.800215 277.524542 
L 306.68043 271.644135 
L 303.964022 270.738715 
L 315.734956 264.400271 
L 309.396898 276.171413 
L 308.491389 273.455034 
L 302.611174 279.335442 
L 300.800215 277.524542 
" clip-path="url(#pcab687151e)"/>
    <path d="M 315.994135 120.919858 
L 321.875765 115.043831 
L 319.159804 114.137072 
L 330.933861 107.804431 
L 324.590001 119.572447 
L 323.685831 116.855623 
L 317.8042 122.73165 
L 315.994135 120.919858 
" clip-path="url(#pcab687151e)"/>
    <path d="M 255.176181 131.755364 
L 261.055688 125.875134 
L 258.339239 124.969837 
L 270.109887 118.630862 
L 263.77236 130.40229 
L 262.866728 127.685952 
L 256.987221 133.566182 
L 255.176181 131.755364 
" clip-path="url(#pcab687151e)"/>
    <path d="M 235.135627 136.360924 
L 241.014725 130.481801 
L 238.298329 129.576343 
L 250.069354 123.238067 
L 243.731127 135.009118 
L 242.825657 132.292727 
L 236.94656 138.171849 
L 235.135627 136.360924 
" clip-path="url(#pcab687151e)"/>
    <path d="M 114.6673 184.08338 
L 120.547143 178.202903 
L 117.830701 177.297585 
L 129.601398 170.958701 
L 123.26378 182.73008 
L 122.35817 180.013735 
L 116.478326 185.894211 
L 114.6673 184.08338 
" clip-path="url(#pcab687151e)"/>
    <path d="M 222.461007 294.124864 
L 228.339748 288.245348 
L 225.623295 287.340062 
L 237.393916 281.001036 
L 231.05644 292.772491 
L 230.150796 290.056158 
L 224.272055 295.935673 
L 222.461007 294.124864 
" clip-path="url(#pcab687151e)"/>
    <path d="M 212.472427 122.351646 
L 218.349017 116.474638 
L 215.632591 115.56927 
L 227.403403 109.230599 
L 221.065572 121.001863 
L 220.16001 118.285502 
L 214.283421 124.162511 
L 212.472427 122.351646 
" clip-path="url(#pcab687151e)"/>
    <path d="M 238.416134 76.503802 
L 244.297301 70.624251 
L 241.581032 69.718413 
L 253.352941 63.381779 
L 247.013072 75.151946 
L 246.107981 72.435428 
L 240.226814 78.314979 
L 238.416134 76.503802 
" clip-path="url(#pcab687151e)"/>
    <path d="M 224.929336 174.929303 
L 230.809099 169.049654 
L 228.092714 168.144163 
L 239.863814 161.806025 
L 233.525449 173.577002 
L 232.62001 170.8606 
L 226.740248 176.740249 
L 224.929336 174.929303 
" clip-path="url(#pcab687151e)"/>
    <path d="M 333.784392 103.817949 
L 339.663493 97.937857 
L 336.947024 97.032622 
L 348.717528 90.693379 
L 342.380268 102.464951 
L 341.474575 99.748634 
L 335.595473 105.628725 
L 333.784392 103.817949 
" clip-path="url(#pcab687151e)"/>
    <path d="M 203.423171 98.419697 
L 209.301663 92.539302 
L 206.585123 91.634277 
L 218.355135 85.294121 
L 212.018789 97.066184 
L 211.112885 94.349938 
L 205.234393 100.230333 
L 203.423171 98.419697 
" clip-path="url(#pcab687151e)"/>
    <path d="M 245.444855 246.943685 
L 251.325165 241.063529 
L 248.608784 240.158029 
L 260.379905 233.819932 
L 254.041499 245.590887 
L 253.13607 242.874481 
L 247.25576 248.754637 
L 245.444855 246.943685 
" clip-path="url(#pcab687151e)"/>
    <path d="M 345.517847 226.823771 
L 351.397263 220.944219 
L 348.680859 220.038786 
L 360.451824 213.700399 
L 354.113709 225.47151 
L 353.208213 222.755127 
L 347.328796 228.634679 
L 345.517847 226.823771 
" clip-path="url(#pcab687151e)"/>
    <path d="M 233.023531 52.662523 
L 238.903275 46.782943 
L 236.186895 45.877441 
L 247.958021 39.539354 
L 241.619605 51.310303 
L 240.714179 48.593897 
L 234.834435 54.473477 
L 233.023531 52.662523 
" clip-path="url(#pcab687151e)"/>
    <path d="M 215.710445 192.606834 
L 221.590112 186.727049 
L 218.873709 185.821611 
L 230.644684 179.483242 
L 224.306551 191.254344 
L 223.401059 188.53796 
L 217.521392 194.417744 
L 215.710445 192.606834 
" clip-path="url(#pcab687151e)"/>
    <path d="M 196.178579 289.627127 
L 202.056996 283.747321 
L 199.340496 282.842177 
L 211.110784 276.502535 
L 204.773924 288.274322 
L 203.868139 285.558036 
L 197.989722 291.437842 
L 196.178579 289.627127 
" clip-path="url(#pcab687151e)"/>
    <path d="M 350.066036 202.120999 
L 355.94396 196.242677 
L 353.227536 195.337305 
L 364.99836 188.998656 
L 358.660506 200.769908 
L 357.75495 198.053545 
L 351.877026 203.931866 
L 350.066036 202.120999 
" clip-path="url(#pcab687151e)"/>
    <path d="M 328.923797 143.092807 
L 334.806272 137.216697 
L 332.090369 136.309762 
L 343.864837 129.977885 
L 337.520214 141.74549 
L 336.61622 139.028606 
L 330.733745 144.904716 
L 328.923797 143.092807 
" clip-path="url(#pcab687151e)"/>
    <path d="M 325.047191 210.58559 
L 330.924336 204.708094 
L 328.207916 203.80271 
L 339.978765 197.464107 
L 333.640865 209.235335 
L 332.73532 206.518968 
L 326.858174 212.396465 
L 325.047191 210.58559 
" clip-path="url(#pcab687151e)"/>
    <path d="M 266.839943 244.47786 
L 272.719936 238.596714 
L 270.003454 237.691516 
L 281.773872 231.352112 
L 275.436773 243.123771 
L 274.531043 240.407466 
L 268.651049 246.288612 
L 266.839943 244.47786 
" clip-path="url(#pcab687151e)"/>
    <path d="M 117.102274 156.518935 
L 122.982127 150.638518 
L 120.26569 149.733184 
L 132.036424 143.394368 
L 125.698737 155.16571 
L 124.793142 152.44936 
L 118.91329 158.329778 
L 117.102274 156.518935 
" clip-path="url(#pcab687151e)"/>
    <path d="M 235.107427 196.130599 
L 240.987402 190.250703 
L 238.271015 189.34522 
L 250.042095 183.007048 
L 243.703765 194.778044 
L 242.798319 192.061644 
L 236.918344 197.94154 
L 235.107427 196.130599 
" clip-path="url(#pcab687151e)"/>
    <path d="M 354.041928 153.249793 
L 359.922064 147.371809 
L 357.205837 146.465847 
L 368.978034 140.12975 
L 362.637629 151.899628 
L 361.732662 149.183069 
L 355.852526 155.061053 
L 354.041928 153.249793 
" clip-path="url(#pcab687151e)"/>
    <path d="M 181.69538 152.978462 
L 187.574595 147.099211 
L 184.858199 146.193755 
L 196.629218 139.855468 
L 190.291003 151.626525 
L 189.38553 148.910134 
L 183.506314 154.789385 
L 181.69538 152.978462 
" clip-path="url(#pcab687151e)"/>
    <path d="M 222.430504 251.892108 
L 228.310961 246.012105 
L 225.594602 245.106536 
L 237.365885 238.768739 
L 231.027179 250.539532 
L 230.12182 247.823104 
L 224.241363 253.703106 
L 222.430504 251.892108 
" clip-path="url(#pcab687151e)"/>
    <path d="M 161.750673 178.124631 
L 167.629729 172.245713 
L 164.913346 171.340217 
L 176.684459 165.002104 
L 170.346069 176.773067 
L 169.440637 174.056663 
L 163.561581 179.935581 
L 161.750673 178.124631 
" clip-path="url(#pcab687151e)"/>
    <path d="M 332.773776 170.672028 
L 338.649411 164.79701 
L 335.933065 163.891403 
L 347.704436 157.55377 
L 341.365567 169.324475 
L 340.460245 166.608034 
L 334.58461 172.483052 
L 332.773776 170.672028 
" clip-path="url(#pcab687151e)"/>
    <path d="M 122.44667 131.793559 
L 128.326655 125.913189 
L 125.610232 125.007813 
L 137.381062 118.669176 
L 131.043197 130.440422 
L 130.137643 127.724058 
L 124.257659 133.604429 
L 122.44667 131.793559 
" clip-path="url(#pcab687151e)"/>
    <path d="M 320.559156 188.844688 
L 326.436309 182.966764 
L 323.719856 182.061478 
L 335.490479 175.722455 
L 329.152999 187.493909 
L 328.247357 184.777575 
L 322.370204 190.655498 
L 320.559156 188.844688 
" clip-path="url(#pcab687151e)"/>
    <path d="M 119.867432 211.471042 
L 125.747487 205.589911 
L 123.031011 204.684695 
L 134.801469 198.345367 
L 128.464294 210.116985 
L 127.558581 207.400674 
L 121.678526 213.281805 
L 119.867432 211.471042 
" clip-path="url(#pcab687151e)"/>
    <path d="M 140.854345 198.764667 
L 146.735108 192.884301 
L 144.018746 191.978745 
L 155.789998 185.640891 
L 149.451349 197.411715 
L 148.545976 194.695291 
L 142.665213 200.575657 
L 140.854345 198.764667 
" clip-path="url(#pcab687151e)"/>
    <path d="M 303.184917 217.69964 
L 309.062139 211.819279 
L 306.345505 210.91454 
L 318.114851 204.573147 
L 311.779741 216.345876 
L 310.873552 213.629725 
L 304.996329 219.510085 
L 303.184917 217.69964 
" clip-path="url(#pcab687151e)"/>
    <path d="M 277.648401 138.975107 
L 283.53123 133.090667 
L 280.814712 132.185574 
L 292.584882 125.84571 
L 286.248243 137.617617 
L 285.342407 134.901347 
L 279.459578 140.785788 
L 277.648401 138.975107 
" clip-path="url(#pcab687151e)"/>
    <path d="M 275.295413 162.452117 
L 281.175767 156.570171 
L 278.459252 155.665074 
L 290.229431 149.325229 
L 283.892774 161.097125 
L 282.986941 158.380854 
L 277.106587 164.262801 
L 275.295413 162.452117 
" clip-path="url(#pcab687151e)"/>
    <path d="M 206.616439 268.285575 
L 212.495969 262.40605 
L 209.779576 261.500584 
L 221.550616 255.162337 
L 215.21236 266.933373 
L 214.306897 264.216979 
L 208.427368 270.096504 
L 206.616439 268.285575 
" clip-path="url(#pcab687151e)"/>
    <path d="M 285.035 258.757733 
L 290.913703 252.878679 
L 288.197282 251.973296 
L 299.968131 245.634692 
L 293.630232 257.40592 
L 292.724686 254.689554 
L 286.845984 260.568608 
L 285.035 258.757733 
" clip-path="url(#pcab687151e)"/>
    <path d="M 288.029862 232.636434 
L 293.9096 226.757246 
L 291.193249 225.851654 
L 302.964583 219.513954 
L 296.625781 231.284695 
L 295.720444 228.56826 
L 289.840706 234.447447 
L 288.029862 232.636434 
" clip-path="url(#pcab687151e)"/>
    <path d="M 249.789413 294.582566 
L 255.668846 288.702743 
L 252.952423 287.797369 
L 264.723251 281.458728 
L 258.385389 293.229976 
L 257.479835 290.513612 
L 251.600402 296.393434 
L 249.789413 294.582566 
" clip-path="url(#pcab687151e)"/>
   </g>
   <g id="matplotlib.axis_1">
    <g id="xtick_1">
     <g id="line2d_1">
      <defs>
       <path id="m4568e7cebf" d="M 0 0 
L 0 3.5 
" style="stroke: #000000; stroke-width: 0.8"/>
      </defs>
      <g>
       <use xlink:href="#m4568e7cebf" x="109.498012" y="307.584" style="stroke: #000000; stroke-width: 0.8"/>
      </g>
     </g>
     <g id="text_1">
      <!-- 85.0 -->
      <g transform="translate(96.138637 323.702125) scale(0.12 -0.12)">
       <defs>
        <path id="DejaVuSans-38" d="M 2034 2216 
Q 1584 2216 1326 1975 
Q 1069 1734 1069 1313 
Q 1069 891 1326 650 
Q 1584 409 2034 409 
Q 2484 409 2743 651 
Q 3003 894 3003 1313 
Q 3003 1734 2745 1975 
Q 2488 2216 2034 2216 
z
M 1403 2484 
Q 997 2584 770 2862 
Q 544 3141 544 3541 
Q 544 4100 942 4425 
Q 1341 4750 2034 4750 
Q 2731 4750 3128 4425 
Q 3525 4100 3525 3541 
Q 3525 3141 3298 2862 
Q 3072 2584 2669 2484 
Q 3125 2378 3379 2068 
Q 3634 1759 3634 1313 
Q 3634 634 3220 271 
Q 2806 -91 2034 -91 
Q 1263 -91 848 271 
Q 434 634 434 1313 
Q 434 1759 690 2068 
Q 947 2378 1403 2484 
z
M 1172 3481 
Q 1172 3119 1398 2916 
Q 1625 2713 2034 2713 
Q 2441 2713 2670 2916 
Q 2900 3119 2900 3481 
Q 2900 3844 2670 4047 
Q 2441 4250 2034 4250 
Q 1625 4250 1398 4047 
Q 1172 3844 1172 3481 
z
" transform="scale(0.015625)"/>
        <path id="DejaVuSans-35" d="M 691 4666 
L 3169 4666 
L 3169 4134 
L 1269 4134 
L 1269 2991 
Q 1406 3038 1543 3061 
Q 1681 3084 1819 3084 
Q 2600 3084 3056 2656 
Q 3513 2228 3513 1497 
Q 3513 744 3044 326 
Q 2575 -91 1722 -91 
Q 1428 -91 1123 -41 
Q 819 9 494 109 
L 494 744 
Q 775 591 1075 516 
Q 1375 441 1709 441 
Q 2250 441 2565 725 
Q 2881 1009 2881 1497 
Q 2881 1984 2565 2268 
Q 2250 2553 1709 2553 
Q 1456 2553 1204 2497 
Q 953 2441 691 2322 
L 691 4666 
z
" transform="scale(0.015625)"/>
        <path id="DejaVuSans-2e" d="M 684 794 
L 1344 794 
L 1344 0 
L 684 0 
L 684 794 
z
" transform="scale(0.015625)"/>
        <path id="DejaVuSans-30" d="M 2034 4250 
Q 1547 4250 1301 3770 
Q 1056 3291 1056 2328 
Q 1056 1369 1301 889 
Q 1547 409 2034 409 
Q 2525 409 2770 889 
Q 3016 1369 3016 2328 
Q 3016 3291 2770 3770 
Q 2525 4250 2034 4250 
z
M 2034 4750 
Q 2819 4750 3233 4129 
Q 3647 3509 3647 2328 
Q 3647 1150 3233 529 
Q 2819 -91 2034 -91 
Q 1250 -91 836 529 
Q 422 1150 422 2328 
Q 422 3509 836 4129 
Q 1250 4750 2034 4750 
z
" transform="scale(0.015625)"/>
       </defs>
       <use xlink:href="#DejaVuSans-38"/>
       <use xlink:href="#DejaVuSans-35" transform="translate(63.623047 0)"/>
       <use xlink:href="#DejaVuSans-2e" transform="translate(127.246094 0)"/>
       <use xlink:href="#DejaVuSans-30" transform="translate(159.033203 0)"/>
      </g>
     </g>
    </g>
    <g id="xtick_2">
     <g id="line2d_2">
      <g>
       <use xlink:href="#m4568e7cebf" x="172.531989" y="307.584" style="stroke: #000000; stroke-width: 0.8"/>
      </g>
     </g>
     <g id="text_2">
      <!-- 85.5 -->
      <g transform="translate(159.172614 323.702125) scale(0.12 -0.12)">
       <use xlink:href="#DejaVuSans-38"/>
       <use xlink:href="#DejaVuSans-35" transform="translate(63.623047 0)"/>
       <use xlink:href="#DejaVuSans-2e" transform="translate(127.246094 0)"/>
       <use xlink:href="#DejaVuSans-35" transform="translate(159.033203 0)"/>
      </g>
     </g>
    </g>
    <g id="xtick_3">
     <g id="line2d_3">
      <g>
       <use xlink:href="#m4568e7cebf" x="235.565966" y="307.584" style="stroke: #000000; stroke-width: 0.8"/>
      </g>
     </g>
     <g id="text_3">
      <!-- 86.0 -->
      <g transform="translate(222.206591 323.702125) scale(0.12 -0.12)">
       <defs>
        <path id="DejaVuSans-36" d="M 2113 2584 
Q 1688 2584 1439 2293 
Q 1191 2003 1191 1497 
Q 1191 994 1439 701 
Q 1688 409 2113 409 
Q 2538 409 2786 701 
Q 3034 994 3034 1497 
Q 3034 2003 2786 2293 
Q 2538 2584 2113 2584 
z
M 3366 4563 
L 3366 3988 
Q 3128 4100 2886 4159 
Q 2644 4219 2406 4219 
Q 1781 4219 1451 3797 
Q 1122 3375 1075 2522 
Q 1259 2794 1537 2939 
Q 1816 3084 2150 3084 
Q 2853 3084 3261 2657 
Q 3669 2231 3669 1497 
Q 3669 778 3244 343 
Q 2819 -91 2113 -91 
Q 1303 -91 875 529 
Q 447 1150 447 2328 
Q 447 3434 972 4092 
Q 1497 4750 2381 4750 
Q 2619 4750 2861 4703 
Q 3103 4656 3366 4563 
z
" transform="scale(0.015625)"/>
       </defs>
       <use xlink:href="#DejaVuSans-38"/>
       <use xlink:href="#DejaVuSans-36" transform="translate(63.623047 0)"/>
       <use xlink:href="#DejaVuSans-2e" transform="translate(127.246094 0)"/>
       <use xlink:href="#DejaVuSans-30" transform="translate(159.033203 0)"/>
      </g>
     </g>
    </g>
    <g id="xtick_4">
     <g id="line2d_4">
      <g>
       <use xlink:href="#m4568e7cebf" x="298.599943" y="307.584" style="stroke: #000000; stroke-width: 0.8"/>
      </g>
     </g>
     <g id="text_4">
      <!-- 86.5 -->
      <g transform="translate(285.240568 323.702125) scale(0.12 -0.12)">
       <use xlink:href="#DejaVuSans-38"/>
       <use xlink:href="#DejaVuSans-36" transform="translate(63.623047 0)"/>
       <use xlink:href="#DejaVuSans-2e" transform="translate(127.246094 0)"/>
       <use xlink:href="#DejaVuSans-35" transform="translate(159.033203 0)"/>
      </g>
     </g>
    </g>
    <g id="xtick_5">
     <g id="line2d_5">
      <g>
       <use xlink:href="#m4568e7cebf" x="361.63392" y="307.584" style="stroke: #000000; stroke-width: 0.8"/>
      </g>
     </g>
     <g id="text_5">
      <!-- 87.0 -->
      <g transform="translate(348.274545 323.702125) scale(0.12 -0.12)">
       <defs>
        <path id="DejaVuSans-37" d="M 525 4666 
L 3525 4666 
L 3525 4397 
L 1831 0 
L 1172 0 
L 2766 4134 
L 525 4134 
L 525 4666 
z
" transform="scale(0.015625)"/>
       </defs>
       <use xlink:href="#DejaVuSans-38"/>
       <use xlink:href="#DejaVuSans-37" transform="translate(63.623047 0)"/>
       <use xlink:href="#DejaVuSans-2e" transform="translate(127.246094 0)"/>
       <use xlink:href="#DejaVuSans-30" transform="translate(159.033203 0)"/>
      </g>
     </g>
    </g>
    <g id="text_6">
     <!-- x -->
     <g transform="translate(232.016875 340.835562) scale(0.14 -0.14)">
      <defs>
       <path id="DejaVuSans-78" d="M 3513 3500 
L 2247 1797 
L 3578 0 
L 2900 0 
L 1881 1375 
L 863 0 
L 184 0 
L 1544 1831 
L 300 3500 
L 978 3500 
L 1906 2253 
L 2834 3500 
L 3513 3500 
z
" transform="scale(0.015625)"/>
      </defs>
      <use xlink:href="#DejaVuSans-78"/>
     </g>
    </g>
   </g>
   <g id="matplotlib.axis_2">
    <g id="ytick_1">
     <g id="line2d_6">
      <defs>
       <path id="ma4398cada3" d="M 0 0 
L -3.5 0 
" style="stroke: #000000; stroke-width: 0.8"/>
      </defs>
      <g>
       <use xlink:href="#ma4398cada3" x="57.6" y="307.537192" style="stroke: #000000; stroke-width: 0.8"/>
      </g>
     </g>
     <g id="text_7">
      <!-- 88.50 -->
      <g transform="translate(16.24625 312.096255) scale(0.12 -0.12)">
       <use xlink:href="#DejaVuSans-38"/>
       <use xlink:href="#DejaVuSans-38" transform="translate(63.623047 0)"/>
       <use xlink:href="#DejaVuSans-2e" transform="translate(127.246094 0)"/>
       <use xlink:href="#DejaVuSans-35" transform="translate(159.033203 0)"/>
       <use xlink:href="#DejaVuSans-30" transform="translate(222.65625 0)"/>
      </g>
     </g>
    </g>
    <g id="ytick_2">
     <g id="line2d_7">
      <g>
       <use xlink:href="#ma4398cada3" x="57.6" y="276.020204" style="stroke: #000000; stroke-width: 0.8"/>
      </g>
     </g>
     <g id="text_8">
      <!-- 88.75 -->
      <g transform="translate(16.24625 280.579266) scale(0.12 -0.12)">
       <use xlink:href="#DejaVuSans-38"/>
       <use xlink:href="#DejaVuSans-38" transform="translate(63.623047 0)"/>
       <use xlink:href="#DejaVuSans-2e" transform="translate(127.246094 0)"/>
       <use xlink:href="#DejaVuSans-37" transform="translate(159.033203 0)"/>
       <use xlink:href="#DejaVuSans-35" transform="translate(222.65625 0)"/>
      </g>
     </g>
    </g>
    <g id="ytick_3">
     <g id="line2d_8">
      <g>
       <use xlink:href="#ma4398cada3" x="57.6" y="244.503215" style="stroke: #000000; stroke-width: 0.8"/>
      </g>
     </g>
     <g id="text_9">
      <!-- 89.00 -->
      <g transform="translate(16.24625 249.062278) scale(0.12 -0.12)">
       <defs>
        <path id="DejaVuSans-39" d="M 703 97 
L 703 672 
Q 941 559 1184 500 
Q 1428 441 1663 441 
Q 2288 441 2617 861 
Q 2947 1281 2994 2138 
Q 2813 1869 2534 1725 
Q 2256 1581 1919 1581 
Q 1219 1581 811 2004 
Q 403 2428 403 3163 
Q 403 3881 828 4315 
Q 1253 4750 1959 4750 
Q 2769 4750 3195 4129 
Q 3622 3509 3622 2328 
Q 3622 1225 3098 567 
Q 2575 -91 1691 -91 
Q 1453 -91 1209 -44 
Q 966 3 703 97 
z
M 1959 2075 
Q 2384 2075 2632 2365 
Q 2881 2656 2881 3163 
Q 2881 3666 2632 3958 
Q 2384 4250 1959 4250 
Q 1534 4250 1286 3958 
Q 1038 3666 1038 3163 
Q 1038 2656 1286 2365 
Q 1534 2075 1959 2075 
z
" transform="scale(0.015625)"/>
       </defs>
       <use xlink:href="#DejaVuSans-38"/>
       <use xlink:href="#DejaVuSans-39" transform="translate(63.623047 0)"/>
       <use xlink:href="#DejaVuSans-2e" transform="translate(127.246094 0)"/>
       <use xlink:href="#DejaVuSans-30" transform="translate(159.033203 0)"/>
       <use xlink:href="#DejaVuSans-30" transform="translate(222.65625 0)"/>
      </g>
     </g>
    </g>
    <g id="ytick_4">
     <g id="line2d_9">
      <g>
       <use xlink:href="#ma4398cada3" x="57.6" y="212.986227" style="stroke: #000000; stroke-width: 0.8"/>
      </g>
     </g>
     <g id="text_10">
      <!-- 89.25 -->
      <g transform="translate(16.24625 217.545289) scale(0.12 -0.12)">
       <defs>
        <path id="DejaVuSans-32" d="M 1228 531 
L 3431 531 
L 3431 0 
L 469 0 
L 469 531 
Q 828 903 1448 1529 
Q 2069 2156 2228 2338 
Q 2531 2678 2651 2914 
Q 2772 3150 2772 3378 
Q 2772 3750 2511 3984 
Q 2250 4219 1831 4219 
Q 1534 4219 1204 4116 
Q 875 4013 500 3803 
L 500 4441 
Q 881 4594 1212 4672 
Q 1544 4750 1819 4750 
Q 2544 4750 2975 4387 
Q 3406 4025 3406 3419 
Q 3406 3131 3298 2873 
Q 3191 2616 2906 2266 
Q 2828 2175 2409 1742 
Q 1991 1309 1228 531 
z
" transform="scale(0.015625)"/>
       </defs>
       <use xlink:href="#DejaVuSans-38"/>
       <use xlink:href="#DejaVuSans-39" transform="translate(63.623047 0)"/>
       <use xlink:href="#DejaVuSans-2e" transform="translate(127.246094 0)"/>
       <use xlink:href="#DejaVuSans-32" transform="translate(159.033203 0)"/>
       <use xlink:href="#DejaVuSans-35" transform="translate(222.65625 0)"/>
      </g>
     </g>
    </g>
    <g id="ytick_5">
     <g id="line2d_10">
      <g>
       <use xlink:href="#ma4398cada3" x="57.6" y="181.469238" style="stroke: #000000; stroke-width: 0.8"/>
      </g>
     </g>
     <g id="text_11">
      <!-- 89.50 -->
      <g transform="translate(16.24625 186.028301) scale(0.12 -0.12)">
       <use xlink:href="#DejaVuSans-38"/>
       <use xlink:href="#DejaVuSans-39" transform="translate(63.623047 0)"/>
       <use xlink:href="#DejaVuSans-2e" transform="translate(127.246094 0)"/>
       <use xlink:href="#DejaVuSans-35" transform="translate(159.033203 0)"/>
       <use xlink:href="#DejaVuSans-30" transform="translate(222.65625 0)"/>
      </g>
     </g>
    </g>
    <g id="ytick_6">
     <g id="line2d_11">
      <g>
       <use xlink:href="#ma4398cada3" x="57.6" y="149.95225" style="stroke: #000000; stroke-width: 0.8"/>
      </g>
     </g>
     <g id="text_12">
      <!-- 89.75 -->
      <g transform="translate(16.24625 154.511312) scale(0.12 -0.12)">
       <use xlink:href="#DejaVuSans-38"/>
       <use xlink:href="#DejaVuSans-39" transform="translate(63.623047 0)"/>
       <use xlink:href="#DejaVuSans-2e" transform="translate(127.246094 0)"/>
       <use xlink:href="#DejaVuSans-37" transform="translate(159.033203 0)"/>
       <use xlink:href="#DejaVuSans-35" transform="translate(222.65625 0)"/>
      </g>
     </g>
    </g>
    <g id="ytick_7">
     <g id="line2d_12">
      <g>
       <use xlink:href="#ma4398cada3" x="57.6" y="118.435261" style="stroke: #000000; stroke-width: 0.8"/>
      </g>
     </g>
     <g id="text_13">
      <!-- 90.00 -->
      <g transform="translate(16.24625 122.994324) scale(0.12 -0.12)">
       <use xlink:href="#DejaVuSans-39"/>
       <use xlink:href="#DejaVuSans-30" transform="translate(63.623047 0)"/>
       <use xlink:href="#DejaVuSans-2e" transform="translate(127.246094 0)"/>
       <use xlink:href="#DejaVuSans-30" transform="translate(159.033203 0)"/>
       <use xlink:href="#DejaVuSans-30" transform="translate(222.65625 0)"/>
      </g>
     </g>
    </g>
    <g id="ytick_8">
     <g id="line2d_13">
      <g>
       <use xlink:href="#ma4398cada3" x="57.6" y="86.918273" style="stroke: #000000; stroke-width: 0.8"/>
      </g>
     </g>
     <g id="text_14">
      <!-- 90.25 -->
      <g transform="translate(16.24625 91.477335) scale(0.12 -0.12)">
       <use xlink:href="#DejaVuSans-39"/>
       <use xlink:href="#DejaVuSans-30" transform="translate(63.623047 0)"/>
       <use xlink:href="#DejaVuSans-2e" transform="translate(127.246094 0)"/>
       <use xlink:href="#DejaVuSans-32" transform="translate(159.033203 0)"/>
       <use xlink:href="#DejaVuSans-35" transform="translate(222.65625 0)"/>
      </g>
     </g>
    </g>
    <g id="ytick_9">
     <g id="line2d_14">
      <g>
       <use xlink:href="#ma4398cada3" x="57.6" y="55.401285" style="stroke: #000000; stroke-width: 0.8"/>
      </g>
     </g>
     <g id="text_15">
      <!-- 90.50 -->
      <g transform="translate(16.24625 59.960347) scale(0.12 -0.12)">
       <use xlink:href="#DejaVuSans-39"/>
       <use xlink:href="#DejaVuSans-30" transform="translate(63.623047 0)"/>
       <use xlink:href="#DejaVuSans-2e" transform="translate(127.246094 0)"/>
       <use xlink:href="#DejaVuSans-35" transform="translate(159.033203 0)"/>
       <use xlink:href="#DejaVuSans-30" transform="translate(222.65625 0)"/>
      </g>
     </g>
    </g>
    <g id="text_16">
     <!-- y -->
     <g transform="translate(9.334688 178.671125) rotate(-90) scale(0.14 -0.14)">
      <defs>
       <path id="DejaVuSans-79" d="M 2059 -325 
Q 1816 -950 1584 -1140 
Q 1353 -1331 966 -1331 
L 506 -1331 
L 506 -850 
L 844 -850 
Q 1081 -850 1212 -737 
Q 1344 -625 1503 -206 
L 1606 56 
L 191 3500 
L 800 3500 
L 1894 763 
L 2988 3500 
L 3597 3500 
L 2059 -325 
z
" transform="scale(0.015625)"/>
      </defs>
      <use xlink:href="#DejaVuSans-79"/>
     </g>
    </g>
   </g>
   <g id="line2d_15">
    <defs>
     <path id="md3dbda71e7" d="M 0 3 
C 0.795609 3 1.55874 2.683901 2.12132 2.12132 
C 2.683901 1.55874 3 0.795609 3 0 
C 3 -0.795609 2.683901 -1.55874 2.12132 -2.12132 
C 1.55874 -2.683901 0.795609 -3 0 -3 
C -0.795609 -3 -1.55874 -2.683901 -2.12132 -2.12132 
C -2.683901 -1.55874 -3 -0.795609 -3 0 
C -3 0.795609 -2.683901 1.55874 -2.12132 2.12132 
C -1.55874 2.683901 -0.795609 3 0 3 
z
" style="stroke: #0000ff"/>
    </defs>
    <g clip-path="url(#pcab687151e)">
     <use xlink:href="#md3dbda71e7" x="171.027365" y="209.510155" style="fill: #0000ff; stroke: #0000ff"/>
     <use xlink:href="#md3dbda71e7" x="211.832931" y="151.273317" style="fill: #0000ff; stroke: #0000ff"/>
     <use xlink:href="#md3dbda71e7" x="263.874071" y="216.330049" style="fill: #0000ff; stroke: #0000ff"/>
     <use xlink:href="#md3dbda71e7" x="229.305707" y="223.027324" style="fill: #0000ff; stroke: #0000ff"/>
     <use xlink:href="#md3dbda71e7" x="306.027702" y="86.435846" style="fill: #0000ff; stroke: #0000ff"/>
     <use xlink:href="#md3dbda71e7" x="290.700633" y="193.102812" style="fill: #0000ff; stroke: #0000ff"/>
     <use xlink:href="#md3dbda71e7" x="154.374002" y="148.669488" style="fill: #0000ff; stroke: #0000ff"/>
     <use xlink:href="#md3dbda71e7" x="269.100652" y="66.847858" style="fill: #0000ff; stroke: #0000ff"/>
     <use xlink:href="#md3dbda71e7" x="184.333148" y="122.873773" style="fill: #0000ff; stroke: #0000ff"/>
     <use xlink:href="#md3dbda71e7" x="194.719544" y="237.183489" style="fill: #0000ff; stroke: #0000ff"/>
     <use xlink:href="#md3dbda71e7" x="303.431213" y="158.716011" style="fill: #0000ff; stroke: #0000ff"/>
     <use xlink:href="#md3dbda71e7" x="320.244785" y="249.154659" style="fill: #0000ff; stroke: #0000ff"/>
     <use xlink:href="#md3dbda71e7" x="177.065637" y="79.654495" style="fill: #0000ff; stroke: #0000ff"/>
     <use xlink:href="#md3dbda71e7" x="170.421238" y="267.426598" style="fill: #0000ff; stroke: #0000ff"/>
     <use xlink:href="#md3dbda71e7" x="272.816636" y="108.393809" style="fill: #0000ff; stroke: #0000ff"/>
     <use xlink:href="#md3dbda71e7" x="236.21012" y="107.169366" style="fill: #0000ff; stroke: #0000ff"/>
     <use xlink:href="#md3dbda71e7" x="192.387855" y="180.021365" style="fill: #0000ff; stroke: #0000ff"/>
     <use xlink:href="#md3dbda71e7" x="143.358841" y="238.092649" style="fill: #0000ff; stroke: #0000ff"/>
     <use xlink:href="#md3dbda71e7" x="256.191271" y="181.569233" style="fill: #0000ff; stroke: #0000ff"/>
     <use xlink:href="#md3dbda71e7" x="146.4078" y="106.951249" style="fill: #0000ff; stroke: #0000ff"/>
    </g>
   </g>
   <g id="line2d_16">
    <defs>
     <path id="mdb65360d40" d="M 0 3 
C 0.795609 3 1.55874 2.683901 2.12132 2.12132 
C 2.683901 1.55874 3 0.795609 3 0 
C 3 -0.795609 2.683901 -1.55874 2.12132 -2.12132 
C 1.55874 -2.683901 0.795609 -3 0 -3 
C -0.795609 -3 -1.55874 -2.683901 -2.12132 -2.12132 
C -2.683901 -1.55874 -3 -0.795609 -3 0 
C -3 0.795609 -2.683901 1.55874 -2.12132 2.12132 
C -1.55874 2.683901 -0.795609 3 0 3 
z
" style="stroke: #ff0000"/>
    </defs>
    <g clip-path="url(#pcab687151e)">
     <use xlink:href="#mdb65360d40" x="205.224356" y="57.607227" style="fill: #ff0000; stroke: #ff0000"/>
     <use xlink:href="#mdb65360d40" x="202.663546" y="208.439405" style="fill: #ff0000; stroke: #ff0000"/>
     <use xlink:href="#mdb65360d40" x="356.747187" y="180.510196" style="fill: #ff0000; stroke: #ff0000"/>
     <use xlink:href="#mdb65360d40" x="260.620783" y="269.653767" style="fill: #ff0000; stroke: #ff0000"/>
     <use xlink:href="#mdb65360d40" x="297.121795" y="126.799739" style="fill: #ff0000; stroke: #ff0000"/>
     <use xlink:href="#mdb65360d40" x="238.962158" y="159.241805" style="fill: #ff0000; stroke: #ff0000"/>
     <use xlink:href="#mdb65360d40" x="235.676711" y="273.058358" style="fill: #ff0000; stroke: #ff0000"/>
     <use xlink:href="#mdb65360d40" x="347.518527" y="127.706184" style="fill: #ff0000; stroke: #ff0000"/>
     <use xlink:href="#mdb65360d40" x="214.76781" y="78.812143" style="fill: #ff0000; stroke: #ff0000"/>
     <use xlink:href="#mdb65360d40" x="138.172084" y="176.036763" style="fill: #ff0000; stroke: #ff0000"/>
     <use xlink:href="#mdb65360d40" x="277.024824" y="288.747968" style="fill: #ff0000; stroke: #ff0000"/>
     <use xlink:href="#mdb65360d40" x="258.33346" y="151.957269" style="fill: #ff0000; stroke: #ff0000"/>
     <use xlink:href="#mdb65360d40" x="301.705695" y="278.429992" style="fill: #ff0000; stroke: #ff0000"/>
     <use xlink:href="#mdb65360d40" x="316.899168" y="121.825754" style="fill: #ff0000; stroke: #ff0000"/>
     <use xlink:href="#mdb65360d40" x="256.081701" y="132.660773" style="fill: #ff0000; stroke: #ff0000"/>
     <use xlink:href="#mdb65360d40" x="236.041093" y="137.266386" style="fill: #ff0000; stroke: #ff0000"/>
     <use xlink:href="#mdb65360d40" x="115.572813" y="184.988795" style="fill: #ff0000; stroke: #ff0000"/>
     <use xlink:href="#mdb65360d40" x="223.366531" y="295.030269" style="fill: #ff0000; stroke: #ff0000"/>
     <use xlink:href="#mdb65360d40" x="213.377924" y="123.257079" style="fill: #ff0000; stroke: #ff0000"/>
     <use xlink:href="#mdb65360d40" x="239.321474" y="77.40939" style="fill: #ff0000; stroke: #ff0000"/>
     <use xlink:href="#mdb65360d40" x="225.834792" y="175.834776" style="fill: #ff0000; stroke: #ff0000"/>
     <use xlink:href="#mdb65360d40" x="334.689933" y="104.723337" style="fill: #ff0000; stroke: #ff0000"/>
     <use xlink:href="#mdb65360d40" x="204.328782" y="99.325015" style="fill: #ff0000; stroke: #ff0000"/>
     <use xlink:href="#mdb65360d40" x="246.350308" y="247.849161" style="fill: #ff0000; stroke: #ff0000"/>
     <use xlink:href="#mdb65360d40" x="346.423322" y="227.729225" style="fill: #ff0000; stroke: #ff0000"/>
     <use xlink:href="#mdb65360d40" x="233.928983" y="53.568" style="fill: #ff0000; stroke: #ff0000"/>
     <use xlink:href="#mdb65360d40" x="216.615918" y="193.512289" style="fill: #ff0000; stroke: #ff0000"/>
     <use xlink:href="#mdb65360d40" x="197.084151" y="290.532485" style="fill: #ff0000; stroke: #ff0000"/>
     <use xlink:href="#mdb65360d40" x="350.971531" y="203.026432" style="fill: #ff0000; stroke: #ff0000"/>
     <use xlink:href="#mdb65360d40" x="329.828771" y="143.998761" style="fill: #ff0000; stroke: #ff0000"/>
     <use xlink:href="#mdb65360d40" x="325.952683" y="211.491028" style="fill: #ff0000; stroke: #ff0000"/>
     <use xlink:href="#mdb65360d40" x="267.745496" y="245.383236" style="fill: #ff0000; stroke: #ff0000"/>
     <use xlink:href="#mdb65360d40" x="118.007782" y="157.424356" style="fill: #ff0000; stroke: #ff0000"/>
     <use xlink:href="#mdb65360d40" x="236.012885" y="197.03607" style="fill: #ff0000; stroke: #ff0000"/>
     <use xlink:href="#mdb65360d40" x="354.947227" y="154.155423" style="fill: #ff0000; stroke: #ff0000"/>
     <use xlink:href="#mdb65360d40" x="182.600847" y="153.883924" style="fill: #ff0000; stroke: #ff0000"/>
     <use xlink:href="#mdb65360d40" x="223.335934" y="252.797607" style="fill: #ff0000; stroke: #ff0000"/>
     <use xlink:href="#mdb65360d40" x="162.656127" y="179.030106" style="fill: #ff0000; stroke: #ff0000"/>
     <use xlink:href="#mdb65360d40" x="333.679193" y="171.57754" style="fill: #ff0000; stroke: #ff0000"/>
     <use xlink:href="#mdb65360d40" x="123.352164" y="132.698994" style="fill: #ff0000; stroke: #ff0000"/>
     <use xlink:href="#mdb65360d40" x="321.46468" y="189.750093" style="fill: #ff0000; stroke: #ff0000"/>
     <use xlink:href="#mdb65360d40" x="120.772979" y="212.376424" style="fill: #ff0000; stroke: #ff0000"/>
     <use xlink:href="#mdb65360d40" x="141.759779" y="199.670162" style="fill: #ff0000; stroke: #ff0000"/>
     <use xlink:href="#mdb65360d40" x="304.090623" y="218.604863" style="fill: #ff0000; stroke: #ff0000"/>
     <use xlink:href="#mdb65360d40" x="278.55399" y="139.880448" style="fill: #ff0000; stroke: #ff0000"/>
     <use xlink:href="#mdb65360d40" x="276.201" y="163.357459" style="fill: #ff0000; stroke: #ff0000"/>
     <use xlink:href="#mdb65360d40" x="207.521904" y="269.191039" style="fill: #ff0000; stroke: #ff0000"/>
     <use xlink:href="#mdb65360d40" x="285.940492" y="259.66317" style="fill: #ff0000; stroke: #ff0000"/>
     <use xlink:href="#mdb65360d40" x="288.935284" y="233.541941" style="fill: #ff0000; stroke: #ff0000"/>
     <use xlink:href="#mdb65360d40" x="250.694908" y="295.488" style="fill: #ff0000; stroke: #ff0000"/>
    </g>
   </g>
   <g id="line2d_17"/>
   <g id="patch_3">
    <path d="M 57.6 307.584 
L 57.6 41.472 
" style="fill: none; stroke: #000000; stroke-width: 0.8; stroke-linejoin: miter; stroke-linecap: square"/>
   </g>
   <g id="patch_4">
    <path d="M 414.72 307.584 
L 414.72 41.472 
" style="fill: none; stroke: #000000; stroke-width: 0.8; stroke-linejoin: miter; stroke-linecap: square"/>
   </g>
   <g id="patch_5">
    <path d="M 57.6 307.584 
L 414.72 307.584 
" style="fill: none; stroke: #000000; stroke-width: 0.8; stroke-linejoin: miter; stroke-linecap: square"/>
   </g>
   <g id="patch_6">
    <path d="M 57.6 41.472 
L 414.72 41.472 
" style="fill: none; stroke: #000000; stroke-width: 0.8; stroke-linejoin: miter; stroke-linecap: square"/>
   </g>
   <g id="text_17">
    <!-- Velocities at the final time -->
    <g transform="translate(116.81 35.472) scale(0.16 -0.16)">
     <defs>
      <path id="DejaVuSans-Bold-56" d="M 31 4666 
L 1241 4666 
L 2478 1222 
L 3713 4666 
L 4922 4666 
L 3194 0 
L 1759 0 
L 31 4666 
z
" transform="scale(0.015625)"/>
      <path id="DejaVuSans-Bold-65" d="M 4031 1759 
L 4031 1441 
L 1416 1441 
Q 1456 1047 1700 850 
Q 1944 653 2381 653 
Q 2734 653 3104 758 
Q 3475 863 3866 1075 
L 3866 213 
Q 3469 63 3072 -14 
Q 2675 -91 2278 -91 
Q 1328 -91 801 392 
Q 275 875 275 1747 
Q 275 2603 792 3093 
Q 1309 3584 2216 3584 
Q 3041 3584 3536 3087 
Q 4031 2591 4031 1759 
z
M 2881 2131 
Q 2881 2450 2695 2645 
Q 2509 2841 2209 2841 
Q 1884 2841 1681 2658 
Q 1478 2475 1428 2131 
L 2881 2131 
z
" transform="scale(0.015625)"/>
      <path id="DejaVuSans-Bold-6c" d="M 538 4863 
L 1656 4863 
L 1656 0 
L 538 0 
L 538 4863 
z
" transform="scale(0.015625)"/>
      <path id="DejaVuSans-Bold-6f" d="M 2203 2784 
Q 1831 2784 1636 2517 
Q 1441 2250 1441 1747 
Q 1441 1244 1636 976 
Q 1831 709 2203 709 
Q 2569 709 2762 976 
Q 2956 1244 2956 1747 
Q 2956 2250 2762 2517 
Q 2569 2784 2203 2784 
z
M 2203 3584 
Q 3106 3584 3614 3096 
Q 4122 2609 4122 1747 
Q 4122 884 3614 396 
Q 3106 -91 2203 -91 
Q 1297 -91 786 396 
Q 275 884 275 1747 
Q 275 2609 786 3096 
Q 1297 3584 2203 3584 
z
" transform="scale(0.015625)"/>
      <path id="DejaVuSans-Bold-63" d="M 3366 3391 
L 3366 2478 
Q 3138 2634 2908 2709 
Q 2678 2784 2431 2784 
Q 1963 2784 1702 2511 
Q 1441 2238 1441 1747 
Q 1441 1256 1702 982 
Q 1963 709 2431 709 
Q 2694 709 2930 787 
Q 3166 866 3366 1019 
L 3366 103 
Q 3103 6 2833 -42 
Q 2563 -91 2291 -91 
Q 1344 -91 809 395 
Q 275 881 275 1747 
Q 275 2613 809 3098 
Q 1344 3584 2291 3584 
Q 2566 3584 2833 3536 
Q 3100 3488 3366 3391 
z
" transform="scale(0.015625)"/>
      <path id="DejaVuSans-Bold-69" d="M 538 3500 
L 1656 3500 
L 1656 0 
L 538 0 
L 538 3500 
z
M 538 4863 
L 1656 4863 
L 1656 3950 
L 538 3950 
L 538 4863 
z
" transform="scale(0.015625)"/>
      <path id="DejaVuSans-Bold-74" d="M 1759 4494 
L 1759 3500 
L 2913 3500 
L 2913 2700 
L 1759 2700 
L 1759 1216 
Q 1759 972 1856 886 
Q 1953 800 2241 800 
L 2816 800 
L 2816 0 
L 1856 0 
Q 1194 0 917 276 
Q 641 553 641 1216 
L 641 2700 
L 84 2700 
L 84 3500 
L 641 3500 
L 641 4494 
L 1759 4494 
z
" transform="scale(0.015625)"/>
      <path id="DejaVuSans-Bold-73" d="M 3272 3391 
L 3272 2541 
Q 2913 2691 2578 2766 
Q 2244 2841 1947 2841 
Q 1628 2841 1473 2761 
Q 1319 2681 1319 2516 
Q 1319 2381 1436 2309 
Q 1553 2238 1856 2203 
L 2053 2175 
Q 2913 2066 3209 1816 
Q 3506 1566 3506 1031 
Q 3506 472 3093 190 
Q 2681 -91 1863 -91 
Q 1516 -91 1145 -36 
Q 775 19 384 128 
L 384 978 
Q 719 816 1070 734 
Q 1422 653 1784 653 
Q 2113 653 2278 743 
Q 2444 834 2444 1013 
Q 2444 1163 2330 1236 
Q 2216 1309 1875 1350 
L 1678 1375 
Q 931 1469 631 1722 
Q 331 1975 331 2491 
Q 331 3047 712 3315 
Q 1094 3584 1881 3584 
Q 2191 3584 2531 3537 
Q 2872 3491 3272 3391 
z
" transform="scale(0.015625)"/>
      <path id="DejaVuSans-Bold-20" transform="scale(0.015625)"/>
      <path id="DejaVuSans-Bold-61" d="M 2106 1575 
Q 1756 1575 1579 1456 
Q 1403 1338 1403 1106 
Q 1403 894 1545 773 
Q 1688 653 1941 653 
Q 2256 653 2472 879 
Q 2688 1106 2688 1447 
L 2688 1575 
L 2106 1575 
z
M 3816 1997 
L 3816 0 
L 2688 0 
L 2688 519 
Q 2463 200 2181 54 
Q 1900 -91 1497 -91 
Q 953 -91 614 226 
Q 275 544 275 1050 
Q 275 1666 698 1953 
Q 1122 2241 2028 2241 
L 2688 2241 
L 2688 2328 
Q 2688 2594 2478 2717 
Q 2269 2841 1825 2841 
Q 1466 2841 1156 2769 
Q 847 2697 581 2553 
L 581 3406 
Q 941 3494 1303 3539 
Q 1666 3584 2028 3584 
Q 2975 3584 3395 3211 
Q 3816 2838 3816 1997 
z
" transform="scale(0.015625)"/>
      <path id="DejaVuSans-Bold-68" d="M 4056 2131 
L 4056 0 
L 2931 0 
L 2931 347 
L 2931 1625 
Q 2931 2084 2911 2256 
Q 2891 2428 2841 2509 
Q 2775 2619 2662 2680 
Q 2550 2741 2406 2741 
Q 2056 2741 1856 2470 
Q 1656 2200 1656 1722 
L 1656 0 
L 538 0 
L 538 4863 
L 1656 4863 
L 1656 2988 
Q 1909 3294 2193 3439 
Q 2478 3584 2822 3584 
Q 3428 3584 3742 3212 
Q 4056 2841 4056 2131 
z
" transform="scale(0.015625)"/>
      <path id="DejaVuSans-Bold-66" d="M 2841 4863 
L 2841 4128 
L 2222 4128 
Q 1984 4128 1890 4042 
Q 1797 3956 1797 3744 
L 1797 3500 
L 2753 3500 
L 2753 2700 
L 1797 2700 
L 1797 0 
L 678 0 
L 678 2700 
L 122 2700 
L 122 3500 
L 678 3500 
L 678 3744 
Q 678 4316 997 4589 
Q 1316 4863 1984 4863 
L 2841 4863 
z
" transform="scale(0.015625)"/>
      <path id="DejaVuSans-Bold-6e" d="M 4056 2131 
L 4056 0 
L 2931 0 
L 2931 347 
L 2931 1631 
Q 2931 2084 2911 2256 
Q 2891 2428 2841 2509 
Q 2775 2619 2662 2680 
Q 2550 2741 2406 2741 
Q 2056 2741 1856 2470 
Q 1656 2200 1656 1722 
L 1656 0 
L 538 0 
L 538 3500 
L 1656 3500 
L 1656 2988 
Q 1909 3294 2193 3439 
Q 2478 3584 2822 3584 
Q 3428 3584 3742 3212 
Q 4056 2841 4056 2131 
z
" transform="scale(0.015625)"/>
      <path id="DejaVuSans-Bold-6d" d="M 3781 2919 
Q 3994 3244 4286 3414 
Q 4578 3584 4928 3584 
Q 5531 3584 5847 3212 
Q 6163 2841 6163 2131 
L 6163 0 
L 5038 0 
L 5038 1825 
Q 5041 1866 5042 1909 
Q 5044 1953 5044 2034 
Q 5044 2406 4934 2573 
Q 4825 2741 4581 2741 
Q 4263 2741 4089 2478 
Q 3916 2216 3909 1719 
L 3909 0 
L 2784 0 
L 2784 1825 
Q 2784 2406 2684 2573 
Q 2584 2741 2328 2741 
Q 2006 2741 1831 2477 
Q 1656 2213 1656 1722 
L 1656 0 
L 531 0 
L 531 3500 
L 1656 3500 
L 1656 2988 
Q 1863 3284 2130 3434 
Q 2397 3584 2719 3584 
Q 3081 3584 3359 3409 
Q 3638 3234 3781 2919 
z
" transform="scale(0.015625)"/>
     </defs>
     <use xlink:href="#DejaVuSans-Bold-56"/>
     <use xlink:href="#DejaVuSans-Bold-65" transform="translate(71.892578 0)"/>
     <use xlink:href="#DejaVuSans-Bold-6c" transform="translate(139.714844 0)"/>
     <use xlink:href="#DejaVuSans-Bold-6f" transform="translate(173.992188 0)"/>
     <use xlink:href="#DejaVuSans-Bold-63" transform="translate(242.693359 0)"/>
     <use xlink:href="#DejaVuSans-Bold-69" transform="translate(301.970703 0)"/>
     <use xlink:href="#DejaVuSans-Bold-74" transform="translate(336.248047 0)"/>
     <use xlink:href="#DejaVuSans-Bold-69" transform="translate(384.050781 0)"/>
     <use xlink:href="#DejaVuSans-Bold-65" transform="translate(418.328125 0)"/>
     <use xlink:href="#DejaVuSans-Bold-73" transform="translate(486.150391 0)"/>
     <use xlink:href="#DejaVuSans-Bold-20" transform="translate(545.671875 0)"/>
     <use xlink:href="#DejaVuSans-Bold-61" transform="translate(580.486328 0)"/>
     <use xlink:href="#DejaVuSans-Bold-74" transform="translate(647.966797 0)"/>
     <use xlink:href="#DejaVuSans-Bold-20" transform="translate(695.769531 0)"/>
     <use xlink:href="#DejaVuSans-Bold-74" transform="translate(730.583984 0)"/>
     <use xlink:href="#DejaVuSans-Bold-68" transform="translate(778.386719 0)"/>
     <use xlink:href="#DejaVuSans-Bold-65" transform="translate(849.578125 0)"/>
     <use xlink:href="#DejaVuSans-Bold-20" transform="translate(917.400391 0)"/>
     <use xlink:href="#DejaVuSans-Bold-66" transform="translate(952.214844 0)"/>
     <use xlink:href="#DejaVuSans-Bold-69" transform="translate(995.720703 0)"/>
     <use xlink:href="#DejaVuSans-Bold-6e" transform="translate(1029.998047 0)"/>
     <use xlink:href="#DejaVuSans-Bold-61" transform="translate(1101.189453 0)"/>
     <use xlink:href="#DejaVuSans-Bold-6c" transform="translate(1168.669922 0)"/>
     <use xlink:href="#DejaVuSans-Bold-20" transform="translate(1202.947266 0)"/>
     <use xlink:href="#DejaVuSans-Bold-74" transform="translate(1237.761719 0)"/>
     <use xlink:href="#DejaVuSans-Bold-69" transform="translate(1285.564453 0)"/>
     <use xlink:href="#DejaVuSans-Bold-6d" transform="translate(1319.841797 0)"/>
     <use xlink:href="#DejaVuSans-Bold-65" transform="translate(1424.041016 0)"/>
    </g>
   </g>
  </g>
 </g>
 <defs>
  <clipPath id="pcab687151e">
   <rect x="57.6" y="41.472" width="357.12" height="266.112"/>
  </clipPath>
 </defs>
</svg>
