<?xml version="1.0" encoding="utf-8" standalone="no"?>
<!DOCTYPE svg PUBLIC "-//W3C//DTD SVG 1.1//EN"
  "http://www.w3.org/Graphics/SVG/1.1/DTD/svg11.dtd">
<svg xmlns:xlink="http://www.w3.org/1999/xlink" width="460.8pt" height="345.6pt" viewBox="0 0 460.8 345.6" xmlns="http://www.w3.org/2000/svg" version="1.1">
 <metadata>
  <rdf:RDF xmlns:dc="http://purl.org/dc/elements/1.1/" xmlns:cc="http://creativecommons.org/ns#" xmlns:rdf="http://www.w3.org/1999/02/22-rdf-syntax-ns#">
   <cc:Work>
    <dc:type rdf:resource="http://purl.org/dc/dcmitype/StillImage"/>
    <dc:date>2025-05-05T23:14:04.956980</dc:date>
    <dc:format>image/svg+xml</dc:format>
    <dc:creator>
     <cc:Agent>
      <dc:title>Matplotlib v3.10.1, https://matplotlib.org/</dc:title>
     </cc:Agent>
    </dc:creator>
   </cc:Work>
  </rdf:RDF>
 </metadata>
 <defs>
  <style type="text/css">*{stroke-linejoin: round; stroke-linecap: butt}</style>
 </defs>
 <g id="figure_1">
  <g id="patch_1">
   <path d="M 0 345.6 
L 460.8 345.6 
L 460.8 0 
L 0 0 
z
" style="fill: #ffffff"/>
  </g>
  <g id="axes_1">
   <g id="patch_2">
    <path d="M 57.6 307.584 
L 414.72 307.584 
L 414.72 41.472 
L 57.6 41.472 
z
" style="fill: #ffffff"/>
   </g>
   <g id="matplotlib.axis_1">
    <g id="xtick_1">
     <g id="line2d_1">
      <defs>
       <path id="m0ad98d3827" d="M 0 0 
L 0 3.5 
" style="stroke: #000000; stroke-width: 0.8"/>
      </defs>
      <g>
       <use xlink:href="#m0ad98d3827" x="73.832727" y="307.584" style="stroke: #000000; stroke-width: 0.8"/>
      </g>
     </g>
     <g id="text_1">
      <!-- 0 -->
      <g transform="translate(70.015227 323.702125) scale(0.12 -0.12)">
       <defs>
        <path id="DejaVuSans-30" d="M 2034 4250 
Q 1547 4250 1301 3770 
Q 1056 3291 1056 2328 
Q 1056 1369 1301 889 
Q 1547 409 2034 409 
Q 2525 409 2770 889 
Q 3016 1369 3016 2328 
Q 3016 3291 2770 3770 
Q 2525 4250 2034 4250 
z
M 2034 4750 
Q 2819 4750 3233 4129 
Q 3647 3509 3647 2328 
Q 3647 1150 3233 529 
Q 2819 -91 2034 -91 
Q 1250 -91 836 529 
Q 422 1150 422 2328 
Q 422 3509 836 4129 
Q 1250 4750 2034 4750 
z
" transform="scale(0.015625)"/>
       </defs>
       <use xlink:href="#DejaVuSans-30"/>
      </g>
     </g>
    </g>
    <g id="xtick_2">
     <g id="line2d_2">
      <g>
       <use xlink:href="#m0ad98d3827" x="138.77013" y="307.584" style="stroke: #000000; stroke-width: 0.8"/>
      </g>
     </g>
     <g id="text_2">
      <!-- 2000 -->
      <g transform="translate(123.50013 323.702125) scale(0.12 -0.12)">
       <defs>
        <path id="DejaVuSans-32" d="M 1228 531 
L 3431 531 
L 3431 0 
L 469 0 
L 469 531 
Q 828 903 1448 1529 
Q 2069 2156 2228 2338 
Q 2531 2678 2651 2914 
Q 2772 3150 2772 3378 
Q 2772 3750 2511 3984 
Q 2250 4219 1831 4219 
Q 1534 4219 1204 4116 
Q 875 4013 500 3803 
L 500 4441 
Q 881 4594 1212 4672 
Q 1544 4750 1819 4750 
Q 2544 4750 2975 4387 
Q 3406 4025 3406 3419 
Q 3406 3131 3298 2873 
Q 3191 2616 2906 2266 
Q 2828 2175 2409 1742 
Q 1991 1309 1228 531 
z
" transform="scale(0.015625)"/>
       </defs>
       <use xlink:href="#DejaVuSans-32"/>
       <use xlink:href="#DejaVuSans-30" transform="translate(63.623047 0)"/>
       <use xlink:href="#DejaVuSans-30" transform="translate(127.246094 0)"/>
       <use xlink:href="#DejaVuSans-30" transform="translate(190.869141 0)"/>
      </g>
     </g>
    </g>
    <g id="xtick_3">
     <g id="line2d_3">
      <g>
       <use xlink:href="#m0ad98d3827" x="203.707533" y="307.584" style="stroke: #000000; stroke-width: 0.8"/>
      </g>
     </g>
     <g id="text_3">
      <!-- 4000 -->
      <g transform="translate(188.437533 323.702125) scale(0.12 -0.12)">
       <defs>
        <path id="DejaVuSans-34" d="M 2419 4116 
L 825 1625 
L 2419 1625 
L 2419 4116 
z
M 2253 4666 
L 3047 4666 
L 3047 1625 
L 3713 1625 
L 3713 1100 
L 3047 1100 
L 3047 0 
L 2419 0 
L 2419 1100 
L 313 1100 
L 313 1709 
L 2253 4666 
z
" transform="scale(0.015625)"/>
       </defs>
       <use xlink:href="#DejaVuSans-34"/>
       <use xlink:href="#DejaVuSans-30" transform="translate(63.623047 0)"/>
       <use xlink:href="#DejaVuSans-30" transform="translate(127.246094 0)"/>
       <use xlink:href="#DejaVuSans-30" transform="translate(190.869141 0)"/>
      </g>
     </g>
    </g>
    <g id="xtick_4">
     <g id="line2d_4">
      <g>
       <use xlink:href="#m0ad98d3827" x="268.644936" y="307.584" style="stroke: #000000; stroke-width: 0.8"/>
      </g>
     </g>
     <g id="text_4">
      <!-- 6000 -->
      <g transform="translate(253.374936 323.702125) scale(0.12 -0.12)">
       <defs>
        <path id="DejaVuSans-36" d="M 2113 2584 
Q 1688 2584 1439 2293 
Q 1191 2003 1191 1497 
Q 1191 994 1439 701 
Q 1688 409 2113 409 
Q 2538 409 2786 701 
Q 3034 994 3034 1497 
Q 3034 2003 2786 2293 
Q 2538 2584 2113 2584 
z
M 3366 4563 
L 3366 3988 
Q 3128 4100 2886 4159 
Q 2644 4219 2406 4219 
Q 1781 4219 1451 3797 
Q 1122 3375 1075 2522 
Q 1259 2794 1537 2939 
Q 1816 3084 2150 3084 
Q 2853 3084 3261 2657 
Q 3669 2231 3669 1497 
Q 3669 778 3244 343 
Q 2819 -91 2113 -91 
Q 1303 -91 875 529 
Q 447 1150 447 2328 
Q 447 3434 972 4092 
Q 1497 4750 2381 4750 
Q 2619 4750 2861 4703 
Q 3103 4656 3366 4563 
z
" transform="scale(0.015625)"/>
       </defs>
       <use xlink:href="#DejaVuSans-36"/>
       <use xlink:href="#DejaVuSans-30" transform="translate(63.623047 0)"/>
       <use xlink:href="#DejaVuSans-30" transform="translate(127.246094 0)"/>
       <use xlink:href="#DejaVuSans-30" transform="translate(190.869141 0)"/>
      </g>
     </g>
    </g>
    <g id="xtick_5">
     <g id="line2d_5">
      <g>
       <use xlink:href="#m0ad98d3827" x="333.582339" y="307.584" style="stroke: #000000; stroke-width: 0.8"/>
      </g>
     </g>
     <g id="text_5">
      <!-- 8000 -->
      <g transform="translate(318.312339 323.702125) scale(0.12 -0.12)">
       <defs>
        <path id="DejaVuSans-38" d="M 2034 2216 
Q 1584 2216 1326 1975 
Q 1069 1734 1069 1313 
Q 1069 891 1326 650 
Q 1584 409 2034 409 
Q 2484 409 2743 651 
Q 3003 894 3003 1313 
Q 3003 1734 2745 1975 
Q 2488 2216 2034 2216 
z
M 1403 2484 
Q 997 2584 770 2862 
Q 544 3141 544 3541 
Q 544 4100 942 4425 
Q 1341 4750 2034 4750 
Q 2731 4750 3128 4425 
Q 3525 4100 3525 3541 
Q 3525 3141 3298 2862 
Q 3072 2584 2669 2484 
Q 3125 2378 3379 2068 
Q 3634 1759 3634 1313 
Q 3634 634 3220 271 
Q 2806 -91 2034 -91 
Q 1263 -91 848 271 
Q 434 634 434 1313 
Q 434 1759 690 2068 
Q 947 2378 1403 2484 
z
M 1172 3481 
Q 1172 3119 1398 2916 
Q 1625 2713 2034 2713 
Q 2441 2713 2670 2916 
Q 2900 3119 2900 3481 
Q 2900 3844 2670 4047 
Q 2441 4250 2034 4250 
Q 1625 4250 1398 4047 
Q 1172 3844 1172 3481 
z
" transform="scale(0.015625)"/>
       </defs>
       <use xlink:href="#DejaVuSans-38"/>
       <use xlink:href="#DejaVuSans-30" transform="translate(63.623047 0)"/>
       <use xlink:href="#DejaVuSans-30" transform="translate(127.246094 0)"/>
       <use xlink:href="#DejaVuSans-30" transform="translate(190.869141 0)"/>
      </g>
     </g>
    </g>
    <g id="xtick_6">
     <g id="line2d_6">
      <g>
       <use xlink:href="#m0ad98d3827" x="398.519741" y="307.584" style="stroke: #000000; stroke-width: 0.8"/>
      </g>
     </g>
     <g id="text_6">
      <!-- 10000 -->
      <g transform="translate(379.432241 323.702125) scale(0.12 -0.12)">
       <defs>
        <path id="DejaVuSans-31" d="M 794 531 
L 1825 531 
L 1825 4091 
L 703 3866 
L 703 4441 
L 1819 4666 
L 2450 4666 
L 2450 531 
L 3481 531 
L 3481 0 
L 794 0 
L 794 531 
z
" transform="scale(0.015625)"/>
       </defs>
       <use xlink:href="#DejaVuSans-31"/>
       <use xlink:href="#DejaVuSans-30" transform="translate(63.623047 0)"/>
       <use xlink:href="#DejaVuSans-30" transform="translate(127.246094 0)"/>
       <use xlink:href="#DejaVuSans-30" transform="translate(190.869141 0)"/>
       <use xlink:href="#DejaVuSans-30" transform="translate(254.492188 0)"/>
      </g>
     </g>
    </g>
    <g id="text_7">
     <!-- timestep -->
     <g transform="translate(205.203594 340.835562) scale(0.14 -0.14)">
      <defs>
       <path id="DejaVuSans-74" d="M 1172 4494 
L 1172 3500 
L 2356 3500 
L 2356 3053 
L 1172 3053 
L 1172 1153 
Q 1172 725 1289 603 
Q 1406 481 1766 481 
L 2356 481 
L 2356 0 
L 1766 0 
Q 1100 0 847 248 
Q 594 497 594 1153 
L 594 3053 
L 172 3053 
L 172 3500 
L 594 3500 
L 594 4494 
L 1172 4494 
z
" transform="scale(0.015625)"/>
       <path id="DejaVuSans-69" d="M 603 3500 
L 1178 3500 
L 1178 0 
L 603 0 
L 603 3500 
z
M 603 4863 
L 1178 4863 
L 1178 4134 
L 603 4134 
L 603 4863 
z
" transform="scale(0.015625)"/>
       <path id="DejaVuSans-6d" d="M 3328 2828 
Q 3544 3216 3844 3400 
Q 4144 3584 4550 3584 
Q 5097 3584 5394 3201 
Q 5691 2819 5691 2113 
L 5691 0 
L 5113 0 
L 5113 2094 
Q 5113 2597 4934 2840 
Q 4756 3084 4391 3084 
Q 3944 3084 3684 2787 
Q 3425 2491 3425 1978 
L 3425 0 
L 2847 0 
L 2847 2094 
Q 2847 2600 2669 2842 
Q 2491 3084 2119 3084 
Q 1678 3084 1418 2786 
Q 1159 2488 1159 1978 
L 1159 0 
L 581 0 
L 581 3500 
L 1159 3500 
L 1159 2956 
Q 1356 3278 1631 3431 
Q 1906 3584 2284 3584 
Q 2666 3584 2933 3390 
Q 3200 3197 3328 2828 
z
" transform="scale(0.015625)"/>
       <path id="DejaVuSans-65" d="M 3597 1894 
L 3597 1613 
L 953 1613 
Q 991 1019 1311 708 
Q 1631 397 2203 397 
Q 2534 397 2845 478 
Q 3156 559 3463 722 
L 3463 178 
Q 3153 47 2828 -22 
Q 2503 -91 2169 -91 
Q 1331 -91 842 396 
Q 353 884 353 1716 
Q 353 2575 817 3079 
Q 1281 3584 2069 3584 
Q 2775 3584 3186 3129 
Q 3597 2675 3597 1894 
z
M 3022 2063 
Q 3016 2534 2758 2815 
Q 2500 3097 2075 3097 
Q 1594 3097 1305 2825 
Q 1016 2553 972 2059 
L 3022 2063 
z
" transform="scale(0.015625)"/>
       <path id="DejaVuSans-73" d="M 2834 3397 
L 2834 2853 
Q 2591 2978 2328 3040 
Q 2066 3103 1784 3103 
Q 1356 3103 1142 2972 
Q 928 2841 928 2578 
Q 928 2378 1081 2264 
Q 1234 2150 1697 2047 
L 1894 2003 
Q 2506 1872 2764 1633 
Q 3022 1394 3022 966 
Q 3022 478 2636 193 
Q 2250 -91 1575 -91 
Q 1294 -91 989 -36 
Q 684 19 347 128 
L 347 722 
Q 666 556 975 473 
Q 1284 391 1588 391 
Q 1994 391 2212 530 
Q 2431 669 2431 922 
Q 2431 1156 2273 1281 
Q 2116 1406 1581 1522 
L 1381 1569 
Q 847 1681 609 1914 
Q 372 2147 372 2553 
Q 372 3047 722 3315 
Q 1072 3584 1716 3584 
Q 2034 3584 2315 3537 
Q 2597 3491 2834 3397 
z
" transform="scale(0.015625)"/>
       <path id="DejaVuSans-70" d="M 1159 525 
L 1159 -1331 
L 581 -1331 
L 581 3500 
L 1159 3500 
L 1159 2969 
Q 1341 3281 1617 3432 
Q 1894 3584 2278 3584 
Q 2916 3584 3314 3078 
Q 3713 2572 3713 1747 
Q 3713 922 3314 415 
Q 2916 -91 2278 -91 
Q 1894 -91 1617 61 
Q 1341 213 1159 525 
z
M 3116 1747 
Q 3116 2381 2855 2742 
Q 2594 3103 2138 3103 
Q 1681 3103 1420 2742 
Q 1159 2381 1159 1747 
Q 1159 1113 1420 752 
Q 1681 391 2138 391 
Q 2594 391 2855 752 
Q 3116 1113 3116 1747 
z
" transform="scale(0.015625)"/>
      </defs>
      <use xlink:href="#DejaVuSans-74"/>
      <use xlink:href="#DejaVuSans-69" transform="translate(39.208984 0)"/>
      <use xlink:href="#DejaVuSans-6d" transform="translate(66.992188 0)"/>
      <use xlink:href="#DejaVuSans-65" transform="translate(164.404297 0)"/>
      <use xlink:href="#DejaVuSans-73" transform="translate(225.927734 0)"/>
      <use xlink:href="#DejaVuSans-74" transform="translate(278.027344 0)"/>
      <use xlink:href="#DejaVuSans-65" transform="translate(317.236328 0)"/>
      <use xlink:href="#DejaVuSans-70" transform="translate(378.759766 0)"/>
     </g>
    </g>
   </g>
   <g id="matplotlib.axis_2">
    <g id="ytick_1">
     <g id="line2d_7">
      <defs>
       <path id="ma1cba19158" d="M 0 0 
L -3.5 0 
" style="stroke: #000000; stroke-width: 0.8"/>
      </defs>
      <g>
       <use xlink:href="#ma1cba19158" x="57.6" y="295.489629" style="stroke: #000000; stroke-width: 0.8"/>
      </g>
     </g>
     <g id="text_8">
      <!-- 0.0 -->
      <g transform="translate(31.51625 300.048692) scale(0.12 -0.12)">
       <defs>
        <path id="DejaVuSans-2e" d="M 684 794 
L 1344 794 
L 1344 0 
L 684 0 
L 684 794 
z
" transform="scale(0.015625)"/>
       </defs>
       <use xlink:href="#DejaVuSans-30"/>
       <use xlink:href="#DejaVuSans-2e" transform="translate(63.623047 0)"/>
       <use xlink:href="#DejaVuSans-30" transform="translate(95.410156 0)"/>
      </g>
     </g>
    </g>
    <g id="ytick_2">
     <g id="line2d_8">
      <g>
       <use xlink:href="#ma1cba19158" x="57.6" y="247.105302" style="stroke: #000000; stroke-width: 0.8"/>
      </g>
     </g>
     <g id="text_9">
      <!-- 0.2 -->
      <g transform="translate(31.51625 251.664365) scale(0.12 -0.12)">
       <use xlink:href="#DejaVuSans-30"/>
       <use xlink:href="#DejaVuSans-2e" transform="translate(63.623047 0)"/>
       <use xlink:href="#DejaVuSans-32" transform="translate(95.410156 0)"/>
      </g>
     </g>
    </g>
    <g id="ytick_3">
     <g id="line2d_9">
      <g>
       <use xlink:href="#ma1cba19158" x="57.6" y="198.720975" style="stroke: #000000; stroke-width: 0.8"/>
      </g>
     </g>
     <g id="text_10">
      <!-- 0.4 -->
      <g transform="translate(31.51625 203.280037) scale(0.12 -0.12)">
       <use xlink:href="#DejaVuSans-30"/>
       <use xlink:href="#DejaVuSans-2e" transform="translate(63.623047 0)"/>
       <use xlink:href="#DejaVuSans-34" transform="translate(95.410156 0)"/>
      </g>
     </g>
    </g>
    <g id="ytick_4">
     <g id="line2d_10">
      <g>
       <use xlink:href="#ma1cba19158" x="57.6" y="150.336647" style="stroke: #000000; stroke-width: 0.8"/>
      </g>
     </g>
     <g id="text_11">
      <!-- 0.6 -->
      <g transform="translate(31.51625 154.89571) scale(0.12 -0.12)">
       <use xlink:href="#DejaVuSans-30"/>
       <use xlink:href="#DejaVuSans-2e" transform="translate(63.623047 0)"/>
       <use xlink:href="#DejaVuSans-36" transform="translate(95.410156 0)"/>
      </g>
     </g>
    </g>
    <g id="ytick_5">
     <g id="line2d_11">
      <g>
       <use xlink:href="#ma1cba19158" x="57.6" y="101.95232" style="stroke: #000000; stroke-width: 0.8"/>
      </g>
     </g>
     <g id="text_12">
      <!-- 0.8 -->
      <g transform="translate(31.51625 106.511382) scale(0.12 -0.12)">
       <use xlink:href="#DejaVuSans-30"/>
       <use xlink:href="#DejaVuSans-2e" transform="translate(63.623047 0)"/>
       <use xlink:href="#DejaVuSans-38" transform="translate(95.410156 0)"/>
      </g>
     </g>
    </g>
    <g id="ytick_6">
     <g id="line2d_12">
      <g>
       <use xlink:href="#ma1cba19158" x="57.6" y="53.567992" style="stroke: #000000; stroke-width: 0.8"/>
      </g>
     </g>
     <g id="text_13">
      <!-- 1.0 -->
      <g transform="translate(31.51625 58.127055) scale(0.12 -0.12)">
       <use xlink:href="#DejaVuSans-31"/>
       <use xlink:href="#DejaVuSans-2e" transform="translate(63.623047 0)"/>
       <use xlink:href="#DejaVuSans-30" transform="translate(95.410156 0)"/>
      </g>
     </g>
    </g>
    <g id="text_14">
     <!-- quantity -->
     <g transform="translate(24.604688 203.710344) rotate(-90) scale(0.14 -0.14)">
      <defs>
       <path id="DejaVuSans-71" d="M 947 1747 
Q 947 1113 1208 752 
Q 1469 391 1925 391 
Q 2381 391 2643 752 
Q 2906 1113 2906 1747 
Q 2906 2381 2643 2742 
Q 2381 3103 1925 3103 
Q 1469 3103 1208 2742 
Q 947 2381 947 1747 
z
M 2906 525 
Q 2725 213 2448 61 
Q 2172 -91 1784 -91 
Q 1150 -91 751 415 
Q 353 922 353 1747 
Q 353 2572 751 3078 
Q 1150 3584 1784 3584 
Q 2172 3584 2448 3432 
Q 2725 3281 2906 2969 
L 2906 3500 
L 3481 3500 
L 3481 -1331 
L 2906 -1331 
L 2906 525 
z
" transform="scale(0.015625)"/>
       <path id="DejaVuSans-75" d="M 544 1381 
L 544 3500 
L 1119 3500 
L 1119 1403 
Q 1119 906 1312 657 
Q 1506 409 1894 409 
Q 2359 409 2629 706 
Q 2900 1003 2900 1516 
L 2900 3500 
L 3475 3500 
L 3475 0 
L 2900 0 
L 2900 538 
Q 2691 219 2414 64 
Q 2138 -91 1772 -91 
Q 1169 -91 856 284 
Q 544 659 544 1381 
z
M 1991 3584 
L 1991 3584 
z
" transform="scale(0.015625)"/>
       <path id="DejaVuSans-61" d="M 2194 1759 
Q 1497 1759 1228 1600 
Q 959 1441 959 1056 
Q 959 750 1161 570 
Q 1363 391 1709 391 
Q 2188 391 2477 730 
Q 2766 1069 2766 1631 
L 2766 1759 
L 2194 1759 
z
M 3341 1997 
L 3341 0 
L 2766 0 
L 2766 531 
Q 2569 213 2275 61 
Q 1981 -91 1556 -91 
Q 1019 -91 701 211 
Q 384 513 384 1019 
Q 384 1609 779 1909 
Q 1175 2209 1959 2209 
L 2766 2209 
L 2766 2266 
Q 2766 2663 2505 2880 
Q 2244 3097 1772 3097 
Q 1472 3097 1187 3025 
Q 903 2953 641 2809 
L 641 3341 
Q 956 3463 1253 3523 
Q 1550 3584 1831 3584 
Q 2591 3584 2966 3190 
Q 3341 2797 3341 1997 
z
" transform="scale(0.015625)"/>
       <path id="DejaVuSans-6e" d="M 3513 2113 
L 3513 0 
L 2938 0 
L 2938 2094 
Q 2938 2591 2744 2837 
Q 2550 3084 2163 3084 
Q 1697 3084 1428 2787 
Q 1159 2491 1159 1978 
L 1159 0 
L 581 0 
L 581 3500 
L 1159 3500 
L 1159 2956 
Q 1366 3272 1645 3428 
Q 1925 3584 2291 3584 
Q 2894 3584 3203 3211 
Q 3513 2838 3513 2113 
z
" transform="scale(0.015625)"/>
       <path id="DejaVuSans-79" d="M 2059 -325 
Q 1816 -950 1584 -1140 
Q 1353 -1331 966 -1331 
L 506 -1331 
L 506 -850 
L 844 -850 
Q 1081 -850 1212 -737 
Q 1344 -625 1503 -206 
L 1606 56 
L 191 3500 
L 800 3500 
L 1894 763 
L 2988 3500 
L 3597 3500 
L 2059 -325 
z
" transform="scale(0.015625)"/>
      </defs>
      <use xlink:href="#DejaVuSans-71"/>
      <use xlink:href="#DejaVuSans-75" transform="translate(63.476562 0)"/>
      <use xlink:href="#DejaVuSans-61" transform="translate(126.855469 0)"/>
      <use xlink:href="#DejaVuSans-6e" transform="translate(188.134766 0)"/>
      <use xlink:href="#DejaVuSans-74" transform="translate(251.513672 0)"/>
      <use xlink:href="#DejaVuSans-69" transform="translate(290.722656 0)"/>
      <use xlink:href="#DejaVuSans-74" transform="translate(318.505859 0)"/>
      <use xlink:href="#DejaVuSans-79" transform="translate(357.714844 0)"/>
     </g>
    </g>
   </g>
   <g id="line2d_13">
    <path d="M 73.832727 258.790654 
L 74.027539 255.132124 
L 74.092477 254.940991 
L 74.124946 254.995143 
L 74.352226 256.025823 
L 74.547039 256.440226 
L 74.644445 256.043847 
L 74.839257 253.885332 
L 75.358756 247.850434 
L 75.391225 247.840154 
L 75.553568 248.33267 
L 75.586037 248.316672 
L 75.715912 247.656497 
L 75.845787 247.022985 
L 75.878255 247.061937 
L 76.105536 247.829795 
L 76.235411 247.712698 
L 76.26788 247.812129 
L 76.462692 248.436434 
L 76.560098 248.457676 
L 76.592567 248.420273 
L 76.75491 247.970445 
L 77.144535 246.243658 
L 77.306878 246.239724 
L 77.436753 245.924266 
L 77.664034 245.427683 
L 77.76144 245.240914 
L 77.923784 244.390998 
L 78.345877 241.904633 
L 78.443283 241.843896 
L 78.573158 241.614172 
L 78.605626 241.685457 
L 78.703032 242.251395 
L 79.027719 246.884631 
L 79.222532 248.13138 
L 79.449813 247.170604 
L 79.7745 244.848809 
L 80.131655 239.198502 
L 81.105716 223.297824 
L 81.138185 223.324438 
L 81.203122 223.633002 
L 81.625216 229.280178 
L 81.949903 233.168347 
L 82.27459 235.248946 
L 82.534339 240.843529 
L 82.891495 247.882077 
L 84.157774 261.938699 
L 84.51493 263.707399 
L 84.644805 263.932367 
L 84.677274 263.905337 
L 84.839617 263.556281 
L 85.066898 261.380458 
L 85.326648 259.412723 
L 85.424054 259.110131 
L 85.488991 259.154151 
L 85.748741 259.79047 
L 86.00849 262.02498 
L 86.365646 267.054067 
L 86.820208 274.992399 
L 86.885145 275.180577 
L 86.950083 275.074133 
L 87.01502 275.023571 
L 87.144895 274.447373 
L 87.339707 272.409285 
L 87.631925 269.567138 
L 87.696863 269.461294 
L 87.729331 269.501935 
L 87.794269 269.758511 
L 88.411174 277.452238 
L 88.703393 279.641952 
L 88.800799 279.806333 
L 89.287829 281.800038 
L 89.385235 281.715843 
L 89.580047 281.548584 
L 89.904734 281.727314 
L 90.196953 280.603769 
L 90.619046 278.533454 
L 90.781389 278.172425 
L 90.813858 278.190848 
L 91.106076 278.580729 
L 91.171014 278.413999 
L 91.333357 276.891245 
L 92.372356 263.526541 
L 93.054199 251.670962 
L 93.184073 250.924829 
L 93.216542 250.993953 
L 93.281479 251.326766 
L 93.833447 258.526418 
L 94.710102 271.694034 
L 94.937383 272.581935 
L 95.034789 272.582965 
L 95.294539 271.112495 
L 95.651695 267.316945 
L 96.073788 262.720108 
L 96.560818 260.009217 
L 96.690693 260.114003 
L 97.080317 262.325152 
L 97.145255 262.24528 
L 97.729692 260.576731 
L 97.794629 260.64741 
L 98.02191 261.436752 
L 98.086847 261.258488 
L 98.119316 261.082338 
L 98.184253 261.185856 
L 98.606346 261.608704 
L 98.638815 261.569627 
L 98.963502 260.728998 
L 99.190783 257.780584 
L 100.392125 236.430428 
L 100.522 236.182091 
L 100.619406 236.205416 
L 100.716812 236.221671 
L 100.749281 236.187768 
L 100.879156 236.018059 
L 100.911624 236.127054 
L 101.00903 236.219924 
L 101.041499 236.178801 
L 101.366186 234.841772 
L 101.658404 233.168145 
L 101.723342 233.26501 
L 101.885685 234.22719 
L 102.145435 237.201092 
L 102.437653 238.92718 
L 103.119496 244.473041 
L 103.346777 245.812244 
L 103.411714 245.707107 
L 103.76887 244.312444 
L 103.801339 244.320795 
L 103.898745 244.099295 
L 104.418244 242.372496 
L 104.450713 242.409029 
L 104.580588 242.840522 
L 104.872806 243.947063 
L 105.002681 244.320396 
L 105.424774 247.207833 
L 106.074148 252.905821 
L 106.139085 252.783762 
L 106.333897 251.56466 
L 106.788459 246.258937 
L 107.178084 241.823186 
L 107.405365 240.930235 
L 107.437833 240.940559 
L 107.567708 241.094312 
L 107.827458 241.984591 
L 108.054739 242.916134 
L 108.152145 243.405094 
L 109.126206 249.671275 
L 109.321018 249.988066 
L 109.385955 249.883836 
L 109.743111 246.705888 
L 110.165204 241.493972 
L 110.295079 240.424846 
L 110.684703 236.029919 
L 111.788639 222.374362 
L 112.145795 221.202812 
L 112.730232 218.711836 
L 112.827638 218.386388 
L 112.860106 218.459417 
L 113.282199 221.409447 
L 113.347137 221.301904 
L 113.477012 220.956206 
L 113.50948 220.975084 
L 113.639355 221.550745 
L 113.899105 222.907574 
L 114.093917 223.525014 
L 114.321198 224.927348 
L 114.51601 226.211562 
L 114.613416 225.84955 
L 114.938103 222.707211 
L 115.165384 220.480301 
L 115.26279 220.17154 
L 115.587477 217.466765 
L 115.879696 214.745285 
L 115.912164 214.764711 
L 116.204383 216.001713 
L 116.26932 215.850071 
L 116.431664 214.630007 
L 117.535599 204.79809 
L 117.990161 198.296864 
L 118.444723 193.132247 
L 118.477192 193.217358 
L 118.672004 194.600358 
L 119.094097 198.743376 
L 119.126566 198.739429 
L 119.191503 198.802392 
L 119.223972 198.73284 
L 119.386315 198.320401 
L 119.418784 198.371873 
L 120.295439 204.329411 
L 120.912344 211.644222 
L 121.2695 212.795734 
L 121.301969 212.861042 
L 121.366906 212.743536 
L 121.886405 209.739969 
L 122.146155 207.998368 
L 122.308498 207.478156 
L 122.373436 207.551796 
L 122.503311 207.75283 
L 122.535779 207.679515 
L 122.860466 206.051173 
L 122.957873 206.237431 
L 123.02281 206.39564 
L 123.087747 206.355622 
L 123.444903 205.137668 
L 123.542309 205.408766 
L 123.672184 205.606516 
L 123.704653 205.58386 
L 123.802059 205.01799 
L 124.354027 199.736847 
L 124.451433 199.832527 
L 124.581308 200.146184 
L 124.613776 200.08778 
L 124.873526 199.313859 
L 125.100807 200.554533 
L 125.555369 204.162506 
L 125.78265 205.871614 
L 125.880056 205.523072 
L 126.139805 202.771952 
L 126.496961 198.957873 
L 126.594367 199.063796 
L 126.724242 199.966628 
L 126.919054 203.204131 
L 127.471022 212.475521 
L 127.990521 216.609774 
L 128.185333 217.26878 
L 128.217802 217.3422 
L 128.28274 217.220724 
L 128.672364 215.61843 
L 128.867176 211.920433 
L 129.126926 203.804124 
L 129.51655 192.052468 
L 129.971112 185.607535 
L 130.458143 182.427263 
L 130.588017 182.281996 
L 130.620486 182.346116 
L 130.78283 182.395045 
L 130.945173 182.21102 
L 131.107517 181.834669 
L 131.139985 181.86231 
L 131.367266 182.281467 
L 131.52961 182.153188 
L 131.562078 182.202787 
L 131.789359 183.719904 
L 132.01664 185.12537 
L 132.146515 185.294427 
L 132.178984 185.194564 
L 132.373796 183.78082 
L 132.76342 181.223694 
L 132.990701 180.065085 
L 133.02317 180.116743 
L 133.120576 180.454616 
L 133.542669 182.682717 
L 134.094637 182.223194 
L 134.321918 181.572107 
L 134.419324 181.740762 
L 134.451793 181.703201 
L 134.646605 181.024237 
L 134.711542 181.146361 
L 135.328448 188.820998 
L 135.393385 188.735535 
L 135.555729 187.807584 
L 135.718072 186.744962 
L 135.750541 186.758929 
L 135.977822 187.677756 
L 136.205103 188.934593 
L 136.334977 188.930152 
L 136.399915 188.727958 
L 136.822008 186.523622 
L 136.984352 185.463233 
L 137.211632 183.971672 
L 137.309039 183.98987 
L 137.406445 183.808592 
L 137.633726 182.184413 
L 137.861006 181.236417 
L 138.120756 181.594257 
L 138.185693 181.507799 
L 138.315568 181.012072 
L 138.900005 177.261951 
L 139.02988 177.348373 
L 139.257161 178.204227 
L 139.289629 178.164596 
L 139.419504 177.697706 
L 140.26369 171.215405 
L 140.848127 165.327444 
L 141.692313 155.872185 
L 141.724782 155.952554 
L 141.919594 157.364331 
L 142.406625 162.623427 
L 142.666374 165.356625 
L 142.731312 165.498641 
L 142.796249 165.420235 
L 142.926124 164.877574 
L 143.348217 162.28182 
L 143.445623 162.28468 
L 143.543029 162.601386 
L 143.932654 165.265341 
L 143.997591 165.215391 
L 144.127466 164.530763 
L 144.387215 161.596901 
L 146.108057 135.655502 
L 146.172994 135.390656 
L 146.205463 135.427804 
L 146.367806 136.659231 
L 146.887305 140.314905 
L 146.952243 140.217776 
L 147.082118 138.957854 
L 147.309399 136.943618 
L 147.569148 136.069224 
L 147.601617 136.040477 
L 147.634086 136.079471 
L 147.699023 136.543526 
L 147.958773 139.503292 
L 147.991241 139.434959 
L 148.218522 137.788744 
L 148.445803 135.478819 
L 148.997771 128.843588 
L 149.095177 128.285259 
L 149.160115 128.359059 
L 149.289989 128.954718 
L 149.419864 129.377211 
L 149.452333 129.366718 
L 149.549739 129.076197 
L 149.712082 127.58989 
L 150.458863 118.259167 
L 150.491331 118.227746 
L 151.367986 126.678772 
L 151.432924 126.704303 
L 151.465392 126.650884 
L 151.595267 126.481116 
L 151.855017 128.540766 
L 152.114766 130.018895 
L 152.147235 130.016598 
L 152.244641 129.296188 
L 152.666734 125.199301 
L 153.316108 118.868674 
L 153.640795 116.003461 
L 153.933014 112.992851 
L 154.192763 110.695827 
L 154.582388 108.7634 
L 154.874606 105.384245 
L 154.972012 105.552123 
L 155.101887 106.120583 
L 155.361637 107.101696 
L 155.394105 107.090199 
L 155.459043 107.033428 
L 155.653855 108.147887 
L 155.751261 107.917623 
L 155.978542 105.877287 
L 156.238291 102.452542 
L 156.757791 94.52598 
L 156.985072 93.303682 
L 157.082478 93.191902 
L 157.114946 93.221021 
L 157.244821 93.404058 
L 157.27729 93.343601 
L 157.407165 92.53856 
L 157.601977 91.480443 
L 157.634446 91.491829 
L 157.731852 91.868761 
L 158.056539 93.170007 
L 158.348757 94.049292 
L 158.543569 95.616593 
L 158.77085 97.421517 
L 158.835788 97.351642 
L 158.965662 96.767909 
L 159.192943 94.483326 
L 159.485162 92.089901 
L 159.647505 91.983585 
L 159.744911 91.934452 
L 159.77738 91.989173 
L 159.939723 92.286848 
L 159.972192 92.254158 
L 160.134536 91.689134 
L 160.361817 89.456818 
L 160.816378 83.758352 
L 161.173534 80.762773 
L 161.563158 79.368058 
L 161.822908 78.294153 
L 161.952783 77.948158 
L 162.796969 74.235798 
L 163.056719 74.092851 
L 163.543749 72.139263 
L 163.738561 71.606961 
L 164.322998 70.685856 
L 164.745091 69.550635 
L 165.03731 68.834421 
L 165.329528 66.936063 
L 165.589277 65.822337 
L 165.751621 65.419202 
L 165.816558 65.457332 
L 166.011371 65.581687 
L 166.173714 65.40941 
L 166.758151 64.057786 
L 167.115306 63.033975 
L 167.407525 62.507872 
L 167.927024 61.285778 
L 168.121836 61.415059 
L 168.478992 61.71993 
L 168.868616 61.581993 
L 169.095897 60.905456 
L 169.615396 59.206826 
L 169.77774 59.32374 
L 170.102427 59.552471 
L 170.26477 59.382098 
L 170.492051 58.729363 
L 170.881676 57.637765 
L 171.206363 57.431888 
L 172.01808 57.178088 
L 172.342767 57.016548 
L 172.829798 56.875412 
L 173.186954 56.412335 
L 173.576578 56.003694 
L 173.933734 55.997215 
L 174.258421 55.925677 
L 174.583108 55.559485 
L 175.005201 55.15338 
L 175.297419 55.217407 
L 175.654575 55.238475 
L 176.466292 54.974451 
L 176.920854 55.099627 
L 177.27801 54.879026 
L 177.765041 54.62834 
L 178.544289 54.349987 
L 179.063789 54.184034 
L 180.459943 54.121269 
L 181.239192 54.007304 
L 182.700283 53.910079 
L 183.219782 53.919876 
L 183.934094 53.940513 
L 184.875686 53.897701 
L 199.616477 53.601093 
L 205.233562 53.60153 
L 216.857357 53.579299 
L 255.754861 53.568607 
L 398.487273 53.568002 
L 398.487273 53.568002 
" clip-path="url(#pcd7ee7cf99)" style="fill: none; stroke: #000000; stroke-width: 1.5; stroke-linecap: square"/>
   </g>
   <g id="line2d_14">
    <path d="M 73.832727 279.100846 
L 74.060008 277.141203 
L 74.547039 276.590722 
L 74.741851 274.41339 
L 75.358756 266.336694 
L 75.780849 264.041166 
L 76.235411 262.000165 
L 76.365286 261.964216 
L 76.527629 261.724136 
L 76.657504 261.347755 
L 77.01466 259.772432 
L 77.177004 260.014261 
L 77.988721 263.37636 
L 78.151065 263.565103 
L 78.378345 264.549529 
L 78.638095 265.473473 
L 78.735501 265.904076 
L 79.060188 268.212389 
L 79.936843 271.894985 
L 80.164124 272.125676 
L 80.196593 272.008754 
L 80.618686 271.393198 
L 80.716092 271.190535 
L 81.040779 269.618984 
L 81.105716 269.744487 
L 81.235591 270.817097 
L 81.820028 277.59321 
L 81.884965 277.608934 
L 81.917434 277.55104 
L 82.339527 276.409798 
L 82.436933 276.406588 
L 82.534339 275.831277 
L 82.891495 271.321297 
L 83.605806 263.260553 
L 83.898025 262.418273 
L 83.962962 262.476574 
L 84.222712 263.392675 
L 84.449993 263.515113 
L 84.51493 263.61102 
L 84.807148 265.068492 
L 84.872086 264.826207 
L 85.131835 262.773957 
L 85.294179 262.090143 
L 85.359116 262.249429 
L 85.748741 263.412271 
L 86.235771 264.281168 
L 86.333177 263.837272 
L 86.885145 260.259534 
L 86.917614 260.288405 
L 86.982551 260.886322 
L 87.242301 263.48506 
L 87.307238 263.57009 
L 87.339707 263.531647 
L 87.469582 263.211115 
L 87.631925 262.025278 
L 88.346237 254.79966 
L 88.573518 253.379594 
L 88.735861 253.639744 
L 89.060548 255.956575 
L 89.677454 261.4599 
L 89.742391 261.532923 
L 89.77486 261.484318 
L 89.937203 261.027763 
L 90.359296 265.094013 
L 90.846327 269.953715 
L 90.943733 270.112819 
L 90.976202 270.081608 
L 91.171014 269.466479 
L 91.463232 268.25018 
L 91.52817 268.499619 
L 91.658044 268.827612 
L 91.690513 268.809846 
L 91.820388 268.382881 
L 92.112606 267.248704 
L 92.469762 267.237826 
L 93.086667 271.57285 
L 93.151605 271.452441 
L 93.50876 272.526619 
L 93.573698 272.571181 
L 93.606166 272.503833 
L 93.736041 271.579147 
L 93.995791 269.59956 
L 94.190603 270.328597 
L 94.547759 271.864181 
L 94.677634 272.136792 
L 94.710102 272.116425 
L 94.872446 271.647391 
L 94.969852 271.88617 
L 95.52182 272.404547 
L 95.554289 272.369166 
L 95.716632 271.737399 
L 95.976382 271.117447 
L 96.041319 271.094563 
L 96.073788 271.137233 
L 96.333537 271.715244 
L 96.366006 271.666403 
L 96.52835 270.776708 
L 96.820568 268.055575 
L 97.664754 261.157895 
L 98.02191 259.173195 
L 98.314128 258.319108 
L 98.573878 259.313971 
L 98.638815 259.225116 
L 98.736221 259.086082 
L 98.76869 259.167098 
L 98.995971 259.526718 
L 99.093377 259.731178 
L 99.158314 259.644527 
L 99.710282 258.395694 
L 100.132375 259.882214 
L 100.164844 259.861669 
L 100.294719 259.479665 
L 100.781749 257.453329 
L 100.814218 257.472321 
L 100.879156 257.491411 
L 101.203843 258.705095 
L 101.366186 258.65933 
L 101.496061 258.657025 
L 101.658404 259.128439 
L 101.820748 260.275782 
L 102.27531 264.331873 
L 102.405185 264.500165 
L 102.437653 264.47264 
L 102.567528 264.236887 
L 102.729872 263.661251 
L 102.76234 263.725855 
L 102.924684 264.415613 
L 103.249371 265.684944 
L 103.671464 267.055305 
L 103.866276 267.715098 
L 103.963682 267.618025 
L 104.158494 266.5433 
L 105.327368 259.719951 
L 105.587117 259.033774 
L 106.171554 262.385168 
L 106.755991 266.074322 
L 107.080678 268.289566 
L 107.307958 268.893677 
L 107.502771 269.192267 
L 107.665114 269.202209 
L 107.730052 269.144028 
L 107.859926 268.520688 
L 108.087207 267.199563 
L 108.282019 266.659862 
L 108.801519 262.311888 
L 109.321018 258.416561 
L 109.385955 258.117206 
L 109.450893 258.195037 
L 109.51583 258.355125 
L 109.77558 259.293124 
L 109.905455 259.464092 
L 110.002861 259.56462 
L 110.035329 259.508023 
L 110.132735 259.154994 
L 111.00939 250.795317 
L 111.463952 244.492867 
L 111.52889 244.531925 
L 111.658764 245.301985 
L 112.243201 249.197841 
L 112.438013 249.465209 
L 112.502951 249.540237 
L 112.957512 252.391905 
L 113.282199 255.637037 
L 113.639355 256.886843 
L 113.834167 257.322912 
L 113.899105 257.212478 
L 114.093917 255.653627 
L 114.678354 249.653662 
L 115.132915 245.411017 
L 115.295259 245.117143 
L 115.360196 245.378717 
L 115.619946 246.569896 
L 115.684883 246.614 
L 115.717352 246.577583 
L 115.847227 246.541009 
L 116.042039 246.513037 
L 116.139445 246.558732 
L 116.52907 247.084106 
L 116.821288 246.763499 
L 116.951163 246.10838 
L 117.210912 244.911632 
L 117.373256 244.479021 
L 117.405725 244.545785 
L 117.535599 245.637194 
L 118.184973 252.861045 
L 118.412254 253.489564 
L 119.02916 256.644834 
L 119.094097 256.479522 
L 119.678534 254.368954 
L 119.77594 254.078376 
L 120.912344 248.341756 
L 120.977282 248.548689 
L 121.301969 249.545466 
L 121.334437 249.516289 
L 121.496781 249.008853 
L 121.659124 248.136587 
L 121.983811 246.523448 
L 122.048749 246.497945 
L 122.081218 246.549633 
L 122.243561 247.385536 
L 122.633186 249.396964 
L 122.698123 249.288101 
L 122.957873 247.566126 
L 123.444903 244.890682 
L 123.477372 244.976437 
L 124.094277 248.436362 
L 124.224152 249.548915 
L 124.613776 253.146279 
L 124.808588 253.88862 
L 124.873526 253.805912 
L 125.068338 253.447248 
L 125.295619 251.804027 
L 125.815118 245.996294 
L 126.561898 235.50238 
L 126.594367 235.407659 
L 126.659304 235.488266 
L 126.789179 236.189238 
L 127.406085 240.535921 
L 127.471022 240.515983 
L 127.633366 240.374928 
L 127.730772 240.023882 
L 128.152865 237.98584 
L 128.445083 238.151418 
L 128.607427 238.97543 
L 128.639895 238.963141 
L 128.76977 238.39636 
L 129.094457 235.712568 
L 129.354207 233.565907 
L 129.451613 233.724912 
L 129.646425 234.819332 
L 129.873706 237.42132 
L 130.26333 241.074783 
L 130.393205 241.164525 
L 130.52308 240.875088 
L 130.78283 238.990919 
L 131.562078 231.4789 
L 131.594547 231.484761 
L 132.114046 233.515508 
L 132.406265 237.449925 
L 132.666014 239.815123 
L 132.958233 240.290431 
L 133.055639 240.528367 
L 133.185513 241.394744 
L 133.76995 246.20966 
L 133.834887 246.148954 
L 133.997231 245.45703 
L 134.354387 243.575611 
L 134.386855 243.606093 
L 134.484262 243.553574 
L 134.711542 243.073856 
L 134.744011 243.293307 
L 134.873886 243.606394 
L 134.906355 243.575506 
L 135.101167 242.578582 
L 135.588197 239.612585 
L 135.718072 239.822078 
L 135.847947 240.693797 
L 136.302509 243.574741 
L 136.367446 243.470013 
L 136.984352 240.265386 
L 137.373976 237.382369 
L 137.471382 237.360428 
L 137.503851 237.401033 
L 137.698663 238.077375 
L 138.2831 242.046404 
L 138.412974 241.781674 
L 138.477912 241.916438 
L 138.607787 241.979145 
L 138.77013 241.931875 
L 138.900005 241.618439 
L 138.964942 241.692266 
L 139.127286 242.323828 
L 139.77666 245.477602 
L 139.971472 246.509363 
L 140.166284 247.256457 
L 140.880596 248.416508 
L 141.042939 248.476033 
L 141.205283 248.658371 
L 141.562438 249.926134 
L 141.627376 249.816571 
L 142.049469 248.158366 
L 142.146875 248.387977 
L 143.575498 263.42174 
L 143.867716 266.142536 
L 144.192403 269.285074 
L 145.166464 280.235043 
L 145.361276 280.958533 
L 145.556089 280.943295 
L 145.78337 280.51158 
L 146.010651 279.322687 
L 146.205463 278.420154 
L 146.465212 279.632011 
L 147.309399 286.258836 
L 148.056179 291.775727 
L 148.153585 291.879704 
L 148.186054 291.794965 
L 148.608147 290.407654 
L 148.802959 290.369459 
L 148.900365 290.658002 
L 149.160115 291.470904 
L 149.257521 291.218412 
L 149.744551 289.229514 
L 149.77702 289.27038 
L 149.906895 289.349271 
L 149.939363 289.323659 
L 150.231582 288.762079 
L 150.491331 287.706857 
L 150.5238 287.852913 
L 151.400455 291.778109 
L 151.822548 292.88261 
L 152.309579 294.658127 
L 152.406985 294.937182 
L 152.53686 295.461422 
L 152.569328 295.306201 
L 152.861547 291.877122 
L 153.121296 290.05081 
L 153.186234 289.948123 
L 153.218702 289.971448 
L 153.348577 290.413633 
L 153.933014 292.785538 
L 153.997951 292.810804 
L 154.160295 292.077455 
L 155.101887 287.040892 
L 155.134356 287.053892 
L 155.329168 287.178206 
L 155.556449 288.258514 
L 155.848667 289.51619 
L 156.595447 292.635178 
L 157.01754 295.231029 
L 157.050009 295.435501 
L 157.082478 295.114066 
L 157.439633 292.559648 
L 158.056539 289.878742 
L 158.186414 290.137962 
L 158.738381 292.641891 
L 159.0306 294.834248 
L 159.160475 295.478707 
L 159.192943 295.403775 
L 159.290349 295.294052 
L 159.322818 295.313418 
L 159.452693 295.453695 
L 159.485162 295.384077 
L 159.77738 294.990986 
L 160.26441 294.540255 
L 160.459223 294.725892 
L 160.816378 295.072821 
L 161.108597 294.992311 
L 161.400815 294.851741 
L 161.985252 294.494905 
L 162.439813 294.844834 
L 162.667094 294.575687 
L 162.926844 293.913873 
L 163.186594 293.495416 
L 163.348937 293.557523 
L 163.543749 294.000122 
L 163.900905 295.452042 
L 163.965842 295.214996 
L 164.355467 293.856506 
L 164.647685 293.090247 
L 165.394465 290.613306 
L 165.719152 290.19272 
L 165.946433 290.155346 
L 166.141245 290.303573 
L 166.465932 290.954773 
L 167.732212 295.152611 
L 167.797149 295.454469 
L 167.862087 295.231949 
L 168.251711 294.021947 
L 168.414054 293.904239 
L 168.543929 294.108434 
L 168.803679 295.100474 
L 168.901085 295.420615 
L 168.933554 295.270242 
L 169.582928 292.824965 
L 170.134896 291.617358 
L 170.52452 291.191831 
L 170.78427 291.161505 
L 171.141425 291.751545 
L 171.628456 293.104642 
L 172.212893 294.473417 
L 172.570048 294.870708 
L 172.797329 294.848185 
L 173.02461 294.57762 
L 173.414235 293.68736 
L 174.063609 292.290261 
L 174.355827 292.133419 
L 174.648045 292.253863 
L 175.03767 292.711339 
L 175.816918 294.082383 
L 176.401355 294.900806 
L 176.823448 295.131498 
L 177.407885 295.156493 
L 178.089728 294.995318 
L 178.641695 294.573699 
L 179.291069 294.141583 
L 179.648225 294.161532 
L 180.330068 294.526692 
L 180.719692 294.565211 
L 181.076848 294.349389 
L 182.050909 293.580174 
L 182.375596 293.683856 
L 182.797689 294.120455 
L 183.609407 294.993078 
L 183.966562 295.043937 
L 184.388656 294.846293 
L 185.265311 294.391061 
L 185.752341 294.427145 
L 186.53159 294.773273 
L 187.765401 295.242771 
L 188.544649 295.369124 
L 189.096617 295.215694 
L 190.52524 294.624707 
L 190.979802 294.811573 
L 192.116207 295.427131 
L 192.603237 295.377956 
L 193.187674 295.37157 
L 194.681234 294.600598 
L 195.200733 294.671846 
L 196.726762 295.070649 
L 197.408605 294.836559 
L 198.187854 294.622383 
L 198.739822 294.722747 
L 200.298319 295.189031 
L 201.077568 295.016087 
L 202.246441 294.777026 
L 203.610127 294.801089 
L 211.240272 295.039484 
L 213.642956 295.013176 
L 217.474262 295.027039 
L 219.03276 295.024674 
L 220.753601 294.979155 
L 223.058879 295.048696 
L 225.03947 295.083423 
L 226.825248 295.107225 
L 229.357807 295.081656 
L 235.624266 295.01248 
L 240.884196 295.104127 
L 254.228832 295.126217 
L 259.943324 295.162702 
L 264.943504 295.164343 
L 274.749052 295.212577 
L 286.145566 295.264562 
L 321.861137 295.331892 
L 350.368657 295.361664 
L 398.487273 295.407466 
L 398.487273 295.407466 
" clip-path="url(#pcd7ee7cf99)" style="fill: none; stroke: #ff0000; stroke-width: 1.5; stroke-linecap: square"/>
   </g>
   <g id="patch_3">
    <path d="M 57.6 307.584 
L 57.6 41.472 
" style="fill: none; stroke: #000000; stroke-width: 0.8; stroke-linejoin: miter; stroke-linecap: square"/>
   </g>
   <g id="patch_4">
    <path d="M 414.72 307.584 
L 414.72 41.472 
" style="fill: none; stroke: #000000; stroke-width: 0.8; stroke-linejoin: miter; stroke-linecap: square"/>
   </g>
   <g id="patch_5">
    <path d="M 57.6 307.584 
L 414.72 307.584 
" style="fill: none; stroke: #000000; stroke-width: 0.8; stroke-linejoin: miter; stroke-linecap: square"/>
   </g>
   <g id="patch_6">
    <path d="M 57.6 41.472 
L 414.72 41.472 
" style="fill: none; stroke: #000000; stroke-width: 0.8; stroke-linejoin: miter; stroke-linecap: square"/>
   </g>
   <g id="text_15">
    <!-- Quantities over time -->
    <g transform="translate(143.26875 35.472) scale(0.16 -0.16)">
     <defs>
      <path id="DejaVuSans-Bold-51" d="M 2847 -84 
L 2753 -84 
Q 1600 -84 959 553 
Q 319 1191 319 2328 
Q 319 3463 958 4106 
Q 1597 4750 2719 4750 
Q 3853 4750 4486 4112 
Q 5119 3475 5119 2328 
Q 5119 1541 4783 972 
Q 4447 403 3816 116 
L 4756 -934 
L 3609 -934 
L 2847 -84 
z
M 2719 3878 
Q 2169 3878 1866 3472 
Q 1563 3066 1563 2328 
Q 1563 1578 1859 1179 
Q 2156 781 2719 781 
Q 3272 781 3575 1187 
Q 3878 1594 3878 2328 
Q 3878 3066 3575 3472 
Q 3272 3878 2719 3878 
z
" transform="scale(0.015625)"/>
      <path id="DejaVuSans-Bold-75" d="M 500 1363 
L 500 3500 
L 1625 3500 
L 1625 3150 
Q 1625 2866 1622 2436 
Q 1619 2006 1619 1863 
Q 1619 1441 1641 1255 
Q 1663 1069 1716 984 
Q 1784 875 1895 815 
Q 2006 756 2150 756 
Q 2500 756 2700 1025 
Q 2900 1294 2900 1772 
L 2900 3500 
L 4019 3500 
L 4019 0 
L 2900 0 
L 2900 506 
Q 2647 200 2364 54 
Q 2081 -91 1741 -91 
Q 1134 -91 817 281 
Q 500 653 500 1363 
z
" transform="scale(0.015625)"/>
      <path id="DejaVuSans-Bold-61" d="M 2106 1575 
Q 1756 1575 1579 1456 
Q 1403 1338 1403 1106 
Q 1403 894 1545 773 
Q 1688 653 1941 653 
Q 2256 653 2472 879 
Q 2688 1106 2688 1447 
L 2688 1575 
L 2106 1575 
z
M 3816 1997 
L 3816 0 
L 2688 0 
L 2688 519 
Q 2463 200 2181 54 
Q 1900 -91 1497 -91 
Q 953 -91 614 226 
Q 275 544 275 1050 
Q 275 1666 698 1953 
Q 1122 2241 2028 2241 
L 2688 2241 
L 2688 2328 
Q 2688 2594 2478 2717 
Q 2269 2841 1825 2841 
Q 1466 2841 1156 2769 
Q 847 2697 581 2553 
L 581 3406 
Q 941 3494 1303 3539 
Q 1666 3584 2028 3584 
Q 2975 3584 3395 3211 
Q 3816 2838 3816 1997 
z
" transform="scale(0.015625)"/>
      <path id="DejaVuSans-Bold-6e" d="M 4056 2131 
L 4056 0 
L 2931 0 
L 2931 347 
L 2931 1631 
Q 2931 2084 2911 2256 
Q 2891 2428 2841 2509 
Q 2775 2619 2662 2680 
Q 2550 2741 2406 2741 
Q 2056 2741 1856 2470 
Q 1656 2200 1656 1722 
L 1656 0 
L 538 0 
L 538 3500 
L 1656 3500 
L 1656 2988 
Q 1909 3294 2193 3439 
Q 2478 3584 2822 3584 
Q 3428 3584 3742 3212 
Q 4056 2841 4056 2131 
z
" transform="scale(0.015625)"/>
      <path id="DejaVuSans-Bold-74" d="M 1759 4494 
L 1759 3500 
L 2913 3500 
L 2913 2700 
L 1759 2700 
L 1759 1216 
Q 1759 972 1856 886 
Q 1953 800 2241 800 
L 2816 800 
L 2816 0 
L 1856 0 
Q 1194 0 917 276 
Q 641 553 641 1216 
L 641 2700 
L 84 2700 
L 84 3500 
L 641 3500 
L 641 4494 
L 1759 4494 
z
" transform="scale(0.015625)"/>
      <path id="DejaVuSans-Bold-69" d="M 538 3500 
L 1656 3500 
L 1656 0 
L 538 0 
L 538 3500 
z
M 538 4863 
L 1656 4863 
L 1656 3950 
L 538 3950 
L 538 4863 
z
" transform="scale(0.015625)"/>
      <path id="DejaVuSans-Bold-65" d="M 4031 1759 
L 4031 1441 
L 1416 1441 
Q 1456 1047 1700 850 
Q 1944 653 2381 653 
Q 2734 653 3104 758 
Q 3475 863 3866 1075 
L 3866 213 
Q 3469 63 3072 -14 
Q 2675 -91 2278 -91 
Q 1328 -91 801 392 
Q 275 875 275 1747 
Q 275 2603 792 3093 
Q 1309 3584 2216 3584 
Q 3041 3584 3536 3087 
Q 4031 2591 4031 1759 
z
M 2881 2131 
Q 2881 2450 2695 2645 
Q 2509 2841 2209 2841 
Q 1884 2841 1681 2658 
Q 1478 2475 1428 2131 
L 2881 2131 
z
" transform="scale(0.015625)"/>
      <path id="DejaVuSans-Bold-73" d="M 3272 3391 
L 3272 2541 
Q 2913 2691 2578 2766 
Q 2244 2841 1947 2841 
Q 1628 2841 1473 2761 
Q 1319 2681 1319 2516 
Q 1319 2381 1436 2309 
Q 1553 2238 1856 2203 
L 2053 2175 
Q 2913 2066 3209 1816 
Q 3506 1566 3506 1031 
Q 3506 472 3093 190 
Q 2681 -91 1863 -91 
Q 1516 -91 1145 -36 
Q 775 19 384 128 
L 384 978 
Q 719 816 1070 734 
Q 1422 653 1784 653 
Q 2113 653 2278 743 
Q 2444 834 2444 1013 
Q 2444 1163 2330 1236 
Q 2216 1309 1875 1350 
L 1678 1375 
Q 931 1469 631 1722 
Q 331 1975 331 2491 
Q 331 3047 712 3315 
Q 1094 3584 1881 3584 
Q 2191 3584 2531 3537 
Q 2872 3491 3272 3391 
z
" transform="scale(0.015625)"/>
      <path id="DejaVuSans-Bold-20" transform="scale(0.015625)"/>
      <path id="DejaVuSans-Bold-6f" d="M 2203 2784 
Q 1831 2784 1636 2517 
Q 1441 2250 1441 1747 
Q 1441 1244 1636 976 
Q 1831 709 2203 709 
Q 2569 709 2762 976 
Q 2956 1244 2956 1747 
Q 2956 2250 2762 2517 
Q 2569 2784 2203 2784 
z
M 2203 3584 
Q 3106 3584 3614 3096 
Q 4122 2609 4122 1747 
Q 4122 884 3614 396 
Q 3106 -91 2203 -91 
Q 1297 -91 786 396 
Q 275 884 275 1747 
Q 275 2609 786 3096 
Q 1297 3584 2203 3584 
z
" transform="scale(0.015625)"/>
      <path id="DejaVuSans-Bold-76" d="M 97 3500 
L 1216 3500 
L 2088 1081 
L 2956 3500 
L 4078 3500 
L 2700 0 
L 1472 0 
L 97 3500 
z
" transform="scale(0.015625)"/>
      <path id="DejaVuSans-Bold-72" d="M 3138 2547 
Q 2991 2616 2845 2648 
Q 2700 2681 2553 2681 
Q 2122 2681 1889 2404 
Q 1656 2128 1656 1613 
L 1656 0 
L 538 0 
L 538 3500 
L 1656 3500 
L 1656 2925 
Q 1872 3269 2151 3426 
Q 2431 3584 2822 3584 
Q 2878 3584 2943 3579 
Q 3009 3575 3134 3559 
L 3138 2547 
z
" transform="scale(0.015625)"/>
      <path id="DejaVuSans-Bold-6d" d="M 3781 2919 
Q 3994 3244 4286 3414 
Q 4578 3584 4928 3584 
Q 5531 3584 5847 3212 
Q 6163 2841 6163 2131 
L 6163 0 
L 5038 0 
L 5038 1825 
Q 5041 1866 5042 1909 
Q 5044 1953 5044 2034 
Q 5044 2406 4934 2573 
Q 4825 2741 4581 2741 
Q 4263 2741 4089 2478 
Q 3916 2216 3909 1719 
L 3909 0 
L 2784 0 
L 2784 1825 
Q 2784 2406 2684 2573 
Q 2584 2741 2328 2741 
Q 2006 2741 1831 2477 
Q 1656 2213 1656 1722 
L 1656 0 
L 531 0 
L 531 3500 
L 1656 3500 
L 1656 2988 
Q 1863 3284 2130 3434 
Q 2397 3584 2719 3584 
Q 3081 3584 3359 3409 
Q 3638 3234 3781 2919 
z
" transform="scale(0.015625)"/>
     </defs>
     <use xlink:href="#DejaVuSans-Bold-51"/>
     <use xlink:href="#DejaVuSans-Bold-75" transform="translate(85.009766 0)"/>
     <use xlink:href="#DejaVuSans-Bold-61" transform="translate(156.201172 0)"/>
     <use xlink:href="#DejaVuSans-Bold-6e" transform="translate(223.681641 0)"/>
     <use xlink:href="#DejaVuSans-Bold-74" transform="translate(294.873047 0)"/>
     <use xlink:href="#DejaVuSans-Bold-69" transform="translate(342.675781 0)"/>
     <use xlink:href="#DejaVuSans-Bold-74" transform="translate(376.953125 0)"/>
     <use xlink:href="#DejaVuSans-Bold-69" transform="translate(424.755859 0)"/>
     <use xlink:href="#DejaVuSans-Bold-65" transform="translate(459.033203 0)"/>
     <use xlink:href="#DejaVuSans-Bold-73" transform="translate(526.855469 0)"/>
     <use xlink:href="#DejaVuSans-Bold-20" transform="translate(586.376953 0)"/>
     <use xlink:href="#DejaVuSans-Bold-6f" transform="translate(621.191406 0)"/>
     <use xlink:href="#DejaVuSans-Bold-76" transform="translate(689.892578 0)"/>
     <use xlink:href="#DejaVuSans-Bold-65" transform="translate(755.078125 0)"/>
     <use xlink:href="#DejaVuSans-Bold-72" transform="translate(822.900391 0)"/>
     <use xlink:href="#DejaVuSans-Bold-20" transform="translate(872.216797 0)"/>
     <use xlink:href="#DejaVuSans-Bold-74" transform="translate(907.03125 0)"/>
     <use xlink:href="#DejaVuSans-Bold-69" transform="translate(954.833984 0)"/>
     <use xlink:href="#DejaVuSans-Bold-6d" transform="translate(989.111328 0)"/>
     <use xlink:href="#DejaVuSans-Bold-65" transform="translate(1093.310547 0)"/>
    </g>
   </g>
   <g id="legend_1">
    <g id="patch_7">
     <path d="M 64.6 78.82825 
L 154.673438 78.82825 
Q 156.673438 78.82825 156.673438 76.82825 
L 156.673438 48.472 
Q 156.673438 46.472 154.673438 46.472 
L 64.6 46.472 
Q 62.6 46.472 62.6 48.472 
L 62.6 76.82825 
Q 62.6 78.82825 64.6 78.82825 
z
" style="fill: #ffffff; opacity: 0.8; stroke: #cccccc; stroke-linejoin: miter"/>
    </g>
    <g id="line2d_15">
     <path d="M 66.6 54.570437 
L 76.6 54.570437 
L 86.6 54.570437 
" style="fill: none; stroke: #000000; stroke-width: 1.5; stroke-linecap: square"/>
    </g>
    <g id="text_16">
     <!-- Polarisation -->
     <g transform="translate(94.6 58.070437) scale(0.1 -0.1)">
      <defs>
       <path id="DejaVuSans-50" d="M 1259 4147 
L 1259 2394 
L 2053 2394 
Q 2494 2394 2734 2622 
Q 2975 2850 2975 3272 
Q 2975 3691 2734 3919 
Q 2494 4147 2053 4147 
L 1259 4147 
z
M 628 4666 
L 2053 4666 
Q 2838 4666 3239 4311 
Q 3641 3956 3641 3272 
Q 3641 2581 3239 2228 
Q 2838 1875 2053 1875 
L 1259 1875 
L 1259 0 
L 628 0 
L 628 4666 
z
" transform="scale(0.015625)"/>
       <path id="DejaVuSans-6f" d="M 1959 3097 
Q 1497 3097 1228 2736 
Q 959 2375 959 1747 
Q 959 1119 1226 758 
Q 1494 397 1959 397 
Q 2419 397 2687 759 
Q 2956 1122 2956 1747 
Q 2956 2369 2687 2733 
Q 2419 3097 1959 3097 
z
M 1959 3584 
Q 2709 3584 3137 3096 
Q 3566 2609 3566 1747 
Q 3566 888 3137 398 
Q 2709 -91 1959 -91 
Q 1206 -91 779 398 
Q 353 888 353 1747 
Q 353 2609 779 3096 
Q 1206 3584 1959 3584 
z
" transform="scale(0.015625)"/>
       <path id="DejaVuSans-6c" d="M 603 4863 
L 1178 4863 
L 1178 0 
L 603 0 
L 603 4863 
z
" transform="scale(0.015625)"/>
       <path id="DejaVuSans-72" d="M 2631 2963 
Q 2534 3019 2420 3045 
Q 2306 3072 2169 3072 
Q 1681 3072 1420 2755 
Q 1159 2438 1159 1844 
L 1159 0 
L 581 0 
L 581 3500 
L 1159 3500 
L 1159 2956 
Q 1341 3275 1631 3429 
Q 1922 3584 2338 3584 
Q 2397 3584 2469 3576 
Q 2541 3569 2628 3553 
L 2631 2963 
z
" transform="scale(0.015625)"/>
      </defs>
      <use xlink:href="#DejaVuSans-50"/>
      <use xlink:href="#DejaVuSans-6f" transform="translate(56.677734 0)"/>
      <use xlink:href="#DejaVuSans-6c" transform="translate(117.859375 0)"/>
      <use xlink:href="#DejaVuSans-61" transform="translate(145.642578 0)"/>
      <use xlink:href="#DejaVuSans-72" transform="translate(206.921875 0)"/>
      <use xlink:href="#DejaVuSans-69" transform="translate(248.035156 0)"/>
      <use xlink:href="#DejaVuSans-73" transform="translate(275.818359 0)"/>
      <use xlink:href="#DejaVuSans-61" transform="translate(327.917969 0)"/>
      <use xlink:href="#DejaVuSans-74" transform="translate(389.197266 0)"/>
      <use xlink:href="#DejaVuSans-69" transform="translate(428.40625 0)"/>
      <use xlink:href="#DejaVuSans-6f" transform="translate(456.189453 0)"/>
      <use xlink:href="#DejaVuSans-6e" transform="translate(517.371094 0)"/>
     </g>
    </g>
    <g id="line2d_16">
     <path d="M 66.6 69.248562 
L 76.6 69.248562 
L 86.6 69.248562 
" style="fill: none; stroke: #ff0000; stroke-width: 1.5; stroke-linecap: square"/>
    </g>
    <g id="text_17">
     <!-- Momentum -->
     <g transform="translate(94.6 72.748562) scale(0.1 -0.1)">
      <defs>
       <path id="DejaVuSans-4d" d="M 628 4666 
L 1569 4666 
L 2759 1491 
L 3956 4666 
L 4897 4666 
L 4897 0 
L 4281 0 
L 4281 4097 
L 3078 897 
L 2444 897 
L 1241 4097 
L 1241 0 
L 628 0 
L 628 4666 
z
" transform="scale(0.015625)"/>
      </defs>
      <use xlink:href="#DejaVuSans-4d"/>
      <use xlink:href="#DejaVuSans-6f" transform="translate(86.279297 0)"/>
      <use xlink:href="#DejaVuSans-6d" transform="translate(147.460938 0)"/>
      <use xlink:href="#DejaVuSans-65" transform="translate(244.873047 0)"/>
      <use xlink:href="#DejaVuSans-6e" transform="translate(306.396484 0)"/>
      <use xlink:href="#DejaVuSans-74" transform="translate(369.775391 0)"/>
      <use xlink:href="#DejaVuSans-75" transform="translate(408.984375 0)"/>
      <use xlink:href="#DejaVuSans-6d" transform="translate(472.363281 0)"/>
     </g>
    </g>
   </g>
  </g>
 </g>
 <defs>
  <clipPath id="pcd7ee7cf99">
   <rect x="57.6" y="41.472" width="357.12" height="266.112"/>
  </clipPath>
 </defs>
</svg>
