<?xml version="1.0" encoding="utf-8" standalone="no"?>
<!DOCTYPE svg PUBLIC "-//W3C//DTD SVG 1.1//EN"
  "http://www.w3.org/Graphics/SVG/1.1/DTD/svg11.dtd">
<svg xmlns:xlink="http://www.w3.org/1999/xlink" width="460.8pt" height="345.6pt" viewBox="0 0 460.8 345.6" xmlns="http://www.w3.org/2000/svg" version="1.1">
 <metadata>
  <rdf:RDF xmlns:dc="http://purl.org/dc/elements/1.1/" xmlns:cc="http://creativecommons.org/ns#" xmlns:rdf="http://www.w3.org/1999/02/22-rdf-syntax-ns#">
   <cc:Work>
    <dc:type rdf:resource="http://purl.org/dc/dcmitype/StillImage"/>
    <dc:date>2025-05-05T23:08:15.815913</dc:date>
    <dc:format>image/svg+xml</dc:format>
    <dc:creator>
     <cc:Agent>
      <dc:title>Matplotlib v3.10.1, https://matplotlib.org/</dc:title>
     </cc:Agent>
    </dc:creator>
   </cc:Work>
  </rdf:RDF>
 </metadata>
 <defs>
  <style type="text/css">*{stroke-linejoin: round; stroke-linecap: butt}</style>
 </defs>
 <g id="figure_1">
  <g id="patch_1">
   <path d="M 0 345.6 
L 460.8 345.6 
L 460.8 0 
L 0 0 
z
" style="fill: #ffffff"/>
  </g>
  <g id="axes_1">
   <g id="patch_2">
    <path d="M 57.6 307.584 
L 414.72 307.584 
L 414.72 41.472 
L 57.6 41.472 
z
" style="fill: #ffffff"/>
   </g>
   <g id="matplotlib.axis_1">
    <g id="xtick_1">
     <g id="line2d_1">
      <defs>
       <path id="m4d77d222c2" d="M 0 0 
L 0 3.5 
" style="stroke: #000000; stroke-width: 0.8"/>
      </defs>
      <g>
       <use xlink:href="#m4d77d222c2" x="73.832727" y="307.584" style="stroke: #000000; stroke-width: 0.8"/>
      </g>
     </g>
     <g id="text_1">
      <!-- 0 -->
      <g transform="translate(70.015227 323.702125) scale(0.12 -0.12)">
       <defs>
        <path id="DejaVuSans-30" d="M 2034 4250 
Q 1547 4250 1301 3770 
Q 1056 3291 1056 2328 
Q 1056 1369 1301 889 
Q 1547 409 2034 409 
Q 2525 409 2770 889 
Q 3016 1369 3016 2328 
Q 3016 3291 2770 3770 
Q 2525 4250 2034 4250 
z
M 2034 4750 
Q 2819 4750 3233 4129 
Q 3647 3509 3647 2328 
Q 3647 1150 3233 529 
Q 2819 -91 2034 -91 
Q 1250 -91 836 529 
Q 422 1150 422 2328 
Q 422 3509 836 4129 
Q 1250 4750 2034 4750 
z
" transform="scale(0.015625)"/>
       </defs>
       <use xlink:href="#DejaVuSans-30"/>
      </g>
     </g>
    </g>
    <g id="xtick_2">
     <g id="line2d_2">
      <g>
       <use xlink:href="#m4d77d222c2" x="138.77013" y="307.584" style="stroke: #000000; stroke-width: 0.8"/>
      </g>
     </g>
     <g id="text_2">
      <!-- 2000 -->
      <g transform="translate(123.50013 323.702125) scale(0.12 -0.12)">
       <defs>
        <path id="DejaVuSans-32" d="M 1228 531 
L 3431 531 
L 3431 0 
L 469 0 
L 469 531 
Q 828 903 1448 1529 
Q 2069 2156 2228 2338 
Q 2531 2678 2651 2914 
Q 2772 3150 2772 3378 
Q 2772 3750 2511 3984 
Q 2250 4219 1831 4219 
Q 1534 4219 1204 4116 
Q 875 4013 500 3803 
L 500 4441 
Q 881 4594 1212 4672 
Q 1544 4750 1819 4750 
Q 2544 4750 2975 4387 
Q 3406 4025 3406 3419 
Q 3406 3131 3298 2873 
Q 3191 2616 2906 2266 
Q 2828 2175 2409 1742 
Q 1991 1309 1228 531 
z
" transform="scale(0.015625)"/>
       </defs>
       <use xlink:href="#DejaVuSans-32"/>
       <use xlink:href="#DejaVuSans-30" transform="translate(63.623047 0)"/>
       <use xlink:href="#DejaVuSans-30" transform="translate(127.246094 0)"/>
       <use xlink:href="#DejaVuSans-30" transform="translate(190.869141 0)"/>
      </g>
     </g>
    </g>
    <g id="xtick_3">
     <g id="line2d_3">
      <g>
       <use xlink:href="#m4d77d222c2" x="203.707533" y="307.584" style="stroke: #000000; stroke-width: 0.8"/>
      </g>
     </g>
     <g id="text_3">
      <!-- 4000 -->
      <g transform="translate(188.437533 323.702125) scale(0.12 -0.12)">
       <defs>
        <path id="DejaVuSans-34" d="M 2419 4116 
L 825 1625 
L 2419 1625 
L 2419 4116 
z
M 2253 4666 
L 3047 4666 
L 3047 1625 
L 3713 1625 
L 3713 1100 
L 3047 1100 
L 3047 0 
L 2419 0 
L 2419 1100 
L 313 1100 
L 313 1709 
L 2253 4666 
z
" transform="scale(0.015625)"/>
       </defs>
       <use xlink:href="#DejaVuSans-34"/>
       <use xlink:href="#DejaVuSans-30" transform="translate(63.623047 0)"/>
       <use xlink:href="#DejaVuSans-30" transform="translate(127.246094 0)"/>
       <use xlink:href="#DejaVuSans-30" transform="translate(190.869141 0)"/>
      </g>
     </g>
    </g>
    <g id="xtick_4">
     <g id="line2d_4">
      <g>
       <use xlink:href="#m4d77d222c2" x="268.644936" y="307.584" style="stroke: #000000; stroke-width: 0.8"/>
      </g>
     </g>
     <g id="text_4">
      <!-- 6000 -->
      <g transform="translate(253.374936 323.702125) scale(0.12 -0.12)">
       <defs>
        <path id="DejaVuSans-36" d="M 2113 2584 
Q 1688 2584 1439 2293 
Q 1191 2003 1191 1497 
Q 1191 994 1439 701 
Q 1688 409 2113 409 
Q 2538 409 2786 701 
Q 3034 994 3034 1497 
Q 3034 2003 2786 2293 
Q 2538 2584 2113 2584 
z
M 3366 4563 
L 3366 3988 
Q 3128 4100 2886 4159 
Q 2644 4219 2406 4219 
Q 1781 4219 1451 3797 
Q 1122 3375 1075 2522 
Q 1259 2794 1537 2939 
Q 1816 3084 2150 3084 
Q 2853 3084 3261 2657 
Q 3669 2231 3669 1497 
Q 3669 778 3244 343 
Q 2819 -91 2113 -91 
Q 1303 -91 875 529 
Q 447 1150 447 2328 
Q 447 3434 972 4092 
Q 1497 4750 2381 4750 
Q 2619 4750 2861 4703 
Q 3103 4656 3366 4563 
z
" transform="scale(0.015625)"/>
       </defs>
       <use xlink:href="#DejaVuSans-36"/>
       <use xlink:href="#DejaVuSans-30" transform="translate(63.623047 0)"/>
       <use xlink:href="#DejaVuSans-30" transform="translate(127.246094 0)"/>
       <use xlink:href="#DejaVuSans-30" transform="translate(190.869141 0)"/>
      </g>
     </g>
    </g>
    <g id="xtick_5">
     <g id="line2d_5">
      <g>
       <use xlink:href="#m4d77d222c2" x="333.582339" y="307.584" style="stroke: #000000; stroke-width: 0.8"/>
      </g>
     </g>
     <g id="text_5">
      <!-- 8000 -->
      <g transform="translate(318.312339 323.702125) scale(0.12 -0.12)">
       <defs>
        <path id="DejaVuSans-38" d="M 2034 2216 
Q 1584 2216 1326 1975 
Q 1069 1734 1069 1313 
Q 1069 891 1326 650 
Q 1584 409 2034 409 
Q 2484 409 2743 651 
Q 3003 894 3003 1313 
Q 3003 1734 2745 1975 
Q 2488 2216 2034 2216 
z
M 1403 2484 
Q 997 2584 770 2862 
Q 544 3141 544 3541 
Q 544 4100 942 4425 
Q 1341 4750 2034 4750 
Q 2731 4750 3128 4425 
Q 3525 4100 3525 3541 
Q 3525 3141 3298 2862 
Q 3072 2584 2669 2484 
Q 3125 2378 3379 2068 
Q 3634 1759 3634 1313 
Q 3634 634 3220 271 
Q 2806 -91 2034 -91 
Q 1263 -91 848 271 
Q 434 634 434 1313 
Q 434 1759 690 2068 
Q 947 2378 1403 2484 
z
M 1172 3481 
Q 1172 3119 1398 2916 
Q 1625 2713 2034 2713 
Q 2441 2713 2670 2916 
Q 2900 3119 2900 3481 
Q 2900 3844 2670 4047 
Q 2441 4250 2034 4250 
Q 1625 4250 1398 4047 
Q 1172 3844 1172 3481 
z
" transform="scale(0.015625)"/>
       </defs>
       <use xlink:href="#DejaVuSans-38"/>
       <use xlink:href="#DejaVuSans-30" transform="translate(63.623047 0)"/>
       <use xlink:href="#DejaVuSans-30" transform="translate(127.246094 0)"/>
       <use xlink:href="#DejaVuSans-30" transform="translate(190.869141 0)"/>
      </g>
     </g>
    </g>
    <g id="xtick_6">
     <g id="line2d_6">
      <g>
       <use xlink:href="#m4d77d222c2" x="398.519741" y="307.584" style="stroke: #000000; stroke-width: 0.8"/>
      </g>
     </g>
     <g id="text_6">
      <!-- 10000 -->
      <g transform="translate(379.432241 323.702125) scale(0.12 -0.12)">
       <defs>
        <path id="DejaVuSans-31" d="M 794 531 
L 1825 531 
L 1825 4091 
L 703 3866 
L 703 4441 
L 1819 4666 
L 2450 4666 
L 2450 531 
L 3481 531 
L 3481 0 
L 794 0 
L 794 531 
z
" transform="scale(0.015625)"/>
       </defs>
       <use xlink:href="#DejaVuSans-31"/>
       <use xlink:href="#DejaVuSans-30" transform="translate(63.623047 0)"/>
       <use xlink:href="#DejaVuSans-30" transform="translate(127.246094 0)"/>
       <use xlink:href="#DejaVuSans-30" transform="translate(190.869141 0)"/>
       <use xlink:href="#DejaVuSans-30" transform="translate(254.492188 0)"/>
      </g>
     </g>
    </g>
    <g id="text_7">
     <!-- timestep -->
     <g transform="translate(205.203594 340.835562) scale(0.14 -0.14)">
      <defs>
       <path id="DejaVuSans-74" d="M 1172 4494 
L 1172 3500 
L 2356 3500 
L 2356 3053 
L 1172 3053 
L 1172 1153 
Q 1172 725 1289 603 
Q 1406 481 1766 481 
L 2356 481 
L 2356 0 
L 1766 0 
Q 1100 0 847 248 
Q 594 497 594 1153 
L 594 3053 
L 172 3053 
L 172 3500 
L 594 3500 
L 594 4494 
L 1172 4494 
z
" transform="scale(0.015625)"/>
       <path id="DejaVuSans-69" d="M 603 3500 
L 1178 3500 
L 1178 0 
L 603 0 
L 603 3500 
z
M 603 4863 
L 1178 4863 
L 1178 4134 
L 603 4134 
L 603 4863 
z
" transform="scale(0.015625)"/>
       <path id="DejaVuSans-6d" d="M 3328 2828 
Q 3544 3216 3844 3400 
Q 4144 3584 4550 3584 
Q 5097 3584 5394 3201 
Q 5691 2819 5691 2113 
L 5691 0 
L 5113 0 
L 5113 2094 
Q 5113 2597 4934 2840 
Q 4756 3084 4391 3084 
Q 3944 3084 3684 2787 
Q 3425 2491 3425 1978 
L 3425 0 
L 2847 0 
L 2847 2094 
Q 2847 2600 2669 2842 
Q 2491 3084 2119 3084 
Q 1678 3084 1418 2786 
Q 1159 2488 1159 1978 
L 1159 0 
L 581 0 
L 581 3500 
L 1159 3500 
L 1159 2956 
Q 1356 3278 1631 3431 
Q 1906 3584 2284 3584 
Q 2666 3584 2933 3390 
Q 3200 3197 3328 2828 
z
" transform="scale(0.015625)"/>
       <path id="DejaVuSans-65" d="M 3597 1894 
L 3597 1613 
L 953 1613 
Q 991 1019 1311 708 
Q 1631 397 2203 397 
Q 2534 397 2845 478 
Q 3156 559 3463 722 
L 3463 178 
Q 3153 47 2828 -22 
Q 2503 -91 2169 -91 
Q 1331 -91 842 396 
Q 353 884 353 1716 
Q 353 2575 817 3079 
Q 1281 3584 2069 3584 
Q 2775 3584 3186 3129 
Q 3597 2675 3597 1894 
z
M 3022 2063 
Q 3016 2534 2758 2815 
Q 2500 3097 2075 3097 
Q 1594 3097 1305 2825 
Q 1016 2553 972 2059 
L 3022 2063 
z
" transform="scale(0.015625)"/>
       <path id="DejaVuSans-73" d="M 2834 3397 
L 2834 2853 
Q 2591 2978 2328 3040 
Q 2066 3103 1784 3103 
Q 1356 3103 1142 2972 
Q 928 2841 928 2578 
Q 928 2378 1081 2264 
Q 1234 2150 1697 2047 
L 1894 2003 
Q 2506 1872 2764 1633 
Q 3022 1394 3022 966 
Q 3022 478 2636 193 
Q 2250 -91 1575 -91 
Q 1294 -91 989 -36 
Q 684 19 347 128 
L 347 722 
Q 666 556 975 473 
Q 1284 391 1588 391 
Q 1994 391 2212 530 
Q 2431 669 2431 922 
Q 2431 1156 2273 1281 
Q 2116 1406 1581 1522 
L 1381 1569 
Q 847 1681 609 1914 
Q 372 2147 372 2553 
Q 372 3047 722 3315 
Q 1072 3584 1716 3584 
Q 2034 3584 2315 3537 
Q 2597 3491 2834 3397 
z
" transform="scale(0.015625)"/>
       <path id="DejaVuSans-70" d="M 1159 525 
L 1159 -1331 
L 581 -1331 
L 581 3500 
L 1159 3500 
L 1159 2969 
Q 1341 3281 1617 3432 
Q 1894 3584 2278 3584 
Q 2916 3584 3314 3078 
Q 3713 2572 3713 1747 
Q 3713 922 3314 415 
Q 2916 -91 2278 -91 
Q 1894 -91 1617 61 
Q 1341 213 1159 525 
z
M 3116 1747 
Q 3116 2381 2855 2742 
Q 2594 3103 2138 3103 
Q 1681 3103 1420 2742 
Q 1159 2381 1159 1747 
Q 1159 1113 1420 752 
Q 1681 391 2138 391 
Q 2594 391 2855 752 
Q 3116 1113 3116 1747 
z
" transform="scale(0.015625)"/>
      </defs>
      <use xlink:href="#DejaVuSans-74"/>
      <use xlink:href="#DejaVuSans-69" transform="translate(39.208984 0)"/>
      <use xlink:href="#DejaVuSans-6d" transform="translate(66.992188 0)"/>
      <use xlink:href="#DejaVuSans-65" transform="translate(164.404297 0)"/>
      <use xlink:href="#DejaVuSans-73" transform="translate(225.927734 0)"/>
      <use xlink:href="#DejaVuSans-74" transform="translate(278.027344 0)"/>
      <use xlink:href="#DejaVuSans-65" transform="translate(317.236328 0)"/>
      <use xlink:href="#DejaVuSans-70" transform="translate(378.759766 0)"/>
     </g>
    </g>
   </g>
   <g id="matplotlib.axis_2">
    <g id="ytick_1">
     <g id="line2d_7">
      <defs>
       <path id="m59112f4359" d="M 0 0 
L -3.5 0 
" style="stroke: #000000; stroke-width: 0.8"/>
      </defs>
      <g>
       <use xlink:href="#m59112f4359" x="57.6" y="296.721269" style="stroke: #000000; stroke-width: 0.8"/>
      </g>
     </g>
     <g id="text_8">
      <!-- −1.00 -->
      <g transform="translate(13.825625 301.280332) scale(0.12 -0.12)">
       <defs>
        <path id="DejaVuSans-2212" d="M 678 2272 
L 4684 2272 
L 4684 1741 
L 678 1741 
L 678 2272 
z
" transform="scale(0.015625)"/>
        <path id="DejaVuSans-2e" d="M 684 794 
L 1344 794 
L 1344 0 
L 684 0 
L 684 794 
z
" transform="scale(0.015625)"/>
       </defs>
       <use xlink:href="#DejaVuSans-2212"/>
       <use xlink:href="#DejaVuSans-31" transform="translate(83.789062 0)"/>
       <use xlink:href="#DejaVuSans-2e" transform="translate(147.412109 0)"/>
       <use xlink:href="#DejaVuSans-30" transform="translate(179.199219 0)"/>
       <use xlink:href="#DejaVuSans-30" transform="translate(242.822266 0)"/>
      </g>
     </g>
    </g>
    <g id="ytick_2">
     <g id="line2d_8">
      <g>
       <use xlink:href="#m59112f4359" x="57.6" y="266.161861" style="stroke: #000000; stroke-width: 0.8"/>
      </g>
     </g>
     <g id="text_9">
      <!-- −0.75 -->
      <g transform="translate(13.825625 270.720923) scale(0.12 -0.12)">
       <defs>
        <path id="DejaVuSans-37" d="M 525 4666 
L 3525 4666 
L 3525 4397 
L 1831 0 
L 1172 0 
L 2766 4134 
L 525 4134 
L 525 4666 
z
" transform="scale(0.015625)"/>
        <path id="DejaVuSans-35" d="M 691 4666 
L 3169 4666 
L 3169 4134 
L 1269 4134 
L 1269 2991 
Q 1406 3038 1543 3061 
Q 1681 3084 1819 3084 
Q 2600 3084 3056 2656 
Q 3513 2228 3513 1497 
Q 3513 744 3044 326 
Q 2575 -91 1722 -91 
Q 1428 -91 1123 -41 
Q 819 9 494 109 
L 494 744 
Q 775 591 1075 516 
Q 1375 441 1709 441 
Q 2250 441 2565 725 
Q 2881 1009 2881 1497 
Q 2881 1984 2565 2268 
Q 2250 2553 1709 2553 
Q 1456 2553 1204 2497 
Q 953 2441 691 2322 
L 691 4666 
z
" transform="scale(0.015625)"/>
       </defs>
       <use xlink:href="#DejaVuSans-2212"/>
       <use xlink:href="#DejaVuSans-30" transform="translate(83.789062 0)"/>
       <use xlink:href="#DejaVuSans-2e" transform="translate(147.412109 0)"/>
       <use xlink:href="#DejaVuSans-37" transform="translate(179.199219 0)"/>
       <use xlink:href="#DejaVuSans-35" transform="translate(242.822266 0)"/>
      </g>
     </g>
    </g>
    <g id="ytick_3">
     <g id="line2d_9">
      <g>
       <use xlink:href="#m59112f4359" x="57.6" y="235.602452" style="stroke: #000000; stroke-width: 0.8"/>
      </g>
     </g>
     <g id="text_10">
      <!-- −0.50 -->
      <g transform="translate(13.825625 240.161514) scale(0.12 -0.12)">
       <use xlink:href="#DejaVuSans-2212"/>
       <use xlink:href="#DejaVuSans-30" transform="translate(83.789062 0)"/>
       <use xlink:href="#DejaVuSans-2e" transform="translate(147.412109 0)"/>
       <use xlink:href="#DejaVuSans-35" transform="translate(179.199219 0)"/>
       <use xlink:href="#DejaVuSans-30" transform="translate(242.822266 0)"/>
      </g>
     </g>
    </g>
    <g id="ytick_4">
     <g id="line2d_10">
      <g>
       <use xlink:href="#m59112f4359" x="57.6" y="205.043043" style="stroke: #000000; stroke-width: 0.8"/>
      </g>
     </g>
     <g id="text_11">
      <!-- −0.25 -->
      <g transform="translate(13.825625 209.602106) scale(0.12 -0.12)">
       <use xlink:href="#DejaVuSans-2212"/>
       <use xlink:href="#DejaVuSans-30" transform="translate(83.789062 0)"/>
       <use xlink:href="#DejaVuSans-2e" transform="translate(147.412109 0)"/>
       <use xlink:href="#DejaVuSans-32" transform="translate(179.199219 0)"/>
       <use xlink:href="#DejaVuSans-35" transform="translate(242.822266 0)"/>
      </g>
     </g>
    </g>
    <g id="ytick_5">
     <g id="line2d_11">
      <g>
       <use xlink:href="#m59112f4359" x="57.6" y="174.483635" style="stroke: #000000; stroke-width: 0.8"/>
      </g>
     </g>
     <g id="text_12">
      <!-- 0.00 -->
      <g transform="translate(23.88125 179.042697) scale(0.12 -0.12)">
       <use xlink:href="#DejaVuSans-30"/>
       <use xlink:href="#DejaVuSans-2e" transform="translate(63.623047 0)"/>
       <use xlink:href="#DejaVuSans-30" transform="translate(95.410156 0)"/>
       <use xlink:href="#DejaVuSans-30" transform="translate(159.033203 0)"/>
      </g>
     </g>
    </g>
    <g id="ytick_6">
     <g id="line2d_12">
      <g>
       <use xlink:href="#m59112f4359" x="57.6" y="143.924226" style="stroke: #000000; stroke-width: 0.8"/>
      </g>
     </g>
     <g id="text_13">
      <!-- 0.25 -->
      <g transform="translate(23.88125 148.483289) scale(0.12 -0.12)">
       <use xlink:href="#DejaVuSans-30"/>
       <use xlink:href="#DejaVuSans-2e" transform="translate(63.623047 0)"/>
       <use xlink:href="#DejaVuSans-32" transform="translate(95.410156 0)"/>
       <use xlink:href="#DejaVuSans-35" transform="translate(159.033203 0)"/>
      </g>
     </g>
    </g>
    <g id="ytick_7">
     <g id="line2d_13">
      <g>
       <use xlink:href="#m59112f4359" x="57.6" y="113.364817" style="stroke: #000000; stroke-width: 0.8"/>
      </g>
     </g>
     <g id="text_14">
      <!-- 0.50 -->
      <g transform="translate(23.88125 117.92388) scale(0.12 -0.12)">
       <use xlink:href="#DejaVuSans-30"/>
       <use xlink:href="#DejaVuSans-2e" transform="translate(63.623047 0)"/>
       <use xlink:href="#DejaVuSans-35" transform="translate(95.410156 0)"/>
       <use xlink:href="#DejaVuSans-30" transform="translate(159.033203 0)"/>
      </g>
     </g>
    </g>
    <g id="ytick_8">
     <g id="line2d_14">
      <g>
       <use xlink:href="#m59112f4359" x="57.6" y="82.805409" style="stroke: #000000; stroke-width: 0.8"/>
      </g>
     </g>
     <g id="text_15">
      <!-- 0.75 -->
      <g transform="translate(23.88125 87.364471) scale(0.12 -0.12)">
       <use xlink:href="#DejaVuSans-30"/>
       <use xlink:href="#DejaVuSans-2e" transform="translate(63.623047 0)"/>
       <use xlink:href="#DejaVuSans-37" transform="translate(95.410156 0)"/>
       <use xlink:href="#DejaVuSans-35" transform="translate(159.033203 0)"/>
      </g>
     </g>
    </g>
    <g id="ytick_9">
     <g id="line2d_15">
      <g>
       <use xlink:href="#m59112f4359" x="57.6" y="52.246" style="stroke: #000000; stroke-width: 0.8"/>
      </g>
     </g>
     <g id="text_16">
      <!-- 1.00 -->
      <g transform="translate(23.88125 56.805063) scale(0.12 -0.12)">
       <use xlink:href="#DejaVuSans-31"/>
       <use xlink:href="#DejaVuSans-2e" transform="translate(63.623047 0)"/>
       <use xlink:href="#DejaVuSans-30" transform="translate(95.410156 0)"/>
       <use xlink:href="#DejaVuSans-30" transform="translate(159.033203 0)"/>
      </g>
     </g>
    </g>
    <g id="text_17">
     <!-- opinion -->
     <g transform="translate(6.914062 200.300031) rotate(-90) scale(0.14 -0.14)">
      <defs>
       <path id="DejaVuSans-6f" d="M 1959 3097 
Q 1497 3097 1228 2736 
Q 959 2375 959 1747 
Q 959 1119 1226 758 
Q 1494 397 1959 397 
Q 2419 397 2687 759 
Q 2956 1122 2956 1747 
Q 2956 2369 2687 2733 
Q 2419 3097 1959 3097 
z
M 1959 3584 
Q 2709 3584 3137 3096 
Q 3566 2609 3566 1747 
Q 3566 888 3137 398 
Q 2709 -91 1959 -91 
Q 1206 -91 779 398 
Q 353 888 353 1747 
Q 353 2609 779 3096 
Q 1206 3584 1959 3584 
z
" transform="scale(0.015625)"/>
       <path id="DejaVuSans-6e" d="M 3513 2113 
L 3513 0 
L 2938 0 
L 2938 2094 
Q 2938 2591 2744 2837 
Q 2550 3084 2163 3084 
Q 1697 3084 1428 2787 
Q 1159 2491 1159 1978 
L 1159 0 
L 581 0 
L 581 3500 
L 1159 3500 
L 1159 2956 
Q 1366 3272 1645 3428 
Q 1925 3584 2291 3584 
Q 2894 3584 3203 3211 
Q 3513 2838 3513 2113 
z
" transform="scale(0.015625)"/>
      </defs>
      <use xlink:href="#DejaVuSans-6f"/>
      <use xlink:href="#DejaVuSans-70" transform="translate(61.181641 0)"/>
      <use xlink:href="#DejaVuSans-69" transform="translate(124.658203 0)"/>
      <use xlink:href="#DejaVuSans-6e" transform="translate(152.441406 0)"/>
      <use xlink:href="#DejaVuSans-69" transform="translate(215.820312 0)"/>
      <use xlink:href="#DejaVuSans-6f" transform="translate(243.603516 0)"/>
      <use xlink:href="#DejaVuSans-6e" transform="translate(304.785156 0)"/>
     </g>
    </g>
   </g>
   <g id="line2d_16">
    <path d="M 73.832727 143.097453 
L 74.77432 145.40579 
L 75.26135 147.226936 
L 76.105536 149.987231 
L 76.819848 151.145778 
L 77.501691 151.645059 
L 77.923784 151.570367 
L 78.313408 151.847682 
L 80.196593 152.668864 
L 80.975842 153.132723 
L 82.079777 154.137849 
L 82.76162 154.928162 
L 83.216182 155.254072 
L 84.644805 156.156691 
L 85.781209 156.145464 
L 86.820208 156.000889 
L 87.631925 156.158183 
L 88.054018 156.778459 
L 88.963142 159.079535 
L 89.644985 161.302422 
L 91.106076 167.583215 
L 91.430763 170.208858 
L 91.982731 177.0206 
L 92.729511 185.640841 
L 93.541229 192.411115 
L 94.320478 197.613125 
L 95.586757 203.234281 
L 96.495881 206.639584 
L 97.76216 210.394295 
L 98.995971 213.035344 
L 99.77522 214.179985 
L 100.684343 215.187823 
L 101.593467 215.864208 
L 102.957152 216.565447 
L 104.02862 216.840298 
L 109.0288 217.624075 
L 111.821108 217.817295 
L 116.334257 217.902771 
L 132.828358 217.93279 
L 398.487273 217.932999 
L 398.487273 217.932999 
" clip-path="url(#p6f94b4f28d)" style="fill: none; stroke: #0000ff; stroke-opacity: 0.2; stroke-width: 1.5; stroke-linecap: square"/>
   </g>
   <g id="line2d_17">
    <path d="M 73.832727 145.548842 
L 74.384695 145.222023 
L 75.228881 144.641348 
L 76.430223 145.011359 
L 78.086127 145.879773 
L 79.060188 147.321159 
L 79.51475 148.385533 
L 80.553748 151.307664 
L 81.332997 153.181699 
L 82.534339 154.900819 
L 83.540869 156.423214 
L 85.618866 161.602364 
L 86.300709 164.147293 
L 87.177364 167.157504 
L 87.664394 168.164599 
L 88.313768 170.287545 
L 88.930673 172.924614 
L 89.580047 175.612597 
L 90.716452 182.448423 
L 93.443823 201.894767 
L 93.995791 204.263082 
L 95.229602 207.969492 
L 95.846507 209.170025 
L 96.788099 210.509807 
L 97.632285 211.31671 
L 99.093377 212.600117 
L 100.911624 214.451372 
L 103.087027 216.116625 
L 104.580588 216.799442 
L 106.00921 217.172773 
L 107.924864 217.455496 
L 112.340607 217.769158 
L 116.691413 217.896992 
L 126.691773 217.932317 
L 398.487273 217.932999 
L 398.487273 217.932999 
" clip-path="url(#p6f94b4f28d)" style="fill: none; stroke: #0000ff; stroke-opacity: 0.2; stroke-width: 1.5; stroke-linecap: square"/>
   </g>
   <g id="line2d_18">
    <path d="M 73.832727 293.513867 
L 75.326288 291.005294 
L 75.683443 290.047973 
L 77.404284 283.292595 
L 78.638095 276.707634 
L 80.164124 270.162155 
L 80.781029 268.46249 
L 81.430403 267.097966 
L 81.884965 266.498022 
L 82.891495 265.012606 
L 83.410994 263.685674 
L 84.612336 259.052872 
L 87.664394 247.087922 
L 88.638455 244.653913 
L 90.52164 240.508175 
L 92.307418 233.207265 
L 92.989261 230.304445 
L 93.736041 227.928715 
L 94.839977 225.516021 
L 95.586757 224.292552 
L 97.956972 222.001925 
L 100.684343 219.673223 
L 101.496061 219.355447 
L 102.827278 219.074928 
L 106.463772 218.486763 
L 109.808048 218.08743 
L 113.314668 217.975506 
L 134.321918 217.933193 
L 398.487273 217.932999 
L 398.487273 217.932999 
" clip-path="url(#p6f94b4f28d)" style="fill: none; stroke: #0000ff; stroke-opacity: 0.2; stroke-width: 1.5; stroke-linecap: square"/>
   </g>
   <g id="line2d_19">
    <path d="M 73.832727 177.809959 
L 74.417164 178.83467 
L 74.676914 179.317608 
L 75.26135 180.684766 
L 75.780849 181.791018 
L 76.495161 183.272385 
L 77.599097 185.093716 
L 78.248471 186.579657 
L 79.871906 189.035696 
L 80.683623 190.557081 
L 81.495341 191.023018 
L 81.982371 191.119909 
L 82.27459 191.434483 
L 83.02137 192.724167 
L 84.417524 198.007008 
L 85.294179 202.755238 
L 86.430583 208.921155 
L 87.144895 211.948248 
L 87.664394 213.297584 
L 88.313768 213.860275 
L 88.995611 213.878015 
L 89.807328 213.588155 
L 90.489171 213.654716 
L 91.00867 213.91293 
L 91.398295 214.185244 
L 92.891855 215.816986 
L 94.352947 216.546727 
L 95.229602 216.618536 
L 96.430943 216.780911 
L 99.742751 217.295517 
L 101.398655 217.494653 
L 105.619586 217.622612 
L 109.093737 217.785327 
L 114.126386 217.893963 
L 127.503491 217.932653 
L 398.487273 217.932999 
L 398.487273 217.932999 
" clip-path="url(#p6f94b4f28d)" style="fill: none; stroke: #0000ff; stroke-opacity: 0.2; stroke-width: 1.5; stroke-linecap: square"/>
   </g>
   <g id="line2d_20">
    <path d="M 73.832727 59.629679 
L 74.644445 60.434816 
L 75.001601 60.989223 
L 75.975662 62.559857 
L 76.852317 63.554916 
L 79.287469 66.262494 
L 80.553748 67.946398 
L 81.52781 69.396874 
L 82.27459 70.588688 
L 84.417524 74.584899 
L 85.456522 76.235772 
L 86.495521 77.653161 
L 89.060548 80.176913 
L 89.839797 81.058999 
L 91.495701 83.123726 
L 92.567168 84.063989 
L 93.573698 84.663036 
L 94.807508 85.445493 
L 96.690693 86.7233 
L 98.184253 87.766378 
L 99.612876 88.654414 
L 100.197313 88.871729 
L 101.431123 89.185284 
L 103.216902 89.930617 
L 104.840337 90.837865 
L 106.885865 91.713914 
L 108.671644 92.261817 
L 112.308138 92.781437 
L 117.470662 93.269423 
L 124.418964 93.712469 
L 136.562258 94.231249 
L 155.069418 94.38623 
L 194.616297 94.441583 
L 398.487273 94.438855 
L 398.487273 94.438855 
" clip-path="url(#p6f94b4f28d)" style="fill: none; stroke: #0000ff; stroke-opacity: 0.2; stroke-width: 1.5; stroke-linecap: square"/>
   </g>
   <g id="line2d_21">
    <path d="M 73.832727 273.926465 
L 75.034069 268.760719 
L 75.715912 267.065043 
L 76.884785 264.740167 
L 77.371816 264.262948 
L 77.664034 264.228731 
L 78.638095 263.779633 
L 79.547219 263.187295 
L 80.716092 261.328308 
L 81.495341 259.820082 
L 83.573338 255.026349 
L 84.742211 251.304945 
L 87.826738 238.913118 
L 88.76833 235.990484 
L 89.417704 234.529283 
L 90.748921 231.633096 
L 91.560638 229.338613 
L 92.404824 226.405368 
L 92.989261 225.11986 
L 93.898385 223.689865 
L 95.456882 222.4185 
L 96.853037 221.543946 
L 98.50894 220.124663 
L 100.26225 219.096038 
L 101.301249 218.823544 
L 103.249371 218.639551 
L 108.5093 218.265698 
L 112.697763 218.02261 
L 117.957692 217.944216 
L 144.679434 217.933038 
L 398.487273 217.932999 
L 398.487273 217.932999 
" clip-path="url(#p6f94b4f28d)" style="fill: none; stroke: #0000ff; stroke-opacity: 0.2; stroke-width: 1.5; stroke-linecap: square"/>
   </g>
   <g id="line2d_22">
    <path d="M 73.832727 213.839439 
L 74.904194 214.185068 
L 75.228881 213.978544 
L 75.456162 213.969091 
L 75.878255 214.088598 
L 76.300349 213.942403 
L 76.560098 213.949277 
L 77.01466 213.872322 
L 77.664034 213.565663 
L 78.053658 213.457976 
L 79.060188 213.583848 
L 79.287469 214.19241 
L 79.7745 216.174572 
L 80.748561 221.332131 
L 81.52781 225.442556 
L 82.534339 229.490532 
L 83.086307 231.046917 
L 84.0279 232.944128 
L 84.352587 233.184884 
L 84.677274 233.179647 
L 85.164304 232.934938 
L 85.683803 232.413341 
L 86.26824 231.827847 
L 86.852677 231.240784 
L 87.7618 230.438939 
L 88.216362 230.191073 
L 88.735861 229.776867 
L 90.52164 229.237669 
L 91.203483 228.836923 
L 91.593107 228.229606 
L 92.76198 226.009739 
L 93.865916 223.986418 
L 95.554289 220.997958 
L 96.430943 219.996461 
L 97.437473 219.305077 
L 98.606346 218.821682 
L 100.229782 218.428292 
L 102.794809 218.057752 
L 105.067618 217.919349 
L 111.366546 217.915981 
L 196.596887 217.932999 
L 398.487273 217.932999 
L 398.487273 217.932999 
" clip-path="url(#p6f94b4f28d)" style="fill: none; stroke: #0000ff; stroke-opacity: 0.2; stroke-width: 1.5; stroke-linecap: square"/>
   </g>
   <g id="line2d_23">
    <path d="M 73.832727 53.568 
L 75.975662 56.179199 
L 77.047129 57.008436 
L 77.404284 57.437712 
L 78.313408 58.944224 
L 79.904374 61.474122 
L 83.086307 66.0075 
L 86.333177 72.864063 
L 87.112426 74.258255 
L 88.670924 77.025289 
L 90.813858 80.683172 
L 91.950263 82.464574 
L 92.599637 83.173796 
L 93.736041 84.071568 
L 95.911444 85.451775 
L 96.820568 85.740035 
L 98.931033 86.298926 
L 100.099907 86.666776 
L 105.100087 88.941971 
L 106.885865 90.070876 
L 107.859926 90.488655 
L 110.424954 91.308545 
L 113.931574 92.038204 
L 117.535599 92.603605 
L 121.594187 93.130563 
L 126.821648 93.591149 
L 132.893295 93.905016 
L 142.861186 94.190907 
L 157.959133 94.367206 
L 187.01862 94.436213 
L 377.999522 94.438914 
L 398.487273 94.438851 
L 398.487273 94.438851 
" clip-path="url(#p6f94b4f28d)" style="fill: none; stroke: #0000ff; stroke-opacity: 0.2; stroke-width: 1.5; stroke-linecap: square"/>
   </g>
   <g id="line2d_24">
    <path d="M 73.832727 201.117575 
L 74.287289 201.200252 
L 74.741851 200.966622 
L 75.001601 201.042887 
L 75.5211 201.256303 
L 75.748381 201.40184 
L 76.138005 201.566025 
L 76.495161 201.630263 
L 77.923784 202.804982 
L 78.183533 202.776447 
L 79.287469 202.665881 
L 80.326468 202.949215 
L 80.845967 202.744567 
L 81.657684 202.195896 
L 82.469402 201.172697 
L 82.664214 201.120599 
L 82.859026 201.265325 
L 83.573338 202.104748 
L 83.995431 203.199362 
L 85.034429 206.584096 
L 85.911084 209.254445 
L 86.787739 211.002265 
L 87.534519 212.022886 
L 87.989081 212.859945 
L 89.157954 214.9617 
L 90.002141 215.927688 
L 90.489171 216.042726 
L 91.560638 215.825179 
L 92.210012 215.628471 
L 94.02826 215.452083 
L 94.77504 215.716778 
L 95.52182 216.138599 
L 96.788099 216.60021 
L 98.184253 217.123455 
L 99.093377 217.400693 
L 100.327188 217.556975 
L 104.742931 217.728799 
L 116.334257 217.91674 
L 186.27184 217.932999 
L 398.487273 217.932999 
L 398.487273 217.932999 
" clip-path="url(#p6f94b4f28d)" style="fill: none; stroke: #0000ff; stroke-opacity: 0.2; stroke-width: 1.5; stroke-linecap: square"/>
   </g>
   <g id="line2d_25">
    <path d="M 73.832727 219.211833 
L 74.124946 219.160083 
L 74.222352 219.273221 
L 74.839257 220.359344 
L 75.293819 220.75854 
L 76.040599 221.442327 
L 76.884785 221.967698 
L 78.151065 223.75956 
L 78.832907 224.280838 
L 79.384875 224.612228 
L 80.781029 225.945218 
L 81.300529 227.2669 
L 81.884965 229.258527 
L 82.664214 231.043093 
L 83.118776 231.6693 
L 83.443463 232.09009 
L 83.833087 232.404831 
L 83.995431 232.396905 
L 84.385055 232.194516 
L 84.872086 231.586163 
L 85.618866 229.83473 
L 86.495521 227.762982 
L 87.112426 226.499158 
L 87.404644 226.045171 
L 88.281299 225.18884 
L 88.76833 224.756358 
L 89.352767 224.387482 
L 89.872266 224.016519 
L 91.950263 219.668172 
L 92.956792 218.444097 
L 93.638635 217.883993 
L 94.839977 217.207388 
L 95.456882 217.055631 
L 97.242661 217.144186 
L 101.431123 217.623068 
L 105.52218 217.727035 
L 107.697583 217.865512 
L 111.918514 217.917796 
L 156.985072 217.933001 
L 398.487273 217.932999 
L 398.487273 217.932999 
" clip-path="url(#p6f94b4f28d)" style="fill: none; stroke: #0000ff; stroke-opacity: 0.2; stroke-width: 1.5; stroke-linecap: square"/>
   </g>
   <g id="line2d_26">
    <path d="M 73.832727 61.020838 
L 80.196593 69.678822 
L 80.716092 70.506885 
L 82.631745 74.235261 
L 86.495521 79.45342 
L 86.950083 79.801513 
L 87.502051 79.965287 
L 88.638455 80.415562 
L 90.943733 82.790239 
L 91.463232 83.249069 
L 92.469762 83.93374 
L 94.547759 85.074854 
L 96.00885 85.960076 
L 97.924504 87.144895 
L 99.677814 88.002735 
L 102.340247 89.144167 
L 102.989621 89.535978 
L 104.158494 90.178937 
L 106.626116 91.278159 
L 108.833987 92.087211 
L 110.619766 92.535589 
L 115.067978 93.404687 
L 118.412254 93.785262 
L 123.737121 94.108759 
L 131.107517 94.32537 
L 143.478092 94.437874 
L 179.063789 94.45418 
L 398.487273 94.438863 
L 398.487273 94.438863 
" clip-path="url(#p6f94b4f28d)" style="fill: none; stroke: #0000ff; stroke-opacity: 0.2; stroke-width: 1.5; stroke-linecap: square"/>
   </g>
   <g id="line2d_27">
    <path d="M 73.832727 233.924948 
L 74.157414 234.494664 
L 75.163944 236.210613 
L 75.553568 236.415765 
L 75.780849 236.625341 
L 76.105536 236.837824 
L 76.592567 237.091764 
L 76.819848 237.079642 
L 77.306878 237.058951 
L 77.76144 237.232498 
L 78.053658 237.327533 
L 78.443283 237.707927 
L 79.157594 238.983241 
L 80.001781 240.423899 
L 80.391405 240.797689 
L 81.75509 241.672701 
L 82.729151 241.643652 
L 82.891495 241.489572 
L 83.670744 240.326448 
L 84.51493 238.724585 
L 85.391585 237.487844 
L 85.813678 237.159491 
L 86.170834 236.788681 
L 87.177364 235.381273 
L 87.566988 234.678584 
L 88.541049 232.998254 
L 89.547579 231.550355 
L 90.813858 229.763815 
L 91.300889 228.77545 
L 92.632105 224.486491 
L 93.573698 222.109435 
L 94.223072 221.011663 
L 94.904914 220.282486 
L 96.106256 219.829622 
L 97.989441 219.376641 
L 99.25572 218.9957 
L 102.01556 218.190941 
L 103.898745 218.033717 
L 113.866636 217.931085 
L 164.550279 217.933008 
L 398.487273 217.932999 
L 398.487273 217.932999 
" clip-path="url(#p6f94b4f28d)" style="fill: none; stroke: #0000ff; stroke-opacity: 0.2; stroke-width: 1.5; stroke-linecap: square"/>
   </g>
   <g id="line2d_28">
    <path d="M 73.832727 216.228806 
L 74.25482 216.320168 
L 74.547039 216.151034 
L 74.969132 215.956948 
L 75.423694 216.789408 
L 76.170474 218.769391 
L 78.800439 226.15157 
L 79.384875 226.87071 
L 79.677094 226.863579 
L 80.099187 226.387647 
L 80.975842 224.661465 
L 82.534339 221.573659 
L 82.76162 221.569687 
L 83.183713 222.303936 
L 84.612336 226.501368 
L 85.52146 228.206224 
L 86.138365 228.820217 
L 86.690333 228.93376 
L 87.27477 228.882642 
L 87.599457 228.647545 
L 88.183893 228.044398 
L 88.605986 227.836692 
L 89.25536 227.75433 
L 90.294359 227.313772 
L 90.813858 226.848549 
L 91.333357 225.295666 
L 92.210012 222.647699 
L 92.891855 221.290245 
L 93.833447 220.155525 
L 94.352947 219.786517 
L 95.26207 219.428957 
L 97.047849 219.18515 
L 98.931033 218.866308 
L 100.944093 218.408924 
L 102.859746 218.221796 
L 113.606887 217.938207 
L 144.971652 217.932904 
L 398.487273 217.932999 
L 398.487273 217.932999 
" clip-path="url(#p6f94b4f28d)" style="fill: none; stroke: #0000ff; stroke-opacity: 0.2; stroke-width: 1.5; stroke-linecap: square"/>
   </g>
   <g id="line2d_29">
    <path d="M 73.832727 196.303143 
L 74.51457 196.407981 
L 75.293819 195.878516 
L 76.138005 195.419305 
L 76.625036 195.300442 
L 76.852317 195.499191 
L 77.891315 197.186457 
L 79.287469 198.523735 
L 79.709562 198.435173 
L 79.969312 198.493047 
L 80.326468 198.736281 
L 81.332997 199.092528 
L 81.560278 199.043892 
L 82.047309 198.870151 
L 82.664214 198.126546 
L 83.118776 197.725601 
L 83.443463 197.642825 
L 83.865556 198.006393 
L 84.449993 198.745405 
L 85.52146 200.191053 
L 86.333177 202.008583 
L 87.7618 206.800662 
L 88.670924 209.068287 
L 89.190423 210.026619 
L 90.002141 211.540876 
L 90.878796 212.758941 
L 91.333357 213.07237 
L 91.820388 213.440457 
L 92.404824 213.844319 
L 93.671104 214.270018 
L 94.807508 214.881258 
L 95.976382 215.775428 
L 97.340067 216.626747 
L 98.736221 217.101819 
L 100.684343 217.422069 
L 106.463772 217.723161 
L 114.418604 217.918628 
L 143.737841 217.932991 
L 398.487273 217.932999 
L 398.487273 217.932999 
" clip-path="url(#p6f94b4f28d)" style="fill: none; stroke: #0000ff; stroke-opacity: 0.2; stroke-width: 1.5; stroke-linecap: square"/>
   </g>
   <g id="line2d_30">
    <path d="M 73.832727 280.729754 
L 74.319758 279.964396 
L 75.099007 277.725668 
L 75.683443 275.458869 
L 76.852317 271.350152 
L 78.151065 267.706524 
L 79.157594 264.816474 
L 80.293999 261.84035 
L 81.75509 258.663344 
L 83.151245 256.242585 
L 83.898025 254.448781 
L 85.196773 251.976239 
L 85.748741 250.550023 
L 87.01502 246.921845 
L 87.794269 245.024705 
L 88.216362 244.016073 
L 89.157954 241.412126 
L 90.586577 238.088068 
L 92.242481 233.870769 
L 94.288009 226.913321 
L 94.904914 225.544817 
L 96.073788 223.320802 
L 96.950443 222.217775 
L 97.599817 221.686941 
L 100.684343 219.516812 
L 101.593467 219.254208 
L 107.859926 218.38792 
L 112.600357 218.11423 
L 118.444723 217.97574 
L 130.977642 217.9347 
L 394.29881 217.932999 
L 398.487273 217.932999 
L 398.487273 217.932999 
" clip-path="url(#p6f94b4f28d)" style="fill: none; stroke: #0000ff; stroke-opacity: 0.2; stroke-width: 1.5; stroke-linecap: square"/>
   </g>
   <g id="line2d_31">
    <path d="M 73.832727 94.89164 
L 74.189883 94.853235 
L 74.611976 95.157634 
L 76.073068 96.260437 
L 76.787379 97.407741 
L 77.404284 97.69226 
L 77.956252 97.639787 
L 78.897845 96.957328 
L 79.287469 96.889752 
L 80.196593 97.616911 
L 81.982371 99.235866 
L 82.501871 100.039045 
L 83.378525 101.403653 
L 84.352587 102.107069 
L 86.073428 104.686929 
L 86.885145 106.286094 
L 88.411174 109.038387 
L 88.800799 109.241133 
L 89.644985 109.417111 
L 89.904734 109.343615 
L 90.911264 109.47542 
L 91.365826 109.466121 
L 91.690513 109.018429 
L 92.859386 106.760622 
L 94.839977 103.552395 
L 96.203663 101.727716 
L 97.76216 100.246514 
L 102.859746 96.829059 
L 103.541589 96.596096 
L 105.26243 96.187069 
L 110.879516 95.159498 
L 115.912164 94.597895 
L 121.626656 94.416618 
L 123.996871 94.424784 
L 141.107877 94.390565 
L 164.485342 94.402163 
L 259.261481 94.437952 
L 398.487273 94.43869 
L 398.487273 94.43869 
" clip-path="url(#p6f94b4f28d)" style="fill: none; stroke: #0000ff; stroke-opacity: 0.2; stroke-width: 1.5; stroke-linecap: square"/>
   </g>
   <g id="line2d_32">
    <path d="M 73.832727 199.324222 
L 74.417164 199.111559 
L 74.839257 199.152892 
L 75.326288 198.607166 
L 75.748381 198.091783 
L 75.910724 198.060382 
L 76.657504 198.100754 
L 77.144535 198.064283 
L 77.501691 198.320376 
L 78.703032 199.782964 
L 79.092657 199.892794 
L 79.384875 199.83084 
L 81.52781 200.079837 
L 82.923964 199.447582 
L 83.573338 198.386476 
L 84.449993 196.609452 
L 84.807148 197.075694 
L 85.326648 198.137559 
L 86.657864 202.082396 
L 87.27477 204.592081 
L 87.956612 207.253368 
L 88.703393 209.490363 
L 90.164484 213.543294 
L 90.748921 214.423084 
L 91.26842 214.892906 
L 93.865916 216.133261 
L 94.937383 216.679964 
L 95.911444 216.87154 
L 97.27513 216.994527 
L 99.483001 217.206283 
L 101.690873 217.462292 
L 103.963682 217.601173 
L 106.820928 217.723593 
L 112.01592 217.871131 
L 123.834527 217.932111 
L 398.487273 217.932999 
L 398.487273 217.932999 
" clip-path="url(#p6f94b4f28d)" style="fill: none; stroke: #0000ff; stroke-opacity: 0.2; stroke-width: 1.5; stroke-linecap: square"/>
   </g>
   <g id="line2d_33">
    <path d="M 73.832727 261.789184 
L 74.904194 261.844979 
L 75.131475 261.860458 
L 75.618506 261.917213 
L 76.332817 261.997188 
L 77.079597 261.823935 
L 77.371816 261.689009 
L 78.540689 261.114907 
L 79.255 260.491313 
L 80.131655 258.946406 
L 80.975842 257.121468 
L 82.307058 254.432551 
L 82.956432 252.93704 
L 84.25518 250.007134 
L 84.644805 248.81629 
L 85.813678 245.130643 
L 88.151425 238.831442 
L 91.106076 231.676443 
L 92.502231 229.033547 
L 93.606166 227.377692 
L 94.645165 225.713091 
L 96.495881 222.477508 
L 97.924504 220.772851 
L 98.833627 220.067761 
L 99.547939 219.750496 
L 100.846687 219.453678 
L 103.087027 219.003512 
L 104.51565 218.702793 
L 108.054739 218.213626 
L 110.327548 218.065704 
L 120.555189 217.940657 
L 174.842857 217.932999 
L 398.487273 217.932999 
L 398.487273 217.932999 
" clip-path="url(#p6f94b4f28d)" style="fill: none; stroke: #0000ff; stroke-opacity: 0.2; stroke-width: 1.5; stroke-linecap: square"/>
   </g>
   <g id="line2d_34">
    <path d="M 73.832727 152.623864 
L 74.449633 152.086855 
L 75.293819 151.954338 
L 75.878255 152.332685 
L 76.982191 154.51031 
L 77.404284 155.427552 
L 78.183533 156.539588 
L 78.865376 157.314861 
L 79.677094 158.084805 
L 80.131655 158.49678 
L 80.553748 158.722245 
L 81.430403 158.349975 
L 82.209652 157.376243 
L 82.826558 156.789053 
L 83.216182 156.611307 
L 83.962962 156.591172 
L 85.846147 156.626737 
L 86.430583 156.746616 
L 86.852677 156.843775 
L 87.566988 157.669365 
L 88.411174 159.201551 
L 88.963142 160.579013 
L 90.943733 166.228354 
L 91.398295 168.825928 
L 91.625576 171.458608 
L 92.794449 186.617803 
L 93.541229 194.369201 
L 94.352947 200.955358 
L 95.002321 204.647355 
L 95.749101 207.587947 
L 96.593287 210.0539 
L 97.307598 211.460506 
L 98.411534 213.043257 
L 99.742751 214.573709 
L 100.522 215.214684 
L 101.431123 215.733993 
L 102.437653 216.103136 
L 104.51565 216.635483 
L 109.872986 217.614409 
L 112.470482 217.796277 
L 117.795349 217.909936 
L 132.76342 217.93296 
L 398.487273 217.932999 
L 398.487273 217.932999 
" clip-path="url(#p6f94b4f28d)" style="fill: none; stroke: #0000ff; stroke-opacity: 0.2; stroke-width: 1.5; stroke-linecap: square"/>
   </g>
   <g id="line2d_35">
    <path d="M 73.832727 237.223319 
L 74.384695 238.106587 
L 75.326288 239.221218 
L 75.618506 239.288203 
L 76.430223 238.782354 
L 77.209472 238.33002 
L 77.858846 238.431527 
L 78.02119 238.544903 
L 78.605626 238.946616 
L 78.897845 239.184773 
L 79.51475 239.767554 
L 79.709562 239.879359 
L 80.456342 240.190502 
L 80.910904 240.271458 
L 81.462872 240.595266 
L 82.01484 240.649773 
L 82.209652 240.547681 
L 82.696683 239.884457 
L 83.151245 238.845165 
L 85.326648 234.239585 
L 87.469582 231.259932 
L 88.118956 230.503898 
L 88.541049 229.692733 
L 89.677454 228.005372 
L 91.917794 224.882628 
L 94.060728 222.45811 
L 97.567348 219.457145 
L 98.736221 218.979704 
L 101.26878 218.490174 
L 103.249371 218.295505 
L 114.02898 217.96225 
L 128.997051 217.932679 
L 398.487273 217.932999 
L 398.487273 217.932999 
" clip-path="url(#p6f94b4f28d)" style="fill: none; stroke: #0000ff; stroke-opacity: 0.2; stroke-width: 1.5; stroke-linecap: square"/>
   </g>
   <g id="line2d_36">
    <path d="M 73.832727 261.348326 
L 75.618506 257.594885 
L 76.527629 256.577072 
L 76.949723 256.377365 
L 77.566628 255.914211 
L 78.345877 255.171276 
L 79.092657 253.864537 
L 79.482281 252.906774 
L 80.131655 250.860238 
L 80.586217 248.90533 
L 81.852497 244.068291 
L 82.209652 243.496321 
L 82.956432 243.095819 
L 84.677274 241.5799 
L 85.781209 239.787227 
L 87.01502 238.098545 
L 87.372176 237.596539 
L 88.76833 235.436206 
L 89.385235 234.18193 
L 91.463232 229.949377 
L 92.664574 225.645526 
L 93.50876 223.695464 
L 94.417884 222.289235 
L 94.937383 221.751592 
L 97.924504 219.224077 
L 99.483001 218.623566 
L 100.586937 218.387118 
L 103.50912 218.167196 
L 111.821108 217.962967 
L 122.827998 217.93232 
L 398.487273 217.932999 
L 398.487273 217.932999 
" clip-path="url(#p6f94b4f28d)" style="fill: none; stroke: #ff0000; stroke-opacity: 0.2; stroke-width: 1.5; stroke-linecap: square"/>
   </g>
   <g id="line2d_37">
    <path d="M 73.832727 280.510848 
L 74.904194 276.743963 
L 76.26788 271.343146 
L 76.982191 269.136062 
L 82.891495 253.212188 
L 86.365646 241.511457 
L 87.144895 239.052049 
L 88.183893 235.82114 
L 89.352767 233.317192 
L 91.26842 229.622154 
L 91.658044 228.587582 
L 92.112606 227.637762 
L 92.404824 227.366877 
L 92.859386 227.109248 
L 93.865916 226.782006 
L 94.580227 226.431726 
L 95.067258 226.027658 
L 95.619226 225.239712 
L 96.820568 222.924876 
L 97.827098 221.519732 
L 98.444003 220.980579 
L 99.418064 220.602538 
L 102.664934 219.723991 
L 105.619586 218.628582 
L 107.470302 218.35197 
L 110.295079 218.143448 
L 115.879696 217.982448 
L 123.964402 217.93566 
L 228.188934 217.932999 
L 398.487273 217.932999 
L 398.487273 217.932999 
" clip-path="url(#p6f94b4f28d)" style="fill: none; stroke: #ff0000; stroke-opacity: 0.2; stroke-width: 1.5; stroke-linecap: square"/>
   </g>
   <g id="line2d_38">
    <path d="M 73.832727 73.40296 
L 74.384695 74.037038 
L 74.871726 74.286393 
L 76.75491 75.13711 
L 77.664034 75.256684 
L 78.735501 75.292137 
L 80.391405 75.355919 
L 81.00831 75.798345 
L 81.820028 76.825502 
L 83.151245 78.441577 
L 83.833087 79.028443 
L 85.229241 80.017127 
L 86.75527 81.070763 
L 88.703393 82.285605 
L 89.51511 83.071616 
L 91.950263 85.4614 
L 92.729511 85.908832 
L 96.917974 88.089324 
L 98.573878 88.656304 
L 99.060908 88.870738 
L 99.677814 89.049428 
L 103.314308 89.957622 
L 104.418244 90.405397 
L 106.398835 91.360081 
L 108.02227 91.925171 
L 110.717172 92.380418 
L 114.451073 92.86009 
L 117.113506 93.30769 
L 120.717532 93.748201 
L 126.172274 94.118556 
L 133.5102 94.355576 
L 144.971652 94.474663 
L 172.27783 94.478185 
L 310.107467 94.439818 
L 398.487273 94.438903 
L 398.487273 94.438903 
" clip-path="url(#p6f94b4f28d)" style="fill: none; stroke: #ff0000; stroke-opacity: 0.2; stroke-width: 1.5; stroke-linecap: square"/>
   </g>
   <g id="line2d_39">
    <path d="M 73.832727 237.979149 
L 74.222352 237.797753 
L 74.676914 237.756598 
L 75.845787 236.885908 
L 76.430223 236.182126 
L 76.689973 235.566261 
L 77.209472 234.502727 
L 77.728971 234.110491 
L 78.313408 234.673376 
L 79.125126 235.605051 
L 79.839437 236.123062 
L 80.001781 236.091264 
L 80.164124 235.942594 
L 80.293999 235.931915 
L 81.138185 236.158913 
L 82.664214 238.337431 
L 83.378525 239.130307 
L 84.060368 239.640056 
L 84.807148 239.747576 
L 85.26171 239.590342 
L 86.365646 239.078068 
L 86.852677 238.811062 
L 88.50858 238.125541 
L 88.833267 237.667792 
L 89.222892 236.944038 
L 90.002141 235.439582 
L 91.560638 232.63904 
L 92.080137 230.031147 
L 92.989261 226.040043 
L 93.638635 224.030907 
L 94.288009 222.602847 
L 95.132195 221.918315 
L 95.684163 221.719241 
L 98.833627 220.840384 
L 99.710282 220.269513 
L 101.333717 219.197918 
L 102.437653 218.953683 
L 111.041859 218.102404 
L 115.035509 217.999488 
L 128.51002 217.934669 
L 383.486733 217.932999 
L 398.487273 217.932999 
L 398.487273 217.932999 
" clip-path="url(#p6f94b4f28d)" style="fill: none; stroke: #ff0000; stroke-opacity: 0.2; stroke-width: 1.5; stroke-linecap: square"/>
   </g>
   <g id="line2d_40">
    <path d="M 73.832727 172.139574 
L 75.715912 176.52003 
L 76.138005 177.399466 
L 77.144535 178.046903 
L 77.501691 178.043447 
L 78.02119 177.757743 
L 79.969312 176.745034 
L 81.26806 176.561848 
L 81.430403 176.645932 
L 82.891495 178.048459 
L 83.475932 178.224241 
L 83.833087 178.298971 
L 85.034429 178.700309 
L 85.229241 178.919034 
L 85.878615 180.159094 
L 86.170834 180.984988 
L 86.625396 182.680019 
L 87.047489 184.677048 
L 87.924144 189.604304 
L 90.716452 205.471128 
L 91.658044 209.028188 
L 92.697043 211.289258 
L 94.417884 213.615304 
L 95.424414 214.355028 
L 97.924504 216.07383 
L 100.489531 217.075146 
L 103.119496 217.452236 
L 107.827458 217.855971 
L 118.736941 217.923108 
L 164.290529 217.933001 
L 398.487273 217.932999 
L 398.487273 217.932999 
" clip-path="url(#p6f94b4f28d)" style="fill: none; stroke: #ff0000; stroke-opacity: 0.2; stroke-width: 1.5; stroke-linecap: square"/>
   </g>
   <g id="line2d_41">
    <path d="M 73.832727 247.557826 
L 75.488631 245.083066 
L 76.040599 243.911425 
L 76.527629 243.09932 
L 76.852317 243.024841 
L 77.177004 243.14348 
L 77.696503 243.44438 
L 78.540689 244.489954 
L 78.865376 245.020896 
L 79.51475 245.883374 
L 80.618686 246.271904 
L 81.592747 246.000216 
L 82.696683 245.262358 
L 83.995431 243.789956 
L 84.352587 243.033945 
L 84.872086 241.856542 
L 86.138365 238.987556 
L 86.625396 237.501028 
L 87.079957 236.37212 
L 87.794269 235.007042 
L 88.638455 233.8354 
L 88.995611 233.261378 
L 91.463232 227.977495 
L 92.27495 225.357733 
L 93.086667 223.679595 
L 93.865916 222.904423 
L 95.132195 222.678892 
L 96.236131 222.445356 
L 97.502411 221.840076 
L 98.216722 221.279219 
L 100.164844 219.622025 
L 101.041499 219.172476 
L 102.340247 218.783765 
L 105.067618 218.327732 
L 107.372896 218.093041 
L 110.424954 218.008529 
L 121.756531 217.933379 
L 398.487273 217.932999 
L 398.487273 217.932999 
" clip-path="url(#p6f94b4f28d)" style="fill: none; stroke: #ff0000; stroke-opacity: 0.2; stroke-width: 1.5; stroke-linecap: square"/>
   </g>
   <g id="line2d_42">
    <path d="M 73.832727 173.953799 
L 74.579507 175.340373 
L 75.26135 176.245757 
L 76.040599 177.012748 
L 76.170474 176.924566 
L 76.625036 176.670585 
L 77.01466 176.695574 
L 77.404284 176.685194 
L 77.76144 176.751701 
L 78.216002 177.029478 
L 78.735501 177.299111 
L 79.060188 177.393386 
L 79.190063 177.452942 
L 79.612156 177.898015 
L 80.099187 178.717879 
L 80.52128 179.755704 
L 81.235591 181.712778 
L 81.657684 182.320419 
L 82.177184 182.606465 
L 82.501871 183.044739 
L 84.222712 187.831646 
L 84.77468 190.409245 
L 85.813678 197.397258 
L 86.52799 201.902684 
L 87.339707 205.644082 
L 88.054018 208.190043 
L 89.612516 212.345217 
L 90.586577 213.35866 
L 91.203483 213.636214 
L 91.52817 213.73058 
L 92.437293 214.268589 
L 93.249011 214.798868 
L 95.911444 216.886426 
L 96.463412 217.058128 
L 98.898565 217.473052 
L 100.522 217.586807 
L 103.151965 217.705033 
L 105.976742 217.823836 
L 113.379606 217.921011 
L 147.731492 217.933029 
L 398.487273 217.932999 
L 398.487273 217.932999 
" clip-path="url(#p6f94b4f28d)" style="fill: none; stroke: #ff0000; stroke-opacity: 0.2; stroke-width: 1.5; stroke-linecap: square"/>
   </g>
   <g id="line2d_43">
    <path d="M 73.832727 115.540481 
L 74.352226 115.764564 
L 75.196413 116.875987 
L 76.300349 118.406345 
L 76.949723 119.297159 
L 77.534159 119.850071 
L 77.826378 119.93867 
L 78.800439 119.97535 
L 79.092657 119.956134 
L 79.482281 120.238206 
L 80.910904 121.369856 
L 82.144715 120.219423 
L 83.053838 118.986953 
L 84.125306 117.832569 
L 84.709742 116.806795 
L 87.079957 111.812413 
L 88.183893 110.144529 
L 89.222892 109.072277 
L 90.067078 108.390273 
L 90.424234 108.467535 
L 90.651515 108.424619 
L 91.52817 107.785683 
L 91.982731 107.033679 
L 93.054199 105.709399 
L 94.77504 103.996264 
L 96.430943 102.09788 
L 97.534879 101.098929 
L 98.086847 100.792942 
L 108.801519 96.663352 
L 113.866636 95.265317 
L 115.132915 95.12634 
L 119.094097 94.867374 
L 125.815118 94.642667 
L 137.211632 94.513411 
L 168.056899 94.459943 
L 398.487273 94.438863 
L 398.487273 94.438863 
" clip-path="url(#p6f94b4f28d)" style="fill: none; stroke: #ff0000; stroke-opacity: 0.2; stroke-width: 1.5; stroke-linecap: square"/>
   </g>
   <g id="line2d_44">
    <path d="M 73.832727 138.712878 
L 74.839257 142.763279 
L 75.845787 146.736948 
L 77.177004 149.755589 
L 77.566628 150.350193 
L 78.670564 151.743202 
L 79.709562 152.425738 
L 80.099187 152.489509 
L 82.436933 151.725582 
L 83.281119 151.061559 
L 83.605806 151.196422 
L 85.131835 152.178446 
L 86.073428 153.142137 
L 86.722802 154.574467 
L 87.079957 155.616276 
L 87.924144 157.807815 
L 89.77486 160.966576 
L 90.164484 161.542942 
L 90.424234 162.221307 
L 91.365826 167.341655 
L 91.722982 171.503669 
L 92.989261 188.643124 
L 93.638635 194.34873 
L 94.385415 199.184966 
L 95.294539 203.460193 
L 96.203663 206.374852 
L 96.690693 207.373787 
L 101.301249 214.544661 
L 102.502591 215.734487 
L 103.574058 216.506063 
L 104.742931 217.04125 
L 105.911804 217.370125 
L 107.600177 217.592042 
L 111.431484 217.754341 
L 117.860286 217.87845 
L 141.497501 217.932762 
L 398.487273 217.932999 
L 398.487273 217.932999 
" clip-path="url(#p6f94b4f28d)" style="fill: none; stroke: #ff0000; stroke-opacity: 0.2; stroke-width: 1.5; stroke-linecap: square"/>
   </g>
   <g id="line2d_45">
    <path d="M 73.832727 270.119774 
L 74.51457 269.897488 
L 74.936663 269.75917 
L 75.228881 269.562537 
L 76.397755 267.686043 
L 77.144535 266.276332 
L 78.605626 262.286953 
L 79.222532 260.638977 
L 79.969312 257.31928 
L 80.683623 253.913161 
L 81.26806 252.159107 
L 83.346057 249.144306 
L 84.0279 247.761978 
L 84.904554 245.463331 
L 86.040959 242.112083 
L 88.02155 237.831942 
L 89.580047 234.896891 
L 90.52164 233.227129 
L 91.950263 230.448691 
L 92.697043 228.951534 
L 94.645165 225.50988 
L 95.52182 223.820905 
L 97.145255 221.473459 
L 97.956972 220.923201 
L 99.223252 220.503064 
L 102.307778 219.758038 
L 105.26243 218.828178 
L 107.372896 218.456467 
L 110.360016 218.12065 
L 113.996511 218.007547 
L 134.224512 217.932936 
L 398.487273 217.932999 
L 398.487273 217.932999 
" clip-path="url(#p6f94b4f28d)" style="fill: none; stroke: #ff0000; stroke-opacity: 0.2; stroke-width: 1.5; stroke-linecap: square"/>
   </g>
   <g id="line2d_46">
    <path d="M 73.832727 276.115764 
L 74.741851 274.995112 
L 76.397755 273.051515 
L 77.144535 271.736833 
L 77.956252 269.948517 
L 78.897845 266.964002 
L 79.871906 264.692498 
L 83.053838 258.548238 
L 83.930493 255.939313 
L 85.164304 251.419359 
L 85.976022 247.501693 
L 86.75527 244.159298 
L 88.118956 239.294485 
L 90.846327 230.976121 
L 91.430763 229.38086 
L 92.112606 226.913975 
L 92.956792 225.012926 
L 93.638635 224.153704 
L 94.450353 223.679375 
L 96.171194 222.835323 
L 102.210372 219.019217 
L 103.216902 218.83032 
L 106.366366 218.544616 
L 110.002861 218.109495 
L 116.918694 217.95595 
L 138.640255 217.933353 
L 398.487273 217.932999 
L 398.487273 217.932999 
" clip-path="url(#p6f94b4f28d)" style="fill: none; stroke: #ff0000; stroke-opacity: 0.2; stroke-width: 1.5; stroke-linecap: square"/>
   </g>
   <g id="line2d_47">
    <path d="M 73.832727 133.675245 
L 74.77432 135.766337 
L 75.813318 139.926436 
L 77.177004 145.190131 
L 77.858846 146.728603 
L 78.638095 147.981505 
L 80.586217 149.604326 
L 81.560278 149.513629 
L 82.27459 149.116561 
L 82.956432 148.942458 
L 83.540869 149.322512 
L 84.092837 149.835942 
L 84.677274 151.06756 
L 85.326648 152.41773 
L 86.365646 155.484248 
L 87.242301 157.855534 
L 87.956612 159.732023 
L 88.670924 161.259037 
L 89.385235 162.851636 
L 89.807328 163.969774 
L 90.878796 167.409868 
L 91.106076 168.739545 
L 91.560638 173.156315 
L 92.664574 183.078794 
L 93.443823 188.037283 
L 94.450353 192.967186 
L 98.02191 208.883534 
L 98.76869 210.807356 
L 99.51547 212.132824 
L 100.197313 212.952898 
L 101.203843 213.745666 
L 102.340247 214.297304 
L 104.970212 215.541826 
L 106.820928 216.65176 
L 107.794989 217.04075 
L 108.963862 217.266738 
L 114.77576 217.77113 
L 118.866816 217.897073 
L 130.165924 217.932245 
L 398.487273 217.932999 
L 398.487273 217.932999 
" clip-path="url(#p6f94b4f28d)" style="fill: none; stroke: #ff0000; stroke-opacity: 0.2; stroke-width: 1.5; stroke-linecap: square"/>
   </g>
   <g id="line2d_48">
    <path d="M 73.832727 236.465227 
L 74.579507 235.777101 
L 75.099007 235.29372 
L 76.138005 234.79535 
L 76.917254 235.341875 
L 77.339347 236.003612 
L 78.962782 239.359537 
L 79.384875 240.130879 
L 80.164124 241.322364 
L 81.105716 242.108735 
L 81.852497 242.314616 
L 82.501871 242.428265 
L 83.281119 242.216554 
L 83.5084 242.032302 
L 83.930493 241.262744 
L 84.352587 240.307958 
L 84.969492 239.027329 
L 86.203303 236.28801 
L 87.242301 233.83943 
L 88.281299 231.880805 
L 89.093017 230.798478 
L 91.365826 227.634736 
L 91.852857 226.883268 
L 94.125666 224.958942 
L 96.203663 221.501986 
L 96.885505 220.761241 
L 97.859566 220.046968 
L 98.931033 219.583412 
L 100.814218 219.058564 
L 105.165024 218.199908 
L 110.782109 218.045166 
L 121.951343 217.942184 
L 237.962013 217.932999 
L 398.487273 217.932999 
L 398.487273 217.932999 
" clip-path="url(#p6f94b4f28d)" style="fill: none; stroke: #ff0000; stroke-opacity: 0.2; stroke-width: 1.5; stroke-linecap: square"/>
   </g>
   <g id="line2d_49">
    <path d="M 73.832727 108.512327 
L 74.384695 108.446419 
L 75.488631 108.104713 
L 76.592567 107.777676 
L 76.884785 107.725201 
L 77.112066 107.502982 
L 77.988721 106.366885 
L 78.865376 104.658852 
L 79.904374 102.721744 
L 80.553748 101.220096 
L 81.592747 98.688842 
L 81.949903 98.368831 
L 82.339527 98.412715 
L 82.631745 98.792741 
L 83.086307 99.208749 
L 84.51493 99.859064 
L 85.618866 99.723992 
L 86.430583 99.268522 
L 87.339707 99.03713 
L 87.534519 99.023558 
L 87.956612 99.185036 
L 89.287829 100.389989 
L 89.417704 100.311609 
L 90.554109 99.372341 
L 92.826918 97.626747 
L 96.593287 95.771017 
L 98.76869 95.044876 
L 101.203843 94.310125 
L 102.01556 94.238616 
L 107.567708 94.396558 
L 110.814578 94.26201 
L 115.230322 94.022904 
L 117.697943 94.057921 
L 124.678714 94.306735 
L 135.490791 94.427923 
L 166.920494 94.45441 
L 398.487273 94.438862 
L 398.487273 94.438862 
" clip-path="url(#p6f94b4f28d)" style="fill: none; stroke: #ff0000; stroke-opacity: 0.2; stroke-width: 1.5; stroke-linecap: square"/>
   </g>
   <g id="line2d_50">
    <path d="M 73.832727 234.984323 
L 74.287289 234.640051 
L 74.806788 234.307971 
L 75.878255 233.489147 
L 76.170474 233.036876 
L 76.625036 232.332657 
L 77.27441 231.267462 
L 77.534159 231.067089 
L 77.923784 230.882977 
L 78.183533 230.853355 
L 78.573158 230.724746 
L 78.995251 230.600528 
L 79.417344 230.381963 
L 79.644625 230.139131 
L 80.618686 228.927993 
L 81.884965 227.790627 
L 82.501871 227.35368 
L 83.053838 227.019283 
L 83.5084 226.80265 
L 83.800619 226.937135 
L 84.060368 227.13283 
L 84.385055 227.324564 
L 85.456522 228.040151 
L 85.846147 228.012612 
L 86.170834 227.979096 
L 87.534519 228.089769 
L 87.956612 227.688876 
L 89.125486 226.499899 
L 89.937203 225.650099 
L 90.326828 225.259151 
L 92.599637 220.471913 
L 93.638635 219.051934 
L 94.645165 218.279353 
L 95.359476 217.987259 
L 96.853037 217.641811 
L 98.476472 217.61277 
L 116.52907 217.925029 
L 172.53758 217.932999 
L 398.487273 217.932999 
L 398.487273 217.932999 
" clip-path="url(#p6f94b4f28d)" style="fill: none; stroke: #ff0000; stroke-opacity: 0.2; stroke-width: 1.5; stroke-linecap: square"/>
   </g>
   <g id="line2d_51">
    <path d="M 73.832727 179.681704 
L 73.962602 179.83597 
L 74.51457 180.996291 
L 74.904194 181.861519 
L 76.852317 185.283303 
L 77.534159 186.646682 
L 78.995251 189.678095 
L 80.391405 192.940304 
L 81.138185 195.961475 
L 81.949903 200.562512 
L 84.0279 215.394648 
L 85.099367 221.439475 
L 85.651335 223.400811 
L 86.138365 224.458156 
L 86.463052 224.639096 
L 87.079957 224.705385 
L 87.859206 224.338245 
L 89.450173 223.493918 
L 90.26189 223.343961 
L 90.619046 223.132027 
L 90.976202 222.702764 
L 93.119136 219.250689 
L 93.703573 218.735984 
L 94.450353 218.301032 
L 96.430943 217.666656 
L 98.444003 217.710782 
L 102.080498 217.686131 
L 105.424774 217.674293 
L 120.035689 217.926482 
L 194.324078 217.932999 
L 398.487273 217.932999 
L 398.487273 217.932999 
" clip-path="url(#p6f94b4f28d)" style="fill: none; stroke: #ff0000; stroke-opacity: 0.2; stroke-width: 1.5; stroke-linecap: square"/>
   </g>
   <g id="line2d_52">
    <path d="M 73.832727 166.465183 
L 74.417164 166.241306 
L 75.001601 166.409074 
L 75.975662 166.73904 
L 76.138005 166.917243 
L 76.722442 167.562206 
L 77.631565 167.816868 
L 77.891315 167.895568 
L 78.540689 168.001667 
L 78.832907 168.093269 
L 79.060188 168.413831 
L 79.709562 169.761197 
L 80.52128 172.09225 
L 81.26806 174.12155 
L 81.852497 175.375359 
L 82.469402 176.542449 
L 83.410994 177.782118 
L 83.833087 179.268074 
L 84.25518 181.245824 
L 85.034429 185.593979 
L 85.586397 189.94347 
L 86.430583 195.855579 
L 86.982551 199.029852 
L 87.566988 201.548728 
L 88.346237 203.849957 
L 89.060548 205.463834 
L 90.294359 207.755849 
L 91.885325 211.539077 
L 92.697043 212.831895 
L 93.249011 213.282942 
L 94.51529 213.980751 
L 95.749101 214.318762 
L 97.242661 214.897523 
L 98.638815 215.480332 
L 100.522 215.986645 
L 103.411714 216.674533 
L 105.457242 217.016756 
L 111.074328 217.642321 
L 113.412074 217.728566 
L 126.691773 217.925867 
L 208.967463 217.932999 
L 398.487273 217.932999 
L 398.487273 217.932999 
" clip-path="url(#p6f94b4f28d)" style="fill: none; stroke: #ff0000; stroke-opacity: 0.2; stroke-width: 1.5; stroke-linecap: square"/>
   </g>
   <g id="line2d_53">
    <path d="M 73.832727 253.584378 
L 76.26788 248.772374 
L 76.787379 247.680419 
L 77.501691 246.113628 
L 77.728971 245.544838 
L 78.378345 243.807478 
L 78.897845 242.891219 
L 80.845967 240.06252 
L 81.52781 239.750484 
L 81.820028 239.524775 
L 82.696683 238.471209 
L 84.482461 235.285117 
L 85.488991 234.11214 
L 87.859206 229.842593 
L 88.833267 228.401265 
L 89.580047 227.62057 
L 91.00867 225.690662 
L 92.145075 223.307762 
L 93.02173 222.087112 
L 94.093197 221.048233 
L 95.26207 220.40679 
L 96.463412 219.965184 
L 101.171374 218.801674 
L 105.489711 218.278502 
L 115.555009 217.98172 
L 122.860466 217.937428 
L 238.611387 217.932999 
L 398.487273 217.932999 
L 398.487273 217.932999 
" clip-path="url(#p6f94b4f28d)" style="fill: none; stroke: #ff0000; stroke-opacity: 0.2; stroke-width: 1.5; stroke-linecap: square"/>
   </g>
   <g id="line2d_54">
    <path d="M 73.832727 173.206558 
L 74.352226 173.739742 
L 74.579507 173.838812 
L 75.099007 173.979167 
L 75.748381 174.353383 
L 76.917254 176.140885 
L 77.923784 178.55335 
L 78.800439 181.195777 
L 79.449813 183.467053 
L 82.144715 194.503817 
L 82.76162 199.002258 
L 84.25518 210.665639 
L 85.196773 214.912296 
L 85.813678 216.708887 
L 86.26824 217.518888 
L 86.52799 217.697726 
L 87.502051 217.973352 
L 87.924144 217.923686 
L 88.930673 217.295705 
L 89.742391 217.077787 
L 93.02173 215.196768 
L 94.02826 215.304115 
L 95.943913 215.408445 
L 99.612876 216.886832 
L 101.918154 217.149883 
L 108.02227 217.667436 
L 117.081038 217.913333 
L 153.900545 217.932987 
L 398.487273 217.932999 
L 398.487273 217.932999 
" clip-path="url(#p6f94b4f28d)" style="fill: none; stroke: #ff0000; stroke-opacity: 0.2; stroke-width: 1.5; stroke-linecap: square"/>
   </g>
   <g id="line2d_55">
    <path d="M 73.832727 295.488 
L 74.189883 294.35183 
L 76.949723 284.46726 
L 78.02119 280.215009 
L 79.287469 274.186129 
L 84.742211 254.191176 
L 86.170834 248.479939 
L 87.924144 243.226289 
L 89.872266 237.672426 
L 90.911264 236.036403 
L 92.047669 234.377416 
L 92.339887 233.460475 
L 93.02173 230.857191 
L 94.093197 226.861223 
L 94.807508 224.907124 
L 95.489351 223.712569 
L 96.236131 222.862702 
L 97.924504 221.278675 
L 99.060908 220.579862 
L 101.333717 219.575709 
L 102.502591 219.349415 
L 104.677994 218.923207 
L 107.827458 218.269294 
L 109.808048 218.113844 
L 115.132915 217.98146 
L 123.185153 217.934666 
L 253.904145 217.932999 
L 398.487273 217.932999 
L 398.487273 217.932999 
" clip-path="url(#p6f94b4f28d)" style="fill: none; stroke: #ff0000; stroke-opacity: 0.2; stroke-width: 1.5; stroke-linecap: square"/>
   </g>
   <g id="line2d_56">
    <path d="M 73.832727 223.943941 
L 74.839257 223.743048 
L 75.034069 223.656694 
L 75.943193 223.219737 
L 77.371816 222.609814 
L 78.930313 221.511026 
L 79.742031 221.85178 
L 80.164124 222.405808 
L 82.209652 226.090811 
L 83.281119 226.598397 
L 83.573338 226.587567 
L 85.099367 225.42071 
L 85.618866 224.67146 
L 86.26824 223.431443 
L 86.885145 222.321492 
L 87.27477 221.965993 
L 87.664394 221.813948 
L 88.02155 221.764738 
L 88.541049 221.610664 
L 89.352767 221.049939 
L 89.807328 220.578261 
L 93.638635 219.55513 
L 95.034789 219.058772 
L 98.346597 218.072647 
L 100.327188 218.013678 
L 106.950803 218.011105 
L 120.133095 217.934589 
L 270.138496 217.932999 
L 398.487273 217.932999 
L 398.487273 217.932999 
" clip-path="url(#p6f94b4f28d)" style="fill: none; stroke: #ff0000; stroke-opacity: 0.2; stroke-width: 1.5; stroke-linecap: square"/>
   </g>
   <g id="line2d_57">
    <path d="M 73.832727 73.847604 
L 75.780849 75.004919 
L 76.397755 75.477902 
L 76.917254 75.615241 
L 78.216002 75.917564 
L 79.482281 76.467291 
L 79.969312 76.662917 
L 80.651155 77.068655 
L 81.884965 77.994443 
L 84.937023 80.011676 
L 86.430583 81.045269 
L 88.670924 83.206665 
L 90.489171 85.088318 
L 92.080137 86.726944 
L 92.826918 87.255361 
L 96.788099 88.901848 
L 98.151785 89.233876 
L 99.807688 89.538922 
L 102.242841 90.006393 
L 103.574058 90.321548 
L 105.781929 91.137366 
L 107.502771 91.794662 
L 109.645705 92.391289 
L 113.477012 92.890494 
L 125.620306 94.075031 
L 132.27639 94.298348 
L 143.380686 94.419022 
L 173.803859 94.448856 
L 398.487273 94.438862 
L 398.487273 94.438862 
" clip-path="url(#p6f94b4f28d)" style="fill: none; stroke: #ff0000; stroke-opacity: 0.2; stroke-width: 1.5; stroke-linecap: square"/>
   </g>
   <g id="line2d_58">
    <path d="M 73.832727 285.242973 
L 75.943193 281.743702 
L 76.592567 280.78557 
L 77.923784 277.107327 
L 81.722622 262.054101 
L 82.988901 257.534403 
L 84.579867 251.9832 
L 85.229241 249.696252 
L 85.846147 247.650619 
L 86.560458 245.981744 
L 87.242301 245.014629 
L 88.411174 243.095559 
L 88.833267 241.990807 
L 90.164484 237.872904 
L 91.138545 235.713305 
L 91.593107 234.523445 
L 91.950263 232.982973 
L 93.281479 227.095918 
L 94.060728 224.884113 
L 94.612696 223.906226 
L 95.327008 223.101105 
L 96.430943 222.302387 
L 97.27513 221.678786 
L 99.060908 220.438828 
L 101.333717 219.237588 
L 103.216902 218.668041 
L 105.067618 218.349031 
L 107.470302 218.207134 
L 119.126566 217.958327 
L 150.653675 217.932976 
L 398.487273 217.932999 
L 398.487273 217.932999 
" clip-path="url(#p6f94b4f28d)" style="fill: none; stroke: #ff0000; stroke-opacity: 0.2; stroke-width: 1.5; stroke-linecap: square"/>
   </g>
   <g id="line2d_59">
    <path d="M 73.832727 267.550731 
L 76.527629 259.375364 
L 77.047129 258.380599 
L 77.469222 257.748313 
L 78.216002 256.763056 
L 79.125126 255.69719 
L 80.293999 254.115202 
L 80.488811 253.913836 
L 81.105716 252.744608 
L 82.27459 249.734727 
L 82.891495 247.711126 
L 84.060368 243.210375 
L 85.164304 239.062015 
L 85.846147 237.0992 
L 87.956612 232.225874 
L 88.541049 231.300581 
L 89.352767 229.785627 
L 90.294359 228.426013 
L 91.950263 226.309083 
L 92.794449 225.618777 
L 93.476292 225.186882 
L 94.02826 224.59296 
L 95.619226 222.134376 
L 96.463412 220.796855 
L 97.567348 219.89935 
L 98.963502 219.404433 
L 100.976562 219.02864 
L 105.781929 218.126507 
L 113.541949 217.948374 
L 132.925764 217.93309 
L 398.487273 217.932999 
L 398.487273 217.932999 
" clip-path="url(#p6f94b4f28d)" style="fill: none; stroke: #ff0000; stroke-opacity: 0.2; stroke-width: 1.5; stroke-linecap: square"/>
   </g>
   <g id="line2d_60">
    <path d="M 73.832727 64.123902 
L 74.676914 65.674516 
L 76.26788 68.426261 
L 76.657504 68.840295 
L 77.306878 69.301519 
L 79.060188 70.090831 
L 81.073248 71.433485 
L 81.52781 71.911029 
L 81.982371 72.548999 
L 83.02137 74.517271 
L 83.962962 76.034654 
L 85.131835 77.562194 
L 85.813678 78.472477 
L 86.982551 79.834218 
L 88.995611 81.679287 
L 90.878796 83.788123 
L 92.437293 85.040194 
L 96.333537 87.204243 
L 98.573878 88.008349 
L 99.710282 88.443952 
L 107.243021 91.375173 
L 109.937923 92.110403 
L 118.736941 93.725646 
L 123.120216 94.100713 
L 128.704833 94.357349 
L 137.114226 94.512277 
L 153.478452 94.546849 
L 303.159165 94.44011 
L 398.487273 94.438917 
L 398.487273 94.438917 
" clip-path="url(#p6f94b4f28d)" style="fill: none; stroke: #ff0000; stroke-opacity: 0.2; stroke-width: 1.5; stroke-linecap: square"/>
   </g>
   <g id="line2d_61">
    <path d="M 73.832727 120.096973 
L 75.066538 121.310854 
L 75.553568 121.469019 
L 76.26788 121.274832 
L 77.079597 120.063261 
L 78.118596 118.113252 
L 79.060188 116.094164 
L 79.742031 115.05034 
L 80.943373 114.766169 
L 81.462872 115.176253 
L 82.664214 115.70679 
L 83.151245 115.604495 
L 83.540869 115.443175 
L 83.833087 115.261059 
L 84.385055 114.586926 
L 86.170834 111.902786 
L 86.820208 110.662533 
L 87.177364 110.369366 
L 87.924144 110.064616 
L 88.476112 110.117833 
L 89.417704 109.752675 
L 89.77486 109.707876 
L 91.560638 110.391878 
L 91.885325 109.817289 
L 93.119136 107.618386 
L 97.405005 102.185186 
L 98.573878 101.068835 
L 101.26878 99.360459 
L 102.567528 98.507657 
L 104.548119 97.440926 
L 106.561178 96.766509 
L 110.814578 95.857867 
L 114.548479 95.22257 
L 121.821468 94.652137 
L 128.412614 94.425743 
L 139.062348 94.340355 
L 173.414235 94.400254 
L 254.391176 94.44016 
L 398.487273 94.438839 
L 398.487273 94.438839 
" clip-path="url(#p6f94b4f28d)" style="fill: none; stroke: #ff0000; stroke-opacity: 0.2; stroke-width: 1.5; stroke-linecap: square"/>
   </g>
   <g id="line2d_62">
    <path d="M 73.832727 178.364903 
L 74.222352 178.990157 
L 74.936663 180.284671 
L 75.618506 181.097002 
L 76.462692 182.019419 
L 76.884785 182.90937 
L 77.371816 183.788482 
L 78.02119 185.141063 
L 81.170654 192.660455 
L 83.573338 202.508516 
L 84.320118 206.766308 
L 85.424054 213.363561 
L 86.365646 217.787518 
L 86.852677 219.195254 
L 87.339707 220.094959 
L 88.086487 220.906048 
L 88.443643 221.012974 
L 88.76833 220.955432 
L 89.969672 220.068903 
L 90.651515 219.839193 
L 91.300889 219.586909 
L 91.560638 219.45072 
L 92.859386 217.963913 
L 93.443823 217.643498 
L 94.742571 217.186203 
L 96.073788 217.037797 
L 97.177724 216.973758 
L 100.002501 217.484731 
L 101.431123 217.597251 
L 105.976742 217.714559 
L 113.444543 217.914708 
L 127.243741 217.933055 
L 398.487273 217.932999 
L 398.487273 217.932999 
" clip-path="url(#p6f94b4f28d)" style="fill: none; stroke: #ff0000; stroke-opacity: 0.2; stroke-width: 1.5; stroke-linecap: square"/>
   </g>
   <g id="line2d_63">
    <path d="M 73.832727 295.386154 
L 74.189883 293.98627 
L 77.047129 281.725183 
L 78.118596 275.48626 
L 79.319938 270.436969 
L 80.229061 267.368218 
L 82.339527 262.520086 
L 82.729151 261.16603 
L 83.410994 258.152267 
L 84.222712 253.340162 
L 85.813678 244.077416 
L 87.27477 237.304504 
L 88.118956 234.690908 
L 88.898205 233.021927 
L 90.132015 231.218711 
L 90.52164 230.861746 
L 91.495701 230.085002 
L 94.710102 222.375705 
L 95.878976 220.867517 
L 96.593287 220.376284 
L 97.502411 220.022013 
L 99.385595 219.581983 
L 101.398655 219.244079 
L 104.418244 218.803494 
L 110.554829 218.183574 
L 113.412074 218.032125 
L 122.081218 217.940823 
L 169.095897 217.933002 
L 398.487273 217.932999 
L 398.487273 217.932999 
" clip-path="url(#p6f94b4f28d)" style="fill: none; stroke: #ff0000; stroke-opacity: 0.2; stroke-width: 1.5; stroke-linecap: square"/>
   </g>
   <g id="line2d_64">
    <path d="M 73.832727 193.618743 
L 74.25482 193.849937 
L 75.196413 194.350429 
L 75.650975 194.190079 
L 76.300349 193.752832 
L 76.75491 193.588882 
L 77.209472 193.491879 
L 77.631565 193.808333 
L 78.183533 194.105941 
L 78.313408 194.153867 
L 79.027719 195.320054 
L 79.579687 196.489253 
L 80.131655 197.672488 
L 80.845967 199.151799 
L 81.300529 199.802369 
L 81.75509 200.231378 
L 82.01484 200.261735 
L 82.371996 200.063891 
L 82.826558 200.383706 
L 83.151245 200.771348 
L 83.703213 201.689545 
L 84.969492 206.857633 
L 86.170834 212.544562 
L 86.885145 214.419641 
L 87.372176 215.121066 
L 88.183893 215.887137 
L 88.411174 215.92137 
L 90.002141 215.676334 
L 90.813858 216.29307 
L 91.52817 216.482719 
L 92.145075 216.460294 
L 92.534699 216.372467 
L 92.891855 216.274539 
L 93.573698 216.162385 
L 94.060728 216.143459 
L 96.853037 216.307149 
L 97.567348 216.589537 
L 98.671284 217.054331 
L 100.359656 217.440237 
L 102.470122 217.485648 
L 105.035149 217.590417 
L 107.989801 217.811446 
L 113.379606 217.899393 
L 127.828178 217.932048 
L 398.487273 217.932999 
L 398.487273 217.932999 
" clip-path="url(#p6f94b4f28d)" style="fill: none; stroke: #ff0000; stroke-opacity: 0.2; stroke-width: 1.5; stroke-linecap: square"/>
   </g>
   <g id="line2d_65">
    <path d="M 73.832727 54.606528 
L 75.099007 56.416378 
L 76.040599 57.748379 
L 77.793909 59.75634 
L 78.800439 60.904022 
L 80.878435 64.356357 
L 81.657684 66.038987 
L 84.060368 71.527318 
L 84.612336 72.372594 
L 85.294179 73.505116 
L 86.00849 74.462448 
L 86.950083 75.344483 
L 90.748921 78.894378 
L 93.963322 82.874629 
L 95.099727 83.733958 
L 96.560818 84.560399 
L 99.937563 86.291462 
L 102.340247 87.671829 
L 103.314308 88.250393 
L 104.937743 89.361282 
L 105.652055 89.701442 
L 108.736581 90.829667 
L 111.399015 91.594665 
L 119.581128 93.207292 
L 123.055279 93.666802 
L 127.471022 94.016811 
L 133.899825 94.265814 
L 143.997591 94.410219 
L 166.563339 94.455978 
L 398.487273 94.438863 
L 398.487273 94.438863 
" clip-path="url(#p6f94b4f28d)" style="fill: none; stroke: #ff0000; stroke-opacity: 0.2; stroke-width: 1.5; stroke-linecap: square"/>
   </g>
   <g id="line2d_66">
    <path d="M 73.832727 115.338412 
L 74.189883 115.36863 
L 74.709382 115.681147 
L 74.969132 115.969688 
L 77.696503 119.47534 
L 78.962782 121.896848 
L 79.612156 123.094117 
L 79.936843 123.112048 
L 80.26153 122.995631 
L 80.618686 122.96778 
L 81.462872 122.49387 
L 82.794089 121.650148 
L 83.670744 120.677416 
L 84.352587 119.791592 
L 85.26171 120.007743 
L 86.690333 120.539154 
L 87.047489 120.761066 
L 87.826738 121.722614 
L 89.060548 123.456732 
L 90.132015 125.25248 
L 90.716452 125.918793 
L 92.372356 128.517273 
L 93.50876 130.927181 
L 93.76851 130.980089 
L 94.612696 131.096953 
L 97.145255 130.746289 
L 97.340067 130.545848 
L 100.002501 127.831178 
L 100.392125 127.810003 
L 101.885685 127.58635 
L 102.632465 127.261876 
L 103.087027 126.593636 
L 104.223432 123.940318 
L 104.937743 121.802558 
L 105.976742 118.5417 
L 107.307958 114.954564 
L 108.411894 112.851248 
L 109.158674 111.938383 
L 109.77558 111.460474 
L 112.632825 110.160312 
L 114.873166 108.530777 
L 116.496601 106.819049 
L 118.704473 104.567646 
L 120.003221 103.558005 
L 124.159214 100.942656 
L 126.496961 99.740514 
L 127.828178 99.246437 
L 135.231042 96.814854 
L 137.568788 96.355567 
L 142.666374 95.781747 
L 148.867896 95.315627 
L 156.822728 94.951763 
L 167.732212 94.690311 
L 184.77828 94.527349 
L 220.688664 94.453449 
L 398.487273 94.438917 
L 398.487273 94.438917 
" clip-path="url(#p6f94b4f28d)" style="fill: none; stroke: #ff0000; stroke-opacity: 0.2; stroke-width: 1.5; stroke-linecap: square"/>
   </g>
   <g id="line2d_67">
    <path d="M 73.832727 234.032701 
L 74.482101 233.678207 
L 74.839257 233.535203 
L 75.228881 233.559106 
L 76.040599 234.114342 
L 76.560098 234.640323 
L 77.209472 234.931194 
L 78.930313 234.902917 
L 79.51475 234.38902 
L 80.131655 233.245056 
L 82.988901 225.688316 
L 84.190243 223.266669 
L 84.644805 222.964648 
L 84.937023 222.712843 
L 85.326648 222.457766 
L 85.618866 222.387463 
L 86.885145 221.40099 
L 87.144895 221.422083 
L 87.469582 221.312192 
L 88.183893 220.835054 
L 88.735861 220.073882 
L 90.002141 218.21679 
L 90.813858 217.393593 
L 91.560638 216.9913 
L 91.787919 216.778815 
L 92.437293 216.350419 
L 93.249011 216.210845 
L 93.930853 216.521823 
L 95.814038 217.391435 
L 97.567348 217.623022 
L 99.288189 217.676809 
L 103.444183 217.972678 
L 129.451613 217.9328 
L 398.487273 217.932999 
L 398.487273 217.932999 
" clip-path="url(#p6f94b4f28d)" style="fill: none; stroke: #ff0000; stroke-opacity: 0.2; stroke-width: 1.5; stroke-linecap: square"/>
   </g>
   <g id="line2d_68">
    <path d="M 73.832727 281.335069 
L 74.417164 279.07848 
L 75.488631 274.25413 
L 76.202942 270.918961 
L 77.469222 266.299652 
L 78.897845 262.04368 
L 79.839437 259.383459 
L 80.618686 256.850929 
L 82.307058 252.869053 
L 82.988901 250.838451 
L 83.930493 248.006112 
L 84.222712 246.934597 
L 85.326648 242.867549 
L 86.040959 241.06098 
L 89.612516 234.197638 
L 90.554109 231.845338 
L 91.593107 229.140792 
L 92.632105 225.426193 
L 93.378886 223.238349 
L 94.25554 221.349585 
L 95.067258 220.124165 
L 95.846507 219.447691 
L 96.788099 218.911964 
L 97.859566 218.553078 
L 99.060908 218.301696 
L 103.444183 218.123957 
L 106.139085 218.030948 
L 109.905455 217.973419 
L 158.835788 217.932985 
L 398.487273 217.932999 
L 398.487273 217.932999 
" clip-path="url(#p6f94b4f28d)" style="fill: none; stroke: #ff0000; stroke-opacity: 0.2; stroke-width: 1.5; stroke-linecap: square"/>
   </g>
   <g id="line2d_69">
    <path d="M 73.832727 245.159261 
L 74.51457 245.744153 
L 74.644445 245.682085 
L 75.066538 245.558739 
L 76.527629 245.81494 
L 77.27441 245.699717 
L 77.631565 245.60812 
L 78.345877 245.773317 
L 78.76797 246.231569 
L 79.482281 246.982815 
L 79.7745 247.130695 
L 80.391405 247.285599 
L 81.105716 246.574441 
L 82.079777 245.312157 
L 82.27459 244.924442 
L 82.891495 243.906332 
L 83.703213 242.739184 
L 84.904554 240.2292 
L 86.138365 237.768512 
L 87.047489 235.77387 
L 89.060548 231.554975 
L 89.807328 230.523025 
L 90.359296 229.752998 
L 91.171014 228.316923 
L 92.210012 224.475111 
L 92.891855 222.609382 
L 93.281479 222.023689 
L 93.930853 221.479886 
L 94.352947 221.364152 
L 97.01538 220.998613 
L 98.281659 220.352837 
L 100.132375 219.260895 
L 101.203843 218.948629 
L 104.937743 218.441364 
L 115.392665 217.969242 
L 130.555549 217.933293 
L 398.487273 217.932999 
L 398.487273 217.932999 
" clip-path="url(#p6f94b4f28d)" style="fill: none; stroke: #ff0000; stroke-opacity: 0.2; stroke-width: 1.5; stroke-linecap: square"/>
   </g>
   <g id="line2d_70">
    <path d="M 73.832727 67.282397 
L 74.482101 68.150695 
L 76.235411 70.156267 
L 79.157594 71.728616 
L 80.748561 72.672349 
L 81.560278 73.518206 
L 82.664214 75.42594 
L 83.833087 77.184221 
L 85.26171 78.907857 
L 85.911084 79.43292 
L 87.599457 80.952266 
L 92.372356 84.884533 
L 94.51529 86.0988 
L 95.554289 86.731151 
L 97.112786 87.54406 
L 98.606346 88.01793 
L 102.957152 89.313602 
L 106.431303 90.922333 
L 108.963862 91.913462 
L 111.00939 92.441423 
L 114.938103 93.228232 
L 118.249911 93.670837 
L 123.412434 94.061061 
L 130.295799 94.295808 
L 141.400095 94.42564 
L 168.77121 94.457157 
L 398.487273 94.438894 
L 398.487273 94.438894 
" clip-path="url(#p6f94b4f28d)" style="fill: none; stroke: #ff0000; stroke-opacity: 0.2; stroke-width: 1.5; stroke-linecap: square"/>
   </g>
   <g id="line2d_71">
    <path d="M 73.832727 281.041286 
L 74.871726 279.018349 
L 75.618506 277.901737 
L 77.728971 274.508329 
L 78.76797 271.983368 
L 79.384875 269.893444 
L 80.781029 265.233907 
L 81.625216 262.810091 
L 82.112246 262.064478 
L 83.833087 259.822109 
L 84.287649 258.77392 
L 85.099367 256.652579 
L 85.748741 254.714782 
L 86.75527 251.139011 
L 89.51511 239.206152 
L 90.489171 235.78285 
L 93.313948 227.431033 
L 96.723162 221.478305 
L 97.534879 220.640112 
L 98.346597 220.154487 
L 99.223252 219.912096 
L 101.690873 219.394781 
L 107.665114 218.190124 
L 114.093917 217.987262 
L 138.218162 217.932927 
L 398.487273 217.932999 
L 398.487273 217.932999 
" clip-path="url(#p6f94b4f28d)" style="fill: none; stroke: #ff0000; stroke-opacity: 0.2; stroke-width: 1.5; stroke-linecap: square"/>
   </g>
   <g id="line2d_72">
    <path d="M 73.832727 254.913489 
L 74.319758 253.511351 
L 76.689973 246.919072 
L 77.241941 246.363575 
L 77.76144 246.142218 
L 78.053658 246.278557 
L 78.410814 246.540884 
L 79.125126 246.897144 
L 79.709562 247.096575 
L 80.651155 247.214282 
L 81.00831 247.148896 
L 84.385055 245.602516 
L 85.294179 244.552803 
L 85.878615 243.448498 
L 87.891675 239.673641 
L 90.554109 233.819804 
L 91.593107 231.372966 
L 93.313948 224.429902 
L 94.158134 222.245076 
L 94.77504 221.151717 
L 95.391945 220.680283 
L 96.853037 219.932118 
L 99.807688 218.654635 
L 101.333717 218.530234 
L 109.483361 217.973429 
L 124.613776 217.933596 
L 398.487273 217.932999 
L 398.487273 217.932999 
" clip-path="url(#p6f94b4f28d)" style="fill: none; stroke: #ff0000; stroke-opacity: 0.2; stroke-width: 1.5; stroke-linecap: square"/>
   </g>
   <g id="line2d_73">
    <path d="M 73.832727 62.677167 
L 75.066538 63.651297 
L 75.683443 64.646108 
L 78.118596 68.494509 
L 78.962782 69.04081 
L 79.904374 69.634555 
L 80.651155 70.124021 
L 83.76815 71.904868 
L 84.612336 72.858573 
L 85.553928 74.306488 
L 87.469582 77.532839 
L 89.482641 80.52507 
L 91.235951 82.781209 
L 92.27495 83.732777 
L 103.184433 89.020626 
L 104.093557 89.651648 
L 105.911804 90.69347 
L 107.697583 91.473976 
L 109.937923 92.189567 
L 117.730412 93.52871 
L 124.938463 93.722147 
L 151.108237 94.040245 
L 194.940984 94.273763 
L 264.521411 94.400787 
L 398.487273 94.436539 
L 398.487273 94.436539 
" clip-path="url(#p6f94b4f28d)" style="fill: none; stroke: #ff0000; stroke-opacity: 0.2; stroke-width: 1.5; stroke-linecap: square"/>
   </g>
   <g id="line2d_74">
    <path d="M 73.832727 120.469199 
L 74.51457 121.156496 
L 75.293819 122.168437 
L 75.813318 122.352058 
L 76.917254 122.698559 
L 77.76144 121.956282 
L 78.50822 121.526423 
L 79.287469 121.582624 
L 79.806968 121.452861 
L 81.235591 121.385581 
L 82.047309 121.627192 
L 82.696683 121.289456 
L 83.281119 121.493595 
L 83.5084 121.52097 
L 83.930493 121.645867 
L 84.25518 121.676912 
L 84.579867 121.682712 
L 85.001961 121.091759 
L 85.391585 120.401037 
L 86.430583 118.084091 
L 87.339707 117.367535 
L 88.216362 117.135593 
L 89.677454 117.465208 
L 90.164484 117.245853 
L 90.911264 116.147592 
L 91.365826 115.313337 
L 93.281479 113.002818 
L 94.77504 111.148613 
L 96.820568 108.16388 
L 98.249191 106.749909 
L 99.353127 105.656692 
L 101.463592 102.541219 
L 102.307778 101.755371 
L 105.684523 99.551208 
L 110.554829 97.2169 
L 112.7627 96.59794 
L 118.899285 95.410351 
L 123.152685 95.025233 
L 128.412614 94.775641 
L 143.802779 94.569237 
L 175.200013 94.458829 
L 353.323309 94.439067 
L 398.487273 94.438863 
L 398.487273 94.438863 
" clip-path="url(#p6f94b4f28d)" style="fill: none; stroke: #ff0000; stroke-opacity: 0.2; stroke-width: 1.5; stroke-linecap: square"/>
   </g>
   <g id="line2d_75">
    <path d="M 73.832727 293.84476 
L 74.871726 290.758346 
L 75.326288 289.481488 
L 76.495161 286.684623 
L 77.306878 285.205022 
L 77.923784 283.948639 
L 79.287469 279.845554 
L 80.26153 275.338404 
L 82.371996 265.112815 
L 84.190243 258.823262 
L 85.229241 254.906166 
L 88.541049 241.778996 
L 91.917794 228.550072 
L 92.664574 225.378151 
L 93.346417 223.56041 
L 93.898385 222.740355 
L 94.51529 222.170608 
L 96.495881 221.125478 
L 98.995971 220.048101 
L 101.52853 219.295477 
L 104.061088 218.811451 
L 106.041679 218.374337 
L 108.087207 218.176109 
L 112.632825 218.013826 
L 124.581308 217.934281 
L 296.957643 217.932999 
L 398.487273 217.932999 
L 398.487273 217.932999 
" clip-path="url(#p6f94b4f28d)" style="fill: none; stroke: #ff0000; stroke-opacity: 0.2; stroke-width: 1.5; stroke-linecap: square"/>
   </g>
   <g id="line2d_76">
    <path d="M 73.832727 234.398086 
L 74.384695 235.515002 
L 74.839257 236.706954 
L 75.228881 237.296118 
L 75.5211 237.501719 
L 75.780849 237.667659 
L 76.138005 238.194618 
L 77.76144 241.056373 
L 78.735501 241.938576 
L 80.358936 243.086457 
L 80.781029 243.177093 
L 81.073248 243.238257 
L 81.592747 243.295815 
L 82.794089 243.161127 
L 83.638275 242.87928 
L 84.25518 242.708991 
L 84.872086 242.228677 
L 85.878615 241.177214 
L 86.398115 240.72044 
L 87.534519 240.300785 
L 88.086487 240.005643 
L 88.638455 239.447296 
L 89.02808 238.76838 
L 90.651515 236.156835 
L 91.690513 235.049662 
L 91.885325 234.644224 
L 92.27495 233.493834 
L 94.093197 225.979205 
L 94.807508 223.831875 
L 95.456882 222.557024 
L 96.203663 221.650251 
L 96.982911 221.036259 
L 98.573878 219.919506 
L 99.77522 219.296034 
L 100.749281 219.105692 
L 103.119496 218.821136 
L 108.152145 218.103181 
L 111.950983 218.010863 
L 132.178984 217.936063 
L 335.335648 217.932999 
L 398.487273 217.932999 
L 398.487273 217.932999 
" clip-path="url(#p6f94b4f28d)" style="fill: none; stroke: #ff0000; stroke-opacity: 0.2; stroke-width: 1.5; stroke-linecap: square"/>
   </g>
   <g id="line2d_77">
    <path d="M 73.832727 263.931495 
L 74.547039 263.76299 
L 74.871726 263.634312 
L 75.5211 262.784677 
L 77.27441 260.037314 
L 77.76144 259.189001 
L 78.280939 257.739562 
L 79.709562 252.90529 
L 80.26153 251.308267 
L 81.105716 249.36705 
L 81.722622 248.666444 
L 83.346057 247.506691 
L 83.865556 246.718042 
L 84.51493 245.202418 
L 85.034429 243.452991 
L 85.878615 240.455496 
L 86.917614 237.653671 
L 88.086487 235.25613 
L 89.25536 232.800338 
L 90.554109 229.82216 
L 92.404824 226.540725 
L 93.346417 225.881324 
L 94.093197 225.510285 
L 94.645165 225.072338 
L 95.327008 224.048294 
L 97.307598 220.885744 
L 97.892035 220.409224 
L 98.638815 220.062078 
L 101.950623 219.18489 
L 103.444183 218.622324 
L 105.229962 218.306425 
L 107.859926 218.129954 
L 113.02245 217.97625 
L 134.224512 217.932892 
L 398.487273 217.932999 
L 398.487273 217.932999 
" clip-path="url(#p6f94b4f28d)" style="fill: none; stroke: #ff0000; stroke-opacity: 0.2; stroke-width: 1.5; stroke-linecap: square"/>
   </g>
   <g id="line2d_78">
    <path d="M 73.832727 153.351344 
L 76.397755 161.552863 
L 77.728971 165.260042 
L 79.319938 169.931386 
L 79.7745 170.97779 
L 81.26806 175.118626 
L 83.086307 179.848886 
L 83.443463 181.680693 
L 84.190243 186.760037 
L 84.937023 193.463688 
L 85.748741 200.754697 
L 86.722802 207.882263 
L 87.437113 211.551036 
L 88.054018 213.468215 
L 90.326828 217.208004 
L 91.658044 217.641224 
L 91.982731 217.808049 
L 92.891855 218.361566 
L 93.541229 218.546624 
L 95.456882 218.286044 
L 96.333537 217.955278 
L 97.405005 217.797557 
L 100.684343 217.831715 
L 147.114586 217.932967 
L 398.487273 217.932999 
L 398.487273 217.932999 
" clip-path="url(#p6f94b4f28d)" style="fill: none; stroke: #ff0000; stroke-opacity: 0.2; stroke-width: 1.5; stroke-linecap: square"/>
   </g>
   <g id="line2d_79">
    <path d="M 73.832727 146.368176 
L 73.962602 146.28505 
L 76.235411 144.751879 
L 76.430223 144.778947 
L 76.884785 144.975335 
L 77.956252 145.612437 
L 78.670564 147.332525 
L 79.125126 148.228544 
L 80.26153 149.706565 
L 80.618686 149.975604 
L 80.813498 150.069474 
L 82.339527 151.448982 
L 82.891495 151.064777 
L 83.216182 151.077838 
L 83.443463 151.172102 
L 84.77468 152.051031 
L 85.131835 152.40541 
L 85.618866 153.862638 
L 88.573518 164.729003 
L 89.385235 167.021386 
L 89.904734 168.372925 
L 90.52164 171.299695 
L 92.047669 182.938602 
L 94.677634 202.119559 
L 95.52182 206.118989 
L 96.203663 208.278304 
L 97.177724 210.520902 
L 97.892035 211.766367 
L 98.638815 212.620865 
L 99.742751 213.568056 
L 101.723342 214.924743 
L 104.677994 216.710303 
L 106.00921 217.108034 
L 108.346957 217.398693 
L 114.451073 217.798914 
L 123.542309 217.920704 
L 156.660385 217.933012 
L 398.487273 217.932999 
L 398.487273 217.932999 
" clip-path="url(#p6f94b4f28d)" style="fill: none; stroke: #ff0000; stroke-opacity: 0.2; stroke-width: 1.5; stroke-linecap: square"/>
   </g>
   <g id="line2d_80">
    <path d="M 73.832727 120.151655 
L 74.51457 121.068629 
L 77.371816 124.653186 
L 78.865376 126.825518 
L 79.482281 127.558413 
L 80.26153 128.401636 
L 81.073248 129.299185 
L 81.52781 129.598574 
L 81.690153 129.540944 
L 82.27459 128.811152 
L 83.995431 124.537335 
L 85.488991 120.718392 
L 87.859206 115.359565 
L 88.670924 114.280379 
L 89.417704 114.089654 
L 91.365826 115.030842 
L 91.625576 115.351959 
L 92.0152 115.726206 
L 94.060728 115.451479 
L 97.859566 115.707275 
L 98.476472 115.400406 
L 99.677814 114.941017 
L 100.067438 114.926393 
L 100.879156 114.880993 
L 101.463592 114.50853 
L 102.340247 113.490137 
L 103.054559 112.043654 
L 105.197493 107.704673 
L 106.626116 105.369718 
L 108.087207 103.406199 
L 109.678174 101.650675 
L 111.26914 100.161078 
L 112.925044 98.910815 
L 114.483541 97.992739 
L 116.52907 97.132331 
L 118.834347 96.409615 
L 121.496781 95.812676 
L 124.711182 95.327509 
L 128.76977 94.951516 
L 134.224512 94.683588 
L 142.568968 94.517769 
L 159.615036 94.446582 
L 271.729462 94.438737 
L 398.487273 94.438737 
L 398.487273 94.438737 
" clip-path="url(#p6f94b4f28d)" style="fill: none; stroke: #ff0000; stroke-opacity: 0.2; stroke-width: 1.5; stroke-linecap: square"/>
   </g>
   <g id="line2d_81">
    <path d="M 73.832727 193.571571 
L 74.222352 193.863404 
L 74.839257 194.231222 
L 75.228881 194.25029 
L 76.300349 194.22502 
L 76.722442 194.218837 
L 77.599097 194.008349 
L 78.183533 194.433697 
L 78.76797 195.267059 
L 79.612156 197.175362 
L 80.131655 198.288701 
L 80.618686 199.500482 
L 80.781029 199.529156 
L 80.975842 199.578076 
L 81.300529 199.665362 
L 81.462872 199.629973 
L 81.884965 199.473805 
L 82.307058 199.04074 
L 83.800619 197.097416 
L 84.320118 196.440414 
L 84.839617 196.009386 
L 85.066898 196.097996 
L 85.456522 196.300983 
L 85.781209 196.830883 
L 86.690333 198.642681 
L 90.132015 207.776334 
L 90.651515 208.504555 
L 90.943733 208.772605 
L 91.690513 209.073534 
L 92.177544 209.155576 
L 92.664574 209.428103 
L 93.216542 209.954867 
L 95.327008 212.629092 
L 96.041319 213.575627 
L 97.599817 215.09977 
L 98.379066 215.544547 
L 102.632465 216.767263 
L 105.424774 217.183465 
L 108.217082 217.44117 
L 111.041859 217.71867 
L 115.425134 217.86938 
L 123.542309 217.928268 
L 202.701003 217.932999 
L 398.487273 217.932999 
L 398.487273 217.932999 
" clip-path="url(#p6f94b4f28d)" style="fill: none; stroke: #ff0000; stroke-opacity: 0.2; stroke-width: 1.5; stroke-linecap: square"/>
   </g>
   <g id="line2d_82">
    <path d="M 73.832727 157.197896 
L 74.904194 158.998179 
L 75.488631 159.630086 
L 75.780849 159.529359 
L 76.235411 159.5674 
L 76.884785 159.555969 
L 77.664034 159.576121 
L 77.956252 159.714337 
L 78.962782 160.759428 
L 79.612156 161.71416 
L 80.683623 163.660467 
L 80.910904 164.091371 
L 81.495341 165.318992 
L 81.982371 166.272545 
L 82.307058 166.858346 
L 83.540869 168.713956 
L 84.77468 170.782284 
L 85.683803 174.183244 
L 86.463052 179.157186 
L 89.612516 203.897687 
L 90.164484 206.416294 
L 91.333357 210.101927 
L 91.885325 211.307181 
L 92.502231 212.199271 
L 94.288009 214.413414 
L 94.839977 215.016099 
L 95.846507 215.818246 
L 96.723162 216.31407 
L 100.132375 217.258269 
L 101.723342 217.463576 
L 107.567708 217.870655 
L 112.665294 217.91842 
L 177.505291 217.933 
L 398.487273 217.932999 
L 398.487273 217.932999 
" clip-path="url(#p6f94b4f28d)" style="fill: none; stroke: #ff0000; stroke-opacity: 0.2; stroke-width: 1.5; stroke-linecap: square"/>
   </g>
   <g id="line2d_83">
    <path d="M 73.832727 219.851627 
L 74.222352 220.404356 
L 74.547039 220.876419 
L 75.001601 221.577838 
L 75.683443 222.736718 
L 77.112066 225.470025 
L 77.793909 226.064929 
L 78.345877 226.468503 
L 78.865376 226.628439 
L 79.547219 226.297881 
L 80.164124 225.553893 
L 81.52781 223.680628 
L 81.917434 223.947954 
L 82.404464 224.508801 
L 83.443463 227.292793 
L 84.839617 230.953235 
L 86.105896 231.964419 
L 86.950083 232.278781 
L 87.242301 232.258483 
L 87.891675 231.992753 
L 88.638455 231.682085 
L 91.203483 229.113108 
L 93.671104 221.604664 
L 94.223072 220.966914 
L 94.904914 220.508341 
L 98.931033 218.749658 
L 101.431123 218.287224 
L 104.483181 217.996819 
L 157.27729 217.933014 
L 398.487273 217.932999 
L 398.487273 217.932999 
" clip-path="url(#p6f94b4f28d)" style="fill: none; stroke: #ff0000; stroke-opacity: 0.2; stroke-width: 1.5; stroke-linecap: square"/>
   </g>
   <g id="line2d_84">
    <path d="M 73.832727 263.645725 
L 74.417164 262.390112 
L 74.806788 261.15056 
L 75.683443 258.452212 
L 76.300349 256.934658 
L 77.404284 254.451438 
L 78.248471 252.261869 
L 78.832907 251.116182 
L 79.222532 250.596092 
L 81.722622 247.704858 
L 82.339527 247.188773 
L 82.923964 246.783114 
L 83.638275 246.017193 
L 84.385055 244.8089 
L 85.196773 243.331034 
L 87.27477 239.422557 
L 89.320298 235.822565 
L 89.807328 234.992465 
L 91.365826 232.188262 
L 91.593107 231.499992 
L 93.378886 224.571198 
L 94.190603 222.406083 
L 94.807508 221.299161 
L 95.26207 220.868715 
L 96.00885 220.519189 
L 97.242661 219.970891 
L 98.898565 219.142502 
L 100.781749 218.512594 
L 103.833807 218.09806 
L 105.716992 218.022934 
L 123.152685 217.93424 
L 398.487273 217.932999 
L 398.487273 217.932999 
" clip-path="url(#p6f94b4f28d)" style="fill: none; stroke: #ff0000; stroke-opacity: 0.2; stroke-width: 1.5; stroke-linecap: square"/>
   </g>
   <g id="line2d_85">
    <path d="M 73.832727 293.330972 
L 74.51457 291.532724 
L 76.105536 286.237915 
L 76.495161 285.381448 
L 77.469222 283.239339 
L 78.670564 278.962165 
L 82.923964 258.31022 
L 85.196773 244.960521 
L 86.26824 239.496271 
L 87.307238 235.242906 
L 88.346237 232.442785 
L 88.930673 231.322962 
L 89.742391 230.274281 
L 90.781389 229.187968 
L 91.26842 228.630137 
L 92.469762 226.369389 
L 93.086667 225.061508 
L 95.067258 220.86308 
L 95.781569 220.055955 
L 96.593287 219.525241 
L 104.2559 218.110265 
L 107.01574 218.067788 
L 123.834527 217.934409 
L 398.487273 217.932999 
L 398.487273 217.932999 
" clip-path="url(#p6f94b4f28d)" style="fill: none; stroke: #ff0000; stroke-opacity: 0.2; stroke-width: 1.5; stroke-linecap: square"/>
   </g>
   <g id="patch_3">
    <path d="M 57.6 307.584 
L 57.6 41.472 
" style="fill: none; stroke: #000000; stroke-width: 0.8; stroke-linejoin: miter; stroke-linecap: square"/>
   </g>
   <g id="patch_4">
    <path d="M 414.72 307.584 
L 414.72 41.472 
" style="fill: none; stroke: #000000; stroke-width: 0.8; stroke-linejoin: miter; stroke-linecap: square"/>
   </g>
   <g id="patch_5">
    <path d="M 57.6 307.584 
L 414.72 307.584 
" style="fill: none; stroke: #000000; stroke-width: 0.8; stroke-linejoin: miter; stroke-linecap: square"/>
   </g>
   <g id="patch_6">
    <path d="M 57.6 41.472 
L 414.72 41.472 
" style="fill: none; stroke: #000000; stroke-width: 0.8; stroke-linejoin: miter; stroke-linecap: square"/>
   </g>
   <g id="text_18">
    <!-- Opinion over time -->
    <g transform="translate(155.28 35.472) scale(0.16 -0.16)">
     <defs>
      <path id="DejaVuSans-Bold-4f" d="M 2719 3878 
Q 2169 3878 1866 3472 
Q 1563 3066 1563 2328 
Q 1563 1594 1866 1187 
Q 2169 781 2719 781 
Q 3272 781 3575 1187 
Q 3878 1594 3878 2328 
Q 3878 3066 3575 3472 
Q 3272 3878 2719 3878 
z
M 2719 4750 
Q 3844 4750 4481 4106 
Q 5119 3463 5119 2328 
Q 5119 1197 4481 553 
Q 3844 -91 2719 -91 
Q 1597 -91 958 553 
Q 319 1197 319 2328 
Q 319 3463 958 4106 
Q 1597 4750 2719 4750 
z
" transform="scale(0.015625)"/>
      <path id="DejaVuSans-Bold-70" d="M 1656 506 
L 1656 -1331 
L 538 -1331 
L 538 3500 
L 1656 3500 
L 1656 2988 
Q 1888 3294 2169 3439 
Q 2450 3584 2816 3584 
Q 3463 3584 3878 3070 
Q 4294 2556 4294 1747 
Q 4294 938 3878 423 
Q 3463 -91 2816 -91 
Q 2450 -91 2169 54 
Q 1888 200 1656 506 
z
M 2400 2772 
Q 2041 2772 1848 2508 
Q 1656 2244 1656 1747 
Q 1656 1250 1848 986 
Q 2041 722 2400 722 
Q 2759 722 2948 984 
Q 3138 1247 3138 1747 
Q 3138 2247 2948 2509 
Q 2759 2772 2400 2772 
z
" transform="scale(0.015625)"/>
      <path id="DejaVuSans-Bold-69" d="M 538 3500 
L 1656 3500 
L 1656 0 
L 538 0 
L 538 3500 
z
M 538 4863 
L 1656 4863 
L 1656 3950 
L 538 3950 
L 538 4863 
z
" transform="scale(0.015625)"/>
      <path id="DejaVuSans-Bold-6e" d="M 4056 2131 
L 4056 0 
L 2931 0 
L 2931 347 
L 2931 1631 
Q 2931 2084 2911 2256 
Q 2891 2428 2841 2509 
Q 2775 2619 2662 2680 
Q 2550 2741 2406 2741 
Q 2056 2741 1856 2470 
Q 1656 2200 1656 1722 
L 1656 0 
L 538 0 
L 538 3500 
L 1656 3500 
L 1656 2988 
Q 1909 3294 2193 3439 
Q 2478 3584 2822 3584 
Q 3428 3584 3742 3212 
Q 4056 2841 4056 2131 
z
" transform="scale(0.015625)"/>
      <path id="DejaVuSans-Bold-6f" d="M 2203 2784 
Q 1831 2784 1636 2517 
Q 1441 2250 1441 1747 
Q 1441 1244 1636 976 
Q 1831 709 2203 709 
Q 2569 709 2762 976 
Q 2956 1244 2956 1747 
Q 2956 2250 2762 2517 
Q 2569 2784 2203 2784 
z
M 2203 3584 
Q 3106 3584 3614 3096 
Q 4122 2609 4122 1747 
Q 4122 884 3614 396 
Q 3106 -91 2203 -91 
Q 1297 -91 786 396 
Q 275 884 275 1747 
Q 275 2609 786 3096 
Q 1297 3584 2203 3584 
z
" transform="scale(0.015625)"/>
      <path id="DejaVuSans-Bold-20" transform="scale(0.015625)"/>
      <path id="DejaVuSans-Bold-76" d="M 97 3500 
L 1216 3500 
L 2088 1081 
L 2956 3500 
L 4078 3500 
L 2700 0 
L 1472 0 
L 97 3500 
z
" transform="scale(0.015625)"/>
      <path id="DejaVuSans-Bold-65" d="M 4031 1759 
L 4031 1441 
L 1416 1441 
Q 1456 1047 1700 850 
Q 1944 653 2381 653 
Q 2734 653 3104 758 
Q 3475 863 3866 1075 
L 3866 213 
Q 3469 63 3072 -14 
Q 2675 -91 2278 -91 
Q 1328 -91 801 392 
Q 275 875 275 1747 
Q 275 2603 792 3093 
Q 1309 3584 2216 3584 
Q 3041 3584 3536 3087 
Q 4031 2591 4031 1759 
z
M 2881 2131 
Q 2881 2450 2695 2645 
Q 2509 2841 2209 2841 
Q 1884 2841 1681 2658 
Q 1478 2475 1428 2131 
L 2881 2131 
z
" transform="scale(0.015625)"/>
      <path id="DejaVuSans-Bold-72" d="M 3138 2547 
Q 2991 2616 2845 2648 
Q 2700 2681 2553 2681 
Q 2122 2681 1889 2404 
Q 1656 2128 1656 1613 
L 1656 0 
L 538 0 
L 538 3500 
L 1656 3500 
L 1656 2925 
Q 1872 3269 2151 3426 
Q 2431 3584 2822 3584 
Q 2878 3584 2943 3579 
Q 3009 3575 3134 3559 
L 3138 2547 
z
" transform="scale(0.015625)"/>
      <path id="DejaVuSans-Bold-74" d="M 1759 4494 
L 1759 3500 
L 2913 3500 
L 2913 2700 
L 1759 2700 
L 1759 1216 
Q 1759 972 1856 886 
Q 1953 800 2241 800 
L 2816 800 
L 2816 0 
L 1856 0 
Q 1194 0 917 276 
Q 641 553 641 1216 
L 641 2700 
L 84 2700 
L 84 3500 
L 641 3500 
L 641 4494 
L 1759 4494 
z
" transform="scale(0.015625)"/>
      <path id="DejaVuSans-Bold-6d" d="M 3781 2919 
Q 3994 3244 4286 3414 
Q 4578 3584 4928 3584 
Q 5531 3584 5847 3212 
Q 6163 2841 6163 2131 
L 6163 0 
L 5038 0 
L 5038 1825 
Q 5041 1866 5042 1909 
Q 5044 1953 5044 2034 
Q 5044 2406 4934 2573 
Q 4825 2741 4581 2741 
Q 4263 2741 4089 2478 
Q 3916 2216 3909 1719 
L 3909 0 
L 2784 0 
L 2784 1825 
Q 2784 2406 2684 2573 
Q 2584 2741 2328 2741 
Q 2006 2741 1831 2477 
Q 1656 2213 1656 1722 
L 1656 0 
L 531 0 
L 531 3500 
L 1656 3500 
L 1656 2988 
Q 1863 3284 2130 3434 
Q 2397 3584 2719 3584 
Q 3081 3584 3359 3409 
Q 3638 3234 3781 2919 
z
" transform="scale(0.015625)"/>
     </defs>
     <use xlink:href="#DejaVuSans-Bold-4f"/>
     <use xlink:href="#DejaVuSans-Bold-70" transform="translate(85.009766 0)"/>
     <use xlink:href="#DejaVuSans-Bold-69" transform="translate(156.591797 0)"/>
     <use xlink:href="#DejaVuSans-Bold-6e" transform="translate(190.869141 0)"/>
     <use xlink:href="#DejaVuSans-Bold-69" transform="translate(262.060547 0)"/>
     <use xlink:href="#DejaVuSans-Bold-6f" transform="translate(296.337891 0)"/>
     <use xlink:href="#DejaVuSans-Bold-6e" transform="translate(365.039062 0)"/>
     <use xlink:href="#DejaVuSans-Bold-20" transform="translate(436.230469 0)"/>
     <use xlink:href="#DejaVuSans-Bold-6f" transform="translate(471.044922 0)"/>
     <use xlink:href="#DejaVuSans-Bold-76" transform="translate(539.746094 0)"/>
     <use xlink:href="#DejaVuSans-Bold-65" transform="translate(604.931641 0)"/>
     <use xlink:href="#DejaVuSans-Bold-72" transform="translate(672.753906 0)"/>
     <use xlink:href="#DejaVuSans-Bold-20" transform="translate(722.070312 0)"/>
     <use xlink:href="#DejaVuSans-Bold-74" transform="translate(756.884766 0)"/>
     <use xlink:href="#DejaVuSans-Bold-69" transform="translate(804.6875 0)"/>
     <use xlink:href="#DejaVuSans-Bold-6d" transform="translate(838.964844 0)"/>
     <use xlink:href="#DejaVuSans-Bold-65" transform="translate(943.164062 0)"/>
    </g>
   </g>
  </g>
 </g>
 <defs>
  <clipPath id="p6f94b4f28d">
   <rect x="57.6" y="41.472" width="357.12" height="266.112"/>
  </clipPath>
 </defs>
</svg>
