<?xml version="1.0" encoding="utf-8" standalone="no"?>
<!DOCTYPE svg PUBLIC "-//W3C//DTD SVG 1.1//EN"
  "http://www.w3.org/Graphics/SVG/1.1/DTD/svg11.dtd">
<svg xmlns:xlink="http://www.w3.org/1999/xlink" width="460.8pt" height="345.6pt" viewBox="0 0 460.8 345.6" xmlns="http://www.w3.org/2000/svg" version="1.1">
 <metadata>
  <rdf:RDF xmlns:dc="http://purl.org/dc/elements/1.1/" xmlns:cc="http://creativecommons.org/ns#" xmlns:rdf="http://www.w3.org/1999/02/22-rdf-syntax-ns#">
   <cc:Work>
    <dc:type rdf:resource="http://purl.org/dc/dcmitype/StillImage"/>
    <dc:date>2025-05-05T23:12:18.115785</dc:date>
    <dc:format>image/svg+xml</dc:format>
    <dc:creator>
     <cc:Agent>
      <dc:title>Matplotlib v3.10.1, https://matplotlib.org/</dc:title>
     </cc:Agent>
    </dc:creator>
   </cc:Work>
  </rdf:RDF>
 </metadata>
 <defs>
  <style type="text/css">*{stroke-linejoin: round; stroke-linecap: butt}</style>
 </defs>
 <g id="figure_1">
  <g id="patch_1">
   <path d="M 0 345.6 
L 460.8 345.6 
L 460.8 0 
L 0 0 
z
" style="fill: #ffffff"/>
  </g>
  <g id="axes_1">
   <g id="patch_2">
    <path d="M 57.6 307.584 
L 414.72 307.584 
L 414.72 41.472 
L 57.6 41.472 
z
" style="fill: #ffffff"/>
   </g>
   <g id="Quiver_1">
    <path d="M 218.881489 120.515886 
L 225.645379 113.589862 
L 223.240457 112.819744 
L 233.554612 107.107387 
L 228.088129 117.553935 
L 227.26127 115.167926 
L 220.497379 122.09395 
L 218.881489 120.515886 
" clip-path="url(#p1261e268d5)"/>
    <path d="M 265.609212 55.231469 
L 272.522154 48.401531 
L 270.131387 47.588532 
L 280.546038 42.06152 
L 274.893629 52.40865 
L 274.109568 50.008237 
L 267.196626 56.838175 
L 265.609212 55.231469 
" clip-path="url(#p1261e268d5)"/>
    <path d="M 298.973095 68.634687 
L 305.833713 61.821607 
L 303.44087 61.014739 
L 313.841321 55.461051 
L 308.215452 65.822635 
L 307.425241 63.424239 
L 300.564622 70.237319 
L 298.973095 68.634687 
" clip-path="url(#p1261e268d5)"/>
    <path d="M 314.763106 202.535763 
L 321.576291 195.709565 
L 319.179896 194.913306 
L 329.555638 189.313592 
L 323.975733 199.700001 
L 323.174903 197.30513 
L 316.361719 204.131327 
L 314.763106 202.535763 
" clip-path="url(#p1261e268d5)"/>
    <path d="M 280.688754 132.742547 
L 287.506484 125.887932 
L 285.108704 125.095853 
L 295.474666 119.478055 
L 289.91288 129.874177 
L 289.107876 127.480706 
L 282.290146 134.335322 
L 280.688754 132.742547 
" clip-path="url(#p1261e268d5)"/>
    <path d="M 241.829671 81.833245 
L 248.658473 75.034756 
L 246.264621 74.230885 
L 256.658109 68.664178 
L 251.045219 79.032798 
L 250.252005 76.635394 
L 243.423203 83.433883 
L 241.829671 81.833245 
" clip-path="url(#p1261e268d5)"/>
    <path d="M 335.948049 174.456287 
L 342.769682 167.64255 
L 340.374511 166.842618 
L 350.758826 161.258818 
L 345.163003 171.636659 
L 344.365846 169.240563 
L 337.544213 176.054301 
L 335.948049 174.456287 
" clip-path="url(#p1261e268d5)"/>
    <path d="M 194.809155 96.37357 
L 201.490958 89.483471 
L 199.083352 88.721783 
L 209.377429 82.973323 
L 203.947581 93.438961 
L 203.112368 91.055864 
L 196.430565 97.945962 
L 194.809155 96.37357 
" clip-path="url(#p1261e268d5)"/>
    <path d="M 344.638801 120.390242 
L 351.478664 113.573818 
L 349.084405 112.771162 
L 359.475063 107.199176 
L 353.867442 117.570647 
L 353.07301 115.173646 
L 346.233146 121.99007 
L 344.638801 120.390242 
" clip-path="url(#p1261e268d5)"/>
    <path d="M 346.021487 207.802192 
L 352.813664 201.016651 
L 350.418421 200.216936 
L 360.802231 194.632197 
L 355.207346 205.010544 
L 354.409972 202.61452 
L 347.617796 209.400062 
L 346.021487 207.802192 
" clip-path="url(#p1261e268d5)"/>
    <path d="M 296.601104 105.522704 
L 303.42827 98.708736 
L 301.033409 97.907874 
L 311.419893 92.328108 
L 305.820039 102.703775 
L 305.023813 100.30737 
L 298.196647 107.121338 
L 296.601104 105.522704 
" clip-path="url(#p1261e268d5)"/>
    <path d="M 251.423603 136.094141 
L 258.243659 129.263515 
L 255.847408 128.466825 
L 266.224156 122.868976 
L 260.642384 133.254381 
L 259.841985 130.859367 
L 253.021929 137.689993 
L 251.423603 136.094141 
" clip-path="url(#p1261e268d5)"/>
    <path d="M 313.96087 129.522052 
L 320.803504 122.692965 
L 318.408662 121.892047 
L 328.795275 116.312524 
L 323.19518 126.68806 
L 322.399009 124.291636 
L 315.556376 131.120723 
L 313.96087 129.522052 
" clip-path="url(#p1261e268d5)"/>
    <path d="M 229.416651 52.763096 
L 236.404474 45.886128 
L 234.015302 45.068456 
L 244.440741 39.56182 
L 238.768109 49.897877 
L 237.988744 47.495935 
L 231.000921 54.372904 
L 229.416651 52.763096 
" clip-path="url(#p1261e268d5)"/>
    <path d="M 266.123214 158.260559 
L 272.947266 151.422373 
L 270.550807 150.626307 
L 280.926099 145.025759 
L 275.347029 155.412616 
L 274.546006 153.017809 
L 267.721954 159.855995 
L 266.123214 158.260559 
" clip-path="url(#p1261e268d5)"/>
    <path d="M 272.092127 88.424844 
L 278.913056 81.632445 
L 276.519101 80.828882 
L 286.911873 75.260839 
L 281.300317 85.63018 
L 280.506795 83.232878 
L 273.685866 90.025276 
L 272.092127 88.424844 
" clip-path="url(#p1261e268d5)"/>
    <path d="M 246.584439 110.595084 
L 253.328171 103.803181 
L 250.92971 103.013167 
L 261.290831 97.386445 
L 255.737999 107.787353 
L 254.930933 105.394576 
L 248.187201 112.18648 
L 246.584439 110.595084 
" clip-path="url(#p1261e268d5)"/>
    <path d="M 196.52085 63.077877 
L 203.516095 56.046229 
L 201.118397 55.253904 
L 211.484935 49.63717 
L 205.922082 60.032721 
L 205.117323 57.639168 
L 198.122078 64.670816 
L 196.52085 63.077877 
" clip-path="url(#p1261e268d5)"/>
    <path d="M 298.148656 155.381931 
L 304.975648 148.514257 
L 302.577653 147.722832 
L 312.942082 142.102207 
L 307.383132 152.499846 
L 306.577474 150.106595 
L 299.750482 156.974268 
L 298.148656 155.381931 
" clip-path="url(#p1261e268d5)"/>
    <path d="M 325.568096 91.415086 
L 332.4113 84.598473 
L 330.017225 83.795266 
L 340.409167 78.225673 
L 334.799157 88.595852 
L 334.005277 86.198668 
L 327.162073 93.015281 
L 325.568096 91.415086 
" clip-path="url(#p1261e268d5)"/>
    <path d="M 255.826265 188.435492 
L 262.771337 181.483787 
L 260.375322 180.686386 
L 270.753733 175.09162 
L 265.168876 185.475366 
L 264.369188 183.080114 
L 257.424117 190.031819 
L 255.826265 188.435492 
" clip-path="url(#p1261e268d5)"/>
    <path d="M 174.278106 286.66802 
L 181.09974 279.823703 
L 178.702784 279.029136 
L 189.074572 273.422101 
L 183.501998 283.812444 
L 182.699478 281.418139 
L 175.877844 288.262456 
L 174.278106 286.66802 
" clip-path="url(#p1261e268d5)"/>
    <path d="M 311.890646 174.417218 
L 318.751833 167.523734 
L 316.354331 166.730817 
L 326.722257 161.116644 
L 321.156836 171.510821 
L 320.352668 169.117069 
L 313.491481 176.010553 
L 311.890646 174.417218 
" clip-path="url(#p1261e268d5)"/>
    <path d="M 344.167198 146.16255 
L 351.040175 139.325547 
L 348.646645 138.520719 
L 359.042356 132.958165 
L 353.425324 143.324542 
L 352.633068 140.926821 
L 345.760091 147.763824 
L 344.167198 146.16255 
" clip-path="url(#p1261e268d5)"/>
    <path d="M 113.24419 209.968693 
L 120.082668 203.111541 
L 117.685947 202.316264 
L 128.059396 196.712302 
L 122.483744 207.100994 
L 121.681933 204.706451 
L 114.843456 211.563603 
L 113.24419 209.968693 
" clip-path="url(#p1261e268d5)"/>
    <path d="M 186.937456 222.004365 
L 193.913147 215.152657 
L 191.524769 214.332665 
L 201.95555 208.836155 
L 196.272885 219.166699 
L 195.495852 216.764002 
L 188.520161 223.61571 
L 186.937456 222.004365 
" clip-path="url(#p1261e268d5)"/>
    <path d="M 195.852335 294.445518 
L 202.664995 287.616348 
L 200.268396 286.820704 
L 210.642704 281.218332 
L 205.065459 291.606169 
L 204.264016 289.211504 
L 197.451356 296.040673 
L 195.852335 294.445518 
" clip-path="url(#p1261e268d5)"/>
    <path d="M 282.343795 189.524446 
L 289.237928 182.705762 
L 286.846724 181.894049 
L 297.258402 176.361438 
L 291.611557 186.711605 
L 290.826206 184.311614 
L 283.932073 191.130298 
L 282.343795 189.524446 
" clip-path="url(#p1261e268d5)"/>
    <path d="M 270.008405 113.543775 
L 276.77165 106.728764 
L 274.372989 105.939358 
L 284.732682 100.310009 
L 279.182488 110.712324 
L 278.374816 108.319753 
L 271.611572 115.134764 
L 270.008405 113.543775 
" clip-path="url(#p1261e268d5)"/>
    <path d="M 259.599662 219.917033 
L 266.410753 213.066866 
L 264.012845 212.275177 
L 274.377894 206.655695 
L 268.817798 217.05272 
L 268.012404 214.659381 
L 261.201313 221.509547 
L 259.599662 219.917033 
" clip-path="url(#p1261e268d5)"/>
    <path d="M 173.11774 70.966011 
L 180.025971 64.176221 
L 177.637331 63.356993 
L 188.066353 57.857147 
L 182.386993 68.189508 
L 181.609192 65.787059 
L 174.700961 72.57685 
L 173.11774 70.966011 
" clip-path="url(#p1261e268d5)"/>
    <path d="M 131.978116 213.863497 
L 138.808537 207.010203 
L 136.411572 206.215664 
L 146.783293 200.608506 
L 141.210842 210.998915 
L 140.408294 208.60462 
L 133.577873 215.457914 
L 131.978116 213.863497 
" clip-path="url(#p1261e268d5)"/>
    <path d="M 157.268323 239.858499 
L 164.055118 233.064803 
L 161.659079 232.267476 
L 172.037317 226.672389 
L 166.452781 237.056308 
L 165.653019 234.66108 
L 158.866224 241.454777 
L 157.268323 239.858499 
" clip-path="url(#p1261e268d5)"/>
    <path d="M 193.330852 234.79131 
L 200.208273 227.98153 
L 197.816615 227.171156 
L 208.225192 221.632714 
L 202.584146 231.986043 
L 201.79745 229.586492 
L 194.920029 236.396273 
L 193.330852 234.79131 
" clip-path="url(#p1261e268d5)"/>
    <path d="M 129.495656 169.408304 
L 136.507541 162.699267 
L 134.130112 161.848054 
L 144.632012 156.488678 
L 138.814486 166.743882 
L 138.068999 164.33121 
L 131.057114 171.040247 
L 129.495656 169.408304 
" clip-path="url(#p1261e268d5)"/>
    <path d="M 216.215246 81.148509 
L 223.005433 74.327455 
L 220.607995 73.534345 
L 230.976372 67.921005 
L 225.410116 78.314735 
L 224.60614 75.920918 
L 217.815953 82.741972 
L 216.215246 81.148509 
" clip-path="url(#p1261e268d5)"/>
    <path d="M 265.450948 200.673057 
L 272.273233 193.838925 
L 269.876907 193.042459 
L 280.253134 187.443643 
L 274.67233 197.829568 
L 273.871707 195.434628 
L 267.049422 202.26876 
L 265.450948 200.673057 
" clip-path="url(#p1261e268d5)"/>
    <path d="M 268.033739 179.44215 
L 274.975057 172.56853 
L 272.583366 171.758256 
L 282.991713 166.219382 
L 277.351097 176.572945 
L 276.564301 174.173427 
L 269.622983 181.047046 
L 268.033739 179.44215 
" clip-path="url(#p1261e268d5)"/>
    <path d="M 110.71793 191.702975 
L 117.560818 184.847569 
L 115.164455 184.051214 
L 125.540422 178.451918 
L 119.960099 188.838101 
L 119.159366 186.443198 
L 112.316478 193.298604 
L 110.71793 191.702975 
" clip-path="url(#p1261e268d5)"/>
    <path d="M 142.776342 230.235537 
L 149.608009 223.379817 
L 147.210976 222.585483 
L 157.582217 216.977438 
L 152.010656 227.368324 
L 151.207903 224.974097 
L 144.376235 231.829817 
L 142.776342 230.235537 
" clip-path="url(#p1261e268d5)"/>
    <path d="M 324.471697 152.0436 
L 331.330642 145.200924 
L 328.935958 144.399536 
L 339.323667 138.822053 
L 333.721533 149.196489 
L 332.925834 146.799909 
L 326.066889 153.642584 
L 324.471697 152.0436 
" clip-path="url(#p1261e268d5)"/>
    <path d="M 210.544851 224.484194 
L 217.451132 217.584127 
L 215.055858 216.784505 
L 225.439452 211.199365 
L 219.844969 221.577928 
L 219.047502 219.181935 
L 212.141221 226.082002 
L 210.544851 224.484194 
" clip-path="url(#p1261e268d5)"/>
    <path d="M 195.156155 276.205733 
L 202.012707 269.364379 
L 199.61796 268.563177 
L 210.005236 262.984887 
L 204.403909 273.359758 
L 203.608023 270.96324 
L 196.751471 277.804593 
L 195.156155 276.205733 
" clip-path="url(#p1261e268d5)"/>
    <path d="M 179.855507 263.388677 
L 186.686962 256.575011 
L 184.292371 255.773343 
L 194.680729 250.19707 
L 189.077389 260.570853 
L 188.281968 258.17418 
L 181.450513 264.987847 
L 179.855507 263.388677 
" clip-path="url(#p1261e268d5)"/>
    <path d="M 170.115984 111.807865 
L 176.993114 104.775447 
L 174.588715 104.003696 
L 184.906746 98.298344 
L 179.433171 108.741178 
L 178.607932 106.354608 
L 171.730802 113.387026 
L 170.115984 111.807865 
" clip-path="url(#p1261e268d5)"/>
    <path d="M 304.453447 226.371769 
L 311.2803 219.533595 
L 308.884006 218.737036 
L 319.260451 213.138626 
L 313.679241 223.524332 
L 312.878712 221.129361 
L 306.051859 227.967534 
L 304.453447 226.371769 
" clip-path="url(#p1261e268d5)"/>
    <path d="M 143.10868 263.268822 
L 149.955123 256.408142 
L 147.558662 255.612086 
L 157.93393 250.011495 
L 152.354903 260.398375 
L 151.553871 258.003572 
L 144.707427 264.864252 
L 143.10868 263.268822 
" clip-path="url(#p1261e268d5)"/>
    <path d="M 118.724738 231.848723 
L 125.560255 224.995652 
L 123.163599 224.20018 
L 133.537502 218.59706 
L 127.961007 228.985299 
L 127.159391 226.590692 
L 120.323874 233.443763 
L 118.724738 231.848723 
" clip-path="url(#p1261e268d5)"/>
    <path d="M 311.735884 261.696249 
L 318.528087 254.890855 
L 316.13168 254.094635 
L 326.507333 248.494756 
L 320.927593 258.881253 
L 320.126725 256.486394 
L 313.334521 263.291788 
L 311.735884 261.696249 
" clip-path="url(#p1261e268d5)"/>
    <path d="M 219.388835 207.056098 
L 226.225272 200.168975 
L 223.826705 199.379284 
L 234.187069 193.751168 
L 228.635636 204.152823 
L 227.828249 201.760154 
L 220.991812 208.647278 
L 219.388835 207.056098 
" clip-path="url(#p1261e268d5)"/>
    <path d="M 156.900992 276.513515 
L 163.721887 269.668294 
L 161.324835 268.874015 
L 171.695949 263.265733 
L 166.124624 273.656746 
L 165.321816 271.262537 
L 158.500921 278.107759 
L 156.900992 276.513515 
" clip-path="url(#p1261e268d5)"/>
    <path d="M 360.006645 178.63886 
L 366.800403 171.885656 
L 364.40717 171.079944 
L 374.804937 165.521233 
L 369.184073 175.885533 
L 368.392704 173.487519 
L 361.598946 180.240723 
L 360.006645 178.63886 
" clip-path="url(#p1261e268d5)"/>
    <path d="M 151.857382 156.671537 
L 158.746008 149.741788 
L 156.348008 148.950377 
L 166.712407 143.329695 
L 161.153513 153.727364 
L 160.347843 151.334118 
L 153.459217 158.263866 
L 151.857382 156.671537 
" clip-path="url(#p1261e268d5)"/>
    <path d="M 300.545534 246.374407 
L 307.354465 239.54615 
L 304.957702 238.751001 
L 315.330849 233.146483 
L 309.755754 243.535474 
L 308.953815 241.140974 
L 302.144885 247.969231 
L 300.545534 246.374407 
" clip-path="url(#p1261e268d5)"/>
    <path d="M 214.821808 294.690021 
L 221.650226 287.851922 
L 219.254027 287.055074 
L 229.631144 281.457909 
L 224.048688 291.842946 
L 223.248446 289.447879 
L 216.420028 296.285979 
L 214.821808 294.690021 
" clip-path="url(#p1261e268d5)"/>
    <path d="M 359.652208 153.315488 
L 366.467921 146.552987 
L 364.075435 145.74506 
L 374.478341 140.195974 
L 368.847889 150.555068 
L 368.058739 148.156323 
L 361.243026 154.918823 
L 359.652208 153.315488 
" clip-path="url(#p1261e268d5)"/>
    <path d="M 202.099073 210.917379 
L 208.983468 203.984985 
L 206.585075 203.194768 
L 216.946673 197.568926 
L 211.392958 207.969362 
L 210.586096 205.576517 
L 203.701701 212.50891 
L 202.099073 210.917379 
" clip-path="url(#p1261e268d5)"/>
    <path d="M 239.930784 153.763863 
L 246.746273 146.899227 
L 244.347786 146.109295 
L 254.708717 140.482224 
L 249.156235 150.883318 
L 248.349089 148.490569 
L 241.533601 155.355204 
L 239.930784 153.763863 
" clip-path="url(#p1261e268d5)"/>
    <path d="M 259.636604 257.236311 
L 266.406953 250.401706 
L 264.007574 249.614485 
L 274.362138 243.975706 
L 268.821417 254.38307 
L 268.011567 251.991235 
L 261.241218 258.82584 
L 259.636604 257.236311 
" clip-path="url(#p1261e268d5)"/>
    <path d="M 166.675352 252.989218 
L 173.556765 246.120083 
L 171.161845 245.3194 
L 181.547912 239.738859 
L 175.948833 250.114944 
L 175.152428 247.718598 
L 168.271015 254.587733 
L 166.675352 252.989218 
" clip-path="url(#p1261e268d5)"/>
    <path d="M 227.652525 223.471976 
L 234.548529 216.536568 
L 232.15063 215.744852 
L 242.515743 210.125488 
L 236.955528 220.52245 
L 236.150162 218.129101 
L 229.254158 225.064509 
L 227.652525 223.471976 
" clip-path="url(#p1261e268d5)"/>
    <path d="M 284.905125 172.598233 
L 291.767917 165.742859 
L 289.372715 164.943019 
L 299.756816 159.358821 
L 294.161391 169.736877 
L 293.364142 167.340811 
L 286.50135 174.196185 
L 284.905125 172.598233 
" clip-path="url(#p1261e268d5)"/>
    <path d="M 186.781343 116.741412 
L 193.583615 109.940472 
L 191.18806 109.141693 
L 201.569687 103.552898 
L 195.978858 113.93343 
L 195.180548 111.537718 
L 188.378276 118.338658 
L 186.781343 116.741412 
" clip-path="url(#p1261e268d5)"/>
    <path d="M 190.157827 155.119874 
L 197.04423 148.29179 
L 194.652014 147.483065 
L 205.05677 141.937448 
L 199.422864 152.294664 
L 198.634514 149.895656 
L 191.74811 156.72374 
L 190.157827 155.119874 
" clip-path="url(#p1261e268d5)"/>
    <path d="M 200.058126 169.153946 
L 206.94934 162.27966 
L 204.55469 161.47817 
L 214.942636 155.901128 
L 209.340062 166.275326 
L 208.544464 163.878712 
L 201.65325 170.752998 
L 200.058126 169.153946 
" clip-path="url(#p1261e268d5)"/>
    <path d="M 298.559009 185.391387 
L 305.446796 178.507016 
L 303.05136 177.707878 
L 313.433826 172.12064 
L 307.841439 182.500333 
L 307.043489 180.104502 
L 300.155703 186.988873 
L 298.559009 185.391387 
" clip-path="url(#p1261e268d5)"/>
    <path d="M 130.031041 249.66793 
L 136.8505 242.83044 
L 134.453814 242.035059 
L 144.827505 236.431546 
L 139.251403 246.819997 
L 138.449697 244.425419 
L 131.630237 251.262909 
L 130.031041 249.66793 
" clip-path="url(#p1261e268d5)"/>
    <path d="M 228.844263 139.030405 
L 235.707361 132.041486 
L 233.304573 131.264734 
L 243.634453 125.580862 
L 238.139161 136.012285 
L 237.31889 133.624004 
L 230.455792 140.612922 
L 228.844263 139.030405 
" clip-path="url(#p1261e268d5)"/>
    <path d="M 221.275535 98.873684 
L 227.990844 91.994354 
L 225.58575 91.224769 
L 235.898638 85.510123 
L 230.434473 95.957885 
L 229.607085 93.572059 
L 222.891776 100.45139 
L 221.275535 98.873684 
" clip-path="url(#p1261e268d5)"/>
    <path d="M 230.073161 265.170933 
L 236.929235 258.306072 
L 234.53309 257.509062 
L 244.910588 251.912602 
L 239.327425 262.29726 
L 238.527347 259.902138 
L 231.671272 266.766999 
L 230.073161 265.170933 
" clip-path="url(#p1261e268d5)"/>
    <path d="M 216.871111 156.890483 
L 223.786917 149.967862 
L 221.39089 149.170497 
L 231.769216 143.575573 
L 226.184517 153.959404 
L 225.384793 151.564164 
L 218.468987 158.486785 
L 216.871111 156.890483 
" clip-path="url(#p1261e268d5)"/>
    <path d="M 249.366541 279.439853 
L 256.189202 272.603699 
L 253.792781 271.807521 
L 264.168334 266.207457 
L 258.588779 276.594054 
L 257.787869 274.19921 
L 250.965207 281.035364 
L 249.366541 279.439853 
" clip-path="url(#p1261e268d5)"/>
    <path d="M 165.559341 137.423283 
L 172.437421 130.454639 
L 170.036616 129.67178 
L 180.380915 124.014192 
L 174.859118 134.431609 
L 174.044922 132.041249 
L 167.166842 139.009893 
L 165.559341 137.423283 
" clip-path="url(#p1261e268d5)"/>
    <path d="M 275.324669 239.728674 
L 282.128059 232.91946 
L 279.732083 232.12194 
L 290.11077 226.527687 
L 284.525401 236.911157 
L 283.725831 234.515865 
L 276.922442 241.32508 
L 275.324669 239.728674 
" clip-path="url(#p1261e268d5)"/>
    <path d="M 169.705852 207.64783 
L 176.617277 200.907343 
L 174.231829 200.078867 
L 184.68208 194.619466 
L 178.962733 204.929747 
L 178.194245 202.524303 
L 171.28282 209.26479 
L 169.705852 207.64783 
" clip-path="url(#p1261e268d5)"/>
    <path d="M 284.191114 212.460893 
L 290.988774 205.66106 
L 288.593013 204.862898 
L 298.973199 199.271427 
L 293.385046 209.6534 
L 292.586118 207.257894 
L 285.788458 214.057727 
L 284.191114 212.460893 
" clip-path="url(#p1261e268d5)"/>
    <path d="M 327.260376 237.912781 
L 334.056454 231.114314 
L 331.660679 230.316191 
L 342.040777 224.724554 
L 336.452789 235.106616 
L 335.653823 232.711123 
L 328.857746 239.50959 
L 327.260376 237.912781 
" clip-path="url(#p1261e268d5)"/>
    <path d="M 191.345949 191.240932 
L 198.14594 184.328894 
L 195.743862 183.549951 
L 206.07892 177.875501 
L 200.574119 188.301909 
L 199.756026 185.91288 
L 192.956035 192.824918 
L 191.345949 191.240932 
" clip-path="url(#p1261e268d5)"/>
    <path d="M 173.471768 169.065505 
L 180.308013 162.108645 
L 177.905489 161.331079 
L 188.237293 155.650706 
L 182.738469 166.080268 
L 181.919007 163.691708 
L 175.082762 170.648568 
L 173.471768 169.065505 
" clip-path="url(#p1261e268d5)"/>
    <path d="M 283.977228 272.41851 
L 290.779991 265.595098 
L 288.383149 264.800185 
L 298.755747 259.194648 
L 293.181672 269.584186 
L 292.379498 267.189765 
L 285.576735 274.013177 
L 283.977228 272.41851 
" clip-path="url(#p1261e268d5)"/>
    <path d="M 149.440552 184.594967 
L 156.410624 177.834403 
L 154.027452 176.999402 
L 164.492605 171.568622 
L 158.745063 181.863211 
L 157.983161 179.455673 
L 151.013089 186.216236 
L 149.440552 184.594967 
" clip-path="url(#p1261e268d5)"/>
    <path d="M 139.176145 116.63494 
L 145.843489 110.017597 
L 143.450877 109.210041 
L 153.852922 103.65934 
L 148.224078 114.019308 
L 147.434556 111.620686 
L 140.767212 118.238029 
L 139.176145 116.63494 
" clip-path="url(#p1261e268d5)"/>
    <path d="M 218.123509 186.095789 
L 224.947111 179.222006 
L 222.548568 178.432243 
L 232.909099 172.804437 
L 227.357356 183.205925 
L 226.55004 180.813233 
L 219.726438 187.687017 
L 218.123509 186.095789 
" clip-path="url(#p1261e268d5)"/>
    <path d="M 240.983648 174.404923 
L 247.835164 167.547928 
L 245.439211 166.750341 
L 255.818056 161.15638 
L 250.232393 171.539693 
L 249.432891 169.144379 
L 242.581376 176.001373 
L 240.983648 174.404923 
" clip-path="url(#p1261e268d5)"/>
    <path d="M 128.079946 146.104305 
L 134.763306 139.52542 
L 132.374037 138.708029 
L 142.798828 133.200166 
L 137.127413 143.536891 
L 136.347765 141.135041 
L 129.664405 147.713925 
L 128.079946 146.104305 
" clip-path="url(#p1261e268d5)"/>
    <path d="M 241.822497 206.3889 
L 248.691207 199.454511 
L 246.2918 198.667374 
L 256.646165 193.028229 
L 251.105812 203.435789 
L 250.295877 201.043982 
L 243.427167 207.978372 
L 241.822497 206.3889 
" clip-path="url(#p1261e268d5)"/>
    <path d="M 213.265099 248.625114 
L 220.12986 241.772206 
L 217.734917 240.971592 
L 228.120822 235.390751 
L 222.522043 245.766997 
L 221.725569 243.370674 
L 214.860808 250.223583 
L 213.265099 248.625114 
" clip-path="url(#p1261e268d5)"/>
    <path d="M 242.623543 239.899428 
L 249.467052 232.998736 
L 247.068117 232.210165 
L 257.42585 226.57721 
L 251.879277 236.981457 
L 251.070772 234.589166 
L 244.227264 241.489859 
L 242.623543 239.899428 
" clip-path="url(#p1261e268d5)"/>
    <path d="M 196.404382 136.172404 
L 203.227501 129.35461 
L 200.83218 128.55513 
L 211.215441 122.969371 
L 205.621576 133.348268 
L 204.823967 130.952323 
L 198.000847 137.770117 
L 196.404382 136.172404 
" clip-path="url(#p1261e268d5)"/>
    <path d="M 157.362236 90.168521 
L 163.998366 83.394909 
L 161.594672 82.620966 
L 171.9179 76.925023 
L 166.434807 87.362863 
L 165.611744 84.975541 
L 158.975615 91.749153 
L 157.362236 90.168521 
" clip-path="url(#p1261e268d5)"/>
   </g>
   <g id="matplotlib.axis_1">
    <g id="xtick_1">
     <g id="line2d_1">
      <defs>
       <path id="m2c0823d96e" d="M 0 0 
L 0 3.5 
" style="stroke: #000000; stroke-width: 0.8"/>
      </defs>
      <g>
       <use xlink:href="#m2c0823d96e" x="109.049093" y="307.584" style="stroke: #000000; stroke-width: 0.8"/>
      </g>
     </g>
     <g id="text_1">
      <!-- 86.0 -->
      <g transform="translate(95.689718 323.702125) scale(0.12 -0.12)">
       <defs>
        <path id="DejaVuSans-38" d="M 2034 2216 
Q 1584 2216 1326 1975 
Q 1069 1734 1069 1313 
Q 1069 891 1326 650 
Q 1584 409 2034 409 
Q 2484 409 2743 651 
Q 3003 894 3003 1313 
Q 3003 1734 2745 1975 
Q 2488 2216 2034 2216 
z
M 1403 2484 
Q 997 2584 770 2862 
Q 544 3141 544 3541 
Q 544 4100 942 4425 
Q 1341 4750 2034 4750 
Q 2731 4750 3128 4425 
Q 3525 4100 3525 3541 
Q 3525 3141 3298 2862 
Q 3072 2584 2669 2484 
Q 3125 2378 3379 2068 
Q 3634 1759 3634 1313 
Q 3634 634 3220 271 
Q 2806 -91 2034 -91 
Q 1263 -91 848 271 
Q 434 634 434 1313 
Q 434 1759 690 2068 
Q 947 2378 1403 2484 
z
M 1172 3481 
Q 1172 3119 1398 2916 
Q 1625 2713 2034 2713 
Q 2441 2713 2670 2916 
Q 2900 3119 2900 3481 
Q 2900 3844 2670 4047 
Q 2441 4250 2034 4250 
Q 1625 4250 1398 4047 
Q 1172 3844 1172 3481 
z
" transform="scale(0.015625)"/>
        <path id="DejaVuSans-36" d="M 2113 2584 
Q 1688 2584 1439 2293 
Q 1191 2003 1191 1497 
Q 1191 994 1439 701 
Q 1688 409 2113 409 
Q 2538 409 2786 701 
Q 3034 994 3034 1497 
Q 3034 2003 2786 2293 
Q 2538 2584 2113 2584 
z
M 3366 4563 
L 3366 3988 
Q 3128 4100 2886 4159 
Q 2644 4219 2406 4219 
Q 1781 4219 1451 3797 
Q 1122 3375 1075 2522 
Q 1259 2794 1537 2939 
Q 1816 3084 2150 3084 
Q 2853 3084 3261 2657 
Q 3669 2231 3669 1497 
Q 3669 778 3244 343 
Q 2819 -91 2113 -91 
Q 1303 -91 875 529 
Q 447 1150 447 2328 
Q 447 3434 972 4092 
Q 1497 4750 2381 4750 
Q 2619 4750 2861 4703 
Q 3103 4656 3366 4563 
z
" transform="scale(0.015625)"/>
        <path id="DejaVuSans-2e" d="M 684 794 
L 1344 794 
L 1344 0 
L 684 0 
L 684 794 
z
" transform="scale(0.015625)"/>
        <path id="DejaVuSans-30" d="M 2034 4250 
Q 1547 4250 1301 3770 
Q 1056 3291 1056 2328 
Q 1056 1369 1301 889 
Q 1547 409 2034 409 
Q 2525 409 2770 889 
Q 3016 1369 3016 2328 
Q 3016 3291 2770 3770 
Q 2525 4250 2034 4250 
z
M 2034 4750 
Q 2819 4750 3233 4129 
Q 3647 3509 3647 2328 
Q 3647 1150 3233 529 
Q 2819 -91 2034 -91 
Q 1250 -91 836 529 
Q 422 1150 422 2328 
Q 422 3509 836 4129 
Q 1250 4750 2034 4750 
z
" transform="scale(0.015625)"/>
       </defs>
       <use xlink:href="#DejaVuSans-38"/>
       <use xlink:href="#DejaVuSans-36" transform="translate(63.623047 0)"/>
       <use xlink:href="#DejaVuSans-2e" transform="translate(127.246094 0)"/>
       <use xlink:href="#DejaVuSans-30" transform="translate(159.033203 0)"/>
      </g>
     </g>
    </g>
    <g id="xtick_2">
     <g id="line2d_2">
      <g>
       <use xlink:href="#m2c0823d96e" x="170.698611" y="307.584" style="stroke: #000000; stroke-width: 0.8"/>
      </g>
     </g>
     <g id="text_2">
      <!-- 86.5 -->
      <g transform="translate(157.339236 323.702125) scale(0.12 -0.12)">
       <defs>
        <path id="DejaVuSans-35" d="M 691 4666 
L 3169 4666 
L 3169 4134 
L 1269 4134 
L 1269 2991 
Q 1406 3038 1543 3061 
Q 1681 3084 1819 3084 
Q 2600 3084 3056 2656 
Q 3513 2228 3513 1497 
Q 3513 744 3044 326 
Q 2575 -91 1722 -91 
Q 1428 -91 1123 -41 
Q 819 9 494 109 
L 494 744 
Q 775 591 1075 516 
Q 1375 441 1709 441 
Q 2250 441 2565 725 
Q 2881 1009 2881 1497 
Q 2881 1984 2565 2268 
Q 2250 2553 1709 2553 
Q 1456 2553 1204 2497 
Q 953 2441 691 2322 
L 691 4666 
z
" transform="scale(0.015625)"/>
       </defs>
       <use xlink:href="#DejaVuSans-38"/>
       <use xlink:href="#DejaVuSans-36" transform="translate(63.623047 0)"/>
       <use xlink:href="#DejaVuSans-2e" transform="translate(127.246094 0)"/>
       <use xlink:href="#DejaVuSans-35" transform="translate(159.033203 0)"/>
      </g>
     </g>
    </g>
    <g id="xtick_3">
     <g id="line2d_3">
      <g>
       <use xlink:href="#m2c0823d96e" x="232.348129" y="307.584" style="stroke: #000000; stroke-width: 0.8"/>
      </g>
     </g>
     <g id="text_3">
      <!-- 87.0 -->
      <g transform="translate(218.988754 323.702125) scale(0.12 -0.12)">
       <defs>
        <path id="DejaVuSans-37" d="M 525 4666 
L 3525 4666 
L 3525 4397 
L 1831 0 
L 1172 0 
L 2766 4134 
L 525 4134 
L 525 4666 
z
" transform="scale(0.015625)"/>
       </defs>
       <use xlink:href="#DejaVuSans-38"/>
       <use xlink:href="#DejaVuSans-37" transform="translate(63.623047 0)"/>
       <use xlink:href="#DejaVuSans-2e" transform="translate(127.246094 0)"/>
       <use xlink:href="#DejaVuSans-30" transform="translate(159.033203 0)"/>
      </g>
     </g>
    </g>
    <g id="xtick_4">
     <g id="line2d_4">
      <g>
       <use xlink:href="#m2c0823d96e" x="293.997647" y="307.584" style="stroke: #000000; stroke-width: 0.8"/>
      </g>
     </g>
     <g id="text_4">
      <!-- 87.5 -->
      <g transform="translate(280.638272 323.702125) scale(0.12 -0.12)">
       <use xlink:href="#DejaVuSans-38"/>
       <use xlink:href="#DejaVuSans-37" transform="translate(63.623047 0)"/>
       <use xlink:href="#DejaVuSans-2e" transform="translate(127.246094 0)"/>
       <use xlink:href="#DejaVuSans-35" transform="translate(159.033203 0)"/>
      </g>
     </g>
    </g>
    <g id="xtick_5">
     <g id="line2d_5">
      <g>
       <use xlink:href="#m2c0823d96e" x="355.647165" y="307.584" style="stroke: #000000; stroke-width: 0.8"/>
      </g>
     </g>
     <g id="text_5">
      <!-- 88.0 -->
      <g transform="translate(342.28779 323.702125) scale(0.12 -0.12)">
       <use xlink:href="#DejaVuSans-38"/>
       <use xlink:href="#DejaVuSans-38" transform="translate(63.623047 0)"/>
       <use xlink:href="#DejaVuSans-2e" transform="translate(127.246094 0)"/>
       <use xlink:href="#DejaVuSans-30" transform="translate(159.033203 0)"/>
      </g>
     </g>
    </g>
    <g id="text_6">
     <!-- x -->
     <g transform="translate(232.016875 340.835562) scale(0.14 -0.14)">
      <defs>
       <path id="DejaVuSans-78" d="M 3513 3500 
L 2247 1797 
L 3578 0 
L 2900 0 
L 1881 1375 
L 863 0 
L 184 0 
L 1544 1831 
L 300 3500 
L 978 3500 
L 1906 2253 
L 2834 3500 
L 3513 3500 
z
" transform="scale(0.015625)"/>
      </defs>
      <use xlink:href="#DejaVuSans-78"/>
     </g>
    </g>
   </g>
   <g id="matplotlib.axis_2">
    <g id="ytick_1">
     <g id="line2d_6">
      <defs>
       <path id="m4d3817e136" d="M 0 0 
L -3.5 0 
" style="stroke: #000000; stroke-width: 0.8"/>
      </defs>
      <g>
       <use xlink:href="#m4d3817e136" x="57.6" y="284.62633" style="stroke: #000000; stroke-width: 0.8"/>
      </g>
     </g>
     <g id="text_7">
      <!-- 84.50 -->
      <g transform="translate(16.24625 289.185392) scale(0.12 -0.12)">
       <defs>
        <path id="DejaVuSans-34" d="M 2419 4116 
L 825 1625 
L 2419 1625 
L 2419 4116 
z
M 2253 4666 
L 3047 4666 
L 3047 1625 
L 3713 1625 
L 3713 1100 
L 3047 1100 
L 3047 0 
L 2419 0 
L 2419 1100 
L 313 1100 
L 313 1709 
L 2253 4666 
z
" transform="scale(0.015625)"/>
       </defs>
       <use xlink:href="#DejaVuSans-38"/>
       <use xlink:href="#DejaVuSans-34" transform="translate(63.623047 0)"/>
       <use xlink:href="#DejaVuSans-2e" transform="translate(127.246094 0)"/>
       <use xlink:href="#DejaVuSans-35" transform="translate(159.033203 0)"/>
       <use xlink:href="#DejaVuSans-30" transform="translate(222.65625 0)"/>
      </g>
     </g>
    </g>
    <g id="ytick_2">
     <g id="line2d_7">
      <g>
       <use xlink:href="#m4d3817e136" x="57.6" y="253.801571" style="stroke: #000000; stroke-width: 0.8"/>
      </g>
     </g>
     <g id="text_8">
      <!-- 84.75 -->
      <g transform="translate(16.24625 258.360633) scale(0.12 -0.12)">
       <use xlink:href="#DejaVuSans-38"/>
       <use xlink:href="#DejaVuSans-34" transform="translate(63.623047 0)"/>
       <use xlink:href="#DejaVuSans-2e" transform="translate(127.246094 0)"/>
       <use xlink:href="#DejaVuSans-37" transform="translate(159.033203 0)"/>
       <use xlink:href="#DejaVuSans-35" transform="translate(222.65625 0)"/>
      </g>
     </g>
    </g>
    <g id="ytick_3">
     <g id="line2d_8">
      <g>
       <use xlink:href="#m4d3817e136" x="57.6" y="222.976812" style="stroke: #000000; stroke-width: 0.8"/>
      </g>
     </g>
     <g id="text_9">
      <!-- 85.00 -->
      <g transform="translate(16.24625 227.535874) scale(0.12 -0.12)">
       <use xlink:href="#DejaVuSans-38"/>
       <use xlink:href="#DejaVuSans-35" transform="translate(63.623047 0)"/>
       <use xlink:href="#DejaVuSans-2e" transform="translate(127.246094 0)"/>
       <use xlink:href="#DejaVuSans-30" transform="translate(159.033203 0)"/>
       <use xlink:href="#DejaVuSans-30" transform="translate(222.65625 0)"/>
      </g>
     </g>
    </g>
    <g id="ytick_4">
     <g id="line2d_9">
      <g>
       <use xlink:href="#m4d3817e136" x="57.6" y="192.152053" style="stroke: #000000; stroke-width: 0.8"/>
      </g>
     </g>
     <g id="text_10">
      <!-- 85.25 -->
      <g transform="translate(16.24625 196.711116) scale(0.12 -0.12)">
       <defs>
        <path id="DejaVuSans-32" d="M 1228 531 
L 3431 531 
L 3431 0 
L 469 0 
L 469 531 
Q 828 903 1448 1529 
Q 2069 2156 2228 2338 
Q 2531 2678 2651 2914 
Q 2772 3150 2772 3378 
Q 2772 3750 2511 3984 
Q 2250 4219 1831 4219 
Q 1534 4219 1204 4116 
Q 875 4013 500 3803 
L 500 4441 
Q 881 4594 1212 4672 
Q 1544 4750 1819 4750 
Q 2544 4750 2975 4387 
Q 3406 4025 3406 3419 
Q 3406 3131 3298 2873 
Q 3191 2616 2906 2266 
Q 2828 2175 2409 1742 
Q 1991 1309 1228 531 
z
" transform="scale(0.015625)"/>
       </defs>
       <use xlink:href="#DejaVuSans-38"/>
       <use xlink:href="#DejaVuSans-35" transform="translate(63.623047 0)"/>
       <use xlink:href="#DejaVuSans-2e" transform="translate(127.246094 0)"/>
       <use xlink:href="#DejaVuSans-32" transform="translate(159.033203 0)"/>
       <use xlink:href="#DejaVuSans-35" transform="translate(222.65625 0)"/>
      </g>
     </g>
    </g>
    <g id="ytick_5">
     <g id="line2d_10">
      <g>
       <use xlink:href="#m4d3817e136" x="57.6" y="161.327294" style="stroke: #000000; stroke-width: 0.8"/>
      </g>
     </g>
     <g id="text_11">
      <!-- 85.50 -->
      <g transform="translate(16.24625 165.886357) scale(0.12 -0.12)">
       <use xlink:href="#DejaVuSans-38"/>
       <use xlink:href="#DejaVuSans-35" transform="translate(63.623047 0)"/>
       <use xlink:href="#DejaVuSans-2e" transform="translate(127.246094 0)"/>
       <use xlink:href="#DejaVuSans-35" transform="translate(159.033203 0)"/>
       <use xlink:href="#DejaVuSans-30" transform="translate(222.65625 0)"/>
      </g>
     </g>
    </g>
    <g id="ytick_6">
     <g id="line2d_11">
      <g>
       <use xlink:href="#m4d3817e136" x="57.6" y="130.502535" style="stroke: #000000; stroke-width: 0.8"/>
      </g>
     </g>
     <g id="text_12">
      <!-- 85.75 -->
      <g transform="translate(16.24625 135.061598) scale(0.12 -0.12)">
       <use xlink:href="#DejaVuSans-38"/>
       <use xlink:href="#DejaVuSans-35" transform="translate(63.623047 0)"/>
       <use xlink:href="#DejaVuSans-2e" transform="translate(127.246094 0)"/>
       <use xlink:href="#DejaVuSans-37" transform="translate(159.033203 0)"/>
       <use xlink:href="#DejaVuSans-35" transform="translate(222.65625 0)"/>
      </g>
     </g>
    </g>
    <g id="ytick_7">
     <g id="line2d_12">
      <g>
       <use xlink:href="#m4d3817e136" x="57.6" y="99.677776" style="stroke: #000000; stroke-width: 0.8"/>
      </g>
     </g>
     <g id="text_13">
      <!-- 86.00 -->
      <g transform="translate(16.24625 104.236839) scale(0.12 -0.12)">
       <use xlink:href="#DejaVuSans-38"/>
       <use xlink:href="#DejaVuSans-36" transform="translate(63.623047 0)"/>
       <use xlink:href="#DejaVuSans-2e" transform="translate(127.246094 0)"/>
       <use xlink:href="#DejaVuSans-30" transform="translate(159.033203 0)"/>
       <use xlink:href="#DejaVuSans-30" transform="translate(222.65625 0)"/>
      </g>
     </g>
    </g>
    <g id="ytick_8">
     <g id="line2d_13">
      <g>
       <use xlink:href="#m4d3817e136" x="57.6" y="68.853017" style="stroke: #000000; stroke-width: 0.8"/>
      </g>
     </g>
     <g id="text_14">
      <!-- 86.25 -->
      <g transform="translate(16.24625 73.41208) scale(0.12 -0.12)">
       <use xlink:href="#DejaVuSans-38"/>
       <use xlink:href="#DejaVuSans-36" transform="translate(63.623047 0)"/>
       <use xlink:href="#DejaVuSans-2e" transform="translate(127.246094 0)"/>
       <use xlink:href="#DejaVuSans-32" transform="translate(159.033203 0)"/>
       <use xlink:href="#DejaVuSans-35" transform="translate(222.65625 0)"/>
      </g>
     </g>
    </g>
    <g id="text_15">
     <!-- y -->
     <g transform="translate(9.334688 178.671125) rotate(-90) scale(0.14 -0.14)">
      <defs>
       <path id="DejaVuSans-79" d="M 2059 -325 
Q 1816 -950 1584 -1140 
Q 1353 -1331 966 -1331 
L 506 -1331 
L 506 -850 
L 844 -850 
Q 1081 -850 1212 -737 
Q 1344 -625 1503 -206 
L 1606 56 
L 191 3500 
L 800 3500 
L 1894 763 
L 2988 3500 
L 3597 3500 
L 2059 -325 
z
" transform="scale(0.015625)"/>
      </defs>
      <use xlink:href="#DejaVuSans-79"/>
     </g>
    </g>
   </g>
   <g id="line2d_14">
    <defs>
     <path id="m3cd6cbcceb" d="M 0 3 
C 0.795609 3 1.55874 2.683901 2.12132 2.12132 
C 2.683901 1.55874 3 0.795609 3 0 
C 3 -0.795609 2.683901 -1.55874 2.12132 -2.12132 
C 1.55874 -2.683901 0.795609 -3 0 -3 
C -0.795609 -3 -1.55874 -2.683901 -2.12132 -2.12132 
C -2.683901 -1.55874 -3 -0.795609 -3 0 
C -3 0.795609 -2.683901 1.55874 -2.12132 2.12132 
C -1.55874 2.683901 -0.795609 3 0 3 
z
" style="stroke: #0000ff"/>
    </defs>
    <g clip-path="url(#p1261e268d5)">
     <use xlink:href="#m3cd6cbcceb" x="219.689434" y="121.304918" style="fill: #0000ff; stroke: #0000ff"/>
     <use xlink:href="#m3cd6cbcceb" x="266.402919" y="56.034822" style="fill: #0000ff; stroke: #0000ff"/>
     <use xlink:href="#m3cd6cbcceb" x="299.768859" y="69.436003" style="fill: #0000ff; stroke: #0000ff"/>
     <use xlink:href="#m3cd6cbcceb" x="315.562412" y="203.333545" style="fill: #0000ff; stroke: #0000ff"/>
     <use xlink:href="#m3cd6cbcceb" x="281.48945" y="133.538934" style="fill: #0000ff; stroke: #0000ff"/>
     <use xlink:href="#m3cd6cbcceb" x="242.626437" y="82.633564" style="fill: #0000ff; stroke: #0000ff"/>
     <use xlink:href="#m3cd6cbcceb" x="336.746131" y="175.255294" style="fill: #0000ff; stroke: #0000ff"/>
     <use xlink:href="#m3cd6cbcceb" x="195.61986" y="97.159766" style="fill: #0000ff; stroke: #0000ff"/>
     <use xlink:href="#m3cd6cbcceb" x="345.435974" y="121.190156" style="fill: #0000ff; stroke: #0000ff"/>
     <use xlink:href="#m3cd6cbcceb" x="346.819641" y="208.601127" style="fill: #0000ff; stroke: #0000ff"/>
     <use xlink:href="#m3cd6cbcceb" x="297.398875" y="106.322021" style="fill: #0000ff; stroke: #0000ff"/>
     <use xlink:href="#m3cd6cbcceb" x="252.222766" y="136.892067" style="fill: #0000ff; stroke: #0000ff"/>
     <use xlink:href="#m3cd6cbcceb" x="314.758623" y="130.321388" style="fill: #0000ff; stroke: #0000ff"/>
     <use xlink:href="#m3cd6cbcceb" x="230.208786" y="53.568" style="fill: #0000ff; stroke: #0000ff"/>
     <use xlink:href="#m3cd6cbcceb" x="266.922584" y="159.058277" style="fill: #0000ff; stroke: #0000ff"/>
     <use xlink:href="#m3cd6cbcceb" x="272.888997" y="89.22506" style="fill: #0000ff; stroke: #0000ff"/>
     <use xlink:href="#m3cd6cbcceb" x="247.38582" y="111.390782" style="fill: #0000ff; stroke: #0000ff"/>
     <use xlink:href="#m3cd6cbcceb" x="197.321464" y="63.874347" style="fill: #0000ff; stroke: #0000ff"/>
     <use xlink:href="#m3cd6cbcceb" x="298.949569" y="156.178099" style="fill: #0000ff; stroke: #0000ff"/>
     <use xlink:href="#m3cd6cbcceb" x="326.365085" y="92.215183" style="fill: #0000ff; stroke: #0000ff"/>
    </g>
   </g>
   <g id="line2d_15">
    <defs>
     <path id="m877e3db1c8" d="M 0 3 
C 0.795609 3 1.55874 2.683901 2.12132 2.12132 
C 2.683901 1.55874 3 0.795609 3 0 
C 3 -0.795609 2.683901 -1.55874 2.12132 -2.12132 
C 1.55874 -2.683901 0.795609 -3 0 -3 
C -0.795609 -3 -1.55874 -2.683901 -2.12132 -2.12132 
C -2.683901 -1.55874 -3 -0.795609 -3 0 
C -3 0.795609 -2.683901 1.55874 -2.12132 2.12132 
C -1.55874 2.683901 -0.795609 3 0 3 
z
" style="stroke: #ff0000"/>
    </defs>
    <g clip-path="url(#p1261e268d5)">
     <use xlink:href="#m877e3db1c8" x="256.625191" y="189.233655" style="fill: #ff0000; stroke: #ff0000"/>
     <use xlink:href="#m877e3db1c8" x="175.077975" y="287.465238" style="fill: #ff0000; stroke: #ff0000"/>
     <use xlink:href="#m877e3db1c8" x="312.691063" y="175.213886" style="fill: #ff0000; stroke: #ff0000"/>
     <use xlink:href="#m877e3db1c8" x="344.963645" y="146.963187" style="fill: #ff0000; stroke: #ff0000"/>
     <use xlink:href="#m877e3db1c8" x="114.043823" y="210.766148" style="fill: #ff0000; stroke: #ff0000"/>
     <use xlink:href="#m877e3db1c8" x="187.728809" y="222.810038" style="fill: #ff0000; stroke: #ff0000"/>
     <use xlink:href="#m877e3db1c8" x="196.651846" y="295.243095" style="fill: #ff0000; stroke: #ff0000"/>
     <use xlink:href="#m877e3db1c8" x="283.137934" y="190.327372" style="fill: #ff0000; stroke: #ff0000"/>
     <use xlink:href="#m877e3db1c8" x="270.809988" y="114.339269" style="fill: #ff0000; stroke: #ff0000"/>
     <use xlink:href="#m877e3db1c8" x="260.400488" y="220.71329" style="fill: #ff0000; stroke: #ff0000"/>
     <use xlink:href="#m877e3db1c8" x="173.909351" y="71.77143" style="fill: #ff0000; stroke: #ff0000"/>
     <use xlink:href="#m877e3db1c8" x="132.777995" y="214.660706" style="fill: #ff0000; stroke: #ff0000"/>
     <use xlink:href="#m877e3db1c8" x="158.067273" y="240.656638" style="fill: #ff0000; stroke: #ff0000"/>
     <use xlink:href="#m877e3db1c8" x="194.12544" y="235.593791" style="fill: #ff0000; stroke: #ff0000"/>
     <use xlink:href="#m877e3db1c8" x="130.276385" y="170.224276" style="fill: #ff0000; stroke: #ff0000"/>
     <use xlink:href="#m877e3db1c8" x="217.0156" y="81.94524" style="fill: #ff0000; stroke: #ff0000"/>
     <use xlink:href="#m877e3db1c8" x="266.250185" y="201.470909" style="fill: #ff0000; stroke: #ff0000"/>
     <use xlink:href="#m877e3db1c8" x="268.828361" y="180.244598" style="fill: #ff0000; stroke: #ff0000"/>
     <use xlink:href="#m877e3db1c8" x="111.517204" y="192.500789" style="fill: #ff0000; stroke: #ff0000"/>
     <use xlink:href="#m877e3db1c8" x="143.576288" y="231.032677" style="fill: #ff0000; stroke: #ff0000"/>
     <use xlink:href="#m877e3db1c8" x="325.269293" y="152.843092" style="fill: #ff0000; stroke: #ff0000"/>
     <use xlink:href="#m877e3db1c8" x="211.343036" y="225.283098" style="fill: #ff0000; stroke: #ff0000"/>
     <use xlink:href="#m877e3db1c8" x="195.953813" y="277.005163" style="fill: #ff0000; stroke: #ff0000"/>
     <use xlink:href="#m877e3db1c8" x="180.65301" y="264.188262" style="fill: #ff0000; stroke: #ff0000"/>
     <use xlink:href="#m877e3db1c8" x="170.923393" y="112.597446" style="fill: #ff0000; stroke: #ff0000"/>
     <use xlink:href="#m877e3db1c8" x="305.252653" y="227.169652" style="fill: #ff0000; stroke: #ff0000"/>
     <use xlink:href="#m877e3db1c8" x="143.908053" y="264.066537" style="fill: #ff0000; stroke: #ff0000"/>
     <use xlink:href="#m877e3db1c8" x="119.524306" y="232.646243" style="fill: #ff0000; stroke: #ff0000"/>
     <use xlink:href="#m877e3db1c8" x="312.535203" y="262.494018" style="fill: #ff0000; stroke: #ff0000"/>
     <use xlink:href="#m877e3db1c8" x="220.190323" y="207.851688" style="fill: #ff0000; stroke: #ff0000"/>
     <use xlink:href="#m877e3db1c8" x="157.700956" y="277.310637" style="fill: #ff0000; stroke: #ff0000"/>
     <use xlink:href="#m877e3db1c8" x="360.802796" y="179.439791" style="fill: #ff0000; stroke: #ff0000"/>
     <use xlink:href="#m877e3db1c8" x="152.6583" y="157.467702" style="fill: #ff0000; stroke: #ff0000"/>
     <use xlink:href="#m877e3db1c8" x="301.345209" y="247.171819" style="fill: #ff0000; stroke: #ff0000"/>
     <use xlink:href="#m877e3db1c8" x="215.620918" y="295.488" style="fill: #ff0000; stroke: #ff0000"/>
     <use xlink:href="#m877e3db1c8" x="360.447617" y="154.117156" style="fill: #ff0000; stroke: #ff0000"/>
     <use xlink:href="#m877e3db1c8" x="202.900387" y="211.713144" style="fill: #ff0000; stroke: #ff0000"/>
     <use xlink:href="#m877e3db1c8" x="240.732193" y="154.559534" style="fill: #ff0000; stroke: #ff0000"/>
     <use xlink:href="#m877e3db1c8" x="260.438911" y="258.031076" style="fill: #ff0000; stroke: #ff0000"/>
     <use xlink:href="#m877e3db1c8" x="167.473184" y="253.788476" style="fill: #ff0000; stroke: #ff0000"/>
     <use xlink:href="#m877e3db1c8" x="228.453342" y="224.268243" style="fill: #ff0000; stroke: #ff0000"/>
     <use xlink:href="#m877e3db1c8" x="285.703237" y="173.397209" style="fill: #ff0000; stroke: #ff0000"/>
     <use xlink:href="#m877e3db1c8" x="187.579809" y="117.540035" style="fill: #ff0000; stroke: #ff0000"/>
     <use xlink:href="#m877e3db1c8" x="190.952969" y="155.921807" style="fill: #ff0000; stroke: #ff0000"/>
     <use xlink:href="#m877e3db1c8" x="200.855688" y="169.953472" style="fill: #ff0000; stroke: #ff0000"/>
     <use xlink:href="#m877e3db1c8" x="299.357356" y="186.19013" style="fill: #ff0000; stroke: #ff0000"/>
     <use xlink:href="#m877e3db1c8" x="130.830639" y="250.46542" style="fill: #ff0000; stroke: #ff0000"/>
     <use xlink:href="#m877e3db1c8" x="229.650028" y="139.821664" style="fill: #ff0000; stroke: #ff0000"/>
     <use xlink:href="#m877e3db1c8" x="222.083655" y="99.662537" style="fill: #ff0000; stroke: #ff0000"/>
     <use xlink:href="#m877e3db1c8" x="230.872216" y="265.968966" style="fill: #ff0000; stroke: #ff0000"/>
    </g>
   </g>
   <g id="line2d_16">
    <defs>
     <path id="m5afcd8ec21" d="M 0 3 
C 0.795609 3 1.55874 2.683901 2.12132 2.12132 
C 2.683901 1.55874 3 0.795609 3 0 
C 3 -0.795609 2.683901 -1.55874 2.12132 -2.12132 
C 1.55874 -2.683901 0.795609 -3 0 -3 
C -0.795609 -3 -1.55874 -2.683901 -2.12132 -2.12132 
C -2.683901 -1.55874 -3 -0.795609 -3 0 
C -3 0.795609 -2.683901 1.55874 -2.12132 2.12132 
C -1.55874 2.683901 -0.795609 3 0 3 
z
" style="stroke: #000000"/>
    </defs>
    <g clip-path="url(#p1261e268d5)">
     <use xlink:href="#m5afcd8ec21" x="217.670049" y="157.688634" style="stroke: #000000"/>
     <use xlink:href="#m5afcd8ec21" x="250.165874" y="280.237608" style="stroke: #000000"/>
     <use xlink:href="#m5afcd8ec21" x="166.363091" y="138.216588" style="stroke: #000000"/>
     <use xlink:href="#m5afcd8ec21" x="276.123555" y="240.526877" style="stroke: #000000"/>
     <use xlink:href="#m5afcd8ec21" x="170.494336" y="208.45631" style="stroke: #000000"/>
     <use xlink:href="#m5afcd8ec21" x="284.989786" y="213.25931" style="stroke: #000000"/>
     <use xlink:href="#m5afcd8ec21" x="328.059061" y="238.711186" style="stroke: #000000"/>
     <use xlink:href="#m5afcd8ec21" x="192.150992" y="192.032925" style="stroke: #000000"/>
     <use xlink:href="#m5afcd8ec21" x="174.277265" y="169.857036" style="stroke: #000000"/>
     <use xlink:href="#m5afcd8ec21" x="284.776981" y="273.215843" style="stroke: #000000"/>
     <use xlink:href="#m5afcd8ec21" x="150.22682" y="185.405602" style="stroke: #000000"/>
     <use xlink:href="#m5afcd8ec21" x="139.971678" y="117.436485" style="stroke: #000000"/>
     <use xlink:href="#m5afcd8ec21" x="218.924973" y="186.891403" style="stroke: #000000"/>
     <use xlink:href="#m5afcd8ec21" x="241.782512" y="175.203148" style="stroke: #000000"/>
     <use xlink:href="#m5afcd8ec21" x="128.872176" y="146.909115" style="stroke: #000000"/>
     <use xlink:href="#m5afcd8ec21" x="242.624832" y="207.183636" style="stroke: #000000"/>
     <use xlink:href="#m5afcd8ec21" x="214.062953" y="249.424349" style="stroke: #000000"/>
     <use xlink:href="#m5afcd8ec21" x="243.425404" y="240.694644" style="stroke: #000000"/>
     <use xlink:href="#m5afcd8ec21" x="197.202614" y="136.97126" style="stroke: #000000"/>
     <use xlink:href="#m5afcd8ec21" x="158.168925" y="90.958837" style="stroke: #000000"/>
    </g>
   </g>
   <g id="patch_3">
    <path d="M 57.6 307.584 
L 57.6 41.472 
" style="fill: none; stroke: #000000; stroke-width: 0.8; stroke-linejoin: miter; stroke-linecap: square"/>
   </g>
   <g id="patch_4">
    <path d="M 414.72 307.584 
L 414.72 41.472 
" style="fill: none; stroke: #000000; stroke-width: 0.8; stroke-linejoin: miter; stroke-linecap: square"/>
   </g>
   <g id="patch_5">
    <path d="M 57.6 307.584 
L 414.72 307.584 
" style="fill: none; stroke: #000000; stroke-width: 0.8; stroke-linejoin: miter; stroke-linecap: square"/>
   </g>
   <g id="patch_6">
    <path d="M 57.6 41.472 
L 414.72 41.472 
" style="fill: none; stroke: #000000; stroke-width: 0.8; stroke-linejoin: miter; stroke-linecap: square"/>
   </g>
   <g id="text_16">
    <!-- Velocities at the final time -->
    <g transform="translate(116.81 35.472) scale(0.16 -0.16)">
     <defs>
      <path id="DejaVuSans-Bold-56" d="M 31 4666 
L 1241 4666 
L 2478 1222 
L 3713 4666 
L 4922 4666 
L 3194 0 
L 1759 0 
L 31 4666 
z
" transform="scale(0.015625)"/>
      <path id="DejaVuSans-Bold-65" d="M 4031 1759 
L 4031 1441 
L 1416 1441 
Q 1456 1047 1700 850 
Q 1944 653 2381 653 
Q 2734 653 3104 758 
Q 3475 863 3866 1075 
L 3866 213 
Q 3469 63 3072 -14 
Q 2675 -91 2278 -91 
Q 1328 -91 801 392 
Q 275 875 275 1747 
Q 275 2603 792 3093 
Q 1309 3584 2216 3584 
Q 3041 3584 3536 3087 
Q 4031 2591 4031 1759 
z
M 2881 2131 
Q 2881 2450 2695 2645 
Q 2509 2841 2209 2841 
Q 1884 2841 1681 2658 
Q 1478 2475 1428 2131 
L 2881 2131 
z
" transform="scale(0.015625)"/>
      <path id="DejaVuSans-Bold-6c" d="M 538 4863 
L 1656 4863 
L 1656 0 
L 538 0 
L 538 4863 
z
" transform="scale(0.015625)"/>
      <path id="DejaVuSans-Bold-6f" d="M 2203 2784 
Q 1831 2784 1636 2517 
Q 1441 2250 1441 1747 
Q 1441 1244 1636 976 
Q 1831 709 2203 709 
Q 2569 709 2762 976 
Q 2956 1244 2956 1747 
Q 2956 2250 2762 2517 
Q 2569 2784 2203 2784 
z
M 2203 3584 
Q 3106 3584 3614 3096 
Q 4122 2609 4122 1747 
Q 4122 884 3614 396 
Q 3106 -91 2203 -91 
Q 1297 -91 786 396 
Q 275 884 275 1747 
Q 275 2609 786 3096 
Q 1297 3584 2203 3584 
z
" transform="scale(0.015625)"/>
      <path id="DejaVuSans-Bold-63" d="M 3366 3391 
L 3366 2478 
Q 3138 2634 2908 2709 
Q 2678 2784 2431 2784 
Q 1963 2784 1702 2511 
Q 1441 2238 1441 1747 
Q 1441 1256 1702 982 
Q 1963 709 2431 709 
Q 2694 709 2930 787 
Q 3166 866 3366 1019 
L 3366 103 
Q 3103 6 2833 -42 
Q 2563 -91 2291 -91 
Q 1344 -91 809 395 
Q 275 881 275 1747 
Q 275 2613 809 3098 
Q 1344 3584 2291 3584 
Q 2566 3584 2833 3536 
Q 3100 3488 3366 3391 
z
" transform="scale(0.015625)"/>
      <path id="DejaVuSans-Bold-69" d="M 538 3500 
L 1656 3500 
L 1656 0 
L 538 0 
L 538 3500 
z
M 538 4863 
L 1656 4863 
L 1656 3950 
L 538 3950 
L 538 4863 
z
" transform="scale(0.015625)"/>
      <path id="DejaVuSans-Bold-74" d="M 1759 4494 
L 1759 3500 
L 2913 3500 
L 2913 2700 
L 1759 2700 
L 1759 1216 
Q 1759 972 1856 886 
Q 1953 800 2241 800 
L 2816 800 
L 2816 0 
L 1856 0 
Q 1194 0 917 276 
Q 641 553 641 1216 
L 641 2700 
L 84 2700 
L 84 3500 
L 641 3500 
L 641 4494 
L 1759 4494 
z
" transform="scale(0.015625)"/>
      <path id="DejaVuSans-Bold-73" d="M 3272 3391 
L 3272 2541 
Q 2913 2691 2578 2766 
Q 2244 2841 1947 2841 
Q 1628 2841 1473 2761 
Q 1319 2681 1319 2516 
Q 1319 2381 1436 2309 
Q 1553 2238 1856 2203 
L 2053 2175 
Q 2913 2066 3209 1816 
Q 3506 1566 3506 1031 
Q 3506 472 3093 190 
Q 2681 -91 1863 -91 
Q 1516 -91 1145 -36 
Q 775 19 384 128 
L 384 978 
Q 719 816 1070 734 
Q 1422 653 1784 653 
Q 2113 653 2278 743 
Q 2444 834 2444 1013 
Q 2444 1163 2330 1236 
Q 2216 1309 1875 1350 
L 1678 1375 
Q 931 1469 631 1722 
Q 331 1975 331 2491 
Q 331 3047 712 3315 
Q 1094 3584 1881 3584 
Q 2191 3584 2531 3537 
Q 2872 3491 3272 3391 
z
" transform="scale(0.015625)"/>
      <path id="DejaVuSans-Bold-20" transform="scale(0.015625)"/>
      <path id="DejaVuSans-Bold-61" d="M 2106 1575 
Q 1756 1575 1579 1456 
Q 1403 1338 1403 1106 
Q 1403 894 1545 773 
Q 1688 653 1941 653 
Q 2256 653 2472 879 
Q 2688 1106 2688 1447 
L 2688 1575 
L 2106 1575 
z
M 3816 1997 
L 3816 0 
L 2688 0 
L 2688 519 
Q 2463 200 2181 54 
Q 1900 -91 1497 -91 
Q 953 -91 614 226 
Q 275 544 275 1050 
Q 275 1666 698 1953 
Q 1122 2241 2028 2241 
L 2688 2241 
L 2688 2328 
Q 2688 2594 2478 2717 
Q 2269 2841 1825 2841 
Q 1466 2841 1156 2769 
Q 847 2697 581 2553 
L 581 3406 
Q 941 3494 1303 3539 
Q 1666 3584 2028 3584 
Q 2975 3584 3395 3211 
Q 3816 2838 3816 1997 
z
" transform="scale(0.015625)"/>
      <path id="DejaVuSans-Bold-68" d="M 4056 2131 
L 4056 0 
L 2931 0 
L 2931 347 
L 2931 1625 
Q 2931 2084 2911 2256 
Q 2891 2428 2841 2509 
Q 2775 2619 2662 2680 
Q 2550 2741 2406 2741 
Q 2056 2741 1856 2470 
Q 1656 2200 1656 1722 
L 1656 0 
L 538 0 
L 538 4863 
L 1656 4863 
L 1656 2988 
Q 1909 3294 2193 3439 
Q 2478 3584 2822 3584 
Q 3428 3584 3742 3212 
Q 4056 2841 4056 2131 
z
" transform="scale(0.015625)"/>
      <path id="DejaVuSans-Bold-66" d="M 2841 4863 
L 2841 4128 
L 2222 4128 
Q 1984 4128 1890 4042 
Q 1797 3956 1797 3744 
L 1797 3500 
L 2753 3500 
L 2753 2700 
L 1797 2700 
L 1797 0 
L 678 0 
L 678 2700 
L 122 2700 
L 122 3500 
L 678 3500 
L 678 3744 
Q 678 4316 997 4589 
Q 1316 4863 1984 4863 
L 2841 4863 
z
" transform="scale(0.015625)"/>
      <path id="DejaVuSans-Bold-6e" d="M 4056 2131 
L 4056 0 
L 2931 0 
L 2931 347 
L 2931 1631 
Q 2931 2084 2911 2256 
Q 2891 2428 2841 2509 
Q 2775 2619 2662 2680 
Q 2550 2741 2406 2741 
Q 2056 2741 1856 2470 
Q 1656 2200 1656 1722 
L 1656 0 
L 538 0 
L 538 3500 
L 1656 3500 
L 1656 2988 
Q 1909 3294 2193 3439 
Q 2478 3584 2822 3584 
Q 3428 3584 3742 3212 
Q 4056 2841 4056 2131 
z
" transform="scale(0.015625)"/>
      <path id="DejaVuSans-Bold-6d" d="M 3781 2919 
Q 3994 3244 4286 3414 
Q 4578 3584 4928 3584 
Q 5531 3584 5847 3212 
Q 6163 2841 6163 2131 
L 6163 0 
L 5038 0 
L 5038 1825 
Q 5041 1866 5042 1909 
Q 5044 1953 5044 2034 
Q 5044 2406 4934 2573 
Q 4825 2741 4581 2741 
Q 4263 2741 4089 2478 
Q 3916 2216 3909 1719 
L 3909 0 
L 2784 0 
L 2784 1825 
Q 2784 2406 2684 2573 
Q 2584 2741 2328 2741 
Q 2006 2741 1831 2477 
Q 1656 2213 1656 1722 
L 1656 0 
L 531 0 
L 531 3500 
L 1656 3500 
L 1656 2988 
Q 1863 3284 2130 3434 
Q 2397 3584 2719 3584 
Q 3081 3584 3359 3409 
Q 3638 3234 3781 2919 
z
" transform="scale(0.015625)"/>
     </defs>
     <use xlink:href="#DejaVuSans-Bold-56"/>
     <use xlink:href="#DejaVuSans-Bold-65" transform="translate(71.892578 0)"/>
     <use xlink:href="#DejaVuSans-Bold-6c" transform="translate(139.714844 0)"/>
     <use xlink:href="#DejaVuSans-Bold-6f" transform="translate(173.992188 0)"/>
     <use xlink:href="#DejaVuSans-Bold-63" transform="translate(242.693359 0)"/>
     <use xlink:href="#DejaVuSans-Bold-69" transform="translate(301.970703 0)"/>
     <use xlink:href="#DejaVuSans-Bold-74" transform="translate(336.248047 0)"/>
     <use xlink:href="#DejaVuSans-Bold-69" transform="translate(384.050781 0)"/>
     <use xlink:href="#DejaVuSans-Bold-65" transform="translate(418.328125 0)"/>
     <use xlink:href="#DejaVuSans-Bold-73" transform="translate(486.150391 0)"/>
     <use xlink:href="#DejaVuSans-Bold-20" transform="translate(545.671875 0)"/>
     <use xlink:href="#DejaVuSans-Bold-61" transform="translate(580.486328 0)"/>
     <use xlink:href="#DejaVuSans-Bold-74" transform="translate(647.966797 0)"/>
     <use xlink:href="#DejaVuSans-Bold-20" transform="translate(695.769531 0)"/>
     <use xlink:href="#DejaVuSans-Bold-74" transform="translate(730.583984 0)"/>
     <use xlink:href="#DejaVuSans-Bold-68" transform="translate(778.386719 0)"/>
     <use xlink:href="#DejaVuSans-Bold-65" transform="translate(849.578125 0)"/>
     <use xlink:href="#DejaVuSans-Bold-20" transform="translate(917.400391 0)"/>
     <use xlink:href="#DejaVuSans-Bold-66" transform="translate(952.214844 0)"/>
     <use xlink:href="#DejaVuSans-Bold-69" transform="translate(995.720703 0)"/>
     <use xlink:href="#DejaVuSans-Bold-6e" transform="translate(1029.998047 0)"/>
     <use xlink:href="#DejaVuSans-Bold-61" transform="translate(1101.189453 0)"/>
     <use xlink:href="#DejaVuSans-Bold-6c" transform="translate(1168.669922 0)"/>
     <use xlink:href="#DejaVuSans-Bold-20" transform="translate(1202.947266 0)"/>
     <use xlink:href="#DejaVuSans-Bold-74" transform="translate(1237.761719 0)"/>
     <use xlink:href="#DejaVuSans-Bold-69" transform="translate(1285.564453 0)"/>
     <use xlink:href="#DejaVuSans-Bold-6d" transform="translate(1319.841797 0)"/>
     <use xlink:href="#DejaVuSans-Bold-65" transform="translate(1424.041016 0)"/>
    </g>
   </g>
  </g>
 </g>
 <defs>
  <clipPath id="p1261e268d5">
   <rect x="57.6" y="41.472" width="357.12" height="266.112"/>
  </clipPath>
 </defs>
</svg>
