<?xml version="1.0" encoding="utf-8" standalone="no"?>
<!DOCTYPE svg PUBLIC "-//W3C//DTD SVG 1.1//EN"
  "http://www.w3.org/Graphics/SVG/1.1/DTD/svg11.dtd">
<svg xmlns:xlink="http://www.w3.org/1999/xlink" width="432pt" height="360pt" viewBox="0 0 432 360" xmlns="http://www.w3.org/2000/svg" version="1.1">
 <metadata>
  <rdf:RDF xmlns:dc="http://purl.org/dc/elements/1.1/" xmlns:cc="http://creativecommons.org/ns#" xmlns:rdf="http://www.w3.org/1999/02/22-rdf-syntax-ns#">
   <cc:Work>
    <dc:type rdf:resource="http://purl.org/dc/dcmitype/StillImage"/>
    <dc:date>2025-05-05T23:08:16.042221</dc:date>
    <dc:format>image/svg+xml</dc:format>
    <dc:creator>
     <cc:Agent>
      <dc:title>Matplotlib v3.10.1, https://matplotlib.org/</dc:title>
     </cc:Agent>
    </dc:creator>
   </cc:Work>
  </rdf:RDF>
 </metadata>
 <defs>
  <style type="text/css">*{stroke-linejoin: round; stroke-linecap: butt}</style>
 </defs>
 <g id="figure_1">
  <g id="patch_1">
   <path d="M 0 360 
L 432 360 
L 432 0 
L 0 0 
z
" style="fill: #ffffff"/>
  </g>
  <g id="axes_1">
   <g id="patch_2">
    <path d="M 47.961178 153.232572 
L 428.99976 153.232572 
L 428.99976 18.118365 
L 47.961178 18.118365 
z
" style="fill: #ffffff"/>
   </g>
   <g id="matplotlib.axis_1">
    <g id="xtick_1">
     <g id="line2d_1">
      <path d="M 65.281113 153.232572 
L 65.281113 18.118365 
" clip-path="url(#p1513e64b55)" style="fill: none; stroke: #b0b0b0; stroke-width: 0.8; stroke-linecap: square"/>
     </g>
     <g id="line2d_2">
      <defs>
       <path id="mbb96336423" d="M 0 0 
L 0 3.5 
" style="stroke: #000000; stroke-width: 0.8"/>
      </defs>
      <g>
       <use xlink:href="#mbb96336423" x="65.281113" y="153.232572" style="stroke: #000000; stroke-width: 0.8"/>
      </g>
     </g>
    </g>
    <g id="xtick_2">
     <g id="line2d_3">
      <path d="M 134.567784 153.232572 
L 134.567784 18.118365 
" clip-path="url(#p1513e64b55)" style="fill: none; stroke: #b0b0b0; stroke-width: 0.8; stroke-linecap: square"/>
     </g>
     <g id="line2d_4">
      <g>
       <use xlink:href="#mbb96336423" x="134.567784" y="153.232572" style="stroke: #000000; stroke-width: 0.8"/>
      </g>
     </g>
    </g>
    <g id="xtick_3">
     <g id="line2d_5">
      <path d="M 203.854455 153.232572 
L 203.854455 18.118365 
" clip-path="url(#p1513e64b55)" style="fill: none; stroke: #b0b0b0; stroke-width: 0.8; stroke-linecap: square"/>
     </g>
     <g id="line2d_6">
      <g>
       <use xlink:href="#mbb96336423" x="203.854455" y="153.232572" style="stroke: #000000; stroke-width: 0.8"/>
      </g>
     </g>
    </g>
    <g id="xtick_4">
     <g id="line2d_7">
      <path d="M 273.141126 153.232572 
L 273.141126 18.118365 
" clip-path="url(#p1513e64b55)" style="fill: none; stroke: #b0b0b0; stroke-width: 0.8; stroke-linecap: square"/>
     </g>
     <g id="line2d_8">
      <g>
       <use xlink:href="#mbb96336423" x="273.141126" y="153.232572" style="stroke: #000000; stroke-width: 0.8"/>
      </g>
     </g>
    </g>
    <g id="xtick_5">
     <g id="line2d_9">
      <path d="M 342.427797 153.232572 
L 342.427797 18.118365 
" clip-path="url(#p1513e64b55)" style="fill: none; stroke: #b0b0b0; stroke-width: 0.8; stroke-linecap: square"/>
     </g>
     <g id="line2d_10">
      <g>
       <use xlink:href="#mbb96336423" x="342.427797" y="153.232572" style="stroke: #000000; stroke-width: 0.8"/>
      </g>
     </g>
    </g>
    <g id="xtick_6">
     <g id="line2d_11">
      <path d="M 411.714468 153.232572 
L 411.714468 18.118365 
" clip-path="url(#p1513e64b55)" style="fill: none; stroke: #b0b0b0; stroke-width: 0.8; stroke-linecap: square"/>
     </g>
     <g id="line2d_12">
      <g>
       <use xlink:href="#mbb96336423" x="411.714468" y="153.232572" style="stroke: #000000; stroke-width: 0.8"/>
      </g>
     </g>
    </g>
    <g id="text_1">
     <!-- timestep -->
     <g transform="translate(216.36875 168.33101) scale(0.1 -0.1)">
      <defs>
       <path id="DejaVuSans-74" d="M 1172 4494 
L 1172 3500 
L 2356 3500 
L 2356 3053 
L 1172 3053 
L 1172 1153 
Q 1172 725 1289 603 
Q 1406 481 1766 481 
L 2356 481 
L 2356 0 
L 1766 0 
Q 1100 0 847 248 
Q 594 497 594 1153 
L 594 3053 
L 172 3053 
L 172 3500 
L 594 3500 
L 594 4494 
L 1172 4494 
z
" transform="scale(0.015625)"/>
       <path id="DejaVuSans-69" d="M 603 3500 
L 1178 3500 
L 1178 0 
L 603 0 
L 603 3500 
z
M 603 4863 
L 1178 4863 
L 1178 4134 
L 603 4134 
L 603 4863 
z
" transform="scale(0.015625)"/>
       <path id="DejaVuSans-6d" d="M 3328 2828 
Q 3544 3216 3844 3400 
Q 4144 3584 4550 3584 
Q 5097 3584 5394 3201 
Q 5691 2819 5691 2113 
L 5691 0 
L 5113 0 
L 5113 2094 
Q 5113 2597 4934 2840 
Q 4756 3084 4391 3084 
Q 3944 3084 3684 2787 
Q 3425 2491 3425 1978 
L 3425 0 
L 2847 0 
L 2847 2094 
Q 2847 2600 2669 2842 
Q 2491 3084 2119 3084 
Q 1678 3084 1418 2786 
Q 1159 2488 1159 1978 
L 1159 0 
L 581 0 
L 581 3500 
L 1159 3500 
L 1159 2956 
Q 1356 3278 1631 3431 
Q 1906 3584 2284 3584 
Q 2666 3584 2933 3390 
Q 3200 3197 3328 2828 
z
" transform="scale(0.015625)"/>
       <path id="DejaVuSans-65" d="M 3597 1894 
L 3597 1613 
L 953 1613 
Q 991 1019 1311 708 
Q 1631 397 2203 397 
Q 2534 397 2845 478 
Q 3156 559 3463 722 
L 3463 178 
Q 3153 47 2828 -22 
Q 2503 -91 2169 -91 
Q 1331 -91 842 396 
Q 353 884 353 1716 
Q 353 2575 817 3079 
Q 1281 3584 2069 3584 
Q 2775 3584 3186 3129 
Q 3597 2675 3597 1894 
z
M 3022 2063 
Q 3016 2534 2758 2815 
Q 2500 3097 2075 3097 
Q 1594 3097 1305 2825 
Q 1016 2553 972 2059 
L 3022 2063 
z
" transform="scale(0.015625)"/>
       <path id="DejaVuSans-73" d="M 2834 3397 
L 2834 2853 
Q 2591 2978 2328 3040 
Q 2066 3103 1784 3103 
Q 1356 3103 1142 2972 
Q 928 2841 928 2578 
Q 928 2378 1081 2264 
Q 1234 2150 1697 2047 
L 1894 2003 
Q 2506 1872 2764 1633 
Q 3022 1394 3022 966 
Q 3022 478 2636 193 
Q 2250 -91 1575 -91 
Q 1294 -91 989 -36 
Q 684 19 347 128 
L 347 722 
Q 666 556 975 473 
Q 1284 391 1588 391 
Q 1994 391 2212 530 
Q 2431 669 2431 922 
Q 2431 1156 2273 1281 
Q 2116 1406 1581 1522 
L 1381 1569 
Q 847 1681 609 1914 
Q 372 2147 372 2553 
Q 372 3047 722 3315 
Q 1072 3584 1716 3584 
Q 2034 3584 2315 3537 
Q 2597 3491 2834 3397 
z
" transform="scale(0.015625)"/>
       <path id="DejaVuSans-70" d="M 1159 525 
L 1159 -1331 
L 581 -1331 
L 581 3500 
L 1159 3500 
L 1159 2969 
Q 1341 3281 1617 3432 
Q 1894 3584 2278 3584 
Q 2916 3584 3314 3078 
Q 3713 2572 3713 1747 
Q 3713 922 3314 415 
Q 2916 -91 2278 -91 
Q 1894 -91 1617 61 
Q 1341 213 1159 525 
z
M 3116 1747 
Q 3116 2381 2855 2742 
Q 2594 3103 2138 3103 
Q 1681 3103 1420 2742 
Q 1159 2381 1159 1747 
Q 1159 1113 1420 752 
Q 1681 391 2138 391 
Q 2594 391 2855 752 
Q 3116 1113 3116 1747 
z
" transform="scale(0.015625)"/>
      </defs>
      <use xlink:href="#DejaVuSans-74"/>
      <use xlink:href="#DejaVuSans-69" transform="translate(39.208984 0)"/>
      <use xlink:href="#DejaVuSans-6d" transform="translate(66.992188 0)"/>
      <use xlink:href="#DejaVuSans-65" transform="translate(164.404297 0)"/>
      <use xlink:href="#DejaVuSans-73" transform="translate(225.927734 0)"/>
      <use xlink:href="#DejaVuSans-74" transform="translate(278.027344 0)"/>
      <use xlink:href="#DejaVuSans-65" transform="translate(317.236328 0)"/>
      <use xlink:href="#DejaVuSans-70" transform="translate(378.759766 0)"/>
     </g>
    </g>
   </g>
   <g id="matplotlib.axis_2">
    <g id="ytick_1">
     <g id="line2d_13">
      <path d="M 47.961178 151.643246 
L 428.99976 151.643246 
" clip-path="url(#p1513e64b55)" style="fill: none; stroke: #b0b0b0; stroke-width: 0.8; stroke-linecap: square"/>
     </g>
     <g id="line2d_14">
      <defs>
       <path id="m4d316b36e8" d="M 0 0 
L -3.5 0 
" style="stroke: #000000; stroke-width: 0.8"/>
      </defs>
      <g>
       <use xlink:href="#m4d316b36e8" x="47.961178" y="151.643246" style="stroke: #000000; stroke-width: 0.8"/>
      </g>
     </g>
     <g id="text_2">
      <!-- −0.5 -->
      <g transform="translate(16.678365 155.442465) scale(0.1 -0.1)">
       <defs>
        <path id="DejaVuSans-2212" d="M 678 2272 
L 4684 2272 
L 4684 1741 
L 678 1741 
L 678 2272 
z
" transform="scale(0.015625)"/>
        <path id="DejaVuSans-30" d="M 2034 4250 
Q 1547 4250 1301 3770 
Q 1056 3291 1056 2328 
Q 1056 1369 1301 889 
Q 1547 409 2034 409 
Q 2525 409 2770 889 
Q 3016 1369 3016 2328 
Q 3016 3291 2770 3770 
Q 2525 4250 2034 4250 
z
M 2034 4750 
Q 2819 4750 3233 4129 
Q 3647 3509 3647 2328 
Q 3647 1150 3233 529 
Q 2819 -91 2034 -91 
Q 1250 -91 836 529 
Q 422 1150 422 2328 
Q 422 3509 836 4129 
Q 1250 4750 2034 4750 
z
" transform="scale(0.015625)"/>
        <path id="DejaVuSans-2e" d="M 684 794 
L 1344 794 
L 1344 0 
L 684 0 
L 684 794 
z
" transform="scale(0.015625)"/>
        <path id="DejaVuSans-35" d="M 691 4666 
L 3169 4666 
L 3169 4134 
L 1269 4134 
L 1269 2991 
Q 1406 3038 1543 3061 
Q 1681 3084 1819 3084 
Q 2600 3084 3056 2656 
Q 3513 2228 3513 1497 
Q 3513 744 3044 326 
Q 2575 -91 1722 -91 
Q 1428 -91 1123 -41 
Q 819 9 494 109 
L 494 744 
Q 775 591 1075 516 
Q 1375 441 1709 441 
Q 2250 441 2565 725 
Q 2881 1009 2881 1497 
Q 2881 1984 2565 2268 
Q 2250 2553 1709 2553 
Q 1456 2553 1204 2497 
Q 953 2441 691 2322 
L 691 4666 
z
" transform="scale(0.015625)"/>
       </defs>
       <use xlink:href="#DejaVuSans-2212"/>
       <use xlink:href="#DejaVuSans-30" transform="translate(83.789062 0)"/>
       <use xlink:href="#DejaVuSans-2e" transform="translate(147.412109 0)"/>
       <use xlink:href="#DejaVuSans-35" transform="translate(179.199219 0)"/>
      </g>
     </g>
    </g>
    <g id="ytick_2">
     <g id="line2d_15">
      <path d="M 47.961178 109.181522 
L 428.99976 109.181522 
" clip-path="url(#p1513e64b55)" style="fill: none; stroke: #b0b0b0; stroke-width: 0.8; stroke-linecap: square"/>
     </g>
     <g id="line2d_16">
      <g>
       <use xlink:href="#m4d316b36e8" x="47.961178" y="109.181522" style="stroke: #000000; stroke-width: 0.8"/>
      </g>
     </g>
     <g id="text_3">
      <!-- 0.0 -->
      <g transform="translate(25.058053 112.980741) scale(0.1 -0.1)">
       <use xlink:href="#DejaVuSans-30"/>
       <use xlink:href="#DejaVuSans-2e" transform="translate(63.623047 0)"/>
       <use xlink:href="#DejaVuSans-30" transform="translate(95.410156 0)"/>
      </g>
     </g>
    </g>
    <g id="ytick_3">
     <g id="line2d_17">
      <path d="M 47.961178 66.719798 
L 428.99976 66.719798 
" clip-path="url(#p1513e64b55)" style="fill: none; stroke: #b0b0b0; stroke-width: 0.8; stroke-linecap: square"/>
     </g>
     <g id="line2d_18">
      <g>
       <use xlink:href="#m4d316b36e8" x="47.961178" y="66.719798" style="stroke: #000000; stroke-width: 0.8"/>
      </g>
     </g>
     <g id="text_4">
      <!-- 0.5 -->
      <g transform="translate(25.058053 70.519017) scale(0.1 -0.1)">
       <use xlink:href="#DejaVuSans-30"/>
       <use xlink:href="#DejaVuSans-2e" transform="translate(63.623047 0)"/>
       <use xlink:href="#DejaVuSans-35" transform="translate(95.410156 0)"/>
      </g>
     </g>
    </g>
    <g id="ytick_4">
     <g id="line2d_19">
      <path d="M 47.961178 24.258074 
L 428.99976 24.258074 
" clip-path="url(#p1513e64b55)" style="fill: none; stroke: #b0b0b0; stroke-width: 0.8; stroke-linecap: square"/>
     </g>
     <g id="line2d_20">
      <g>
       <use xlink:href="#m4d316b36e8" x="47.961178" y="24.258074" style="stroke: #000000; stroke-width: 0.8"/>
      </g>
     </g>
     <g id="text_5">
      <!-- 1.0 -->
      <g transform="translate(25.058053 28.057293) scale(0.1 -0.1)">
       <defs>
        <path id="DejaVuSans-31" d="M 794 531 
L 1825 531 
L 1825 4091 
L 703 3866 
L 703 4441 
L 1819 4666 
L 2450 4666 
L 2450 531 
L 3481 531 
L 3481 0 
L 794 0 
L 794 531 
z
" transform="scale(0.015625)"/>
       </defs>
       <use xlink:href="#DejaVuSans-31"/>
       <use xlink:href="#DejaVuSans-2e" transform="translate(63.623047 0)"/>
       <use xlink:href="#DejaVuSans-30" transform="translate(95.410156 0)"/>
      </g>
     </g>
    </g>
    <g id="text_6">
     <!-- v_x -->
     <g transform="translate(10.320553 94.094219) rotate(-90) scale(0.1 -0.1)">
      <defs>
       <path id="DejaVuSans-76" d="M 191 3500 
L 800 3500 
L 1894 563 
L 2988 3500 
L 3597 3500 
L 2284 0 
L 1503 0 
L 191 3500 
z
" transform="scale(0.015625)"/>
       <path id="DejaVuSans-5f" d="M 3263 -1063 
L 3263 -1509 
L -63 -1509 
L -63 -1063 
L 3263 -1063 
z
" transform="scale(0.015625)"/>
       <path id="DejaVuSans-78" d="M 3513 3500 
L 2247 1797 
L 3578 0 
L 2900 0 
L 1881 1375 
L 863 0 
L 184 0 
L 1544 1831 
L 300 3500 
L 978 3500 
L 1906 2253 
L 2834 3500 
L 3513 3500 
z
" transform="scale(0.015625)"/>
      </defs>
      <use xlink:href="#DejaVuSans-76"/>
      <use xlink:href="#DejaVuSans-5f" transform="translate(59.179688 0)"/>
      <use xlink:href="#DejaVuSans-78" transform="translate(109.179688 0)"/>
     </g>
    </g>
   </g>
   <g id="line2d_21">
    <path d="M 65.281113 117.484278 
L 65.66219 119.31356 
L 67.151853 122.810165 
L 67.394357 122.833283 
L 67.810077 122.875634 
L 68.05258 122.98403 
L 68.329727 123.356444 
L 68.502943 124.029594 
L 68.918663 127.083139 
L 69.369027 129.912457 
L 70.13118 134.131852 
L 70.373683 134.421517 
L 70.5469 134.338457 
L 70.685473 134.107479 
L 71.516913 132.461575 
L 71.79406 132.346448 
L 72.036563 132.535307 
L 72.279067 132.671385 
L 72.556214 132.609764 
L 73.075864 133.038866 
L 73.630157 133.971552 
L 74.011234 134.281148 
L 74.28838 134.8549 
L 74.946604 136.455408 
L 75.63947 137.615048 
L 76.228407 139.202048 
L 77.925931 145.661573 
L 78.307007 146.762691 
L 78.618797 147.0397 
L 78.930587 146.97671 
L 79.623454 145.846406 
L 80.316321 144.501997 
L 80.974544 144.192449 
L 81.390264 143.886128 
L 81.805984 143.907681 
L 82.290991 144.018598 
L 82.637424 143.747076 
L 83.122431 143.029912 
L 83.330291 142.921517 
L 83.953871 142.393924 
L 84.438878 142.161047 
L 84.889241 140.518885 
L 85.928541 136.150053 
L 86.794624 133.30169 
L 87.002484 133.006054 
L 87.383561 131.426196 
L 87.868568 129.401392 
L 87.903211 129.410473 
L 88.076428 129.37564 
L 88.249644 129.33573 
L 88.492148 129.342831 
L 88.734651 129.078974 
L 89.046441 128.278919 
L 89.600735 126.313594 
L 89.947168 125.080192 
L 90.778608 122.746693 
L 91.263615 119.374964 
L 92.060411 113.837422 
L 92.822565 108.390503 
L 93.688648 100.812224 
L 94.624018 91.705788 
L 95.316885 87.198933 
L 95.975108 84.178794 
L 96.390828 83.279548 
L 96.529402 83.261499 
L 97.014408 83.622313 
L 97.222268 83.937915 
L 97.880492 85.076481 
L 98.088352 85.058248 
L 98.330855 84.569689 
L 98.642645 83.344955 
L 99.023722 80.840485 
L 99.785875 76.107039 
L 100.444099 72.779075 
L 100.686602 72.396565 
L 101.171609 72.070948 
L 101.448755 72.032199 
L 101.691259 72.128079 
L 101.829832 71.956061 
L 102.072335 70.820869 
L 103.215565 62.535969 
L 103.700572 60.666634 
L 104.047005 60.033386 
L 104.220222 59.996157 
L 104.843802 60.330631 
L 105.051662 60.226251 
L 105.536669 59.531576 
L 105.848459 58.463944 
L 107.060976 53.652783 
L 108.654569 49.268615 
L 109.070289 49.260079 
L 109.451366 49.296397 
L 109.693869 48.979306 
L 110.594596 47.006 
L 111.010316 45.447346 
L 111.737826 42.720934 
L 113.816426 38.607681 
L 114.405363 38.425115 
L 114.890369 37.590187 
L 115.444663 36.382682 
L 116.726466 33.489133 
L 117.107543 33.017508 
L 117.523263 32.857925 
L 118.077556 32.920905 
L 118.805066 33.004385 
L 119.186143 32.739486 
L 120.260086 31.839515 
L 120.987597 31.463269 
L 121.472603 30.86134 
L 122.719763 29.170067 
L 123.72442 28.526076 
L 124.24407 28.469935 
L 124.902293 28.596787 
L 125.768377 29.149242 
L 126.288027 29.307892 
L 126.73839 29.222043 
L 127.327327 28.848331 
L 128.747704 27.84036 
L 129.267354 27.787585 
L 129.925577 27.966376 
L 130.79166 28.169773 
L 131.41524 28.068186 
L 132.108107 27.705979 
L 133.389911 26.969031 
L 134.048134 26.90432 
L 136.092091 26.873098 
L 137.166034 26.486468 
L 138.032118 26.280067 
L 138.794271 26.338707 
L 140.076074 26.474879 
L 140.803584 26.283013 
L 142.708968 25.614534 
L 143.505765 25.717769 
L 144.683638 25.872946 
L 145.445791 25.70949 
L 146.762238 25.395156 
L 147.628321 25.484346 
L 148.736908 25.564567 
L 149.602992 25.372463 
L 150.815508 25.112893 
L 151.716235 25.195031 
L 153.032682 25.309092 
L 154.418415 25.114905 
L 155.700219 25.062042 
L 157.848105 24.977636 
L 159.926706 24.972398 
L 161.451012 24.843728 
L 163.252466 24.719125 
L 166.439653 24.666151 
L 168.310393 24.589907 
L 171.047216 24.575016 
L 173.05653 24.525617 
L 175.86264 24.520383 
L 179.465547 24.449031 
L 187.987807 24.370091 
L 198.588668 24.294665 
L 204.062315 24.296682 
L 339.34454 24.259973 
L 411.679824 24.260144 
L 411.679824 24.260144 
" clip-path="url(#p1513e64b55)" style="fill: none; stroke: #0000ff; stroke-width: 2; stroke-linecap: square"/>
   </g>
   <g id="patch_3">
    <path d="M 47.961178 153.232572 
L 47.961178 18.118365 
" style="fill: none; stroke: #000000; stroke-width: 0.8; stroke-linejoin: miter; stroke-linecap: square"/>
   </g>
   <g id="patch_4">
    <path d="M 428.99976 153.232572 
L 428.99976 18.118365 
" style="fill: none; stroke: #000000; stroke-width: 0.8; stroke-linejoin: miter; stroke-linecap: square"/>
   </g>
   <g id="patch_5">
    <path d="M 47.961178 153.232572 
L 428.99976 153.232572 
" style="fill: none; stroke: #000000; stroke-width: 0.8; stroke-linejoin: miter; stroke-linecap: square"/>
   </g>
   <g id="patch_6">
    <path d="M 47.961178 18.118365 
L 428.99976 18.118365 
" style="fill: none; stroke: #000000; stroke-width: 0.8; stroke-linejoin: miter; stroke-linecap: square"/>
   </g>
   <g id="text_7">
    <!-- Mean velocity component v_x over time -->
    <g transform="translate(104.205156 12.118365) scale(0.12 -0.12)">
     <defs>
      <path id="DejaVuSans-Bold-4d" d="M 588 4666 
L 2119 4666 
L 3181 2169 
L 4250 4666 
L 5778 4666 
L 5778 0 
L 4641 0 
L 4641 3413 
L 3566 897 
L 2803 897 
L 1728 3413 
L 1728 0 
L 588 0 
L 588 4666 
z
" transform="scale(0.015625)"/>
      <path id="DejaVuSans-Bold-65" d="M 4031 1759 
L 4031 1441 
L 1416 1441 
Q 1456 1047 1700 850 
Q 1944 653 2381 653 
Q 2734 653 3104 758 
Q 3475 863 3866 1075 
L 3866 213 
Q 3469 63 3072 -14 
Q 2675 -91 2278 -91 
Q 1328 -91 801 392 
Q 275 875 275 1747 
Q 275 2603 792 3093 
Q 1309 3584 2216 3584 
Q 3041 3584 3536 3087 
Q 4031 2591 4031 1759 
z
M 2881 2131 
Q 2881 2450 2695 2645 
Q 2509 2841 2209 2841 
Q 1884 2841 1681 2658 
Q 1478 2475 1428 2131 
L 2881 2131 
z
" transform="scale(0.015625)"/>
      <path id="DejaVuSans-Bold-61" d="M 2106 1575 
Q 1756 1575 1579 1456 
Q 1403 1338 1403 1106 
Q 1403 894 1545 773 
Q 1688 653 1941 653 
Q 2256 653 2472 879 
Q 2688 1106 2688 1447 
L 2688 1575 
L 2106 1575 
z
M 3816 1997 
L 3816 0 
L 2688 0 
L 2688 519 
Q 2463 200 2181 54 
Q 1900 -91 1497 -91 
Q 953 -91 614 226 
Q 275 544 275 1050 
Q 275 1666 698 1953 
Q 1122 2241 2028 2241 
L 2688 2241 
L 2688 2328 
Q 2688 2594 2478 2717 
Q 2269 2841 1825 2841 
Q 1466 2841 1156 2769 
Q 847 2697 581 2553 
L 581 3406 
Q 941 3494 1303 3539 
Q 1666 3584 2028 3584 
Q 2975 3584 3395 3211 
Q 3816 2838 3816 1997 
z
" transform="scale(0.015625)"/>
      <path id="DejaVuSans-Bold-6e" d="M 4056 2131 
L 4056 0 
L 2931 0 
L 2931 347 
L 2931 1631 
Q 2931 2084 2911 2256 
Q 2891 2428 2841 2509 
Q 2775 2619 2662 2680 
Q 2550 2741 2406 2741 
Q 2056 2741 1856 2470 
Q 1656 2200 1656 1722 
L 1656 0 
L 538 0 
L 538 3500 
L 1656 3500 
L 1656 2988 
Q 1909 3294 2193 3439 
Q 2478 3584 2822 3584 
Q 3428 3584 3742 3212 
Q 4056 2841 4056 2131 
z
" transform="scale(0.015625)"/>
      <path id="DejaVuSans-Bold-20" transform="scale(0.015625)"/>
      <path id="DejaVuSans-Bold-76" d="M 97 3500 
L 1216 3500 
L 2088 1081 
L 2956 3500 
L 4078 3500 
L 2700 0 
L 1472 0 
L 97 3500 
z
" transform="scale(0.015625)"/>
      <path id="DejaVuSans-Bold-6c" d="M 538 4863 
L 1656 4863 
L 1656 0 
L 538 0 
L 538 4863 
z
" transform="scale(0.015625)"/>
      <path id="DejaVuSans-Bold-6f" d="M 2203 2784 
Q 1831 2784 1636 2517 
Q 1441 2250 1441 1747 
Q 1441 1244 1636 976 
Q 1831 709 2203 709 
Q 2569 709 2762 976 
Q 2956 1244 2956 1747 
Q 2956 2250 2762 2517 
Q 2569 2784 2203 2784 
z
M 2203 3584 
Q 3106 3584 3614 3096 
Q 4122 2609 4122 1747 
Q 4122 884 3614 396 
Q 3106 -91 2203 -91 
Q 1297 -91 786 396 
Q 275 884 275 1747 
Q 275 2609 786 3096 
Q 1297 3584 2203 3584 
z
" transform="scale(0.015625)"/>
      <path id="DejaVuSans-Bold-63" d="M 3366 3391 
L 3366 2478 
Q 3138 2634 2908 2709 
Q 2678 2784 2431 2784 
Q 1963 2784 1702 2511 
Q 1441 2238 1441 1747 
Q 1441 1256 1702 982 
Q 1963 709 2431 709 
Q 2694 709 2930 787 
Q 3166 866 3366 1019 
L 3366 103 
Q 3103 6 2833 -42 
Q 2563 -91 2291 -91 
Q 1344 -91 809 395 
Q 275 881 275 1747 
Q 275 2613 809 3098 
Q 1344 3584 2291 3584 
Q 2566 3584 2833 3536 
Q 3100 3488 3366 3391 
z
" transform="scale(0.015625)"/>
      <path id="DejaVuSans-Bold-69" d="M 538 3500 
L 1656 3500 
L 1656 0 
L 538 0 
L 538 3500 
z
M 538 4863 
L 1656 4863 
L 1656 3950 
L 538 3950 
L 538 4863 
z
" transform="scale(0.015625)"/>
      <path id="DejaVuSans-Bold-74" d="M 1759 4494 
L 1759 3500 
L 2913 3500 
L 2913 2700 
L 1759 2700 
L 1759 1216 
Q 1759 972 1856 886 
Q 1953 800 2241 800 
L 2816 800 
L 2816 0 
L 1856 0 
Q 1194 0 917 276 
Q 641 553 641 1216 
L 641 2700 
L 84 2700 
L 84 3500 
L 641 3500 
L 641 4494 
L 1759 4494 
z
" transform="scale(0.015625)"/>
      <path id="DejaVuSans-Bold-79" d="M 78 3500 
L 1197 3500 
L 2138 1125 
L 2938 3500 
L 4056 3500 
L 2584 -331 
Q 2363 -916 2067 -1148 
Q 1772 -1381 1288 -1381 
L 641 -1381 
L 641 -647 
L 991 -647 
Q 1275 -647 1404 -556 
Q 1534 -466 1606 -231 
L 1638 -134 
L 78 3500 
z
" transform="scale(0.015625)"/>
      <path id="DejaVuSans-Bold-6d" d="M 3781 2919 
Q 3994 3244 4286 3414 
Q 4578 3584 4928 3584 
Q 5531 3584 5847 3212 
Q 6163 2841 6163 2131 
L 6163 0 
L 5038 0 
L 5038 1825 
Q 5041 1866 5042 1909 
Q 5044 1953 5044 2034 
Q 5044 2406 4934 2573 
Q 4825 2741 4581 2741 
Q 4263 2741 4089 2478 
Q 3916 2216 3909 1719 
L 3909 0 
L 2784 0 
L 2784 1825 
Q 2784 2406 2684 2573 
Q 2584 2741 2328 2741 
Q 2006 2741 1831 2477 
Q 1656 2213 1656 1722 
L 1656 0 
L 531 0 
L 531 3500 
L 1656 3500 
L 1656 2988 
Q 1863 3284 2130 3434 
Q 2397 3584 2719 3584 
Q 3081 3584 3359 3409 
Q 3638 3234 3781 2919 
z
" transform="scale(0.015625)"/>
      <path id="DejaVuSans-Bold-70" d="M 1656 506 
L 1656 -1331 
L 538 -1331 
L 538 3500 
L 1656 3500 
L 1656 2988 
Q 1888 3294 2169 3439 
Q 2450 3584 2816 3584 
Q 3463 3584 3878 3070 
Q 4294 2556 4294 1747 
Q 4294 938 3878 423 
Q 3463 -91 2816 -91 
Q 2450 -91 2169 54 
Q 1888 200 1656 506 
z
M 2400 2772 
Q 2041 2772 1848 2508 
Q 1656 2244 1656 1747 
Q 1656 1250 1848 986 
Q 2041 722 2400 722 
Q 2759 722 2948 984 
Q 3138 1247 3138 1747 
Q 3138 2247 2948 2509 
Q 2759 2772 2400 2772 
z
" transform="scale(0.015625)"/>
      <path id="DejaVuSans-Bold-5f" d="M 3200 -916 
L 3200 -1509 
L 0 -1509 
L 0 -916 
L 3200 -916 
z
" transform="scale(0.015625)"/>
      <path id="DejaVuSans-Bold-78" d="M 1422 1791 
L 159 3500 
L 1344 3500 
L 2059 2463 
L 2784 3500 
L 3969 3500 
L 2706 1797 
L 4031 0 
L 2847 0 
L 2059 1106 
L 1281 0 
L 97 0 
L 1422 1791 
z
" transform="scale(0.015625)"/>
      <path id="DejaVuSans-Bold-72" d="M 3138 2547 
Q 2991 2616 2845 2648 
Q 2700 2681 2553 2681 
Q 2122 2681 1889 2404 
Q 1656 2128 1656 1613 
L 1656 0 
L 538 0 
L 538 3500 
L 1656 3500 
L 1656 2925 
Q 1872 3269 2151 3426 
Q 2431 3584 2822 3584 
Q 2878 3584 2943 3579 
Q 3009 3575 3134 3559 
L 3138 2547 
z
" transform="scale(0.015625)"/>
     </defs>
     <use xlink:href="#DejaVuSans-Bold-4d"/>
     <use xlink:href="#DejaVuSans-Bold-65" transform="translate(99.511719 0)"/>
     <use xlink:href="#DejaVuSans-Bold-61" transform="translate(167.333984 0)"/>
     <use xlink:href="#DejaVuSans-Bold-6e" transform="translate(234.814453 0)"/>
     <use xlink:href="#DejaVuSans-Bold-20" transform="translate(306.005859 0)"/>
     <use xlink:href="#DejaVuSans-Bold-76" transform="translate(340.820312 0)"/>
     <use xlink:href="#DejaVuSans-Bold-65" transform="translate(406.005859 0)"/>
     <use xlink:href="#DejaVuSans-Bold-6c" transform="translate(473.828125 0)"/>
     <use xlink:href="#DejaVuSans-Bold-6f" transform="translate(508.105469 0)"/>
     <use xlink:href="#DejaVuSans-Bold-63" transform="translate(576.806641 0)"/>
     <use xlink:href="#DejaVuSans-Bold-69" transform="translate(636.083984 0)"/>
     <use xlink:href="#DejaVuSans-Bold-74" transform="translate(670.361328 0)"/>
     <use xlink:href="#DejaVuSans-Bold-79" transform="translate(718.164062 0)"/>
     <use xlink:href="#DejaVuSans-Bold-20" transform="translate(783.349609 0)"/>
     <use xlink:href="#DejaVuSans-Bold-63" transform="translate(818.164062 0)"/>
     <use xlink:href="#DejaVuSans-Bold-6f" transform="translate(877.441406 0)"/>
     <use xlink:href="#DejaVuSans-Bold-6d" transform="translate(946.142578 0)"/>
     <use xlink:href="#DejaVuSans-Bold-70" transform="translate(1050.341797 0)"/>
     <use xlink:href="#DejaVuSans-Bold-6f" transform="translate(1121.923828 0)"/>
     <use xlink:href="#DejaVuSans-Bold-6e" transform="translate(1190.625 0)"/>
     <use xlink:href="#DejaVuSans-Bold-65" transform="translate(1261.816406 0)"/>
     <use xlink:href="#DejaVuSans-Bold-6e" transform="translate(1329.638672 0)"/>
     <use xlink:href="#DejaVuSans-Bold-74" transform="translate(1400.830078 0)"/>
     <use xlink:href="#DejaVuSans-Bold-20" transform="translate(1448.632812 0)"/>
     <use xlink:href="#DejaVuSans-Bold-76" transform="translate(1483.447266 0)"/>
     <use xlink:href="#DejaVuSans-Bold-5f" transform="translate(1548.632812 0)"/>
     <use xlink:href="#DejaVuSans-Bold-78" transform="translate(1598.632812 0)"/>
     <use xlink:href="#DejaVuSans-Bold-20" transform="translate(1663.134766 0)"/>
     <use xlink:href="#DejaVuSans-Bold-6f" transform="translate(1697.949219 0)"/>
     <use xlink:href="#DejaVuSans-Bold-76" transform="translate(1766.650391 0)"/>
     <use xlink:href="#DejaVuSans-Bold-65" transform="translate(1831.835938 0)"/>
     <use xlink:href="#DejaVuSans-Bold-72" transform="translate(1899.658203 0)"/>
     <use xlink:href="#DejaVuSans-Bold-20" transform="translate(1948.974609 0)"/>
     <use xlink:href="#DejaVuSans-Bold-74" transform="translate(1983.789062 0)"/>
     <use xlink:href="#DejaVuSans-Bold-69" transform="translate(2031.591797 0)"/>
     <use xlink:href="#DejaVuSans-Bold-6d" transform="translate(2065.869141 0)"/>
     <use xlink:href="#DejaVuSans-Bold-65" transform="translate(2170.068359 0)"/>
    </g>
   </g>
  </g>
  <g id="axes_2">
   <g id="patch_7">
    <path d="M 47.961178 326.64351 
L 428.99976 326.64351 
L 428.99976 191.529302 
L 47.961178 191.529302 
z
" style="fill: #ffffff"/>
   </g>
   <g id="matplotlib.axis_3">
    <g id="xtick_7">
     <g id="line2d_22">
      <path d="M 65.281113 326.64351 
L 65.281113 191.529302 
" clip-path="url(#p6746ff49a4)" style="fill: none; stroke: #b0b0b0; stroke-width: 0.8; stroke-linecap: square"/>
     </g>
     <g id="line2d_23">
      <g>
       <use xlink:href="#mbb96336423" x="65.281113" y="326.64351" style="stroke: #000000; stroke-width: 0.8"/>
      </g>
     </g>
     <g id="text_8">
      <!-- 0 -->
      <g transform="translate(62.099863 341.241947) scale(0.1 -0.1)">
       <use xlink:href="#DejaVuSans-30"/>
      </g>
     </g>
    </g>
    <g id="xtick_8">
     <g id="line2d_24">
      <path d="M 134.567784 326.64351 
L 134.567784 191.529302 
" clip-path="url(#p6746ff49a4)" style="fill: none; stroke: #b0b0b0; stroke-width: 0.8; stroke-linecap: square"/>
     </g>
     <g id="line2d_25">
      <g>
       <use xlink:href="#mbb96336423" x="134.567784" y="326.64351" style="stroke: #000000; stroke-width: 0.8"/>
      </g>
     </g>
     <g id="text_9">
      <!-- 2000 -->
      <g transform="translate(121.842784 341.241947) scale(0.1 -0.1)">
       <defs>
        <path id="DejaVuSans-32" d="M 1228 531 
L 3431 531 
L 3431 0 
L 469 0 
L 469 531 
Q 828 903 1448 1529 
Q 2069 2156 2228 2338 
Q 2531 2678 2651 2914 
Q 2772 3150 2772 3378 
Q 2772 3750 2511 3984 
Q 2250 4219 1831 4219 
Q 1534 4219 1204 4116 
Q 875 4013 500 3803 
L 500 4441 
Q 881 4594 1212 4672 
Q 1544 4750 1819 4750 
Q 2544 4750 2975 4387 
Q 3406 4025 3406 3419 
Q 3406 3131 3298 2873 
Q 3191 2616 2906 2266 
Q 2828 2175 2409 1742 
Q 1991 1309 1228 531 
z
" transform="scale(0.015625)"/>
       </defs>
       <use xlink:href="#DejaVuSans-32"/>
       <use xlink:href="#DejaVuSans-30" transform="translate(63.623047 0)"/>
       <use xlink:href="#DejaVuSans-30" transform="translate(127.246094 0)"/>
       <use xlink:href="#DejaVuSans-30" transform="translate(190.869141 0)"/>
      </g>
     </g>
    </g>
    <g id="xtick_9">
     <g id="line2d_26">
      <path d="M 203.854455 326.64351 
L 203.854455 191.529302 
" clip-path="url(#p6746ff49a4)" style="fill: none; stroke: #b0b0b0; stroke-width: 0.8; stroke-linecap: square"/>
     </g>
     <g id="line2d_27">
      <g>
       <use xlink:href="#mbb96336423" x="203.854455" y="326.64351" style="stroke: #000000; stroke-width: 0.8"/>
      </g>
     </g>
     <g id="text_10">
      <!-- 4000 -->
      <g transform="translate(191.129455 341.241947) scale(0.1 -0.1)">
       <defs>
        <path id="DejaVuSans-34" d="M 2419 4116 
L 825 1625 
L 2419 1625 
L 2419 4116 
z
M 2253 4666 
L 3047 4666 
L 3047 1625 
L 3713 1625 
L 3713 1100 
L 3047 1100 
L 3047 0 
L 2419 0 
L 2419 1100 
L 313 1100 
L 313 1709 
L 2253 4666 
z
" transform="scale(0.015625)"/>
       </defs>
       <use xlink:href="#DejaVuSans-34"/>
       <use xlink:href="#DejaVuSans-30" transform="translate(63.623047 0)"/>
       <use xlink:href="#DejaVuSans-30" transform="translate(127.246094 0)"/>
       <use xlink:href="#DejaVuSans-30" transform="translate(190.869141 0)"/>
      </g>
     </g>
    </g>
    <g id="xtick_10">
     <g id="line2d_28">
      <path d="M 273.141126 326.64351 
L 273.141126 191.529302 
" clip-path="url(#p6746ff49a4)" style="fill: none; stroke: #b0b0b0; stroke-width: 0.8; stroke-linecap: square"/>
     </g>
     <g id="line2d_29">
      <g>
       <use xlink:href="#mbb96336423" x="273.141126" y="326.64351" style="stroke: #000000; stroke-width: 0.8"/>
      </g>
     </g>
     <g id="text_11">
      <!-- 6000 -->
      <g transform="translate(260.416126 341.241947) scale(0.1 -0.1)">
       <defs>
        <path id="DejaVuSans-36" d="M 2113 2584 
Q 1688 2584 1439 2293 
Q 1191 2003 1191 1497 
Q 1191 994 1439 701 
Q 1688 409 2113 409 
Q 2538 409 2786 701 
Q 3034 994 3034 1497 
Q 3034 2003 2786 2293 
Q 2538 2584 2113 2584 
z
M 3366 4563 
L 3366 3988 
Q 3128 4100 2886 4159 
Q 2644 4219 2406 4219 
Q 1781 4219 1451 3797 
Q 1122 3375 1075 2522 
Q 1259 2794 1537 2939 
Q 1816 3084 2150 3084 
Q 2853 3084 3261 2657 
Q 3669 2231 3669 1497 
Q 3669 778 3244 343 
Q 2819 -91 2113 -91 
Q 1303 -91 875 529 
Q 447 1150 447 2328 
Q 447 3434 972 4092 
Q 1497 4750 2381 4750 
Q 2619 4750 2861 4703 
Q 3103 4656 3366 4563 
z
" transform="scale(0.015625)"/>
       </defs>
       <use xlink:href="#DejaVuSans-36"/>
       <use xlink:href="#DejaVuSans-30" transform="translate(63.623047 0)"/>
       <use xlink:href="#DejaVuSans-30" transform="translate(127.246094 0)"/>
       <use xlink:href="#DejaVuSans-30" transform="translate(190.869141 0)"/>
      </g>
     </g>
    </g>
    <g id="xtick_11">
     <g id="line2d_30">
      <path d="M 342.427797 326.64351 
L 342.427797 191.529302 
" clip-path="url(#p6746ff49a4)" style="fill: none; stroke: #b0b0b0; stroke-width: 0.8; stroke-linecap: square"/>
     </g>
     <g id="line2d_31">
      <g>
       <use xlink:href="#mbb96336423" x="342.427797" y="326.64351" style="stroke: #000000; stroke-width: 0.8"/>
      </g>
     </g>
     <g id="text_12">
      <!-- 8000 -->
      <g transform="translate(329.702797 341.241947) scale(0.1 -0.1)">
       <defs>
        <path id="DejaVuSans-38" d="M 2034 2216 
Q 1584 2216 1326 1975 
Q 1069 1734 1069 1313 
Q 1069 891 1326 650 
Q 1584 409 2034 409 
Q 2484 409 2743 651 
Q 3003 894 3003 1313 
Q 3003 1734 2745 1975 
Q 2488 2216 2034 2216 
z
M 1403 2484 
Q 997 2584 770 2862 
Q 544 3141 544 3541 
Q 544 4100 942 4425 
Q 1341 4750 2034 4750 
Q 2731 4750 3128 4425 
Q 3525 4100 3525 3541 
Q 3525 3141 3298 2862 
Q 3072 2584 2669 2484 
Q 3125 2378 3379 2068 
Q 3634 1759 3634 1313 
Q 3634 634 3220 271 
Q 2806 -91 2034 -91 
Q 1263 -91 848 271 
Q 434 634 434 1313 
Q 434 1759 690 2068 
Q 947 2378 1403 2484 
z
M 1172 3481 
Q 1172 3119 1398 2916 
Q 1625 2713 2034 2713 
Q 2441 2713 2670 2916 
Q 2900 3119 2900 3481 
Q 2900 3844 2670 4047 
Q 2441 4250 2034 4250 
Q 1625 4250 1398 4047 
Q 1172 3844 1172 3481 
z
" transform="scale(0.015625)"/>
       </defs>
       <use xlink:href="#DejaVuSans-38"/>
       <use xlink:href="#DejaVuSans-30" transform="translate(63.623047 0)"/>
       <use xlink:href="#DejaVuSans-30" transform="translate(127.246094 0)"/>
       <use xlink:href="#DejaVuSans-30" transform="translate(190.869141 0)"/>
      </g>
     </g>
    </g>
    <g id="xtick_12">
     <g id="line2d_32">
      <path d="M 411.714468 326.64351 
L 411.714468 191.529302 
" clip-path="url(#p6746ff49a4)" style="fill: none; stroke: #b0b0b0; stroke-width: 0.8; stroke-linecap: square"/>
     </g>
     <g id="line2d_33">
      <g>
       <use xlink:href="#mbb96336423" x="411.714468" y="326.64351" style="stroke: #000000; stroke-width: 0.8"/>
      </g>
     </g>
     <g id="text_13">
      <!-- 10000 -->
      <g transform="translate(395.808218 341.241947) scale(0.1 -0.1)">
       <use xlink:href="#DejaVuSans-31"/>
       <use xlink:href="#DejaVuSans-30" transform="translate(63.623047 0)"/>
       <use xlink:href="#DejaVuSans-30" transform="translate(127.246094 0)"/>
       <use xlink:href="#DejaVuSans-30" transform="translate(190.869141 0)"/>
       <use xlink:href="#DejaVuSans-30" transform="translate(254.492188 0)"/>
      </g>
     </g>
    </g>
    <g id="text_14">
     <!-- timestep -->
     <g transform="translate(216.36875 354.920073) scale(0.1 -0.1)">
      <use xlink:href="#DejaVuSans-74"/>
      <use xlink:href="#DejaVuSans-69" transform="translate(39.208984 0)"/>
      <use xlink:href="#DejaVuSans-6d" transform="translate(66.992188 0)"/>
      <use xlink:href="#DejaVuSans-65" transform="translate(164.404297 0)"/>
      <use xlink:href="#DejaVuSans-73" transform="translate(225.927734 0)"/>
      <use xlink:href="#DejaVuSans-74" transform="translate(278.027344 0)"/>
      <use xlink:href="#DejaVuSans-65" transform="translate(317.236328 0)"/>
      <use xlink:href="#DejaVuSans-70" transform="translate(378.759766 0)"/>
     </g>
    </g>
   </g>
   <g id="matplotlib.axis_4">
    <g id="ytick_5">
     <g id="line2d_34">
      <path d="M 47.961178 289.764811 
L 428.99976 289.764811 
" clip-path="url(#p6746ff49a4)" style="fill: none; stroke: #b0b0b0; stroke-width: 0.8; stroke-linecap: square"/>
     </g>
     <g id="line2d_35">
      <g>
       <use xlink:href="#m4d316b36e8" x="47.961178" y="289.764811" style="stroke: #000000; stroke-width: 0.8"/>
      </g>
     </g>
     <g id="text_15">
      <!-- 0.0 -->
      <g transform="translate(25.058053 293.56403) scale(0.1 -0.1)">
       <use xlink:href="#DejaVuSans-30"/>
       <use xlink:href="#DejaVuSans-2e" transform="translate(63.623047 0)"/>
       <use xlink:href="#DejaVuSans-30" transform="translate(95.410156 0)"/>
      </g>
     </g>
    </g>
    <g id="ytick_6">
     <g id="line2d_36">
      <path d="M 47.961178 245.343842 
L 428.99976 245.343842 
" clip-path="url(#p6746ff49a4)" style="fill: none; stroke: #b0b0b0; stroke-width: 0.8; stroke-linecap: square"/>
     </g>
     <g id="line2d_37">
      <g>
       <use xlink:href="#m4d316b36e8" x="47.961178" y="245.343842" style="stroke: #000000; stroke-width: 0.8"/>
      </g>
     </g>
     <g id="text_16">
      <!-- 0.5 -->
      <g transform="translate(25.058053 249.143061) scale(0.1 -0.1)">
       <use xlink:href="#DejaVuSans-30"/>
       <use xlink:href="#DejaVuSans-2e" transform="translate(63.623047 0)"/>
       <use xlink:href="#DejaVuSans-35" transform="translate(95.410156 0)"/>
      </g>
     </g>
    </g>
    <g id="ytick_7">
     <g id="line2d_38">
      <path d="M 47.961178 200.922873 
L 428.99976 200.922873 
" clip-path="url(#p6746ff49a4)" style="fill: none; stroke: #b0b0b0; stroke-width: 0.8; stroke-linecap: square"/>
     </g>
     <g id="line2d_39">
      <g>
       <use xlink:href="#m4d316b36e8" x="47.961178" y="200.922873" style="stroke: #000000; stroke-width: 0.8"/>
      </g>
     </g>
     <g id="text_17">
      <!-- 1.0 -->
      <g transform="translate(25.058053 204.722092) scale(0.1 -0.1)">
       <use xlink:href="#DejaVuSans-31"/>
       <use xlink:href="#DejaVuSans-2e" transform="translate(63.623047 0)"/>
       <use xlink:href="#DejaVuSans-30" transform="translate(95.410156 0)"/>
      </g>
     </g>
    </g>
    <g id="text_18">
     <!-- v_y -->
     <g transform="translate(18.70024 267.505156) rotate(-90) scale(0.1 -0.1)">
      <defs>
       <path id="DejaVuSans-79" d="M 2059 -325 
Q 1816 -950 1584 -1140 
Q 1353 -1331 966 -1331 
L 506 -1331 
L 506 -850 
L 844 -850 
Q 1081 -850 1212 -737 
Q 1344 -625 1503 -206 
L 1606 56 
L 191 3500 
L 800 3500 
L 1894 763 
L 2988 3500 
L 3597 3500 
L 2059 -325 
z
" transform="scale(0.015625)"/>
      </defs>
      <use xlink:href="#DejaVuSans-76"/>
      <use xlink:href="#DejaVuSans-5f" transform="translate(59.179688 0)"/>
      <use xlink:href="#DejaVuSans-79" transform="translate(109.179688 0)"/>
     </g>
    </g>
   </g>
   <g id="line2d_40">
    <path d="M 65.281113 284.808203 
L 65.800763 288.265967 
L 66.18184 289.478634 
L 66.3897 290.104709 
L 67.151853 292.475212 
L 67.53293 293.554636 
L 67.84472 294.384253 
L 68.05258 294.565945 
L 68.710803 295.422256 
L 68.88402 295.555048 
L 69.438313 296.651036 
L 69.646173 296.895583 
L 70.02725 296.964636 
L 70.477613 297.510299 
L 70.75476 298.309178 
L 71.17048 299.47881 
L 71.516913 300.284054 
L 71.89799 302.26207 
L 72.244423 303.60927 
L 72.93729 305.164491 
L 73.14515 305.868542 
L 74.461597 310.979863 
L 74.669457 310.843872 
L 74.91196 310.749702 
L 75.11982 310.923834 
L 75.396967 311.471281 
L 75.812687 312.952722 
L 76.401624 314.838852 
L 76.748057 315.415218 
L 76.955917 315.38804 
L 77.61414 314.993806 
L 77.648784 315.054344 
L 78.064504 315.55251 
L 78.480224 317.378666 
L 78.826657 318.765169 
L 79.311664 319.381029 
L 79.554167 319.442298 
L 79.658097 319.505426 
L 79.935244 320.014029 
L 80.420251 320.485599 
L 80.732041 320.321075 
L 81.009187 319.751631 
L 81.459551 318.225338 
L 82.221704 315.238163 
L 82.637424 314.055532 
L 82.983857 312.631933 
L 83.919228 308.224874 
L 84.958528 301.356208 
L 85.478178 299.027252 
L 86.032471 297.005639 
L 86.656051 294.815428 
L 86.933198 294.485703 
L 87.210344 294.166078 
L 87.487491 293.186666 
L 88.700008 287.184489 
L 89.808595 279.970328 
L 90.397531 275.812628 
L 91.644691 267.25074 
L 92.683991 262.747735 
L 93.099711 261.793608 
L 93.688648 259.985981 
L 95.801892 251.220204 
L 96.009752 251.088032 
L 96.252255 251.143516 
L 97.152982 251.650795 
L 97.326198 251.558372 
L 97.568702 251.029514 
L 97.811205 249.805686 
L 98.642645 245.065315 
L 98.989078 244.332513 
L 99.231582 244.224402 
L 99.508729 244.199213 
L 99.681945 243.59599 
L 100.651959 239.014005 
L 101.136965 236.321526 
L 101.725902 232.943651 
L 102.765202 226.798193 
L 103.076992 225.751715 
L 104.220222 223.565148 
L 105.017019 221.194758 
L 105.363452 220.661555 
L 105.675242 220.547636 
L 105.883102 220.127704 
L 106.333466 218.469509 
L 107.823129 212.131644 
L 108.308136 210.306456 
L 108.897072 208.830431 
L 109.208862 208.620771 
L 109.693869 208.279055 
L 110.040302 207.797611 
L 110.282806 207.015793 
L 111.114246 204.372296 
L 111.668539 203.12574 
L 112.188189 202.503043 
L 112.534623 202.173218 
L 112.777126 202.312253 
L 113.227489 202.480087 
L 113.573923 202.335286 
L 114.336076 201.926703 
L 115.063586 201.970333 
L 115.583236 201.597285 
L 115.964313 201.043803 
L 116.899683 199.53484 
L 117.765766 198.96505 
L 118.83971 197.885308 
L 119.601863 197.757844 
L 121.784393 197.738459 
L 123.239413 198.309464 
L 123.689777 198.604267 
L 124.070853 198.58706 
L 124.86765 198.441716 
L 126.253383 198.568227 
L 128.782347 198.311353 
L 130.098794 198.747902 
L 130.618444 198.534938 
L 131.6231 198.069912 
L 132.108107 198.124544 
L 132.800974 198.473069 
L 133.632414 198.838978 
L 134.186707 198.830378 
L 136.092091 198.533634 
L 137.096747 198.888565 
L 138.032118 199.134531 
L 138.724984 199.074815 
L 140.353221 198.793639 
L 141.080731 199.019547 
L 142.397178 199.457083 
L 143.159331 199.417448 
L 144.510421 199.297838 
L 145.341861 199.51579 
L 146.623665 199.860408 
L 147.385818 199.796079 
L 148.806195 199.619424 
L 149.637635 199.809264 
L 150.850152 200.081378 
L 151.785522 200.014537 
L 153.171255 199.920466 
L 164.672843 200.43177 
L 166.058576 200.512653 
L 167.998603 200.634074 
L 171.220433 200.621915 
L 173.36832 200.64476 
L 176.38229 200.69193 
L 182.133084 200.792499 
L 210.713835 200.905633 
L 225.160106 200.907929 
L 245.980751 200.915349 
L 366.712775 200.9208 
L 411.679824 200.920828 
L 411.679824 200.920828 
" clip-path="url(#p6746ff49a4)" style="fill: none; stroke: #ff0000; stroke-width: 2; stroke-linecap: square"/>
   </g>
   <g id="patch_8">
    <path d="M 47.961178 326.64351 
L 47.961178 191.529302 
" style="fill: none; stroke: #000000; stroke-width: 0.8; stroke-linejoin: miter; stroke-linecap: square"/>
   </g>
   <g id="patch_9">
    <path d="M 428.99976 326.64351 
L 428.99976 191.529302 
" style="fill: none; stroke: #000000; stroke-width: 0.8; stroke-linejoin: miter; stroke-linecap: square"/>
   </g>
   <g id="patch_10">
    <path d="M 47.961178 326.64351 
L 428.99976 326.64351 
" style="fill: none; stroke: #000000; stroke-width: 0.8; stroke-linejoin: miter; stroke-linecap: square"/>
   </g>
   <g id="patch_11">
    <path d="M 47.961178 191.529302 
L 428.99976 191.529302 
" style="fill: none; stroke: #000000; stroke-width: 0.8; stroke-linejoin: miter; stroke-linecap: square"/>
   </g>
   <g id="text_19">
    <!-- Mean velocity component v_y over time -->
    <g transform="translate(104.163906 185.529302) scale(0.12 -0.12)">
     <use xlink:href="#DejaVuSans-Bold-4d"/>
     <use xlink:href="#DejaVuSans-Bold-65" transform="translate(99.511719 0)"/>
     <use xlink:href="#DejaVuSans-Bold-61" transform="translate(167.333984 0)"/>
     <use xlink:href="#DejaVuSans-Bold-6e" transform="translate(234.814453 0)"/>
     <use xlink:href="#DejaVuSans-Bold-20" transform="translate(306.005859 0)"/>
     <use xlink:href="#DejaVuSans-Bold-76" transform="translate(340.820312 0)"/>
     <use xlink:href="#DejaVuSans-Bold-65" transform="translate(406.005859 0)"/>
     <use xlink:href="#DejaVuSans-Bold-6c" transform="translate(473.828125 0)"/>
     <use xlink:href="#DejaVuSans-Bold-6f" transform="translate(508.105469 0)"/>
     <use xlink:href="#DejaVuSans-Bold-63" transform="translate(576.806641 0)"/>
     <use xlink:href="#DejaVuSans-Bold-69" transform="translate(636.083984 0)"/>
     <use xlink:href="#DejaVuSans-Bold-74" transform="translate(670.361328 0)"/>
     <use xlink:href="#DejaVuSans-Bold-79" transform="translate(718.164062 0)"/>
     <use xlink:href="#DejaVuSans-Bold-20" transform="translate(783.349609 0)"/>
     <use xlink:href="#DejaVuSans-Bold-63" transform="translate(818.164062 0)"/>
     <use xlink:href="#DejaVuSans-Bold-6f" transform="translate(877.441406 0)"/>
     <use xlink:href="#DejaVuSans-Bold-6d" transform="translate(946.142578 0)"/>
     <use xlink:href="#DejaVuSans-Bold-70" transform="translate(1050.341797 0)"/>
     <use xlink:href="#DejaVuSans-Bold-6f" transform="translate(1121.923828 0)"/>
     <use xlink:href="#DejaVuSans-Bold-6e" transform="translate(1190.625 0)"/>
     <use xlink:href="#DejaVuSans-Bold-65" transform="translate(1261.816406 0)"/>
     <use xlink:href="#DejaVuSans-Bold-6e" transform="translate(1329.638672 0)"/>
     <use xlink:href="#DejaVuSans-Bold-74" transform="translate(1400.830078 0)"/>
     <use xlink:href="#DejaVuSans-Bold-20" transform="translate(1448.632812 0)"/>
     <use xlink:href="#DejaVuSans-Bold-76" transform="translate(1483.447266 0)"/>
     <use xlink:href="#DejaVuSans-Bold-5f" transform="translate(1548.632812 0)"/>
     <use xlink:href="#DejaVuSans-Bold-79" transform="translate(1598.632812 0)"/>
     <use xlink:href="#DejaVuSans-Bold-20" transform="translate(1663.818359 0)"/>
     <use xlink:href="#DejaVuSans-Bold-6f" transform="translate(1698.632812 0)"/>
     <use xlink:href="#DejaVuSans-Bold-76" transform="translate(1767.333984 0)"/>
     <use xlink:href="#DejaVuSans-Bold-65" transform="translate(1832.519531 0)"/>
     <use xlink:href="#DejaVuSans-Bold-72" transform="translate(1900.341797 0)"/>
     <use xlink:href="#DejaVuSans-Bold-20" transform="translate(1949.658203 0)"/>
     <use xlink:href="#DejaVuSans-Bold-74" transform="translate(1984.472656 0)"/>
     <use xlink:href="#DejaVuSans-Bold-69" transform="translate(2032.275391 0)"/>
     <use xlink:href="#DejaVuSans-Bold-6d" transform="translate(2066.552734 0)"/>
     <use xlink:href="#DejaVuSans-Bold-65" transform="translate(2170.751953 0)"/>
    </g>
   </g>
  </g>
 </g>
 <defs>
  <clipPath id="p1513e64b55">
   <rect x="47.961178" y="18.118365" width="381.038583" height="135.114207"/>
  </clipPath>
  <clipPath id="p6746ff49a4">
   <rect x="47.961178" y="191.529302" width="381.038583" height="135.114208"/>
  </clipPath>
 </defs>
</svg>
