<?xml version="1.0" encoding="utf-8" standalone="no"?>
<!DOCTYPE svg PUBLIC "-//W3C//DTD SVG 1.1//EN"
  "http://www.w3.org/Graphics/SVG/1.1/DTD/svg11.dtd">
<svg xmlns:xlink="http://www.w3.org/1999/xlink" width="432pt" height="360pt" viewBox="0 0 432 360" xmlns="http://www.w3.org/2000/svg" version="1.1">
 <metadata>
  <rdf:RDF xmlns:dc="http://purl.org/dc/elements/1.1/" xmlns:cc="http://creativecommons.org/ns#" xmlns:rdf="http://www.w3.org/1999/02/22-rdf-syntax-ns#">
   <cc:Work>
    <dc:type rdf:resource="http://purl.org/dc/dcmitype/StillImage"/>
    <dc:date>2025-05-05T23:13:50.638050</dc:date>
    <dc:format>image/svg+xml</dc:format>
    <dc:creator>
     <cc:Agent>
      <dc:title>Matplotlib v3.10.1, https://matplotlib.org/</dc:title>
     </cc:Agent>
    </dc:creator>
   </cc:Work>
  </rdf:RDF>
 </metadata>
 <defs>
  <style type="text/css">*{stroke-linejoin: round; stroke-linecap: butt}</style>
 </defs>
 <g id="figure_1">
  <g id="patch_1">
   <path d="M 0 360 
L 432 360 
L 432 0 
L 0 0 
z
" style="fill: #ffffff"/>
  </g>
  <g id="axes_1">
   <g id="patch_2">
    <path d="M 54.323678 153.232572 
L 428.99976 153.232572 
L 428.99976 18.118365 
L 54.323678 18.118365 
z
" style="fill: #ffffff"/>
   </g>
   <g id="matplotlib.axis_1">
    <g id="xtick_1">
     <g id="line2d_1">
      <path d="M 71.354409 153.232572 
L 71.354409 18.118365 
" clip-path="url(#p666d976abc)" style="fill: none; stroke: #b0b0b0; stroke-width: 0.8; stroke-linecap: square"/>
     </g>
     <g id="line2d_2">
      <defs>
       <path id="m78e237e864" d="M 0 0 
L 0 3.5 
" style="stroke: #000000; stroke-width: 0.8"/>
      </defs>
      <g>
       <use xlink:href="#m78e237e864" x="71.354409" y="153.232572" style="stroke: #000000; stroke-width: 0.8"/>
      </g>
     </g>
    </g>
    <g id="xtick_2">
     <g id="line2d_3">
      <path d="M 139.484146 153.232572 
L 139.484146 18.118365 
" clip-path="url(#p666d976abc)" style="fill: none; stroke: #b0b0b0; stroke-width: 0.8; stroke-linecap: square"/>
     </g>
     <g id="line2d_4">
      <g>
       <use xlink:href="#m78e237e864" x="139.484146" y="153.232572" style="stroke: #000000; stroke-width: 0.8"/>
      </g>
     </g>
    </g>
    <g id="xtick_3">
     <g id="line2d_5">
      <path d="M 207.613883 153.232572 
L 207.613883 18.118365 
" clip-path="url(#p666d976abc)" style="fill: none; stroke: #b0b0b0; stroke-width: 0.8; stroke-linecap: square"/>
     </g>
     <g id="line2d_6">
      <g>
       <use xlink:href="#m78e237e864" x="207.613883" y="153.232572" style="stroke: #000000; stroke-width: 0.8"/>
      </g>
     </g>
    </g>
    <g id="xtick_4">
     <g id="line2d_7">
      <path d="M 275.74362 153.232572 
L 275.74362 18.118365 
" clip-path="url(#p666d976abc)" style="fill: none; stroke: #b0b0b0; stroke-width: 0.8; stroke-linecap: square"/>
     </g>
     <g id="line2d_8">
      <g>
       <use xlink:href="#m78e237e864" x="275.74362" y="153.232572" style="stroke: #000000; stroke-width: 0.8"/>
      </g>
     </g>
    </g>
    <g id="xtick_5">
     <g id="line2d_9">
      <path d="M 343.873357 153.232572 
L 343.873357 18.118365 
" clip-path="url(#p666d976abc)" style="fill: none; stroke: #b0b0b0; stroke-width: 0.8; stroke-linecap: square"/>
     </g>
     <g id="line2d_10">
      <g>
       <use xlink:href="#m78e237e864" x="343.873357" y="153.232572" style="stroke: #000000; stroke-width: 0.8"/>
      </g>
     </g>
    </g>
    <g id="xtick_6">
     <g id="line2d_11">
      <path d="M 412.003094 153.232572 
L 412.003094 18.118365 
" clip-path="url(#p666d976abc)" style="fill: none; stroke: #b0b0b0; stroke-width: 0.8; stroke-linecap: square"/>
     </g>
     <g id="line2d_12">
      <g>
       <use xlink:href="#m78e237e864" x="412.003094" y="153.232572" style="stroke: #000000; stroke-width: 0.8"/>
      </g>
     </g>
    </g>
    <g id="text_1">
     <!-- timestep -->
     <g transform="translate(219.55 168.33101) scale(0.1 -0.1)">
      <defs>
       <path id="DejaVuSans-74" d="M 1172 4494 
L 1172 3500 
L 2356 3500 
L 2356 3053 
L 1172 3053 
L 1172 1153 
Q 1172 725 1289 603 
Q 1406 481 1766 481 
L 2356 481 
L 2356 0 
L 1766 0 
Q 1100 0 847 248 
Q 594 497 594 1153 
L 594 3053 
L 172 3053 
L 172 3500 
L 594 3500 
L 594 4494 
L 1172 4494 
z
" transform="scale(0.015625)"/>
       <path id="DejaVuSans-69" d="M 603 3500 
L 1178 3500 
L 1178 0 
L 603 0 
L 603 3500 
z
M 603 4863 
L 1178 4863 
L 1178 4134 
L 603 4134 
L 603 4863 
z
" transform="scale(0.015625)"/>
       <path id="DejaVuSans-6d" d="M 3328 2828 
Q 3544 3216 3844 3400 
Q 4144 3584 4550 3584 
Q 5097 3584 5394 3201 
Q 5691 2819 5691 2113 
L 5691 0 
L 5113 0 
L 5113 2094 
Q 5113 2597 4934 2840 
Q 4756 3084 4391 3084 
Q 3944 3084 3684 2787 
Q 3425 2491 3425 1978 
L 3425 0 
L 2847 0 
L 2847 2094 
Q 2847 2600 2669 2842 
Q 2491 3084 2119 3084 
Q 1678 3084 1418 2786 
Q 1159 2488 1159 1978 
L 1159 0 
L 581 0 
L 581 3500 
L 1159 3500 
L 1159 2956 
Q 1356 3278 1631 3431 
Q 1906 3584 2284 3584 
Q 2666 3584 2933 3390 
Q 3200 3197 3328 2828 
z
" transform="scale(0.015625)"/>
       <path id="DejaVuSans-65" d="M 3597 1894 
L 3597 1613 
L 953 1613 
Q 991 1019 1311 708 
Q 1631 397 2203 397 
Q 2534 397 2845 478 
Q 3156 559 3463 722 
L 3463 178 
Q 3153 47 2828 -22 
Q 2503 -91 2169 -91 
Q 1331 -91 842 396 
Q 353 884 353 1716 
Q 353 2575 817 3079 
Q 1281 3584 2069 3584 
Q 2775 3584 3186 3129 
Q 3597 2675 3597 1894 
z
M 3022 2063 
Q 3016 2534 2758 2815 
Q 2500 3097 2075 3097 
Q 1594 3097 1305 2825 
Q 1016 2553 972 2059 
L 3022 2063 
z
" transform="scale(0.015625)"/>
       <path id="DejaVuSans-73" d="M 2834 3397 
L 2834 2853 
Q 2591 2978 2328 3040 
Q 2066 3103 1784 3103 
Q 1356 3103 1142 2972 
Q 928 2841 928 2578 
Q 928 2378 1081 2264 
Q 1234 2150 1697 2047 
L 1894 2003 
Q 2506 1872 2764 1633 
Q 3022 1394 3022 966 
Q 3022 478 2636 193 
Q 2250 -91 1575 -91 
Q 1294 -91 989 -36 
Q 684 19 347 128 
L 347 722 
Q 666 556 975 473 
Q 1284 391 1588 391 
Q 1994 391 2212 530 
Q 2431 669 2431 922 
Q 2431 1156 2273 1281 
Q 2116 1406 1581 1522 
L 1381 1569 
Q 847 1681 609 1914 
Q 372 2147 372 2553 
Q 372 3047 722 3315 
Q 1072 3584 1716 3584 
Q 2034 3584 2315 3537 
Q 2597 3491 2834 3397 
z
" transform="scale(0.015625)"/>
       <path id="DejaVuSans-70" d="M 1159 525 
L 1159 -1331 
L 581 -1331 
L 581 3500 
L 1159 3500 
L 1159 2969 
Q 1341 3281 1617 3432 
Q 1894 3584 2278 3584 
Q 2916 3584 3314 3078 
Q 3713 2572 3713 1747 
Q 3713 922 3314 415 
Q 2916 -91 2278 -91 
Q 1894 -91 1617 61 
Q 1341 213 1159 525 
z
M 3116 1747 
Q 3116 2381 2855 2742 
Q 2594 3103 2138 3103 
Q 1681 3103 1420 2742 
Q 1159 2381 1159 1747 
Q 1159 1113 1420 752 
Q 1681 391 2138 391 
Q 2594 391 2855 752 
Q 3116 1113 3116 1747 
z
" transform="scale(0.015625)"/>
      </defs>
      <use xlink:href="#DejaVuSans-74"/>
      <use xlink:href="#DejaVuSans-69" transform="translate(39.208984 0)"/>
      <use xlink:href="#DejaVuSans-6d" transform="translate(66.992188 0)"/>
      <use xlink:href="#DejaVuSans-65" transform="translate(164.404297 0)"/>
      <use xlink:href="#DejaVuSans-73" transform="translate(225.927734 0)"/>
      <use xlink:href="#DejaVuSans-74" transform="translate(278.027344 0)"/>
      <use xlink:href="#DejaVuSans-65" transform="translate(317.236328 0)"/>
      <use xlink:href="#DejaVuSans-70" transform="translate(378.759766 0)"/>
     </g>
    </g>
   </g>
   <g id="matplotlib.axis_2">
    <g id="ytick_1">
     <g id="line2d_13">
      <path d="M 54.323678 122.290064 
L 428.99976 122.290064 
" clip-path="url(#p666d976abc)" style="fill: none; stroke: #b0b0b0; stroke-width: 0.8; stroke-linecap: square"/>
     </g>
     <g id="line2d_14">
      <defs>
       <path id="m9ce6764852" d="M 0 0 
L -3.5 0 
" style="stroke: #000000; stroke-width: 0.8"/>
      </defs>
      <g>
       <use xlink:href="#m9ce6764852" x="54.323678" y="122.290064" style="stroke: #000000; stroke-width: 0.8"/>
      </g>
     </g>
     <g id="text_2">
      <!-- −1.0 -->
      <g transform="translate(23.040865 126.089283) scale(0.1 -0.1)">
       <defs>
        <path id="DejaVuSans-2212" d="M 678 2272 
L 4684 2272 
L 4684 1741 
L 678 1741 
L 678 2272 
z
" transform="scale(0.015625)"/>
        <path id="DejaVuSans-31" d="M 794 531 
L 1825 531 
L 1825 4091 
L 703 3866 
L 703 4441 
L 1819 4666 
L 2450 4666 
L 2450 531 
L 3481 531 
L 3481 0 
L 794 0 
L 794 531 
z
" transform="scale(0.015625)"/>
        <path id="DejaVuSans-2e" d="M 684 794 
L 1344 794 
L 1344 0 
L 684 0 
L 684 794 
z
" transform="scale(0.015625)"/>
        <path id="DejaVuSans-30" d="M 2034 4250 
Q 1547 4250 1301 3770 
Q 1056 3291 1056 2328 
Q 1056 1369 1301 889 
Q 1547 409 2034 409 
Q 2525 409 2770 889 
Q 3016 1369 3016 2328 
Q 3016 3291 2770 3770 
Q 2525 4250 2034 4250 
z
M 2034 4750 
Q 2819 4750 3233 4129 
Q 3647 3509 3647 2328 
Q 3647 1150 3233 529 
Q 2819 -91 2034 -91 
Q 1250 -91 836 529 
Q 422 1150 422 2328 
Q 422 3509 836 4129 
Q 1250 4750 2034 4750 
z
" transform="scale(0.015625)"/>
       </defs>
       <use xlink:href="#DejaVuSans-2212"/>
       <use xlink:href="#DejaVuSans-31" transform="translate(83.789062 0)"/>
       <use xlink:href="#DejaVuSans-2e" transform="translate(147.412109 0)"/>
       <use xlink:href="#DejaVuSans-30" transform="translate(179.199219 0)"/>
      </g>
     </g>
    </g>
    <g id="ytick_2">
     <g id="line2d_15">
      <path d="M 54.323678 85.916781 
L 428.99976 85.916781 
" clip-path="url(#p666d976abc)" style="fill: none; stroke: #b0b0b0; stroke-width: 0.8; stroke-linecap: square"/>
     </g>
     <g id="line2d_16">
      <g>
       <use xlink:href="#m9ce6764852" x="54.323678" y="85.916781" style="stroke: #000000; stroke-width: 0.8"/>
      </g>
     </g>
     <g id="text_3">
      <!-- −0.5 -->
      <g transform="translate(23.040865 89.716) scale(0.1 -0.1)">
       <defs>
        <path id="DejaVuSans-35" d="M 691 4666 
L 3169 4666 
L 3169 4134 
L 1269 4134 
L 1269 2991 
Q 1406 3038 1543 3061 
Q 1681 3084 1819 3084 
Q 2600 3084 3056 2656 
Q 3513 2228 3513 1497 
Q 3513 744 3044 326 
Q 2575 -91 1722 -91 
Q 1428 -91 1123 -41 
Q 819 9 494 109 
L 494 744 
Q 775 591 1075 516 
Q 1375 441 1709 441 
Q 2250 441 2565 725 
Q 2881 1009 2881 1497 
Q 2881 1984 2565 2268 
Q 2250 2553 1709 2553 
Q 1456 2553 1204 2497 
Q 953 2441 691 2322 
L 691 4666 
z
" transform="scale(0.015625)"/>
       </defs>
       <use xlink:href="#DejaVuSans-2212"/>
       <use xlink:href="#DejaVuSans-30" transform="translate(83.789062 0)"/>
       <use xlink:href="#DejaVuSans-2e" transform="translate(147.412109 0)"/>
       <use xlink:href="#DejaVuSans-35" transform="translate(179.199219 0)"/>
      </g>
     </g>
    </g>
    <g id="ytick_3">
     <g id="line2d_17">
      <path d="M 54.323678 49.543499 
L 428.99976 49.543499 
" clip-path="url(#p666d976abc)" style="fill: none; stroke: #b0b0b0; stroke-width: 0.8; stroke-linecap: square"/>
     </g>
     <g id="line2d_18">
      <g>
       <use xlink:href="#m9ce6764852" x="54.323678" y="49.543499" style="stroke: #000000; stroke-width: 0.8"/>
      </g>
     </g>
     <g id="text_4">
      <!-- 0.0 -->
      <g transform="translate(31.420553 53.342718) scale(0.1 -0.1)">
       <use xlink:href="#DejaVuSans-30"/>
       <use xlink:href="#DejaVuSans-2e" transform="translate(63.623047 0)"/>
       <use xlink:href="#DejaVuSans-30" transform="translate(95.410156 0)"/>
      </g>
     </g>
    </g>
    <g id="text_5">
     <!-- v_x -->
     <g transform="translate(16.683053 94.094219) rotate(-90) scale(0.1 -0.1)">
      <defs>
       <path id="DejaVuSans-76" d="M 191 3500 
L 800 3500 
L 1894 563 
L 2988 3500 
L 3597 3500 
L 2284 0 
L 1503 0 
L 191 3500 
z
" transform="scale(0.015625)"/>
       <path id="DejaVuSans-5f" d="M 3263 -1063 
L 3263 -1509 
L -63 -1509 
L -63 -1063 
L 3263 -1063 
z
" transform="scale(0.015625)"/>
       <path id="DejaVuSans-78" d="M 3513 3500 
L 2247 1797 
L 3578 0 
L 2900 0 
L 1881 1375 
L 863 0 
L 184 0 
L 1544 1831 
L 300 3500 
L 978 3500 
L 1906 2253 
L 2834 3500 
L 3513 3500 
z
" transform="scale(0.015625)"/>
      </defs>
      <use xlink:href="#DejaVuSans-76"/>
      <use xlink:href="#DejaVuSans-5f" transform="translate(59.179688 0)"/>
      <use xlink:href="#DejaVuSans-78" transform="translate(109.179688 0)"/>
     </g>
    </g>
   </g>
   <g id="line2d_19">
    <path d="M 71.354409 48.659159 
L 73.943339 38.721721 
L 74.147728 38.210809 
L 74.590571 37.098755 
L 74.829025 36.673507 
L 75.067479 36.392164 
L 75.237804 36.44668 
L 75.510322 36.626714 
L 75.714712 36.450938 
L 76.19162 35.901342 
L 76.361944 36.037762 
L 76.600398 36.276785 
L 76.838852 36.186719 
L 77.213566 36.551179 
L 77.690474 37.449753 
L 77.724539 37.426782 
L 77.860798 37.170889 
L 78.201447 35.626471 
L 78.78055 33.415899 
L 79.734366 31.343431 
L 80.04095 31.401531 
L 80.279404 31.047511 
L 80.688183 30.392996 
L 81.028831 30.084497 
L 81.335415 30.068849 
L 81.539804 30.048866 
L 81.982648 30.304312 
L 82.425491 30.842913 
L 83.277113 31.533622 
L 83.413372 31.393581 
L 83.788086 30.438847 
L 84.435318 28.388565 
L 84.605642 28.370727 
L 84.775967 28.66851 
L 86.172626 32.050253 
L 86.61547 32.321105 
L 87.092378 32.626223 
L 87.330832 32.814783 
L 87.501156 32.639877 
L 88.216518 31.350408 
L 88.625297 30.611459 
L 88.829686 30.596834 
L 89.00001 30.52672 
L 89.408789 28.537262 
L 89.953827 26.532013 
L 90.294475 25.702512 
L 90.941708 24.265423 
L 90.975773 24.279515 
L 91.248292 24.595328 
L 91.452681 25.094937 
L 91.7252 25.599373 
L 91.861459 25.836143 
L 92.133978 26.81148 
L 92.610886 28.538144 
L 93.087795 31.682907 
L 93.666897 35.356831 
L 94.450389 39.015494 
L 96.187698 45.470775 
L 96.392087 45.689175 
L 96.596476 46.104359 
L 96.83493 47.331446 
L 97.141514 48.654347 
L 97.379968 48.880374 
L 97.890941 49.057795 
L 98.16346 49.056073 
L 98.470044 49.201361 
L 98.708498 49.500653 
L 98.878822 49.442791 
L 99.083212 49.12375 
L 99.389795 48.647078 
L 99.594185 48.277586 
L 100.071093 46.595446 
L 100.68426 44.414974 
L 101.229298 43.297397 
L 101.297428 43.344842 
L 101.433687 43.255315 
L 101.706206 43.210109 
L 101.808401 43.130039 
L 102.217179 42.750466 
L 102.455633 42.813051 
L 102.728152 43.286327 
L 103.40945 44.993337 
L 103.818228 46.155604 
L 104.124812 46.372432 
L 104.60172 46.398646 
L 104.840174 46.509856 
L 104.976434 46.326227 
L 105.317082 45.93531 
L 105.487407 45.897313 
L 105.623666 46.198073 
L 105.828055 46.611377 
L 106.100574 46.570233 
L 106.577483 47.150405 
L 106.611547 47.12089 
L 106.815937 46.692244 
L 107.054391 46.396603 
L 107.19065 46.427774 
L 107.360975 46.836227 
L 108.008207 48.828603 
L 108.246661 48.968067 
L 108.996088 50.461744 
L 110.018034 53.720163 
L 110.733397 55.2534 
L 111.142175 55.896762 
L 111.380629 55.857226 
L 111.516889 55.643288 
L 111.721278 54.88868 
L 112.164121 53.213501 
L 112.402575 52.840459 
L 112.572899 52.892487 
L 112.845418 52.974428 
L 112.947613 53.086594 
L 113.117937 53.595257 
L 113.390456 54.52962 
L 114.105819 56.438419 
L 114.412402 56.789396 
L 115.02557 56.369386 
L 115.502478 56.284451 
L 116.183776 55.411694 
L 116.3541 55.483012 
L 116.865073 56.180792 
L 117.069462 56.848833 
L 117.512305 58.207061 
L 117.750759 58.400218 
L 118.091408 58.329975 
L 118.261732 57.937771 
L 118.636446 57.08242 
L 118.94303 56.817928 
L 119.079289 56.916027 
L 119.385873 57.619334 
L 119.658392 58.10441 
L 119.828716 58.620852 
L 120.169365 59.909328 
L 120.237495 59.861154 
L 120.475949 59.648538 
L 121.020987 60.045703 
L 121.191311 59.759315 
L 121.940738 57.857039 
L 122.076998 57.942452 
L 122.247322 58.333691 
L 122.553906 58.934118 
L 122.79236 59.124917 
L 123.303333 60.009778 
L 123.678047 60.575926 
L 123.814306 60.647679 
L 124.05276 61.078986 
L 124.257149 61.730543 
L 125.279095 66.013478 
L 125.721939 66.819815 
L 126.130717 67.101233 
L 126.266977 66.981794 
L 126.505431 66.400512 
L 126.982339 65.19447 
L 127.118598 65.138227 
L 127.765831 65.609642 
L 128.03835 65.543535 
L 128.413063 66.333948 
L 128.753712 67.192116 
L 129.196555 66.172293 
L 129.469074 64.557353 
L 130.150372 59.883562 
L 130.865734 57.651767 
L 131.070123 57.576876 
L 131.410772 57.621193 
L 131.615161 57.510697 
L 131.81955 57.823265 
L 132.092069 58.145714 
L 132.466783 58.299347 
L 132.568977 58.195733 
L 132.773366 57.839069 
L 132.977756 57.874416 
L 133.182145 58.100239 
L 133.488729 58.829688 
L 133.795313 60.003339 
L 134.306286 61.820925 
L 134.680999 62.195788 
L 134.817259 62.380932 
L 135.123842 63.362291 
L 135.73701 66.02253 
L 135.771075 66.00773 
L 136.043594 65.613257 
L 136.520502 64.687609 
L 136.656761 64.80183 
L 136.895216 65.096831 
L 137.235864 65.469708 
L 137.610578 66.123685 
L 137.951227 67.020842 
L 138.4622 68.927843 
L 139.177562 71.320883 
L 139.450081 71.698444 
L 139.824794 72.318006 
L 140.233573 73.976002 
L 140.472027 74.646067 
L 140.642351 74.689033 
L 140.91487 74.693605 
L 141.085194 74.529446 
L 141.630232 72.929584 
L 142.039011 71.527359 
L 142.073076 71.5384 
L 142.209335 71.346438 
L 142.515919 70.323539 
L 142.924697 69.191797 
L 143.095022 69.279194 
L 143.43567 69.59913 
L 143.742254 70.013562 
L 143.878514 70.253293 
L 144.219162 70.770487 
L 144.457616 70.902635 
L 144.662006 70.596947 
L 144.866395 69.92342 
L 145.207044 68.884048 
L 145.513627 68.633618 
L 145.683952 68.335623 
L 146.22899 67.258276 
L 146.603703 66.67554 
L 147.046546 65.777131 
L 147.285 66.019065 
L 147.659714 66.855617 
L 148.238817 68.77168 
L 148.443206 68.897036 
L 148.579465 68.977669 
L 149.158568 71.163468 
L 149.737671 72.964919 
L 149.907995 72.979687 
L 150.07832 72.681422 
L 150.453033 71.9765 
L 150.793682 71.426046 
L 150.827747 71.44951 
L 150.998071 71.610571 
L 151.474979 72.057086 
L 151.611239 72.09983 
L 151.781563 72.368486 
L 152.224406 73.976435 
L 152.803509 76.217504 
L 153.621066 78.505785 
L 154.132039 80.470607 
L 154.608947 80.385727 
L 155.699023 82.458759 
L 155.835282 82.348421 
L 156.107801 81.666589 
L 156.720969 79.788356 
L 156.925358 79.836048 
L 157.061618 80.109056 
L 157.334137 81.343973 
L 157.811045 83.088265 
L 157.913239 83.202868 
L 157.981369 83.146358 
L 158.356083 82.634821 
L 158.526407 82.189494 
L 159.071445 80.362403 
L 159.446159 79.153277 
L 159.820872 78.114395 
L 160.093391 77.855044 
L 160.229651 77.868163 
L 160.536234 78.589843 
L 160.774688 79.14876 
L 160.945013 79.167392 
L 161.081272 78.935949 
L 161.524116 77.928971 
L 161.62631 77.755273 
L 162.035089 77.12495 
L 162.409802 77.173967 
L 162.818581 76.566599 
L 163.193294 75.997787 
L 163.329554 76.103874 
L 163.499878 76.462572 
L 164.113046 79.29389 
L 164.658083 81.410417 
L 165.305316 82.067709 
L 165.577835 82.926202 
L 166.156938 84.73244 
L 166.80417 85.607951 
L 167.144819 86.20551 
L 167.757986 85.675286 
L 167.996441 85.431883 
L 168.439284 85.595957 
L 169.188711 86.20129 
L 170.074398 88.447839 
L 170.585371 89.029078 
L 170.72163 88.98567 
L 170.891954 88.548196 
L 171.607317 86.262884 
L 171.777641 86.203578 
L 172.527068 86.652919 
L 172.969911 87.899424 
L 173.549014 90.182947 
L 173.787468 90.54091 
L 174.162182 90.770593 
L 174.468766 91.391722 
L 175.047868 92.970271 
L 175.286322 93.108394 
L 175.490712 93.178736 
L 175.797295 93.87729 
L 176.03575 94.146459 
L 176.444528 94.025175 
L 176.785177 94.159028 
L 177.057696 93.905848 
L 177.29615 93.909482 
L 177.738993 94.268299 
L 178.079642 94.950137 
L 178.760939 96.811919 
L 178.999393 96.776978 
L 179.340042 96.604925 
L 179.510366 96.664163 
L 179.782885 96.806885 
L 180.021339 97.004434 
L 180.327923 97.500309 
L 180.838896 98.344625 
L 181.179545 98.782827 
L 181.928972 100.640797 
L 182.33775 101.832148 
L 182.950918 103.303827 
L 183.359696 104.840157 
L 183.700345 105.821117 
L 184.654161 107.669337 
L 185.437653 109.826799 
L 186.153015 110.989014 
L 187.174962 113.930173 
L 187.719999 114.88347 
L 187.924389 115.174536 
L 188.878205 117.003219 
L 189.218854 117.680531 
L 190.10454 120.027034 
L 190.922097 122.190672 
L 192.012173 123.870279 
L 192.591276 125.948164 
L 192.965989 126.949508 
L 193.613222 127.76108 
L 194.022 127.904724 
L 194.601103 128.023663 
L 194.873622 128.277341 
L 195.214271 128.895938 
L 195.623049 130.127311 
L 196.883449 134.397254 
L 197.326292 135.080041 
L 198.416368 138.355256 
L 199.097666 140.165987 
L 199.472379 140.569091 
L 199.847093 140.677216 
L 200.187741 140.528335 
L 200.562455 140.407511 
L 200.800909 140.586085 
L 201.107493 141.191661 
L 202.163504 143.585917 
L 202.504152 143.794983 
L 203.151385 143.867991 
L 203.662358 143.983899 
L 204.105201 144.352878 
L 204.479915 144.577755 
L 204.786499 144.496951 
L 205.604055 144.130484 
L 205.910639 144.341591 
L 207.205104 145.608879 
L 208.738023 146.254124 
L 210.339072 146.304236 
L 210.95224 146.720879 
L 211.565407 147.076288 
L 211.940121 147.044355 
L 212.382964 146.751497 
L 213.336781 146.058823 
L 213.745559 146.043964 
L 214.324662 146.292273 
L 214.971894 146.489768 
L 215.516932 146.392707 
L 216.504813 146.170976 
L 218.003668 146.117698 
L 219.195938 145.886941 
L 221.001376 145.868916 
L 224.339733 145.333405 
L 225.702328 145.202261 
L 227.337442 144.660085 
L 228.972555 144.737458 
L 230.675799 144.131657 
L 232.276847 144.111783 
L 234.150415 143.748314 
L 237.488772 143.139796 
L 238.953562 142.833202 
L 240.452416 142.64043 
L 241.95127 142.334695 
L 243.34793 142.107524 
L 244.642395 141.875313 
L 246.107184 141.685317 
L 247.640103 141.388297 
L 249.138957 141.192735 
L 250.876266 140.871436 
L 252.579509 140.562476 
L 258.506796 139.625018 
L 262.79897 138.964642 
L 265.456029 138.549936 
L 289.165178 135.132194 
L 296.829773 134.16184 
L 315.940165 131.99631 
L 338.048264 129.925527 
L 358.180602 128.400485 
L 377.154733 127.224453 
L 397.218941 126.224524 
L 411.969029 125.615716 
L 411.969029 125.615716 
" clip-path="url(#p666d976abc)" style="fill: none; stroke: #0000ff; stroke-width: 2; stroke-linecap: square"/>
   </g>
   <g id="patch_3">
    <path d="M 54.323678 153.232572 
L 54.323678 18.118365 
" style="fill: none; stroke: #000000; stroke-width: 0.8; stroke-linejoin: miter; stroke-linecap: square"/>
   </g>
   <g id="patch_4">
    <path d="M 428.99976 153.232572 
L 428.99976 18.118365 
" style="fill: none; stroke: #000000; stroke-width: 0.8; stroke-linejoin: miter; stroke-linecap: square"/>
   </g>
   <g id="patch_5">
    <path d="M 54.323678 153.232572 
L 428.99976 153.232572 
" style="fill: none; stroke: #000000; stroke-width: 0.8; stroke-linejoin: miter; stroke-linecap: square"/>
   </g>
   <g id="patch_6">
    <path d="M 54.323678 18.118365 
L 428.99976 18.118365 
" style="fill: none; stroke: #000000; stroke-width: 0.8; stroke-linejoin: miter; stroke-linecap: square"/>
   </g>
   <g id="text_6">
    <!-- Mean velocity component v_x over time -->
    <g transform="translate(107.386406 12.118365) scale(0.12 -0.12)">
     <defs>
      <path id="DejaVuSans-Bold-4d" d="M 588 4666 
L 2119 4666 
L 3181 2169 
L 4250 4666 
L 5778 4666 
L 5778 0 
L 4641 0 
L 4641 3413 
L 3566 897 
L 2803 897 
L 1728 3413 
L 1728 0 
L 588 0 
L 588 4666 
z
" transform="scale(0.015625)"/>
      <path id="DejaVuSans-Bold-65" d="M 4031 1759 
L 4031 1441 
L 1416 1441 
Q 1456 1047 1700 850 
Q 1944 653 2381 653 
Q 2734 653 3104 758 
Q 3475 863 3866 1075 
L 3866 213 
Q 3469 63 3072 -14 
Q 2675 -91 2278 -91 
Q 1328 -91 801 392 
Q 275 875 275 1747 
Q 275 2603 792 3093 
Q 1309 3584 2216 3584 
Q 3041 3584 3536 3087 
Q 4031 2591 4031 1759 
z
M 2881 2131 
Q 2881 2450 2695 2645 
Q 2509 2841 2209 2841 
Q 1884 2841 1681 2658 
Q 1478 2475 1428 2131 
L 2881 2131 
z
" transform="scale(0.015625)"/>
      <path id="DejaVuSans-Bold-61" d="M 2106 1575 
Q 1756 1575 1579 1456 
Q 1403 1338 1403 1106 
Q 1403 894 1545 773 
Q 1688 653 1941 653 
Q 2256 653 2472 879 
Q 2688 1106 2688 1447 
L 2688 1575 
L 2106 1575 
z
M 3816 1997 
L 3816 0 
L 2688 0 
L 2688 519 
Q 2463 200 2181 54 
Q 1900 -91 1497 -91 
Q 953 -91 614 226 
Q 275 544 275 1050 
Q 275 1666 698 1953 
Q 1122 2241 2028 2241 
L 2688 2241 
L 2688 2328 
Q 2688 2594 2478 2717 
Q 2269 2841 1825 2841 
Q 1466 2841 1156 2769 
Q 847 2697 581 2553 
L 581 3406 
Q 941 3494 1303 3539 
Q 1666 3584 2028 3584 
Q 2975 3584 3395 3211 
Q 3816 2838 3816 1997 
z
" transform="scale(0.015625)"/>
      <path id="DejaVuSans-Bold-6e" d="M 4056 2131 
L 4056 0 
L 2931 0 
L 2931 347 
L 2931 1631 
Q 2931 2084 2911 2256 
Q 2891 2428 2841 2509 
Q 2775 2619 2662 2680 
Q 2550 2741 2406 2741 
Q 2056 2741 1856 2470 
Q 1656 2200 1656 1722 
L 1656 0 
L 538 0 
L 538 3500 
L 1656 3500 
L 1656 2988 
Q 1909 3294 2193 3439 
Q 2478 3584 2822 3584 
Q 3428 3584 3742 3212 
Q 4056 2841 4056 2131 
z
" transform="scale(0.015625)"/>
      <path id="DejaVuSans-Bold-20" transform="scale(0.015625)"/>
      <path id="DejaVuSans-Bold-76" d="M 97 3500 
L 1216 3500 
L 2088 1081 
L 2956 3500 
L 4078 3500 
L 2700 0 
L 1472 0 
L 97 3500 
z
" transform="scale(0.015625)"/>
      <path id="DejaVuSans-Bold-6c" d="M 538 4863 
L 1656 4863 
L 1656 0 
L 538 0 
L 538 4863 
z
" transform="scale(0.015625)"/>
      <path id="DejaVuSans-Bold-6f" d="M 2203 2784 
Q 1831 2784 1636 2517 
Q 1441 2250 1441 1747 
Q 1441 1244 1636 976 
Q 1831 709 2203 709 
Q 2569 709 2762 976 
Q 2956 1244 2956 1747 
Q 2956 2250 2762 2517 
Q 2569 2784 2203 2784 
z
M 2203 3584 
Q 3106 3584 3614 3096 
Q 4122 2609 4122 1747 
Q 4122 884 3614 396 
Q 3106 -91 2203 -91 
Q 1297 -91 786 396 
Q 275 884 275 1747 
Q 275 2609 786 3096 
Q 1297 3584 2203 3584 
z
" transform="scale(0.015625)"/>
      <path id="DejaVuSans-Bold-63" d="M 3366 3391 
L 3366 2478 
Q 3138 2634 2908 2709 
Q 2678 2784 2431 2784 
Q 1963 2784 1702 2511 
Q 1441 2238 1441 1747 
Q 1441 1256 1702 982 
Q 1963 709 2431 709 
Q 2694 709 2930 787 
Q 3166 866 3366 1019 
L 3366 103 
Q 3103 6 2833 -42 
Q 2563 -91 2291 -91 
Q 1344 -91 809 395 
Q 275 881 275 1747 
Q 275 2613 809 3098 
Q 1344 3584 2291 3584 
Q 2566 3584 2833 3536 
Q 3100 3488 3366 3391 
z
" transform="scale(0.015625)"/>
      <path id="DejaVuSans-Bold-69" d="M 538 3500 
L 1656 3500 
L 1656 0 
L 538 0 
L 538 3500 
z
M 538 4863 
L 1656 4863 
L 1656 3950 
L 538 3950 
L 538 4863 
z
" transform="scale(0.015625)"/>
      <path id="DejaVuSans-Bold-74" d="M 1759 4494 
L 1759 3500 
L 2913 3500 
L 2913 2700 
L 1759 2700 
L 1759 1216 
Q 1759 972 1856 886 
Q 1953 800 2241 800 
L 2816 800 
L 2816 0 
L 1856 0 
Q 1194 0 917 276 
Q 641 553 641 1216 
L 641 2700 
L 84 2700 
L 84 3500 
L 641 3500 
L 641 4494 
L 1759 4494 
z
" transform="scale(0.015625)"/>
      <path id="DejaVuSans-Bold-79" d="M 78 3500 
L 1197 3500 
L 2138 1125 
L 2938 3500 
L 4056 3500 
L 2584 -331 
Q 2363 -916 2067 -1148 
Q 1772 -1381 1288 -1381 
L 641 -1381 
L 641 -647 
L 991 -647 
Q 1275 -647 1404 -556 
Q 1534 -466 1606 -231 
L 1638 -134 
L 78 3500 
z
" transform="scale(0.015625)"/>
      <path id="DejaVuSans-Bold-6d" d="M 3781 2919 
Q 3994 3244 4286 3414 
Q 4578 3584 4928 3584 
Q 5531 3584 5847 3212 
Q 6163 2841 6163 2131 
L 6163 0 
L 5038 0 
L 5038 1825 
Q 5041 1866 5042 1909 
Q 5044 1953 5044 2034 
Q 5044 2406 4934 2573 
Q 4825 2741 4581 2741 
Q 4263 2741 4089 2478 
Q 3916 2216 3909 1719 
L 3909 0 
L 2784 0 
L 2784 1825 
Q 2784 2406 2684 2573 
Q 2584 2741 2328 2741 
Q 2006 2741 1831 2477 
Q 1656 2213 1656 1722 
L 1656 0 
L 531 0 
L 531 3500 
L 1656 3500 
L 1656 2988 
Q 1863 3284 2130 3434 
Q 2397 3584 2719 3584 
Q 3081 3584 3359 3409 
Q 3638 3234 3781 2919 
z
" transform="scale(0.015625)"/>
      <path id="DejaVuSans-Bold-70" d="M 1656 506 
L 1656 -1331 
L 538 -1331 
L 538 3500 
L 1656 3500 
L 1656 2988 
Q 1888 3294 2169 3439 
Q 2450 3584 2816 3584 
Q 3463 3584 3878 3070 
Q 4294 2556 4294 1747 
Q 4294 938 3878 423 
Q 3463 -91 2816 -91 
Q 2450 -91 2169 54 
Q 1888 200 1656 506 
z
M 2400 2772 
Q 2041 2772 1848 2508 
Q 1656 2244 1656 1747 
Q 1656 1250 1848 986 
Q 2041 722 2400 722 
Q 2759 722 2948 984 
Q 3138 1247 3138 1747 
Q 3138 2247 2948 2509 
Q 2759 2772 2400 2772 
z
" transform="scale(0.015625)"/>
      <path id="DejaVuSans-Bold-5f" d="M 3200 -916 
L 3200 -1509 
L 0 -1509 
L 0 -916 
L 3200 -916 
z
" transform="scale(0.015625)"/>
      <path id="DejaVuSans-Bold-78" d="M 1422 1791 
L 159 3500 
L 1344 3500 
L 2059 2463 
L 2784 3500 
L 3969 3500 
L 2706 1797 
L 4031 0 
L 2847 0 
L 2059 1106 
L 1281 0 
L 97 0 
L 1422 1791 
z
" transform="scale(0.015625)"/>
      <path id="DejaVuSans-Bold-72" d="M 3138 2547 
Q 2991 2616 2845 2648 
Q 2700 2681 2553 2681 
Q 2122 2681 1889 2404 
Q 1656 2128 1656 1613 
L 1656 0 
L 538 0 
L 538 3500 
L 1656 3500 
L 1656 2925 
Q 1872 3269 2151 3426 
Q 2431 3584 2822 3584 
Q 2878 3584 2943 3579 
Q 3009 3575 3134 3559 
L 3138 2547 
z
" transform="scale(0.015625)"/>
     </defs>
     <use xlink:href="#DejaVuSans-Bold-4d"/>
     <use xlink:href="#DejaVuSans-Bold-65" transform="translate(99.511719 0)"/>
     <use xlink:href="#DejaVuSans-Bold-61" transform="translate(167.333984 0)"/>
     <use xlink:href="#DejaVuSans-Bold-6e" transform="translate(234.814453 0)"/>
     <use xlink:href="#DejaVuSans-Bold-20" transform="translate(306.005859 0)"/>
     <use xlink:href="#DejaVuSans-Bold-76" transform="translate(340.820312 0)"/>
     <use xlink:href="#DejaVuSans-Bold-65" transform="translate(406.005859 0)"/>
     <use xlink:href="#DejaVuSans-Bold-6c" transform="translate(473.828125 0)"/>
     <use xlink:href="#DejaVuSans-Bold-6f" transform="translate(508.105469 0)"/>
     <use xlink:href="#DejaVuSans-Bold-63" transform="translate(576.806641 0)"/>
     <use xlink:href="#DejaVuSans-Bold-69" transform="translate(636.083984 0)"/>
     <use xlink:href="#DejaVuSans-Bold-74" transform="translate(670.361328 0)"/>
     <use xlink:href="#DejaVuSans-Bold-79" transform="translate(718.164062 0)"/>
     <use xlink:href="#DejaVuSans-Bold-20" transform="translate(783.349609 0)"/>
     <use xlink:href="#DejaVuSans-Bold-63" transform="translate(818.164062 0)"/>
     <use xlink:href="#DejaVuSans-Bold-6f" transform="translate(877.441406 0)"/>
     <use xlink:href="#DejaVuSans-Bold-6d" transform="translate(946.142578 0)"/>
     <use xlink:href="#DejaVuSans-Bold-70" transform="translate(1050.341797 0)"/>
     <use xlink:href="#DejaVuSans-Bold-6f" transform="translate(1121.923828 0)"/>
     <use xlink:href="#DejaVuSans-Bold-6e" transform="translate(1190.625 0)"/>
     <use xlink:href="#DejaVuSans-Bold-65" transform="translate(1261.816406 0)"/>
     <use xlink:href="#DejaVuSans-Bold-6e" transform="translate(1329.638672 0)"/>
     <use xlink:href="#DejaVuSans-Bold-74" transform="translate(1400.830078 0)"/>
     <use xlink:href="#DejaVuSans-Bold-20" transform="translate(1448.632812 0)"/>
     <use xlink:href="#DejaVuSans-Bold-76" transform="translate(1483.447266 0)"/>
     <use xlink:href="#DejaVuSans-Bold-5f" transform="translate(1548.632812 0)"/>
     <use xlink:href="#DejaVuSans-Bold-78" transform="translate(1598.632812 0)"/>
     <use xlink:href="#DejaVuSans-Bold-20" transform="translate(1663.134766 0)"/>
     <use xlink:href="#DejaVuSans-Bold-6f" transform="translate(1697.949219 0)"/>
     <use xlink:href="#DejaVuSans-Bold-76" transform="translate(1766.650391 0)"/>
     <use xlink:href="#DejaVuSans-Bold-65" transform="translate(1831.835938 0)"/>
     <use xlink:href="#DejaVuSans-Bold-72" transform="translate(1899.658203 0)"/>
     <use xlink:href="#DejaVuSans-Bold-20" transform="translate(1948.974609 0)"/>
     <use xlink:href="#DejaVuSans-Bold-74" transform="translate(1983.789062 0)"/>
     <use xlink:href="#DejaVuSans-Bold-69" transform="translate(2031.591797 0)"/>
     <use xlink:href="#DejaVuSans-Bold-6d" transform="translate(2065.869141 0)"/>
     <use xlink:href="#DejaVuSans-Bold-65" transform="translate(2170.068359 0)"/>
    </g>
   </g>
  </g>
  <g id="axes_2">
   <g id="patch_7">
    <path d="M 54.323678 326.64351 
L 428.99976 326.64351 
L 428.99976 191.529302 
L 54.323678 191.529302 
z
" style="fill: #ffffff"/>
   </g>
   <g id="matplotlib.axis_3">
    <g id="xtick_7">
     <g id="line2d_20">
      <path d="M 71.354409 326.64351 
L 71.354409 191.529302 
" clip-path="url(#pe793aba39d)" style="fill: none; stroke: #b0b0b0; stroke-width: 0.8; stroke-linecap: square"/>
     </g>
     <g id="line2d_21">
      <g>
       <use xlink:href="#m78e237e864" x="71.354409" y="326.64351" style="stroke: #000000; stroke-width: 0.8"/>
      </g>
     </g>
     <g id="text_7">
      <!-- 0 -->
      <g transform="translate(68.173159 341.241947) scale(0.1 -0.1)">
       <use xlink:href="#DejaVuSans-30"/>
      </g>
     </g>
    </g>
    <g id="xtick_8">
     <g id="line2d_22">
      <path d="M 139.484146 326.64351 
L 139.484146 191.529302 
" clip-path="url(#pe793aba39d)" style="fill: none; stroke: #b0b0b0; stroke-width: 0.8; stroke-linecap: square"/>
     </g>
     <g id="line2d_23">
      <g>
       <use xlink:href="#m78e237e864" x="139.484146" y="326.64351" style="stroke: #000000; stroke-width: 0.8"/>
      </g>
     </g>
     <g id="text_8">
      <!-- 2000 -->
      <g transform="translate(126.759146 341.241947) scale(0.1 -0.1)">
       <defs>
        <path id="DejaVuSans-32" d="M 1228 531 
L 3431 531 
L 3431 0 
L 469 0 
L 469 531 
Q 828 903 1448 1529 
Q 2069 2156 2228 2338 
Q 2531 2678 2651 2914 
Q 2772 3150 2772 3378 
Q 2772 3750 2511 3984 
Q 2250 4219 1831 4219 
Q 1534 4219 1204 4116 
Q 875 4013 500 3803 
L 500 4441 
Q 881 4594 1212 4672 
Q 1544 4750 1819 4750 
Q 2544 4750 2975 4387 
Q 3406 4025 3406 3419 
Q 3406 3131 3298 2873 
Q 3191 2616 2906 2266 
Q 2828 2175 2409 1742 
Q 1991 1309 1228 531 
z
" transform="scale(0.015625)"/>
       </defs>
       <use xlink:href="#DejaVuSans-32"/>
       <use xlink:href="#DejaVuSans-30" transform="translate(63.623047 0)"/>
       <use xlink:href="#DejaVuSans-30" transform="translate(127.246094 0)"/>
       <use xlink:href="#DejaVuSans-30" transform="translate(190.869141 0)"/>
      </g>
     </g>
    </g>
    <g id="xtick_9">
     <g id="line2d_24">
      <path d="M 207.613883 326.64351 
L 207.613883 191.529302 
" clip-path="url(#pe793aba39d)" style="fill: none; stroke: #b0b0b0; stroke-width: 0.8; stroke-linecap: square"/>
     </g>
     <g id="line2d_25">
      <g>
       <use xlink:href="#m78e237e864" x="207.613883" y="326.64351" style="stroke: #000000; stroke-width: 0.8"/>
      </g>
     </g>
     <g id="text_9">
      <!-- 4000 -->
      <g transform="translate(194.888883 341.241947) scale(0.1 -0.1)">
       <defs>
        <path id="DejaVuSans-34" d="M 2419 4116 
L 825 1625 
L 2419 1625 
L 2419 4116 
z
M 2253 4666 
L 3047 4666 
L 3047 1625 
L 3713 1625 
L 3713 1100 
L 3047 1100 
L 3047 0 
L 2419 0 
L 2419 1100 
L 313 1100 
L 313 1709 
L 2253 4666 
z
" transform="scale(0.015625)"/>
       </defs>
       <use xlink:href="#DejaVuSans-34"/>
       <use xlink:href="#DejaVuSans-30" transform="translate(63.623047 0)"/>
       <use xlink:href="#DejaVuSans-30" transform="translate(127.246094 0)"/>
       <use xlink:href="#DejaVuSans-30" transform="translate(190.869141 0)"/>
      </g>
     </g>
    </g>
    <g id="xtick_10">
     <g id="line2d_26">
      <path d="M 275.74362 326.64351 
L 275.74362 191.529302 
" clip-path="url(#pe793aba39d)" style="fill: none; stroke: #b0b0b0; stroke-width: 0.8; stroke-linecap: square"/>
     </g>
     <g id="line2d_27">
      <g>
       <use xlink:href="#m78e237e864" x="275.74362" y="326.64351" style="stroke: #000000; stroke-width: 0.8"/>
      </g>
     </g>
     <g id="text_10">
      <!-- 6000 -->
      <g transform="translate(263.01862 341.241947) scale(0.1 -0.1)">
       <defs>
        <path id="DejaVuSans-36" d="M 2113 2584 
Q 1688 2584 1439 2293 
Q 1191 2003 1191 1497 
Q 1191 994 1439 701 
Q 1688 409 2113 409 
Q 2538 409 2786 701 
Q 3034 994 3034 1497 
Q 3034 2003 2786 2293 
Q 2538 2584 2113 2584 
z
M 3366 4563 
L 3366 3988 
Q 3128 4100 2886 4159 
Q 2644 4219 2406 4219 
Q 1781 4219 1451 3797 
Q 1122 3375 1075 2522 
Q 1259 2794 1537 2939 
Q 1816 3084 2150 3084 
Q 2853 3084 3261 2657 
Q 3669 2231 3669 1497 
Q 3669 778 3244 343 
Q 2819 -91 2113 -91 
Q 1303 -91 875 529 
Q 447 1150 447 2328 
Q 447 3434 972 4092 
Q 1497 4750 2381 4750 
Q 2619 4750 2861 4703 
Q 3103 4656 3366 4563 
z
" transform="scale(0.015625)"/>
       </defs>
       <use xlink:href="#DejaVuSans-36"/>
       <use xlink:href="#DejaVuSans-30" transform="translate(63.623047 0)"/>
       <use xlink:href="#DejaVuSans-30" transform="translate(127.246094 0)"/>
       <use xlink:href="#DejaVuSans-30" transform="translate(190.869141 0)"/>
      </g>
     </g>
    </g>
    <g id="xtick_11">
     <g id="line2d_28">
      <path d="M 343.873357 326.64351 
L 343.873357 191.529302 
" clip-path="url(#pe793aba39d)" style="fill: none; stroke: #b0b0b0; stroke-width: 0.8; stroke-linecap: square"/>
     </g>
     <g id="line2d_29">
      <g>
       <use xlink:href="#m78e237e864" x="343.873357" y="326.64351" style="stroke: #000000; stroke-width: 0.8"/>
      </g>
     </g>
     <g id="text_11">
      <!-- 8000 -->
      <g transform="translate(331.148357 341.241947) scale(0.1 -0.1)">
       <defs>
        <path id="DejaVuSans-38" d="M 2034 2216 
Q 1584 2216 1326 1975 
Q 1069 1734 1069 1313 
Q 1069 891 1326 650 
Q 1584 409 2034 409 
Q 2484 409 2743 651 
Q 3003 894 3003 1313 
Q 3003 1734 2745 1975 
Q 2488 2216 2034 2216 
z
M 1403 2484 
Q 997 2584 770 2862 
Q 544 3141 544 3541 
Q 544 4100 942 4425 
Q 1341 4750 2034 4750 
Q 2731 4750 3128 4425 
Q 3525 4100 3525 3541 
Q 3525 3141 3298 2862 
Q 3072 2584 2669 2484 
Q 3125 2378 3379 2068 
Q 3634 1759 3634 1313 
Q 3634 634 3220 271 
Q 2806 -91 2034 -91 
Q 1263 -91 848 271 
Q 434 634 434 1313 
Q 434 1759 690 2068 
Q 947 2378 1403 2484 
z
M 1172 3481 
Q 1172 3119 1398 2916 
Q 1625 2713 2034 2713 
Q 2441 2713 2670 2916 
Q 2900 3119 2900 3481 
Q 2900 3844 2670 4047 
Q 2441 4250 2034 4250 
Q 1625 4250 1398 4047 
Q 1172 3844 1172 3481 
z
" transform="scale(0.015625)"/>
       </defs>
       <use xlink:href="#DejaVuSans-38"/>
       <use xlink:href="#DejaVuSans-30" transform="translate(63.623047 0)"/>
       <use xlink:href="#DejaVuSans-30" transform="translate(127.246094 0)"/>
       <use xlink:href="#DejaVuSans-30" transform="translate(190.869141 0)"/>
      </g>
     </g>
    </g>
    <g id="xtick_12">
     <g id="line2d_30">
      <path d="M 412.003094 326.64351 
L 412.003094 191.529302 
" clip-path="url(#pe793aba39d)" style="fill: none; stroke: #b0b0b0; stroke-width: 0.8; stroke-linecap: square"/>
     </g>
     <g id="line2d_31">
      <g>
       <use xlink:href="#m78e237e864" x="412.003094" y="326.64351" style="stroke: #000000; stroke-width: 0.8"/>
      </g>
     </g>
     <g id="text_12">
      <!-- 10000 -->
      <g transform="translate(396.096844 341.241947) scale(0.1 -0.1)">
       <use xlink:href="#DejaVuSans-31"/>
       <use xlink:href="#DejaVuSans-30" transform="translate(63.623047 0)"/>
       <use xlink:href="#DejaVuSans-30" transform="translate(127.246094 0)"/>
       <use xlink:href="#DejaVuSans-30" transform="translate(190.869141 0)"/>
       <use xlink:href="#DejaVuSans-30" transform="translate(254.492188 0)"/>
      </g>
     </g>
    </g>
    <g id="text_13">
     <!-- timestep -->
     <g transform="translate(219.55 354.920073) scale(0.1 -0.1)">
      <use xlink:href="#DejaVuSans-74"/>
      <use xlink:href="#DejaVuSans-69" transform="translate(39.208984 0)"/>
      <use xlink:href="#DejaVuSans-6d" transform="translate(66.992188 0)"/>
      <use xlink:href="#DejaVuSans-65" transform="translate(164.404297 0)"/>
      <use xlink:href="#DejaVuSans-73" transform="translate(225.927734 0)"/>
      <use xlink:href="#DejaVuSans-74" transform="translate(278.027344 0)"/>
      <use xlink:href="#DejaVuSans-65" transform="translate(317.236328 0)"/>
      <use xlink:href="#DejaVuSans-70" transform="translate(378.759766 0)"/>
     </g>
    </g>
   </g>
   <g id="matplotlib.axis_4">
    <g id="ytick_4">
     <g id="line2d_32">
      <path d="M 54.323678 325.523951 
L 428.99976 325.523951 
" clip-path="url(#pe793aba39d)" style="fill: none; stroke: #b0b0b0; stroke-width: 0.8; stroke-linecap: square"/>
     </g>
     <g id="line2d_33">
      <g>
       <use xlink:href="#m9ce6764852" x="54.323678" y="325.523951" style="stroke: #000000; stroke-width: 0.8"/>
      </g>
     </g>
     <g id="text_14">
      <!-- −1.00 -->
      <g transform="translate(16.678365 329.323169) scale(0.1 -0.1)">
       <use xlink:href="#DejaVuSans-2212"/>
       <use xlink:href="#DejaVuSans-31" transform="translate(83.789062 0)"/>
       <use xlink:href="#DejaVuSans-2e" transform="translate(147.412109 0)"/>
       <use xlink:href="#DejaVuSans-30" transform="translate(179.199219 0)"/>
       <use xlink:href="#DejaVuSans-30" transform="translate(242.822266 0)"/>
      </g>
     </g>
    </g>
    <g id="ytick_5">
     <g id="line2d_34">
      <path d="M 54.323678 299.334857 
L 428.99976 299.334857 
" clip-path="url(#pe793aba39d)" style="fill: none; stroke: #b0b0b0; stroke-width: 0.8; stroke-linecap: square"/>
     </g>
     <g id="line2d_35">
      <g>
       <use xlink:href="#m9ce6764852" x="54.323678" y="299.334857" style="stroke: #000000; stroke-width: 0.8"/>
      </g>
     </g>
     <g id="text_15">
      <!-- −0.75 -->
      <g transform="translate(16.678365 303.134076) scale(0.1 -0.1)">
       <defs>
        <path id="DejaVuSans-37" d="M 525 4666 
L 3525 4666 
L 3525 4397 
L 1831 0 
L 1172 0 
L 2766 4134 
L 525 4134 
L 525 4666 
z
" transform="scale(0.015625)"/>
       </defs>
       <use xlink:href="#DejaVuSans-2212"/>
       <use xlink:href="#DejaVuSans-30" transform="translate(83.789062 0)"/>
       <use xlink:href="#DejaVuSans-2e" transform="translate(147.412109 0)"/>
       <use xlink:href="#DejaVuSans-37" transform="translate(179.199219 0)"/>
       <use xlink:href="#DejaVuSans-35" transform="translate(242.822266 0)"/>
      </g>
     </g>
    </g>
    <g id="ytick_6">
     <g id="line2d_36">
      <path d="M 54.323678 273.145763 
L 428.99976 273.145763 
" clip-path="url(#pe793aba39d)" style="fill: none; stroke: #b0b0b0; stroke-width: 0.8; stroke-linecap: square"/>
     </g>
     <g id="line2d_37">
      <g>
       <use xlink:href="#m9ce6764852" x="54.323678" y="273.145763" style="stroke: #000000; stroke-width: 0.8"/>
      </g>
     </g>
     <g id="text_16">
      <!-- −0.50 -->
      <g transform="translate(16.678365 276.944982) scale(0.1 -0.1)">
       <use xlink:href="#DejaVuSans-2212"/>
       <use xlink:href="#DejaVuSans-30" transform="translate(83.789062 0)"/>
       <use xlink:href="#DejaVuSans-2e" transform="translate(147.412109 0)"/>
       <use xlink:href="#DejaVuSans-35" transform="translate(179.199219 0)"/>
       <use xlink:href="#DejaVuSans-30" transform="translate(242.822266 0)"/>
      </g>
     </g>
    </g>
    <g id="ytick_7">
     <g id="line2d_38">
      <path d="M 54.323678 246.956669 
L 428.99976 246.956669 
" clip-path="url(#pe793aba39d)" style="fill: none; stroke: #b0b0b0; stroke-width: 0.8; stroke-linecap: square"/>
     </g>
     <g id="line2d_39">
      <g>
       <use xlink:href="#m9ce6764852" x="54.323678" y="246.956669" style="stroke: #000000; stroke-width: 0.8"/>
      </g>
     </g>
     <g id="text_17">
      <!-- −0.25 -->
      <g transform="translate(16.678365 250.755888) scale(0.1 -0.1)">
       <use xlink:href="#DejaVuSans-2212"/>
       <use xlink:href="#DejaVuSans-30" transform="translate(83.789062 0)"/>
       <use xlink:href="#DejaVuSans-2e" transform="translate(147.412109 0)"/>
       <use xlink:href="#DejaVuSans-32" transform="translate(179.199219 0)"/>
       <use xlink:href="#DejaVuSans-35" transform="translate(242.822266 0)"/>
      </g>
     </g>
    </g>
    <g id="ytick_8">
     <g id="line2d_40">
      <path d="M 54.323678 220.767575 
L 428.99976 220.767575 
" clip-path="url(#pe793aba39d)" style="fill: none; stroke: #b0b0b0; stroke-width: 0.8; stroke-linecap: square"/>
     </g>
     <g id="line2d_41">
      <g>
       <use xlink:href="#m9ce6764852" x="54.323678" y="220.767575" style="stroke: #000000; stroke-width: 0.8"/>
      </g>
     </g>
     <g id="text_18">
      <!-- 0.00 -->
      <g transform="translate(25.058053 224.566794) scale(0.1 -0.1)">
       <use xlink:href="#DejaVuSans-30"/>
       <use xlink:href="#DejaVuSans-2e" transform="translate(63.623047 0)"/>
       <use xlink:href="#DejaVuSans-30" transform="translate(95.410156 0)"/>
       <use xlink:href="#DejaVuSans-30" transform="translate(159.033203 0)"/>
      </g>
     </g>
    </g>
    <g id="ytick_9">
     <g id="line2d_42">
      <path d="M 54.323678 194.578482 
L 428.99976 194.578482 
" clip-path="url(#pe793aba39d)" style="fill: none; stroke: #b0b0b0; stroke-width: 0.8; stroke-linecap: square"/>
     </g>
     <g id="line2d_43">
      <g>
       <use xlink:href="#m9ce6764852" x="54.323678" y="194.578482" style="stroke: #000000; stroke-width: 0.8"/>
      </g>
     </g>
     <g id="text_19">
      <!-- 0.25 -->
      <g transform="translate(25.058053 198.3777) scale(0.1 -0.1)">
       <use xlink:href="#DejaVuSans-30"/>
       <use xlink:href="#DejaVuSans-2e" transform="translate(63.623047 0)"/>
       <use xlink:href="#DejaVuSans-32" transform="translate(95.410156 0)"/>
       <use xlink:href="#DejaVuSans-35" transform="translate(159.033203 0)"/>
      </g>
     </g>
    </g>
    <g id="text_20">
     <!-- v_y -->
     <g transform="translate(10.320553 267.505156) rotate(-90) scale(0.1 -0.1)">
      <defs>
       <path id="DejaVuSans-79" d="M 2059 -325 
Q 1816 -950 1584 -1140 
Q 1353 -1331 966 -1331 
L 506 -1331 
L 506 -850 
L 844 -850 
Q 1081 -850 1212 -737 
Q 1344 -625 1503 -206 
L 1606 56 
L 191 3500 
L 800 3500 
L 1894 763 
L 2988 3500 
L 3597 3500 
L 2059 -325 
z
" transform="scale(0.015625)"/>
      </defs>
      <use xlink:href="#DejaVuSans-76"/>
      <use xlink:href="#DejaVuSans-5f" transform="translate(59.179688 0)"/>
      <use xlink:href="#DejaVuSans-79" transform="translate(109.179688 0)"/>
     </g>
    </g>
   </g>
   <g id="line2d_44">
    <path d="M 71.354409 216.691163 
L 72.035706 211.002816 
L 72.308225 210.188641 
L 72.410419 210.301016 
L 72.751068 210.910974 
L 72.989522 210.806071 
L 73.296106 210.161847 
L 73.398301 210.317206 
L 73.636755 211.308241 
L 74.011468 213.138847 
L 74.692766 214.004321 
L 75.305933 213.76907 
L 75.544387 213.552281 
L 75.680647 213.400399 
L 76.25975 211.675149 
L 76.668528 210.473017 
L 77.247631 209.441904 
L 78.269577 206.419544 
L 78.439901 206.744951 
L 78.746485 207.33256 
L 78.984939 207.17004 
L 79.155263 207.556254 
L 79.802496 208.99713 
L 80.075015 209.261141 
L 80.279404 209.176287 
L 80.415664 208.698761 
L 80.858507 205.626218 
L 81.36948 202.647141 
L 82.800204 199.46717 
L 83.106788 199.298511 
L 83.345242 198.510311 
L 83.685891 197.692494 
L 83.82215 197.723482 
L 83.992475 198.072865 
L 84.707837 199.99264 
L 85.389134 203.055176 
L 85.763848 204.921287 
L 86.274821 207.30549 
L 86.513275 207.867376 
L 87.058313 208.080231 
L 87.296767 207.909787 
L 87.501156 207.344194 
L 88.148389 205.097749 
L 88.727491 204.031976 
L 88.863751 203.975878 
L 89.06814 203.84607 
L 89.374724 202.915409 
L 89.987892 200.578859 
L 90.192281 200.531374 
L 90.430735 200.912838 
L 91.827395 203.029291 
L 91.997719 203.01844 
L 92.202108 203.546219 
L 92.91747 206.07522 
L 93.496573 208.131187 
L 94.484454 211.374533 
L 94.893233 212.034695 
L 95.131687 212.017479 
L 95.302011 212.011293 
L 95.847049 213.583142 
L 96.289892 216.5951 
L 96.937125 221.948144 
L 97.788747 225.809449 
L 98.504109 228.396335 
L 98.572238 228.328849 
L 98.844757 227.64942 
L 99.35573 225.370262 
L 100.002963 222.766017 
L 100.275482 222.137146 
L 100.650195 221.456986 
L 100.82052 221.440855 
L 100.956779 221.508459 
L 101.229298 222.355541 
L 101.638077 223.559901 
L 102.08092 223.434822 
L 102.353439 223.7655 
L 102.864412 224.985422 
L 103.27319 226.364831 
L 103.818228 229.242638 
L 104.192942 229.621244 
L 104.363266 229.681769 
L 104.635785 230.317059 
L 104.840174 231.519394 
L 105.146758 233.057398 
L 105.317082 233.23726 
L 105.589601 232.981691 
L 107.156585 229.098825 
L 107.224715 229.128371 
L 107.395039 229.045101 
L 107.565364 228.692467 
L 108.042272 227.46687 
L 108.723569 226.682275 
L 108.996088 226.335819 
L 109.302672 226.340098 
L 109.507061 226.254602 
L 109.609256 226.200465 
L 109.745515 226.169897 
L 109.91584 226.457393 
L 110.120229 227.322606 
L 110.392748 228.161648 
L 110.494942 228.137046 
L 110.665267 227.693303 
L 110.971851 226.874257 
L 111.278434 226.88977 
L 111.380629 227.184519 
L 111.993797 229.197636 
L 112.198186 229.10953 
L 112.606964 228.666951 
L 113.288262 225.718163 
L 113.62891 225.25647 
L 113.662975 225.293154 
L 113.969559 225.922694 
L 114.139883 226.400962 
L 114.514597 227.548463 
L 114.650856 227.835415 
L 114.684921 227.820238 
L 114.95744 227.754794 
L 115.229959 228.617693 
L 115.638738 229.958913 
L 116.456294 233.567623 
L 117.444176 236.367217 
L 117.648565 236.364801 
L 118.125473 235.447977 
L 118.193603 235.529127 
L 118.8749 236.709274 
L 119.147419 237.672738 
L 119.488068 238.866211 
L 119.999041 239.490184 
L 120.169365 239.500827 
L 120.305625 239.385645 
L 120.407819 239.269891 
L 120.441884 239.322533 
L 120.578144 239.563983 
L 121.702284 243.378279 
L 121.838544 243.248172 
L 121.974803 242.908333 
L 122.315452 240.956418 
L 122.894555 237.6285 
L 123.030814 237.706372 
L 123.575852 238.469699 
L 124.05276 239.477192 
L 124.427474 240.485766 
L 124.665928 241.051304 
L 124.938447 241.787141 
L 125.040641 241.654261 
L 125.347225 240.405217 
L 125.721939 237.766333 
L 126.70982 230.863284 
L 127.016404 229.848478 
L 127.186728 229.789492 
L 127.527377 229.93206 
L 127.731766 229.083019 
L 128.447128 225.443347 
L 128.753712 224.879739 
L 128.992166 225.308856 
L 129.196555 226.272287 
L 129.537204 227.603408 
L 129.843788 227.882654 
L 130.014112 228.015236 
L 130.218501 228.163353 
L 130.865734 228.599085 
L 131.138253 229.905265 
L 131.478901 232.603959 
L 132.126134 236.936939 
L 132.841496 241.163884 
L 133.352469 244.143243 
L 135.123842 253.849477 
L 135.226037 253.76266 
L 135.566686 253.12332 
L 135.839205 252.967803 
L 136.282048 251.956889 
L 136.656761 250.459721 
L 136.99741 249.263434 
L 137.542448 246.683991 
L 138.155616 243.44797 
L 138.530329 242.472226 
L 138.734718 241.865074 
L 139.688535 238.615833 
L 140.267638 236.921369 
L 140.369832 236.954945 
L 140.812675 238.007691 
L 140.91487 237.913228 
L 141.119259 237.509674 
L 141.425843 236.646157 
L 141.800557 234.907397 
L 142.17527 233.438078 
L 142.31153 233.302925 
L 142.345595 233.330676 
L 142.515919 233.725177 
L 143.401605 237.12859 
L 143.810384 238.998893 
L 143.980708 239.242748 
L 144.457616 239.315162 
L 145.036719 239.600981 
L 145.241108 239.529354 
L 145.445498 239.722903 
L 145.649887 240.54245 
L 145.956471 242.934171 
L 146.331184 245.569272 
L 146.535573 245.943328 
L 146.637768 245.836959 
L 146.774027 245.768246 
L 147.148741 245.755272 
L 147.285 245.469076 
L 148.238817 241.985783 
L 148.579465 242.269881 
L 148.61353 242.218044 
L 149.124503 241.651238 
L 149.158568 241.679184 
L 149.328893 241.826231 
L 149.465152 242.28778 
L 149.805801 243.588798 
L 149.94206 243.534375 
L 150.282709 243.164441 
L 150.521163 242.362899 
L 151.40685 239.050062 
L 152.156277 238.085447 
L 152.326601 238.346615 
L 152.53099 239.070175 
L 153.212288 241.865008 
L 153.825455 244.60725 
L 154.268299 246.389201 
L 154.574882 247.398404 
L 154.745207 247.729763 
L 154.813336 247.650936 
L 155.051791 246.870133 
L 156.005607 243.079981 
L 156.244061 243.514333 
L 156.686904 244.928231 
L 157.334137 246.450278 
L 157.402266 246.396751 
L 157.606656 245.88214 
L 157.947304 244.660338 
L 158.832991 240.555641 
L 159.003315 240.515871 
L 159.412094 240.794588 
L 160.43404 243.17151 
L 160.468105 243.15331 
L 160.979078 242.90908 
L 161.183467 242.331898 
L 161.592245 241.212381 
L 161.62631 241.245306 
L 161.966959 241.79789 
L 162.477932 242.720146 
L 162.614191 242.696625 
L 162.88671 242.68703 
L 163.057035 242.696223 
L 163.738332 242.138469 
L 164.21524 241.364207 
L 164.317435 241.240756 
L 164.487759 241.091833 
L 164.624019 241.195779 
L 164.896538 241.738353 
L 165.066862 242.500189 
L 165.645965 245.188198 
L 165.816289 245.050054 
L 166.054743 244.909622 
L 166.361327 245.126878 
L 166.633846 245.460929 
L 166.770105 245.599557 
L 167.826116 247.49728 
L 167.928311 247.42683 
L 168.20083 246.92029 
L 169.3931 243.037437 
L 169.699684 242.52131 
L 170.176592 241.427815 
L 170.85789 238.546951 
L 171.062279 238.63561 
L 171.539187 239.128074 
L 172.254549 241.198193 
L 173.174301 245.497648 
L 173.651209 247.665724 
L 173.991857 248.157619 
L 174.128117 248.400917 
L 174.366571 248.802368 
L 174.979739 248.380143 
L 175.456647 247.126375 
L 175.695101 246.743246 
L 175.933555 246.597933 
L 176.137944 246.368195 
L 176.376398 246.277507 
L 176.785177 245.175982 
L 176.887371 245.2982 
L 177.29615 245.892082 
L 177.636798 245.996586 
L 177.943382 246.346334 
L 178.113707 246.295806 
L 178.318096 245.792402 
L 178.726874 244.11262 
L 179.476301 240.059094 
L 179.782885 239.5242 
L 180.021339 239.482068 
L 180.191663 239.418784 
L 180.361988 239.162154 
L 180.634507 238.148105 
L 180.975155 236.780233 
L 181.043285 236.811718 
L 181.281739 237.56094 
L 182.371815 240.826807 
L 183.291567 242.093814 
L 183.904734 243.651833 
L 184.109123 243.557915 
L 184.415707 243.165333 
L 184.586032 242.607682 
L 184.99481 240.050904 
L 185.642042 236.355631 
L 186.221145 235.129562 
L 186.357405 235.07841 
L 186.493664 235.33318 
L 186.732118 236.444415 
L 187.51561 240.789424 
L 187.65187 240.939107 
L 187.856259 240.678316 
L 188.094713 240.526115 
L 188.265037 240.714974 
L 188.605686 241.127959 
L 189.797956 241.167594 
L 190.17267 241.303006 
L 190.377059 240.96778 
L 190.751773 240.183847 
L 190.956162 240.057723 
L 191.126486 240.306904 
L 191.36494 241.144331 
L 192.114367 244.085543 
L 192.659405 245.168198 
L 193.238508 246.72869 
L 193.476962 246.963752 
L 193.749481 246.88731 
L 193.987935 246.699384 
L 194.294519 246.099481 
L 194.805492 244.44093 
L 195.248335 243.268211 
L 195.588984 242.856144 
L 195.759308 242.896962 
L 195.929633 243.174497 
L 196.713125 245.002067 
L 197.190033 245.070067 
L 197.428487 245.616666 
L 197.837265 247.095974 
L 198.280109 248.700407 
L 199.302055 251.087558 
L 199.608639 251.28186 
L 200.051482 251.467988 
L 200.358066 251.970259 
L 201.78879 254.742494 
L 202.401958 255.565236 
L 202.674477 255.543278 
L 203.287644 255.424558 
L 203.526098 255.657316 
L 203.832682 256.334118 
L 205.127147 259.665496 
L 205.467796 259.831139 
L 205.808445 259.731365 
L 206.694131 259.236216 
L 206.96665 259.58442 
L 208.22705 261.594129 
L 210.339072 263.611813 
L 211.122564 263.765049 
L 211.906056 264.020968 
L 212.451094 264.42211 
L 215.142219 266.956653 
L 216.334489 267.902277 
L 217.424565 268.621756 
L 218.58277 269.404434 
L 219.672846 269.954341 
L 220.183819 270.613976 
L 221.103571 271.83372 
L 221.512349 272.023538 
L 222.023322 271.982819 
L 222.602425 271.975804 
L 223.011203 272.212554 
L 223.624371 272.896217 
L 224.373798 273.645318 
L 224.952901 273.881094 
L 225.634198 274.181051 
L 226.179236 274.715534 
L 227.133052 275.669202 
L 227.575896 275.788892 
L 228.665971 275.911171 
L 229.108815 276.313569 
L 230.505474 277.797042 
L 231.152707 277.957304 
L 231.834004 278.201888 
L 232.685626 278.830012 
L 233.503183 279.317255 
L 234.729518 279.962778 
L 236.160242 280.899216 
L 237.420643 281.510085 
L 239.055756 282.600842 
L 240.452416 283.150001 
L 242.428178 284.336153 
L 243.654514 284.996258 
L 244.948979 285.653013 
L 246.141249 286.304899 
L 247.26539 286.884586 
L 248.798309 287.548427 
L 250.194968 288.320854 
L 251.761952 288.947557 
L 253.260806 289.763868 
L 254.96405 290.420373 
L 256.599164 291.186399 
L 260.550688 292.907869 
L 261.879218 293.451262 
L 263.412137 294.057156 
L 265.013186 294.708563 
L 268.147154 295.874157 
L 276.356787 298.824714 
L 292.231016 303.698048 
L 298.669276 305.391663 
L 312.090834 308.504158 
L 320.879571 310.26375 
L 331.848458 312.203691 
L 341.897594 313.755719 
L 353.513715 315.319689 
L 365.266094 316.687256 
L 378.142615 317.973716 
L 393.676195 319.259866 
L 409.618553 320.357697 
L 411.969029 320.501955 
L 411.969029 320.501955 
" clip-path="url(#pe793aba39d)" style="fill: none; stroke: #ff0000; stroke-width: 2; stroke-linecap: square"/>
   </g>
   <g id="patch_8">
    <path d="M 54.323678 326.64351 
L 54.323678 191.529302 
" style="fill: none; stroke: #000000; stroke-width: 0.8; stroke-linejoin: miter; stroke-linecap: square"/>
   </g>
   <g id="patch_9">
    <path d="M 428.99976 326.64351 
L 428.99976 191.529302 
" style="fill: none; stroke: #000000; stroke-width: 0.8; stroke-linejoin: miter; stroke-linecap: square"/>
   </g>
   <g id="patch_10">
    <path d="M 54.323678 326.64351 
L 428.99976 326.64351 
" style="fill: none; stroke: #000000; stroke-width: 0.8; stroke-linejoin: miter; stroke-linecap: square"/>
   </g>
   <g id="patch_11">
    <path d="M 54.323678 191.529302 
L 428.99976 191.529302 
" style="fill: none; stroke: #000000; stroke-width: 0.8; stroke-linejoin: miter; stroke-linecap: square"/>
   </g>
   <g id="text_21">
    <!-- Mean velocity component v_y over time -->
    <g transform="translate(107.345156 185.529302) scale(0.12 -0.12)">
     <use xlink:href="#DejaVuSans-Bold-4d"/>
     <use xlink:href="#DejaVuSans-Bold-65" transform="translate(99.511719 0)"/>
     <use xlink:href="#DejaVuSans-Bold-61" transform="translate(167.333984 0)"/>
     <use xlink:href="#DejaVuSans-Bold-6e" transform="translate(234.814453 0)"/>
     <use xlink:href="#DejaVuSans-Bold-20" transform="translate(306.005859 0)"/>
     <use xlink:href="#DejaVuSans-Bold-76" transform="translate(340.820312 0)"/>
     <use xlink:href="#DejaVuSans-Bold-65" transform="translate(406.005859 0)"/>
     <use xlink:href="#DejaVuSans-Bold-6c" transform="translate(473.828125 0)"/>
     <use xlink:href="#DejaVuSans-Bold-6f" transform="translate(508.105469 0)"/>
     <use xlink:href="#DejaVuSans-Bold-63" transform="translate(576.806641 0)"/>
     <use xlink:href="#DejaVuSans-Bold-69" transform="translate(636.083984 0)"/>
     <use xlink:href="#DejaVuSans-Bold-74" transform="translate(670.361328 0)"/>
     <use xlink:href="#DejaVuSans-Bold-79" transform="translate(718.164062 0)"/>
     <use xlink:href="#DejaVuSans-Bold-20" transform="translate(783.349609 0)"/>
     <use xlink:href="#DejaVuSans-Bold-63" transform="translate(818.164062 0)"/>
     <use xlink:href="#DejaVuSans-Bold-6f" transform="translate(877.441406 0)"/>
     <use xlink:href="#DejaVuSans-Bold-6d" transform="translate(946.142578 0)"/>
     <use xlink:href="#DejaVuSans-Bold-70" transform="translate(1050.341797 0)"/>
     <use xlink:href="#DejaVuSans-Bold-6f" transform="translate(1121.923828 0)"/>
     <use xlink:href="#DejaVuSans-Bold-6e" transform="translate(1190.625 0)"/>
     <use xlink:href="#DejaVuSans-Bold-65" transform="translate(1261.816406 0)"/>
     <use xlink:href="#DejaVuSans-Bold-6e" transform="translate(1329.638672 0)"/>
     <use xlink:href="#DejaVuSans-Bold-74" transform="translate(1400.830078 0)"/>
     <use xlink:href="#DejaVuSans-Bold-20" transform="translate(1448.632812 0)"/>
     <use xlink:href="#DejaVuSans-Bold-76" transform="translate(1483.447266 0)"/>
     <use xlink:href="#DejaVuSans-Bold-5f" transform="translate(1548.632812 0)"/>
     <use xlink:href="#DejaVuSans-Bold-79" transform="translate(1598.632812 0)"/>
     <use xlink:href="#DejaVuSans-Bold-20" transform="translate(1663.818359 0)"/>
     <use xlink:href="#DejaVuSans-Bold-6f" transform="translate(1698.632812 0)"/>
     <use xlink:href="#DejaVuSans-Bold-76" transform="translate(1767.333984 0)"/>
     <use xlink:href="#DejaVuSans-Bold-65" transform="translate(1832.519531 0)"/>
     <use xlink:href="#DejaVuSans-Bold-72" transform="translate(1900.341797 0)"/>
     <use xlink:href="#DejaVuSans-Bold-20" transform="translate(1949.658203 0)"/>
     <use xlink:href="#DejaVuSans-Bold-74" transform="translate(1984.472656 0)"/>
     <use xlink:href="#DejaVuSans-Bold-69" transform="translate(2032.275391 0)"/>
     <use xlink:href="#DejaVuSans-Bold-6d" transform="translate(2066.552734 0)"/>
     <use xlink:href="#DejaVuSans-Bold-65" transform="translate(2170.751953 0)"/>
    </g>
   </g>
  </g>
 </g>
 <defs>
  <clipPath id="p666d976abc">
   <rect x="54.323678" y="18.118365" width="374.676083" height="135.114207"/>
  </clipPath>
  <clipPath id="pe793aba39d">
   <rect x="54.323678" y="191.529302" width="374.676083" height="135.114208"/>
  </clipPath>
 </defs>
</svg>
