<?xml version="1.0" encoding="utf-8" standalone="no"?>
<!DOCTYPE svg PUBLIC "-//W3C//DTD SVG 1.1//EN"
  "http://www.w3.org/Graphics/SVG/1.1/DTD/svg11.dtd">
<svg xmlns:xlink="http://www.w3.org/1999/xlink" width="460.8pt" height="345.6pt" viewBox="0 0 460.8 345.6" xmlns="http://www.w3.org/2000/svg" version="1.1">
 <metadata>
  <rdf:RDF xmlns:dc="http://purl.org/dc/elements/1.1/" xmlns:cc="http://creativecommons.org/ns#" xmlns:rdf="http://www.w3.org/1999/02/22-rdf-syntax-ns#">
   <cc:Work>
    <dc:type rdf:resource="http://purl.org/dc/dcmitype/StillImage"/>
    <dc:date>2025-05-05T10:47:49.952926</dc:date>
    <dc:format>image/svg+xml</dc:format>
    <dc:creator>
     <cc:Agent>
      <dc:title>Matplotlib v3.10.1, https://matplotlib.org/</dc:title>
     </cc:Agent>
    </dc:creator>
   </cc:Work>
  </rdf:RDF>
 </metadata>
 <defs>
  <style type="text/css">*{stroke-linejoin: round; stroke-linecap: butt}</style>
 </defs>
 <g id="figure_1">
  <g id="patch_1">
   <path d="M 0 345.6 
L 460.8 345.6 
L 460.8 0 
L 0 0 
z
" style="fill: #ffffff"/>
  </g>
  <g id="axes_1">
   <g id="patch_2">
    <path d="M 57.6 162.432 
L 414.72 162.432 
L 414.72 41.472 
L 57.6 41.472 
z
" style="fill: #ffffff"/>
   </g>
   <g id="matplotlib.axis_1">
    <g id="xtick_1">
     <g id="line2d_1">
      <path d="M 73.832727 162.432 
L 73.832727 41.472 
" clip-path="url(#p4008993416)" style="fill: none; stroke: #b0b0b0; stroke-width: 0.8; stroke-linecap: square"/>
     </g>
     <g id="line2d_2">
      <defs>
       <path id="m5aa88db848" d="M 0 0 
L 0 3.5 
" style="stroke: #000000; stroke-width: 0.8"/>
      </defs>
      <g>
       <use xlink:href="#m5aa88db848" x="73.832727" y="162.432" style="stroke: #000000; stroke-width: 0.8"/>
      </g>
     </g>
     <g id="text_1">
      <!-- 0 -->
      <g transform="translate(70.651477 177.030437) scale(0.1 -0.1)">
       <defs>
        <path id="DejaVuSans-30" d="M 2034 4250 
Q 1547 4250 1301 3770 
Q 1056 3291 1056 2328 
Q 1056 1369 1301 889 
Q 1547 409 2034 409 
Q 2525 409 2770 889 
Q 3016 1369 3016 2328 
Q 3016 3291 2770 3770 
Q 2525 4250 2034 4250 
z
M 2034 4750 
Q 2819 4750 3233 4129 
Q 3647 3509 3647 2328 
Q 3647 1150 3233 529 
Q 2819 -91 2034 -91 
Q 1250 -91 836 529 
Q 422 1150 422 2328 
Q 422 3509 836 4129 
Q 1250 4750 2034 4750 
z
" transform="scale(0.015625)"/>
       </defs>
       <use xlink:href="#DejaVuSans-30"/>
      </g>
     </g>
    </g>
    <g id="xtick_2">
     <g id="line2d_3">
      <path d="M 138.77013 162.432 
L 138.77013 41.472 
" clip-path="url(#p4008993416)" style="fill: none; stroke: #b0b0b0; stroke-width: 0.8; stroke-linecap: square"/>
     </g>
     <g id="line2d_4">
      <g>
       <use xlink:href="#m5aa88db848" x="138.77013" y="162.432" style="stroke: #000000; stroke-width: 0.8"/>
      </g>
     </g>
     <g id="text_2">
      <!-- 2000 -->
      <g transform="translate(126.04513 177.030437) scale(0.1 -0.1)">
       <defs>
        <path id="DejaVuSans-32" d="M 1228 531 
L 3431 531 
L 3431 0 
L 469 0 
L 469 531 
Q 828 903 1448 1529 
Q 2069 2156 2228 2338 
Q 2531 2678 2651 2914 
Q 2772 3150 2772 3378 
Q 2772 3750 2511 3984 
Q 2250 4219 1831 4219 
Q 1534 4219 1204 4116 
Q 875 4013 500 3803 
L 500 4441 
Q 881 4594 1212 4672 
Q 1544 4750 1819 4750 
Q 2544 4750 2975 4387 
Q 3406 4025 3406 3419 
Q 3406 3131 3298 2873 
Q 3191 2616 2906 2266 
Q 2828 2175 2409 1742 
Q 1991 1309 1228 531 
z
" transform="scale(0.015625)"/>
       </defs>
       <use xlink:href="#DejaVuSans-32"/>
       <use xlink:href="#DejaVuSans-30" transform="translate(63.623047 0)"/>
       <use xlink:href="#DejaVuSans-30" transform="translate(127.246094 0)"/>
       <use xlink:href="#DejaVuSans-30" transform="translate(190.869141 0)"/>
      </g>
     </g>
    </g>
    <g id="xtick_3">
     <g id="line2d_5">
      <path d="M 203.707533 162.432 
L 203.707533 41.472 
" clip-path="url(#p4008993416)" style="fill: none; stroke: #b0b0b0; stroke-width: 0.8; stroke-linecap: square"/>
     </g>
     <g id="line2d_6">
      <g>
       <use xlink:href="#m5aa88db848" x="203.707533" y="162.432" style="stroke: #000000; stroke-width: 0.8"/>
      </g>
     </g>
     <g id="text_3">
      <!-- 4000 -->
      <g transform="translate(190.982533 177.030437) scale(0.1 -0.1)">
       <defs>
        <path id="DejaVuSans-34" d="M 2419 4116 
L 825 1625 
L 2419 1625 
L 2419 4116 
z
M 2253 4666 
L 3047 4666 
L 3047 1625 
L 3713 1625 
L 3713 1100 
L 3047 1100 
L 3047 0 
L 2419 0 
L 2419 1100 
L 313 1100 
L 313 1709 
L 2253 4666 
z
" transform="scale(0.015625)"/>
       </defs>
       <use xlink:href="#DejaVuSans-34"/>
       <use xlink:href="#DejaVuSans-30" transform="translate(63.623047 0)"/>
       <use xlink:href="#DejaVuSans-30" transform="translate(127.246094 0)"/>
       <use xlink:href="#DejaVuSans-30" transform="translate(190.869141 0)"/>
      </g>
     </g>
    </g>
    <g id="xtick_4">
     <g id="line2d_7">
      <path d="M 268.644936 162.432 
L 268.644936 41.472 
" clip-path="url(#p4008993416)" style="fill: none; stroke: #b0b0b0; stroke-width: 0.8; stroke-linecap: square"/>
     </g>
     <g id="line2d_8">
      <g>
       <use xlink:href="#m5aa88db848" x="268.644936" y="162.432" style="stroke: #000000; stroke-width: 0.8"/>
      </g>
     </g>
     <g id="text_4">
      <!-- 6000 -->
      <g transform="translate(255.919936 177.030437) scale(0.1 -0.1)">
       <defs>
        <path id="DejaVuSans-36" d="M 2113 2584 
Q 1688 2584 1439 2293 
Q 1191 2003 1191 1497 
Q 1191 994 1439 701 
Q 1688 409 2113 409 
Q 2538 409 2786 701 
Q 3034 994 3034 1497 
Q 3034 2003 2786 2293 
Q 2538 2584 2113 2584 
z
M 3366 4563 
L 3366 3988 
Q 3128 4100 2886 4159 
Q 2644 4219 2406 4219 
Q 1781 4219 1451 3797 
Q 1122 3375 1075 2522 
Q 1259 2794 1537 2939 
Q 1816 3084 2150 3084 
Q 2853 3084 3261 2657 
Q 3669 2231 3669 1497 
Q 3669 778 3244 343 
Q 2819 -91 2113 -91 
Q 1303 -91 875 529 
Q 447 1150 447 2328 
Q 447 3434 972 4092 
Q 1497 4750 2381 4750 
Q 2619 4750 2861 4703 
Q 3103 4656 3366 4563 
z
" transform="scale(0.015625)"/>
       </defs>
       <use xlink:href="#DejaVuSans-36"/>
       <use xlink:href="#DejaVuSans-30" transform="translate(63.623047 0)"/>
       <use xlink:href="#DejaVuSans-30" transform="translate(127.246094 0)"/>
       <use xlink:href="#DejaVuSans-30" transform="translate(190.869141 0)"/>
      </g>
     </g>
    </g>
    <g id="xtick_5">
     <g id="line2d_9">
      <path d="M 333.582339 162.432 
L 333.582339 41.472 
" clip-path="url(#p4008993416)" style="fill: none; stroke: #b0b0b0; stroke-width: 0.8; stroke-linecap: square"/>
     </g>
     <g id="line2d_10">
      <g>
       <use xlink:href="#m5aa88db848" x="333.582339" y="162.432" style="stroke: #000000; stroke-width: 0.8"/>
      </g>
     </g>
     <g id="text_5">
      <!-- 8000 -->
      <g transform="translate(320.857339 177.030437) scale(0.1 -0.1)">
       <defs>
        <path id="DejaVuSans-38" d="M 2034 2216 
Q 1584 2216 1326 1975 
Q 1069 1734 1069 1313 
Q 1069 891 1326 650 
Q 1584 409 2034 409 
Q 2484 409 2743 651 
Q 3003 894 3003 1313 
Q 3003 1734 2745 1975 
Q 2488 2216 2034 2216 
z
M 1403 2484 
Q 997 2584 770 2862 
Q 544 3141 544 3541 
Q 544 4100 942 4425 
Q 1341 4750 2034 4750 
Q 2731 4750 3128 4425 
Q 3525 4100 3525 3541 
Q 3525 3141 3298 2862 
Q 3072 2584 2669 2484 
Q 3125 2378 3379 2068 
Q 3634 1759 3634 1313 
Q 3634 634 3220 271 
Q 2806 -91 2034 -91 
Q 1263 -91 848 271 
Q 434 634 434 1313 
Q 434 1759 690 2068 
Q 947 2378 1403 2484 
z
M 1172 3481 
Q 1172 3119 1398 2916 
Q 1625 2713 2034 2713 
Q 2441 2713 2670 2916 
Q 2900 3119 2900 3481 
Q 2900 3844 2670 4047 
Q 2441 4250 2034 4250 
Q 1625 4250 1398 4047 
Q 1172 3844 1172 3481 
z
" transform="scale(0.015625)"/>
       </defs>
       <use xlink:href="#DejaVuSans-38"/>
       <use xlink:href="#DejaVuSans-30" transform="translate(63.623047 0)"/>
       <use xlink:href="#DejaVuSans-30" transform="translate(127.246094 0)"/>
       <use xlink:href="#DejaVuSans-30" transform="translate(190.869141 0)"/>
      </g>
     </g>
    </g>
    <g id="xtick_6">
     <g id="line2d_11">
      <path d="M 398.519741 162.432 
L 398.519741 41.472 
" clip-path="url(#p4008993416)" style="fill: none; stroke: #b0b0b0; stroke-width: 0.8; stroke-linecap: square"/>
     </g>
     <g id="line2d_12">
      <g>
       <use xlink:href="#m5aa88db848" x="398.519741" y="162.432" style="stroke: #000000; stroke-width: 0.8"/>
      </g>
     </g>
     <g id="text_6">
      <!-- 10000 -->
      <g transform="translate(382.613491 177.030437) scale(0.1 -0.1)">
       <defs>
        <path id="DejaVuSans-31" d="M 794 531 
L 1825 531 
L 1825 4091 
L 703 3866 
L 703 4441 
L 1819 4666 
L 2450 4666 
L 2450 531 
L 3481 531 
L 3481 0 
L 794 0 
L 794 531 
z
" transform="scale(0.015625)"/>
       </defs>
       <use xlink:href="#DejaVuSans-31"/>
       <use xlink:href="#DejaVuSans-30" transform="translate(63.623047 0)"/>
       <use xlink:href="#DejaVuSans-30" transform="translate(127.246094 0)"/>
       <use xlink:href="#DejaVuSans-30" transform="translate(190.869141 0)"/>
       <use xlink:href="#DejaVuSans-30" transform="translate(254.492188 0)"/>
      </g>
     </g>
    </g>
    <g id="text_7">
     <!-- Steps -->
     <g transform="translate(222.170156 190.708562) scale(0.1 -0.1)">
      <defs>
       <path id="DejaVuSans-53" d="M 3425 4513 
L 3425 3897 
Q 3066 4069 2747 4153 
Q 2428 4238 2131 4238 
Q 1616 4238 1336 4038 
Q 1056 3838 1056 3469 
Q 1056 3159 1242 3001 
Q 1428 2844 1947 2747 
L 2328 2669 
Q 3034 2534 3370 2195 
Q 3706 1856 3706 1288 
Q 3706 609 3251 259 
Q 2797 -91 1919 -91 
Q 1588 -91 1214 -16 
Q 841 59 441 206 
L 441 856 
Q 825 641 1194 531 
Q 1563 422 1919 422 
Q 2459 422 2753 634 
Q 3047 847 3047 1241 
Q 3047 1584 2836 1778 
Q 2625 1972 2144 2069 
L 1759 2144 
Q 1053 2284 737 2584 
Q 422 2884 422 3419 
Q 422 4038 858 4394 
Q 1294 4750 2059 4750 
Q 2388 4750 2728 4690 
Q 3069 4631 3425 4513 
z
" transform="scale(0.015625)"/>
       <path id="DejaVuSans-74" d="M 1172 4494 
L 1172 3500 
L 2356 3500 
L 2356 3053 
L 1172 3053 
L 1172 1153 
Q 1172 725 1289 603 
Q 1406 481 1766 481 
L 2356 481 
L 2356 0 
L 1766 0 
Q 1100 0 847 248 
Q 594 497 594 1153 
L 594 3053 
L 172 3053 
L 172 3500 
L 594 3500 
L 594 4494 
L 1172 4494 
z
" transform="scale(0.015625)"/>
       <path id="DejaVuSans-65" d="M 3597 1894 
L 3597 1613 
L 953 1613 
Q 991 1019 1311 708 
Q 1631 397 2203 397 
Q 2534 397 2845 478 
Q 3156 559 3463 722 
L 3463 178 
Q 3153 47 2828 -22 
Q 2503 -91 2169 -91 
Q 1331 -91 842 396 
Q 353 884 353 1716 
Q 353 2575 817 3079 
Q 1281 3584 2069 3584 
Q 2775 3584 3186 3129 
Q 3597 2675 3597 1894 
z
M 3022 2063 
Q 3016 2534 2758 2815 
Q 2500 3097 2075 3097 
Q 1594 3097 1305 2825 
Q 1016 2553 972 2059 
L 3022 2063 
z
" transform="scale(0.015625)"/>
       <path id="DejaVuSans-70" d="M 1159 525 
L 1159 -1331 
L 581 -1331 
L 581 3500 
L 1159 3500 
L 1159 2969 
Q 1341 3281 1617 3432 
Q 1894 3584 2278 3584 
Q 2916 3584 3314 3078 
Q 3713 2572 3713 1747 
Q 3713 922 3314 415 
Q 2916 -91 2278 -91 
Q 1894 -91 1617 61 
Q 1341 213 1159 525 
z
M 3116 1747 
Q 3116 2381 2855 2742 
Q 2594 3103 2138 3103 
Q 1681 3103 1420 2742 
Q 1159 2381 1159 1747 
Q 1159 1113 1420 752 
Q 1681 391 2138 391 
Q 2594 391 2855 752 
Q 3116 1113 3116 1747 
z
" transform="scale(0.015625)"/>
       <path id="DejaVuSans-73" d="M 2834 3397 
L 2834 2853 
Q 2591 2978 2328 3040 
Q 2066 3103 1784 3103 
Q 1356 3103 1142 2972 
Q 928 2841 928 2578 
Q 928 2378 1081 2264 
Q 1234 2150 1697 2047 
L 1894 2003 
Q 2506 1872 2764 1633 
Q 3022 1394 3022 966 
Q 3022 478 2636 193 
Q 2250 -91 1575 -91 
Q 1294 -91 989 -36 
Q 684 19 347 128 
L 347 722 
Q 666 556 975 473 
Q 1284 391 1588 391 
Q 1994 391 2212 530 
Q 2431 669 2431 922 
Q 2431 1156 2273 1281 
Q 2116 1406 1581 1522 
L 1381 1569 
Q 847 1681 609 1914 
Q 372 2147 372 2553 
Q 372 3047 722 3315 
Q 1072 3584 1716 3584 
Q 2034 3584 2315 3537 
Q 2597 3491 2834 3397 
z
" transform="scale(0.015625)"/>
      </defs>
      <use xlink:href="#DejaVuSans-53"/>
      <use xlink:href="#DejaVuSans-74" transform="translate(63.476562 0)"/>
      <use xlink:href="#DejaVuSans-65" transform="translate(102.685547 0)"/>
      <use xlink:href="#DejaVuSans-70" transform="translate(164.208984 0)"/>
      <use xlink:href="#DejaVuSans-73" transform="translate(227.685547 0)"/>
     </g>
    </g>
   </g>
   <g id="matplotlib.axis_2">
    <g id="ytick_1">
     <g id="line2d_13">
      <path d="M 57.6 155.158786 
L 414.72 155.158786 
" clip-path="url(#p4008993416)" style="fill: none; stroke: #b0b0b0; stroke-width: 0.8; stroke-linecap: square"/>
     </g>
     <g id="line2d_14">
      <defs>
       <path id="mf07683f946" d="M 0 0 
L -3.5 0 
" style="stroke: #000000; stroke-width: 0.8"/>
      </defs>
      <g>
       <use xlink:href="#mf07683f946" x="57.6" y="155.158786" style="stroke: #000000; stroke-width: 0.8"/>
      </g>
     </g>
     <g id="text_8">
      <!-- 0.0 -->
      <g transform="translate(34.696875 158.958004) scale(0.1 -0.1)">
       <defs>
        <path id="DejaVuSans-2e" d="M 684 794 
L 1344 794 
L 1344 0 
L 684 0 
L 684 794 
z
" transform="scale(0.015625)"/>
       </defs>
       <use xlink:href="#DejaVuSans-30"/>
       <use xlink:href="#DejaVuSans-2e" transform="translate(63.623047 0)"/>
       <use xlink:href="#DejaVuSans-30" transform="translate(95.410156 0)"/>
      </g>
     </g>
    </g>
    <g id="ytick_2">
     <g id="line2d_15">
      <path d="M 57.6 132.191305 
L 414.72 132.191305 
" clip-path="url(#p4008993416)" style="fill: none; stroke: #b0b0b0; stroke-width: 0.8; stroke-linecap: square"/>
     </g>
     <g id="line2d_16">
      <g>
       <use xlink:href="#mf07683f946" x="57.6" y="132.191305" style="stroke: #000000; stroke-width: 0.8"/>
      </g>
     </g>
     <g id="text_9">
      <!-- 0.2 -->
      <g transform="translate(34.696875 135.990524) scale(0.1 -0.1)">
       <use xlink:href="#DejaVuSans-30"/>
       <use xlink:href="#DejaVuSans-2e" transform="translate(63.623047 0)"/>
       <use xlink:href="#DejaVuSans-32" transform="translate(95.410156 0)"/>
      </g>
     </g>
    </g>
    <g id="ytick_3">
     <g id="line2d_17">
      <path d="M 57.6 109.223825 
L 414.72 109.223825 
" clip-path="url(#p4008993416)" style="fill: none; stroke: #b0b0b0; stroke-width: 0.8; stroke-linecap: square"/>
     </g>
     <g id="line2d_18">
      <g>
       <use xlink:href="#mf07683f946" x="57.6" y="109.223825" style="stroke: #000000; stroke-width: 0.8"/>
      </g>
     </g>
     <g id="text_10">
      <!-- 0.4 -->
      <g transform="translate(34.696875 113.023044) scale(0.1 -0.1)">
       <use xlink:href="#DejaVuSans-30"/>
       <use xlink:href="#DejaVuSans-2e" transform="translate(63.623047 0)"/>
       <use xlink:href="#DejaVuSans-34" transform="translate(95.410156 0)"/>
      </g>
     </g>
    </g>
    <g id="ytick_4">
     <g id="line2d_19">
      <path d="M 57.6 86.256345 
L 414.72 86.256345 
" clip-path="url(#p4008993416)" style="fill: none; stroke: #b0b0b0; stroke-width: 0.8; stroke-linecap: square"/>
     </g>
     <g id="line2d_20">
      <g>
       <use xlink:href="#mf07683f946" x="57.6" y="86.256345" style="stroke: #000000; stroke-width: 0.8"/>
      </g>
     </g>
     <g id="text_11">
      <!-- 0.6 -->
      <g transform="translate(34.696875 90.055564) scale(0.1 -0.1)">
       <use xlink:href="#DejaVuSans-30"/>
       <use xlink:href="#DejaVuSans-2e" transform="translate(63.623047 0)"/>
       <use xlink:href="#DejaVuSans-36" transform="translate(95.410156 0)"/>
      </g>
     </g>
    </g>
    <g id="ytick_5">
     <g id="line2d_21">
      <path d="M 57.6 63.288865 
L 414.72 63.288865 
" clip-path="url(#p4008993416)" style="fill: none; stroke: #b0b0b0; stroke-width: 0.8; stroke-linecap: square"/>
     </g>
     <g id="line2d_22">
      <g>
       <use xlink:href="#mf07683f946" x="57.6" y="63.288865" style="stroke: #000000; stroke-width: 0.8"/>
      </g>
     </g>
     <g id="text_12">
      <!-- 0.8 -->
      <g transform="translate(34.696875 67.088083) scale(0.1 -0.1)">
       <use xlink:href="#DejaVuSans-30"/>
       <use xlink:href="#DejaVuSans-2e" transform="translate(63.623047 0)"/>
       <use xlink:href="#DejaVuSans-38" transform="translate(95.410156 0)"/>
      </g>
     </g>
    </g>
    <g id="text_13">
     <!-- Mean V_x -->
     <g transform="translate(28.339062 126.044187) rotate(-90) scale(0.1 -0.1)">
      <defs>
       <path id="DejaVuSans-4d" d="M 628 4666 
L 1569 4666 
L 2759 1491 
L 3956 4666 
L 4897 4666 
L 4897 0 
L 4281 0 
L 4281 4097 
L 3078 897 
L 2444 897 
L 1241 4097 
L 1241 0 
L 628 0 
L 628 4666 
z
" transform="scale(0.015625)"/>
       <path id="DejaVuSans-61" d="M 2194 1759 
Q 1497 1759 1228 1600 
Q 959 1441 959 1056 
Q 959 750 1161 570 
Q 1363 391 1709 391 
Q 2188 391 2477 730 
Q 2766 1069 2766 1631 
L 2766 1759 
L 2194 1759 
z
M 3341 1997 
L 3341 0 
L 2766 0 
L 2766 531 
Q 2569 213 2275 61 
Q 1981 -91 1556 -91 
Q 1019 -91 701 211 
Q 384 513 384 1019 
Q 384 1609 779 1909 
Q 1175 2209 1959 2209 
L 2766 2209 
L 2766 2266 
Q 2766 2663 2505 2880 
Q 2244 3097 1772 3097 
Q 1472 3097 1187 3025 
Q 903 2953 641 2809 
L 641 3341 
Q 956 3463 1253 3523 
Q 1550 3584 1831 3584 
Q 2591 3584 2966 3190 
Q 3341 2797 3341 1997 
z
" transform="scale(0.015625)"/>
       <path id="DejaVuSans-6e" d="M 3513 2113 
L 3513 0 
L 2938 0 
L 2938 2094 
Q 2938 2591 2744 2837 
Q 2550 3084 2163 3084 
Q 1697 3084 1428 2787 
Q 1159 2491 1159 1978 
L 1159 0 
L 581 0 
L 581 3500 
L 1159 3500 
L 1159 2956 
Q 1366 3272 1645 3428 
Q 1925 3584 2291 3584 
Q 2894 3584 3203 3211 
Q 3513 2838 3513 2113 
z
" transform="scale(0.015625)"/>
       <path id="DejaVuSans-20" transform="scale(0.015625)"/>
       <path id="DejaVuSans-56" d="M 1831 0 
L 50 4666 
L 709 4666 
L 2188 738 
L 3669 4666 
L 4325 4666 
L 2547 0 
L 1831 0 
z
" transform="scale(0.015625)"/>
       <path id="DejaVuSans-5f" d="M 3263 -1063 
L 3263 -1509 
L -63 -1509 
L -63 -1063 
L 3263 -1063 
z
" transform="scale(0.015625)"/>
       <path id="DejaVuSans-78" d="M 3513 3500 
L 2247 1797 
L 3578 0 
L 2900 0 
L 1881 1375 
L 863 0 
L 184 0 
L 1544 1831 
L 300 3500 
L 978 3500 
L 1906 2253 
L 2834 3500 
L 3513 3500 
z
" transform="scale(0.015625)"/>
      </defs>
      <use xlink:href="#DejaVuSans-4d"/>
      <use xlink:href="#DejaVuSans-65" transform="translate(86.279297 0)"/>
      <use xlink:href="#DejaVuSans-61" transform="translate(147.802734 0)"/>
      <use xlink:href="#DejaVuSans-6e" transform="translate(209.082031 0)"/>
      <use xlink:href="#DejaVuSans-20" transform="translate(272.460938 0)"/>
      <use xlink:href="#DejaVuSans-56" transform="translate(304.248047 0)"/>
      <use xlink:href="#DejaVuSans-5f" transform="translate(372.65625 0)"/>
      <use xlink:href="#DejaVuSans-78" transform="translate(422.65625 0)"/>
     </g>
    </g>
   </g>
   <g id="line2d_23">
    <path d="M 73.832727 156.933818 
L 74.449633 155.910275 
L 74.77432 154.818428 
L 74.969132 153.923311 
L 75.683443 149.5041 
L 75.715912 149.513714 
L 75.943193 149.550191 
L 76.073068 149.162081 
L 76.852317 144.626249 
L 77.112066 143.689251 
L 77.177004 143.621961 
L 77.241941 143.704634 
L 77.371816 144.112634 
L 78.573158 150.480633 
L 78.76797 150.751041 
L 78.897845 150.765513 
L 79.092657 151.207035 
L 79.677094 152.928588 
L 80.066718 154.654477 
L 80.164124 154.678948 
L 80.196593 154.636016 
L 80.391405 154.142984 
L 80.716092 152.887096 
L 80.910904 152.96628 
L 81.040779 153.352631 
L 81.722622 156.035875 
L 81.917434 156.255256 
L 82.01484 156.039008 
L 82.209652 154.588205 
L 82.859026 147.111361 
L 83.410994 138.143275 
L 83.800619 135.741368 
L 83.865556 135.79891 
L 84.385055 136.425189 
L 84.547399 136.173239 
L 85.164304 134.788541 
L 85.488991 134.685592 
L 85.716272 134.401769 
L 85.878615 133.435284 
L 86.463052 129.170762 
L 87.437113 125.891164 
L 87.696863 125.152323 
L 88.02155 123.717627 
L 88.118956 123.650745 
L 89.190423 118.383429 
L 90.002141 112.162389 
L 90.067078 112.254904 
L 90.326828 112.763212 
L 90.359296 112.656663 
L 90.683983 110.586197 
L 91.885325 103.076618 
L 92.145075 102.44603 
L 92.339887 102.396481 
L 92.567168 102.70935 
L 92.794449 102.977762 
L 92.826918 102.944632 
L 93.02173 102.520834 
L 93.249011 101.370275 
L 93.476292 98.982318 
L 94.093197 90.291876 
L 94.320478 89.21183 
L 94.51529 89.021921 
L 94.677634 89.177912 
L 95.456882 91.730676 
L 95.911444 94.350703 
L 96.171194 94.714378 
L 96.2686 94.649016 
L 96.463412 94.141176 
L 96.820568 92.153466 
L 97.112786 89.629445 
L 97.697223 84.308698 
L 97.924504 83.867157 
L 98.184253 83.714451 
L 98.346597 83.838004 
L 98.541409 84.390616 
L 98.801159 85.133334 
L 98.833627 85.115592 
L 98.963502 84.798892 
L 99.25572 84.174108 
L 99.645345 83.906114 
L 99.872626 83.030459 
L 100.197313 80.719825 
L 100.684343 77.412711 
L 101.073968 76.288503 
L 101.398655 75.950386 
L 101.723342 76.056233 
L 102.048029 76.164252 
L 102.210372 75.893179 
L 102.535059 74.67516 
L 102.859746 72.933054 
L 103.671464 68.17245 
L 104.2559 64.874905 
L 105.165024 59.361315 
L 105.619586 58.474345 
L 106.236491 57.613865 
L 106.431303 57.700188 
L 106.691053 58.104869 
L 107.405365 59.31106 
L 107.632645 59.346844 
L 107.957332 59.101204 
L 108.541769 58.412976 
L 108.898925 57.444557 
L 109.450893 55.282629 
L 110.067798 53.011347 
L 110.392485 52.564426 
L 110.587297 52.553741 
L 111.236671 52.978048 
L 111.52889 52.854023 
L 111.918514 52.398452 
L 112.730232 51.459402 
L 113.347137 51.143241 
L 113.964042 51.089989 
L 114.548479 50.996072 
L 114.905635 50.697618 
L 115.295259 50.029271 
L 116.464132 47.734196 
L 116.691413 47.664744 
L 117.081038 48.034055 
L 117.827818 48.788655 
L 118.120036 48.788017 
L 118.477192 48.545861 
L 119.02916 47.856595 
L 119.581128 47.250257 
L 119.970752 47.120835 
L 120.230502 47.20731 
L 120.847407 48.13819 
L 121.2695 48.496325 
L 121.561718 48.479467 
L 121.886405 48.218809 
L 123.087747 46.97214 
L 123.412434 47.048294 
L 123.672184 47.317315 
L 124.386495 48.235451 
L 124.77612 48.397917 
L 125.198213 48.317106 
L 126.204743 48.036267 
L 126.886585 48.182496 
L 127.568428 48.254708 
L 128.152865 48.066569 
L 129.484081 47.54949 
L 130.360736 47.541701 
L 130.685423 47.761365 
L 131.26986 47.933386 
L 132.503671 47.973551 
L 134.51673 48.060512 
L 135.490791 48.586993 
L 136.432384 48.831027 
L 137.698663 49.122918 
L 138.348037 49.348322 
L 139.971472 49.512901 
L 141.075408 49.301137 
L 141.594907 49.262087 
L 142.374156 49.543362 
L 143.28328 49.63581 
L 143.932654 49.637306 
L 145.198933 51.082835 
L 145.556089 50.884751 
L 146.043119 50.679719 
L 146.335338 50.808565 
L 147.536679 51.733783 
L 147.893835 51.69904 
L 148.348397 51.395449 
L 149.192583 50.77075 
L 149.614676 50.76477 
L 151.140705 51.021439 
L 152.926484 50.659531 
L 153.965482 50.554943 
L 155.686324 50.139525 
L 157.926664 50.168696 
L 160.556629 50.103112 
L 161.368346 50.111688 
L 162.926844 50.22781 
L 164.387936 50.187079 
L 165.78409 50.238216 
L 167.732212 50.144082 
L 169.290709 50.083402 
L 171.173894 50.06153 
L 174.615576 50.191871 
L 178.414415 50.377746 
L 184.486062 50.429694 
L 192.830518 50.477273 
L 198.512541 50.406785 
L 205.136156 50.360882 
L 238.838668 50.304004 
L 245.657095 50.375462 
L 253.449584 50.444232 
L 263.157725 50.460426 
L 342.348888 50.41914 
L 352.154436 50.456417 
L 372.05775 50.439651 
L 398.487273 50.45508 
L 398.487273 50.45508 
" clip-path="url(#p4008993416)" style="fill: none; stroke: #0000ff; stroke-width: 2; stroke-linecap: square"/>
   </g>
   <g id="patch_3">
    <path d="M 57.6 162.432 
L 57.6 41.472 
" style="fill: none; stroke: #000000; stroke-width: 0.8; stroke-linejoin: miter; stroke-linecap: square"/>
   </g>
   <g id="patch_4">
    <path d="M 414.72 162.432 
L 414.72 41.472 
" style="fill: none; stroke: #000000; stroke-width: 0.8; stroke-linejoin: miter; stroke-linecap: square"/>
   </g>
   <g id="patch_5">
    <path d="M 57.6 162.432 
L 414.72 162.432 
" style="fill: none; stroke: #000000; stroke-width: 0.8; stroke-linejoin: miter; stroke-linecap: square"/>
   </g>
   <g id="patch_6">
    <path d="M 57.6 41.472 
L 414.72 41.472 
" style="fill: none; stroke: #000000; stroke-width: 0.8; stroke-linejoin: miter; stroke-linecap: square"/>
   </g>
   <g id="text_14">
    <!-- Mean Velocity Component V_x Over Time -->
    <g transform="translate(112.135312 35.472) scale(0.12 -0.12)">
     <defs>
      <path id="DejaVuSans-6c" d="M 603 4863 
L 1178 4863 
L 1178 0 
L 603 0 
L 603 4863 
z
" transform="scale(0.015625)"/>
      <path id="DejaVuSans-6f" d="M 1959 3097 
Q 1497 3097 1228 2736 
Q 959 2375 959 1747 
Q 959 1119 1226 758 
Q 1494 397 1959 397 
Q 2419 397 2687 759 
Q 2956 1122 2956 1747 
Q 2956 2369 2687 2733 
Q 2419 3097 1959 3097 
z
M 1959 3584 
Q 2709 3584 3137 3096 
Q 3566 2609 3566 1747 
Q 3566 888 3137 398 
Q 2709 -91 1959 -91 
Q 1206 -91 779 398 
Q 353 888 353 1747 
Q 353 2609 779 3096 
Q 1206 3584 1959 3584 
z
" transform="scale(0.015625)"/>
      <path id="DejaVuSans-63" d="M 3122 3366 
L 3122 2828 
Q 2878 2963 2633 3030 
Q 2388 3097 2138 3097 
Q 1578 3097 1268 2742 
Q 959 2388 959 1747 
Q 959 1106 1268 751 
Q 1578 397 2138 397 
Q 2388 397 2633 464 
Q 2878 531 3122 666 
L 3122 134 
Q 2881 22 2623 -34 
Q 2366 -91 2075 -91 
Q 1284 -91 818 406 
Q 353 903 353 1747 
Q 353 2603 823 3093 
Q 1294 3584 2113 3584 
Q 2378 3584 2631 3529 
Q 2884 3475 3122 3366 
z
" transform="scale(0.015625)"/>
      <path id="DejaVuSans-69" d="M 603 3500 
L 1178 3500 
L 1178 0 
L 603 0 
L 603 3500 
z
M 603 4863 
L 1178 4863 
L 1178 4134 
L 603 4134 
L 603 4863 
z
" transform="scale(0.015625)"/>
      <path id="DejaVuSans-79" d="M 2059 -325 
Q 1816 -950 1584 -1140 
Q 1353 -1331 966 -1331 
L 506 -1331 
L 506 -850 
L 844 -850 
Q 1081 -850 1212 -737 
Q 1344 -625 1503 -206 
L 1606 56 
L 191 3500 
L 800 3500 
L 1894 763 
L 2988 3500 
L 3597 3500 
L 2059 -325 
z
" transform="scale(0.015625)"/>
      <path id="DejaVuSans-43" d="M 4122 4306 
L 4122 3641 
Q 3803 3938 3442 4084 
Q 3081 4231 2675 4231 
Q 1875 4231 1450 3742 
Q 1025 3253 1025 2328 
Q 1025 1406 1450 917 
Q 1875 428 2675 428 
Q 3081 428 3442 575 
Q 3803 722 4122 1019 
L 4122 359 
Q 3791 134 3420 21 
Q 3050 -91 2638 -91 
Q 1578 -91 968 557 
Q 359 1206 359 2328 
Q 359 3453 968 4101 
Q 1578 4750 2638 4750 
Q 3056 4750 3426 4639 
Q 3797 4528 4122 4306 
z
" transform="scale(0.015625)"/>
      <path id="DejaVuSans-6d" d="M 3328 2828 
Q 3544 3216 3844 3400 
Q 4144 3584 4550 3584 
Q 5097 3584 5394 3201 
Q 5691 2819 5691 2113 
L 5691 0 
L 5113 0 
L 5113 2094 
Q 5113 2597 4934 2840 
Q 4756 3084 4391 3084 
Q 3944 3084 3684 2787 
Q 3425 2491 3425 1978 
L 3425 0 
L 2847 0 
L 2847 2094 
Q 2847 2600 2669 2842 
Q 2491 3084 2119 3084 
Q 1678 3084 1418 2786 
Q 1159 2488 1159 1978 
L 1159 0 
L 581 0 
L 581 3500 
L 1159 3500 
L 1159 2956 
Q 1356 3278 1631 3431 
Q 1906 3584 2284 3584 
Q 2666 3584 2933 3390 
Q 3200 3197 3328 2828 
z
" transform="scale(0.015625)"/>
      <path id="DejaVuSans-4f" d="M 2522 4238 
Q 1834 4238 1429 3725 
Q 1025 3213 1025 2328 
Q 1025 1447 1429 934 
Q 1834 422 2522 422 
Q 3209 422 3611 934 
Q 4013 1447 4013 2328 
Q 4013 3213 3611 3725 
Q 3209 4238 2522 4238 
z
M 2522 4750 
Q 3503 4750 4090 4092 
Q 4678 3434 4678 2328 
Q 4678 1225 4090 567 
Q 3503 -91 2522 -91 
Q 1538 -91 948 565 
Q 359 1222 359 2328 
Q 359 3434 948 4092 
Q 1538 4750 2522 4750 
z
" transform="scale(0.015625)"/>
      <path id="DejaVuSans-76" d="M 191 3500 
L 800 3500 
L 1894 563 
L 2988 3500 
L 3597 3500 
L 2284 0 
L 1503 0 
L 191 3500 
z
" transform="scale(0.015625)"/>
      <path id="DejaVuSans-72" d="M 2631 2963 
Q 2534 3019 2420 3045 
Q 2306 3072 2169 3072 
Q 1681 3072 1420 2755 
Q 1159 2438 1159 1844 
L 1159 0 
L 581 0 
L 581 3500 
L 1159 3500 
L 1159 2956 
Q 1341 3275 1631 3429 
Q 1922 3584 2338 3584 
Q 2397 3584 2469 3576 
Q 2541 3569 2628 3553 
L 2631 2963 
z
" transform="scale(0.015625)"/>
      <path id="DejaVuSans-54" d="M -19 4666 
L 3928 4666 
L 3928 4134 
L 2272 4134 
L 2272 0 
L 1638 0 
L 1638 4134 
L -19 4134 
L -19 4666 
z
" transform="scale(0.015625)"/>
     </defs>
     <use xlink:href="#DejaVuSans-4d"/>
     <use xlink:href="#DejaVuSans-65" transform="translate(86.279297 0)"/>
     <use xlink:href="#DejaVuSans-61" transform="translate(147.802734 0)"/>
     <use xlink:href="#DejaVuSans-6e" transform="translate(209.082031 0)"/>
     <use xlink:href="#DejaVuSans-20" transform="translate(272.460938 0)"/>
     <use xlink:href="#DejaVuSans-56" transform="translate(304.248047 0)"/>
     <use xlink:href="#DejaVuSans-65" transform="translate(364.90625 0)"/>
     <use xlink:href="#DejaVuSans-6c" transform="translate(426.429688 0)"/>
     <use xlink:href="#DejaVuSans-6f" transform="translate(454.212891 0)"/>
     <use xlink:href="#DejaVuSans-63" transform="translate(515.394531 0)"/>
     <use xlink:href="#DejaVuSans-69" transform="translate(570.375 0)"/>
     <use xlink:href="#DejaVuSans-74" transform="translate(598.158203 0)"/>
     <use xlink:href="#DejaVuSans-79" transform="translate(637.367188 0)"/>
     <use xlink:href="#DejaVuSans-20" transform="translate(696.546875 0)"/>
     <use xlink:href="#DejaVuSans-43" transform="translate(728.333984 0)"/>
     <use xlink:href="#DejaVuSans-6f" transform="translate(798.158203 0)"/>
     <use xlink:href="#DejaVuSans-6d" transform="translate(859.339844 0)"/>
     <use xlink:href="#DejaVuSans-70" transform="translate(956.751953 0)"/>
     <use xlink:href="#DejaVuSans-6f" transform="translate(1020.228516 0)"/>
     <use xlink:href="#DejaVuSans-6e" transform="translate(1081.410156 0)"/>
     <use xlink:href="#DejaVuSans-65" transform="translate(1144.789062 0)"/>
     <use xlink:href="#DejaVuSans-6e" transform="translate(1206.3125 0)"/>
     <use xlink:href="#DejaVuSans-74" transform="translate(1269.691406 0)"/>
     <use xlink:href="#DejaVuSans-20" transform="translate(1308.900391 0)"/>
     <use xlink:href="#DejaVuSans-56" transform="translate(1340.6875 0)"/>
     <use xlink:href="#DejaVuSans-5f" transform="translate(1409.095703 0)"/>
     <use xlink:href="#DejaVuSans-78" transform="translate(1459.095703 0)"/>
     <use xlink:href="#DejaVuSans-20" transform="translate(1518.275391 0)"/>
     <use xlink:href="#DejaVuSans-4f" transform="translate(1550.0625 0)"/>
     <use xlink:href="#DejaVuSans-76" transform="translate(1628.773438 0)"/>
     <use xlink:href="#DejaVuSans-65" transform="translate(1687.953125 0)"/>
     <use xlink:href="#DejaVuSans-72" transform="translate(1749.476562 0)"/>
     <use xlink:href="#DejaVuSans-20" transform="translate(1790.589844 0)"/>
     <use xlink:href="#DejaVuSans-54" transform="translate(1822.376953 0)"/>
     <use xlink:href="#DejaVuSans-69" transform="translate(1880.335938 0)"/>
     <use xlink:href="#DejaVuSans-6d" transform="translate(1908.119141 0)"/>
     <use xlink:href="#DejaVuSans-65" transform="translate(2005.53125 0)"/>
    </g>
   </g>
  </g>
  <g id="axes_2">
   <g id="patch_7">
    <path d="M 57.6 307.584 
L 414.72 307.584 
L 414.72 186.624 
L 57.6 186.624 
z
" style="fill: #ffffff"/>
   </g>
   <g id="matplotlib.axis_3">
    <g id="xtick_7">
     <g id="line2d_24">
      <path d="M 73.832727 307.584 
L 73.832727 186.624 
" clip-path="url(#pc47cb710bf)" style="fill: none; stroke: #b0b0b0; stroke-width: 0.8; stroke-linecap: square"/>
     </g>
     <g id="line2d_25">
      <g>
       <use xlink:href="#m5aa88db848" x="73.832727" y="307.584" style="stroke: #000000; stroke-width: 0.8"/>
      </g>
     </g>
     <g id="text_15">
      <!-- 0 -->
      <g transform="translate(70.651477 322.182437) scale(0.1 -0.1)">
       <use xlink:href="#DejaVuSans-30"/>
      </g>
     </g>
    </g>
    <g id="xtick_8">
     <g id="line2d_26">
      <path d="M 138.77013 307.584 
L 138.77013 186.624 
" clip-path="url(#pc47cb710bf)" style="fill: none; stroke: #b0b0b0; stroke-width: 0.8; stroke-linecap: square"/>
     </g>
     <g id="line2d_27">
      <g>
       <use xlink:href="#m5aa88db848" x="138.77013" y="307.584" style="stroke: #000000; stroke-width: 0.8"/>
      </g>
     </g>
     <g id="text_16">
      <!-- 2000 -->
      <g transform="translate(126.04513 322.182437) scale(0.1 -0.1)">
       <use xlink:href="#DejaVuSans-32"/>
       <use xlink:href="#DejaVuSans-30" transform="translate(63.623047 0)"/>
       <use xlink:href="#DejaVuSans-30" transform="translate(127.246094 0)"/>
       <use xlink:href="#DejaVuSans-30" transform="translate(190.869141 0)"/>
      </g>
     </g>
    </g>
    <g id="xtick_9">
     <g id="line2d_28">
      <path d="M 203.707533 307.584 
L 203.707533 186.624 
" clip-path="url(#pc47cb710bf)" style="fill: none; stroke: #b0b0b0; stroke-width: 0.8; stroke-linecap: square"/>
     </g>
     <g id="line2d_29">
      <g>
       <use xlink:href="#m5aa88db848" x="203.707533" y="307.584" style="stroke: #000000; stroke-width: 0.8"/>
      </g>
     </g>
     <g id="text_17">
      <!-- 4000 -->
      <g transform="translate(190.982533 322.182437) scale(0.1 -0.1)">
       <use xlink:href="#DejaVuSans-34"/>
       <use xlink:href="#DejaVuSans-30" transform="translate(63.623047 0)"/>
       <use xlink:href="#DejaVuSans-30" transform="translate(127.246094 0)"/>
       <use xlink:href="#DejaVuSans-30" transform="translate(190.869141 0)"/>
      </g>
     </g>
    </g>
    <g id="xtick_10">
     <g id="line2d_30">
      <path d="M 268.644936 307.584 
L 268.644936 186.624 
" clip-path="url(#pc47cb710bf)" style="fill: none; stroke: #b0b0b0; stroke-width: 0.8; stroke-linecap: square"/>
     </g>
     <g id="line2d_31">
      <g>
       <use xlink:href="#m5aa88db848" x="268.644936" y="307.584" style="stroke: #000000; stroke-width: 0.8"/>
      </g>
     </g>
     <g id="text_18">
      <!-- 6000 -->
      <g transform="translate(255.919936 322.182437) scale(0.1 -0.1)">
       <use xlink:href="#DejaVuSans-36"/>
       <use xlink:href="#DejaVuSans-30" transform="translate(63.623047 0)"/>
       <use xlink:href="#DejaVuSans-30" transform="translate(127.246094 0)"/>
       <use xlink:href="#DejaVuSans-30" transform="translate(190.869141 0)"/>
      </g>
     </g>
    </g>
    <g id="xtick_11">
     <g id="line2d_32">
      <path d="M 333.582339 307.584 
L 333.582339 186.624 
" clip-path="url(#pc47cb710bf)" style="fill: none; stroke: #b0b0b0; stroke-width: 0.8; stroke-linecap: square"/>
     </g>
     <g id="line2d_33">
      <g>
       <use xlink:href="#m5aa88db848" x="333.582339" y="307.584" style="stroke: #000000; stroke-width: 0.8"/>
      </g>
     </g>
     <g id="text_19">
      <!-- 8000 -->
      <g transform="translate(320.857339 322.182437) scale(0.1 -0.1)">
       <use xlink:href="#DejaVuSans-38"/>
       <use xlink:href="#DejaVuSans-30" transform="translate(63.623047 0)"/>
       <use xlink:href="#DejaVuSans-30" transform="translate(127.246094 0)"/>
       <use xlink:href="#DejaVuSans-30" transform="translate(190.869141 0)"/>
      </g>
     </g>
    </g>
    <g id="xtick_12">
     <g id="line2d_34">
      <path d="M 398.519741 307.584 
L 398.519741 186.624 
" clip-path="url(#pc47cb710bf)" style="fill: none; stroke: #b0b0b0; stroke-width: 0.8; stroke-linecap: square"/>
     </g>
     <g id="line2d_35">
      <g>
       <use xlink:href="#m5aa88db848" x="398.519741" y="307.584" style="stroke: #000000; stroke-width: 0.8"/>
      </g>
     </g>
     <g id="text_20">
      <!-- 10000 -->
      <g transform="translate(382.613491 322.182437) scale(0.1 -0.1)">
       <use xlink:href="#DejaVuSans-31"/>
       <use xlink:href="#DejaVuSans-30" transform="translate(63.623047 0)"/>
       <use xlink:href="#DejaVuSans-30" transform="translate(127.246094 0)"/>
       <use xlink:href="#DejaVuSans-30" transform="translate(190.869141 0)"/>
       <use xlink:href="#DejaVuSans-30" transform="translate(254.492188 0)"/>
      </g>
     </g>
    </g>
    <g id="text_21">
     <!-- Steps -->
     <g transform="translate(222.170156 335.860562) scale(0.1 -0.1)">
      <use xlink:href="#DejaVuSans-53"/>
      <use xlink:href="#DejaVuSans-74" transform="translate(63.476562 0)"/>
      <use xlink:href="#DejaVuSans-65" transform="translate(102.685547 0)"/>
      <use xlink:href="#DejaVuSans-70" transform="translate(164.208984 0)"/>
      <use xlink:href="#DejaVuSans-73" transform="translate(227.685547 0)"/>
     </g>
    </g>
   </g>
   <g id="matplotlib.axis_4">
    <g id="ytick_6">
     <g id="line2d_36">
      <path d="M 57.6 302.374902 
L 414.72 302.374902 
" clip-path="url(#pc47cb710bf)" style="fill: none; stroke: #b0b0b0; stroke-width: 0.8; stroke-linecap: square"/>
     </g>
     <g id="line2d_37">
      <g>
       <use xlink:href="#mf07683f946" x="57.6" y="302.374902" style="stroke: #000000; stroke-width: 0.8"/>
      </g>
     </g>
     <g id="text_22">
      <!-- 0.0 -->
      <g transform="translate(34.696875 306.17412) scale(0.1 -0.1)">
       <use xlink:href="#DejaVuSans-30"/>
       <use xlink:href="#DejaVuSans-2e" transform="translate(63.623047 0)"/>
       <use xlink:href="#DejaVuSans-30" transform="translate(95.410156 0)"/>
      </g>
     </g>
    </g>
    <g id="ytick_7">
     <g id="line2d_38">
      <path d="M 57.6 279.687229 
L 414.72 279.687229 
" clip-path="url(#pc47cb710bf)" style="fill: none; stroke: #b0b0b0; stroke-width: 0.8; stroke-linecap: square"/>
     </g>
     <g id="line2d_39">
      <g>
       <use xlink:href="#mf07683f946" x="57.6" y="279.687229" style="stroke: #000000; stroke-width: 0.8"/>
      </g>
     </g>
     <g id="text_23">
      <!-- 0.2 -->
      <g transform="translate(34.696875 283.486448) scale(0.1 -0.1)">
       <use xlink:href="#DejaVuSans-30"/>
       <use xlink:href="#DejaVuSans-2e" transform="translate(63.623047 0)"/>
       <use xlink:href="#DejaVuSans-32" transform="translate(95.410156 0)"/>
      </g>
     </g>
    </g>
    <g id="ytick_8">
     <g id="line2d_40">
      <path d="M 57.6 256.999556 
L 414.72 256.999556 
" clip-path="url(#pc47cb710bf)" style="fill: none; stroke: #b0b0b0; stroke-width: 0.8; stroke-linecap: square"/>
     </g>
     <g id="line2d_41">
      <g>
       <use xlink:href="#mf07683f946" x="57.6" y="256.999556" style="stroke: #000000; stroke-width: 0.8"/>
      </g>
     </g>
     <g id="text_24">
      <!-- 0.4 -->
      <g transform="translate(34.696875 260.798775) scale(0.1 -0.1)">
       <use xlink:href="#DejaVuSans-30"/>
       <use xlink:href="#DejaVuSans-2e" transform="translate(63.623047 0)"/>
       <use xlink:href="#DejaVuSans-34" transform="translate(95.410156 0)"/>
      </g>
     </g>
    </g>
    <g id="ytick_9">
     <g id="line2d_42">
      <path d="M 57.6 234.311884 
L 414.72 234.311884 
" clip-path="url(#pc47cb710bf)" style="fill: none; stroke: #b0b0b0; stroke-width: 0.8; stroke-linecap: square"/>
     </g>
     <g id="line2d_43">
      <g>
       <use xlink:href="#mf07683f946" x="57.6" y="234.311884" style="stroke: #000000; stroke-width: 0.8"/>
      </g>
     </g>
     <g id="text_25">
      <!-- 0.6 -->
      <g transform="translate(34.696875 238.111102) scale(0.1 -0.1)">
       <use xlink:href="#DejaVuSans-30"/>
       <use xlink:href="#DejaVuSans-2e" transform="translate(63.623047 0)"/>
       <use xlink:href="#DejaVuSans-36" transform="translate(95.410156 0)"/>
      </g>
     </g>
    </g>
    <g id="ytick_10">
     <g id="line2d_44">
      <path d="M 57.6 211.624211 
L 414.72 211.624211 
" clip-path="url(#pc47cb710bf)" style="fill: none; stroke: #b0b0b0; stroke-width: 0.8; stroke-linecap: square"/>
     </g>
     <g id="line2d_45">
      <g>
       <use xlink:href="#mf07683f946" x="57.6" y="211.624211" style="stroke: #000000; stroke-width: 0.8"/>
      </g>
     </g>
     <g id="text_26">
      <!-- 0.8 -->
      <g transform="translate(34.696875 215.42343) scale(0.1 -0.1)">
       <use xlink:href="#DejaVuSans-30"/>
       <use xlink:href="#DejaVuSans-2e" transform="translate(63.623047 0)"/>
       <use xlink:href="#DejaVuSans-38" transform="translate(95.410156 0)"/>
      </g>
     </g>
    </g>
    <g id="ytick_11">
     <g id="line2d_46">
      <path d="M 57.6 188.936539 
L 414.72 188.936539 
" clip-path="url(#pc47cb710bf)" style="fill: none; stroke: #b0b0b0; stroke-width: 0.8; stroke-linecap: square"/>
     </g>
     <g id="line2d_47">
      <g>
       <use xlink:href="#mf07683f946" x="57.6" y="188.936539" style="stroke: #000000; stroke-width: 0.8"/>
      </g>
     </g>
     <g id="text_27">
      <!-- 1.0 -->
      <g transform="translate(34.696875 192.735757) scale(0.1 -0.1)">
       <use xlink:href="#DejaVuSans-31"/>
       <use xlink:href="#DejaVuSans-2e" transform="translate(63.623047 0)"/>
       <use xlink:href="#DejaVuSans-30" transform="translate(95.410156 0)"/>
      </g>
     </g>
    </g>
    <g id="text_28">
     <!-- Mean V_y -->
     <g transform="translate(28.339062 271.196187) rotate(-90) scale(0.1 -0.1)">
      <use xlink:href="#DejaVuSans-4d"/>
      <use xlink:href="#DejaVuSans-65" transform="translate(86.279297 0)"/>
      <use xlink:href="#DejaVuSans-61" transform="translate(147.802734 0)"/>
      <use xlink:href="#DejaVuSans-6e" transform="translate(209.082031 0)"/>
      <use xlink:href="#DejaVuSans-20" transform="translate(272.460938 0)"/>
      <use xlink:href="#DejaVuSans-56" transform="translate(304.248047 0)"/>
      <use xlink:href="#DejaVuSans-5f" transform="translate(372.65625 0)"/>
      <use xlink:href="#DejaVuSans-79" transform="translate(422.65625 0)"/>
     </g>
    </g>
   </g>
   <g id="line2d_48">
    <path d="M 73.832727 290.390972 
L 74.060008 289.439221 
L 74.417164 288.780397 
L 74.676914 288.697224 
L 74.839257 289.169311 
L 75.001601 289.526648 
L 75.034069 289.512112 
L 75.293819 289.140509 
L 76.105536 286.492324 
L 76.689973 283.330878 
L 76.722442 283.357455 
L 76.852317 283.98358 
L 77.728971 288.584449 
L 78.02119 290.103047 
L 79.449813 300.73706 
L 79.644625 300.806895 
L 79.7745 300.724902 
L 79.806968 300.788952 
L 80.229061 302.085818 
L 80.26153 302.076434 
L 80.358936 301.781694 
L 80.781029 299.235282 
L 81.462872 293.27035 
L 82.76162 277.279433 
L 83.216182 274.637118 
L 83.5084 273.783498 
L 83.605806 273.887056 
L 84.0279 274.391113 
L 84.352587 274.273421 
L 84.51493 274.02304 
L 85.164304 271.948016 
L 85.553928 268.664081 
L 86.073428 264.015302 
L 86.722802 260.986184 
L 87.112426 258.410212 
L 87.209832 258.43329 
L 87.339707 258.775751 
L 88.054018 261.149159 
L 88.313768 261.251755 
L 88.573518 261.003114 
L 88.898205 260.911635 
L 89.060548 260.858228 
L 89.417704 260.896026 
L 90.034609 259.423059 
L 90.164484 258.957907 
L 90.489171 256.278795 
L 90.976202 249.952914 
L 91.333357 246.311511 
L 91.430763 246.18097 
L 91.463232 246.218427 
L 91.625576 246.850779 
L 92.080137 248.780088 
L 92.404824 249.322869 
L 92.437293 249.303882 
L 92.632105 249.002261 
L 92.924324 248.08416 
L 93.151605 246.465108 
L 94.093197 238.604983 
L 94.288009 238.280619 
L 94.450353 238.47588 
L 94.77504 238.88181 
L 94.904914 238.715636 
L 95.456882 237.529925 
L 95.489351 237.56413 
L 95.684163 237.652286 
L 95.814038 237.452624 
L 96.236131 236.105337 
L 96.495881 232.827832 
L 97.372536 220.181754 
L 97.697223 218.671043 
L 97.924504 218.426844 
L 98.086847 218.535288 
L 98.314128 219.09248 
L 98.541409 220.100011 
L 98.801159 222.506541 
L 99.353127 227.735599 
L 99.612876 228.690756 
L 99.77522 228.737463 
L 99.937563 228.407223 
L 100.132375 227.478639 
L 100.424594 224.311873 
L 100.911624 219.536891 
L 101.366186 216.907536 
L 101.658404 216.253913 
L 101.950623 216.190308 
L 102.437653 216.528675 
L 102.599997 216.345049 
L 102.924684 215.4092 
L 103.638995 212.36343 
L 104.158494 209.545732 
L 105.294899 201.83939 
L 105.554649 201.508736 
L 105.749461 201.552916 
L 105.911804 201.607195 
L 106.171554 202.001551 
L 106.561178 202.578124 
L 106.723522 202.519501 
L 106.918334 202.090158 
L 107.178084 200.853785 
L 108.411894 193.82246 
L 108.76905 193.358321 
L 109.126206 193.207318 
L 109.580768 193.31521 
L 110.100267 193.633682 
L 110.554829 194.160924 
L 111.106796 195.465331 
L 111.463952 195.905823 
L 111.691233 195.905463 
L 111.950983 195.624117 
L 112.373076 194.741285 
L 113.379606 192.643217 
L 113.801699 192.211076 
L 114.158854 192.124331 
L 114.51601 192.269747 
L 115.035509 192.785875 
L 115.814758 193.595367 
L 116.106977 193.60517 
L 116.431664 193.362439 
L 116.983631 192.867003 
L 117.600537 192.526995 
L 117.990161 192.571952 
L 118.477192 192.917172 
L 119.353847 193.643805 
L 119.711002 193.675681 
L 120.068158 193.474166 
L 120.392845 193.324226 
L 121.00975 193.335443 
L 121.399375 193.618741 
L 122.535779 194.664024 
L 122.860466 194.6242 
L 123.28256 194.305712 
L 123.737121 193.998935 
L 124.224152 194.049924 
L 124.678714 194.344778 
L 125.880056 195.285428 
L 126.334617 195.257978 
L 127.243741 195.116304 
L 127.698303 195.335727 
L 128.867176 196.05193 
L 129.289269 195.970575 
L 130.458143 195.577849 
L 131.724422 196.397229 
L 132.27639 196.457999 
L 134.321918 196.387227 
L 135.036229 196.908156 
L 135.588197 197.056366 
L 137.536319 197.262621 
L 138.055819 197.614584 
L 138.51038 197.651808 
L 140.361096 197.499523 
L 141.692313 197.788635 
L 143.965122 199.623731 
L 144.354747 200.101972 
L 145.296339 200.707033 
L 145.718432 200.940273 
L 146.010651 200.846779 
L 146.757431 200.426973 
L 147.406805 200.347381 
L 147.796429 199.929638 
L 148.478272 199.188736 
L 148.802959 199.12415 
L 149.192583 199.302062 
L 149.906895 199.652257 
L 150.296519 199.588095 
L 150.816018 199.226557 
L 151.465392 198.821821 
L 151.887485 198.82 
L 152.666734 199.120923 
L 153.316108 199.2434 
L 155.231762 199.145667 
L 157.114946 199.073468 
L 158.218882 199.165064 
L 159.939723 199.072794 
L 161.206003 199.239507 
L 163.381406 199.09283 
L 164.420404 199.144136 
L 166.076308 199.113739 
L 167.472462 199.197638 
L 169.290709 199.173605 
L 170.78427 199.194833 
L 175.297419 199.047 
L 186.888746 198.821979 
L 195.103327 198.916188 
L 221.695194 198.903025 
L 232.864427 198.994305 
L 238.384106 198.998994 
L 244.488222 198.914109 
L 252.28071 198.825109 
L 258.514701 198.861177 
L 271.437244 199.004735 
L 353.355778 198.96897 
L 394.591029 198.987609 
L 398.487273 198.984171 
L 398.487273 198.984171 
" clip-path="url(#pc47cb710bf)" style="fill: none; stroke: #ff0000; stroke-width: 2; stroke-linecap: square"/>
   </g>
   <g id="patch_8">
    <path d="M 57.6 307.584 
L 57.6 186.624 
" style="fill: none; stroke: #000000; stroke-width: 0.8; stroke-linejoin: miter; stroke-linecap: square"/>
   </g>
   <g id="patch_9">
    <path d="M 414.72 307.584 
L 414.72 186.624 
" style="fill: none; stroke: #000000; stroke-width: 0.8; stroke-linejoin: miter; stroke-linecap: square"/>
   </g>
   <g id="patch_10">
    <path d="M 57.6 307.584 
L 414.72 307.584 
" style="fill: none; stroke: #000000; stroke-width: 0.8; stroke-linejoin: miter; stroke-linecap: square"/>
   </g>
   <g id="patch_11">
    <path d="M 57.6 186.624 
L 414.72 186.624 
" style="fill: none; stroke: #000000; stroke-width: 0.8; stroke-linejoin: miter; stroke-linecap: square"/>
   </g>
   <g id="text_29">
    <!-- Mean Velocity Component V_y Over Time -->
    <g transform="translate(112.135312 180.624) scale(0.12 -0.12)">
     <use xlink:href="#DejaVuSans-4d"/>
     <use xlink:href="#DejaVuSans-65" transform="translate(86.279297 0)"/>
     <use xlink:href="#DejaVuSans-61" transform="translate(147.802734 0)"/>
     <use xlink:href="#DejaVuSans-6e" transform="translate(209.082031 0)"/>
     <use xlink:href="#DejaVuSans-20" transform="translate(272.460938 0)"/>
     <use xlink:href="#DejaVuSans-56" transform="translate(304.248047 0)"/>
     <use xlink:href="#DejaVuSans-65" transform="translate(364.90625 0)"/>
     <use xlink:href="#DejaVuSans-6c" transform="translate(426.429688 0)"/>
     <use xlink:href="#DejaVuSans-6f" transform="translate(454.212891 0)"/>
     <use xlink:href="#DejaVuSans-63" transform="translate(515.394531 0)"/>
     <use xlink:href="#DejaVuSans-69" transform="translate(570.375 0)"/>
     <use xlink:href="#DejaVuSans-74" transform="translate(598.158203 0)"/>
     <use xlink:href="#DejaVuSans-79" transform="translate(637.367188 0)"/>
     <use xlink:href="#DejaVuSans-20" transform="translate(696.546875 0)"/>
     <use xlink:href="#DejaVuSans-43" transform="translate(728.333984 0)"/>
     <use xlink:href="#DejaVuSans-6f" transform="translate(798.158203 0)"/>
     <use xlink:href="#DejaVuSans-6d" transform="translate(859.339844 0)"/>
     <use xlink:href="#DejaVuSans-70" transform="translate(956.751953 0)"/>
     <use xlink:href="#DejaVuSans-6f" transform="translate(1020.228516 0)"/>
     <use xlink:href="#DejaVuSans-6e" transform="translate(1081.410156 0)"/>
     <use xlink:href="#DejaVuSans-65" transform="translate(1144.789062 0)"/>
     <use xlink:href="#DejaVuSans-6e" transform="translate(1206.3125 0)"/>
     <use xlink:href="#DejaVuSans-74" transform="translate(1269.691406 0)"/>
     <use xlink:href="#DejaVuSans-20" transform="translate(1308.900391 0)"/>
     <use xlink:href="#DejaVuSans-56" transform="translate(1340.6875 0)"/>
     <use xlink:href="#DejaVuSans-5f" transform="translate(1409.095703 0)"/>
     <use xlink:href="#DejaVuSans-79" transform="translate(1459.095703 0)"/>
     <use xlink:href="#DejaVuSans-20" transform="translate(1518.275391 0)"/>
     <use xlink:href="#DejaVuSans-4f" transform="translate(1550.0625 0)"/>
     <use xlink:href="#DejaVuSans-76" transform="translate(1628.773438 0)"/>
     <use xlink:href="#DejaVuSans-65" transform="translate(1687.953125 0)"/>
     <use xlink:href="#DejaVuSans-72" transform="translate(1749.476562 0)"/>
     <use xlink:href="#DejaVuSans-20" transform="translate(1790.589844 0)"/>
     <use xlink:href="#DejaVuSans-54" transform="translate(1822.376953 0)"/>
     <use xlink:href="#DejaVuSans-69" transform="translate(1880.335938 0)"/>
     <use xlink:href="#DejaVuSans-6d" transform="translate(1908.119141 0)"/>
     <use xlink:href="#DejaVuSans-65" transform="translate(2005.53125 0)"/>
    </g>
   </g>
  </g>
 </g>
 <defs>
  <clipPath id="p4008993416">
   <rect x="57.6" y="41.472" width="357.12" height="120.96"/>
  </clipPath>
  <clipPath id="pc47cb710bf">
   <rect x="57.6" y="186.624" width="357.12" height="120.96"/>
  </clipPath>
 </defs>
</svg>
