<?xml version="1.0" encoding="utf-8" standalone="no"?>
<!DOCTYPE svg PUBLIC "-//W3C//DTD SVG 1.1//EN"
  "http://www.w3.org/Graphics/SVG/1.1/DTD/svg11.dtd">
<svg xmlns:xlink="http://www.w3.org/1999/xlink" width="460.8pt" height="345.6pt" viewBox="0 0 460.8 345.6" xmlns="http://www.w3.org/2000/svg" version="1.1">
 <metadata>
  <rdf:RDF xmlns:dc="http://purl.org/dc/elements/1.1/" xmlns:cc="http://creativecommons.org/ns#" xmlns:rdf="http://www.w3.org/1999/02/22-rdf-syntax-ns#">
   <cc:Work>
    <dc:type rdf:resource="http://purl.org/dc/dcmitype/StillImage"/>
    <dc:date>2025-05-05T11:49:49.894206</dc:date>
    <dc:format>image/svg+xml</dc:format>
    <dc:creator>
     <cc:Agent>
      <dc:title>Matplotlib v3.10.1, https://matplotlib.org/</dc:title>
     </cc:Agent>
    </dc:creator>
   </cc:Work>
  </rdf:RDF>
 </metadata>
 <defs>
  <style type="text/css">*{stroke-linejoin: round; stroke-linecap: butt}</style>
 </defs>
 <g id="figure_1">
  <g id="patch_1">
   <path d="M 0 345.6 
L 460.8 345.6 
L 460.8 0 
L 0 0 
z
" style="fill: #ffffff"/>
  </g>
  <g id="axes_1">
   <g id="patch_2">
    <path d="M 57.6 307.584 
L 414.72 307.584 
L 414.72 41.472 
L 57.6 41.472 
z
" style="fill: #ffffff"/>
   </g>
   <g id="matplotlib.axis_1">
    <g id="xtick_1">
     <g id="line2d_1">
      <defs>
       <path id="md9c4d0e6e3" d="M 0 0 
L 0 3.5 
" style="stroke: #000000; stroke-width: 0.8"/>
      </defs>
      <g>
       <use xlink:href="#md9c4d0e6e3" x="73.832727" y="307.584" style="stroke: #000000; stroke-width: 0.8"/>
      </g>
     </g>
     <g id="text_1">
      <!-- 0 -->
      <g transform="translate(70.015227 323.702125) scale(0.12 -0.12)">
       <defs>
        <path id="DejaVuSans-30" d="M 2034 4250 
Q 1547 4250 1301 3770 
Q 1056 3291 1056 2328 
Q 1056 1369 1301 889 
Q 1547 409 2034 409 
Q 2525 409 2770 889 
Q 3016 1369 3016 2328 
Q 3016 3291 2770 3770 
Q 2525 4250 2034 4250 
z
M 2034 4750 
Q 2819 4750 3233 4129 
Q 3647 3509 3647 2328 
Q 3647 1150 3233 529 
Q 2819 -91 2034 -91 
Q 1250 -91 836 529 
Q 422 1150 422 2328 
Q 422 3509 836 4129 
Q 1250 4750 2034 4750 
z
" transform="scale(0.015625)"/>
       </defs>
       <use xlink:href="#DejaVuSans-30"/>
      </g>
     </g>
    </g>
    <g id="xtick_2">
     <g id="line2d_2">
      <g>
       <use xlink:href="#md9c4d0e6e3" x="138.77013" y="307.584" style="stroke: #000000; stroke-width: 0.8"/>
      </g>
     </g>
     <g id="text_2">
      <!-- 2000 -->
      <g transform="translate(123.50013 323.702125) scale(0.12 -0.12)">
       <defs>
        <path id="DejaVuSans-32" d="M 1228 531 
L 3431 531 
L 3431 0 
L 469 0 
L 469 531 
Q 828 903 1448 1529 
Q 2069 2156 2228 2338 
Q 2531 2678 2651 2914 
Q 2772 3150 2772 3378 
Q 2772 3750 2511 3984 
Q 2250 4219 1831 4219 
Q 1534 4219 1204 4116 
Q 875 4013 500 3803 
L 500 4441 
Q 881 4594 1212 4672 
Q 1544 4750 1819 4750 
Q 2544 4750 2975 4387 
Q 3406 4025 3406 3419 
Q 3406 3131 3298 2873 
Q 3191 2616 2906 2266 
Q 2828 2175 2409 1742 
Q 1991 1309 1228 531 
z
" transform="scale(0.015625)"/>
       </defs>
       <use xlink:href="#DejaVuSans-32"/>
       <use xlink:href="#DejaVuSans-30" transform="translate(63.623047 0)"/>
       <use xlink:href="#DejaVuSans-30" transform="translate(127.246094 0)"/>
       <use xlink:href="#DejaVuSans-30" transform="translate(190.869141 0)"/>
      </g>
     </g>
    </g>
    <g id="xtick_3">
     <g id="line2d_3">
      <g>
       <use xlink:href="#md9c4d0e6e3" x="203.707533" y="307.584" style="stroke: #000000; stroke-width: 0.8"/>
      </g>
     </g>
     <g id="text_3">
      <!-- 4000 -->
      <g transform="translate(188.437533 323.702125) scale(0.12 -0.12)">
       <defs>
        <path id="DejaVuSans-34" d="M 2419 4116 
L 825 1625 
L 2419 1625 
L 2419 4116 
z
M 2253 4666 
L 3047 4666 
L 3047 1625 
L 3713 1625 
L 3713 1100 
L 3047 1100 
L 3047 0 
L 2419 0 
L 2419 1100 
L 313 1100 
L 313 1709 
L 2253 4666 
z
" transform="scale(0.015625)"/>
       </defs>
       <use xlink:href="#DejaVuSans-34"/>
       <use xlink:href="#DejaVuSans-30" transform="translate(63.623047 0)"/>
       <use xlink:href="#DejaVuSans-30" transform="translate(127.246094 0)"/>
       <use xlink:href="#DejaVuSans-30" transform="translate(190.869141 0)"/>
      </g>
     </g>
    </g>
    <g id="xtick_4">
     <g id="line2d_4">
      <g>
       <use xlink:href="#md9c4d0e6e3" x="268.644936" y="307.584" style="stroke: #000000; stroke-width: 0.8"/>
      </g>
     </g>
     <g id="text_4">
      <!-- 6000 -->
      <g transform="translate(253.374936 323.702125) scale(0.12 -0.12)">
       <defs>
        <path id="DejaVuSans-36" d="M 2113 2584 
Q 1688 2584 1439 2293 
Q 1191 2003 1191 1497 
Q 1191 994 1439 701 
Q 1688 409 2113 409 
Q 2538 409 2786 701 
Q 3034 994 3034 1497 
Q 3034 2003 2786 2293 
Q 2538 2584 2113 2584 
z
M 3366 4563 
L 3366 3988 
Q 3128 4100 2886 4159 
Q 2644 4219 2406 4219 
Q 1781 4219 1451 3797 
Q 1122 3375 1075 2522 
Q 1259 2794 1537 2939 
Q 1816 3084 2150 3084 
Q 2853 3084 3261 2657 
Q 3669 2231 3669 1497 
Q 3669 778 3244 343 
Q 2819 -91 2113 -91 
Q 1303 -91 875 529 
Q 447 1150 447 2328 
Q 447 3434 972 4092 
Q 1497 4750 2381 4750 
Q 2619 4750 2861 4703 
Q 3103 4656 3366 4563 
z
" transform="scale(0.015625)"/>
       </defs>
       <use xlink:href="#DejaVuSans-36"/>
       <use xlink:href="#DejaVuSans-30" transform="translate(63.623047 0)"/>
       <use xlink:href="#DejaVuSans-30" transform="translate(127.246094 0)"/>
       <use xlink:href="#DejaVuSans-30" transform="translate(190.869141 0)"/>
      </g>
     </g>
    </g>
    <g id="xtick_5">
     <g id="line2d_5">
      <g>
       <use xlink:href="#md9c4d0e6e3" x="333.582339" y="307.584" style="stroke: #000000; stroke-width: 0.8"/>
      </g>
     </g>
     <g id="text_5">
      <!-- 8000 -->
      <g transform="translate(318.312339 323.702125) scale(0.12 -0.12)">
       <defs>
        <path id="DejaVuSans-38" d="M 2034 2216 
Q 1584 2216 1326 1975 
Q 1069 1734 1069 1313 
Q 1069 891 1326 650 
Q 1584 409 2034 409 
Q 2484 409 2743 651 
Q 3003 894 3003 1313 
Q 3003 1734 2745 1975 
Q 2488 2216 2034 2216 
z
M 1403 2484 
Q 997 2584 770 2862 
Q 544 3141 544 3541 
Q 544 4100 942 4425 
Q 1341 4750 2034 4750 
Q 2731 4750 3128 4425 
Q 3525 4100 3525 3541 
Q 3525 3141 3298 2862 
Q 3072 2584 2669 2484 
Q 3125 2378 3379 2068 
Q 3634 1759 3634 1313 
Q 3634 634 3220 271 
Q 2806 -91 2034 -91 
Q 1263 -91 848 271 
Q 434 634 434 1313 
Q 434 1759 690 2068 
Q 947 2378 1403 2484 
z
M 1172 3481 
Q 1172 3119 1398 2916 
Q 1625 2713 2034 2713 
Q 2441 2713 2670 2916 
Q 2900 3119 2900 3481 
Q 2900 3844 2670 4047 
Q 2441 4250 2034 4250 
Q 1625 4250 1398 4047 
Q 1172 3844 1172 3481 
z
" transform="scale(0.015625)"/>
       </defs>
       <use xlink:href="#DejaVuSans-38"/>
       <use xlink:href="#DejaVuSans-30" transform="translate(63.623047 0)"/>
       <use xlink:href="#DejaVuSans-30" transform="translate(127.246094 0)"/>
       <use xlink:href="#DejaVuSans-30" transform="translate(190.869141 0)"/>
      </g>
     </g>
    </g>
    <g id="xtick_6">
     <g id="line2d_6">
      <g>
       <use xlink:href="#md9c4d0e6e3" x="398.519741" y="307.584" style="stroke: #000000; stroke-width: 0.8"/>
      </g>
     </g>
     <g id="text_6">
      <!-- 10000 -->
      <g transform="translate(379.432241 323.702125) scale(0.12 -0.12)">
       <defs>
        <path id="DejaVuSans-31" d="M 794 531 
L 1825 531 
L 1825 4091 
L 703 3866 
L 703 4441 
L 1819 4666 
L 2450 4666 
L 2450 531 
L 3481 531 
L 3481 0 
L 794 0 
L 794 531 
z
" transform="scale(0.015625)"/>
       </defs>
       <use xlink:href="#DejaVuSans-31"/>
       <use xlink:href="#DejaVuSans-30" transform="translate(63.623047 0)"/>
       <use xlink:href="#DejaVuSans-30" transform="translate(127.246094 0)"/>
       <use xlink:href="#DejaVuSans-30" transform="translate(190.869141 0)"/>
       <use xlink:href="#DejaVuSans-30" transform="translate(254.492188 0)"/>
      </g>
     </g>
    </g>
    <g id="text_7">
     <!-- timestep -->
     <g transform="translate(205.203594 340.835562) scale(0.14 -0.14)">
      <defs>
       <path id="DejaVuSans-74" d="M 1172 4494 
L 1172 3500 
L 2356 3500 
L 2356 3053 
L 1172 3053 
L 1172 1153 
Q 1172 725 1289 603 
Q 1406 481 1766 481 
L 2356 481 
L 2356 0 
L 1766 0 
Q 1100 0 847 248 
Q 594 497 594 1153 
L 594 3053 
L 172 3053 
L 172 3500 
L 594 3500 
L 594 4494 
L 1172 4494 
z
" transform="scale(0.015625)"/>
       <path id="DejaVuSans-69" d="M 603 3500 
L 1178 3500 
L 1178 0 
L 603 0 
L 603 3500 
z
M 603 4863 
L 1178 4863 
L 1178 4134 
L 603 4134 
L 603 4863 
z
" transform="scale(0.015625)"/>
       <path id="DejaVuSans-6d" d="M 3328 2828 
Q 3544 3216 3844 3400 
Q 4144 3584 4550 3584 
Q 5097 3584 5394 3201 
Q 5691 2819 5691 2113 
L 5691 0 
L 5113 0 
L 5113 2094 
Q 5113 2597 4934 2840 
Q 4756 3084 4391 3084 
Q 3944 3084 3684 2787 
Q 3425 2491 3425 1978 
L 3425 0 
L 2847 0 
L 2847 2094 
Q 2847 2600 2669 2842 
Q 2491 3084 2119 3084 
Q 1678 3084 1418 2786 
Q 1159 2488 1159 1978 
L 1159 0 
L 581 0 
L 581 3500 
L 1159 3500 
L 1159 2956 
Q 1356 3278 1631 3431 
Q 1906 3584 2284 3584 
Q 2666 3584 2933 3390 
Q 3200 3197 3328 2828 
z
" transform="scale(0.015625)"/>
       <path id="DejaVuSans-65" d="M 3597 1894 
L 3597 1613 
L 953 1613 
Q 991 1019 1311 708 
Q 1631 397 2203 397 
Q 2534 397 2845 478 
Q 3156 559 3463 722 
L 3463 178 
Q 3153 47 2828 -22 
Q 2503 -91 2169 -91 
Q 1331 -91 842 396 
Q 353 884 353 1716 
Q 353 2575 817 3079 
Q 1281 3584 2069 3584 
Q 2775 3584 3186 3129 
Q 3597 2675 3597 1894 
z
M 3022 2063 
Q 3016 2534 2758 2815 
Q 2500 3097 2075 3097 
Q 1594 3097 1305 2825 
Q 1016 2553 972 2059 
L 3022 2063 
z
" transform="scale(0.015625)"/>
       <path id="DejaVuSans-73" d="M 2834 3397 
L 2834 2853 
Q 2591 2978 2328 3040 
Q 2066 3103 1784 3103 
Q 1356 3103 1142 2972 
Q 928 2841 928 2578 
Q 928 2378 1081 2264 
Q 1234 2150 1697 2047 
L 1894 2003 
Q 2506 1872 2764 1633 
Q 3022 1394 3022 966 
Q 3022 478 2636 193 
Q 2250 -91 1575 -91 
Q 1294 -91 989 -36 
Q 684 19 347 128 
L 347 722 
Q 666 556 975 473 
Q 1284 391 1588 391 
Q 1994 391 2212 530 
Q 2431 669 2431 922 
Q 2431 1156 2273 1281 
Q 2116 1406 1581 1522 
L 1381 1569 
Q 847 1681 609 1914 
Q 372 2147 372 2553 
Q 372 3047 722 3315 
Q 1072 3584 1716 3584 
Q 2034 3584 2315 3537 
Q 2597 3491 2834 3397 
z
" transform="scale(0.015625)"/>
       <path id="DejaVuSans-70" d="M 1159 525 
L 1159 -1331 
L 581 -1331 
L 581 3500 
L 1159 3500 
L 1159 2969 
Q 1341 3281 1617 3432 
Q 1894 3584 2278 3584 
Q 2916 3584 3314 3078 
Q 3713 2572 3713 1747 
Q 3713 922 3314 415 
Q 2916 -91 2278 -91 
Q 1894 -91 1617 61 
Q 1341 213 1159 525 
z
M 3116 1747 
Q 3116 2381 2855 2742 
Q 2594 3103 2138 3103 
Q 1681 3103 1420 2742 
Q 1159 2381 1159 1747 
Q 1159 1113 1420 752 
Q 1681 391 2138 391 
Q 2594 391 2855 752 
Q 3116 1113 3116 1747 
z
" transform="scale(0.015625)"/>
      </defs>
      <use xlink:href="#DejaVuSans-74"/>
      <use xlink:href="#DejaVuSans-69" transform="translate(39.208984 0)"/>
      <use xlink:href="#DejaVuSans-6d" transform="translate(66.992188 0)"/>
      <use xlink:href="#DejaVuSans-65" transform="translate(164.404297 0)"/>
      <use xlink:href="#DejaVuSans-73" transform="translate(225.927734 0)"/>
      <use xlink:href="#DejaVuSans-74" transform="translate(278.027344 0)"/>
      <use xlink:href="#DejaVuSans-65" transform="translate(317.236328 0)"/>
      <use xlink:href="#DejaVuSans-70" transform="translate(378.759766 0)"/>
     </g>
    </g>
   </g>
   <g id="matplotlib.axis_2">
    <g id="ytick_1">
     <g id="line2d_7">
      <defs>
       <path id="m1bfecdafc3" d="M 0 0 
L -3.5 0 
" style="stroke: #000000; stroke-width: 0.8"/>
      </defs>
      <g>
       <use xlink:href="#m1bfecdafc3" x="57.6" y="295.489283" style="stroke: #000000; stroke-width: 0.8"/>
      </g>
     </g>
     <g id="text_8">
      <!-- 0.0 -->
      <g transform="translate(31.51625 300.048346) scale(0.12 -0.12)">
       <defs>
        <path id="DejaVuSans-2e" d="M 684 794 
L 1344 794 
L 1344 0 
L 684 0 
L 684 794 
z
" transform="scale(0.015625)"/>
       </defs>
       <use xlink:href="#DejaVuSans-30"/>
       <use xlink:href="#DejaVuSans-2e" transform="translate(63.623047 0)"/>
       <use xlink:href="#DejaVuSans-30" transform="translate(95.410156 0)"/>
      </g>
     </g>
    </g>
    <g id="ytick_2">
     <g id="line2d_8">
      <g>
       <use xlink:href="#m1bfecdafc3" x="57.6" y="247.104944" style="stroke: #000000; stroke-width: 0.8"/>
      </g>
     </g>
     <g id="text_9">
      <!-- 0.2 -->
      <g transform="translate(31.51625 251.664007) scale(0.12 -0.12)">
       <use xlink:href="#DejaVuSans-30"/>
       <use xlink:href="#DejaVuSans-2e" transform="translate(63.623047 0)"/>
       <use xlink:href="#DejaVuSans-32" transform="translate(95.410156 0)"/>
      </g>
     </g>
    </g>
    <g id="ytick_3">
     <g id="line2d_9">
      <g>
       <use xlink:href="#m1bfecdafc3" x="57.6" y="198.720605" style="stroke: #000000; stroke-width: 0.8"/>
      </g>
     </g>
     <g id="text_10">
      <!-- 0.4 -->
      <g transform="translate(31.51625 203.279667) scale(0.12 -0.12)">
       <use xlink:href="#DejaVuSans-30"/>
       <use xlink:href="#DejaVuSans-2e" transform="translate(63.623047 0)"/>
       <use xlink:href="#DejaVuSans-34" transform="translate(95.410156 0)"/>
      </g>
     </g>
    </g>
    <g id="ytick_4">
     <g id="line2d_10">
      <g>
       <use xlink:href="#m1bfecdafc3" x="57.6" y="150.336266" style="stroke: #000000; stroke-width: 0.8"/>
      </g>
     </g>
     <g id="text_11">
      <!-- 0.6 -->
      <g transform="translate(31.51625 154.895328) scale(0.12 -0.12)">
       <use xlink:href="#DejaVuSans-30"/>
       <use xlink:href="#DejaVuSans-2e" transform="translate(63.623047 0)"/>
       <use xlink:href="#DejaVuSans-36" transform="translate(95.410156 0)"/>
      </g>
     </g>
    </g>
    <g id="ytick_5">
     <g id="line2d_11">
      <g>
       <use xlink:href="#m1bfecdafc3" x="57.6" y="101.951927" style="stroke: #000000; stroke-width: 0.8"/>
      </g>
     </g>
     <g id="text_12">
      <!-- 0.8 -->
      <g transform="translate(31.51625 106.510989) scale(0.12 -0.12)">
       <use xlink:href="#DejaVuSans-30"/>
       <use xlink:href="#DejaVuSans-2e" transform="translate(63.623047 0)"/>
       <use xlink:href="#DejaVuSans-38" transform="translate(95.410156 0)"/>
      </g>
     </g>
    </g>
    <g id="ytick_6">
     <g id="line2d_12">
      <g>
       <use xlink:href="#m1bfecdafc3" x="57.6" y="53.567587" style="stroke: #000000; stroke-width: 0.8"/>
      </g>
     </g>
     <g id="text_13">
      <!-- 1.0 -->
      <g transform="translate(31.51625 58.12665) scale(0.12 -0.12)">
       <use xlink:href="#DejaVuSans-31"/>
       <use xlink:href="#DejaVuSans-2e" transform="translate(63.623047 0)"/>
       <use xlink:href="#DejaVuSans-30" transform="translate(95.410156 0)"/>
      </g>
     </g>
    </g>
    <g id="text_14">
     <!-- quantity -->
     <g transform="translate(24.604688 203.710344) rotate(-90) scale(0.14 -0.14)">
      <defs>
       <path id="DejaVuSans-71" d="M 947 1747 
Q 947 1113 1208 752 
Q 1469 391 1925 391 
Q 2381 391 2643 752 
Q 2906 1113 2906 1747 
Q 2906 2381 2643 2742 
Q 2381 3103 1925 3103 
Q 1469 3103 1208 2742 
Q 947 2381 947 1747 
z
M 2906 525 
Q 2725 213 2448 61 
Q 2172 -91 1784 -91 
Q 1150 -91 751 415 
Q 353 922 353 1747 
Q 353 2572 751 3078 
Q 1150 3584 1784 3584 
Q 2172 3584 2448 3432 
Q 2725 3281 2906 2969 
L 2906 3500 
L 3481 3500 
L 3481 -1331 
L 2906 -1331 
L 2906 525 
z
" transform="scale(0.015625)"/>
       <path id="DejaVuSans-75" d="M 544 1381 
L 544 3500 
L 1119 3500 
L 1119 1403 
Q 1119 906 1312 657 
Q 1506 409 1894 409 
Q 2359 409 2629 706 
Q 2900 1003 2900 1516 
L 2900 3500 
L 3475 3500 
L 3475 0 
L 2900 0 
L 2900 538 
Q 2691 219 2414 64 
Q 2138 -91 1772 -91 
Q 1169 -91 856 284 
Q 544 659 544 1381 
z
M 1991 3584 
L 1991 3584 
z
" transform="scale(0.015625)"/>
       <path id="DejaVuSans-61" d="M 2194 1759 
Q 1497 1759 1228 1600 
Q 959 1441 959 1056 
Q 959 750 1161 570 
Q 1363 391 1709 391 
Q 2188 391 2477 730 
Q 2766 1069 2766 1631 
L 2766 1759 
L 2194 1759 
z
M 3341 1997 
L 3341 0 
L 2766 0 
L 2766 531 
Q 2569 213 2275 61 
Q 1981 -91 1556 -91 
Q 1019 -91 701 211 
Q 384 513 384 1019 
Q 384 1609 779 1909 
Q 1175 2209 1959 2209 
L 2766 2209 
L 2766 2266 
Q 2766 2663 2505 2880 
Q 2244 3097 1772 3097 
Q 1472 3097 1187 3025 
Q 903 2953 641 2809 
L 641 3341 
Q 956 3463 1253 3523 
Q 1550 3584 1831 3584 
Q 2591 3584 2966 3190 
Q 3341 2797 3341 1997 
z
" transform="scale(0.015625)"/>
       <path id="DejaVuSans-6e" d="M 3513 2113 
L 3513 0 
L 2938 0 
L 2938 2094 
Q 2938 2591 2744 2837 
Q 2550 3084 2163 3084 
Q 1697 3084 1428 2787 
Q 1159 2491 1159 1978 
L 1159 0 
L 581 0 
L 581 3500 
L 1159 3500 
L 1159 2956 
Q 1366 3272 1645 3428 
Q 1925 3584 2291 3584 
Q 2894 3584 3203 3211 
Q 3513 2838 3513 2113 
z
" transform="scale(0.015625)"/>
       <path id="DejaVuSans-79" d="M 2059 -325 
Q 1816 -950 1584 -1140 
Q 1353 -1331 966 -1331 
L 506 -1331 
L 506 -850 
L 844 -850 
Q 1081 -850 1212 -737 
Q 1344 -625 1503 -206 
L 1606 56 
L 191 3500 
L 800 3500 
L 1894 763 
L 2988 3500 
L 3597 3500 
L 2059 -325 
z
" transform="scale(0.015625)"/>
      </defs>
      <use xlink:href="#DejaVuSans-71"/>
      <use xlink:href="#DejaVuSans-75" transform="translate(63.476562 0)"/>
      <use xlink:href="#DejaVuSans-61" transform="translate(126.855469 0)"/>
      <use xlink:href="#DejaVuSans-6e" transform="translate(188.134766 0)"/>
      <use xlink:href="#DejaVuSans-74" transform="translate(251.513672 0)"/>
      <use xlink:href="#DejaVuSans-69" transform="translate(290.722656 0)"/>
      <use xlink:href="#DejaVuSans-74" transform="translate(318.505859 0)"/>
      <use xlink:href="#DejaVuSans-79" transform="translate(357.714844 0)"/>
     </g>
    </g>
   </g>
   <g id="line2d_13">
    <path d="M 73.832727 260.979011 
L 73.865196 260.884234 
L 73.995071 262.587891 
L 74.384695 267.58376 
L 74.547039 267.970696 
L 74.676914 267.905121 
L 74.936663 268.595495 
L 75.001601 268.472041 
L 75.748381 265.32789 
L 75.878255 264.687315 
L 76.105536 261.091551 
L 76.722442 249.798047 
L 76.75491 249.777351 
L 76.787379 249.868529 
L 76.949723 250.376585 
L 77.891315 260.580294 
L 78.118596 264.89682 
L 78.995251 282.435529 
L 79.612156 289.313434 
L 79.871906 291.755162 
L 80.131655 294.341145 
L 80.196593 294.274298 
L 80.358936 293.353336 
L 81.170654 280.964836 
L 81.462872 274.029373 
L 82.404464 249.088063 
L 83.898025 221.040973 
L 84.0279 220.665332 
L 84.060368 220.679343 
L 84.125306 220.556929 
L 84.320118 219.296717 
L 84.51493 216.195181 
L 85.196773 203.647427 
L 85.52146 200.828342 
L 85.748741 198.566063 
L 86.040959 195.755922 
L 86.26824 194.162816 
L 86.300709 194.231988 
L 86.430583 194.531668 
L 86.463052 194.453568 
L 86.560458 193.532674 
L 87.112426 185.821846 
L 87.242301 185.514541 
L 87.27477 185.64747 
L 87.502051 186.121338 
L 87.599457 185.710366 
L 87.956612 181.985778 
L 88.054018 181.104433 
L 88.118956 181.314189 
L 88.151425 181.384342 
L 88.183893 181.358902 
L 88.281299 180.751316 
L 88.898205 173.598 
L 89.157954 169.968741 
L 89.320298 169.529908 
L 89.482641 168.033908 
L 89.872266 164.325962 
L 89.969672 163.964283 
L 90.002141 163.973575 
L 90.294359 165.804181 
L 90.359296 165.705919 
L 90.489171 164.307273 
L 90.748921 158.343218 
L 91.203483 146.247804 
L 91.235951 146.223882 
L 91.560638 147.873039 
L 91.625576 147.854717 
L 91.722982 147.493956 
L 92.080137 145.365625 
L 92.112606 145.372626 
L 92.404824 146.568576 
L 92.437293 146.505347 
L 92.567168 145.431298 
L 93.054199 137.953774 
L 93.313948 127.449813 
L 93.638635 117.302141 
L 93.963322 113.596192 
L 94.125666 113.291728 
L 94.77504 119.39701 
L 94.969852 120.873758 
L 95.002321 120.817757 
L 95.229602 119.690593 
L 95.359476 119.033444 
L 95.391945 119.043773 
L 95.489351 119.716252 
L 95.684163 121.016757 
L 95.716632 120.963079 
L 95.846507 120.002309 
L 96.2686 115.045296 
L 96.52835 107.466615 
L 96.917974 96.882859 
L 97.210192 95.072025 
L 97.437473 94.70748 
L 97.599817 94.283606 
L 97.697223 94.140822 
L 97.729692 94.192304 
L 97.892035 94.976984 
L 98.184253 95.863084 
L 98.281659 95.822312 
L 98.314128 95.86193 
L 98.671284 96.236244 
L 98.898565 97.46827 
L 99.25572 99.230994 
L 99.288189 99.224186 
L 99.418064 98.81196 
L 99.612876 97.197579 
L 100.067438 92.138388 
L 100.749281 83.506756 
L 101.171374 83.50723 
L 101.723342 84.10995 
L 101.950623 84.815008 
L 101.983091 84.772792 
L 102.340247 83.635934 
L 103.119496 79.406301 
L 103.866276 72.797339 
L 104.2559 70.265538 
L 104.872806 65.97998 
L 105.781929 64.473355 
L 106.26896 64.173418 
L 106.950803 63.07006 
L 107.27549 62.640144 
L 107.502771 62.468356 
L 107.697583 61.885994 
L 108.541769 58.497078 
L 109.191143 58.670075 
L 109.418424 58.115031 
L 109.970392 56.715155 
L 110.26261 56.505617 
L 111.041859 56.322634 
L 111.52889 56.196281 
L 111.950983 56.041595 
L 112.502951 55.471421 
L 112.957512 55.119259 
L 113.379606 55.121054 
L 113.704293 55.034111 
L 114.678354 54.486646 
L 115.360196 54.464547 
L 116.26932 54.30752 
L 117.210912 54.255341 
L 118.964222 54.101565 
L 119.483721 54.052775 
L 120.425314 53.882446 
L 121.594187 53.967732 
L 122.503311 53.823127 
L 124.191683 53.759259 
L 125.100807 53.709878 
L 125.750181 53.917069 
L 126.626836 54.230659 
L 127.178804 54.139899 
L 128.76977 53.722578 
L 129.938643 53.670045 
L 137.114226 53.816433 
L 138.088287 53.841989 
L 139.354567 53.881007 
L 140.426034 54.003735 
L 141.27022 53.870614 
L 142.439093 53.673498 
L 143.607967 53.745988 
L 144.03006 54.185646 
L 144.257341 54.268771 
L 144.452153 54.113833 
L 144.906715 53.670939 
L 145.231402 53.794425 
L 145.491151 53.950511 
L 145.945713 54.581118 
L 145.978182 54.553737 
L 146.140525 54.161507 
L 146.335338 53.869853 
L 146.789899 53.851784 
L 147.569148 54.095082 
L 148.121116 54.607634 
L 148.28346 54.355496 
L 148.543209 54.055104 
L 149.03024 53.909292 
L 149.874426 53.911631 
L 150.718612 53.858955 
L 152.861547 53.659194 
L 155.751261 53.616584 
L 163.02425 53.587842 
L 178.609227 53.585079 
L 295.951114 53.568963 
L 398.487273 53.568181 
L 398.487273 53.568181 
" clip-path="url(#p59bdcf706e)" style="fill: none; stroke: #000000; stroke-width: 1.5; stroke-linecap: square"/>
   </g>
   <g id="line2d_14">
    <path d="M 73.832727 266.040534 
L 74.027539 269.839313 
L 75.26135 295.402456 
L 76.300349 281.118465 
L 77.469222 253.767649 
L 77.566628 253.87859 
L 77.696503 254.757766 
L 78.248471 258.947637 
L 78.638095 265.795402 
L 78.962782 271.370935 
L 79.125126 271.712352 
L 79.190063 271.527784 
L 79.384875 269.828108 
L 79.806968 265.480462 
L 79.871906 265.609335 
L 80.164124 266.661539 
L 80.229061 266.557542 
L 80.423874 264.949175 
L 80.651155 260.974983 
L 81.495341 242.829251 
L 81.560278 242.755361 
L 81.592747 242.789564 
L 81.722622 243.484729 
L 81.949903 247.129814 
L 83.151245 268.683354 
L 83.443463 270.385064 
L 84.417524 274.285937 
L 84.742211 277.575471 
L 85.196773 283.627323 
L 85.456522 285.429098 
L 85.586397 285.517832 
L 85.716272 285.176946 
L 85.911084 284.609708 
L 85.943553 284.64497 
L 86.073428 285.149341 
L 86.235771 286.845523 
L 86.690333 291.53347 
L 86.820208 292.507203 
L 87.112426 295.342051 
L 87.144895 294.959607 
L 87.534519 291.673067 
L 87.826738 290.903711 
L 87.956612 290.868606 
L 88.054018 290.95824 
L 88.086487 290.869597 
L 88.346237 288.378522 
L 88.76833 284.205928 
L 88.963142 283.347791 
L 88.995611 283.440384 
L 89.450173 284.914992 
L 89.547579 284.769046 
L 90.294359 281.748579 
L 90.359296 281.85002 
L 90.683983 282.249438 
L 90.781389 282.132322 
L 90.911264 281.46782 
L 91.300889 278.984343 
L 91.365826 278.95304 
L 91.398295 278.988626 
L 91.495701 279.289858 
L 91.787919 281.294275 
L 92.112606 286.086588 
L 92.697043 295.080582 
L 92.76198 295.454898 
L 92.826918 295.373078 
L 92.891855 295.410422 
L 92.924324 295.477959 
L 92.956792 295.418701 
L 93.216542 294.871299 
L 93.249011 294.883401 
L 93.378886 295.158591 
L 93.443823 295.423872 
L 93.476292 295.132041 
L 93.833447 292.681283 
L 94.288009 290.769751 
L 94.482821 290.722426 
L 94.742571 290.828844 
L 94.872446 290.490596 
L 95.099727 289.013987 
L 95.554289 285.412164 
L 95.619226 285.435744 
L 95.749101 285.982651 
L 95.976382 288.237555 
L 96.398475 293.064558 
L 96.690693 294.009831 
L 96.788099 293.738901 
L 97.177724 291.273508 
L 97.664754 288.673534 
L 97.924504 288.275695 
L 98.281659 288.317672 
L 98.444003 288.760103 
L 98.638815 290.15078 
L 99.02844 295.383163 
L 99.093377 294.74433 
L 99.418064 292.600041 
L 99.77522 291.438735 
L 99.937563 291.315331 
L 100.164844 291.518951 
L 100.327188 292.165605 
L 100.554469 294.220835 
L 100.716812 295.419942 
L 100.749281 295.381839 
L 100.911624 294.938996 
L 101.00903 295.165838 
L 101.073968 295.457135 
L 101.106436 295.343131 
L 101.366186 293.516153 
L 102.01556 288.789611 
L 102.372716 287.234771 
L 102.599997 286.996605 
L 102.76234 287.108618 
L 102.989621 287.774836 
L 104.223432 292.19262 
L 104.645525 293.071724 
L 104.7754 293.070531 
L 105.002681 292.664521 
L 105.294899 291.646831 
L 105.652055 289.620489 
L 106.074148 287.397122 
L 106.52871 286.407747 
L 107.080678 285.789388 
L 107.372896 285.796681 
L 107.632645 286.036476 
L 108.476832 287.435972 
L 108.736581 288.199177 
L 109.061268 290.016193 
L 109.645705 294.857848 
L 109.710642 295.380851 
L 109.77558 295.113934 
L 110.100267 293.570959 
L 110.230142 293.465436 
L 110.26261 293.48835 
L 110.392485 293.771358 
L 110.587297 294.823022 
L 110.652235 295.381979 
L 110.717172 295.002028 
L 111.52889 288.344186 
L 111.788639 287.764559 
L 111.918514 287.836937 
L 112.113326 288.320359 
L 112.438013 289.875377 
L 113.282199 294.158767 
L 113.541949 294.57279 
L 113.704293 294.560604 
L 113.899105 294.297044 
L 114.256261 293.345021 
L 114.840697 291.840214 
L 115.100447 291.676908 
L 115.295259 291.829097 
L 115.587477 292.432668 
L 116.626476 294.988036 
L 116.658944 295.014599 
L 116.723882 294.932206 
L 117.048569 294.47572 
L 118.217442 292.517519 
L 118.50966 292.535274 
L 118.834347 292.795337 
L 119.548659 293.435418 
L 120.003221 293.580987 
L 121.107157 293.760089 
L 121.496781 294.076422 
L 122.146155 295.044539 
L 122.470842 295.476802 
L 122.503311 295.437341 
L 123.02281 294.990228 
L 123.639715 294.595781 
L 124.418964 293.04409 
L 125.100807 292.080624 
L 125.620306 291.704694 
L 126.042399 291.65094 
L 126.561898 291.834721 
L 128.737301 293.110403 
L 129.419144 294.087893 
L 130.295799 295.259314 
L 130.360736 295.322205 
L 130.425674 295.25453 
L 131.367266 294.806268 
L 132.114046 294.695585 
L 133.02317 294.827055 
L 134.256981 294.954476 
L 134.549199 294.448938 
L 135.166104 293.748741 
L 135.685603 293.476186 
L 137.27657 292.921122 
L 137.503851 292.702364 
L 137.990881 291.831015 
L 138.412974 291.48243 
L 139.159755 291.307455 
L 139.841597 291.336161 
L 140.328628 291.5784 
L 140.815658 292.075937 
L 141.497501 293.136107 
L 141.919594 294.603206 
L 142.244281 295.463089 
L 142.27675 295.381871 
L 142.926124 294.08707 
L 145.101527 290.835418 
L 145.296339 290.922784 
L 145.556089 291.384396 
L 146.302869 292.857473 
L 146.660025 293.162659 
L 146.919774 293.105225 
L 147.861367 292.666144 
L 148.121116 292.997903 
L 148.478272 293.904885 
L 148.932834 295.441893 
L 148.997771 295.322178 
L 149.484802 294.092901 
L 149.809489 293.779089 
L 150.069238 293.813332 
L 150.426394 294.146664 
L 151.238111 294.978901 
L 151.627736 295.030571 
L 152.991421 294.896878 
L 153.608327 295.314995 
L 153.900545 295.443805 
L 154.582388 295.095226 
L 155.361637 294.978369 
L 158.478632 294.853633 
L 161.238471 295.064423 
L 166.53087 295.114964 
L 168.121836 295.011735 
L 171.076488 294.778231 
L 173.706453 294.621668 
L 178.446883 294.556811 
L 182.765221 294.563909 
L 189.843397 294.949992 
L 202.116567 294.833867 
L 205.071218 294.86771 
L 213.448143 295.136664 
L 225.688844 294.94121 
L 228.968183 294.920004 
L 235.072299 294.942843 
L 257.021141 294.998381 
L 261.891446 295.023318 
L 269.683934 295.04443 
L 291.600308 295.293424 
L 298.061579 295.401388 
L 303.970883 295.385046 
L 335.627867 295.194691 
L 356.440304 295.131037 
L 361.505422 295.108131 
L 375.986463 295.258724 
L 398.487273 295.255491 
L 398.487273 295.255491 
" clip-path="url(#p59bdcf706e)" style="fill: none; stroke: #ff0000; stroke-width: 1.5; stroke-linecap: square"/>
   </g>
   <g id="patch_3">
    <path d="M 57.6 307.584 
L 57.6 41.472 
" style="fill: none; stroke: #000000; stroke-width: 0.8; stroke-linejoin: miter; stroke-linecap: square"/>
   </g>
   <g id="patch_4">
    <path d="M 414.72 307.584 
L 414.72 41.472 
" style="fill: none; stroke: #000000; stroke-width: 0.8; stroke-linejoin: miter; stroke-linecap: square"/>
   </g>
   <g id="patch_5">
    <path d="M 57.6 307.584 
L 414.72 307.584 
" style="fill: none; stroke: #000000; stroke-width: 0.8; stroke-linejoin: miter; stroke-linecap: square"/>
   </g>
   <g id="patch_6">
    <path d="M 57.6 41.472 
L 414.72 41.472 
" style="fill: none; stroke: #000000; stroke-width: 0.8; stroke-linejoin: miter; stroke-linecap: square"/>
   </g>
   <g id="text_15">
    <!-- Quantities over time -->
    <g transform="translate(143.26875 35.472) scale(0.16 -0.16)">
     <defs>
      <path id="DejaVuSans-Bold-51" d="M 2847 -84 
L 2753 -84 
Q 1600 -84 959 553 
Q 319 1191 319 2328 
Q 319 3463 958 4106 
Q 1597 4750 2719 4750 
Q 3853 4750 4486 4112 
Q 5119 3475 5119 2328 
Q 5119 1541 4783 972 
Q 4447 403 3816 116 
L 4756 -934 
L 3609 -934 
L 2847 -84 
z
M 2719 3878 
Q 2169 3878 1866 3472 
Q 1563 3066 1563 2328 
Q 1563 1578 1859 1179 
Q 2156 781 2719 781 
Q 3272 781 3575 1187 
Q 3878 1594 3878 2328 
Q 3878 3066 3575 3472 
Q 3272 3878 2719 3878 
z
" transform="scale(0.015625)"/>
      <path id="DejaVuSans-Bold-75" d="M 500 1363 
L 500 3500 
L 1625 3500 
L 1625 3150 
Q 1625 2866 1622 2436 
Q 1619 2006 1619 1863 
Q 1619 1441 1641 1255 
Q 1663 1069 1716 984 
Q 1784 875 1895 815 
Q 2006 756 2150 756 
Q 2500 756 2700 1025 
Q 2900 1294 2900 1772 
L 2900 3500 
L 4019 3500 
L 4019 0 
L 2900 0 
L 2900 506 
Q 2647 200 2364 54 
Q 2081 -91 1741 -91 
Q 1134 -91 817 281 
Q 500 653 500 1363 
z
" transform="scale(0.015625)"/>
      <path id="DejaVuSans-Bold-61" d="M 2106 1575 
Q 1756 1575 1579 1456 
Q 1403 1338 1403 1106 
Q 1403 894 1545 773 
Q 1688 653 1941 653 
Q 2256 653 2472 879 
Q 2688 1106 2688 1447 
L 2688 1575 
L 2106 1575 
z
M 3816 1997 
L 3816 0 
L 2688 0 
L 2688 519 
Q 2463 200 2181 54 
Q 1900 -91 1497 -91 
Q 953 -91 614 226 
Q 275 544 275 1050 
Q 275 1666 698 1953 
Q 1122 2241 2028 2241 
L 2688 2241 
L 2688 2328 
Q 2688 2594 2478 2717 
Q 2269 2841 1825 2841 
Q 1466 2841 1156 2769 
Q 847 2697 581 2553 
L 581 3406 
Q 941 3494 1303 3539 
Q 1666 3584 2028 3584 
Q 2975 3584 3395 3211 
Q 3816 2838 3816 1997 
z
" transform="scale(0.015625)"/>
      <path id="DejaVuSans-Bold-6e" d="M 4056 2131 
L 4056 0 
L 2931 0 
L 2931 347 
L 2931 1631 
Q 2931 2084 2911 2256 
Q 2891 2428 2841 2509 
Q 2775 2619 2662 2680 
Q 2550 2741 2406 2741 
Q 2056 2741 1856 2470 
Q 1656 2200 1656 1722 
L 1656 0 
L 538 0 
L 538 3500 
L 1656 3500 
L 1656 2988 
Q 1909 3294 2193 3439 
Q 2478 3584 2822 3584 
Q 3428 3584 3742 3212 
Q 4056 2841 4056 2131 
z
" transform="scale(0.015625)"/>
      <path id="DejaVuSans-Bold-74" d="M 1759 4494 
L 1759 3500 
L 2913 3500 
L 2913 2700 
L 1759 2700 
L 1759 1216 
Q 1759 972 1856 886 
Q 1953 800 2241 800 
L 2816 800 
L 2816 0 
L 1856 0 
Q 1194 0 917 276 
Q 641 553 641 1216 
L 641 2700 
L 84 2700 
L 84 3500 
L 641 3500 
L 641 4494 
L 1759 4494 
z
" transform="scale(0.015625)"/>
      <path id="DejaVuSans-Bold-69" d="M 538 3500 
L 1656 3500 
L 1656 0 
L 538 0 
L 538 3500 
z
M 538 4863 
L 1656 4863 
L 1656 3950 
L 538 3950 
L 538 4863 
z
" transform="scale(0.015625)"/>
      <path id="DejaVuSans-Bold-65" d="M 4031 1759 
L 4031 1441 
L 1416 1441 
Q 1456 1047 1700 850 
Q 1944 653 2381 653 
Q 2734 653 3104 758 
Q 3475 863 3866 1075 
L 3866 213 
Q 3469 63 3072 -14 
Q 2675 -91 2278 -91 
Q 1328 -91 801 392 
Q 275 875 275 1747 
Q 275 2603 792 3093 
Q 1309 3584 2216 3584 
Q 3041 3584 3536 3087 
Q 4031 2591 4031 1759 
z
M 2881 2131 
Q 2881 2450 2695 2645 
Q 2509 2841 2209 2841 
Q 1884 2841 1681 2658 
Q 1478 2475 1428 2131 
L 2881 2131 
z
" transform="scale(0.015625)"/>
      <path id="DejaVuSans-Bold-73" d="M 3272 3391 
L 3272 2541 
Q 2913 2691 2578 2766 
Q 2244 2841 1947 2841 
Q 1628 2841 1473 2761 
Q 1319 2681 1319 2516 
Q 1319 2381 1436 2309 
Q 1553 2238 1856 2203 
L 2053 2175 
Q 2913 2066 3209 1816 
Q 3506 1566 3506 1031 
Q 3506 472 3093 190 
Q 2681 -91 1863 -91 
Q 1516 -91 1145 -36 
Q 775 19 384 128 
L 384 978 
Q 719 816 1070 734 
Q 1422 653 1784 653 
Q 2113 653 2278 743 
Q 2444 834 2444 1013 
Q 2444 1163 2330 1236 
Q 2216 1309 1875 1350 
L 1678 1375 
Q 931 1469 631 1722 
Q 331 1975 331 2491 
Q 331 3047 712 3315 
Q 1094 3584 1881 3584 
Q 2191 3584 2531 3537 
Q 2872 3491 3272 3391 
z
" transform="scale(0.015625)"/>
      <path id="DejaVuSans-Bold-20" transform="scale(0.015625)"/>
      <path id="DejaVuSans-Bold-6f" d="M 2203 2784 
Q 1831 2784 1636 2517 
Q 1441 2250 1441 1747 
Q 1441 1244 1636 976 
Q 1831 709 2203 709 
Q 2569 709 2762 976 
Q 2956 1244 2956 1747 
Q 2956 2250 2762 2517 
Q 2569 2784 2203 2784 
z
M 2203 3584 
Q 3106 3584 3614 3096 
Q 4122 2609 4122 1747 
Q 4122 884 3614 396 
Q 3106 -91 2203 -91 
Q 1297 -91 786 396 
Q 275 884 275 1747 
Q 275 2609 786 3096 
Q 1297 3584 2203 3584 
z
" transform="scale(0.015625)"/>
      <path id="DejaVuSans-Bold-76" d="M 97 3500 
L 1216 3500 
L 2088 1081 
L 2956 3500 
L 4078 3500 
L 2700 0 
L 1472 0 
L 97 3500 
z
" transform="scale(0.015625)"/>
      <path id="DejaVuSans-Bold-72" d="M 3138 2547 
Q 2991 2616 2845 2648 
Q 2700 2681 2553 2681 
Q 2122 2681 1889 2404 
Q 1656 2128 1656 1613 
L 1656 0 
L 538 0 
L 538 3500 
L 1656 3500 
L 1656 2925 
Q 1872 3269 2151 3426 
Q 2431 3584 2822 3584 
Q 2878 3584 2943 3579 
Q 3009 3575 3134 3559 
L 3138 2547 
z
" transform="scale(0.015625)"/>
      <path id="DejaVuSans-Bold-6d" d="M 3781 2919 
Q 3994 3244 4286 3414 
Q 4578 3584 4928 3584 
Q 5531 3584 5847 3212 
Q 6163 2841 6163 2131 
L 6163 0 
L 5038 0 
L 5038 1825 
Q 5041 1866 5042 1909 
Q 5044 1953 5044 2034 
Q 5044 2406 4934 2573 
Q 4825 2741 4581 2741 
Q 4263 2741 4089 2478 
Q 3916 2216 3909 1719 
L 3909 0 
L 2784 0 
L 2784 1825 
Q 2784 2406 2684 2573 
Q 2584 2741 2328 2741 
Q 2006 2741 1831 2477 
Q 1656 2213 1656 1722 
L 1656 0 
L 531 0 
L 531 3500 
L 1656 3500 
L 1656 2988 
Q 1863 3284 2130 3434 
Q 2397 3584 2719 3584 
Q 3081 3584 3359 3409 
Q 3638 3234 3781 2919 
z
" transform="scale(0.015625)"/>
     </defs>
     <use xlink:href="#DejaVuSans-Bold-51"/>
     <use xlink:href="#DejaVuSans-Bold-75" transform="translate(85.009766 0)"/>
     <use xlink:href="#DejaVuSans-Bold-61" transform="translate(156.201172 0)"/>
     <use xlink:href="#DejaVuSans-Bold-6e" transform="translate(223.681641 0)"/>
     <use xlink:href="#DejaVuSans-Bold-74" transform="translate(294.873047 0)"/>
     <use xlink:href="#DejaVuSans-Bold-69" transform="translate(342.675781 0)"/>
     <use xlink:href="#DejaVuSans-Bold-74" transform="translate(376.953125 0)"/>
     <use xlink:href="#DejaVuSans-Bold-69" transform="translate(424.755859 0)"/>
     <use xlink:href="#DejaVuSans-Bold-65" transform="translate(459.033203 0)"/>
     <use xlink:href="#DejaVuSans-Bold-73" transform="translate(526.855469 0)"/>
     <use xlink:href="#DejaVuSans-Bold-20" transform="translate(586.376953 0)"/>
     <use xlink:href="#DejaVuSans-Bold-6f" transform="translate(621.191406 0)"/>
     <use xlink:href="#DejaVuSans-Bold-76" transform="translate(689.892578 0)"/>
     <use xlink:href="#DejaVuSans-Bold-65" transform="translate(755.078125 0)"/>
     <use xlink:href="#DejaVuSans-Bold-72" transform="translate(822.900391 0)"/>
     <use xlink:href="#DejaVuSans-Bold-20" transform="translate(872.216797 0)"/>
     <use xlink:href="#DejaVuSans-Bold-74" transform="translate(907.03125 0)"/>
     <use xlink:href="#DejaVuSans-Bold-69" transform="translate(954.833984 0)"/>
     <use xlink:href="#DejaVuSans-Bold-6d" transform="translate(989.111328 0)"/>
     <use xlink:href="#DejaVuSans-Bold-65" transform="translate(1093.310547 0)"/>
    </g>
   </g>
   <g id="legend_1">
    <g id="patch_7">
     <path d="M 317.646563 190.706125 
L 407.72 190.706125 
Q 409.72 190.706125 409.72 188.706125 
L 409.72 160.349875 
Q 409.72 158.349875 407.72 158.349875 
L 317.646563 158.349875 
Q 315.646563 158.349875 315.646563 160.349875 
L 315.646563 188.706125 
Q 315.646563 190.706125 317.646563 190.706125 
z
" style="fill: #ffffff; opacity: 0.8; stroke: #cccccc; stroke-linejoin: miter"/>
    </g>
    <g id="line2d_15">
     <path d="M 319.646563 166.448312 
L 329.646563 166.448312 
L 339.646563 166.448312 
" style="fill: none; stroke: #000000; stroke-width: 1.5; stroke-linecap: square"/>
    </g>
    <g id="text_16">
     <!-- Polarisation -->
     <g transform="translate(347.646563 169.948312) scale(0.1 -0.1)">
      <defs>
       <path id="DejaVuSans-50" d="M 1259 4147 
L 1259 2394 
L 2053 2394 
Q 2494 2394 2734 2622 
Q 2975 2850 2975 3272 
Q 2975 3691 2734 3919 
Q 2494 4147 2053 4147 
L 1259 4147 
z
M 628 4666 
L 2053 4666 
Q 2838 4666 3239 4311 
Q 3641 3956 3641 3272 
Q 3641 2581 3239 2228 
Q 2838 1875 2053 1875 
L 1259 1875 
L 1259 0 
L 628 0 
L 628 4666 
z
" transform="scale(0.015625)"/>
       <path id="DejaVuSans-6f" d="M 1959 3097 
Q 1497 3097 1228 2736 
Q 959 2375 959 1747 
Q 959 1119 1226 758 
Q 1494 397 1959 397 
Q 2419 397 2687 759 
Q 2956 1122 2956 1747 
Q 2956 2369 2687 2733 
Q 2419 3097 1959 3097 
z
M 1959 3584 
Q 2709 3584 3137 3096 
Q 3566 2609 3566 1747 
Q 3566 888 3137 398 
Q 2709 -91 1959 -91 
Q 1206 -91 779 398 
Q 353 888 353 1747 
Q 353 2609 779 3096 
Q 1206 3584 1959 3584 
z
" transform="scale(0.015625)"/>
       <path id="DejaVuSans-6c" d="M 603 4863 
L 1178 4863 
L 1178 0 
L 603 0 
L 603 4863 
z
" transform="scale(0.015625)"/>
       <path id="DejaVuSans-72" d="M 2631 2963 
Q 2534 3019 2420 3045 
Q 2306 3072 2169 3072 
Q 1681 3072 1420 2755 
Q 1159 2438 1159 1844 
L 1159 0 
L 581 0 
L 581 3500 
L 1159 3500 
L 1159 2956 
Q 1341 3275 1631 3429 
Q 1922 3584 2338 3584 
Q 2397 3584 2469 3576 
Q 2541 3569 2628 3553 
L 2631 2963 
z
" transform="scale(0.015625)"/>
      </defs>
      <use xlink:href="#DejaVuSans-50"/>
      <use xlink:href="#DejaVuSans-6f" transform="translate(56.677734 0)"/>
      <use xlink:href="#DejaVuSans-6c" transform="translate(117.859375 0)"/>
      <use xlink:href="#DejaVuSans-61" transform="translate(145.642578 0)"/>
      <use xlink:href="#DejaVuSans-72" transform="translate(206.921875 0)"/>
      <use xlink:href="#DejaVuSans-69" transform="translate(248.035156 0)"/>
      <use xlink:href="#DejaVuSans-73" transform="translate(275.818359 0)"/>
      <use xlink:href="#DejaVuSans-61" transform="translate(327.917969 0)"/>
      <use xlink:href="#DejaVuSans-74" transform="translate(389.197266 0)"/>
      <use xlink:href="#DejaVuSans-69" transform="translate(428.40625 0)"/>
      <use xlink:href="#DejaVuSans-6f" transform="translate(456.189453 0)"/>
      <use xlink:href="#DejaVuSans-6e" transform="translate(517.371094 0)"/>
     </g>
    </g>
    <g id="line2d_16">
     <path d="M 319.646563 181.126437 
L 329.646563 181.126437 
L 339.646563 181.126437 
" style="fill: none; stroke: #ff0000; stroke-width: 1.5; stroke-linecap: square"/>
    </g>
    <g id="text_17">
     <!-- Momentum -->
     <g transform="translate(347.646563 184.626437) scale(0.1 -0.1)">
      <defs>
       <path id="DejaVuSans-4d" d="M 628 4666 
L 1569 4666 
L 2759 1491 
L 3956 4666 
L 4897 4666 
L 4897 0 
L 4281 0 
L 4281 4097 
L 3078 897 
L 2444 897 
L 1241 4097 
L 1241 0 
L 628 0 
L 628 4666 
z
" transform="scale(0.015625)"/>
      </defs>
      <use xlink:href="#DejaVuSans-4d"/>
      <use xlink:href="#DejaVuSans-6f" transform="translate(86.279297 0)"/>
      <use xlink:href="#DejaVuSans-6d" transform="translate(147.460938 0)"/>
      <use xlink:href="#DejaVuSans-65" transform="translate(244.873047 0)"/>
      <use xlink:href="#DejaVuSans-6e" transform="translate(306.396484 0)"/>
      <use xlink:href="#DejaVuSans-74" transform="translate(369.775391 0)"/>
      <use xlink:href="#DejaVuSans-75" transform="translate(408.984375 0)"/>
      <use xlink:href="#DejaVuSans-6d" transform="translate(472.363281 0)"/>
     </g>
    </g>
   </g>
  </g>
 </g>
 <defs>
  <clipPath id="p59bdcf706e">
   <rect x="57.6" y="41.472" width="357.12" height="266.112"/>
  </clipPath>
 </defs>
</svg>
