<?xml version="1.0" encoding="utf-8" standalone="no"?>
<!DOCTYPE svg PUBLIC "-//W3C//DTD SVG 1.1//EN"
  "http://www.w3.org/Graphics/SVG/1.1/DTD/svg11.dtd">
<svg xmlns:xlink="http://www.w3.org/1999/xlink" width="460.8pt" height="345.6pt" viewBox="0 0 460.8 345.6" xmlns="http://www.w3.org/2000/svg" version="1.1">
 <metadata>
  <rdf:RDF xmlns:dc="http://purl.org/dc/elements/1.1/" xmlns:cc="http://creativecommons.org/ns#" xmlns:rdf="http://www.w3.org/1999/02/22-rdf-syntax-ns#">
   <cc:Work>
    <dc:type rdf:resource="http://purl.org/dc/dcmitype/StillImage"/>
    <dc:date>2025-05-05T11:49:49.609139</dc:date>
    <dc:format>image/svg+xml</dc:format>
    <dc:creator>
     <cc:Agent>
      <dc:title>Matplotlib v3.10.1, https://matplotlib.org/</dc:title>
     </cc:Agent>
    </dc:creator>
   </cc:Work>
  </rdf:RDF>
 </metadata>
 <defs>
  <style type="text/css">*{stroke-linejoin: round; stroke-linecap: butt}</style>
 </defs>
 <g id="figure_1">
  <g id="patch_1">
   <path d="M 0 345.6 
L 460.8 345.6 
L 460.8 0 
L 0 0 
z
" style="fill: #ffffff"/>
  </g>
  <g id="axes_1">
   <g id="patch_2">
    <path d="M 57.6 307.584 
L 414.72 307.584 
L 414.72 41.472 
L 57.6 41.472 
z
" style="fill: #ffffff"/>
   </g>
   <g id="Quiver_1">
    <path d="M 232.565134 109.649554 
L 238.947127 103.281358 
L 236.407091 102.431625 
L 247.424298 96.514652 
L 241.483496 107.519027 
L 240.639262 104.977159 
L 234.257269 111.345355 
L 232.565134 109.649554 
" clip-path="url(#pde5075c378)"/>
    <path d="M 277.022503 129.920789 
L 283.417103 123.4951 
L 280.874104 122.65428 
L 291.870492 116.698706 
L 285.968319 127.723848 
L 285.115175 125.184956 
L 278.720575 131.610645 
L 277.022503 129.920789 
" clip-path="url(#pde5075c378)"/>
    <path d="M 285.523388 66.252851 
L 291.919612 59.849667 
L 289.378198 59.004064 
L 300.38577 53.069186 
L 294.462868 64.083207 
L 293.614502 61.542714 
L 287.218278 67.945898 
L 285.523388 66.252851 
" clip-path="url(#pde5075c378)"/>
    <path d="M 277.073929 179.63276 
L 283.503316 173.193698 
L 280.961726 172.348624 
L 291.968063 166.411456 
L 286.047452 177.426709 
L 285.198558 174.886393 
L 278.769171 181.325455 
L 277.073929 179.63276 
" clip-path="url(#pde5075c378)"/>
    <path d="M 249.822203 129.079236 
L 256.191972 122.720575 
L 253.651759 121.871373 
L 264.667727 115.952093 
L 258.729229 126.957713 
L 257.884462 124.416021 
L 251.514693 130.774683 
L 249.822203 129.079236 
" clip-path="url(#pde5075c378)"/>
    <path d="M 282.940728 154.371127 
L 289.315471 147.951538 
L 286.771565 147.113465 
L 297.761514 141.146016 
L 291.871253 152.177528 
L 291.015367 149.639559 
L 284.640624 156.059148 
L 282.940728 154.371127 
" clip-path="url(#pde5075c378)"/>
    <path d="M 347.439294 200.094323 
L 353.851193 193.681004 
L 351.310146 192.834301 
L 362.320287 186.90419 
L 356.392615 197.915644 
L 355.545349 195.374785 
L 349.133451 201.788105 
L 347.439294 200.094323 
" clip-path="url(#pde5075c378)"/>
    <path d="M 229.17908 79.97253 
L 235.573825 73.594562 
L 233.033986 72.744241 
L 244.052563 66.829818 
L 238.109213 77.832819 
L 237.265567 75.290755 
L 230.870822 81.668723 
L 229.17908 79.97253 
" clip-path="url(#pde5075c378)"/>
    <path d="M 348.482317 136.666772 
L 354.890813 130.253482 
L 352.349543 129.407448 
L 363.358123 123.47444 
L 357.43335 134.487454 
L 356.585415 131.946817 
L 350.17692 138.360107 
L 348.482317 136.666772 
" clip-path="url(#pde5075c378)"/>
    <path d="M 258.964213 89.977 
L 265.359607 83.581337 
L 262.818636 82.734406 
L 273.829309 76.805283 
L 267.90065 87.816206 
L 267.053612 85.27527 
L 260.658218 91.670933 
L 258.964213 89.977 
" clip-path="url(#pde5075c378)"/>
    <path d="M 287.148935 101.521288 
L 293.543102 95.115407 
L 291.001375 94.270749 
L 302.006742 88.331783 
L 296.08793 99.348002 
L 295.23862 96.807825 
L 288.844453 103.213706 
L 287.148935 101.521288 
" clip-path="url(#pde5075c378)"/>
    <path d="M 217.285105 219.457676 
L 223.735613 213.097099 
L 221.200668 212.232299 
L 232.252813 206.380845 
L 226.246777 217.349753 
L 225.41765 214.802917 
L 218.967142 221.163495 
L 217.285105 219.457676 
" clip-path="url(#pde5075c378)"/>
    <path d="M 310.164453 148.202724 
L 316.540121 141.795278 
L 313.99707 140.954613 
L 324.993096 134.998369 
L 319.091594 146.023871 
L 318.238296 143.485031 
L 311.862627 149.892476 
L 310.164453 148.202724 
" clip-path="url(#pde5075c378)"/>
    <path d="M 254.571602 57.382177 
L 260.963328 50.987267 
L 258.422164 50.140915 
L 269.431485 44.209282 
L 263.505336 55.221556 
L 262.657719 52.680814 
L 256.265993 59.075724 
L 254.571602 57.382177 
" clip-path="url(#pde5075c378)"/>
    <path d="M 187.619575 93.9816 
L 194.03517 87.571123 
L 191.494554 86.723125 
L 202.507717 80.798627 
L 196.574433 91.807058 
L 195.728462 89.265767 
L 189.312868 95.676245 
L 187.619575 93.9816 
" clip-path="url(#pde5075c378)"/>
    <path d="M 335.998942 106.184952 
L 342.397664 99.778463 
L 339.856198 98.93302 
L 350.863398 92.997452 
L 344.941186 104.011843 
L 344.09266 101.471404 
L 337.693938 107.877893 
L 335.998942 106.184952 
" clip-path="url(#pde5075c378)"/>
    <path d="M 305.096423 177.412838 
L 311.523082 170.972873 
L 308.981255 170.128517 
L 319.985915 164.188242 
L 314.068414 175.205166 
L 313.218802 172.665089 
L 306.792143 179.105054 
L 305.096423 177.412838 
" clip-path="url(#pde5075c378)"/>
    <path d="M 354.020996 168.359975 
L 360.426256 161.950387 
L 357.885016 161.104261 
L 368.893811 155.171651 
L 362.968639 166.184451 
L 362.120797 163.643784 
L 355.715537 170.053372 
L 354.020996 168.359975 
" clip-path="url(#pde5075c378)"/>
    <path d="M 313.493948 81.902333 
L 319.891484 75.498845 
L 317.350138 74.653042 
L 328.358178 68.719033 
L 322.434406 79.732586 
L 321.586241 77.192026 
L 315.188704 83.595514 
L 313.493948 81.902333 
" clip-path="url(#pde5075c378)"/>
    <path d="M 256.145523 211.094799 
L 262.577438 204.640058 
L 260.034989 203.797576 
L 271.035267 197.84919 
L 265.125889 208.870473 
L 264.274405 206.331024 
L 257.84249 212.785765 
L 256.145523 211.094799 
" clip-path="url(#pde5075c378)"/>
    <path d="M 262.371597 111.285493 
L 268.716481 104.90848 
L 266.173397 104.067916 
L 277.169186 98.111236 
L 271.268121 109.136972 
L 270.414722 106.598166 
L 264.069839 112.975179 
L 262.371597 111.285493 
" clip-path="url(#pde5075c378)"/>
    <path d="M 205.670847 185.432005 
L 212.101791 178.957525 
L 209.557995 178.119117 
L 220.548729 172.153115 
L 214.657016 183.183851 
L 213.801465 180.645769 
L 207.370521 187.12025 
L 205.670847 185.432005 
" clip-path="url(#pde5075c378)"/>
    <path d="M 289.285671 275.994098 
L 295.708285 269.581792 
L 293.168012 268.732767 
L 304.183568 262.812721 
L 298.245836 273.818754 
L 297.400892 271.277121 
L 290.978279 277.689427 
L 289.285671 275.994098 
" clip-path="url(#pde5075c378)"/>
    <path d="M 135.313285 208.261626 
L 141.71508 201.85338 
L 139.1737 201.007675 
L 150.181511 195.073239 
L 144.258166 206.087022 
L 143.409902 203.546495 
L 137.008107 209.954742 
L 135.313285 208.261626 
" clip-path="url(#pde5075c378)"/>
    <path d="M 259.779677 189.391417 
L 266.193193 182.956409 
L 263.650826 182.113676 
L 274.651692 176.166376 
L 268.741226 187.187075 
L 267.889993 184.647542 
L 261.476477 191.08255 
L 259.779677 189.391417 
" clip-path="url(#pde5075c378)"/>
    <path d="M 323.230889 213.723506 
L 329.651842 207.285791 
L 327.109787 206.442119 
L 338.112847 200.498879 
L 332.198314 211.517397 
L 331.348018 208.97755 
L 324.927065 215.415265 
L 323.230889 213.723506 
" clip-path="url(#pde5075c378)"/>
    <path d="M 116.605524 191.222045 
L 123.012214 184.827066 
L 120.472036 183.977758 
L 131.488253 178.058942 
L 125.549292 189.064311 
L 124.704632 186.522584 
L 118.297942 192.917563 
L 116.605524 191.222045 
" clip-path="url(#pde5075c378)"/>
    <path d="M 204.132866 74.521434 
L 210.548966 68.106933 
L 208.008119 67.259632 
L 219.019656 61.332114 
L 213.089392 72.342173 
L 212.242724 69.801114 
L 205.826624 76.215614 
L 204.132866 74.521434 
" clip-path="url(#pde5075c378)"/>
    <path d="M 134.867744 245.83372 
L 141.282557 239.419344 
L 138.741632 238.572273 
L 149.752631 232.643756 
L 143.823366 243.654352 
L 142.976468 241.11337 
L 136.561656 247.527746 
L 134.867744 245.83372 
" clip-path="url(#pde5075c378)"/>
    <path d="M 123.959299 230.196224 
L 130.367935 223.794377 
L 127.827431 222.946046 
L 138.841369 217.022991 
L 132.906644 228.030645 
L 132.061006 225.489243 
L 125.65237 231.891091 
L 123.959299 230.196224 
" clip-path="url(#pde5075c378)"/>
    <path d="M 161.18401 181.517525 
L 167.494524 175.175255 
L 164.951452 174.334651 
L 175.947335 168.378143 
L 170.046098 179.403787 
L 169.192739 176.864967 
L 162.882226 183.207237 
L 161.18401 181.517525 
" clip-path="url(#pde5075c378)"/>
    <path d="M 319.57313 254.262281 
L 325.994018 247.846642 
L 323.453412 246.998618 
L 334.466633 241.07423 
L 328.53324 252.082602 
L 327.687295 249.541303 
L 321.266406 255.956943 
L 319.57313 254.262281 
" clip-path="url(#pde5075c378)"/>
    <path d="M 299.757668 126.495407 
L 306.159387 120.07834 
L 303.617421 119.234399 
L 314.621112 113.292328 
L 308.705409 124.310217 
L 307.855383 121.770279 
L 301.453664 128.187346 
L 299.757668 126.495407 
" clip-path="url(#pde5075c378)"/>
    <path d="M 243.120287 224.839448 
L 249.594561 218.440053 
L 247.058577 217.578304 
L 258.103674 211.713556 
L 252.110839 222.689683 
L 251.278648 220.143846 
L 244.804374 226.543241 
L 243.120287 224.839448 
" clip-path="url(#pde5075c378)"/>
    <path d="M 157.081191 237.086216 
L 163.493419 230.672884 
L 160.952393 229.826118 
L 171.962681 223.89628 
L 166.034737 234.907588 
L 165.187534 232.366707 
L 158.775305 238.780039 
L 157.081191 237.086216 
" clip-path="url(#pde5075c378)"/>
    <path d="M 207.168388 56.837797 
L 213.585195 50.428259 
L 211.044722 49.579835 
L 222.058879 43.657186 
L 216.123748 54.664621 
L 215.278204 52.123188 
L 208.861396 58.532726 
L 207.168388 56.837797 
" clip-path="url(#pde5075c378)"/>
    <path d="M 328.427279 179.793466 
L 334.855994 173.348655 
L 332.313984 172.504848 
L 343.31736 166.562195 
L 337.402241 177.580397 
L 336.55208 175.040504 
L 330.123364 181.485315 
L 328.427279 179.793466 
" clip-path="url(#pde5075c378)"/>
    <path d="M 302.242372 243.700541 
L 308.702244 237.246855 
L 306.161697 236.398653 
L 317.175333 230.475037 
L 311.241169 241.482993 
L 310.395402 238.941635 
L 303.93553 245.395321 
L 302.242372 243.700541 
" clip-path="url(#pde5075c378)"/>
    <path d="M 227.262659 52.720356 
L 233.664677 46.3283 
L 231.124383 45.479337 
L 242.139794 39.559021 
L 236.202332 50.565199 
L 235.357326 48.023587 
L 228.955308 54.415644 
L 227.262659 52.720356 
" clip-path="url(#pde5075c378)"/>
    <path d="M 143.324338 264.246478 
L 149.721593 257.840582 
L 147.180068 256.995312 
L 158.186862 251.058991 
L 152.265404 262.073788 
L 151.416704 259.533407 
L 145.01945 265.939303 
L 143.324338 264.246478 
" clip-path="url(#pde5075c378)"/>
    <path d="M 144.100928 107.925827 
L 150.501593 101.522011 
L 147.960431 100.675651 
L 158.969769 94.74405 
L 153.043588 105.756307 
L 152.195979 103.215562 
L 145.795314 109.619379 
L 144.100928 107.925827 
" clip-path="url(#pde5075c378)"/>
    <path d="M 304.02576 264.412205 
L 310.451225 257.992867 
L 307.910676 257.144671 
L 318.924301 251.221032 
L 312.990158 262.229001 
L 312.144386 259.687644 
L 305.718921 266.106982 
L 304.02576 264.412205 
" clip-path="url(#pde5075c378)"/>
    <path d="M 222.894703 294.640651 
L 229.285762 288.255098 
L 226.745174 287.407019 
L 237.758527 281.482874 
L 231.82489 292.491115 
L 230.979001 289.949797 
L 224.587941 296.335349 
L 222.894703 294.640651 
" clip-path="url(#pde5075c378)"/>
    <path d="M 146.228842 223.637364 
L 152.648363 217.221972 
L 150.107682 216.374171 
L 161.120386 210.448821 
L 155.187954 221.457712 
L 154.341787 218.916486 
L 147.922266 225.331878 
L 146.228842 223.637364 
" clip-path="url(#pde5075c378)"/>
    <path d="M 218.102352 166.863386 
L 224.478027 160.479405 
L 221.936522 159.634075 
L 232.943459 153.698017 
L 227.021736 164.712672 
L 226.173098 162.172271 
L 219.797423 168.556252 
L 218.102352 166.863386 
" clip-path="url(#pde5075c378)"/>
    <path d="M 329.543949 159.70949 
L 335.964811 153.256094 
L 333.421725 152.415533 
L 344.417505 146.458835 
L 338.516458 157.484581 
L 337.663055 154.945776 
L 331.242193 161.399173 
L 329.543949 159.70949 
" clip-path="url(#pde5075c378)"/>
    <path d="M 117.292072 209.893766 
L 123.693225 203.500412 
L 121.152788 202.651879 
L 132.167198 196.7297 
L 126.231596 207.736882 
L 125.386161 205.195413 
L 118.985008 211.588767 
L 117.292072 209.893766 
" clip-path="url(#pde5075c378)"/>
    <path d="M 155.992728 95.385097 
L 162.402529 88.976073 
L 159.861627 88.128934 
L 170.872784 82.200711 
L 164.943225 93.211149 
L 164.096395 90.670144 
L 157.686594 97.079169 
L 155.992728 95.385097 
" clip-path="url(#pde5075c378)"/>
    <path d="M 267.684704 283.03982 
L 274.13111 276.607921 
L 271.591113 275.758074 
L 282.608582 269.84159 
L 276.667291 280.845702 
L 275.82317 278.303797 
L 269.376764 284.735696 
L 267.684704 283.03982 
" clip-path="url(#pde5075c378)"/>
    <path d="M 204.935819 293.452576 
L 211.328469 287.050234 
L 208.786875 286.205174 
L 219.793179 280.267945 
L 213.87263 291.28323 
L 213.023721 288.742919 
L 206.63107 295.145261 
L 204.935819 293.452576 
" clip-path="url(#pde5075c378)"/>
    <path d="M 318.525766 197.068353 
L 324.955749 190.624489 
L 322.413884 189.780245 
L 333.418282 183.839485 
L 327.501267 194.856669 
L 326.651543 192.316631 
L 320.22156 198.760494 
L 318.525766 197.068353 
" clip-path="url(#pde5075c378)"/>
    <path d="M 322.143983 128.871788 
L 328.548812 122.472321 
L 326.008213 121.624272 
L 337.021492 115.699992 
L 331.087991 126.708306 
L 330.242071 124.166999 
L 323.837243 130.566466 
L 322.143983 128.871788 
" clip-path="url(#pde5075c378)"/>
    <path d="M 161.65879 257.922126 
L 168.056183 251.525424 
L 165.515275 250.678303 
L 176.526392 244.750005 
L 170.596908 255.760483 
L 169.75006 253.219484 
L 163.352668 259.616187 
L 161.65879 257.922126 
" clip-path="url(#pde5075c378)"/>
    <path d="M 182.308328 288.366817 
L 188.704853 281.966704 
L 186.163662 281.120432 
L 197.172796 275.188453 
L 191.246994 286.200913 
L 190.399296 283.660198 
L 184.002772 290.060311 
L 182.308328 288.366817 
" clip-path="url(#pde5075c378)"/>
    <path d="M 134.950727 123.086927 
L 141.352664 116.69111 
L 138.812116 115.84291 
L 149.825748 109.919285 
L 143.891592 120.927247 
L 143.045823 118.385888 
L 136.643886 124.781706 
L 134.950727 123.086927 
" clip-path="url(#pde5075c378)"/>
    <path d="M 164.098158 278.765854 
L 170.496787 272.363775 
L 167.955605 271.517475 
L 178.964805 265.585617 
L 173.038882 276.598012 
L 172.191212 274.057287 
L 165.792584 280.459366 
L 164.098158 278.765854 
" clip-path="url(#pde5075c378)"/>
    <path d="M 154.756701 192.725712 
L 161.22757 186.40151 
L 158.696492 185.525457 
L 169.774524 179.723161 
L 163.719816 190.665278 
L 162.902012 188.114784 
L 156.431142 194.438986 
L 154.756701 192.725712 
" clip-path="url(#pde5075c378)"/>
    <path d="M 309.656911 111.955055 
L 316.060624 105.547155 
L 313.519394 104.701001 
L 324.528254 98.768512 
L 318.602961 109.781247 
L 317.755146 107.240571 
L 311.351433 113.64847 
L 309.656911 111.955055 
" clip-path="url(#pde5075c378)"/>
    <path d="M 315.614619 230.250798 
L 322.053159 223.801931 
L 319.511527 222.956983 
L 330.51757 217.01927 
L 324.597505 228.034815 
L 323.748485 225.494541 
L 317.309945 231.943409 
L 315.614619 230.250798 
" clip-path="url(#pde5075c378)"/>
    <path d="M 165.97524 80.088642 
L 172.386976 73.682675 
L 169.846404 72.834547 
L 180.859869 66.910612 
L 174.926023 77.91874 
L 174.080182 75.377406 
L 167.668447 81.783373 
L 165.97524 80.088642 
" clip-path="url(#pde5075c378)"/>
    <path d="M 184.769486 66.56191 
L 191.179577 60.155947 
L 188.638897 59.308144 
L 199.651604 53.382801 
L 193.719166 64.391688 
L 192.873 61.850462 
L 186.462909 68.256424 
L 184.769486 66.56191 
" clip-path="url(#pde5075c378)"/>
    <path d="M 175.341095 247.127725 
L 181.73807 240.723379 
L 179.19663 239.877858 
L 190.204012 233.942629 
L 184.281461 244.956838 
L 183.433014 242.416373 
L 177.036038 248.820718 
L 175.341095 247.127725 
" clip-path="url(#pde5075c378)"/>
    <path d="M 342.879564 225.123545 
L 349.292646 218.71064 
L 346.751705 217.86362 
L 357.762584 211.934881 
L 351.833541 222.945597 
L 350.986592 220.404632 
L 344.57351 226.817537 
L 342.879564 225.123545 
" clip-path="url(#pde5075c378)"/>
    <path d="M 249.208836 280.187795 
L 255.658734 273.789631 
L 253.121212 272.932422 
L 264.155793 267.047914 
L 258.182615 278.03475 
L 257.345868 275.490407 
L 250.895971 281.888571 
L 249.208836 280.187795 
" clip-path="url(#pde5075c378)"/>
    <path d="M 184.647962 263.180305 
L 191.055685 256.764163 
L 188.514177 255.918847 
L 199.52108 249.982729 
L 193.599418 260.997416 
L 192.750766 258.457019 
L 186.343042 264.873161 
L 184.647962 263.180305 
" clip-path="url(#pde5075c378)"/>
    <path d="M 211.869306 99.015978 
L 218.270658 92.62502 
L 215.730394 91.775971 
L 226.746005 85.856029 
L 220.80817 96.862006 
L 219.96325 94.320365 
L 213.561898 100.711322 
L 211.869306 99.015978 
" clip-path="url(#pde5075c378)"/>
    <path d="M 197.916847 276.03044 
L 204.304215 269.624417 
L 201.762029 268.781139 
L 212.76417 262.836199 
L 206.851341 273.85563 
L 206.000652 271.315914 
L 199.613284 277.721937 
L 197.916847 276.03044 
" clip-path="url(#pde5075c378)"/>
    <path d="M 199.221536 235.522677 
L 205.648066 229.147647 
L 203.11054 228.290447 
L 214.145101 222.405901 
L 208.171962 233.392757 
L 207.335206 230.848417 
L 200.908676 237.223447 
L 199.221536 235.522677 
" clip-path="url(#pde5075c378)"/>
    <path d="M 332.451034 240.037537 
L 338.865367 233.623108 
L 336.324407 232.776143 
L 347.335161 226.847169 
L 341.406352 237.858011 
L 340.559349 235.317064 
L 334.145016 241.731493 
L 332.451034 240.037537 
" clip-path="url(#pde5075c378)"/>
    <path d="M 204.516488 113.855189 
L 210.915362 107.461832 
L 208.374774 106.613752 
L 219.388128 100.68961 
L 213.454489 111.69785 
L 212.6086 109.156531 
L 206.209727 115.549889 
L 204.516488 113.855189 
" clip-path="url(#pde5075c378)"/>
    <path d="M 268.813857 249.587738 
L 275.277914 243.136558 
L 272.737807 242.28704 
L 283.75451 236.36913 
L 277.814644 247.374011 
L 276.970194 244.832215 
L 270.506136 251.283395 
L 268.813857 249.587738 
" clip-path="url(#pde5075c378)"/>
    <path d="M 288.456656 211.66866 
L 294.883327 205.227181 
L 292.3414 204.383121 
L 303.345367 198.441562 
L 297.429152 209.459176 
L 296.579244 206.919199 
L 290.152574 213.360679 
L 288.456656 211.66866 
" clip-path="url(#pde5075c378)"/>
    <path d="M 227.574273 251.368467 
L 234.006014 245.005216 
L 231.469631 244.144643 
L 242.512007 238.274775 
L 236.524262 249.253679 
L 235.690891 246.708228 
L 229.25915 253.071479 
L 227.574273 251.368467 
" clip-path="url(#pde5075c378)"/>
    <path d="M 249.03486 160.578911 
L 255.397855 154.212515 
L 252.856675 153.366209 
L 263.865889 147.434376 
L 257.93994 158.446758 
L 257.092277 155.906031 
L 250.729282 162.272427 
L 249.03486 160.578911 
" clip-path="url(#pde5075c378)"/>
    <path d="M 184.68044 208.358209 
L 191.139016 201.967555 
L 188.602575 201.107151 
L 199.644559 195.236546 
L 193.657548 206.21585 
L 192.824007 203.670455 
L 186.365431 210.061109 
L 184.68044 208.358209 
" clip-path="url(#pde5075c378)"/>
    <path d="M 229.735018 191.896208 
L 236.094663 185.537012 
L 233.553739 184.689938 
L 244.564747 178.761435 
L 238.635466 189.772024 
L 237.788572 187.23104 
L 231.428927 193.590236 
L 229.735018 191.896208 
" clip-path="url(#pde5075c378)"/>
    <path d="M 173.37377 127.903414 
L 179.770945 121.498698 
L 177.229493 120.653211 
L 188.236797 114.717835 
L 182.314393 125.732123 
L 181.465912 123.191669 
L 175.068737 129.596385 
L 173.37377 127.903414 
" clip-path="url(#pde5075c378)"/>
    <path d="M 215.048521 140.368332 
L 221.409698 134.001102 
L 218.868342 133.155326 
L 229.876319 127.221199 
L 223.952665 138.234815 
L 223.104472 135.694265 
L 216.743295 142.061495 
L 215.048521 140.368332 
" clip-path="url(#pde5075c378)"/>
    <path d="M 140.484469 157.076855 
L 146.875431 150.690073 
L 144.334755 149.842257 
L 155.347492 143.916969 
L 149.414998 154.925826 
L 148.568845 152.384596 
L 142.177883 158.771378 
L 140.484469 157.076855 
" clip-path="url(#pde5075c378)"/>
    <path d="M 186.315768 167.562246 
L 192.651471 161.20881 
L 190.109336 160.365377 
L 201.111838 154.421105 
L 195.19834 165.440177 
L 194.347805 162.90041 
L 188.012102 169.253846 
L 186.315768 167.562246 
" clip-path="url(#pde5075c378)"/>
   </g>
   <g id="matplotlib.axis_1">
    <g id="xtick_1">
     <g id="line2d_1">
      <defs>
       <path id="m0433aa20ee" d="M 0 0 
L 0 3.5 
" style="stroke: #000000; stroke-width: 0.8"/>
      </defs>
      <g>
       <use xlink:href="#m0433aa20ee" x="79.774599" y="307.584" style="stroke: #000000; stroke-width: 0.8"/>
      </g>
     </g>
     <g id="text_1">
      <!-- 84.5 -->
      <g transform="translate(66.415224 323.702125) scale(0.12 -0.12)">
       <defs>
        <path id="DejaVuSans-38" d="M 2034 2216 
Q 1584 2216 1326 1975 
Q 1069 1734 1069 1313 
Q 1069 891 1326 650 
Q 1584 409 2034 409 
Q 2484 409 2743 651 
Q 3003 894 3003 1313 
Q 3003 1734 2745 1975 
Q 2488 2216 2034 2216 
z
M 1403 2484 
Q 997 2584 770 2862 
Q 544 3141 544 3541 
Q 544 4100 942 4425 
Q 1341 4750 2034 4750 
Q 2731 4750 3128 4425 
Q 3525 4100 3525 3541 
Q 3525 3141 3298 2862 
Q 3072 2584 2669 2484 
Q 3125 2378 3379 2068 
Q 3634 1759 3634 1313 
Q 3634 634 3220 271 
Q 2806 -91 2034 -91 
Q 1263 -91 848 271 
Q 434 634 434 1313 
Q 434 1759 690 2068 
Q 947 2378 1403 2484 
z
M 1172 3481 
Q 1172 3119 1398 2916 
Q 1625 2713 2034 2713 
Q 2441 2713 2670 2916 
Q 2900 3119 2900 3481 
Q 2900 3844 2670 4047 
Q 2441 4250 2034 4250 
Q 1625 4250 1398 4047 
Q 1172 3844 1172 3481 
z
" transform="scale(0.015625)"/>
        <path id="DejaVuSans-34" d="M 2419 4116 
L 825 1625 
L 2419 1625 
L 2419 4116 
z
M 2253 4666 
L 3047 4666 
L 3047 1625 
L 3713 1625 
L 3713 1100 
L 3047 1100 
L 3047 0 
L 2419 0 
L 2419 1100 
L 313 1100 
L 313 1709 
L 2253 4666 
z
" transform="scale(0.015625)"/>
        <path id="DejaVuSans-2e" d="M 684 794 
L 1344 794 
L 1344 0 
L 684 0 
L 684 794 
z
" transform="scale(0.015625)"/>
        <path id="DejaVuSans-35" d="M 691 4666 
L 3169 4666 
L 3169 4134 
L 1269 4134 
L 1269 2991 
Q 1406 3038 1543 3061 
Q 1681 3084 1819 3084 
Q 2600 3084 3056 2656 
Q 3513 2228 3513 1497 
Q 3513 744 3044 326 
Q 2575 -91 1722 -91 
Q 1428 -91 1123 -41 
Q 819 9 494 109 
L 494 744 
Q 775 591 1075 516 
Q 1375 441 1709 441 
Q 2250 441 2565 725 
Q 2881 1009 2881 1497 
Q 2881 1984 2565 2268 
Q 2250 2553 1709 2553 
Q 1456 2553 1204 2497 
Q 953 2441 691 2322 
L 691 4666 
z
" transform="scale(0.015625)"/>
       </defs>
       <use xlink:href="#DejaVuSans-38"/>
       <use xlink:href="#DejaVuSans-34" transform="translate(63.623047 0)"/>
       <use xlink:href="#DejaVuSans-2e" transform="translate(127.246094 0)"/>
       <use xlink:href="#DejaVuSans-35" transform="translate(159.033203 0)"/>
      </g>
     </g>
    </g>
    <g id="xtick_2">
     <g id="line2d_2">
      <g>
       <use xlink:href="#m0433aa20ee" x="140.295565" y="307.584" style="stroke: #000000; stroke-width: 0.8"/>
      </g>
     </g>
     <g id="text_2">
      <!-- 85.0 -->
      <g transform="translate(126.93619 323.702125) scale(0.12 -0.12)">
       <defs>
        <path id="DejaVuSans-30" d="M 2034 4250 
Q 1547 4250 1301 3770 
Q 1056 3291 1056 2328 
Q 1056 1369 1301 889 
Q 1547 409 2034 409 
Q 2525 409 2770 889 
Q 3016 1369 3016 2328 
Q 3016 3291 2770 3770 
Q 2525 4250 2034 4250 
z
M 2034 4750 
Q 2819 4750 3233 4129 
Q 3647 3509 3647 2328 
Q 3647 1150 3233 529 
Q 2819 -91 2034 -91 
Q 1250 -91 836 529 
Q 422 1150 422 2328 
Q 422 3509 836 4129 
Q 1250 4750 2034 4750 
z
" transform="scale(0.015625)"/>
       </defs>
       <use xlink:href="#DejaVuSans-38"/>
       <use xlink:href="#DejaVuSans-35" transform="translate(63.623047 0)"/>
       <use xlink:href="#DejaVuSans-2e" transform="translate(127.246094 0)"/>
       <use xlink:href="#DejaVuSans-30" transform="translate(159.033203 0)"/>
      </g>
     </g>
    </g>
    <g id="xtick_3">
     <g id="line2d_3">
      <g>
       <use xlink:href="#m0433aa20ee" x="200.816532" y="307.584" style="stroke: #000000; stroke-width: 0.8"/>
      </g>
     </g>
     <g id="text_3">
      <!-- 85.5 -->
      <g transform="translate(187.457157 323.702125) scale(0.12 -0.12)">
       <use xlink:href="#DejaVuSans-38"/>
       <use xlink:href="#DejaVuSans-35" transform="translate(63.623047 0)"/>
       <use xlink:href="#DejaVuSans-2e" transform="translate(127.246094 0)"/>
       <use xlink:href="#DejaVuSans-35" transform="translate(159.033203 0)"/>
      </g>
     </g>
    </g>
    <g id="xtick_4">
     <g id="line2d_4">
      <g>
       <use xlink:href="#m0433aa20ee" x="261.337498" y="307.584" style="stroke: #000000; stroke-width: 0.8"/>
      </g>
     </g>
     <g id="text_4">
      <!-- 86.0 -->
      <g transform="translate(247.978123 323.702125) scale(0.12 -0.12)">
       <defs>
        <path id="DejaVuSans-36" d="M 2113 2584 
Q 1688 2584 1439 2293 
Q 1191 2003 1191 1497 
Q 1191 994 1439 701 
Q 1688 409 2113 409 
Q 2538 409 2786 701 
Q 3034 994 3034 1497 
Q 3034 2003 2786 2293 
Q 2538 2584 2113 2584 
z
M 3366 4563 
L 3366 3988 
Q 3128 4100 2886 4159 
Q 2644 4219 2406 4219 
Q 1781 4219 1451 3797 
Q 1122 3375 1075 2522 
Q 1259 2794 1537 2939 
Q 1816 3084 2150 3084 
Q 2853 3084 3261 2657 
Q 3669 2231 3669 1497 
Q 3669 778 3244 343 
Q 2819 -91 2113 -91 
Q 1303 -91 875 529 
Q 447 1150 447 2328 
Q 447 3434 972 4092 
Q 1497 4750 2381 4750 
Q 2619 4750 2861 4703 
Q 3103 4656 3366 4563 
z
" transform="scale(0.015625)"/>
       </defs>
       <use xlink:href="#DejaVuSans-38"/>
       <use xlink:href="#DejaVuSans-36" transform="translate(63.623047 0)"/>
       <use xlink:href="#DejaVuSans-2e" transform="translate(127.246094 0)"/>
       <use xlink:href="#DejaVuSans-30" transform="translate(159.033203 0)"/>
      </g>
     </g>
    </g>
    <g id="xtick_5">
     <g id="line2d_5">
      <g>
       <use xlink:href="#m0433aa20ee" x="321.858465" y="307.584" style="stroke: #000000; stroke-width: 0.8"/>
      </g>
     </g>
     <g id="text_5">
      <!-- 86.5 -->
      <g transform="translate(308.49909 323.702125) scale(0.12 -0.12)">
       <use xlink:href="#DejaVuSans-38"/>
       <use xlink:href="#DejaVuSans-36" transform="translate(63.623047 0)"/>
       <use xlink:href="#DejaVuSans-2e" transform="translate(127.246094 0)"/>
       <use xlink:href="#DejaVuSans-35" transform="translate(159.033203 0)"/>
      </g>
     </g>
    </g>
    <g id="xtick_6">
     <g id="line2d_6">
      <g>
       <use xlink:href="#m0433aa20ee" x="382.379431" y="307.584" style="stroke: #000000; stroke-width: 0.8"/>
      </g>
     </g>
     <g id="text_6">
      <!-- 87.0 -->
      <g transform="translate(369.020056 323.702125) scale(0.12 -0.12)">
       <defs>
        <path id="DejaVuSans-37" d="M 525 4666 
L 3525 4666 
L 3525 4397 
L 1831 0 
L 1172 0 
L 2766 4134 
L 525 4134 
L 525 4666 
z
" transform="scale(0.015625)"/>
       </defs>
       <use xlink:href="#DejaVuSans-38"/>
       <use xlink:href="#DejaVuSans-37" transform="translate(63.623047 0)"/>
       <use xlink:href="#DejaVuSans-2e" transform="translate(127.246094 0)"/>
       <use xlink:href="#DejaVuSans-30" transform="translate(159.033203 0)"/>
      </g>
     </g>
    </g>
    <g id="text_7">
     <!-- x -->
     <g transform="translate(232.016875 340.835562) scale(0.14 -0.14)">
      <defs>
       <path id="DejaVuSans-78" d="M 3513 3500 
L 2247 1797 
L 3578 0 
L 2900 0 
L 1881 1375 
L 863 0 
L 184 0 
L 1544 1831 
L 300 3500 
L 978 3500 
L 1906 2253 
L 2834 3500 
L 3513 3500 
z
" transform="scale(0.015625)"/>
      </defs>
      <use xlink:href="#DejaVuSans-78"/>
     </g>
    </g>
   </g>
   <g id="matplotlib.axis_2">
    <g id="ytick_1">
     <g id="line2d_7">
      <defs>
       <path id="m91911354b1" d="M 0 0 
L -3.5 0 
" style="stroke: #000000; stroke-width: 0.8"/>
      </defs>
      <g>
       <use xlink:href="#m91911354b1" x="57.6" y="299.072229" style="stroke: #000000; stroke-width: 0.8"/>
      </g>
     </g>
     <g id="text_8">
      <!-- 85.75 -->
      <g transform="translate(16.24625 303.631291) scale(0.12 -0.12)">
       <use xlink:href="#DejaVuSans-38"/>
       <use xlink:href="#DejaVuSans-35" transform="translate(63.623047 0)"/>
       <use xlink:href="#DejaVuSans-2e" transform="translate(127.246094 0)"/>
       <use xlink:href="#DejaVuSans-37" transform="translate(159.033203 0)"/>
       <use xlink:href="#DejaVuSans-35" transform="translate(222.65625 0)"/>
      </g>
     </g>
    </g>
    <g id="ytick_2">
     <g id="line2d_8">
      <g>
       <use xlink:href="#m91911354b1" x="57.6" y="268.811745" style="stroke: #000000; stroke-width: 0.8"/>
      </g>
     </g>
     <g id="text_9">
      <!-- 86.00 -->
      <g transform="translate(16.24625 273.370808) scale(0.12 -0.12)">
       <use xlink:href="#DejaVuSans-38"/>
       <use xlink:href="#DejaVuSans-36" transform="translate(63.623047 0)"/>
       <use xlink:href="#DejaVuSans-2e" transform="translate(127.246094 0)"/>
       <use xlink:href="#DejaVuSans-30" transform="translate(159.033203 0)"/>
       <use xlink:href="#DejaVuSans-30" transform="translate(222.65625 0)"/>
      </g>
     </g>
    </g>
    <g id="ytick_3">
     <g id="line2d_9">
      <g>
       <use xlink:href="#m91911354b1" x="57.6" y="238.551262" style="stroke: #000000; stroke-width: 0.8"/>
      </g>
     </g>
     <g id="text_10">
      <!-- 86.25 -->
      <g transform="translate(16.24625 243.110325) scale(0.12 -0.12)">
       <defs>
        <path id="DejaVuSans-32" d="M 1228 531 
L 3431 531 
L 3431 0 
L 469 0 
L 469 531 
Q 828 903 1448 1529 
Q 2069 2156 2228 2338 
Q 2531 2678 2651 2914 
Q 2772 3150 2772 3378 
Q 2772 3750 2511 3984 
Q 2250 4219 1831 4219 
Q 1534 4219 1204 4116 
Q 875 4013 500 3803 
L 500 4441 
Q 881 4594 1212 4672 
Q 1544 4750 1819 4750 
Q 2544 4750 2975 4387 
Q 3406 4025 3406 3419 
Q 3406 3131 3298 2873 
Q 3191 2616 2906 2266 
Q 2828 2175 2409 1742 
Q 1991 1309 1228 531 
z
" transform="scale(0.015625)"/>
       </defs>
       <use xlink:href="#DejaVuSans-38"/>
       <use xlink:href="#DejaVuSans-36" transform="translate(63.623047 0)"/>
       <use xlink:href="#DejaVuSans-2e" transform="translate(127.246094 0)"/>
       <use xlink:href="#DejaVuSans-32" transform="translate(159.033203 0)"/>
       <use xlink:href="#DejaVuSans-35" transform="translate(222.65625 0)"/>
      </g>
     </g>
    </g>
    <g id="ytick_4">
     <g id="line2d_10">
      <g>
       <use xlink:href="#m91911354b1" x="57.6" y="208.290779" style="stroke: #000000; stroke-width: 0.8"/>
      </g>
     </g>
     <g id="text_11">
      <!-- 86.50 -->
      <g transform="translate(16.24625 212.849841) scale(0.12 -0.12)">
       <use xlink:href="#DejaVuSans-38"/>
       <use xlink:href="#DejaVuSans-36" transform="translate(63.623047 0)"/>
       <use xlink:href="#DejaVuSans-2e" transform="translate(127.246094 0)"/>
       <use xlink:href="#DejaVuSans-35" transform="translate(159.033203 0)"/>
       <use xlink:href="#DejaVuSans-30" transform="translate(222.65625 0)"/>
      </g>
     </g>
    </g>
    <g id="ytick_5">
     <g id="line2d_11">
      <g>
       <use xlink:href="#m91911354b1" x="57.6" y="178.030296" style="stroke: #000000; stroke-width: 0.8"/>
      </g>
     </g>
     <g id="text_12">
      <!-- 86.75 -->
      <g transform="translate(16.24625 182.589358) scale(0.12 -0.12)">
       <use xlink:href="#DejaVuSans-38"/>
       <use xlink:href="#DejaVuSans-36" transform="translate(63.623047 0)"/>
       <use xlink:href="#DejaVuSans-2e" transform="translate(127.246094 0)"/>
       <use xlink:href="#DejaVuSans-37" transform="translate(159.033203 0)"/>
       <use xlink:href="#DejaVuSans-35" transform="translate(222.65625 0)"/>
      </g>
     </g>
    </g>
    <g id="ytick_6">
     <g id="line2d_12">
      <g>
       <use xlink:href="#m91911354b1" x="57.6" y="147.769812" style="stroke: #000000; stroke-width: 0.8"/>
      </g>
     </g>
     <g id="text_13">
      <!-- 87.00 -->
      <g transform="translate(16.24625 152.328875) scale(0.12 -0.12)">
       <use xlink:href="#DejaVuSans-38"/>
       <use xlink:href="#DejaVuSans-37" transform="translate(63.623047 0)"/>
       <use xlink:href="#DejaVuSans-2e" transform="translate(127.246094 0)"/>
       <use xlink:href="#DejaVuSans-30" transform="translate(159.033203 0)"/>
       <use xlink:href="#DejaVuSans-30" transform="translate(222.65625 0)"/>
      </g>
     </g>
    </g>
    <g id="ytick_7">
     <g id="line2d_13">
      <g>
       <use xlink:href="#m91911354b1" x="57.6" y="117.509329" style="stroke: #000000; stroke-width: 0.8"/>
      </g>
     </g>
     <g id="text_14">
      <!-- 87.25 -->
      <g transform="translate(16.24625 122.068392) scale(0.12 -0.12)">
       <use xlink:href="#DejaVuSans-38"/>
       <use xlink:href="#DejaVuSans-37" transform="translate(63.623047 0)"/>
       <use xlink:href="#DejaVuSans-2e" transform="translate(127.246094 0)"/>
       <use xlink:href="#DejaVuSans-32" transform="translate(159.033203 0)"/>
       <use xlink:href="#DejaVuSans-35" transform="translate(222.65625 0)"/>
      </g>
     </g>
    </g>
    <g id="ytick_8">
     <g id="line2d_14">
      <g>
       <use xlink:href="#m91911354b1" x="57.6" y="87.248846" style="stroke: #000000; stroke-width: 0.8"/>
      </g>
     </g>
     <g id="text_15">
      <!-- 87.50 -->
      <g transform="translate(16.24625 91.807909) scale(0.12 -0.12)">
       <use xlink:href="#DejaVuSans-38"/>
       <use xlink:href="#DejaVuSans-37" transform="translate(63.623047 0)"/>
       <use xlink:href="#DejaVuSans-2e" transform="translate(127.246094 0)"/>
       <use xlink:href="#DejaVuSans-35" transform="translate(159.033203 0)"/>
       <use xlink:href="#DejaVuSans-30" transform="translate(222.65625 0)"/>
      </g>
     </g>
    </g>
    <g id="ytick_9">
     <g id="line2d_15">
      <g>
       <use xlink:href="#m91911354b1" x="57.6" y="56.988363" style="stroke: #000000; stroke-width: 0.8"/>
      </g>
     </g>
     <g id="text_16">
      <!-- 87.75 -->
      <g transform="translate(16.24625 61.547425) scale(0.12 -0.12)">
       <use xlink:href="#DejaVuSans-38"/>
       <use xlink:href="#DejaVuSans-37" transform="translate(63.623047 0)"/>
       <use xlink:href="#DejaVuSans-2e" transform="translate(127.246094 0)"/>
       <use xlink:href="#DejaVuSans-37" transform="translate(159.033203 0)"/>
       <use xlink:href="#DejaVuSans-35" transform="translate(222.65625 0)"/>
      </g>
     </g>
    </g>
    <g id="text_17">
     <!-- y -->
     <g transform="translate(9.334688 178.671125) rotate(-90) scale(0.14 -0.14)">
      <defs>
       <path id="DejaVuSans-79" d="M 2059 -325 
Q 1816 -950 1584 -1140 
Q 1353 -1331 966 -1331 
L 506 -1331 
L 506 -850 
L 844 -850 
Q 1081 -850 1212 -737 
Q 1344 -625 1503 -206 
L 1606 56 
L 191 3500 
L 800 3500 
L 1894 763 
L 2988 3500 
L 3597 3500 
L 2059 -325 
z
" transform="scale(0.015625)"/>
      </defs>
      <use xlink:href="#DejaVuSans-79"/>
     </g>
    </g>
   </g>
   <g id="line2d_16">
    <defs>
     <path id="md70a73293e" d="M 0 3 
C 0.795609 3 1.55874 2.683901 2.12132 2.12132 
C 2.683901 1.55874 3 0.795609 3 0 
C 3 -0.795609 2.683901 -1.55874 2.12132 -2.12132 
C 1.55874 -2.683901 0.795609 -3 0 -3 
C -0.795609 -3 -1.55874 -2.683901 -2.12132 -2.12132 
C -2.683901 -1.55874 -3 -0.795609 -3 0 
C -3 0.795609 -2.683901 1.55874 -2.12132 2.12132 
C -1.55874 2.683901 -0.795609 3 0 3 
z
" style="stroke: #0000ff"/>
    </defs>
    <g clip-path="url(#pde5075c378)">
     <use xlink:href="#md70a73293e" x="233.411201" y="110.497455" style="fill: #0000ff; stroke: #0000ff"/>
     <use xlink:href="#md70a73293e" x="277.871539" y="130.765717" style="fill: #0000ff; stroke: #0000ff"/>
     <use xlink:href="#md70a73293e" x="286.370833" y="67.099374" style="fill: #0000ff; stroke: #0000ff"/>
     <use xlink:href="#md70a73293e" x="277.92155" y="180.479107" style="fill: #0000ff; stroke: #0000ff"/>
     <use xlink:href="#md70a73293e" x="250.668448" y="129.926959" style="fill: #0000ff; stroke: #0000ff"/>
     <use xlink:href="#md70a73293e" x="283.790676" y="155.215137" style="fill: #0000ff; stroke: #0000ff"/>
     <use xlink:href="#md70a73293e" x="348.286372" y="200.941214" style="fill: #0000ff; stroke: #0000ff"/>
     <use xlink:href="#md70a73293e" x="230.024951" y="80.820626" style="fill: #0000ff; stroke: #0000ff"/>
     <use xlink:href="#md70a73293e" x="349.329618" y="137.51344" style="fill: #0000ff; stroke: #0000ff"/>
     <use xlink:href="#md70a73293e" x="259.811216" y="90.823966" style="fill: #0000ff; stroke: #0000ff"/>
     <use xlink:href="#md70a73293e" x="287.996694" y="102.367497" style="fill: #0000ff; stroke: #0000ff"/>
     <use xlink:href="#md70a73293e" x="218.126123" y="220.310586" style="fill: #0000ff; stroke: #0000ff"/>
     <use xlink:href="#md70a73293e" x="311.01354" y="149.0476" style="fill: #0000ff; stroke: #0000ff"/>
     <use xlink:href="#md70a73293e" x="255.418798" y="58.22895" style="fill: #0000ff; stroke: #0000ff"/>
     <use xlink:href="#md70a73293e" x="188.466221" y="94.828922" style="fill: #0000ff; stroke: #0000ff"/>
     <use xlink:href="#md70a73293e" x="336.84644" y="107.031422" style="fill: #0000ff; stroke: #0000ff"/>
     <use xlink:href="#md70a73293e" x="305.944283" y="178.258946" style="fill: #0000ff; stroke: #0000ff"/>
     <use xlink:href="#md70a73293e" x="354.868267" y="169.206673" style="fill: #0000ff; stroke: #0000ff"/>
     <use xlink:href="#md70a73293e" x="314.341326" y="82.748923" style="fill: #0000ff; stroke: #0000ff"/>
     <use xlink:href="#md70a73293e" x="256.994007" y="211.940282" style="fill: #0000ff; stroke: #0000ff"/>
    </g>
   </g>
   <g id="line2d_17">
    <defs>
     <path id="m4d8db55ed0" d="M 0 3 
C 0.795609 3 1.55874 2.683901 2.12132 2.12132 
C 2.683901 1.55874 3 0.795609 3 0 
C 3 -0.795609 2.683901 -1.55874 2.12132 -2.12132 
C 1.55874 -2.683901 0.795609 -3 0 -3 
C -0.795609 -3 -1.55874 -2.683901 -2.12132 -2.12132 
C -2.683901 -1.55874 -3 -0.795609 -3 0 
C -3 0.795609 -2.683901 1.55874 -2.12132 2.12132 
C -1.55874 2.683901 -0.795609 3 0 3 
z
" style="stroke: #ff0000"/>
    </defs>
    <g clip-path="url(#pde5075c378)">
     <use xlink:href="#m4d8db55ed0" x="263.220718" y="112.130336" style="fill: #ff0000; stroke: #ff0000"/>
     <use xlink:href="#m4d8db55ed0" x="206.520684" y="186.276128" style="fill: #ff0000; stroke: #ff0000"/>
     <use xlink:href="#m4d8db55ed0" x="290.131975" y="276.841762" style="fill: #ff0000; stroke: #ff0000"/>
     <use xlink:href="#m4d8db55ed0" x="136.160696" y="209.108184" style="fill: #ff0000; stroke: #ff0000"/>
     <use xlink:href="#m4d8db55ed0" x="260.628077" y="190.236983" style="fill: #ff0000; stroke: #ff0000"/>
     <use xlink:href="#m4d8db55ed0" x="324.078977" y="214.569386" style="fill: #ff0000; stroke: #ff0000"/>
     <use xlink:href="#m4d8db55ed0" x="117.451733" y="192.069804" style="fill: #ff0000; stroke: #ff0000"/>
     <use xlink:href="#m4d8db55ed0" x="204.979745" y="75.368524" style="fill: #ff0000; stroke: #ff0000"/>
     <use xlink:href="#m4d8db55ed0" x="135.7147" y="246.680733" style="fill: #ff0000; stroke: #ff0000"/>
     <use xlink:href="#m4d8db55ed0" x="124.805835" y="231.043657" style="fill: #ff0000; stroke: #ff0000"/>
     <use xlink:href="#m4d8db55ed0" x="162.033118" y="182.362381" style="fill: #ff0000; stroke: #ff0000"/>
     <use xlink:href="#m4d8db55ed0" x="320.419768" y="255.109612" style="fill: #ff0000; stroke: #ff0000"/>
     <use xlink:href="#m4d8db55ed0" x="300.605666" y="127.341377" style="fill: #ff0000; stroke: #ff0000"/>
     <use xlink:href="#m4d8db55ed0" x="243.962331" y="225.691344" style="fill: #ff0000; stroke: #ff0000"/>
     <use xlink:href="#m4d8db55ed0" x="157.928248" y="237.933127" style="fill: #ff0000; stroke: #ff0000"/>
     <use xlink:href="#m4d8db55ed0" x="208.014892" y="57.685261" style="fill: #ff0000; stroke: #ff0000"/>
     <use xlink:href="#m4d8db55ed0" x="329.275322" y="180.63939" style="fill: #ff0000; stroke: #ff0000"/>
     <use xlink:href="#m4d8db55ed0" x="303.088951" y="244.547931" style="fill: #ff0000; stroke: #ff0000"/>
     <use xlink:href="#m4d8db55ed0" x="228.108983" y="53.568" style="fill: #ff0000; stroke: #ff0000"/>
     <use xlink:href="#m4d8db55ed0" x="144.171894" y="265.09289" style="fill: #ff0000; stroke: #ff0000"/>
     <use xlink:href="#m4d8db55ed0" x="144.948121" y="108.772603" style="fill: #ff0000; stroke: #ff0000"/>
     <use xlink:href="#m4d8db55ed0" x="304.872341" y="265.259594" style="fill: #ff0000; stroke: #ff0000"/>
     <use xlink:href="#m4d8db55ed0" x="223.741322" y="295.488" style="fill: #ff0000; stroke: #ff0000"/>
     <use xlink:href="#m4d8db55ed0" x="147.075554" y="224.484621" style="fill: #ff0000; stroke: #ff0000"/>
     <use xlink:href="#m4d8db55ed0" x="218.949888" y="167.709819" style="fill: #ff0000; stroke: #ff0000"/>
     <use xlink:href="#m4d8db55ed0" x="330.393071" y="160.554332" style="fill: #ff0000; stroke: #ff0000"/>
     <use xlink:href="#m4d8db55ed0" x="118.13854" y="210.741266" style="fill: #ff0000; stroke: #ff0000"/>
     <use xlink:href="#m4d8db55ed0" x="156.839661" y="96.232133" style="fill: #ff0000; stroke: #ff0000"/>
     <use xlink:href="#m4d8db55ed0" x="268.530734" y="283.887758" style="fill: #ff0000; stroke: #ff0000"/>
     <use xlink:href="#m4d8db55ed0" x="205.783444" y="294.298919" style="fill: #ff0000; stroke: #ff0000"/>
     <use xlink:href="#m4d8db55ed0" x="319.373663" y="197.914424" style="fill: #ff0000; stroke: #ff0000"/>
     <use xlink:href="#m4d8db55ed0" x="322.990613" y="129.719127" style="fill: #ff0000; stroke: #ff0000"/>
     <use xlink:href="#m4d8db55ed0" x="162.505729" y="258.769157" style="fill: #ff0000; stroke: #ff0000"/>
     <use xlink:href="#m4d8db55ed0" x="183.15555" y="289.213564" style="fill: #ff0000; stroke: #ff0000"/>
     <use xlink:href="#m4d8db55ed0" x="135.797306" y="123.934316" style="fill: #ff0000; stroke: #ff0000"/>
     <use xlink:href="#m4d8db55ed0" x="164.945371" y="279.61261" style="fill: #ff0000; stroke: #ff0000"/>
     <use xlink:href="#m4d8db55ed0" x="155.593922" y="193.582349" style="fill: #ff0000; stroke: #ff0000"/>
     <use xlink:href="#m4d8db55ed0" x="310.504172" y="112.801763" style="fill: #ff0000; stroke: #ff0000"/>
     <use xlink:href="#m4d8db55ed0" x="316.462282" y="231.097103" style="fill: #ff0000; stroke: #ff0000"/>
     <use xlink:href="#m4d8db55ed0" x="166.821843" y="80.936008" style="fill: #ff0000; stroke: #ff0000"/>
     <use xlink:href="#m4d8db55ed0" x="185.616197" y="67.409167" style="fill: #ff0000; stroke: #ff0000"/>
     <use xlink:href="#m4d8db55ed0" x="176.188567" y="247.974222" style="fill: #ff0000; stroke: #ff0000"/>
     <use xlink:href="#m4d8db55ed0" x="343.726537" y="225.970541" style="fill: #ff0000; stroke: #ff0000"/>
     <use xlink:href="#m4d8db55ed0" x="250.052404" y="281.038183" style="fill: #ff0000; stroke: #ff0000"/>
     <use xlink:href="#m4d8db55ed0" x="185.495502" y="264.026733" style="fill: #ff0000; stroke: #ff0000"/>
     <use xlink:href="#m4d8db55ed0" x="212.715602" y="99.86365" style="fill: #ff0000; stroke: #ff0000"/>
     <use xlink:href="#m4d8db55ed0" x="198.765066" y="276.876189" style="fill: #ff0000; stroke: #ff0000"/>
     <use xlink:href="#m4d8db55ed0" x="200.065106" y="236.373062" style="fill: #ff0000; stroke: #ff0000"/>
     <use xlink:href="#m4d8db55ed0" x="333.298025" y="240.884515" style="fill: #ff0000; stroke: #ff0000"/>
     <use xlink:href="#m4d8db55ed0" x="205.363108" y="114.702539" style="fill: #ff0000; stroke: #ff0000"/>
    </g>
   </g>
   <g id="line2d_18">
    <defs>
     <path id="mdcbe17083f" d="M 0 3 
C 0.795609 3 1.55874 2.683901 2.12132 2.12132 
C 2.683901 1.55874 3 0.795609 3 0 
C 3 -0.795609 2.683901 -1.55874 2.12132 -2.12132 
C 1.55874 -2.683901 0.795609 -3 0 -3 
C -0.795609 -3 -1.55874 -2.683901 -2.12132 -2.12132 
C -2.683901 -1.55874 -3 -0.795609 -3 0 
C -3 0.795609 -2.683901 1.55874 -2.12132 2.12132 
C -1.55874 2.683901 -0.795609 3 0 3 
z
" style="stroke: #000000"/>
    </defs>
    <g clip-path="url(#pde5075c378)">
     <use xlink:href="#mdcbe17083f" x="269.659997" y="250.435567" style="stroke: #000000"/>
     <use xlink:href="#mdcbe17083f" x="289.304615" y="212.51467" style="stroke: #000000"/>
     <use xlink:href="#mdcbe17083f" x="228.416712" y="252.219973" style="stroke: #000000"/>
     <use xlink:href="#mdcbe17083f" x="249.882071" y="161.425669" style="stroke: #000000"/>
     <use xlink:href="#mdcbe17083f" x="185.522935" y="209.209659" style="stroke: #000000"/>
     <use xlink:href="#mdcbe17083f" x="230.581972" y="192.743222" style="stroke: #000000"/>
     <use xlink:href="#mdcbe17083f" x="174.221254" y="128.7499" style="stroke: #000000"/>
     <use xlink:href="#mdcbe17083f" x="215.895908" y="141.214913" style="stroke: #000000"/>
     <use xlink:href="#mdcbe17083f" x="141.331176" y="157.924116" style="stroke: #000000"/>
     <use xlink:href="#mdcbe17083f" x="187.163935" y="168.408046" style="stroke: #000000"/>
    </g>
   </g>
   <g id="patch_3">
    <path d="M 57.6 307.584 
L 57.6 41.472 
" style="fill: none; stroke: #000000; stroke-width: 0.8; stroke-linejoin: miter; stroke-linecap: square"/>
   </g>
   <g id="patch_4">
    <path d="M 414.72 307.584 
L 414.72 41.472 
" style="fill: none; stroke: #000000; stroke-width: 0.8; stroke-linejoin: miter; stroke-linecap: square"/>
   </g>
   <g id="patch_5">
    <path d="M 57.6 307.584 
L 414.72 307.584 
" style="fill: none; stroke: #000000; stroke-width: 0.8; stroke-linejoin: miter; stroke-linecap: square"/>
   </g>
   <g id="patch_6">
    <path d="M 57.6 41.472 
L 414.72 41.472 
" style="fill: none; stroke: #000000; stroke-width: 0.8; stroke-linejoin: miter; stroke-linecap: square"/>
   </g>
   <g id="text_18">
    <!-- Velocities at the final time -->
    <g transform="translate(116.81 35.472) scale(0.16 -0.16)">
     <defs>
      <path id="DejaVuSans-Bold-56" d="M 31 4666 
L 1241 4666 
L 2478 1222 
L 3713 4666 
L 4922 4666 
L 3194 0 
L 1759 0 
L 31 4666 
z
" transform="scale(0.015625)"/>
      <path id="DejaVuSans-Bold-65" d="M 4031 1759 
L 4031 1441 
L 1416 1441 
Q 1456 1047 1700 850 
Q 1944 653 2381 653 
Q 2734 653 3104 758 
Q 3475 863 3866 1075 
L 3866 213 
Q 3469 63 3072 -14 
Q 2675 -91 2278 -91 
Q 1328 -91 801 392 
Q 275 875 275 1747 
Q 275 2603 792 3093 
Q 1309 3584 2216 3584 
Q 3041 3584 3536 3087 
Q 4031 2591 4031 1759 
z
M 2881 2131 
Q 2881 2450 2695 2645 
Q 2509 2841 2209 2841 
Q 1884 2841 1681 2658 
Q 1478 2475 1428 2131 
L 2881 2131 
z
" transform="scale(0.015625)"/>
      <path id="DejaVuSans-Bold-6c" d="M 538 4863 
L 1656 4863 
L 1656 0 
L 538 0 
L 538 4863 
z
" transform="scale(0.015625)"/>
      <path id="DejaVuSans-Bold-6f" d="M 2203 2784 
Q 1831 2784 1636 2517 
Q 1441 2250 1441 1747 
Q 1441 1244 1636 976 
Q 1831 709 2203 709 
Q 2569 709 2762 976 
Q 2956 1244 2956 1747 
Q 2956 2250 2762 2517 
Q 2569 2784 2203 2784 
z
M 2203 3584 
Q 3106 3584 3614 3096 
Q 4122 2609 4122 1747 
Q 4122 884 3614 396 
Q 3106 -91 2203 -91 
Q 1297 -91 786 396 
Q 275 884 275 1747 
Q 275 2609 786 3096 
Q 1297 3584 2203 3584 
z
" transform="scale(0.015625)"/>
      <path id="DejaVuSans-Bold-63" d="M 3366 3391 
L 3366 2478 
Q 3138 2634 2908 2709 
Q 2678 2784 2431 2784 
Q 1963 2784 1702 2511 
Q 1441 2238 1441 1747 
Q 1441 1256 1702 982 
Q 1963 709 2431 709 
Q 2694 709 2930 787 
Q 3166 866 3366 1019 
L 3366 103 
Q 3103 6 2833 -42 
Q 2563 -91 2291 -91 
Q 1344 -91 809 395 
Q 275 881 275 1747 
Q 275 2613 809 3098 
Q 1344 3584 2291 3584 
Q 2566 3584 2833 3536 
Q 3100 3488 3366 3391 
z
" transform="scale(0.015625)"/>
      <path id="DejaVuSans-Bold-69" d="M 538 3500 
L 1656 3500 
L 1656 0 
L 538 0 
L 538 3500 
z
M 538 4863 
L 1656 4863 
L 1656 3950 
L 538 3950 
L 538 4863 
z
" transform="scale(0.015625)"/>
      <path id="DejaVuSans-Bold-74" d="M 1759 4494 
L 1759 3500 
L 2913 3500 
L 2913 2700 
L 1759 2700 
L 1759 1216 
Q 1759 972 1856 886 
Q 1953 800 2241 800 
L 2816 800 
L 2816 0 
L 1856 0 
Q 1194 0 917 276 
Q 641 553 641 1216 
L 641 2700 
L 84 2700 
L 84 3500 
L 641 3500 
L 641 4494 
L 1759 4494 
z
" transform="scale(0.015625)"/>
      <path id="DejaVuSans-Bold-73" d="M 3272 3391 
L 3272 2541 
Q 2913 2691 2578 2766 
Q 2244 2841 1947 2841 
Q 1628 2841 1473 2761 
Q 1319 2681 1319 2516 
Q 1319 2381 1436 2309 
Q 1553 2238 1856 2203 
L 2053 2175 
Q 2913 2066 3209 1816 
Q 3506 1566 3506 1031 
Q 3506 472 3093 190 
Q 2681 -91 1863 -91 
Q 1516 -91 1145 -36 
Q 775 19 384 128 
L 384 978 
Q 719 816 1070 734 
Q 1422 653 1784 653 
Q 2113 653 2278 743 
Q 2444 834 2444 1013 
Q 2444 1163 2330 1236 
Q 2216 1309 1875 1350 
L 1678 1375 
Q 931 1469 631 1722 
Q 331 1975 331 2491 
Q 331 3047 712 3315 
Q 1094 3584 1881 3584 
Q 2191 3584 2531 3537 
Q 2872 3491 3272 3391 
z
" transform="scale(0.015625)"/>
      <path id="DejaVuSans-Bold-20" transform="scale(0.015625)"/>
      <path id="DejaVuSans-Bold-61" d="M 2106 1575 
Q 1756 1575 1579 1456 
Q 1403 1338 1403 1106 
Q 1403 894 1545 773 
Q 1688 653 1941 653 
Q 2256 653 2472 879 
Q 2688 1106 2688 1447 
L 2688 1575 
L 2106 1575 
z
M 3816 1997 
L 3816 0 
L 2688 0 
L 2688 519 
Q 2463 200 2181 54 
Q 1900 -91 1497 -91 
Q 953 -91 614 226 
Q 275 544 275 1050 
Q 275 1666 698 1953 
Q 1122 2241 2028 2241 
L 2688 2241 
L 2688 2328 
Q 2688 2594 2478 2717 
Q 2269 2841 1825 2841 
Q 1466 2841 1156 2769 
Q 847 2697 581 2553 
L 581 3406 
Q 941 3494 1303 3539 
Q 1666 3584 2028 3584 
Q 2975 3584 3395 3211 
Q 3816 2838 3816 1997 
z
" transform="scale(0.015625)"/>
      <path id="DejaVuSans-Bold-68" d="M 4056 2131 
L 4056 0 
L 2931 0 
L 2931 347 
L 2931 1625 
Q 2931 2084 2911 2256 
Q 2891 2428 2841 2509 
Q 2775 2619 2662 2680 
Q 2550 2741 2406 2741 
Q 2056 2741 1856 2470 
Q 1656 2200 1656 1722 
L 1656 0 
L 538 0 
L 538 4863 
L 1656 4863 
L 1656 2988 
Q 1909 3294 2193 3439 
Q 2478 3584 2822 3584 
Q 3428 3584 3742 3212 
Q 4056 2841 4056 2131 
z
" transform="scale(0.015625)"/>
      <path id="DejaVuSans-Bold-66" d="M 2841 4863 
L 2841 4128 
L 2222 4128 
Q 1984 4128 1890 4042 
Q 1797 3956 1797 3744 
L 1797 3500 
L 2753 3500 
L 2753 2700 
L 1797 2700 
L 1797 0 
L 678 0 
L 678 2700 
L 122 2700 
L 122 3500 
L 678 3500 
L 678 3744 
Q 678 4316 997 4589 
Q 1316 4863 1984 4863 
L 2841 4863 
z
" transform="scale(0.015625)"/>
      <path id="DejaVuSans-Bold-6e" d="M 4056 2131 
L 4056 0 
L 2931 0 
L 2931 347 
L 2931 1631 
Q 2931 2084 2911 2256 
Q 2891 2428 2841 2509 
Q 2775 2619 2662 2680 
Q 2550 2741 2406 2741 
Q 2056 2741 1856 2470 
Q 1656 2200 1656 1722 
L 1656 0 
L 538 0 
L 538 3500 
L 1656 3500 
L 1656 2988 
Q 1909 3294 2193 3439 
Q 2478 3584 2822 3584 
Q 3428 3584 3742 3212 
Q 4056 2841 4056 2131 
z
" transform="scale(0.015625)"/>
      <path id="DejaVuSans-Bold-6d" d="M 3781 2919 
Q 3994 3244 4286 3414 
Q 4578 3584 4928 3584 
Q 5531 3584 5847 3212 
Q 6163 2841 6163 2131 
L 6163 0 
L 5038 0 
L 5038 1825 
Q 5041 1866 5042 1909 
Q 5044 1953 5044 2034 
Q 5044 2406 4934 2573 
Q 4825 2741 4581 2741 
Q 4263 2741 4089 2478 
Q 3916 2216 3909 1719 
L 3909 0 
L 2784 0 
L 2784 1825 
Q 2784 2406 2684 2573 
Q 2584 2741 2328 2741 
Q 2006 2741 1831 2477 
Q 1656 2213 1656 1722 
L 1656 0 
L 531 0 
L 531 3500 
L 1656 3500 
L 1656 2988 
Q 1863 3284 2130 3434 
Q 2397 3584 2719 3584 
Q 3081 3584 3359 3409 
Q 3638 3234 3781 2919 
z
" transform="scale(0.015625)"/>
     </defs>
     <use xlink:href="#DejaVuSans-Bold-56"/>
     <use xlink:href="#DejaVuSans-Bold-65" transform="translate(71.892578 0)"/>
     <use xlink:href="#DejaVuSans-Bold-6c" transform="translate(139.714844 0)"/>
     <use xlink:href="#DejaVuSans-Bold-6f" transform="translate(173.992188 0)"/>
     <use xlink:href="#DejaVuSans-Bold-63" transform="translate(242.693359 0)"/>
     <use xlink:href="#DejaVuSans-Bold-69" transform="translate(301.970703 0)"/>
     <use xlink:href="#DejaVuSans-Bold-74" transform="translate(336.248047 0)"/>
     <use xlink:href="#DejaVuSans-Bold-69" transform="translate(384.050781 0)"/>
     <use xlink:href="#DejaVuSans-Bold-65" transform="translate(418.328125 0)"/>
     <use xlink:href="#DejaVuSans-Bold-73" transform="translate(486.150391 0)"/>
     <use xlink:href="#DejaVuSans-Bold-20" transform="translate(545.671875 0)"/>
     <use xlink:href="#DejaVuSans-Bold-61" transform="translate(580.486328 0)"/>
     <use xlink:href="#DejaVuSans-Bold-74" transform="translate(647.966797 0)"/>
     <use xlink:href="#DejaVuSans-Bold-20" transform="translate(695.769531 0)"/>
     <use xlink:href="#DejaVuSans-Bold-74" transform="translate(730.583984 0)"/>
     <use xlink:href="#DejaVuSans-Bold-68" transform="translate(778.386719 0)"/>
     <use xlink:href="#DejaVuSans-Bold-65" transform="translate(849.578125 0)"/>
     <use xlink:href="#DejaVuSans-Bold-20" transform="translate(917.400391 0)"/>
     <use xlink:href="#DejaVuSans-Bold-66" transform="translate(952.214844 0)"/>
     <use xlink:href="#DejaVuSans-Bold-69" transform="translate(995.720703 0)"/>
     <use xlink:href="#DejaVuSans-Bold-6e" transform="translate(1029.998047 0)"/>
     <use xlink:href="#DejaVuSans-Bold-61" transform="translate(1101.189453 0)"/>
     <use xlink:href="#DejaVuSans-Bold-6c" transform="translate(1168.669922 0)"/>
     <use xlink:href="#DejaVuSans-Bold-20" transform="translate(1202.947266 0)"/>
     <use xlink:href="#DejaVuSans-Bold-74" transform="translate(1237.761719 0)"/>
     <use xlink:href="#DejaVuSans-Bold-69" transform="translate(1285.564453 0)"/>
     <use xlink:href="#DejaVuSans-Bold-6d" transform="translate(1319.841797 0)"/>
     <use xlink:href="#DejaVuSans-Bold-65" transform="translate(1424.041016 0)"/>
    </g>
   </g>
  </g>
 </g>
 <defs>
  <clipPath id="pde5075c378">
   <rect x="57.6" y="41.472" width="357.12" height="266.112"/>
  </clipPath>
 </defs>
</svg>
