<?xml version="1.0" encoding="utf-8" standalone="no"?>
<!DOCTYPE svg PUBLIC "-//W3C//DTD SVG 1.1//EN"
  "http://www.w3.org/Graphics/SVG/1.1/DTD/svg11.dtd">
<svg xmlns:xlink="http://www.w3.org/1999/xlink" width="432pt" height="360pt" viewBox="0 0 432 360" xmlns="http://www.w3.org/2000/svg" version="1.1">
 <metadata>
  <rdf:RDF xmlns:dc="http://purl.org/dc/elements/1.1/" xmlns:cc="http://creativecommons.org/ns#" xmlns:rdf="http://www.w3.org/1999/02/22-rdf-syntax-ns#">
   <cc:Work>
    <dc:type rdf:resource="http://purl.org/dc/dcmitype/StillImage"/>
    <dc:date>2025-05-05T11:49:50.114222</dc:date>
    <dc:format>image/svg+xml</dc:format>
    <dc:creator>
     <cc:Agent>
      <dc:title>Matplotlib v3.10.1, https://matplotlib.org/</dc:title>
     </cc:Agent>
    </dc:creator>
   </cc:Work>
  </rdf:RDF>
 </metadata>
 <defs>
  <style type="text/css">*{stroke-linejoin: round; stroke-linecap: butt}</style>
 </defs>
 <g id="figure_1">
  <g id="patch_1">
   <path d="M 0 360 
L 432 360 
L 432 0 
L 0 0 
z
" style="fill: #ffffff"/>
  </g>
  <g id="axes_1">
   <g id="patch_2">
    <path d="M 39.58149 153.232572 
L 428.99976 153.232572 
L 428.99976 18.118365 
L 39.58149 18.118365 
z
" style="fill: #ffffff"/>
   </g>
   <g id="matplotlib.axis_1">
    <g id="xtick_1">
     <g id="line2d_1">
      <path d="M 57.28232 153.232572 
L 57.28232 18.118365 
" clip-path="url(#p451d3dceb1)" style="fill: none; stroke: #b0b0b0; stroke-width: 0.8; stroke-linecap: square"/>
     </g>
     <g id="line2d_2">
      <defs>
       <path id="m3d2c4b7ca2" d="M 0 0 
L 0 3.5 
" style="stroke: #000000; stroke-width: 0.8"/>
      </defs>
      <g>
       <use xlink:href="#m3d2c4b7ca2" x="57.28232" y="153.232572" style="stroke: #000000; stroke-width: 0.8"/>
      </g>
     </g>
    </g>
    <g id="xtick_2">
     <g id="line2d_3">
      <path d="M 128.092723 153.232572 
L 128.092723 18.118365 
" clip-path="url(#p451d3dceb1)" style="fill: none; stroke: #b0b0b0; stroke-width: 0.8; stroke-linecap: square"/>
     </g>
     <g id="line2d_4">
      <g>
       <use xlink:href="#m3d2c4b7ca2" x="128.092723" y="153.232572" style="stroke: #000000; stroke-width: 0.8"/>
      </g>
     </g>
    </g>
    <g id="xtick_3">
     <g id="line2d_5">
      <path d="M 198.903126 153.232572 
L 198.903126 18.118365 
" clip-path="url(#p451d3dceb1)" style="fill: none; stroke: #b0b0b0; stroke-width: 0.8; stroke-linecap: square"/>
     </g>
     <g id="line2d_6">
      <g>
       <use xlink:href="#m3d2c4b7ca2" x="198.903126" y="153.232572" style="stroke: #000000; stroke-width: 0.8"/>
      </g>
     </g>
    </g>
    <g id="xtick_4">
     <g id="line2d_7">
      <path d="M 269.713529 153.232572 
L 269.713529 18.118365 
" clip-path="url(#p451d3dceb1)" style="fill: none; stroke: #b0b0b0; stroke-width: 0.8; stroke-linecap: square"/>
     </g>
     <g id="line2d_8">
      <g>
       <use xlink:href="#m3d2c4b7ca2" x="269.713529" y="153.232572" style="stroke: #000000; stroke-width: 0.8"/>
      </g>
     </g>
    </g>
    <g id="xtick_5">
     <g id="line2d_9">
      <path d="M 340.523932 153.232572 
L 340.523932 18.118365 
" clip-path="url(#p451d3dceb1)" style="fill: none; stroke: #b0b0b0; stroke-width: 0.8; stroke-linecap: square"/>
     </g>
     <g id="line2d_10">
      <g>
       <use xlink:href="#m3d2c4b7ca2" x="340.523932" y="153.232572" style="stroke: #000000; stroke-width: 0.8"/>
      </g>
     </g>
    </g>
    <g id="xtick_6">
     <g id="line2d_11">
      <path d="M 411.334335 153.232572 
L 411.334335 18.118365 
" clip-path="url(#p451d3dceb1)" style="fill: none; stroke: #b0b0b0; stroke-width: 0.8; stroke-linecap: square"/>
     </g>
     <g id="line2d_12">
      <g>
       <use xlink:href="#m3d2c4b7ca2" x="411.334335" y="153.232572" style="stroke: #000000; stroke-width: 0.8"/>
      </g>
     </g>
    </g>
    <g id="text_1">
     <!-- timestep -->
     <g transform="translate(212.178906 168.33101) scale(0.1 -0.1)">
      <defs>
       <path id="DejaVuSans-74" d="M 1172 4494 
L 1172 3500 
L 2356 3500 
L 2356 3053 
L 1172 3053 
L 1172 1153 
Q 1172 725 1289 603 
Q 1406 481 1766 481 
L 2356 481 
L 2356 0 
L 1766 0 
Q 1100 0 847 248 
Q 594 497 594 1153 
L 594 3053 
L 172 3053 
L 172 3500 
L 594 3500 
L 594 4494 
L 1172 4494 
z
" transform="scale(0.015625)"/>
       <path id="DejaVuSans-69" d="M 603 3500 
L 1178 3500 
L 1178 0 
L 603 0 
L 603 3500 
z
M 603 4863 
L 1178 4863 
L 1178 4134 
L 603 4134 
L 603 4863 
z
" transform="scale(0.015625)"/>
       <path id="DejaVuSans-6d" d="M 3328 2828 
Q 3544 3216 3844 3400 
Q 4144 3584 4550 3584 
Q 5097 3584 5394 3201 
Q 5691 2819 5691 2113 
L 5691 0 
L 5113 0 
L 5113 2094 
Q 5113 2597 4934 2840 
Q 4756 3084 4391 3084 
Q 3944 3084 3684 2787 
Q 3425 2491 3425 1978 
L 3425 0 
L 2847 0 
L 2847 2094 
Q 2847 2600 2669 2842 
Q 2491 3084 2119 3084 
Q 1678 3084 1418 2786 
Q 1159 2488 1159 1978 
L 1159 0 
L 581 0 
L 581 3500 
L 1159 3500 
L 1159 2956 
Q 1356 3278 1631 3431 
Q 1906 3584 2284 3584 
Q 2666 3584 2933 3390 
Q 3200 3197 3328 2828 
z
" transform="scale(0.015625)"/>
       <path id="DejaVuSans-65" d="M 3597 1894 
L 3597 1613 
L 953 1613 
Q 991 1019 1311 708 
Q 1631 397 2203 397 
Q 2534 397 2845 478 
Q 3156 559 3463 722 
L 3463 178 
Q 3153 47 2828 -22 
Q 2503 -91 2169 -91 
Q 1331 -91 842 396 
Q 353 884 353 1716 
Q 353 2575 817 3079 
Q 1281 3584 2069 3584 
Q 2775 3584 3186 3129 
Q 3597 2675 3597 1894 
z
M 3022 2063 
Q 3016 2534 2758 2815 
Q 2500 3097 2075 3097 
Q 1594 3097 1305 2825 
Q 1016 2553 972 2059 
L 3022 2063 
z
" transform="scale(0.015625)"/>
       <path id="DejaVuSans-73" d="M 2834 3397 
L 2834 2853 
Q 2591 2978 2328 3040 
Q 2066 3103 1784 3103 
Q 1356 3103 1142 2972 
Q 928 2841 928 2578 
Q 928 2378 1081 2264 
Q 1234 2150 1697 2047 
L 1894 2003 
Q 2506 1872 2764 1633 
Q 3022 1394 3022 966 
Q 3022 478 2636 193 
Q 2250 -91 1575 -91 
Q 1294 -91 989 -36 
Q 684 19 347 128 
L 347 722 
Q 666 556 975 473 
Q 1284 391 1588 391 
Q 1994 391 2212 530 
Q 2431 669 2431 922 
Q 2431 1156 2273 1281 
Q 2116 1406 1581 1522 
L 1381 1569 
Q 847 1681 609 1914 
Q 372 2147 372 2553 
Q 372 3047 722 3315 
Q 1072 3584 1716 3584 
Q 2034 3584 2315 3537 
Q 2597 3491 2834 3397 
z
" transform="scale(0.015625)"/>
       <path id="DejaVuSans-70" d="M 1159 525 
L 1159 -1331 
L 581 -1331 
L 581 3500 
L 1159 3500 
L 1159 2969 
Q 1341 3281 1617 3432 
Q 1894 3584 2278 3584 
Q 2916 3584 3314 3078 
Q 3713 2572 3713 1747 
Q 3713 922 3314 415 
Q 2916 -91 2278 -91 
Q 1894 -91 1617 61 
Q 1341 213 1159 525 
z
M 3116 1747 
Q 3116 2381 2855 2742 
Q 2594 3103 2138 3103 
Q 1681 3103 1420 2742 
Q 1159 2381 1159 1747 
Q 1159 1113 1420 752 
Q 1681 391 2138 391 
Q 2594 391 2855 752 
Q 3116 1113 3116 1747 
z
" transform="scale(0.015625)"/>
      </defs>
      <use xlink:href="#DejaVuSans-74"/>
      <use xlink:href="#DejaVuSans-69" transform="translate(39.208984 0)"/>
      <use xlink:href="#DejaVuSans-6d" transform="translate(66.992188 0)"/>
      <use xlink:href="#DejaVuSans-65" transform="translate(164.404297 0)"/>
      <use xlink:href="#DejaVuSans-73" transform="translate(225.927734 0)"/>
      <use xlink:href="#DejaVuSans-74" transform="translate(278.027344 0)"/>
      <use xlink:href="#DejaVuSans-65" transform="translate(317.236328 0)"/>
      <use xlink:href="#DejaVuSans-70" transform="translate(378.759766 0)"/>
     </g>
    </g>
   </g>
   <g id="matplotlib.axis_2">
    <g id="ytick_1">
     <g id="line2d_13">
      <path d="M 39.58149 145.108279 
L 428.99976 145.108279 
" clip-path="url(#p451d3dceb1)" style="fill: none; stroke: #b0b0b0; stroke-width: 0.8; stroke-linecap: square"/>
     </g>
     <g id="line2d_14">
      <defs>
       <path id="md02fe2c27e" d="M 0 0 
L -3.5 0 
" style="stroke: #000000; stroke-width: 0.8"/>
      </defs>
      <g>
       <use xlink:href="#md02fe2c27e" x="39.58149" y="145.108279" style="stroke: #000000; stroke-width: 0.8"/>
      </g>
     </g>
     <g id="text_2">
      <!-- 0.0 -->
      <g transform="translate(16.678365 148.907497) scale(0.1 -0.1)">
       <defs>
        <path id="DejaVuSans-30" d="M 2034 4250 
Q 1547 4250 1301 3770 
Q 1056 3291 1056 2328 
Q 1056 1369 1301 889 
Q 1547 409 2034 409 
Q 2525 409 2770 889 
Q 3016 1369 3016 2328 
Q 3016 3291 2770 3770 
Q 2525 4250 2034 4250 
z
M 2034 4750 
Q 2819 4750 3233 4129 
Q 3647 3509 3647 2328 
Q 3647 1150 3233 529 
Q 2819 -91 2034 -91 
Q 1250 -91 836 529 
Q 422 1150 422 2328 
Q 422 3509 836 4129 
Q 1250 4750 2034 4750 
z
" transform="scale(0.015625)"/>
        <path id="DejaVuSans-2e" d="M 684 794 
L 1344 794 
L 1344 0 
L 684 0 
L 684 794 
z
" transform="scale(0.015625)"/>
       </defs>
       <use xlink:href="#DejaVuSans-30"/>
       <use xlink:href="#DejaVuSans-2e" transform="translate(63.623047 0)"/>
       <use xlink:href="#DejaVuSans-30" transform="translate(95.410156 0)"/>
      </g>
     </g>
    </g>
    <g id="ytick_2">
     <g id="line2d_15">
      <path d="M 39.58149 119.453245 
L 428.99976 119.453245 
" clip-path="url(#p451d3dceb1)" style="fill: none; stroke: #b0b0b0; stroke-width: 0.8; stroke-linecap: square"/>
     </g>
     <g id="line2d_16">
      <g>
       <use xlink:href="#md02fe2c27e" x="39.58149" y="119.453245" style="stroke: #000000; stroke-width: 0.8"/>
      </g>
     </g>
     <g id="text_3">
      <!-- 0.2 -->
      <g transform="translate(16.678365 123.252464) scale(0.1 -0.1)">
       <defs>
        <path id="DejaVuSans-32" d="M 1228 531 
L 3431 531 
L 3431 0 
L 469 0 
L 469 531 
Q 828 903 1448 1529 
Q 2069 2156 2228 2338 
Q 2531 2678 2651 2914 
Q 2772 3150 2772 3378 
Q 2772 3750 2511 3984 
Q 2250 4219 1831 4219 
Q 1534 4219 1204 4116 
Q 875 4013 500 3803 
L 500 4441 
Q 881 4594 1212 4672 
Q 1544 4750 1819 4750 
Q 2544 4750 2975 4387 
Q 3406 4025 3406 3419 
Q 3406 3131 3298 2873 
Q 3191 2616 2906 2266 
Q 2828 2175 2409 1742 
Q 1991 1309 1228 531 
z
" transform="scale(0.015625)"/>
       </defs>
       <use xlink:href="#DejaVuSans-30"/>
       <use xlink:href="#DejaVuSans-2e" transform="translate(63.623047 0)"/>
       <use xlink:href="#DejaVuSans-32" transform="translate(95.410156 0)"/>
      </g>
     </g>
    </g>
    <g id="ytick_3">
     <g id="line2d_17">
      <path d="M 39.58149 93.798211 
L 428.99976 93.798211 
" clip-path="url(#p451d3dceb1)" style="fill: none; stroke: #b0b0b0; stroke-width: 0.8; stroke-linecap: square"/>
     </g>
     <g id="line2d_18">
      <g>
       <use xlink:href="#md02fe2c27e" x="39.58149" y="93.798211" style="stroke: #000000; stroke-width: 0.8"/>
      </g>
     </g>
     <g id="text_4">
      <!-- 0.4 -->
      <g transform="translate(16.678365 97.59743) scale(0.1 -0.1)">
       <defs>
        <path id="DejaVuSans-34" d="M 2419 4116 
L 825 1625 
L 2419 1625 
L 2419 4116 
z
M 2253 4666 
L 3047 4666 
L 3047 1625 
L 3713 1625 
L 3713 1100 
L 3047 1100 
L 3047 0 
L 2419 0 
L 2419 1100 
L 313 1100 
L 313 1709 
L 2253 4666 
z
" transform="scale(0.015625)"/>
       </defs>
       <use xlink:href="#DejaVuSans-30"/>
       <use xlink:href="#DejaVuSans-2e" transform="translate(63.623047 0)"/>
       <use xlink:href="#DejaVuSans-34" transform="translate(95.410156 0)"/>
      </g>
     </g>
    </g>
    <g id="ytick_4">
     <g id="line2d_19">
      <path d="M 39.58149 68.143177 
L 428.99976 68.143177 
" clip-path="url(#p451d3dceb1)" style="fill: none; stroke: #b0b0b0; stroke-width: 0.8; stroke-linecap: square"/>
     </g>
     <g id="line2d_20">
      <g>
       <use xlink:href="#md02fe2c27e" x="39.58149" y="68.143177" style="stroke: #000000; stroke-width: 0.8"/>
      </g>
     </g>
     <g id="text_5">
      <!-- 0.6 -->
      <g transform="translate(16.678365 71.942396) scale(0.1 -0.1)">
       <defs>
        <path id="DejaVuSans-36" d="M 2113 2584 
Q 1688 2584 1439 2293 
Q 1191 2003 1191 1497 
Q 1191 994 1439 701 
Q 1688 409 2113 409 
Q 2538 409 2786 701 
Q 3034 994 3034 1497 
Q 3034 2003 2786 2293 
Q 2538 2584 2113 2584 
z
M 3366 4563 
L 3366 3988 
Q 3128 4100 2886 4159 
Q 2644 4219 2406 4219 
Q 1781 4219 1451 3797 
Q 1122 3375 1075 2522 
Q 1259 2794 1537 2939 
Q 1816 3084 2150 3084 
Q 2853 3084 3261 2657 
Q 3669 2231 3669 1497 
Q 3669 778 3244 343 
Q 2819 -91 2113 -91 
Q 1303 -91 875 529 
Q 447 1150 447 2328 
Q 447 3434 972 4092 
Q 1497 4750 2381 4750 
Q 2619 4750 2861 4703 
Q 3103 4656 3366 4563 
z
" transform="scale(0.015625)"/>
       </defs>
       <use xlink:href="#DejaVuSans-30"/>
       <use xlink:href="#DejaVuSans-2e" transform="translate(63.623047 0)"/>
       <use xlink:href="#DejaVuSans-36" transform="translate(95.410156 0)"/>
      </g>
     </g>
    </g>
    <g id="ytick_5">
     <g id="line2d_21">
      <path d="M 39.58149 42.488143 
L 428.99976 42.488143 
" clip-path="url(#p451d3dceb1)" style="fill: none; stroke: #b0b0b0; stroke-width: 0.8; stroke-linecap: square"/>
     </g>
     <g id="line2d_22">
      <g>
       <use xlink:href="#md02fe2c27e" x="39.58149" y="42.488143" style="stroke: #000000; stroke-width: 0.8"/>
      </g>
     </g>
     <g id="text_6">
      <!-- 0.8 -->
      <g transform="translate(16.678365 46.287362) scale(0.1 -0.1)">
       <defs>
        <path id="DejaVuSans-38" d="M 2034 2216 
Q 1584 2216 1326 1975 
Q 1069 1734 1069 1313 
Q 1069 891 1326 650 
Q 1584 409 2034 409 
Q 2484 409 2743 651 
Q 3003 894 3003 1313 
Q 3003 1734 2745 1975 
Q 2488 2216 2034 2216 
z
M 1403 2484 
Q 997 2584 770 2862 
Q 544 3141 544 3541 
Q 544 4100 942 4425 
Q 1341 4750 2034 4750 
Q 2731 4750 3128 4425 
Q 3525 4100 3525 3541 
Q 3525 3141 3298 2862 
Q 3072 2584 2669 2484 
Q 3125 2378 3379 2068 
Q 3634 1759 3634 1313 
Q 3634 634 3220 271 
Q 2806 -91 2034 -91 
Q 1263 -91 848 271 
Q 434 634 434 1313 
Q 434 1759 690 2068 
Q 947 2378 1403 2484 
z
M 1172 3481 
Q 1172 3119 1398 2916 
Q 1625 2713 2034 2713 
Q 2441 2713 2670 2916 
Q 2900 3119 2900 3481 
Q 2900 3844 2670 4047 
Q 2441 4250 2034 4250 
Q 1625 4250 1398 4047 
Q 1172 3844 1172 3481 
z
" transform="scale(0.015625)"/>
       </defs>
       <use xlink:href="#DejaVuSans-30"/>
       <use xlink:href="#DejaVuSans-2e" transform="translate(63.623047 0)"/>
       <use xlink:href="#DejaVuSans-38" transform="translate(95.410156 0)"/>
      </g>
     </g>
    </g>
    <g id="text_7">
     <!-- v_x -->
     <g transform="translate(10.320552 94.094219) rotate(-90) scale(0.1 -0.1)">
      <defs>
       <path id="DejaVuSans-76" d="M 191 3500 
L 800 3500 
L 1894 563 
L 2988 3500 
L 3597 3500 
L 2284 0 
L 1503 0 
L 191 3500 
z
" transform="scale(0.015625)"/>
       <path id="DejaVuSans-5f" d="M 3263 -1063 
L 3263 -1509 
L -63 -1509 
L -63 -1063 
L 3263 -1063 
z
" transform="scale(0.015625)"/>
       <path id="DejaVuSans-78" d="M 3513 3500 
L 2247 1797 
L 3578 0 
L 2900 0 
L 1881 1375 
L 863 0 
L 184 0 
L 1544 1831 
L 300 3500 
L 978 3500 
L 1906 2253 
L 2834 3500 
L 3513 3500 
z
" transform="scale(0.015625)"/>
      </defs>
      <use xlink:href="#DejaVuSans-76"/>
      <use xlink:href="#DejaVuSans-5f" transform="translate(59.179688 0)"/>
      <use xlink:href="#DejaVuSans-78" transform="translate(109.179688 0)"/>
     </g>
    </g>
   </g>
   <g id="line2d_23">
    <path d="M 57.28232 147.091018 
L 57.707183 146.667278 
L 57.848804 146.385675 
L 58.556908 143.476426 
L 59.300417 138.791907 
L 59.335822 138.802645 
L 59.548253 138.888949 
L 59.689874 138.567594 
L 60.043926 136.591883 
L 60.433383 134.084867 
L 60.929056 132.221466 
L 60.964461 132.268463 
L 61.106082 132.603167 
L 61.56635 135.294678 
L 62.309859 139.377249 
L 62.628506 140.188108 
L 62.840937 140.249231 
L 63.301205 141.213313 
L 63.619852 142.428596 
L 64.115524 144.58571 
L 64.22174 144.524337 
L 64.434171 143.973612 
L 64.788223 142.570766 
L 65.000654 142.659215 
L 65.142275 143.090776 
L 65.850379 146.017741 
L 66.098216 146.333053 
L 66.204431 146.0915 
L 66.416862 144.470931 
L 67.089561 136.767651 
L 67.797665 125.51903 
L 68.151717 123.41872 
L 68.222528 123.482996 
L 68.789011 124.182558 
L 68.966037 123.901126 
L 69.638736 122.354397 
L 69.992788 122.239401 
L 70.240624 121.922367 
L 70.382245 121.14464 
L 71.090349 115.941879 
L 72.081695 112.513417 
L 72.471152 111.157306 
L 72.754393 109.988014 
L 72.860609 109.913306 
L 73.993576 104.307056 
L 74.418438 100.170051 
L 74.77249 97.429143 
L 74.914111 97.080633 
L 74.949516 97.126458 
L 75.268163 97.751761 
L 75.303568 97.632745 
L 75.65762 95.320002 
L 76.932207 87.092768 
L 77.215449 86.269717 
L 77.42788 86.155088 
L 77.604906 86.337781 
L 77.958958 86.821261 
L 77.994363 86.784255 
L 78.206794 86.310865 
L 78.419226 85.275444 
L 78.667062 82.901235 
L 79.481382 71.919967 
L 79.729218 71.28244 
L 79.906244 71.273595 
L 80.08327 71.617393 
L 80.862185 74.25809 
L 81.357857 77.184701 
L 81.605694 77.566862 
L 81.711909 77.562466 
L 81.888935 77.203283 
L 82.136772 76.014081 
L 82.597039 72.681269 
L 83.340549 65.836331 
L 83.588385 65.4335 
L 83.836222 65.303842 
L 84.013248 65.441852 
L 84.225679 66.059129 
L 84.50892 66.888757 
L 84.544326 66.868938 
L 84.685946 66.51518 
L 84.969188 65.845735 
L 85.217024 65.779237 
L 85.358645 65.659883 
L 85.571076 65.053397 
L 85.854318 63.395714 
L 86.704043 57.789026 
L 87.128905 56.777767 
L 87.376742 56.632255 
L 87.837009 56.841571 
L 88.014035 56.89396 
L 88.191061 56.654952 
L 88.438898 55.791613 
L 88.899165 53.501108 
L 89.855106 47.771466 
L 90.421589 44.503515 
L 91.44834 38.101009 
L 91.908607 37.169817 
L 92.616711 36.14908 
L 92.829143 36.245504 
L 93.112384 36.697539 
L 93.855894 38.018096 
L 94.10373 38.09449 
L 94.386972 37.913589 
L 95.095076 37.112143 
L 95.449128 36.189884 
L 96.015611 34.024604 
L 96.794525 31.007995 
L 97.113172 30.533571 
L 97.325603 30.448557 
L 97.750466 30.852947 
L 98.104518 30.968164 
L 98.387759 30.832262 
L 98.777217 30.373514 
L 99.662347 29.300342 
L 100.335045 28.932488 
L 100.901529 28.858222 
L 101.645038 28.774355 
L 102.034495 28.470274 
L 102.459357 27.751828 
L 103.84016 25.061479 
L 104.052592 25.05887 
L 104.477454 25.492269 
L 105.220963 26.275578 
L 105.53961 26.30201 
L 105.893662 26.086951 
L 106.42474 25.461594 
L 107.097439 24.625769 
L 107.522301 24.429381 
L 107.840948 24.504833 
L 107.982569 24.699069 
L 108.903104 25.914693 
L 109.221751 25.977095 
L 109.575803 25.769036 
L 110.071476 25.121605 
L 110.708769 24.372092 
L 111.062821 24.26021 
L 111.416873 24.38901 
L 111.629305 24.647673 
L 112.372814 25.644122 
L 112.797676 25.850978 
L 113.222539 25.790969 
L 114.461721 25.455969 
L 115.311446 25.65897 
L 115.948739 25.683857 
L 116.586033 25.449479 
L 117.86062 24.920762 
L 118.74575 24.900354 
L 119.028992 24.993051 
L 119.63088 25.280345 
L 120.409795 25.369474 
L 122.463296 25.318791 
L 123.242211 25.322819 
L 124.198151 25.923673 
L 125.083281 26.244095 
L 126.464084 26.47744 
L 126.818136 26.600227 
L 127.45543 26.877776 
L 128.765422 27.093248 
L 129.615147 27.075298 
L 130.99595 26.762767 
L 131.172976 26.820014 
L 131.987295 27.125686 
L 132.943236 27.245721 
L 133.72215 27.239139 
L 135.102953 28.853817 
L 135.457005 28.657758 
L 135.988083 28.404164 
L 136.271325 28.49124 
L 137.085644 29.238924 
L 137.652128 29.580937 
L 138.041585 29.542128 
L 138.501853 29.235105 
L 139.457793 28.505214 
L 139.882655 28.491069 
L 140.626165 28.76022 
L 141.228053 28.849249 
L 141.936157 28.676236 
L 143.139934 28.392724 
L 144.981004 28.151373 
L 146.149376 27.803334 
L 146.999101 27.84668 
L 148.167473 27.87575 
L 149.548275 27.873808 
L 150.893673 27.92671 
L 152.805554 27.779585 
L 154.327978 27.908627 
L 156.098238 27.861493 
L 157.47904 27.917398 
L 159.744973 27.807476 
L 161.302802 27.742674 
L 163.179278 27.711045 
L 167.180066 27.858597 
L 171.039233 28.056662 
L 175.78353 28.126639 
L 183.926726 28.164393 
L 194.088019 28.081464 
L 209.560092 27.954595 
L 215.862218 28.003639 
L 221.59786 28.028638 
L 225.350812 27.993773 
L 229.42241 27.986531 
L 238.981814 28.049261 
L 243.018007 28.074767 
L 252.506601 28.132209 
L 263.411403 28.159213 
L 301.43659 28.191348 
L 411.29893 28.152606 
L 411.29893 28.152606 
" clip-path="url(#p451d3dceb1)" style="fill: none; stroke: #0000ff; stroke-width: 2; stroke-linecap: square"/>
   </g>
   <g id="patch_3">
    <path d="M 39.58149 153.232572 
L 39.58149 18.118365 
" style="fill: none; stroke: #000000; stroke-width: 0.8; stroke-linejoin: miter; stroke-linecap: square"/>
   </g>
   <g id="patch_4">
    <path d="M 428.99976 153.232572 
L 428.99976 18.118365 
" style="fill: none; stroke: #000000; stroke-width: 0.8; stroke-linejoin: miter; stroke-linecap: square"/>
   </g>
   <g id="patch_5">
    <path d="M 39.58149 153.232572 
L 428.99976 153.232572 
" style="fill: none; stroke: #000000; stroke-width: 0.8; stroke-linejoin: miter; stroke-linecap: square"/>
   </g>
   <g id="patch_6">
    <path d="M 39.58149 18.118365 
L 428.99976 18.118365 
" style="fill: none; stroke: #000000; stroke-width: 0.8; stroke-linejoin: miter; stroke-linecap: square"/>
   </g>
   <g id="text_8">
    <!-- Mean velocity component v_x over time -->
    <g transform="translate(100.015313 12.118365) scale(0.12 -0.12)">
     <defs>
      <path id="DejaVuSans-Bold-4d" d="M 588 4666 
L 2119 4666 
L 3181 2169 
L 4250 4666 
L 5778 4666 
L 5778 0 
L 4641 0 
L 4641 3413 
L 3566 897 
L 2803 897 
L 1728 3413 
L 1728 0 
L 588 0 
L 588 4666 
z
" transform="scale(0.015625)"/>
      <path id="DejaVuSans-Bold-65" d="M 4031 1759 
L 4031 1441 
L 1416 1441 
Q 1456 1047 1700 850 
Q 1944 653 2381 653 
Q 2734 653 3104 758 
Q 3475 863 3866 1075 
L 3866 213 
Q 3469 63 3072 -14 
Q 2675 -91 2278 -91 
Q 1328 -91 801 392 
Q 275 875 275 1747 
Q 275 2603 792 3093 
Q 1309 3584 2216 3584 
Q 3041 3584 3536 3087 
Q 4031 2591 4031 1759 
z
M 2881 2131 
Q 2881 2450 2695 2645 
Q 2509 2841 2209 2841 
Q 1884 2841 1681 2658 
Q 1478 2475 1428 2131 
L 2881 2131 
z
" transform="scale(0.015625)"/>
      <path id="DejaVuSans-Bold-61" d="M 2106 1575 
Q 1756 1575 1579 1456 
Q 1403 1338 1403 1106 
Q 1403 894 1545 773 
Q 1688 653 1941 653 
Q 2256 653 2472 879 
Q 2688 1106 2688 1447 
L 2688 1575 
L 2106 1575 
z
M 3816 1997 
L 3816 0 
L 2688 0 
L 2688 519 
Q 2463 200 2181 54 
Q 1900 -91 1497 -91 
Q 953 -91 614 226 
Q 275 544 275 1050 
Q 275 1666 698 1953 
Q 1122 2241 2028 2241 
L 2688 2241 
L 2688 2328 
Q 2688 2594 2478 2717 
Q 2269 2841 1825 2841 
Q 1466 2841 1156 2769 
Q 847 2697 581 2553 
L 581 3406 
Q 941 3494 1303 3539 
Q 1666 3584 2028 3584 
Q 2975 3584 3395 3211 
Q 3816 2838 3816 1997 
z
" transform="scale(0.015625)"/>
      <path id="DejaVuSans-Bold-6e" d="M 4056 2131 
L 4056 0 
L 2931 0 
L 2931 347 
L 2931 1631 
Q 2931 2084 2911 2256 
Q 2891 2428 2841 2509 
Q 2775 2619 2662 2680 
Q 2550 2741 2406 2741 
Q 2056 2741 1856 2470 
Q 1656 2200 1656 1722 
L 1656 0 
L 538 0 
L 538 3500 
L 1656 3500 
L 1656 2988 
Q 1909 3294 2193 3439 
Q 2478 3584 2822 3584 
Q 3428 3584 3742 3212 
Q 4056 2841 4056 2131 
z
" transform="scale(0.015625)"/>
      <path id="DejaVuSans-Bold-20" transform="scale(0.015625)"/>
      <path id="DejaVuSans-Bold-76" d="M 97 3500 
L 1216 3500 
L 2088 1081 
L 2956 3500 
L 4078 3500 
L 2700 0 
L 1472 0 
L 97 3500 
z
" transform="scale(0.015625)"/>
      <path id="DejaVuSans-Bold-6c" d="M 538 4863 
L 1656 4863 
L 1656 0 
L 538 0 
L 538 4863 
z
" transform="scale(0.015625)"/>
      <path id="DejaVuSans-Bold-6f" d="M 2203 2784 
Q 1831 2784 1636 2517 
Q 1441 2250 1441 1747 
Q 1441 1244 1636 976 
Q 1831 709 2203 709 
Q 2569 709 2762 976 
Q 2956 1244 2956 1747 
Q 2956 2250 2762 2517 
Q 2569 2784 2203 2784 
z
M 2203 3584 
Q 3106 3584 3614 3096 
Q 4122 2609 4122 1747 
Q 4122 884 3614 396 
Q 3106 -91 2203 -91 
Q 1297 -91 786 396 
Q 275 884 275 1747 
Q 275 2609 786 3096 
Q 1297 3584 2203 3584 
z
" transform="scale(0.015625)"/>
      <path id="DejaVuSans-Bold-63" d="M 3366 3391 
L 3366 2478 
Q 3138 2634 2908 2709 
Q 2678 2784 2431 2784 
Q 1963 2784 1702 2511 
Q 1441 2238 1441 1747 
Q 1441 1256 1702 982 
Q 1963 709 2431 709 
Q 2694 709 2930 787 
Q 3166 866 3366 1019 
L 3366 103 
Q 3103 6 2833 -42 
Q 2563 -91 2291 -91 
Q 1344 -91 809 395 
Q 275 881 275 1747 
Q 275 2613 809 3098 
Q 1344 3584 2291 3584 
Q 2566 3584 2833 3536 
Q 3100 3488 3366 3391 
z
" transform="scale(0.015625)"/>
      <path id="DejaVuSans-Bold-69" d="M 538 3500 
L 1656 3500 
L 1656 0 
L 538 0 
L 538 3500 
z
M 538 4863 
L 1656 4863 
L 1656 3950 
L 538 3950 
L 538 4863 
z
" transform="scale(0.015625)"/>
      <path id="DejaVuSans-Bold-74" d="M 1759 4494 
L 1759 3500 
L 2913 3500 
L 2913 2700 
L 1759 2700 
L 1759 1216 
Q 1759 972 1856 886 
Q 1953 800 2241 800 
L 2816 800 
L 2816 0 
L 1856 0 
Q 1194 0 917 276 
Q 641 553 641 1216 
L 641 2700 
L 84 2700 
L 84 3500 
L 641 3500 
L 641 4494 
L 1759 4494 
z
" transform="scale(0.015625)"/>
      <path id="DejaVuSans-Bold-79" d="M 78 3500 
L 1197 3500 
L 2138 1125 
L 2938 3500 
L 4056 3500 
L 2584 -331 
Q 2363 -916 2067 -1148 
Q 1772 -1381 1288 -1381 
L 641 -1381 
L 641 -647 
L 991 -647 
Q 1275 -647 1404 -556 
Q 1534 -466 1606 -231 
L 1638 -134 
L 78 3500 
z
" transform="scale(0.015625)"/>
      <path id="DejaVuSans-Bold-6d" d="M 3781 2919 
Q 3994 3244 4286 3414 
Q 4578 3584 4928 3584 
Q 5531 3584 5847 3212 
Q 6163 2841 6163 2131 
L 6163 0 
L 5038 0 
L 5038 1825 
Q 5041 1866 5042 1909 
Q 5044 1953 5044 2034 
Q 5044 2406 4934 2573 
Q 4825 2741 4581 2741 
Q 4263 2741 4089 2478 
Q 3916 2216 3909 1719 
L 3909 0 
L 2784 0 
L 2784 1825 
Q 2784 2406 2684 2573 
Q 2584 2741 2328 2741 
Q 2006 2741 1831 2477 
Q 1656 2213 1656 1722 
L 1656 0 
L 531 0 
L 531 3500 
L 1656 3500 
L 1656 2988 
Q 1863 3284 2130 3434 
Q 2397 3584 2719 3584 
Q 3081 3584 3359 3409 
Q 3638 3234 3781 2919 
z
" transform="scale(0.015625)"/>
      <path id="DejaVuSans-Bold-70" d="M 1656 506 
L 1656 -1331 
L 538 -1331 
L 538 3500 
L 1656 3500 
L 1656 2988 
Q 1888 3294 2169 3439 
Q 2450 3584 2816 3584 
Q 3463 3584 3878 3070 
Q 4294 2556 4294 1747 
Q 4294 938 3878 423 
Q 3463 -91 2816 -91 
Q 2450 -91 2169 54 
Q 1888 200 1656 506 
z
M 2400 2772 
Q 2041 2772 1848 2508 
Q 1656 2244 1656 1747 
Q 1656 1250 1848 986 
Q 2041 722 2400 722 
Q 2759 722 2948 984 
Q 3138 1247 3138 1747 
Q 3138 2247 2948 2509 
Q 2759 2772 2400 2772 
z
" transform="scale(0.015625)"/>
      <path id="DejaVuSans-Bold-5f" d="M 3200 -916 
L 3200 -1509 
L 0 -1509 
L 0 -916 
L 3200 -916 
z
" transform="scale(0.015625)"/>
      <path id="DejaVuSans-Bold-78" d="M 1422 1791 
L 159 3500 
L 1344 3500 
L 2059 2463 
L 2784 3500 
L 3969 3500 
L 2706 1797 
L 4031 0 
L 2847 0 
L 2059 1106 
L 1281 0 
L 97 0 
L 1422 1791 
z
" transform="scale(0.015625)"/>
      <path id="DejaVuSans-Bold-72" d="M 3138 2547 
Q 2991 2616 2845 2648 
Q 2700 2681 2553 2681 
Q 2122 2681 1889 2404 
Q 1656 2128 1656 1613 
L 1656 0 
L 538 0 
L 538 3500 
L 1656 3500 
L 1656 2925 
Q 1872 3269 2151 3426 
Q 2431 3584 2822 3584 
Q 2878 3584 2943 3579 
Q 3009 3575 3134 3559 
L 3138 2547 
z
" transform="scale(0.015625)"/>
     </defs>
     <use xlink:href="#DejaVuSans-Bold-4d"/>
     <use xlink:href="#DejaVuSans-Bold-65" transform="translate(99.511719 0)"/>
     <use xlink:href="#DejaVuSans-Bold-61" transform="translate(167.333984 0)"/>
     <use xlink:href="#DejaVuSans-Bold-6e" transform="translate(234.814453 0)"/>
     <use xlink:href="#DejaVuSans-Bold-20" transform="translate(306.005859 0)"/>
     <use xlink:href="#DejaVuSans-Bold-76" transform="translate(340.820312 0)"/>
     <use xlink:href="#DejaVuSans-Bold-65" transform="translate(406.005859 0)"/>
     <use xlink:href="#DejaVuSans-Bold-6c" transform="translate(473.828125 0)"/>
     <use xlink:href="#DejaVuSans-Bold-6f" transform="translate(508.105469 0)"/>
     <use xlink:href="#DejaVuSans-Bold-63" transform="translate(576.806641 0)"/>
     <use xlink:href="#DejaVuSans-Bold-69" transform="translate(636.083984 0)"/>
     <use xlink:href="#DejaVuSans-Bold-74" transform="translate(670.361328 0)"/>
     <use xlink:href="#DejaVuSans-Bold-79" transform="translate(718.164062 0)"/>
     <use xlink:href="#DejaVuSans-Bold-20" transform="translate(783.349609 0)"/>
     <use xlink:href="#DejaVuSans-Bold-63" transform="translate(818.164062 0)"/>
     <use xlink:href="#DejaVuSans-Bold-6f" transform="translate(877.441406 0)"/>
     <use xlink:href="#DejaVuSans-Bold-6d" transform="translate(946.142578 0)"/>
     <use xlink:href="#DejaVuSans-Bold-70" transform="translate(1050.341797 0)"/>
     <use xlink:href="#DejaVuSans-Bold-6f" transform="translate(1121.923828 0)"/>
     <use xlink:href="#DejaVuSans-Bold-6e" transform="translate(1190.625 0)"/>
     <use xlink:href="#DejaVuSans-Bold-65" transform="translate(1261.816406 0)"/>
     <use xlink:href="#DejaVuSans-Bold-6e" transform="translate(1329.638672 0)"/>
     <use xlink:href="#DejaVuSans-Bold-74" transform="translate(1400.830078 0)"/>
     <use xlink:href="#DejaVuSans-Bold-20" transform="translate(1448.632812 0)"/>
     <use xlink:href="#DejaVuSans-Bold-76" transform="translate(1483.447266 0)"/>
     <use xlink:href="#DejaVuSans-Bold-5f" transform="translate(1548.632812 0)"/>
     <use xlink:href="#DejaVuSans-Bold-78" transform="translate(1598.632812 0)"/>
     <use xlink:href="#DejaVuSans-Bold-20" transform="translate(1663.134766 0)"/>
     <use xlink:href="#DejaVuSans-Bold-6f" transform="translate(1697.949219 0)"/>
     <use xlink:href="#DejaVuSans-Bold-76" transform="translate(1766.650391 0)"/>
     <use xlink:href="#DejaVuSans-Bold-65" transform="translate(1831.835938 0)"/>
     <use xlink:href="#DejaVuSans-Bold-72" transform="translate(1899.658203 0)"/>
     <use xlink:href="#DejaVuSans-Bold-20" transform="translate(1948.974609 0)"/>
     <use xlink:href="#DejaVuSans-Bold-74" transform="translate(1983.789062 0)"/>
     <use xlink:href="#DejaVuSans-Bold-69" transform="translate(2031.591797 0)"/>
     <use xlink:href="#DejaVuSans-Bold-6d" transform="translate(2065.869141 0)"/>
     <use xlink:href="#DejaVuSans-Bold-65" transform="translate(2170.068359 0)"/>
    </g>
   </g>
  </g>
  <g id="axes_2">
   <g id="patch_7">
    <path d="M 39.58149 326.64351 
L 428.99976 326.64351 
L 428.99976 191.529302 
L 39.58149 191.529302 
z
" style="fill: #ffffff"/>
   </g>
   <g id="matplotlib.axis_3">
    <g id="xtick_7">
     <g id="line2d_24">
      <path d="M 57.28232 326.64351 
L 57.28232 191.529302 
" clip-path="url(#p36037302ac)" style="fill: none; stroke: #b0b0b0; stroke-width: 0.8; stroke-linecap: square"/>
     </g>
     <g id="line2d_25">
      <g>
       <use xlink:href="#m3d2c4b7ca2" x="57.28232" y="326.64351" style="stroke: #000000; stroke-width: 0.8"/>
      </g>
     </g>
     <g id="text_9">
      <!-- 0 -->
      <g transform="translate(54.10107 341.241947) scale(0.1 -0.1)">
       <use xlink:href="#DejaVuSans-30"/>
      </g>
     </g>
    </g>
    <g id="xtick_8">
     <g id="line2d_26">
      <path d="M 128.092723 326.64351 
L 128.092723 191.529302 
" clip-path="url(#p36037302ac)" style="fill: none; stroke: #b0b0b0; stroke-width: 0.8; stroke-linecap: square"/>
     </g>
     <g id="line2d_27">
      <g>
       <use xlink:href="#m3d2c4b7ca2" x="128.092723" y="326.64351" style="stroke: #000000; stroke-width: 0.8"/>
      </g>
     </g>
     <g id="text_10">
      <!-- 2000 -->
      <g transform="translate(115.367723 341.241947) scale(0.1 -0.1)">
       <use xlink:href="#DejaVuSans-32"/>
       <use xlink:href="#DejaVuSans-30" transform="translate(63.623047 0)"/>
       <use xlink:href="#DejaVuSans-30" transform="translate(127.246094 0)"/>
       <use xlink:href="#DejaVuSans-30" transform="translate(190.869141 0)"/>
      </g>
     </g>
    </g>
    <g id="xtick_9">
     <g id="line2d_28">
      <path d="M 198.903126 326.64351 
L 198.903126 191.529302 
" clip-path="url(#p36037302ac)" style="fill: none; stroke: #b0b0b0; stroke-width: 0.8; stroke-linecap: square"/>
     </g>
     <g id="line2d_29">
      <g>
       <use xlink:href="#m3d2c4b7ca2" x="198.903126" y="326.64351" style="stroke: #000000; stroke-width: 0.8"/>
      </g>
     </g>
     <g id="text_11">
      <!-- 4000 -->
      <g transform="translate(186.178126 341.241947) scale(0.1 -0.1)">
       <use xlink:href="#DejaVuSans-34"/>
       <use xlink:href="#DejaVuSans-30" transform="translate(63.623047 0)"/>
       <use xlink:href="#DejaVuSans-30" transform="translate(127.246094 0)"/>
       <use xlink:href="#DejaVuSans-30" transform="translate(190.869141 0)"/>
      </g>
     </g>
    </g>
    <g id="xtick_10">
     <g id="line2d_30">
      <path d="M 269.713529 326.64351 
L 269.713529 191.529302 
" clip-path="url(#p36037302ac)" style="fill: none; stroke: #b0b0b0; stroke-width: 0.8; stroke-linecap: square"/>
     </g>
     <g id="line2d_31">
      <g>
       <use xlink:href="#m3d2c4b7ca2" x="269.713529" y="326.64351" style="stroke: #000000; stroke-width: 0.8"/>
      </g>
     </g>
     <g id="text_12">
      <!-- 6000 -->
      <g transform="translate(256.988529 341.241947) scale(0.1 -0.1)">
       <use xlink:href="#DejaVuSans-36"/>
       <use xlink:href="#DejaVuSans-30" transform="translate(63.623047 0)"/>
       <use xlink:href="#DejaVuSans-30" transform="translate(127.246094 0)"/>
       <use xlink:href="#DejaVuSans-30" transform="translate(190.869141 0)"/>
      </g>
     </g>
    </g>
    <g id="xtick_11">
     <g id="line2d_32">
      <path d="M 340.523932 326.64351 
L 340.523932 191.529302 
" clip-path="url(#p36037302ac)" style="fill: none; stroke: #b0b0b0; stroke-width: 0.8; stroke-linecap: square"/>
     </g>
     <g id="line2d_33">
      <g>
       <use xlink:href="#m3d2c4b7ca2" x="340.523932" y="326.64351" style="stroke: #000000; stroke-width: 0.8"/>
      </g>
     </g>
     <g id="text_13">
      <!-- 8000 -->
      <g transform="translate(327.798932 341.241947) scale(0.1 -0.1)">
       <use xlink:href="#DejaVuSans-38"/>
       <use xlink:href="#DejaVuSans-30" transform="translate(63.623047 0)"/>
       <use xlink:href="#DejaVuSans-30" transform="translate(127.246094 0)"/>
       <use xlink:href="#DejaVuSans-30" transform="translate(190.869141 0)"/>
      </g>
     </g>
    </g>
    <g id="xtick_12">
     <g id="line2d_34">
      <path d="M 411.334335 326.64351 
L 411.334335 191.529302 
" clip-path="url(#p36037302ac)" style="fill: none; stroke: #b0b0b0; stroke-width: 0.8; stroke-linecap: square"/>
     </g>
     <g id="line2d_35">
      <g>
       <use xlink:href="#m3d2c4b7ca2" x="411.334335" y="326.64351" style="stroke: #000000; stroke-width: 0.8"/>
      </g>
     </g>
     <g id="text_14">
      <!-- 10000 -->
      <g transform="translate(395.428085 341.241947) scale(0.1 -0.1)">
       <defs>
        <path id="DejaVuSans-31" d="M 794 531 
L 1825 531 
L 1825 4091 
L 703 3866 
L 703 4441 
L 1819 4666 
L 2450 4666 
L 2450 531 
L 3481 531 
L 3481 0 
L 794 0 
L 794 531 
z
" transform="scale(0.015625)"/>
       </defs>
       <use xlink:href="#DejaVuSans-31"/>
       <use xlink:href="#DejaVuSans-30" transform="translate(63.623047 0)"/>
       <use xlink:href="#DejaVuSans-30" transform="translate(127.246094 0)"/>
       <use xlink:href="#DejaVuSans-30" transform="translate(190.869141 0)"/>
       <use xlink:href="#DejaVuSans-30" transform="translate(254.492188 0)"/>
      </g>
     </g>
    </g>
    <g id="text_15">
     <!-- timestep -->
     <g transform="translate(212.178906 354.920073) scale(0.1 -0.1)">
      <use xlink:href="#DejaVuSans-74"/>
      <use xlink:href="#DejaVuSans-69" transform="translate(39.208984 0)"/>
      <use xlink:href="#DejaVuSans-6d" transform="translate(66.992188 0)"/>
      <use xlink:href="#DejaVuSans-65" transform="translate(164.404297 0)"/>
      <use xlink:href="#DejaVuSans-73" transform="translate(225.927734 0)"/>
      <use xlink:href="#DejaVuSans-74" transform="translate(278.027344 0)"/>
      <use xlink:href="#DejaVuSans-65" transform="translate(317.236328 0)"/>
      <use xlink:href="#DejaVuSans-70" transform="translate(378.759766 0)"/>
     </g>
    </g>
   </g>
   <g id="matplotlib.axis_4">
    <g id="ytick_6">
     <g id="line2d_36">
      <path d="M 39.58149 320.824866 
L 428.99976 320.824866 
" clip-path="url(#p36037302ac)" style="fill: none; stroke: #b0b0b0; stroke-width: 0.8; stroke-linecap: square"/>
     </g>
     <g id="line2d_37">
      <g>
       <use xlink:href="#md02fe2c27e" x="39.58149" y="320.824866" style="stroke: #000000; stroke-width: 0.8"/>
      </g>
     </g>
     <g id="text_16">
      <!-- 0.0 -->
      <g transform="translate(16.678365 324.624084) scale(0.1 -0.1)">
       <use xlink:href="#DejaVuSans-30"/>
       <use xlink:href="#DejaVuSans-2e" transform="translate(63.623047 0)"/>
       <use xlink:href="#DejaVuSans-30" transform="translate(95.410156 0)"/>
      </g>
     </g>
    </g>
    <g id="ytick_7">
     <g id="line2d_38">
      <path d="M 39.58149 295.482381 
L 428.99976 295.482381 
" clip-path="url(#p36037302ac)" style="fill: none; stroke: #b0b0b0; stroke-width: 0.8; stroke-linecap: square"/>
     </g>
     <g id="line2d_39">
      <g>
       <use xlink:href="#md02fe2c27e" x="39.58149" y="295.482381" style="stroke: #000000; stroke-width: 0.8"/>
      </g>
     </g>
     <g id="text_17">
      <!-- 0.2 -->
      <g transform="translate(16.678365 299.2816) scale(0.1 -0.1)">
       <use xlink:href="#DejaVuSans-30"/>
       <use xlink:href="#DejaVuSans-2e" transform="translate(63.623047 0)"/>
       <use xlink:href="#DejaVuSans-32" transform="translate(95.410156 0)"/>
      </g>
     </g>
    </g>
    <g id="ytick_8">
     <g id="line2d_40">
      <path d="M 39.58149 270.139897 
L 428.99976 270.139897 
" clip-path="url(#p36037302ac)" style="fill: none; stroke: #b0b0b0; stroke-width: 0.8; stroke-linecap: square"/>
     </g>
     <g id="line2d_41">
      <g>
       <use xlink:href="#md02fe2c27e" x="39.58149" y="270.139897" style="stroke: #000000; stroke-width: 0.8"/>
      </g>
     </g>
     <g id="text_18">
      <!-- 0.4 -->
      <g transform="translate(16.678365 273.939116) scale(0.1 -0.1)">
       <use xlink:href="#DejaVuSans-30"/>
       <use xlink:href="#DejaVuSans-2e" transform="translate(63.623047 0)"/>
       <use xlink:href="#DejaVuSans-34" transform="translate(95.410156 0)"/>
      </g>
     </g>
    </g>
    <g id="ytick_9">
     <g id="line2d_42">
      <path d="M 39.58149 244.797413 
L 428.99976 244.797413 
" clip-path="url(#p36037302ac)" style="fill: none; stroke: #b0b0b0; stroke-width: 0.8; stroke-linecap: square"/>
     </g>
     <g id="line2d_43">
      <g>
       <use xlink:href="#md02fe2c27e" x="39.58149" y="244.797413" style="stroke: #000000; stroke-width: 0.8"/>
      </g>
     </g>
     <g id="text_19">
      <!-- 0.6 -->
      <g transform="translate(16.678365 248.596632) scale(0.1 -0.1)">
       <use xlink:href="#DejaVuSans-30"/>
       <use xlink:href="#DejaVuSans-2e" transform="translate(63.623047 0)"/>
       <use xlink:href="#DejaVuSans-36" transform="translate(95.410156 0)"/>
      </g>
     </g>
    </g>
    <g id="ytick_10">
     <g id="line2d_44">
      <path d="M 39.58149 219.454928 
L 428.99976 219.454928 
" clip-path="url(#p36037302ac)" style="fill: none; stroke: #b0b0b0; stroke-width: 0.8; stroke-linecap: square"/>
     </g>
     <g id="line2d_45">
      <g>
       <use xlink:href="#md02fe2c27e" x="39.58149" y="219.454928" style="stroke: #000000; stroke-width: 0.8"/>
      </g>
     </g>
     <g id="text_20">
      <!-- 0.8 -->
      <g transform="translate(16.678365 223.254147) scale(0.1 -0.1)">
       <use xlink:href="#DejaVuSans-30"/>
       <use xlink:href="#DejaVuSans-2e" transform="translate(63.623047 0)"/>
       <use xlink:href="#DejaVuSans-38" transform="translate(95.410156 0)"/>
      </g>
     </g>
    </g>
    <g id="ytick_11">
     <g id="line2d_46">
      <path d="M 39.58149 194.112444 
L 428.99976 194.112444 
" clip-path="url(#p36037302ac)" style="fill: none; stroke: #b0b0b0; stroke-width: 0.8; stroke-linecap: square"/>
     </g>
     <g id="line2d_47">
      <g>
       <use xlink:href="#md02fe2c27e" x="39.58149" y="194.112444" style="stroke: #000000; stroke-width: 0.8"/>
      </g>
     </g>
     <g id="text_21">
      <!-- 1.0 -->
      <g transform="translate(16.678365 197.911663) scale(0.1 -0.1)">
       <use xlink:href="#DejaVuSans-31"/>
       <use xlink:href="#DejaVuSans-2e" transform="translate(63.623047 0)"/>
       <use xlink:href="#DejaVuSans-30" transform="translate(95.410156 0)"/>
      </g>
     </g>
    </g>
    <g id="text_22">
     <!-- v_y -->
     <g transform="translate(10.320552 267.505156) rotate(-90) scale(0.1 -0.1)">
      <defs>
       <path id="DejaVuSans-79" d="M 2059 -325 
Q 1816 -950 1584 -1140 
Q 1353 -1331 966 -1331 
L 506 -1331 
L 506 -850 
L 844 -850 
Q 1081 -850 1212 -737 
Q 1344 -625 1503 -206 
L 1606 56 
L 191 3500 
L 800 3500 
L 1894 763 
L 2988 3500 
L 3597 3500 
L 2059 -325 
z
" transform="scale(0.015625)"/>
      </defs>
      <use xlink:href="#DejaVuSans-76"/>
      <use xlink:href="#DejaVuSans-5f" transform="translate(59.179688 0)"/>
      <use xlink:href="#DejaVuSans-79" transform="translate(109.179688 0)"/>
     </g>
    </g>
   </g>
   <g id="line2d_48">
    <path d="M 57.28232 307.438629 
L 57.494752 306.477102 
L 57.884209 305.672484 
L 58.16745 305.5239 
L 58.238261 305.611516 
L 58.556908 306.473167 
L 58.592313 306.456929 
L 58.875555 306.041843 
L 59.406633 304.824141 
L 59.583659 304.109655 
L 60.397978 299.552394 
L 60.433383 299.582081 
L 60.539599 300.068505 
L 61.530945 305.420715 
L 61.849591 307.117013 
L 63.372015 318.963379 
L 63.619852 319.073378 
L 63.761472 318.981791 
L 63.796878 319.053335 
L 64.257145 320.501955 
L 64.29255 320.491473 
L 64.398766 320.162243 
L 64.859034 317.317862 
L 65.602543 310.65494 
L 66.983346 293.084362 
L 67.443613 290.079785 
L 67.83307 288.887822 
L 67.868476 288.90716 
L 68.116312 289.320784 
L 68.328743 289.584104 
L 68.859821 289.307063 
L 69.072253 288.686743 
L 69.426305 287.770534 
L 69.603331 287.06859 
L 69.992788 283.924477 
L 70.665487 277.826328 
L 71.267375 275.239211 
L 71.727643 271.773536 
L 71.833858 271.709183 
L 71.869263 271.7414 
L 72.010884 272.123934 
L 72.789799 274.775068 
L 73.037635 274.938605 
L 73.07304 274.889669 
L 73.320877 274.608322 
L 73.674929 274.538868 
L 73.922765 274.46114 
L 74.276817 274.492314 
L 74.914111 272.921956 
L 75.091137 272.327406 
L 75.409784 269.707577 
L 75.905456 263.322408 
L 76.330319 258.341465 
L 76.47194 258.055367 
L 76.578155 258.29612 
L 77.463285 261.557739 
L 77.604906 261.508807 
L 77.852742 261.038715 
L 78.135984 259.996659 
L 78.383821 258.030457 
L 79.233545 250.274867 
L 79.516787 249.257181 
L 79.658408 249.282407 
L 79.941649 249.830219 
L 80.08327 249.909509 
L 80.224891 249.788288 
L 80.614348 248.750005 
L 80.862185 248.392015 
L 81.110021 248.528694 
L 81.251642 248.305669 
L 81.676504 247.071468 
L 81.888935 244.764228 
L 82.349203 236.503341 
L 82.774065 230.499438 
L 83.163523 227.793315 
L 83.411359 227.155868 
L 83.62379 227.067741 
L 83.800816 227.308442 
L 84.119463 228.326585 
L 84.3673 230.038183 
L 85.25243 238.145653 
L 85.500266 238.604079 
L 85.641887 238.47376 
L 85.854318 237.793639 
L 86.066749 236.205409 
L 87.0935 226.380755 
L 87.482957 224.813256 
L 87.730794 224.560441 
L 87.90782 224.525709 
L 88.509708 224.918852 
L 88.686734 224.649872 
L 89.076191 223.407857 
L 90.102942 218.721585 
L 90.492399 215.98398 
L 91.377529 209.152589 
L 91.696176 208.320704 
L 91.944013 208.141049 
L 92.298065 208.302775 
L 92.616711 208.849853 
L 92.970763 209.350308 
L 93.14779 209.284825 
L 93.324816 208.917502 
L 93.572652 207.849545 
L 94.068325 204.403858 
L 94.705618 200.435764 
L 95.05967 199.435461 
L 95.449128 198.99751 
L 95.80318 198.883263 
L 96.298852 199.018017 
L 96.82993 199.359227 
L 97.325603 199.948164 
L 97.892086 201.335121 
L 98.281544 201.876281 
L 98.52938 201.912877 
L 98.777217 201.687764 
L 99.131269 201.009588 
L 100.547477 198.058743 
L 100.972339 197.716525 
L 101.326391 197.684217 
L 101.715848 197.891278 
L 102.317737 198.549077 
L 103.025841 199.300094 
L 103.344488 199.33857 
L 103.663134 199.134604 
L 104.689885 198.250976 
L 105.150153 198.109923 
L 105.53961 198.224453 
L 105.999878 198.595173 
L 106.849602 199.338544 
L 107.23906 199.41859 
L 107.593112 199.268096 
L 108.088785 199.007639 
L 108.690673 199.012494 
L 109.08013 199.271484 
L 110.496338 200.521621 
L 110.85039 200.408397 
L 111.346063 199.96069 
L 111.66471 199.771241 
L 112.195788 199.81115 
L 112.656055 200.091773 
L 114.107669 201.216139 
L 114.567936 201.163701 
L 115.488472 201.007714 
L 115.948739 201.211369 
L 117.364947 202.062153 
L 117.825215 201.937687 
L 118.958181 201.477259 
L 120.4452 202.45721 
L 121.011683 202.514032 
L 123.206806 202.400863 
L 123.98572 202.998777 
L 124.552203 203.175953 
L 125.401928 203.154276 
L 126.216248 203.216505 
L 126.782731 203.447723 
L 127.313809 203.805956 
L 127.774077 203.852232 
L 129.862983 203.682576 
L 131.279191 204.000375 
L 133.049452 205.223347 
L 133.509719 205.672414 
L 134.394849 206.650079 
L 134.748901 206.792569 
L 135.704842 207.521665 
L 135.988083 207.416368 
L 136.766998 206.947653 
L 137.510507 206.858534 
L 137.899964 206.439379 
L 138.678879 205.564309 
L 139.032931 205.492165 
L 139.422388 205.667646 
L 140.236707 206.082068 
L 140.626165 206.025624 
L 141.121837 205.696469 
L 141.936157 205.154459 
L 142.361019 205.14466 
L 143.033718 205.401727 
L 143.812633 205.619003 
L 144.697763 205.572325 
L 147.955041 205.410992 
L 149.335844 205.533579 
L 151.070699 205.412558 
L 152.628528 205.611981 
L 154.68203 205.417303 
L 156.027427 205.517356 
L 157.833093 205.475681 
L 159.355516 205.576765 
L 161.338207 205.544286 
L 162.931442 205.575206 
L 167.675739 205.414139 
L 178.757567 205.131045 
L 182.368897 205.216397 
L 185.767796 205.225494 
L 195.433416 205.307467 
L 202.797698 205.403325 
L 214.021147 205.340231 
L 219.685979 205.245376 
L 232.325636 205.368595 
L 238.309115 205.287909 
L 241.955851 205.248533 
L 249.001486 205.20104 
L 257.53414 205.175518 
L 272.545945 205.359095 
L 367.325669 205.352499 
L 386.763125 205.394468 
L 411.29893 205.335807 
L 411.29893 205.335807 
" clip-path="url(#p36037302ac)" style="fill: none; stroke: #ff0000; stroke-width: 2; stroke-linecap: square"/>
   </g>
   <g id="patch_8">
    <path d="M 39.58149 326.64351 
L 39.58149 191.529302 
" style="fill: none; stroke: #000000; stroke-width: 0.8; stroke-linejoin: miter; stroke-linecap: square"/>
   </g>
   <g id="patch_9">
    <path d="M 428.99976 326.64351 
L 428.99976 191.529302 
" style="fill: none; stroke: #000000; stroke-width: 0.8; stroke-linejoin: miter; stroke-linecap: square"/>
   </g>
   <g id="patch_10">
    <path d="M 39.58149 326.64351 
L 428.99976 326.64351 
" style="fill: none; stroke: #000000; stroke-width: 0.8; stroke-linejoin: miter; stroke-linecap: square"/>
   </g>
   <g id="patch_11">
    <path d="M 39.58149 191.529302 
L 428.99976 191.529302 
" style="fill: none; stroke: #000000; stroke-width: 0.8; stroke-linejoin: miter; stroke-linecap: square"/>
   </g>
   <g id="text_23">
    <!-- Mean velocity component v_y over time -->
    <g transform="translate(99.974063 185.529302) scale(0.12 -0.12)">
     <use xlink:href="#DejaVuSans-Bold-4d"/>
     <use xlink:href="#DejaVuSans-Bold-65" transform="translate(99.511719 0)"/>
     <use xlink:href="#DejaVuSans-Bold-61" transform="translate(167.333984 0)"/>
     <use xlink:href="#DejaVuSans-Bold-6e" transform="translate(234.814453 0)"/>
     <use xlink:href="#DejaVuSans-Bold-20" transform="translate(306.005859 0)"/>
     <use xlink:href="#DejaVuSans-Bold-76" transform="translate(340.820312 0)"/>
     <use xlink:href="#DejaVuSans-Bold-65" transform="translate(406.005859 0)"/>
     <use xlink:href="#DejaVuSans-Bold-6c" transform="translate(473.828125 0)"/>
     <use xlink:href="#DejaVuSans-Bold-6f" transform="translate(508.105469 0)"/>
     <use xlink:href="#DejaVuSans-Bold-63" transform="translate(576.806641 0)"/>
     <use xlink:href="#DejaVuSans-Bold-69" transform="translate(636.083984 0)"/>
     <use xlink:href="#DejaVuSans-Bold-74" transform="translate(670.361328 0)"/>
     <use xlink:href="#DejaVuSans-Bold-79" transform="translate(718.164062 0)"/>
     <use xlink:href="#DejaVuSans-Bold-20" transform="translate(783.349609 0)"/>
     <use xlink:href="#DejaVuSans-Bold-63" transform="translate(818.164062 0)"/>
     <use xlink:href="#DejaVuSans-Bold-6f" transform="translate(877.441406 0)"/>
     <use xlink:href="#DejaVuSans-Bold-6d" transform="translate(946.142578 0)"/>
     <use xlink:href="#DejaVuSans-Bold-70" transform="translate(1050.341797 0)"/>
     <use xlink:href="#DejaVuSans-Bold-6f" transform="translate(1121.923828 0)"/>
     <use xlink:href="#DejaVuSans-Bold-6e" transform="translate(1190.625 0)"/>
     <use xlink:href="#DejaVuSans-Bold-65" transform="translate(1261.816406 0)"/>
     <use xlink:href="#DejaVuSans-Bold-6e" transform="translate(1329.638672 0)"/>
     <use xlink:href="#DejaVuSans-Bold-74" transform="translate(1400.830078 0)"/>
     <use xlink:href="#DejaVuSans-Bold-20" transform="translate(1448.632812 0)"/>
     <use xlink:href="#DejaVuSans-Bold-76" transform="translate(1483.447266 0)"/>
     <use xlink:href="#DejaVuSans-Bold-5f" transform="translate(1548.632812 0)"/>
     <use xlink:href="#DejaVuSans-Bold-79" transform="translate(1598.632812 0)"/>
     <use xlink:href="#DejaVuSans-Bold-20" transform="translate(1663.818359 0)"/>
     <use xlink:href="#DejaVuSans-Bold-6f" transform="translate(1698.632812 0)"/>
     <use xlink:href="#DejaVuSans-Bold-76" transform="translate(1767.333984 0)"/>
     <use xlink:href="#DejaVuSans-Bold-65" transform="translate(1832.519531 0)"/>
     <use xlink:href="#DejaVuSans-Bold-72" transform="translate(1900.341797 0)"/>
     <use xlink:href="#DejaVuSans-Bold-20" transform="translate(1949.658203 0)"/>
     <use xlink:href="#DejaVuSans-Bold-74" transform="translate(1984.472656 0)"/>
     <use xlink:href="#DejaVuSans-Bold-69" transform="translate(2032.275391 0)"/>
     <use xlink:href="#DejaVuSans-Bold-6d" transform="translate(2066.552734 0)"/>
     <use xlink:href="#DejaVuSans-Bold-65" transform="translate(2170.751953 0)"/>
    </g>
   </g>
  </g>
 </g>
 <defs>
  <clipPath id="p451d3dceb1">
   <rect x="39.58149" y="18.118365" width="389.41827" height="135.114207"/>
  </clipPath>
  <clipPath id="p36037302ac">
   <rect x="39.58149" y="191.529302" width="389.41827" height="135.114208"/>
  </clipPath>
 </defs>
</svg>
