<?xml version="1.0" encoding="utf-8" standalone="no"?>
<!DOCTYPE svg PUBLIC "-//W3C//DTD SVG 1.1//EN"
  "http://www.w3.org/Graphics/SVG/1.1/DTD/svg11.dtd">
<svg xmlns:xlink="http://www.w3.org/1999/xlink" width="576pt" height="360pt" viewBox="0 0 576 360" xmlns="http://www.w3.org/2000/svg" version="1.1">
 <metadata>
  <rdf:RDF xmlns:dc="http://purl.org/dc/elements/1.1/" xmlns:cc="http://creativecommons.org/ns#" xmlns:rdf="http://www.w3.org/1999/02/22-rdf-syntax-ns#">
   <cc:Work>
    <dc:type rdf:resource="http://purl.org/dc/dcmitype/StillImage"/>
    <dc:date>2025-05-08T14:30:42.507292</dc:date>
    <dc:format>image/svg+xml</dc:format>
    <dc:creator>
     <cc:Agent>
      <dc:title>Matplotlib v3.10.1, https://matplotlib.org/</dc:title>
     </cc:Agent>
    </dc:creator>
   </cc:Work>
  </rdf:RDF>
 </metadata>
 <defs>
  <style type="text/css">*{stroke-linejoin: round; stroke-linecap: butt}</style>
 </defs>
 <g id="figure_1">
  <g id="patch_1">
   <path d="M 0 360 
L 576 360 
L 576 0 
L 0 0 
z
" style="fill: #ffffff"/>
  </g>
  <g id="axes_1">
   <g id="patch_2">
    <path d="M 62.39 314.728 
L 188.4 314.728 
L 188.4 28.32 
L 62.39 28.32 
z
" style="fill: #ffffff"/>
   </g>
   <g id="matplotlib.axis_1">
    <g id="xtick_1">
     <g id="line2d_1">
      <defs>
       <path id="mf661955702" d="M 0 0 
L 0 3.5 
" style="stroke: #000000; stroke-width: 0.8"/>
      </defs>
      <g>
       <use xlink:href="#mf661955702" x="62.39" y="314.728" style="stroke: #000000; stroke-width: 0.8"/>
      </g>
     </g>
     <g id="text_1">
      <!-- $\mathdefault{10^{0}}$ -->
      <g transform="translate(53.59 329.326437) scale(0.1 -0.1)">
       <defs>
        <path id="DejaVuSans-31" d="M 794 531 
L 1825 531 
L 1825 4091 
L 703 3866 
L 703 4441 
L 1819 4666 
L 2450 4666 
L 2450 531 
L 3481 531 
L 3481 0 
L 794 0 
L 794 531 
z
" transform="scale(0.015625)"/>
        <path id="DejaVuSans-30" d="M 2034 4250 
Q 1547 4250 1301 3770 
Q 1056 3291 1056 2328 
Q 1056 1369 1301 889 
Q 1547 409 2034 409 
Q 2525 409 2770 889 
Q 3016 1369 3016 2328 
Q 3016 3291 2770 3770 
Q 2525 4250 2034 4250 
z
M 2034 4750 
Q 2819 4750 3233 4129 
Q 3647 3509 3647 2328 
Q 3647 1150 3233 529 
Q 2819 -91 2034 -91 
Q 1250 -91 836 529 
Q 422 1150 422 2328 
Q 422 3509 836 4129 
Q 1250 4750 2034 4750 
z
" transform="scale(0.015625)"/>
       </defs>
       <use xlink:href="#DejaVuSans-31" transform="translate(0 0.765625)"/>
       <use xlink:href="#DejaVuSans-30" transform="translate(63.623047 0.765625)"/>
       <use xlink:href="#DejaVuSans-30" transform="translate(128.203125 39.046875) scale(0.7)"/>
      </g>
     </g>
    </g>
    <g id="xtick_2">
     <g id="line2d_2">
      <g>
       <use xlink:href="#mf661955702" x="96.45624" y="314.728" style="stroke: #000000; stroke-width: 0.8"/>
      </g>
     </g>
     <g id="text_2">
      <!-- $\mathdefault{10^{1}}$ -->
      <g transform="translate(87.65624 329.326437) scale(0.1 -0.1)">
       <use xlink:href="#DejaVuSans-31" transform="translate(0 0.684375)"/>
       <use xlink:href="#DejaVuSans-30" transform="translate(63.623047 0.684375)"/>
       <use xlink:href="#DejaVuSans-31" transform="translate(128.203125 38.965625) scale(0.7)"/>
      </g>
     </g>
    </g>
    <g id="xtick_3">
     <g id="line2d_3">
      <g>
       <use xlink:href="#mf661955702" x="130.52248" y="314.728" style="stroke: #000000; stroke-width: 0.8"/>
      </g>
     </g>
     <g id="text_3">
      <!-- $\mathdefault{10^{2}}$ -->
      <g transform="translate(121.72248 329.326437) scale(0.1 -0.1)">
       <defs>
        <path id="DejaVuSans-32" d="M 1228 531 
L 3431 531 
L 3431 0 
L 469 0 
L 469 531 
Q 828 903 1448 1529 
Q 2069 2156 2228 2338 
Q 2531 2678 2651 2914 
Q 2772 3150 2772 3378 
Q 2772 3750 2511 3984 
Q 2250 4219 1831 4219 
Q 1534 4219 1204 4116 
Q 875 4013 500 3803 
L 500 4441 
Q 881 4594 1212 4672 
Q 1544 4750 1819 4750 
Q 2544 4750 2975 4387 
Q 3406 4025 3406 3419 
Q 3406 3131 3298 2873 
Q 3191 2616 2906 2266 
Q 2828 2175 2409 1742 
Q 1991 1309 1228 531 
z
" transform="scale(0.015625)"/>
       </defs>
       <use xlink:href="#DejaVuSans-31" transform="translate(0 0.765625)"/>
       <use xlink:href="#DejaVuSans-30" transform="translate(63.623047 0.765625)"/>
       <use xlink:href="#DejaVuSans-32" transform="translate(128.203125 39.046875) scale(0.7)"/>
      </g>
     </g>
    </g>
    <g id="xtick_4">
     <g id="line2d_4">
      <g>
       <use xlink:href="#mf661955702" x="164.58872" y="314.728" style="stroke: #000000; stroke-width: 0.8"/>
      </g>
     </g>
     <g id="text_4">
      <!-- $\mathdefault{10^{3}}$ -->
      <g transform="translate(155.78872 329.326437) scale(0.1 -0.1)">
       <defs>
        <path id="DejaVuSans-33" d="M 2597 2516 
Q 3050 2419 3304 2112 
Q 3559 1806 3559 1356 
Q 3559 666 3084 287 
Q 2609 -91 1734 -91 
Q 1441 -91 1130 -33 
Q 819 25 488 141 
L 488 750 
Q 750 597 1062 519 
Q 1375 441 1716 441 
Q 2309 441 2620 675 
Q 2931 909 2931 1356 
Q 2931 1769 2642 2001 
Q 2353 2234 1838 2234 
L 1294 2234 
L 1294 2753 
L 1863 2753 
Q 2328 2753 2575 2939 
Q 2822 3125 2822 3475 
Q 2822 3834 2567 4026 
Q 2313 4219 1838 4219 
Q 1578 4219 1281 4162 
Q 984 4106 628 3988 
L 628 4550 
Q 988 4650 1302 4700 
Q 1616 4750 1894 4750 
Q 2613 4750 3031 4423 
Q 3450 4097 3450 3541 
Q 3450 3153 3228 2886 
Q 3006 2619 2597 2516 
z
" transform="scale(0.015625)"/>
       </defs>
       <use xlink:href="#DejaVuSans-31" transform="translate(0 0.765625)"/>
       <use xlink:href="#DejaVuSans-30" transform="translate(63.623047 0.765625)"/>
       <use xlink:href="#DejaVuSans-33" transform="translate(128.203125 39.046875) scale(0.7)"/>
      </g>
     </g>
    </g>
    <g id="xtick_5">
     <g id="line2d_5">
      <defs>
       <path id="m78271d10f4" d="M 0 0 
L 0 2 
" style="stroke: #000000; stroke-width: 0.6"/>
      </defs>
      <g>
       <use xlink:href="#m78271d10f4" x="72.64496" y="314.728" style="stroke: #000000; stroke-width: 0.6"/>
      </g>
     </g>
    </g>
    <g id="xtick_6">
     <g id="line2d_6">
      <g>
       <use xlink:href="#m78271d10f4" x="78.643727" y="314.728" style="stroke: #000000; stroke-width: 0.6"/>
      </g>
     </g>
    </g>
    <g id="xtick_7">
     <g id="line2d_7">
      <g>
       <use xlink:href="#m78271d10f4" x="82.89992" y="314.728" style="stroke: #000000; stroke-width: 0.6"/>
      </g>
     </g>
    </g>
    <g id="xtick_8">
     <g id="line2d_8">
      <g>
       <use xlink:href="#m78271d10f4" x="86.20128" y="314.728" style="stroke: #000000; stroke-width: 0.6"/>
      </g>
     </g>
    </g>
    <g id="xtick_9">
     <g id="line2d_9">
      <g>
       <use xlink:href="#m78271d10f4" x="88.898687" y="314.728" style="stroke: #000000; stroke-width: 0.6"/>
      </g>
     </g>
    </g>
    <g id="xtick_10">
     <g id="line2d_10">
      <g>
       <use xlink:href="#m78271d10f4" x="91.179313" y="314.728" style="stroke: #000000; stroke-width: 0.6"/>
      </g>
     </g>
    </g>
    <g id="xtick_11">
     <g id="line2d_11">
      <g>
       <use xlink:href="#m78271d10f4" x="93.15488" y="314.728" style="stroke: #000000; stroke-width: 0.6"/>
      </g>
     </g>
    </g>
    <g id="xtick_12">
     <g id="line2d_12">
      <g>
       <use xlink:href="#m78271d10f4" x="94.897454" y="314.728" style="stroke: #000000; stroke-width: 0.6"/>
      </g>
     </g>
    </g>
    <g id="xtick_13">
     <g id="line2d_13">
      <g>
       <use xlink:href="#m78271d10f4" x="106.7112" y="314.728" style="stroke: #000000; stroke-width: 0.6"/>
      </g>
     </g>
    </g>
    <g id="xtick_14">
     <g id="line2d_14">
      <g>
       <use xlink:href="#m78271d10f4" x="112.709967" y="314.728" style="stroke: #000000; stroke-width: 0.6"/>
      </g>
     </g>
    </g>
    <g id="xtick_15">
     <g id="line2d_15">
      <g>
       <use xlink:href="#m78271d10f4" x="116.96616" y="314.728" style="stroke: #000000; stroke-width: 0.6"/>
      </g>
     </g>
    </g>
    <g id="xtick_16">
     <g id="line2d_16">
      <g>
       <use xlink:href="#m78271d10f4" x="120.26752" y="314.728" style="stroke: #000000; stroke-width: 0.6"/>
      </g>
     </g>
    </g>
    <g id="xtick_17">
     <g id="line2d_17">
      <g>
       <use xlink:href="#m78271d10f4" x="122.964927" y="314.728" style="stroke: #000000; stroke-width: 0.6"/>
      </g>
     </g>
    </g>
    <g id="xtick_18">
     <g id="line2d_18">
      <g>
       <use xlink:href="#m78271d10f4" x="125.245553" y="314.728" style="stroke: #000000; stroke-width: 0.6"/>
      </g>
     </g>
    </g>
    <g id="xtick_19">
     <g id="line2d_19">
      <g>
       <use xlink:href="#m78271d10f4" x="127.22112" y="314.728" style="stroke: #000000; stroke-width: 0.6"/>
      </g>
     </g>
    </g>
    <g id="xtick_20">
     <g id="line2d_20">
      <g>
       <use xlink:href="#m78271d10f4" x="128.963694" y="314.728" style="stroke: #000000; stroke-width: 0.6"/>
      </g>
     </g>
    </g>
    <g id="xtick_21">
     <g id="line2d_21">
      <g>
       <use xlink:href="#m78271d10f4" x="140.77744" y="314.728" style="stroke: #000000; stroke-width: 0.6"/>
      </g>
     </g>
    </g>
    <g id="xtick_22">
     <g id="line2d_22">
      <g>
       <use xlink:href="#m78271d10f4" x="146.776207" y="314.728" style="stroke: #000000; stroke-width: 0.6"/>
      </g>
     </g>
    </g>
    <g id="xtick_23">
     <g id="line2d_23">
      <g>
       <use xlink:href="#m78271d10f4" x="151.0324" y="314.728" style="stroke: #000000; stroke-width: 0.6"/>
      </g>
     </g>
    </g>
    <g id="xtick_24">
     <g id="line2d_24">
      <g>
       <use xlink:href="#m78271d10f4" x="154.33376" y="314.728" style="stroke: #000000; stroke-width: 0.6"/>
      </g>
     </g>
    </g>
    <g id="xtick_25">
     <g id="line2d_25">
      <g>
       <use xlink:href="#m78271d10f4" x="157.031167" y="314.728" style="stroke: #000000; stroke-width: 0.6"/>
      </g>
     </g>
    </g>
    <g id="xtick_26">
     <g id="line2d_26">
      <g>
       <use xlink:href="#m78271d10f4" x="159.311793" y="314.728" style="stroke: #000000; stroke-width: 0.6"/>
      </g>
     </g>
    </g>
    <g id="xtick_27">
     <g id="line2d_27">
      <g>
       <use xlink:href="#m78271d10f4" x="161.28736" y="314.728" style="stroke: #000000; stroke-width: 0.6"/>
      </g>
     </g>
    </g>
    <g id="xtick_28">
     <g id="line2d_28">
      <g>
       <use xlink:href="#m78271d10f4" x="163.029934" y="314.728" style="stroke: #000000; stroke-width: 0.6"/>
      </g>
     </g>
    </g>
    <g id="xtick_29">
     <g id="line2d_29">
      <g>
       <use xlink:href="#m78271d10f4" x="174.84368" y="314.728" style="stroke: #000000; stroke-width: 0.6"/>
      </g>
     </g>
    </g>
    <g id="xtick_30">
     <g id="line2d_30">
      <g>
       <use xlink:href="#m78271d10f4" x="180.842447" y="314.728" style="stroke: #000000; stroke-width: 0.6"/>
      </g>
     </g>
    </g>
    <g id="xtick_31">
     <g id="line2d_31">
      <g>
       <use xlink:href="#m78271d10f4" x="185.09864" y="314.728" style="stroke: #000000; stroke-width: 0.6"/>
      </g>
     </g>
    </g>
    <g id="xtick_32">
     <g id="line2d_32">
      <g>
       <use xlink:href="#m78271d10f4" x="188.4" y="314.728" style="stroke: #000000; stroke-width: 0.6"/>
      </g>
     </g>
    </g>
    <g id="text_5">
     <!-- timestep -->
     <g transform="translate(103.283281 343.004562) scale(0.1 -0.1)">
      <defs>
       <path id="DejaVuSans-74" d="M 1172 4494 
L 1172 3500 
L 2356 3500 
L 2356 3053 
L 1172 3053 
L 1172 1153 
Q 1172 725 1289 603 
Q 1406 481 1766 481 
L 2356 481 
L 2356 0 
L 1766 0 
Q 1100 0 847 248 
Q 594 497 594 1153 
L 594 3053 
L 172 3053 
L 172 3500 
L 594 3500 
L 594 4494 
L 1172 4494 
z
" transform="scale(0.015625)"/>
       <path id="DejaVuSans-69" d="M 603 3500 
L 1178 3500 
L 1178 0 
L 603 0 
L 603 3500 
z
M 603 4863 
L 1178 4863 
L 1178 4134 
L 603 4134 
L 603 4863 
z
" transform="scale(0.015625)"/>
       <path id="DejaVuSans-6d" d="M 3328 2828 
Q 3544 3216 3844 3400 
Q 4144 3584 4550 3584 
Q 5097 3584 5394 3201 
Q 5691 2819 5691 2113 
L 5691 0 
L 5113 0 
L 5113 2094 
Q 5113 2597 4934 2840 
Q 4756 3084 4391 3084 
Q 3944 3084 3684 2787 
Q 3425 2491 3425 1978 
L 3425 0 
L 2847 0 
L 2847 2094 
Q 2847 2600 2669 2842 
Q 2491 3084 2119 3084 
Q 1678 3084 1418 2786 
Q 1159 2488 1159 1978 
L 1159 0 
L 581 0 
L 581 3500 
L 1159 3500 
L 1159 2956 
Q 1356 3278 1631 3431 
Q 1906 3584 2284 3584 
Q 2666 3584 2933 3390 
Q 3200 3197 3328 2828 
z
" transform="scale(0.015625)"/>
       <path id="DejaVuSans-65" d="M 3597 1894 
L 3597 1613 
L 953 1613 
Q 991 1019 1311 708 
Q 1631 397 2203 397 
Q 2534 397 2845 478 
Q 3156 559 3463 722 
L 3463 178 
Q 3153 47 2828 -22 
Q 2503 -91 2169 -91 
Q 1331 -91 842 396 
Q 353 884 353 1716 
Q 353 2575 817 3079 
Q 1281 3584 2069 3584 
Q 2775 3584 3186 3129 
Q 3597 2675 3597 1894 
z
M 3022 2063 
Q 3016 2534 2758 2815 
Q 2500 3097 2075 3097 
Q 1594 3097 1305 2825 
Q 1016 2553 972 2059 
L 3022 2063 
z
" transform="scale(0.015625)"/>
       <path id="DejaVuSans-73" d="M 2834 3397 
L 2834 2853 
Q 2591 2978 2328 3040 
Q 2066 3103 1784 3103 
Q 1356 3103 1142 2972 
Q 928 2841 928 2578 
Q 928 2378 1081 2264 
Q 1234 2150 1697 2047 
L 1894 2003 
Q 2506 1872 2764 1633 
Q 3022 1394 3022 966 
Q 3022 478 2636 193 
Q 2250 -91 1575 -91 
Q 1294 -91 989 -36 
Q 684 19 347 128 
L 347 722 
Q 666 556 975 473 
Q 1284 391 1588 391 
Q 1994 391 2212 530 
Q 2431 669 2431 922 
Q 2431 1156 2273 1281 
Q 2116 1406 1581 1522 
L 1381 1569 
Q 847 1681 609 1914 
Q 372 2147 372 2553 
Q 372 3047 722 3315 
Q 1072 3584 1716 3584 
Q 2034 3584 2315 3537 
Q 2597 3491 2834 3397 
z
" transform="scale(0.015625)"/>
       <path id="DejaVuSans-70" d="M 1159 525 
L 1159 -1331 
L 581 -1331 
L 581 3500 
L 1159 3500 
L 1159 2969 
Q 1341 3281 1617 3432 
Q 1894 3584 2278 3584 
Q 2916 3584 3314 3078 
Q 3713 2572 3713 1747 
Q 3713 922 3314 415 
Q 2916 -91 2278 -91 
Q 1894 -91 1617 61 
Q 1341 213 1159 525 
z
M 3116 1747 
Q 3116 2381 2855 2742 
Q 2594 3103 2138 3103 
Q 1681 3103 1420 2742 
Q 1159 2381 1159 1747 
Q 1159 1113 1420 752 
Q 1681 391 2138 391 
Q 2594 391 2855 752 
Q 3116 1113 3116 1747 
z
" transform="scale(0.015625)"/>
      </defs>
      <use xlink:href="#DejaVuSans-74"/>
      <use xlink:href="#DejaVuSans-69" transform="translate(39.208984 0)"/>
      <use xlink:href="#DejaVuSans-6d" transform="translate(66.992188 0)"/>
      <use xlink:href="#DejaVuSans-65" transform="translate(164.404297 0)"/>
      <use xlink:href="#DejaVuSans-73" transform="translate(225.927734 0)"/>
      <use xlink:href="#DejaVuSans-74" transform="translate(278.027344 0)"/>
      <use xlink:href="#DejaVuSans-65" transform="translate(317.236328 0)"/>
      <use xlink:href="#DejaVuSans-70" transform="translate(378.759766 0)"/>
     </g>
    </g>
   </g>
   <g id="matplotlib.axis_2">
    <g id="ytick_1">
     <g id="line2d_33">
      <defs>
       <path id="md770035373" d="M 0 0 
L -3.5 0 
" style="stroke: #000000; stroke-width: 0.8"/>
      </defs>
      <g>
       <use xlink:href="#md770035373" x="62.39" y="314.728" style="stroke: #000000; stroke-width: 0.8"/>
      </g>
     </g>
     <g id="text_6">
      <!-- −1.00 -->
      <g transform="translate(24.744688 318.527219) scale(0.1 -0.1)">
       <defs>
        <path id="DejaVuSans-2212" d="M 678 2272 
L 4684 2272 
L 4684 1741 
L 678 1741 
L 678 2272 
z
" transform="scale(0.015625)"/>
        <path id="DejaVuSans-2e" d="M 684 794 
L 1344 794 
L 1344 0 
L 684 0 
L 684 794 
z
" transform="scale(0.015625)"/>
       </defs>
       <use xlink:href="#DejaVuSans-2212"/>
       <use xlink:href="#DejaVuSans-31" transform="translate(83.789062 0)"/>
       <use xlink:href="#DejaVuSans-2e" transform="translate(147.412109 0)"/>
       <use xlink:href="#DejaVuSans-30" transform="translate(179.199219 0)"/>
       <use xlink:href="#DejaVuSans-30" transform="translate(242.822266 0)"/>
      </g>
     </g>
    </g>
    <g id="ytick_2">
     <g id="line2d_34">
      <g>
       <use xlink:href="#md770035373" x="62.39" y="278.927" style="stroke: #000000; stroke-width: 0.8"/>
      </g>
     </g>
     <g id="text_7">
      <!-- −0.75 -->
      <g transform="translate(24.744688 282.726219) scale(0.1 -0.1)">
       <defs>
        <path id="DejaVuSans-37" d="M 525 4666 
L 3525 4666 
L 3525 4397 
L 1831 0 
L 1172 0 
L 2766 4134 
L 525 4134 
L 525 4666 
z
" transform="scale(0.015625)"/>
        <path id="DejaVuSans-35" d="M 691 4666 
L 3169 4666 
L 3169 4134 
L 1269 4134 
L 1269 2991 
Q 1406 3038 1543 3061 
Q 1681 3084 1819 3084 
Q 2600 3084 3056 2656 
Q 3513 2228 3513 1497 
Q 3513 744 3044 326 
Q 2575 -91 1722 -91 
Q 1428 -91 1123 -41 
Q 819 9 494 109 
L 494 744 
Q 775 591 1075 516 
Q 1375 441 1709 441 
Q 2250 441 2565 725 
Q 2881 1009 2881 1497 
Q 2881 1984 2565 2268 
Q 2250 2553 1709 2553 
Q 1456 2553 1204 2497 
Q 953 2441 691 2322 
L 691 4666 
z
" transform="scale(0.015625)"/>
       </defs>
       <use xlink:href="#DejaVuSans-2212"/>
       <use xlink:href="#DejaVuSans-30" transform="translate(83.789062 0)"/>
       <use xlink:href="#DejaVuSans-2e" transform="translate(147.412109 0)"/>
       <use xlink:href="#DejaVuSans-37" transform="translate(179.199219 0)"/>
       <use xlink:href="#DejaVuSans-35" transform="translate(242.822266 0)"/>
      </g>
     </g>
    </g>
    <g id="ytick_3">
     <g id="line2d_35">
      <g>
       <use xlink:href="#md770035373" x="62.39" y="243.126" style="stroke: #000000; stroke-width: 0.8"/>
      </g>
     </g>
     <g id="text_8">
      <!-- −0.50 -->
      <g transform="translate(24.744688 246.925219) scale(0.1 -0.1)">
       <use xlink:href="#DejaVuSans-2212"/>
       <use xlink:href="#DejaVuSans-30" transform="translate(83.789062 0)"/>
       <use xlink:href="#DejaVuSans-2e" transform="translate(147.412109 0)"/>
       <use xlink:href="#DejaVuSans-35" transform="translate(179.199219 0)"/>
       <use xlink:href="#DejaVuSans-30" transform="translate(242.822266 0)"/>
      </g>
     </g>
    </g>
    <g id="ytick_4">
     <g id="line2d_36">
      <g>
       <use xlink:href="#md770035373" x="62.39" y="207.325" style="stroke: #000000; stroke-width: 0.8"/>
      </g>
     </g>
     <g id="text_9">
      <!-- −0.25 -->
      <g transform="translate(24.744688 211.124219) scale(0.1 -0.1)">
       <use xlink:href="#DejaVuSans-2212"/>
       <use xlink:href="#DejaVuSans-30" transform="translate(83.789062 0)"/>
       <use xlink:href="#DejaVuSans-2e" transform="translate(147.412109 0)"/>
       <use xlink:href="#DejaVuSans-32" transform="translate(179.199219 0)"/>
       <use xlink:href="#DejaVuSans-35" transform="translate(242.822266 0)"/>
      </g>
     </g>
    </g>
    <g id="ytick_5">
     <g id="line2d_37">
      <g>
       <use xlink:href="#md770035373" x="62.39" y="171.524" style="stroke: #000000; stroke-width: 0.8"/>
      </g>
     </g>
     <g id="text_10">
      <!-- 0.00 -->
      <g transform="translate(33.124375 175.323219) scale(0.1 -0.1)">
       <use xlink:href="#DejaVuSans-30"/>
       <use xlink:href="#DejaVuSans-2e" transform="translate(63.623047 0)"/>
       <use xlink:href="#DejaVuSans-30" transform="translate(95.410156 0)"/>
       <use xlink:href="#DejaVuSans-30" transform="translate(159.033203 0)"/>
      </g>
     </g>
    </g>
    <g id="ytick_6">
     <g id="line2d_38">
      <g>
       <use xlink:href="#md770035373" x="62.39" y="135.723" style="stroke: #000000; stroke-width: 0.8"/>
      </g>
     </g>
     <g id="text_11">
      <!-- 0.25 -->
      <g transform="translate(33.124375 139.522219) scale(0.1 -0.1)">
       <use xlink:href="#DejaVuSans-30"/>
       <use xlink:href="#DejaVuSans-2e" transform="translate(63.623047 0)"/>
       <use xlink:href="#DejaVuSans-32" transform="translate(95.410156 0)"/>
       <use xlink:href="#DejaVuSans-35" transform="translate(159.033203 0)"/>
      </g>
     </g>
    </g>
    <g id="ytick_7">
     <g id="line2d_39">
      <g>
       <use xlink:href="#md770035373" x="62.39" y="99.922" style="stroke: #000000; stroke-width: 0.8"/>
      </g>
     </g>
     <g id="text_12">
      <!-- 0.50 -->
      <g transform="translate(33.124375 103.721219) scale(0.1 -0.1)">
       <use xlink:href="#DejaVuSans-30"/>
       <use xlink:href="#DejaVuSans-2e" transform="translate(63.623047 0)"/>
       <use xlink:href="#DejaVuSans-35" transform="translate(95.410156 0)"/>
       <use xlink:href="#DejaVuSans-30" transform="translate(159.033203 0)"/>
      </g>
     </g>
    </g>
    <g id="ytick_8">
     <g id="line2d_40">
      <g>
       <use xlink:href="#md770035373" x="62.39" y="64.121" style="stroke: #000000; stroke-width: 0.8"/>
      </g>
     </g>
     <g id="text_13">
      <!-- 0.75 -->
      <g transform="translate(33.124375 67.920219) scale(0.1 -0.1)">
       <use xlink:href="#DejaVuSans-30"/>
       <use xlink:href="#DejaVuSans-2e" transform="translate(63.623047 0)"/>
       <use xlink:href="#DejaVuSans-37" transform="translate(95.410156 0)"/>
       <use xlink:href="#DejaVuSans-35" transform="translate(159.033203 0)"/>
      </g>
     </g>
    </g>
    <g id="ytick_9">
     <g id="line2d_41">
      <g>
       <use xlink:href="#md770035373" x="62.39" y="28.32" style="stroke: #000000; stroke-width: 0.8"/>
      </g>
     </g>
     <g id="text_14">
      <!-- 1.00 -->
      <g transform="translate(33.124375 32.119219) scale(0.1 -0.1)">
       <use xlink:href="#DejaVuSans-31"/>
       <use xlink:href="#DejaVuSans-2e" transform="translate(63.623047 0)"/>
       <use xlink:href="#DejaVuSans-30" transform="translate(95.410156 0)"/>
       <use xlink:href="#DejaVuSans-30" transform="translate(159.033203 0)"/>
      </g>
     </g>
    </g>
    <g id="text_15">
     <!-- opinion -->
     <g transform="translate(18.665 189.932594) rotate(-90) scale(0.1 -0.1)">
      <defs>
       <path id="DejaVuSans-6f" d="M 1959 3097 
Q 1497 3097 1228 2736 
Q 959 2375 959 1747 
Q 959 1119 1226 758 
Q 1494 397 1959 397 
Q 2419 397 2687 759 
Q 2956 1122 2956 1747 
Q 2956 2369 2687 2733 
Q 2419 3097 1959 3097 
z
M 1959 3584 
Q 2709 3584 3137 3096 
Q 3566 2609 3566 1747 
Q 3566 888 3137 398 
Q 2709 -91 1959 -91 
Q 1206 -91 779 398 
Q 353 888 353 1747 
Q 353 2609 779 3096 
Q 1206 3584 1959 3584 
z
" transform="scale(0.015625)"/>
       <path id="DejaVuSans-6e" d="M 3513 2113 
L 3513 0 
L 2938 0 
L 2938 2094 
Q 2938 2591 2744 2837 
Q 2550 3084 2163 3084 
Q 1697 3084 1428 2787 
Q 1159 2491 1159 1978 
L 1159 0 
L 581 0 
L 581 3500 
L 1159 3500 
L 1159 2956 
Q 1366 3272 1645 3428 
Q 1925 3584 2291 3584 
Q 2894 3584 3203 3211 
Q 3513 2838 3513 2113 
z
" transform="scale(0.015625)"/>
      </defs>
      <use xlink:href="#DejaVuSans-6f"/>
      <use xlink:href="#DejaVuSans-70" transform="translate(61.181641 0)"/>
      <use xlink:href="#DejaVuSans-69" transform="translate(124.658203 0)"/>
      <use xlink:href="#DejaVuSans-6e" transform="translate(152.441406 0)"/>
      <use xlink:href="#DejaVuSans-69" transform="translate(215.820312 0)"/>
      <use xlink:href="#DejaVuSans-6f" transform="translate(243.603516 0)"/>
      <use xlink:href="#DejaVuSans-6e" transform="translate(304.785156 0)"/>
     </g>
    </g>
   </g>
   <g id="line2d_42">
    <path d="M 62.39 259.875297 
L 72.64496 235.99309 
L 78.643727 217.026979 
L 91.179313 172.658059 
L 93.15488 166.492348 
L 94.897454 161.521634 
L 96.45624 157.495239 
L 97.866333 154.215181 
L 100.337862 149.30149 
L 102.455007 145.884073 
L 104.306768 143.403718 
L 106.7112 140.714465 
L 109.408607 138.120152 
L 114.561728 133.277787 
L 117.331482 130.298897 
L 119.663568 127.459478 
L 121.944193 124.349873 
L 124.37502 120.649018 
L 126.846549 116.464739 
L 129.448813 111.602541 
L 132.199153 105.984311 
L 135.394457 98.932003 
L 140.173488 87.755534 
L 144.940876 76.776329 
L 147.591685 71.218268 
L 149.75853 67.164306 
L 151.68362 64.017957 
L 153.449772 61.549818 
L 155.083753 59.637256 
L 156.656596 58.129476 
L 158.215382 56.940891 
L 159.790091 56.020859 
L 161.434573 55.320742 
L 163.225895 54.804909 
L 165.296463 54.447565 
L 167.949141 54.229091 
L 172.175833 54.133793 
L 188.4 54.122523 
L 188.4 54.122523 
" clip-path="url(#p7114e29f28)" style="fill: none; stroke: #0072bd; stroke-width: 2; stroke-linecap: square"/>
   </g>
   <g id="line2d_43">
    <path d="M 62.39 136.551071 
L 72.64496 138.566951 
L 86.20128 141.893662 
L 88.898687 142.388605 
L 91.179313 142.679486 
L 93.15488 142.809276 
L 96.45624 142.714633 
L 99.153647 142.30052 
L 101.434273 141.689769 
L 103.40984 140.959408 
L 105.952327 139.740105 
L 108.121293 138.450155 
L 110.592822 136.697103 
L 113.195085 134.515782 
L 115.407375 132.376369 
L 117.688 129.877999 
L 119.968625 127.061697 
L 122.463361 123.593359 
L 124.816688 119.932604 
L 127.22112 115.793408 
L 129.763607 110.98357 
L 132.590227 105.148863 
L 135.917295 97.735406 
L 141.778435 83.979324 
L 145.488893 75.582584 
L 148.051187 70.317406 
L 150.156263 66.477067 
L 152.033395 63.496516 
L 153.760598 61.158436 
L 155.389959 59.318453 
L 156.957008 57.877454 
L 158.508357 56.749368 
L 160.073836 55.882305 
L 161.724676 55.221326 
L 163.546835 54.734887 
L 165.686188 54.401849 
L 168.493085 54.205151 
L 173.284894 54.128099 
L 188.4 54.122523 
L 188.4 54.122523 
" clip-path="url(#p7114e29f28)" style="fill: none; stroke: #0072bd; stroke-width: 2; stroke-linecap: square"/>
   </g>
   <g id="line2d_44">
    <path d="M 62.39 189.359274 
L 72.64496 180.285431 
L 78.643727 173.017929 
L 86.20128 162.4625 
L 91.179313 155.516498 
L 94.897454 150.823586 
L 97.866333 147.538529 
L 100.337862 145.134591 
L 103.40984 142.497945 
L 113.195085 134.560607 
L 115.812736 131.965497 
L 118.376253 129.064636 
L 120.847782 125.887111 
L 123.209475 122.474293 
L 125.662335 118.522894 
L 128.118048 114.146542 
L 130.815456 108.869192 
L 133.82384 102.460025 
L 137.47608 94.116855 
L 145.70254 75.122889 
L 148.1863 70.056521 
L 150.273527 66.278047 
L 152.136735 63.345509 
L 153.852587 61.045094 
L 155.472382 59.234751 
L 157.031167 57.816965 
L 158.575151 56.707052 
L 160.153916 55.844609 
L 161.814179 55.191984 
L 163.641775 54.715316 
L 165.809307 54.388566 
L 168.662558 54.198707 
L 173.658233 54.126869 
L 188.4 54.122523 
L 188.4 54.122523 
" clip-path="url(#p7114e29f28)" style="fill: none; stroke: #0072bd; stroke-width: 2; stroke-linecap: square"/>
   </g>
   <g id="line2d_45">
    <path d="M 62.39 89.795019 
L 72.64496 101.62967 
L 78.643727 110.879877 
L 86.20128 123.682142 
L 88.898687 128.001504 
L 91.179313 131.313676 
L 93.15488 133.830286 
L 94.897454 135.718605 
L 96.45624 137.110846 
L 97.866333 138.11151 
L 99.153647 138.803196 
L 100.337862 139.251189 
L 101.434273 139.507089 
L 102.455007 139.611681 
L 104.306768 139.489118 
L 105.952327 139.068482 
L 107.43304 138.465309 
L 109.408607 137.368396 
L 111.151182 136.156678 
L 113.195085 134.476095 
L 115.407375 132.364157 
L 117.688 129.875031 
L 119.968625 127.061127 
L 122.463361 123.593291 
L 124.816688 119.932598 
L 127.22112 115.793407 
L 129.763607 110.98357 
L 132.590227 105.148863 
L 135.917295 97.735406 
L 141.778435 83.979324 
L 145.488893 75.582584 
L 148.051187 70.317406 
L 150.156263 66.477067 
L 152.033395 63.496516 
L 153.760598 61.158436 
L 155.389959 59.318453 
L 156.957008 57.877454 
L 158.508357 56.749368 
L 160.073836 55.882305 
L 161.724676 55.221326 
L 163.546835 54.734887 
L 165.686188 54.401849 
L 168.493085 54.205151 
L 173.284894 54.128099 
L 188.4 54.122523 
L 188.4 54.122523 
" clip-path="url(#p7114e29f28)" style="fill: none; stroke: #0072bd; stroke-width: 2; stroke-linecap: square"/>
   </g>
   <g id="line2d_46">
    <path d="M 62.39 91.336689 
L 72.64496 102.847589 
L 78.643727 111.842034 
L 86.20128 124.282624 
L 88.898687 128.475885 
L 91.179313 131.688437 
L 93.15488 134.126347 
L 94.897454 135.952493 
L 96.45624 137.295618 
L 97.866333 138.25748 
L 99.153647 138.918512 
L 100.337862 139.342288 
L 101.434273 139.579058 
L 103.40984 139.642114 
L 105.152414 139.335607 
L 106.7112 138.801909 
L 108.778947 137.760373 
L 110.592822 136.572378 
L 112.709967 134.900705 
L 114.990593 132.785291 
L 117.331482 130.285352 
L 119.663568 127.456877 
L 121.944193 124.349478 
L 124.37502 120.64898 
L 126.846549 116.464736 
L 129.448813 111.602541 
L 132.199153 105.984311 
L 135.394457 98.932003 
L 140.173488 87.755534 
L 144.940876 76.776329 
L 147.591685 71.218268 
L 149.75853 67.164306 
L 151.68362 64.017957 
L 153.449772 61.549818 
L 155.083753 59.637256 
L 156.656596 58.129476 
L 158.215382 56.940891 
L 159.790091 56.020859 
L 161.434573 55.320742 
L 163.225895 54.804909 
L 165.296463 54.447565 
L 167.949141 54.229091 
L 172.175833 54.133793 
L 188.4 54.122523 
L 188.4 54.122523 
" clip-path="url(#p7114e29f28)" style="fill: none; stroke: #0072bd; stroke-width: 2; stroke-linecap: square"/>
   </g>
   <g id="line2d_47">
    <path d="M 62.39 236.655297 
L 72.64496 217.64929 
L 78.643727 202.535377 
L 86.20128 180.88434 
L 91.179313 167.013568 
L 93.15488 162.0332 
L 94.897454 157.998907 
L 96.45624 154.712285 
L 99.153647 149.788254 
L 101.434273 146.362864 
L 103.40984 143.875887 
L 105.952327 141.178043 
L 109.408607 138.01752 
L 113.6648 134.151151 
L 116.207287 131.55128 
L 118.708734 128.6612 
L 121.129596 125.499845 
L 123.450046 122.105297 
L 125.866404 118.17521 
L 128.462128 113.500176 
L 131.24432 107.987272 
L 134.289856 101.42459 
L 138.19792 92.421773 
L 145.217422 76.171379 
L 147.82322 70.761742 
L 149.958733 66.816036 
L 151.859541 63.753708 
L 153.606001 61.351479 
L 155.25156 59.461012 
L 156.832577 57.980477 
L 158.373858 56.83609 
L 159.952897 55.940402 
L 161.598456 55.263763 
L 163.403273 54.76546 
L 165.50652 54.422214 
L 168.240961 54.215602 
L 172.757798 54.130365 
L 188.4 54.122523 
L 188.4 54.122523 
" clip-path="url(#p7114e29f28)" style="fill: none; stroke: #0072bd; stroke-width: 2; stroke-linecap: square"/>
   </g>
   <g id="line2d_48">
    <path d="M 62.39 235.546426 
L 72.64496 216.773281 
L 78.643727 201.84333 
L 86.20128 180.452433 
L 91.179313 166.744015 
L 93.15488 161.820254 
L 94.897454 157.830679 
L 96.45624 154.579385 
L 99.153647 149.705311 
L 101.434273 146.311099 
L 103.40984 143.843581 
L 105.952327 141.162114 
L 109.408607 138.012618 
L 113.6648 134.150407 
L 116.207287 131.551099 
L 118.708734 128.661166 
L 121.129596 125.49984 
L 123.450046 122.105296 
L 125.866404 118.17521 
L 128.462128 113.500176 
L 131.24432 107.987272 
L 134.289856 101.42459 
L 138.19792 92.421773 
L 145.217422 76.171379 
L 147.82322 70.761742 
L 149.958733 66.816036 
L 151.859541 63.753708 
L 153.606001 61.351479 
L 155.25156 59.461012 
L 156.832577 57.980477 
L 158.373858 56.83609 
L 159.952897 55.940402 
L 161.598456 55.263763 
L 163.403273 54.76546 
L 165.50652 54.422214 
L 168.240961 54.215602 
L 172.757798 54.130365 
L 188.4 54.122523 
L 188.4 54.122523 
" clip-path="url(#p7114e29f28)" style="fill: none; stroke: #0072bd; stroke-width: 2; stroke-linecap: square"/>
   </g>
   <g id="line2d_49">
    <path d="M 62.39 85.065393 
L 72.64496 97.893266 
L 78.643727 107.928118 
L 86.20128 121.839949 
L 88.898687 126.546172 
L 91.179313 130.163964 
L 93.15488 132.922013 
L 94.897454 135.001069 
L 96.45624 136.543993 
L 97.866333 137.663696 
L 99.153647 138.449423 
L 100.337862 138.971708 
L 101.434273 139.286299 
L 102.455007 139.437257 
L 104.306768 139.38026 
L 105.952327 139.000544 
L 107.43304 138.422909 
L 109.408607 137.347491 
L 111.151182 136.146371 
L 113.195085 134.47208 
L 115.407375 132.362922 
L 117.688 129.87473 
L 119.968625 127.061069 
L 122.463361 123.593284 
L 124.816688 119.932597 
L 127.22112 115.793407 
L 129.763607 110.98357 
L 132.590227 105.148863 
L 135.917295 97.735406 
L 141.778435 83.979324 
L 145.488893 75.582584 
L 148.051187 70.317406 
L 150.156263 66.477067 
L 152.033395 63.496516 
L 153.760598 61.158436 
L 155.389959 59.318453 
L 156.957008 57.877454 
L 158.508357 56.749368 
L 160.073836 55.882305 
L 161.724676 55.221326 
L 163.546835 54.734887 
L 165.686188 54.401849 
L 168.493085 54.205151 
L 173.284894 54.128099 
L 188.4 54.122523 
L 188.4 54.122523 
" clip-path="url(#p7114e29f28)" style="fill: none; stroke: #0072bd; stroke-width: 2; stroke-linecap: square"/>
   </g>
   <g id="line2d_50">
    <path d="M 62.39 40.309224 
L 72.64496 62.535892 
L 78.643727 79.995793 
L 88.898687 112.774446 
L 91.179313 119.284301 
L 93.15488 124.327079 
L 94.897454 128.211072 
L 96.45624 131.179894 
L 97.866333 133.426059 
L 99.153647 135.101689 
L 100.337862 136.326999 
L 101.434273 137.196979 
L 102.455007 137.786693 
L 103.40984 138.155458 
L 104.306768 138.350143 
L 105.952327 138.357648 
L 107.43304 138.021678 
L 108.778947 137.474877 
L 110.592822 136.431618 
L 112.709967 134.845878 
L 114.990593 132.768421 
L 117.331482 130.281251 
L 119.663568 127.456089 
L 121.944193 124.349359 
L 124.37502 120.648969 
L 126.846549 116.464736 
L 129.448813 111.602541 
L 132.199153 105.984311 
L 135.394457 98.932003 
L 140.173488 87.755534 
L 144.940876 76.776329 
L 147.591685 71.218268 
L 149.75853 67.164306 
L 151.68362 64.017957 
L 153.449772 61.549818 
L 155.083753 59.637256 
L 156.656596 58.129476 
L 158.215382 56.940891 
L 159.790091 56.020859 
L 161.434573 55.320742 
L 163.225895 54.804909 
L 165.296463 54.447565 
L 167.949141 54.229091 
L 172.175833 54.133793 
L 188.4 54.122523 
L 188.4 54.122523 
" clip-path="url(#p7114e29f28)" style="fill: none; stroke: #0072bd; stroke-width: 2; stroke-linecap: square"/>
   </g>
   <g id="line2d_51">
    <path d="M 62.39 63.853886 
L 72.64496 81.136175 
L 78.643727 94.690016 
L 88.898687 120.019271 
L 91.179313 125.007712 
L 93.15488 128.848575 
L 94.897454 131.783053 
L 96.45624 134.00176 
L 97.866333 135.655332 
L 99.153647 136.862816 
L 100.337862 137.718288 
L 101.434273 138.296097 
L 102.455007 138.654997 
L 103.40984 138.841418 
L 105.152414 138.835893 
L 106.7112 138.490037 
L 108.121293 137.935298 
L 110.01256 136.882255 
L 111.689233 135.69574 
L 113.6648 134.035277 
L 115.812736 131.9396 
L 118.036128 129.465539 
L 120.26752 126.667247 
L 122.71627 123.21822 
L 125.245553 119.223926 
L 127.765775 114.799944 
L 130.373788 109.765553 
L 133.342666 103.518126 
L 136.910606 95.43722 
L 146.223537 74.016273 
L 148.627968 69.216877 
L 150.657829 65.63751 
L 152.50959 62.812334 
L 154.214926 60.609691 
L 155.824333 58.887347 
L 157.372413 57.547318 
L 158.926379 56.492614 
L 160.509008 55.684722 
L 162.201684 55.071908 
L 164.092255 54.629191 
L 166.370694 54.334461 
L 169.492593 54.173011 
L 175.747569 54.123477 
L 188.4 54.122523 
L 188.4 54.122523 
" clip-path="url(#p7114e29f28)" style="fill: none; stroke: #0072bd; stroke-width: 2; stroke-linecap: square"/>
   </g>
   <g id="line2d_52">
    <path d="M 62.39 55.412649 
L 188.4 55.412649 
L 188.4 55.412649 
" clip-path="url(#p7114e29f28)" style="fill: none; stroke-dasharray: 7.4,3.2; stroke-dashoffset: 0; stroke: #b2b2b2; stroke-width: 2"/>
   </g>
   <g id="patch_3">
    <path d="M 62.39 314.728 
L 62.39 28.32 
" style="fill: none; stroke: #000000; stroke-width: 0.8; stroke-linejoin: miter; stroke-linecap: square"/>
   </g>
   <g id="patch_4">
    <path d="M 188.4 314.728 
L 188.4 28.32 
" style="fill: none; stroke: #000000; stroke-width: 0.8; stroke-linejoin: miter; stroke-linecap: square"/>
   </g>
   <g id="patch_5">
    <path d="M 62.39 314.728 
L 188.4 314.728 
" style="fill: none; stroke: #000000; stroke-width: 0.8; stroke-linejoin: miter; stroke-linecap: square"/>
   </g>
   <g id="patch_6">
    <path d="M 62.39 28.32 
L 188.4 28.32 
" style="fill: none; stroke: #000000; stroke-width: 0.8; stroke-linejoin: miter; stroke-linecap: square"/>
   </g>
   <g id="text_16">
    <!-- Leaders -->
    <g transform="translate(89.61375 22.32) scale(0.16 -0.16)">
     <defs>
      <path id="DejaVuSans-Bold-4c" d="M 588 4666 
L 1791 4666 
L 1791 909 
L 3903 909 
L 3903 0 
L 588 0 
L 588 4666 
z
" transform="scale(0.015625)"/>
      <path id="DejaVuSans-Bold-65" d="M 4031 1759 
L 4031 1441 
L 1416 1441 
Q 1456 1047 1700 850 
Q 1944 653 2381 653 
Q 2734 653 3104 758 
Q 3475 863 3866 1075 
L 3866 213 
Q 3469 63 3072 -14 
Q 2675 -91 2278 -91 
Q 1328 -91 801 392 
Q 275 875 275 1747 
Q 275 2603 792 3093 
Q 1309 3584 2216 3584 
Q 3041 3584 3536 3087 
Q 4031 2591 4031 1759 
z
M 2881 2131 
Q 2881 2450 2695 2645 
Q 2509 2841 2209 2841 
Q 1884 2841 1681 2658 
Q 1478 2475 1428 2131 
L 2881 2131 
z
" transform="scale(0.015625)"/>
      <path id="DejaVuSans-Bold-61" d="M 2106 1575 
Q 1756 1575 1579 1456 
Q 1403 1338 1403 1106 
Q 1403 894 1545 773 
Q 1688 653 1941 653 
Q 2256 653 2472 879 
Q 2688 1106 2688 1447 
L 2688 1575 
L 2106 1575 
z
M 3816 1997 
L 3816 0 
L 2688 0 
L 2688 519 
Q 2463 200 2181 54 
Q 1900 -91 1497 -91 
Q 953 -91 614 226 
Q 275 544 275 1050 
Q 275 1666 698 1953 
Q 1122 2241 2028 2241 
L 2688 2241 
L 2688 2328 
Q 2688 2594 2478 2717 
Q 2269 2841 1825 2841 
Q 1466 2841 1156 2769 
Q 847 2697 581 2553 
L 581 3406 
Q 941 3494 1303 3539 
Q 1666 3584 2028 3584 
Q 2975 3584 3395 3211 
Q 3816 2838 3816 1997 
z
" transform="scale(0.015625)"/>
      <path id="DejaVuSans-Bold-64" d="M 2919 2988 
L 2919 4863 
L 4044 4863 
L 4044 0 
L 2919 0 
L 2919 506 
Q 2688 197 2409 53 
Q 2131 -91 1766 -91 
Q 1119 -91 703 423 
Q 288 938 288 1747 
Q 288 2556 703 3070 
Q 1119 3584 1766 3584 
Q 2128 3584 2408 3439 
Q 2688 3294 2919 2988 
z
M 2181 722 
Q 2541 722 2730 984 
Q 2919 1247 2919 1747 
Q 2919 2247 2730 2509 
Q 2541 2772 2181 2772 
Q 1825 2772 1636 2509 
Q 1447 2247 1447 1747 
Q 1447 1247 1636 984 
Q 1825 722 2181 722 
z
" transform="scale(0.015625)"/>
      <path id="DejaVuSans-Bold-72" d="M 3138 2547 
Q 2991 2616 2845 2648 
Q 2700 2681 2553 2681 
Q 2122 2681 1889 2404 
Q 1656 2128 1656 1613 
L 1656 0 
L 538 0 
L 538 3500 
L 1656 3500 
L 1656 2925 
Q 1872 3269 2151 3426 
Q 2431 3584 2822 3584 
Q 2878 3584 2943 3579 
Q 3009 3575 3134 3559 
L 3138 2547 
z
" transform="scale(0.015625)"/>
      <path id="DejaVuSans-Bold-73" d="M 3272 3391 
L 3272 2541 
Q 2913 2691 2578 2766 
Q 2244 2841 1947 2841 
Q 1628 2841 1473 2761 
Q 1319 2681 1319 2516 
Q 1319 2381 1436 2309 
Q 1553 2238 1856 2203 
L 2053 2175 
Q 2913 2066 3209 1816 
Q 3506 1566 3506 1031 
Q 3506 472 3093 190 
Q 2681 -91 1863 -91 
Q 1516 -91 1145 -36 
Q 775 19 384 128 
L 384 978 
Q 719 816 1070 734 
Q 1422 653 1784 653 
Q 2113 653 2278 743 
Q 2444 834 2444 1013 
Q 2444 1163 2330 1236 
Q 2216 1309 1875 1350 
L 1678 1375 
Q 931 1469 631 1722 
Q 331 1975 331 2491 
Q 331 3047 712 3315 
Q 1094 3584 1881 3584 
Q 2191 3584 2531 3537 
Q 2872 3491 3272 3391 
z
" transform="scale(0.015625)"/>
     </defs>
     <use xlink:href="#DejaVuSans-Bold-4c"/>
     <use xlink:href="#DejaVuSans-Bold-65" transform="translate(63.720703 0)"/>
     <use xlink:href="#DejaVuSans-Bold-61" transform="translate(131.542969 0)"/>
     <use xlink:href="#DejaVuSans-Bold-64" transform="translate(199.023438 0)"/>
     <use xlink:href="#DejaVuSans-Bold-65" transform="translate(270.605469 0)"/>
     <use xlink:href="#DejaVuSans-Bold-72" transform="translate(338.427734 0)"/>
     <use xlink:href="#DejaVuSans-Bold-73" transform="translate(387.744141 0)"/>
    </g>
   </g>
  </g>
  <g id="axes_2">
   <g id="patch_7">
    <path d="M 250.79 314.728 
L 376.8 314.728 
L 376.8 28.32 
L 250.79 28.32 
z
" style="fill: #ffffff"/>
   </g>
   <g id="matplotlib.axis_3">
    <g id="xtick_33">
     <g id="line2d_53">
      <g>
       <use xlink:href="#mf661955702" x="250.79" y="314.728" style="stroke: #000000; stroke-width: 0.8"/>
      </g>
     </g>
     <g id="text_17">
      <!-- $\mathdefault{10^{0}}$ -->
      <g transform="translate(241.99 329.326437) scale(0.1 -0.1)">
       <use xlink:href="#DejaVuSans-31" transform="translate(0 0.765625)"/>
       <use xlink:href="#DejaVuSans-30" transform="translate(63.623047 0.765625)"/>
       <use xlink:href="#DejaVuSans-30" transform="translate(128.203125 39.046875) scale(0.7)"/>
      </g>
     </g>
    </g>
    <g id="xtick_34">
     <g id="line2d_54">
      <g>
       <use xlink:href="#mf661955702" x="284.85624" y="314.728" style="stroke: #000000; stroke-width: 0.8"/>
      </g>
     </g>
     <g id="text_18">
      <!-- $\mathdefault{10^{1}}$ -->
      <g transform="translate(276.05624 329.326437) scale(0.1 -0.1)">
       <use xlink:href="#DejaVuSans-31" transform="translate(0 0.684375)"/>
       <use xlink:href="#DejaVuSans-30" transform="translate(63.623047 0.684375)"/>
       <use xlink:href="#DejaVuSans-31" transform="translate(128.203125 38.965625) scale(0.7)"/>
      </g>
     </g>
    </g>
    <g id="xtick_35">
     <g id="line2d_55">
      <g>
       <use xlink:href="#mf661955702" x="318.92248" y="314.728" style="stroke: #000000; stroke-width: 0.8"/>
      </g>
     </g>
     <g id="text_19">
      <!-- $\mathdefault{10^{2}}$ -->
      <g transform="translate(310.12248 329.326437) scale(0.1 -0.1)">
       <use xlink:href="#DejaVuSans-31" transform="translate(0 0.765625)"/>
       <use xlink:href="#DejaVuSans-30" transform="translate(63.623047 0.765625)"/>
       <use xlink:href="#DejaVuSans-32" transform="translate(128.203125 39.046875) scale(0.7)"/>
      </g>
     </g>
    </g>
    <g id="xtick_36">
     <g id="line2d_56">
      <g>
       <use xlink:href="#mf661955702" x="352.98872" y="314.728" style="stroke: #000000; stroke-width: 0.8"/>
      </g>
     </g>
     <g id="text_20">
      <!-- $\mathdefault{10^{3}}$ -->
      <g transform="translate(344.18872 329.326437) scale(0.1 -0.1)">
       <use xlink:href="#DejaVuSans-31" transform="translate(0 0.765625)"/>
       <use xlink:href="#DejaVuSans-30" transform="translate(63.623047 0.765625)"/>
       <use xlink:href="#DejaVuSans-33" transform="translate(128.203125 39.046875) scale(0.7)"/>
      </g>
     </g>
    </g>
    <g id="xtick_37">
     <g id="line2d_57">
      <g>
       <use xlink:href="#m78271d10f4" x="261.04496" y="314.728" style="stroke: #000000; stroke-width: 0.6"/>
      </g>
     </g>
    </g>
    <g id="xtick_38">
     <g id="line2d_58">
      <g>
       <use xlink:href="#m78271d10f4" x="267.043727" y="314.728" style="stroke: #000000; stroke-width: 0.6"/>
      </g>
     </g>
    </g>
    <g id="xtick_39">
     <g id="line2d_59">
      <g>
       <use xlink:href="#m78271d10f4" x="271.29992" y="314.728" style="stroke: #000000; stroke-width: 0.6"/>
      </g>
     </g>
    </g>
    <g id="xtick_40">
     <g id="line2d_60">
      <g>
       <use xlink:href="#m78271d10f4" x="274.60128" y="314.728" style="stroke: #000000; stroke-width: 0.6"/>
      </g>
     </g>
    </g>
    <g id="xtick_41">
     <g id="line2d_61">
      <g>
       <use xlink:href="#m78271d10f4" x="277.298687" y="314.728" style="stroke: #000000; stroke-width: 0.6"/>
      </g>
     </g>
    </g>
    <g id="xtick_42">
     <g id="line2d_62">
      <g>
       <use xlink:href="#m78271d10f4" x="279.579313" y="314.728" style="stroke: #000000; stroke-width: 0.6"/>
      </g>
     </g>
    </g>
    <g id="xtick_43">
     <g id="line2d_63">
      <g>
       <use xlink:href="#m78271d10f4" x="281.55488" y="314.728" style="stroke: #000000; stroke-width: 0.6"/>
      </g>
     </g>
    </g>
    <g id="xtick_44">
     <g id="line2d_64">
      <g>
       <use xlink:href="#m78271d10f4" x="283.297454" y="314.728" style="stroke: #000000; stroke-width: 0.6"/>
      </g>
     </g>
    </g>
    <g id="xtick_45">
     <g id="line2d_65">
      <g>
       <use xlink:href="#m78271d10f4" x="295.1112" y="314.728" style="stroke: #000000; stroke-width: 0.6"/>
      </g>
     </g>
    </g>
    <g id="xtick_46">
     <g id="line2d_66">
      <g>
       <use xlink:href="#m78271d10f4" x="301.109967" y="314.728" style="stroke: #000000; stroke-width: 0.6"/>
      </g>
     </g>
    </g>
    <g id="xtick_47">
     <g id="line2d_67">
      <g>
       <use xlink:href="#m78271d10f4" x="305.36616" y="314.728" style="stroke: #000000; stroke-width: 0.6"/>
      </g>
     </g>
    </g>
    <g id="xtick_48">
     <g id="line2d_68">
      <g>
       <use xlink:href="#m78271d10f4" x="308.66752" y="314.728" style="stroke: #000000; stroke-width: 0.6"/>
      </g>
     </g>
    </g>
    <g id="xtick_49">
     <g id="line2d_69">
      <g>
       <use xlink:href="#m78271d10f4" x="311.364927" y="314.728" style="stroke: #000000; stroke-width: 0.6"/>
      </g>
     </g>
    </g>
    <g id="xtick_50">
     <g id="line2d_70">
      <g>
       <use xlink:href="#m78271d10f4" x="313.645553" y="314.728" style="stroke: #000000; stroke-width: 0.6"/>
      </g>
     </g>
    </g>
    <g id="xtick_51">
     <g id="line2d_71">
      <g>
       <use xlink:href="#m78271d10f4" x="315.62112" y="314.728" style="stroke: #000000; stroke-width: 0.6"/>
      </g>
     </g>
    </g>
    <g id="xtick_52">
     <g id="line2d_72">
      <g>
       <use xlink:href="#m78271d10f4" x="317.363694" y="314.728" style="stroke: #000000; stroke-width: 0.6"/>
      </g>
     </g>
    </g>
    <g id="xtick_53">
     <g id="line2d_73">
      <g>
       <use xlink:href="#m78271d10f4" x="329.17744" y="314.728" style="stroke: #000000; stroke-width: 0.6"/>
      </g>
     </g>
    </g>
    <g id="xtick_54">
     <g id="line2d_74">
      <g>
       <use xlink:href="#m78271d10f4" x="335.176207" y="314.728" style="stroke: #000000; stroke-width: 0.6"/>
      </g>
     </g>
    </g>
    <g id="xtick_55">
     <g id="line2d_75">
      <g>
       <use xlink:href="#m78271d10f4" x="339.4324" y="314.728" style="stroke: #000000; stroke-width: 0.6"/>
      </g>
     </g>
    </g>
    <g id="xtick_56">
     <g id="line2d_76">
      <g>
       <use xlink:href="#m78271d10f4" x="342.73376" y="314.728" style="stroke: #000000; stroke-width: 0.6"/>
      </g>
     </g>
    </g>
    <g id="xtick_57">
     <g id="line2d_77">
      <g>
       <use xlink:href="#m78271d10f4" x="345.431167" y="314.728" style="stroke: #000000; stroke-width: 0.6"/>
      </g>
     </g>
    </g>
    <g id="xtick_58">
     <g id="line2d_78">
      <g>
       <use xlink:href="#m78271d10f4" x="347.711793" y="314.728" style="stroke: #000000; stroke-width: 0.6"/>
      </g>
     </g>
    </g>
    <g id="xtick_59">
     <g id="line2d_79">
      <g>
       <use xlink:href="#m78271d10f4" x="349.68736" y="314.728" style="stroke: #000000; stroke-width: 0.6"/>
      </g>
     </g>
    </g>
    <g id="xtick_60">
     <g id="line2d_80">
      <g>
       <use xlink:href="#m78271d10f4" x="351.429934" y="314.728" style="stroke: #000000; stroke-width: 0.6"/>
      </g>
     </g>
    </g>
    <g id="xtick_61">
     <g id="line2d_81">
      <g>
       <use xlink:href="#m78271d10f4" x="363.24368" y="314.728" style="stroke: #000000; stroke-width: 0.6"/>
      </g>
     </g>
    </g>
    <g id="xtick_62">
     <g id="line2d_82">
      <g>
       <use xlink:href="#m78271d10f4" x="369.242447" y="314.728" style="stroke: #000000; stroke-width: 0.6"/>
      </g>
     </g>
    </g>
    <g id="xtick_63">
     <g id="line2d_83">
      <g>
       <use xlink:href="#m78271d10f4" x="373.49864" y="314.728" style="stroke: #000000; stroke-width: 0.6"/>
      </g>
     </g>
    </g>
    <g id="xtick_64">
     <g id="line2d_84">
      <g>
       <use xlink:href="#m78271d10f4" x="376.8" y="314.728" style="stroke: #000000; stroke-width: 0.6"/>
      </g>
     </g>
    </g>
    <g id="text_21">
     <!-- timestep -->
     <g transform="translate(291.683281 343.004562) scale(0.1 -0.1)">
      <use xlink:href="#DejaVuSans-74"/>
      <use xlink:href="#DejaVuSans-69" transform="translate(39.208984 0)"/>
      <use xlink:href="#DejaVuSans-6d" transform="translate(66.992188 0)"/>
      <use xlink:href="#DejaVuSans-65" transform="translate(164.404297 0)"/>
      <use xlink:href="#DejaVuSans-73" transform="translate(225.927734 0)"/>
      <use xlink:href="#DejaVuSans-74" transform="translate(278.027344 0)"/>
      <use xlink:href="#DejaVuSans-65" transform="translate(317.236328 0)"/>
      <use xlink:href="#DejaVuSans-70" transform="translate(378.759766 0)"/>
     </g>
    </g>
   </g>
   <g id="matplotlib.axis_4">
    <g id="ytick_10">
     <g id="line2d_85">
      <g>
       <use xlink:href="#md770035373" x="250.79" y="314.728" style="stroke: #000000; stroke-width: 0.8"/>
      </g>
     </g>
     <g id="text_22">
      <!-- −1.00 -->
      <g transform="translate(213.144687 318.527219) scale(0.1 -0.1)">
       <use xlink:href="#DejaVuSans-2212"/>
       <use xlink:href="#DejaVuSans-31" transform="translate(83.789062 0)"/>
       <use xlink:href="#DejaVuSans-2e" transform="translate(147.412109 0)"/>
       <use xlink:href="#DejaVuSans-30" transform="translate(179.199219 0)"/>
       <use xlink:href="#DejaVuSans-30" transform="translate(242.822266 0)"/>
      </g>
     </g>
    </g>
    <g id="ytick_11">
     <g id="line2d_86">
      <g>
       <use xlink:href="#md770035373" x="250.79" y="278.927" style="stroke: #000000; stroke-width: 0.8"/>
      </g>
     </g>
     <g id="text_23">
      <!-- −0.75 -->
      <g transform="translate(213.144687 282.726219) scale(0.1 -0.1)">
       <use xlink:href="#DejaVuSans-2212"/>
       <use xlink:href="#DejaVuSans-30" transform="translate(83.789062 0)"/>
       <use xlink:href="#DejaVuSans-2e" transform="translate(147.412109 0)"/>
       <use xlink:href="#DejaVuSans-37" transform="translate(179.199219 0)"/>
       <use xlink:href="#DejaVuSans-35" transform="translate(242.822266 0)"/>
      </g>
     </g>
    </g>
    <g id="ytick_12">
     <g id="line2d_87">
      <g>
       <use xlink:href="#md770035373" x="250.79" y="243.126" style="stroke: #000000; stroke-width: 0.8"/>
      </g>
     </g>
     <g id="text_24">
      <!-- −0.50 -->
      <g transform="translate(213.144687 246.925219) scale(0.1 -0.1)">
       <use xlink:href="#DejaVuSans-2212"/>
       <use xlink:href="#DejaVuSans-30" transform="translate(83.789062 0)"/>
       <use xlink:href="#DejaVuSans-2e" transform="translate(147.412109 0)"/>
       <use xlink:href="#DejaVuSans-35" transform="translate(179.199219 0)"/>
       <use xlink:href="#DejaVuSans-30" transform="translate(242.822266 0)"/>
      </g>
     </g>
    </g>
    <g id="ytick_13">
     <g id="line2d_88">
      <g>
       <use xlink:href="#md770035373" x="250.79" y="207.325" style="stroke: #000000; stroke-width: 0.8"/>
      </g>
     </g>
     <g id="text_25">
      <!-- −0.25 -->
      <g transform="translate(213.144687 211.124219) scale(0.1 -0.1)">
       <use xlink:href="#DejaVuSans-2212"/>
       <use xlink:href="#DejaVuSans-30" transform="translate(83.789062 0)"/>
       <use xlink:href="#DejaVuSans-2e" transform="translate(147.412109 0)"/>
       <use xlink:href="#DejaVuSans-32" transform="translate(179.199219 0)"/>
       <use xlink:href="#DejaVuSans-35" transform="translate(242.822266 0)"/>
      </g>
     </g>
    </g>
    <g id="ytick_14">
     <g id="line2d_89">
      <g>
       <use xlink:href="#md770035373" x="250.79" y="171.524" style="stroke: #000000; stroke-width: 0.8"/>
      </g>
     </g>
     <g id="text_26">
      <!-- 0.00 -->
      <g transform="translate(221.524375 175.323219) scale(0.1 -0.1)">
       <use xlink:href="#DejaVuSans-30"/>
       <use xlink:href="#DejaVuSans-2e" transform="translate(63.623047 0)"/>
       <use xlink:href="#DejaVuSans-30" transform="translate(95.410156 0)"/>
       <use xlink:href="#DejaVuSans-30" transform="translate(159.033203 0)"/>
      </g>
     </g>
    </g>
    <g id="ytick_15">
     <g id="line2d_90">
      <g>
       <use xlink:href="#md770035373" x="250.79" y="135.723" style="stroke: #000000; stroke-width: 0.8"/>
      </g>
     </g>
     <g id="text_27">
      <!-- 0.25 -->
      <g transform="translate(221.524375 139.522219) scale(0.1 -0.1)">
       <use xlink:href="#DejaVuSans-30"/>
       <use xlink:href="#DejaVuSans-2e" transform="translate(63.623047 0)"/>
       <use xlink:href="#DejaVuSans-32" transform="translate(95.410156 0)"/>
       <use xlink:href="#DejaVuSans-35" transform="translate(159.033203 0)"/>
      </g>
     </g>
    </g>
    <g id="ytick_16">
     <g id="line2d_91">
      <g>
       <use xlink:href="#md770035373" x="250.79" y="99.922" style="stroke: #000000; stroke-width: 0.8"/>
      </g>
     </g>
     <g id="text_28">
      <!-- 0.50 -->
      <g transform="translate(221.524375 103.721219) scale(0.1 -0.1)">
       <use xlink:href="#DejaVuSans-30"/>
       <use xlink:href="#DejaVuSans-2e" transform="translate(63.623047 0)"/>
       <use xlink:href="#DejaVuSans-35" transform="translate(95.410156 0)"/>
       <use xlink:href="#DejaVuSans-30" transform="translate(159.033203 0)"/>
      </g>
     </g>
    </g>
    <g id="ytick_17">
     <g id="line2d_92">
      <g>
       <use xlink:href="#md770035373" x="250.79" y="64.121" style="stroke: #000000; stroke-width: 0.8"/>
      </g>
     </g>
     <g id="text_29">
      <!-- 0.75 -->
      <g transform="translate(221.524375 67.920219) scale(0.1 -0.1)">
       <use xlink:href="#DejaVuSans-30"/>
       <use xlink:href="#DejaVuSans-2e" transform="translate(63.623047 0)"/>
       <use xlink:href="#DejaVuSans-37" transform="translate(95.410156 0)"/>
       <use xlink:href="#DejaVuSans-35" transform="translate(159.033203 0)"/>
      </g>
     </g>
    </g>
    <g id="ytick_18">
     <g id="line2d_93">
      <g>
       <use xlink:href="#md770035373" x="250.79" y="28.32" style="stroke: #000000; stroke-width: 0.8"/>
      </g>
     </g>
     <g id="text_30">
      <!-- 1.00 -->
      <g transform="translate(221.524375 32.119219) scale(0.1 -0.1)">
       <use xlink:href="#DejaVuSans-31"/>
       <use xlink:href="#DejaVuSans-2e" transform="translate(63.623047 0)"/>
       <use xlink:href="#DejaVuSans-30" transform="translate(95.410156 0)"/>
       <use xlink:href="#DejaVuSans-30" transform="translate(159.033203 0)"/>
      </g>
     </g>
    </g>
    <g id="text_31">
     <!-- opinion -->
     <g transform="translate(207.065 189.932594) rotate(-90) scale(0.1 -0.1)">
      <use xlink:href="#DejaVuSans-6f"/>
      <use xlink:href="#DejaVuSans-70" transform="translate(61.181641 0)"/>
      <use xlink:href="#DejaVuSans-69" transform="translate(124.658203 0)"/>
      <use xlink:href="#DejaVuSans-6e" transform="translate(152.441406 0)"/>
      <use xlink:href="#DejaVuSans-69" transform="translate(215.820312 0)"/>
      <use xlink:href="#DejaVuSans-6f" transform="translate(243.603516 0)"/>
      <use xlink:href="#DejaVuSans-6e" transform="translate(304.785156 0)"/>
     </g>
    </g>
   </g>
   <g id="line2d_94">
    <path d="M 250.79 212.246271 
L 261.04496 200.307904 
L 267.043727 190.669981 
L 271.29992 182.869587 
L 279.579313 167.154447 
L 283.297454 160.804857 
L 286.266333 156.393267 
L 288.737862 153.221388 
L 290.855007 150.843908 
L 293.552414 148.175182 
L 298.992822 143.318885 
L 302.0648 140.405817 
L 304.607287 137.693179 
L 307.108734 134.671151 
L 309.529596 131.364355 
L 311.850046 127.813583 
L 314.266404 123.702656 
L 316.862128 118.812512 
L 319.502742 113.351785 
L 322.458683 106.719912 
L 326.241402 97.64119 
L 333.834996 79.272104 
L 336.360421 73.827221 
L 338.477567 69.766453 
L 340.364099 66.614822 
L 342.098953 64.14254 
L 343.707075 62.226766 
L 345.257547 60.716455 
L 346.79636 59.525875 
L 348.332644 58.61462 
L 349.94403 57.916071 
L 351.706785 57.397498 
L 353.75277 57.03549 
L 356.360925 56.813645 
L 360.47806 56.715288 
L 376.79112 56.702775 
L 376.8 56.702775 
L 376.8 56.702775 
" clip-path="url(#p1979b29c81)" style="fill: none; stroke: #d95319; stroke-width: 2; stroke-linecap: square"/>
   </g>
   <g id="line2d_95">
    <path d="M 250.79 171.238988 
L 261.04496 167.543085 
L 267.043727 164.490891 
L 271.29992 161.952493 
L 279.579313 156.485005 
L 288.737862 150.44537 
L 294.352327 146.716721 
L 297.808607 144.140498 
L 300.608401 141.749928 
L 302.961728 139.460878 
L 305.36616 136.809712 
L 307.752087 133.829201 
L 310.077613 130.559975 
L 312.549142 126.667997 
L 315.055646 122.26745 
L 317.688867 117.153927 
L 320.466464 111.245292 
L 323.687635 103.82845 
L 328.262007 92.653405 
L 333.284941 80.527553 
L 335.94494 74.682197 
L 338.118162 70.418686 
L 340.048184 67.109703 
L 341.786815 64.556386 
L 343.427392 62.534046 
L 344.98053 60.96272 
L 346.501136 59.731707 
L 348.046152 58.765147 
L 349.650327 58.025846 
L 351.380536 57.476937 
L 353.354042 57.089944 
L 355.821128 56.844228 
L 359.501213 56.724985 
L 370.085901 56.702778 
L 376.8 56.702775 
L 376.8 56.702775 
" clip-path="url(#p1979b29c81)" style="fill: none; stroke: #d95319; stroke-width: 2; stroke-linecap: square"/>
   </g>
   <g id="line2d_96">
    <path d="M 250.79 118.978748 
L 261.04496 125.787152 
L 267.043727 131.127901 
L 274.60128 138.525347 
L 277.298687 141.005892 
L 279.579313 142.887724 
L 281.55488 144.291301 
L 283.297454 145.312957 
L 284.85624 146.029728 
L 286.266333 146.503223 
L 287.553647 146.782706 
L 288.737862 146.907574 
L 290.855007 146.813163 
L 292.706768 146.403592 
L 294.352327 145.796243 
L 296.521293 144.670797 
L 298.41256 143.412096 
L 300.608401 141.652321 
L 302.961728 139.429094 
L 305.36616 136.801442 
L 307.752087 133.827482 
L 310.077613 130.559689 
L 312.549142 126.667967 
L 315.055646 122.267448 
L 317.688867 117.153927 
L 320.466464 111.245292 
L 323.687635 103.82845 
L 328.262007 92.653405 
L 333.284941 80.527553 
L 335.94494 74.682197 
L 338.118162 70.418686 
L 340.048184 67.109703 
L 341.786815 64.556386 
L 343.427392 62.534046 
L 344.98053 60.96272 
L 346.501136 59.731707 
L 348.046152 58.765147 
L 349.650327 58.025846 
L 351.380536 57.476937 
L 353.354042 57.089944 
L 355.821128 56.844228 
L 359.501213 56.724985 
L 370.085901 56.702778 
L 376.8 56.702775 
L 376.8 56.702775 
" clip-path="url(#p1979b29c81)" style="fill: none; stroke: #d95319; stroke-width: 2; stroke-linecap: square"/>
   </g>
   <g id="line2d_97">
    <path d="M 250.79 110.604438 
L 261.04496 119.096079 
L 267.043727 125.781733 
L 277.298687 138.278906 
L 279.579313 140.708862 
L 281.55488 142.550391 
L 283.297454 143.921969 
L 284.85624 144.918329 
L 286.266333 145.615215 
L 287.553647 146.073188 
L 288.737862 146.340669 
L 289.834273 146.456372 
L 291.80984 146.350047 
L 293.552414 145.934565 
L 295.1112 145.325187 
L 297.178947 144.201103 
L 298.992822 142.946714 
L 301.109967 141.194856 
L 303.390593 138.982865 
L 305.731482 136.369113 
L 308.063568 133.411124 
L 310.344193 130.160955 
L 312.77502 126.290239 
L 315.246549 121.913477 
L 317.848813 116.827563 
L 320.599153 110.950827 
L 323.794457 103.574028 
L 328.49623 92.074272 
L 333.284941 80.527553 
L 335.94494 74.682197 
L 338.118162 70.418686 
L 340.048184 67.109703 
L 341.786815 64.556386 
L 343.427392 62.534046 
L 344.98053 60.96272 
L 346.501136 59.731707 
L 348.046152 58.765147 
L 349.650327 58.025846 
L 351.380536 57.476937 
L 353.354042 57.089944 
L 355.821128 56.844228 
L 359.501213 56.724985 
L 370.085901 56.702778 
L 376.8 56.702775 
L 376.8 56.702775 
" clip-path="url(#p1979b29c81)" style="fill: none; stroke: #d95319; stroke-width: 2; stroke-linecap: square"/>
   </g>
   <g id="line2d_98">
    <path d="M 250.79 208.685222 
L 261.04496 197.462625 
L 267.043727 188.396604 
L 271.29992 181.053158 
L 279.579313 166.227918 
L 283.297454 160.21336 
L 286.266333 156.015655 
L 288.737862 152.980321 
L 290.855007 150.69001 
L 293.552414 148.096682 
L 302.961728 139.483653 
L 305.36616 136.815637 
L 307.752087 133.830433 
L 310.077613 130.560179 
L 312.549142 126.668019 
L 315.055646 122.267451 
L 317.688867 117.153927 
L 320.466464 111.245292 
L 323.687635 103.82845 
L 328.262007 92.653405 
L 333.284941 80.527553 
L 335.94494 74.682197 
L 338.118162 70.418686 
L 340.048184 67.109703 
L 341.786815 64.556386 
L 343.427392 62.534046 
L 344.98053 60.96272 
L 346.501136 59.731707 
L 348.046152 58.765147 
L 349.650327 58.025846 
L 351.380536 57.476937 
L 353.354042 57.089944 
L 355.821128 56.844228 
L 359.501213 56.724985 
L 370.085901 56.702778 
L 376.8 56.702775 
L 376.8 56.702775 
" clip-path="url(#p1979b29c81)" style="fill: none; stroke: #d95319; stroke-width: 2; stroke-linecap: square"/>
   </g>
   <g id="line2d_99">
    <path d="M 250.79 153.996923 
L 261.04496 153.766674 
L 267.043727 153.483539 
L 274.60128 152.797209 
L 279.579313 151.998895 
L 283.297454 151.129537 
L 286.266333 150.216534 
L 288.737862 149.278156 
L 291.80984 147.848407 
L 294.352327 146.41303 
L 297.178947 144.512593 
L 299.551182 142.640761 
L 302.0648 140.350324 
L 304.607287 137.678741 
L 307.108734 134.668149 
L 309.529596 131.363856 
L 311.850046 127.813517 
L 314.266404 123.70265 
L 316.862128 118.812512 
L 319.502742 113.351785 
L 322.458683 106.719912 
L 326.241402 97.64119 
L 333.834996 79.272104 
L 336.360421 73.827221 
L 338.477567 69.766453 
L 340.364099 66.614822 
L 342.098953 64.14254 
L 343.707075 62.226766 
L 345.257547 60.716455 
L 346.79636 59.525875 
L 348.332644 58.61462 
L 349.94403 57.916071 
L 351.706785 57.397498 
L 353.75277 57.03549 
L 356.360925 56.813645 
L 360.47806 56.715288 
L 376.79112 56.702775 
L 376.8 56.702775 
L 376.8 56.702775 
" clip-path="url(#p1979b29c81)" style="fill: none; stroke: #d95319; stroke-width: 2; stroke-linecap: square"/>
   </g>
   <g id="line2d_100">
    <path d="M 250.79 170.640957 
L 261.04496 167.065258 
L 267.043727 164.109107 
L 271.29992 161.647448 
L 277.298687 157.829025 
L 290.855007 149.04585 
L 295.1112 146.170085 
L 298.41256 143.648849 
L 301.109967 141.284448 
L 303.390593 139.01204 
L 305.731482 136.376703 
L 308.063568 133.412702 
L 310.344193 130.161217 
L 312.77502 126.290267 
L 315.246549 121.913479 
L 317.848813 116.827564 
L 320.599153 110.950827 
L 323.794457 103.574028 
L 328.49623 92.074272 
L 333.284941 80.527553 
L 335.94494 74.682197 
L 338.118162 70.418686 
L 340.048184 67.109703 
L 341.786815 64.556386 
L 343.427392 62.534046 
L 344.98053 60.96272 
L 346.501136 59.731707 
L 348.046152 58.765147 
L 349.650327 58.025846 
L 351.380536 57.476937 
L 353.354042 57.089944 
L 355.821128 56.844228 
L 359.501213 56.724985 
L 370.085901 56.702778 
L 376.8 56.702775 
L 376.8 56.702775 
" clip-path="url(#p1979b29c81)" style="fill: none; stroke: #d95319; stroke-width: 2; stroke-linecap: square"/>
   </g>
   <g id="line2d_101">
    <path d="M 250.79 310.784606 
L 261.04496 279.040033 
L 267.043727 253.576953 
L 271.29992 233.132257 
L 277.298687 203.464998 
L 279.579313 192.79255 
L 281.55488 184.165257 
L 283.297454 177.172247 
L 284.85624 171.485302 
L 286.266333 166.842226 
L 287.553647 163.03357 
L 289.834273 157.283897 
L 291.80984 153.262349 
L 293.552414 150.347386 
L 295.1112 148.142336 
L 297.178947 145.638081 
L 300.089233 142.544621 
L 304.212736 138.166769 
L 306.776253 135.10143 
L 309.247782 131.770798 
L 311.609475 128.199736 
L 314.062335 124.066351 
L 316.518048 119.48862 
L 319.215456 113.968448 
L 322.22384 107.264382 
L 325.87608 98.537326 
L 334.10254 78.66941 
L 336.5863 73.369928 
L 338.673527 69.417599 
L 340.536735 66.350129 
L 342.252587 63.943867 
L 343.872382 62.050227 
L 345.431167 60.567206 
L 346.95292 59.420898 
L 348.493896 58.53359 
L 350.124676 57.852137 
L 351.915053 57.350288 
L 354.003535 57.004599 
L 356.710149 56.797026 
L 361.166313 56.710934 
L 376.8 56.702775 
L 376.8 56.702775 
" clip-path="url(#p1979b29c81)" style="fill: none; stroke: #d95319; stroke-width: 2; stroke-linecap: square"/>
   </g>
   <g id="line2d_102">
    <path d="M 250.79 93.384273 
L 261.04496 105.337167 
L 267.043727 114.788363 
L 277.298687 132.671382 
L 279.579313 136.22845 
L 281.55488 138.970541 
L 283.297454 141.06167 
L 284.85624 142.63295 
L 286.266333 143.789197 
L 287.553647 144.614199 
L 288.737862 145.174937 
L 289.834273 145.524953 
L 290.855007 145.707045 
L 292.706768 145.697446 
L 294.352327 145.345438 
L 295.83304 144.778344 
L 297.808607 143.693957 
L 299.551182 142.463432 
L 301.595085 140.731532 
L 303.807375 138.536331 
L 306.088 135.93841 
L 308.368625 132.996867 
L 310.606054 129.764348 
L 312.997503 125.914548 
L 315.43502 121.561417 
L 318.007047 116.502962 
L 320.861014 110.36666 
L 324.110371 102.818974 
L 329.324653 90.029466 
L 333.507423 80.017203 
L 336.13104 74.297061 
L 338.278976 70.124878 
L 340.189424 66.886776 
L 341.912462 64.388155 
L 343.539901 62.409135 
L 345.10709 60.848962 
L 346.638125 59.634907 
L 348.190091 58.688458 
L 349.797907 57.96977 
L 351.54456 57.436143 
L 353.554749 57.061686 
L 356.08749 56.828346 
L 359.979261 56.719627 
L 372.948529 56.702775 
L 376.8 56.702775 
L 376.8 56.702775 
" clip-path="url(#p1979b29c81)" style="fill: none; stroke: #d95319; stroke-width: 2; stroke-linecap: square"/>
   </g>
   <g id="line2d_103">
    <path d="M 250.79 61.932502 
L 261.04496 80.207202 
L 267.043727 94.709521 
L 277.298687 122.429518 
L 279.579313 128.045201 
L 281.55488 132.432125 
L 283.297454 135.837475 
L 284.85624 138.458818 
L 286.266333 140.454066 
L 287.553647 141.94943 
L 288.737862 143.045786 
L 289.834273 143.823761 
L 290.855007 144.347793 
L 291.80984 144.669385 
L 292.706768 144.829698 
L 294.352327 144.791467 
L 295.83304 144.424689 
L 297.178947 143.851715 
L 298.992822 142.768497 
L 300.608401 141.545775 
L 302.52006 139.829105 
L 304.607287 137.65592 
L 306.776253 135.085381 
L 308.960495 132.175344 
L 311.364927 128.58744 
L 313.855411 124.431975 
L 316.34296 119.829426 
L 319.069693 114.279292 
L 321.985209 107.814779 
L 325.596045 99.222278 
L 334.365331 78.082811 
L 336.808782 72.924847 
L 338.866926 69.078061 
L 340.70738 66.092506 
L 342.404641 63.7505 
L 344.00874 61.907428 
L 345.553946 60.46401 
L 347.085808 59.33403 
L 348.633565 58.465511 
L 350.267622 57.803423 
L 352.073287 57.316167 
L 354.195678 56.98257 
L 356.972414 56.785992 
L 361.717735 56.708482 
L 376.8 56.702775 
L 376.8 56.702775 
" clip-path="url(#p1979b29c81)" style="fill: none; stroke: #d95319; stroke-width: 2; stroke-linecap: square"/>
   </g>
   <g id="line2d_104">
    <path d="M 250.79 55.412649 
L 376.8 55.412649 
L 376.8 55.412649 
" clip-path="url(#p1979b29c81)" style="fill: none; stroke-dasharray: 7.4,3.2; stroke-dashoffset: 0; stroke: #b2b2b2; stroke-width: 2"/>
   </g>
   <g id="patch_8">
    <path d="M 250.79 314.728 
L 250.79 28.32 
" style="fill: none; stroke: #000000; stroke-width: 0.8; stroke-linejoin: miter; stroke-linecap: square"/>
   </g>
   <g id="patch_9">
    <path d="M 376.8 314.728 
L 376.8 28.32 
" style="fill: none; stroke: #000000; stroke-width: 0.8; stroke-linejoin: miter; stroke-linecap: square"/>
   </g>
   <g id="patch_10">
    <path d="M 250.79 314.728 
L 376.8 314.728 
" style="fill: none; stroke: #000000; stroke-width: 0.8; stroke-linejoin: miter; stroke-linecap: square"/>
   </g>
   <g id="patch_11">
    <path d="M 250.79 28.32 
L 376.8 28.32 
" style="fill: none; stroke: #000000; stroke-width: 0.8; stroke-linejoin: miter; stroke-linecap: square"/>
   </g>
   <g id="text_32">
    <!-- Followers -->
    <g transform="translate(270.64875 22.32) scale(0.16 -0.16)">
     <defs>
      <path id="DejaVuSans-Bold-46" d="M 588 4666 
L 3834 4666 
L 3834 3756 
L 1791 3756 
L 1791 2888 
L 3713 2888 
L 3713 1978 
L 1791 1978 
L 1791 0 
L 588 0 
L 588 4666 
z
" transform="scale(0.015625)"/>
      <path id="DejaVuSans-Bold-6f" d="M 2203 2784 
Q 1831 2784 1636 2517 
Q 1441 2250 1441 1747 
Q 1441 1244 1636 976 
Q 1831 709 2203 709 
Q 2569 709 2762 976 
Q 2956 1244 2956 1747 
Q 2956 2250 2762 2517 
Q 2569 2784 2203 2784 
z
M 2203 3584 
Q 3106 3584 3614 3096 
Q 4122 2609 4122 1747 
Q 4122 884 3614 396 
Q 3106 -91 2203 -91 
Q 1297 -91 786 396 
Q 275 884 275 1747 
Q 275 2609 786 3096 
Q 1297 3584 2203 3584 
z
" transform="scale(0.015625)"/>
      <path id="DejaVuSans-Bold-6c" d="M 538 4863 
L 1656 4863 
L 1656 0 
L 538 0 
L 538 4863 
z
" transform="scale(0.015625)"/>
      <path id="DejaVuSans-Bold-77" d="M 225 3500 
L 1313 3500 
L 1900 1088 
L 2491 3500 
L 3425 3500 
L 4013 1113 
L 4603 3500 
L 5691 3500 
L 4769 0 
L 3547 0 
L 2956 2406 
L 2369 0 
L 1147 0 
L 225 3500 
z
" transform="scale(0.015625)"/>
     </defs>
     <use xlink:href="#DejaVuSans-Bold-46"/>
     <use xlink:href="#DejaVuSans-Bold-6f" transform="translate(64.310547 0)"/>
     <use xlink:href="#DejaVuSans-Bold-6c" transform="translate(133.011719 0)"/>
     <use xlink:href="#DejaVuSans-Bold-6c" transform="translate(167.289062 0)"/>
     <use xlink:href="#DejaVuSans-Bold-6f" transform="translate(201.566406 0)"/>
     <use xlink:href="#DejaVuSans-Bold-77" transform="translate(270.267578 0)"/>
     <use xlink:href="#DejaVuSans-Bold-65" transform="translate(362.650391 0)"/>
     <use xlink:href="#DejaVuSans-Bold-72" transform="translate(430.472656 0)"/>
     <use xlink:href="#DejaVuSans-Bold-73" transform="translate(479.789062 0)"/>
    </g>
   </g>
  </g>
  <g id="axes_3">
   <g id="patch_12">
    <path d="M 439.19 314.728 
L 565.2 314.728 
L 565.2 28.32 
L 439.19 28.32 
z
" style="fill: #ffffff"/>
   </g>
   <g id="matplotlib.axis_5">
    <g id="xtick_65">
     <g id="line2d_105">
      <g>
       <use xlink:href="#mf661955702" x="439.19" y="314.728" style="stroke: #000000; stroke-width: 0.8"/>
      </g>
     </g>
     <g id="text_33">
      <!-- $\mathdefault{10^{0}}$ -->
      <g transform="translate(430.39 329.326437) scale(0.1 -0.1)">
       <use xlink:href="#DejaVuSans-31" transform="translate(0 0.765625)"/>
       <use xlink:href="#DejaVuSans-30" transform="translate(63.623047 0.765625)"/>
       <use xlink:href="#DejaVuSans-30" transform="translate(128.203125 39.046875) scale(0.7)"/>
      </g>
     </g>
    </g>
    <g id="xtick_66">
     <g id="line2d_106">
      <g>
       <use xlink:href="#mf661955702" x="473.25624" y="314.728" style="stroke: #000000; stroke-width: 0.8"/>
      </g>
     </g>
     <g id="text_34">
      <!-- $\mathdefault{10^{1}}$ -->
      <g transform="translate(464.45624 329.326437) scale(0.1 -0.1)">
       <use xlink:href="#DejaVuSans-31" transform="translate(0 0.684375)"/>
       <use xlink:href="#DejaVuSans-30" transform="translate(63.623047 0.684375)"/>
       <use xlink:href="#DejaVuSans-31" transform="translate(128.203125 38.965625) scale(0.7)"/>
      </g>
     </g>
    </g>
    <g id="xtick_67">
     <g id="line2d_107">
      <g>
       <use xlink:href="#mf661955702" x="507.32248" y="314.728" style="stroke: #000000; stroke-width: 0.8"/>
      </g>
     </g>
     <g id="text_35">
      <!-- $\mathdefault{10^{2}}$ -->
      <g transform="translate(498.52248 329.326437) scale(0.1 -0.1)">
       <use xlink:href="#DejaVuSans-31" transform="translate(0 0.765625)"/>
       <use xlink:href="#DejaVuSans-30" transform="translate(63.623047 0.765625)"/>
       <use xlink:href="#DejaVuSans-32" transform="translate(128.203125 39.046875) scale(0.7)"/>
      </g>
     </g>
    </g>
    <g id="xtick_68">
     <g id="line2d_108">
      <g>
       <use xlink:href="#mf661955702" x="541.38872" y="314.728" style="stroke: #000000; stroke-width: 0.8"/>
      </g>
     </g>
     <g id="text_36">
      <!-- $\mathdefault{10^{3}}$ -->
      <g transform="translate(532.58872 329.326437) scale(0.1 -0.1)">
       <use xlink:href="#DejaVuSans-31" transform="translate(0 0.765625)"/>
       <use xlink:href="#DejaVuSans-30" transform="translate(63.623047 0.765625)"/>
       <use xlink:href="#DejaVuSans-33" transform="translate(128.203125 39.046875) scale(0.7)"/>
      </g>
     </g>
    </g>
    <g id="xtick_69">
     <g id="line2d_109">
      <g>
       <use xlink:href="#m78271d10f4" x="449.44496" y="314.728" style="stroke: #000000; stroke-width: 0.6"/>
      </g>
     </g>
    </g>
    <g id="xtick_70">
     <g id="line2d_110">
      <g>
       <use xlink:href="#m78271d10f4" x="455.443727" y="314.728" style="stroke: #000000; stroke-width: 0.6"/>
      </g>
     </g>
    </g>
    <g id="xtick_71">
     <g id="line2d_111">
      <g>
       <use xlink:href="#m78271d10f4" x="459.69992" y="314.728" style="stroke: #000000; stroke-width: 0.6"/>
      </g>
     </g>
    </g>
    <g id="xtick_72">
     <g id="line2d_112">
      <g>
       <use xlink:href="#m78271d10f4" x="463.00128" y="314.728" style="stroke: #000000; stroke-width: 0.6"/>
      </g>
     </g>
    </g>
    <g id="xtick_73">
     <g id="line2d_113">
      <g>
       <use xlink:href="#m78271d10f4" x="465.698687" y="314.728" style="stroke: #000000; stroke-width: 0.6"/>
      </g>
     </g>
    </g>
    <g id="xtick_74">
     <g id="line2d_114">
      <g>
       <use xlink:href="#m78271d10f4" x="467.979313" y="314.728" style="stroke: #000000; stroke-width: 0.6"/>
      </g>
     </g>
    </g>
    <g id="xtick_75">
     <g id="line2d_115">
      <g>
       <use xlink:href="#m78271d10f4" x="469.95488" y="314.728" style="stroke: #000000; stroke-width: 0.6"/>
      </g>
     </g>
    </g>
    <g id="xtick_76">
     <g id="line2d_116">
      <g>
       <use xlink:href="#m78271d10f4" x="471.697454" y="314.728" style="stroke: #000000; stroke-width: 0.6"/>
      </g>
     </g>
    </g>
    <g id="xtick_77">
     <g id="line2d_117">
      <g>
       <use xlink:href="#m78271d10f4" x="483.5112" y="314.728" style="stroke: #000000; stroke-width: 0.6"/>
      </g>
     </g>
    </g>
    <g id="xtick_78">
     <g id="line2d_118">
      <g>
       <use xlink:href="#m78271d10f4" x="489.509967" y="314.728" style="stroke: #000000; stroke-width: 0.6"/>
      </g>
     </g>
    </g>
    <g id="xtick_79">
     <g id="line2d_119">
      <g>
       <use xlink:href="#m78271d10f4" x="493.76616" y="314.728" style="stroke: #000000; stroke-width: 0.6"/>
      </g>
     </g>
    </g>
    <g id="xtick_80">
     <g id="line2d_120">
      <g>
       <use xlink:href="#m78271d10f4" x="497.06752" y="314.728" style="stroke: #000000; stroke-width: 0.6"/>
      </g>
     </g>
    </g>
    <g id="xtick_81">
     <g id="line2d_121">
      <g>
       <use xlink:href="#m78271d10f4" x="499.764927" y="314.728" style="stroke: #000000; stroke-width: 0.6"/>
      </g>
     </g>
    </g>
    <g id="xtick_82">
     <g id="line2d_122">
      <g>
       <use xlink:href="#m78271d10f4" x="502.045553" y="314.728" style="stroke: #000000; stroke-width: 0.6"/>
      </g>
     </g>
    </g>
    <g id="xtick_83">
     <g id="line2d_123">
      <g>
       <use xlink:href="#m78271d10f4" x="504.02112" y="314.728" style="stroke: #000000; stroke-width: 0.6"/>
      </g>
     </g>
    </g>
    <g id="xtick_84">
     <g id="line2d_124">
      <g>
       <use xlink:href="#m78271d10f4" x="505.763694" y="314.728" style="stroke: #000000; stroke-width: 0.6"/>
      </g>
     </g>
    </g>
    <g id="xtick_85">
     <g id="line2d_125">
      <g>
       <use xlink:href="#m78271d10f4" x="517.57744" y="314.728" style="stroke: #000000; stroke-width: 0.6"/>
      </g>
     </g>
    </g>
    <g id="xtick_86">
     <g id="line2d_126">
      <g>
       <use xlink:href="#m78271d10f4" x="523.576207" y="314.728" style="stroke: #000000; stroke-width: 0.6"/>
      </g>
     </g>
    </g>
    <g id="xtick_87">
     <g id="line2d_127">
      <g>
       <use xlink:href="#m78271d10f4" x="527.8324" y="314.728" style="stroke: #000000; stroke-width: 0.6"/>
      </g>
     </g>
    </g>
    <g id="xtick_88">
     <g id="line2d_128">
      <g>
       <use xlink:href="#m78271d10f4" x="531.13376" y="314.728" style="stroke: #000000; stroke-width: 0.6"/>
      </g>
     </g>
    </g>
    <g id="xtick_89">
     <g id="line2d_129">
      <g>
       <use xlink:href="#m78271d10f4" x="533.831167" y="314.728" style="stroke: #000000; stroke-width: 0.6"/>
      </g>
     </g>
    </g>
    <g id="xtick_90">
     <g id="line2d_130">
      <g>
       <use xlink:href="#m78271d10f4" x="536.111793" y="314.728" style="stroke: #000000; stroke-width: 0.6"/>
      </g>
     </g>
    </g>
    <g id="xtick_91">
     <g id="line2d_131">
      <g>
       <use xlink:href="#m78271d10f4" x="538.08736" y="314.728" style="stroke: #000000; stroke-width: 0.6"/>
      </g>
     </g>
    </g>
    <g id="xtick_92">
     <g id="line2d_132">
      <g>
       <use xlink:href="#m78271d10f4" x="539.829934" y="314.728" style="stroke: #000000; stroke-width: 0.6"/>
      </g>
     </g>
    </g>
    <g id="xtick_93">
     <g id="line2d_133">
      <g>
       <use xlink:href="#m78271d10f4" x="551.64368" y="314.728" style="stroke: #000000; stroke-width: 0.6"/>
      </g>
     </g>
    </g>
    <g id="xtick_94">
     <g id="line2d_134">
      <g>
       <use xlink:href="#m78271d10f4" x="557.642447" y="314.728" style="stroke: #000000; stroke-width: 0.6"/>
      </g>
     </g>
    </g>
    <g id="xtick_95">
     <g id="line2d_135">
      <g>
       <use xlink:href="#m78271d10f4" x="561.89864" y="314.728" style="stroke: #000000; stroke-width: 0.6"/>
      </g>
     </g>
    </g>
    <g id="xtick_96">
     <g id="line2d_136">
      <g>
       <use xlink:href="#m78271d10f4" x="565.2" y="314.728" style="stroke: #000000; stroke-width: 0.6"/>
      </g>
     </g>
    </g>
    <g id="text_37">
     <!-- timestep -->
     <g transform="translate(480.083281 343.004562) scale(0.1 -0.1)">
      <use xlink:href="#DejaVuSans-74"/>
      <use xlink:href="#DejaVuSans-69" transform="translate(39.208984 0)"/>
      <use xlink:href="#DejaVuSans-6d" transform="translate(66.992188 0)"/>
      <use xlink:href="#DejaVuSans-65" transform="translate(164.404297 0)"/>
      <use xlink:href="#DejaVuSans-73" transform="translate(225.927734 0)"/>
      <use xlink:href="#DejaVuSans-74" transform="translate(278.027344 0)"/>
      <use xlink:href="#DejaVuSans-65" transform="translate(317.236328 0)"/>
      <use xlink:href="#DejaVuSans-70" transform="translate(378.759766 0)"/>
     </g>
    </g>
   </g>
   <g id="matplotlib.axis_6">
    <g id="ytick_19">
     <g id="line2d_137">
      <g>
       <use xlink:href="#md770035373" x="439.19" y="314.728" style="stroke: #000000; stroke-width: 0.8"/>
      </g>
     </g>
     <g id="text_38">
      <!-- −1.00 -->
      <g transform="translate(401.544688 318.527219) scale(0.1 -0.1)">
       <use xlink:href="#DejaVuSans-2212"/>
       <use xlink:href="#DejaVuSans-31" transform="translate(83.789062 0)"/>
       <use xlink:href="#DejaVuSans-2e" transform="translate(147.412109 0)"/>
       <use xlink:href="#DejaVuSans-30" transform="translate(179.199219 0)"/>
       <use xlink:href="#DejaVuSans-30" transform="translate(242.822266 0)"/>
      </g>
     </g>
    </g>
    <g id="ytick_20">
     <g id="line2d_138">
      <g>
       <use xlink:href="#md770035373" x="439.19" y="278.927" style="stroke: #000000; stroke-width: 0.8"/>
      </g>
     </g>
     <g id="text_39">
      <!-- −0.75 -->
      <g transform="translate(401.544688 282.726219) scale(0.1 -0.1)">
       <use xlink:href="#DejaVuSans-2212"/>
       <use xlink:href="#DejaVuSans-30" transform="translate(83.789062 0)"/>
       <use xlink:href="#DejaVuSans-2e" transform="translate(147.412109 0)"/>
       <use xlink:href="#DejaVuSans-37" transform="translate(179.199219 0)"/>
       <use xlink:href="#DejaVuSans-35" transform="translate(242.822266 0)"/>
      </g>
     </g>
    </g>
    <g id="ytick_21">
     <g id="line2d_139">
      <g>
       <use xlink:href="#md770035373" x="439.19" y="243.126" style="stroke: #000000; stroke-width: 0.8"/>
      </g>
     </g>
     <g id="text_40">
      <!-- −0.50 -->
      <g transform="translate(401.544688 246.925219) scale(0.1 -0.1)">
       <use xlink:href="#DejaVuSans-2212"/>
       <use xlink:href="#DejaVuSans-30" transform="translate(83.789062 0)"/>
       <use xlink:href="#DejaVuSans-2e" transform="translate(147.412109 0)"/>
       <use xlink:href="#DejaVuSans-35" transform="translate(179.199219 0)"/>
       <use xlink:href="#DejaVuSans-30" transform="translate(242.822266 0)"/>
      </g>
     </g>
    </g>
    <g id="ytick_22">
     <g id="line2d_140">
      <g>
       <use xlink:href="#md770035373" x="439.19" y="207.325" style="stroke: #000000; stroke-width: 0.8"/>
      </g>
     </g>
     <g id="text_41">
      <!-- −0.25 -->
      <g transform="translate(401.544688 211.124219) scale(0.1 -0.1)">
       <use xlink:href="#DejaVuSans-2212"/>
       <use xlink:href="#DejaVuSans-30" transform="translate(83.789062 0)"/>
       <use xlink:href="#DejaVuSans-2e" transform="translate(147.412109 0)"/>
       <use xlink:href="#DejaVuSans-32" transform="translate(179.199219 0)"/>
       <use xlink:href="#DejaVuSans-35" transform="translate(242.822266 0)"/>
      </g>
     </g>
    </g>
    <g id="ytick_23">
     <g id="line2d_141">
      <g>
       <use xlink:href="#md770035373" x="439.19" y="171.524" style="stroke: #000000; stroke-width: 0.8"/>
      </g>
     </g>
     <g id="text_42">
      <!-- 0.00 -->
      <g transform="translate(409.924375 175.323219) scale(0.1 -0.1)">
       <use xlink:href="#DejaVuSans-30"/>
       <use xlink:href="#DejaVuSans-2e" transform="translate(63.623047 0)"/>
       <use xlink:href="#DejaVuSans-30" transform="translate(95.410156 0)"/>
       <use xlink:href="#DejaVuSans-30" transform="translate(159.033203 0)"/>
      </g>
     </g>
    </g>
    <g id="ytick_24">
     <g id="line2d_142">
      <g>
       <use xlink:href="#md770035373" x="439.19" y="135.723" style="stroke: #000000; stroke-width: 0.8"/>
      </g>
     </g>
     <g id="text_43">
      <!-- 0.25 -->
      <g transform="translate(409.924375 139.522219) scale(0.1 -0.1)">
       <use xlink:href="#DejaVuSans-30"/>
       <use xlink:href="#DejaVuSans-2e" transform="translate(63.623047 0)"/>
       <use xlink:href="#DejaVuSans-32" transform="translate(95.410156 0)"/>
       <use xlink:href="#DejaVuSans-35" transform="translate(159.033203 0)"/>
      </g>
     </g>
    </g>
    <g id="ytick_25">
     <g id="line2d_143">
      <g>
       <use xlink:href="#md770035373" x="439.19" y="99.922" style="stroke: #000000; stroke-width: 0.8"/>
      </g>
     </g>
     <g id="text_44">
      <!-- 0.50 -->
      <g transform="translate(409.924375 103.721219) scale(0.1 -0.1)">
       <use xlink:href="#DejaVuSans-30"/>
       <use xlink:href="#DejaVuSans-2e" transform="translate(63.623047 0)"/>
       <use xlink:href="#DejaVuSans-35" transform="translate(95.410156 0)"/>
       <use xlink:href="#DejaVuSans-30" transform="translate(159.033203 0)"/>
      </g>
     </g>
    </g>
    <g id="ytick_26">
     <g id="line2d_144">
      <g>
       <use xlink:href="#md770035373" x="439.19" y="64.121" style="stroke: #000000; stroke-width: 0.8"/>
      </g>
     </g>
     <g id="text_45">
      <!-- 0.75 -->
      <g transform="translate(409.924375 67.920219) scale(0.1 -0.1)">
       <use xlink:href="#DejaVuSans-30"/>
       <use xlink:href="#DejaVuSans-2e" transform="translate(63.623047 0)"/>
       <use xlink:href="#DejaVuSans-37" transform="translate(95.410156 0)"/>
       <use xlink:href="#DejaVuSans-35" transform="translate(159.033203 0)"/>
      </g>
     </g>
    </g>
    <g id="ytick_27">
     <g id="line2d_145">
      <g>
       <use xlink:href="#md770035373" x="439.19" y="28.32" style="stroke: #000000; stroke-width: 0.8"/>
      </g>
     </g>
     <g id="text_46">
      <!-- 1.00 -->
      <g transform="translate(409.924375 32.119219) scale(0.1 -0.1)">
       <use xlink:href="#DejaVuSans-31"/>
       <use xlink:href="#DejaVuSans-2e" transform="translate(63.623047 0)"/>
       <use xlink:href="#DejaVuSans-30" transform="translate(95.410156 0)"/>
       <use xlink:href="#DejaVuSans-30" transform="translate(159.033203 0)"/>
      </g>
     </g>
    </g>
    <g id="text_47">
     <!-- opinion -->
     <g transform="translate(395.465 189.932594) rotate(-90) scale(0.1 -0.1)">
      <use xlink:href="#DejaVuSans-6f"/>
      <use xlink:href="#DejaVuSans-70" transform="translate(61.181641 0)"/>
      <use xlink:href="#DejaVuSans-69" transform="translate(124.658203 0)"/>
      <use xlink:href="#DejaVuSans-6e" transform="translate(152.441406 0)"/>
      <use xlink:href="#DejaVuSans-69" transform="translate(215.820312 0)"/>
      <use xlink:href="#DejaVuSans-6f" transform="translate(243.603516 0)"/>
      <use xlink:href="#DejaVuSans-6e" transform="translate(304.785156 0)"/>
     </g>
    </g>
   </g>
   <g id="line2d_146">
    <path d="M 439.19 55.412649 
L 565.2 55.412649 
L 565.2 55.412649 
" clip-path="url(#p5d47f11ded)" style="fill: none; stroke-dasharray: 7.4,3.2; stroke-dashoffset: 0; stroke: #b2b2b2; stroke-width: 2"/>
   </g>
   <g id="patch_13">
    <path d="M 439.19 314.728 
L 439.19 28.32 
" style="fill: none; stroke: #000000; stroke-width: 0.8; stroke-linejoin: miter; stroke-linecap: square"/>
   </g>
   <g id="patch_14">
    <path d="M 565.2 314.728 
L 565.2 28.32 
" style="fill: none; stroke: #000000; stroke-width: 0.8; stroke-linejoin: miter; stroke-linecap: square"/>
   </g>
   <g id="patch_15">
    <path d="M 439.19 314.728 
L 565.2 314.728 
" style="fill: none; stroke: #000000; stroke-width: 0.8; stroke-linejoin: miter; stroke-linecap: square"/>
   </g>
   <g id="patch_16">
    <path d="M 439.19 28.32 
L 565.2 28.32 
" style="fill: none; stroke: #000000; stroke-width: 0.8; stroke-linejoin: miter; stroke-linecap: square"/>
   </g>
   <g id="text_48">
    <!-- Uninformed -->
    <g transform="translate(449.15625 22.32) scale(0.16 -0.16)">
     <defs>
      <path id="DejaVuSans-Bold-55" d="M 588 4666 
L 1791 4666 
L 1791 1869 
Q 1791 1291 1980 1042 
Q 2169 794 2597 794 
Q 3028 794 3217 1042 
Q 3406 1291 3406 1869 
L 3406 4666 
L 4609 4666 
L 4609 1869 
Q 4609 878 4112 393 
Q 3616 -91 2597 -91 
Q 1581 -91 1084 393 
Q 588 878 588 1869 
L 588 4666 
z
" transform="scale(0.015625)"/>
      <path id="DejaVuSans-Bold-6e" d="M 4056 2131 
L 4056 0 
L 2931 0 
L 2931 347 
L 2931 1631 
Q 2931 2084 2911 2256 
Q 2891 2428 2841 2509 
Q 2775 2619 2662 2680 
Q 2550 2741 2406 2741 
Q 2056 2741 1856 2470 
Q 1656 2200 1656 1722 
L 1656 0 
L 538 0 
L 538 3500 
L 1656 3500 
L 1656 2988 
Q 1909 3294 2193 3439 
Q 2478 3584 2822 3584 
Q 3428 3584 3742 3212 
Q 4056 2841 4056 2131 
z
" transform="scale(0.015625)"/>
      <path id="DejaVuSans-Bold-69" d="M 538 3500 
L 1656 3500 
L 1656 0 
L 538 0 
L 538 3500 
z
M 538 4863 
L 1656 4863 
L 1656 3950 
L 538 3950 
L 538 4863 
z
" transform="scale(0.015625)"/>
      <path id="DejaVuSans-Bold-66" d="M 2841 4863 
L 2841 4128 
L 2222 4128 
Q 1984 4128 1890 4042 
Q 1797 3956 1797 3744 
L 1797 3500 
L 2753 3500 
L 2753 2700 
L 1797 2700 
L 1797 0 
L 678 0 
L 678 2700 
L 122 2700 
L 122 3500 
L 678 3500 
L 678 3744 
Q 678 4316 997 4589 
Q 1316 4863 1984 4863 
L 2841 4863 
z
" transform="scale(0.015625)"/>
      <path id="DejaVuSans-Bold-6d" d="M 3781 2919 
Q 3994 3244 4286 3414 
Q 4578 3584 4928 3584 
Q 5531 3584 5847 3212 
Q 6163 2841 6163 2131 
L 6163 0 
L 5038 0 
L 5038 1825 
Q 5041 1866 5042 1909 
Q 5044 1953 5044 2034 
Q 5044 2406 4934 2573 
Q 4825 2741 4581 2741 
Q 4263 2741 4089 2478 
Q 3916 2216 3909 1719 
L 3909 0 
L 2784 0 
L 2784 1825 
Q 2784 2406 2684 2573 
Q 2584 2741 2328 2741 
Q 2006 2741 1831 2477 
Q 1656 2213 1656 1722 
L 1656 0 
L 531 0 
L 531 3500 
L 1656 3500 
L 1656 2988 
Q 1863 3284 2130 3434 
Q 2397 3584 2719 3584 
Q 3081 3584 3359 3409 
Q 3638 3234 3781 2919 
z
" transform="scale(0.015625)"/>
     </defs>
     <use xlink:href="#DejaVuSans-Bold-55"/>
     <use xlink:href="#DejaVuSans-Bold-6e" transform="translate(81.201172 0)"/>
     <use xlink:href="#DejaVuSans-Bold-69" transform="translate(152.392578 0)"/>
     <use xlink:href="#DejaVuSans-Bold-6e" transform="translate(186.669922 0)"/>
     <use xlink:href="#DejaVuSans-Bold-66" transform="translate(257.861328 0)"/>
     <use xlink:href="#DejaVuSans-Bold-6f" transform="translate(301.367188 0)"/>
     <use xlink:href="#DejaVuSans-Bold-72" transform="translate(370.068359 0)"/>
     <use xlink:href="#DejaVuSans-Bold-6d" transform="translate(419.384766 0)"/>
     <use xlink:href="#DejaVuSans-Bold-65" transform="translate(523.583984 0)"/>
     <use xlink:href="#DejaVuSans-Bold-64" transform="translate(591.40625 0)"/>
    </g>
   </g>
  </g>
 </g>
 <defs>
  <clipPath id="p7114e29f28">
   <rect x="62.39" y="28.32" width="126.01" height="286.408"/>
  </clipPath>
  <clipPath id="p1979b29c81">
   <rect x="250.79" y="28.32" width="126.01" height="286.408"/>
  </clipPath>
  <clipPath id="p5d47f11ded">
   <rect x="439.19" y="28.32" width="126.01" height="286.408"/>
  </clipPath>
 </defs>
</svg>
