<?xml version="1.0" encoding="utf-8" standalone="no"?>
<!DOCTYPE svg PUBLIC "-//W3C//DTD SVG 1.1//EN"
  "http://www.w3.org/Graphics/SVG/1.1/DTD/svg11.dtd">
<svg xmlns:xlink="http://www.w3.org/1999/xlink" width="460.8pt" height="345.6pt" viewBox="0 0 460.8 345.6" xmlns="http://www.w3.org/2000/svg" version="1.1">
 <metadata>
  <rdf:RDF xmlns:dc="http://purl.org/dc/elements/1.1/" xmlns:cc="http://creativecommons.org/ns#" xmlns:rdf="http://www.w3.org/1999/02/22-rdf-syntax-ns#">
   <cc:Work>
    <dc:type rdf:resource="http://purl.org/dc/dcmitype/StillImage"/>
    <dc:date>2025-05-05T23:20:45.334484</dc:date>
    <dc:format>image/svg+xml</dc:format>
    <dc:creator>
     <cc:Agent>
      <dc:title>Matplotlib v3.10.1, https://matplotlib.org/</dc:title>
     </cc:Agent>
    </dc:creator>
   </cc:Work>
  </rdf:RDF>
 </metadata>
 <defs>
  <style type="text/css">*{stroke-linejoin: round; stroke-linecap: butt}</style>
 </defs>
 <g id="figure_1">
  <g id="patch_1">
   <path d="M 0 345.6 
L 460.8 345.6 
L 460.8 0 
L 0 0 
z
" style="fill: #ffffff"/>
  </g>
  <g id="axes_1">
   <g id="patch_2">
    <path d="M 57.6 307.584 
L 414.72 307.584 
L 414.72 41.472 
L 57.6 41.472 
z
" style="fill: #ffffff"/>
   </g>
   <g id="PathCollection_1">
    <defs>
     <path id="m13fb46e145" d="M 0 3 
C 0.795609 3 1.55874 2.683901 2.12132 2.12132 
C 2.683901 1.55874 3 0.795609 3 0 
C 3 -0.795609 2.683901 -1.55874 2.12132 -2.12132 
C 1.55874 -2.683901 0.795609 -3 0 -3 
C -0.795609 -3 -1.55874 -2.683901 -2.12132 -2.12132 
C -2.683901 -1.55874 -3 -0.795609 -3 0 
C -3 0.795609 -2.683901 1.55874 -2.12132 2.12132 
C -1.55874 2.683901 -0.795609 3 0 3 
z
" style="stroke: #0000ff"/>
    </defs>
    <g clip-path="url(#p57ac66b5f7)">
     <use xlink:href="#m13fb46e145" x="305.199373" y="75.211973" style="fill: #0000ff; stroke: #0000ff"/>
     <use xlink:href="#m13fb46e145" x="289.601" y="161.000417" style="fill: #0000ff; stroke: #0000ff"/>
     <use xlink:href="#m13fb46e145" x="115.842027" y="154.324625" style="fill: #0000ff; stroke: #0000ff"/>
     <use xlink:href="#m13fb46e145" x="146.652079" y="217.645781" style="fill: #0000ff; stroke: #0000ff"/>
     <use xlink:href="#m13fb46e145" x="186.807037" y="197.492237" style="fill: #0000ff; stroke: #0000ff"/>
     <use xlink:href="#m13fb46e145" x="310.155412" y="155.877036" style="fill: #0000ff; stroke: #0000ff"/>
     <use xlink:href="#m13fb46e145" x="162.02391" y="166.380232" style="fill: #0000ff; stroke: #0000ff"/>
     <use xlink:href="#m13fb46e145" x="321.114883" y="259.82324" style="fill: #0000ff; stroke: #0000ff"/>
     <use xlink:href="#m13fb46e145" x="337.148267" y="239.849561" style="fill: #0000ff; stroke: #0000ff"/>
     <use xlink:href="#m13fb46e145" x="154.295842" y="120.065401" style="fill: #0000ff; stroke: #0000ff"/>
     <use xlink:href="#m13fb46e145" x="193.618411" y="287.051396" style="fill: #0000ff; stroke: #0000ff"/>
     <use xlink:href="#m13fb46e145" x="163.042986" y="238.337306" style="fill: #0000ff; stroke: #0000ff"/>
     <use xlink:href="#m13fb46e145" x="138.174606" y="169.383671" style="fill: #0000ff; stroke: #0000ff"/>
     <use xlink:href="#m13fb46e145" x="198.072354" y="110.971513" style="fill: #0000ff; stroke: #0000ff"/>
     <use xlink:href="#m13fb46e145" x="220.54246" y="223.613351" style="fill: #0000ff; stroke: #0000ff"/>
     <use xlink:href="#m13fb46e145" x="199.831513" y="136.054016" style="fill: #0000ff; stroke: #0000ff"/>
     <use xlink:href="#m13fb46e145" x="356.043627" y="192.081693" style="fill: #0000ff; stroke: #0000ff"/>
     <use xlink:href="#m13fb46e145" x="241.500056" y="82.648876" style="fill: #0000ff; stroke: #0000ff"/>
     <use xlink:href="#m13fb46e145" x="163.622559" y="189.224272" style="fill: #0000ff; stroke: #0000ff"/>
     <use xlink:href="#m13fb46e145" x="327.053478" y="204.12578" style="fill: #0000ff; stroke: #0000ff"/>
     <use xlink:href="#m13fb46e145" x="172.977691" y="101.334525" style="fill: #0000ff; stroke: #0000ff"/>
     <use xlink:href="#m13fb46e145" x="279.585172" y="261.248644" style="fill: #0000ff; stroke: #0000ff"/>
     <use xlink:href="#m13fb46e145" x="348.675817" y="217.205576" style="fill: #0000ff; stroke: #0000ff"/>
     <use xlink:href="#m13fb46e145" x="156.836797" y="82.982742" style="fill: #0000ff; stroke: #0000ff"/>
     <use xlink:href="#m13fb46e145" x="333.009968" y="154.207655" style="fill: #0000ff; stroke: #0000ff"/>
     <use xlink:href="#m13fb46e145" x="282.612715" y="116.887815" style="fill: #0000ff; stroke: #0000ff"/>
     <use xlink:href="#m13fb46e145" x="178.139569" y="68.253673" style="fill: #0000ff; stroke: #0000ff"/>
     <use xlink:href="#m13fb46e145" x="124.423057" y="125.849544" style="fill: #0000ff; stroke: #0000ff"/>
     <use xlink:href="#m13fb46e145" x="227.138085" y="247.633038" style="fill: #0000ff; stroke: #0000ff"/>
     <use xlink:href="#m13fb46e145" x="299.758737" y="246.361497" style="fill: #0000ff; stroke: #0000ff"/>
     <use xlink:href="#m13fb46e145" x="265.019129" y="79.267236" style="fill: #0000ff; stroke: #0000ff"/>
     <use xlink:href="#m13fb46e145" x="298.749666" y="135.070948" style="fill: #0000ff; stroke: #0000ff"/>
     <use xlink:href="#m13fb46e145" x="275.923888" y="289.230561" style="fill: #0000ff; stroke: #0000ff"/>
     <use xlink:href="#m13fb46e145" x="259.461107" y="124.832156" style="fill: #0000ff; stroke: #0000ff"/>
     <use xlink:href="#m13fb46e145" x="315.826679" y="226.761464" style="fill: #0000ff; stroke: #0000ff"/>
     <use xlink:href="#m13fb46e145" x="138.606237" y="102.019456" style="fill: #0000ff; stroke: #0000ff"/>
     <use xlink:href="#m13fb46e145" x="339.925464" y="112.20813" style="fill: #0000ff; stroke: #0000ff"/>
     <use xlink:href="#m13fb46e145" x="183.208097" y="254.352154" style="fill: #0000ff; stroke: #0000ff"/>
     <use xlink:href="#m13fb46e145" x="357.413441" y="164.20124" style="fill: #0000ff; stroke: #0000ff"/>
     <use xlink:href="#m13fb46e145" x="201.859026" y="212.626407" style="fill: #0000ff; stroke: #0000ff"/>
     <use xlink:href="#m13fb46e145" x="269.091487" y="182.289359" style="fill: #0000ff; stroke: #0000ff"/>
     <use xlink:href="#m13fb46e145" x="324.288208" y="91.929717" style="fill: #0000ff; stroke: #0000ff"/>
     <use xlink:href="#m13fb46e145" x="272.740677" y="238.187757" style="fill: #0000ff; stroke: #0000ff"/>
     <use xlink:href="#m13fb46e145" x="311.141546" y="179.890233" style="fill: #0000ff; stroke: #0000ff"/>
     <use xlink:href="#m13fb46e145" x="169.651049" y="211.991631" style="fill: #0000ff; stroke: #0000ff"/>
     <use xlink:href="#m13fb46e145" x="282.508919" y="61.649245" style="fill: #0000ff; stroke: #0000ff"/>
     <use xlink:href="#m13fb46e145" x="306.969511" y="109.953022" style="fill: #0000ff; stroke: #0000ff"/>
     <use xlink:href="#m13fb46e145" x="252.163493" y="249.522589" style="fill: #0000ff; stroke: #0000ff"/>
     <use xlink:href="#m13fb46e145" x="351.506442" y="136.349591" style="fill: #0000ff; stroke: #0000ff"/>
     <use xlink:href="#m13fb46e145" x="277.115033" y="139.987147" style="fill: #0000ff; stroke: #0000ff"/>
     <use xlink:href="#m13fb46e145" x="206.165185" y="265.528451" style="fill: #0000ff; stroke: #0000ff"/>
     <use xlink:href="#m13fb46e145" x="164.589136" y="143.3323" style="fill: #0000ff; stroke: #0000ff"/>
     <use xlink:href="#m13fb46e145" x="322.470683" y="130.272415" style="fill: #0000ff; stroke: #0000ff"/>
     <use xlink:href="#m13fb46e145" x="230.444213" y="53.568" style="fill: #0000ff; stroke: #0000ff"/>
     <use xlink:href="#m13fb46e145" x="246.58885" y="295.488" style="fill: #0000ff; stroke: #0000ff"/>
     <use xlink:href="#m13fb46e145" x="237.932648" y="209.065811" style="fill: #0000ff; stroke: #0000ff"/>
     <use xlink:href="#m13fb46e145" x="185.958652" y="228.198223" style="fill: #0000ff; stroke: #0000ff"/>
     <use xlink:href="#m13fb46e145" x="249.790915" y="171.896071" style="fill: #0000ff; stroke: #0000ff"/>
     <use xlink:href="#m13fb46e145" x="278.613079" y="204.258402" style="fill: #0000ff; stroke: #0000ff"/>
     <use xlink:href="#m13fb46e145" x="256.383959" y="272.271435" style="fill: #0000ff; stroke: #0000ff"/>
     <use xlink:href="#m13fb46e145" x="253.999764" y="146.314436" style="fill: #0000ff; stroke: #0000ff"/>
     <use xlink:href="#m13fb46e145" x="183.754982" y="174.830279" style="fill: #0000ff; stroke: #0000ff"/>
     <use xlink:href="#m13fb46e145" x="236.462139" y="186.904787" style="fill: #0000ff; stroke: #0000ff"/>
     <use xlink:href="#m13fb46e145" x="255.802371" y="197.699219" style="fill: #0000ff; stroke: #0000ff"/>
     <use xlink:href="#m13fb46e145" x="219.094206" y="293.704997" style="fill: #0000ff; stroke: #0000ff"/>
     <use xlink:href="#m13fb46e145" x="268.814696" y="161.014765" style="fill: #0000ff; stroke: #0000ff"/>
     <use xlink:href="#m13fb46e145" x="120.059236" y="211.053178" style="fill: #0000ff; stroke: #0000ff"/>
     <use xlink:href="#m13fb46e145" x="218.90899" y="146.103669" style="fill: #0000ff; stroke: #0000ff"/>
     <use xlink:href="#m13fb46e145" x="237.71714" y="131.907775" style="fill: #0000ff; stroke: #0000ff"/>
     <use xlink:href="#m13fb46e145" x="204.134711" y="161.656629" style="fill: #0000ff; stroke: #0000ff"/>
     <use xlink:href="#m13fb46e145" x="204.165152" y="184.318302" style="fill: #0000ff; stroke: #0000ff"/>
     <use xlink:href="#m13fb46e145" x="300.571985" y="276.508092" style="fill: #0000ff; stroke: #0000ff"/>
     <use xlink:href="#m13fb46e145" x="202.439746" y="57.142551" style="fill: #0000ff; stroke: #0000ff"/>
     <use xlink:href="#m13fb46e145" x="262.210203" y="219.010369" style="fill: #0000ff; stroke: #0000ff"/>
     <use xlink:href="#m13fb46e145" x="204.997508" y="240.482114" style="fill: #0000ff; stroke: #0000ff"/>
     <use xlink:href="#m13fb46e145" x="289.802131" y="183.745378" style="fill: #0000ff; stroke: #0000ff"/>
     <use xlink:href="#m13fb46e145" x="290.286211" y="223.491068" style="fill: #0000ff; stroke: #0000ff"/>
     <use xlink:href="#m13fb46e145" x="149.92692" y="259.005014" style="fill: #0000ff; stroke: #0000ff"/>
     <use xlink:href="#m13fb46e145" x="218.212717" y="76.485691" style="fill: #0000ff; stroke: #0000ff"/>
     <use xlink:href="#m13fb46e145" x="240.531883" y="108.548582" style="fill: #0000ff; stroke: #0000ff"/>
     <use xlink:href="#m13fb46e145" x="140.233551" y="193.666648" style="fill: #0000ff; stroke: #0000ff"/>
     <use xlink:href="#m13fb46e145" x="218.50687" y="198.904447" style="fill: #0000ff; stroke: #0000ff"/>
     <use xlink:href="#m13fb46e145" x="243.0594" y="229.821071" style="fill: #0000ff; stroke: #0000ff"/>
     <use xlink:href="#m13fb46e145" x="230.903302" y="270.989982" style="fill: #0000ff; stroke: #0000ff"/>
     <use xlink:href="#m13fb46e145" x="303.15394" y="203.588329" style="fill: #0000ff; stroke: #0000ff"/>
     <use xlink:href="#m13fb46e145" x="179.69727" y="125.310667" style="fill: #0000ff; stroke: #0000ff"/>
     <use xlink:href="#m13fb46e145" x="219.720126" y="99.963837" style="fill: #0000ff; stroke: #0000ff"/>
     <use xlink:href="#m13fb46e145" x="184.874747" y="152.410911" style="fill: #0000ff; stroke: #0000ff"/>
     <use xlink:href="#m13fb46e145" x="222.218794" y="172.530087" style="fill: #0000ff; stroke: #0000ff"/>
     <use xlink:href="#m13fb46e145" x="194.467715" y="87.148123" style="fill: #0000ff; stroke: #0000ff"/>
     <use xlink:href="#m13fb46e145" x="114.906559" y="182.973223" style="fill: #0000ff; stroke: #0000ff"/>
     <use xlink:href="#m13fb46e145" x="132.432494" y="237.783907" style="fill: #0000ff; stroke: #0000ff"/>
     <use xlink:href="#m13fb46e145" x="235.857789" y="156.747166" style="fill: #0000ff; stroke: #0000ff"/>
     <use xlink:href="#m13fb46e145" x="262.489785" y="102.565922" style="fill: #0000ff; stroke: #0000ff"/>
     <use xlink:href="#m13fb46e145" x="218.659965" y="122.804006" style="fill: #0000ff; stroke: #0000ff"/>
     <use xlink:href="#m13fb46e145" x="140.674953" y="144.255121" style="fill: #0000ff; stroke: #0000ff"/>
     <use xlink:href="#m13fb46e145" x="255.226691" y="54.984267" style="fill: #0000ff; stroke: #0000ff"/>
     <use xlink:href="#m13fb46e145" x="170.47776" y="275.360807" style="fill: #0000ff; stroke: #0000ff"/>
     <use xlink:href="#m13fb46e145" x="334.017478" y="179.80333" style="fill: #0000ff; stroke: #0000ff"/>
     <use xlink:href="#m13fb46e145" x="287.712351" y="92.868455" style="fill: #0000ff; stroke: #0000ff"/>
    </g>
   </g>
   <g id="Quiver_1">
    <path d="M 304.441868 74.454347 
L 311.653859 67.243508 
L 309.381221 66.485761 
L 319.230002 61.183586 
L 313.926254 71.03152 
L 313.168869 68.758761 
L 305.956879 75.9696 
L 304.441868 74.454347 
" clip-path="url(#p57ac66b5f7)" style="fill: #ff0000"/>
    <path d="M 288.842932 160.243354 
L 296.055598 153.021107 
L 293.782398 152.26505 
L 303.627233 146.955553 
L 298.33081 156.807427 
L 297.571735 154.535233 
L 290.359069 161.75748 
L 288.842932 160.243354 
" clip-path="url(#p57ac66b5f7)" style="fill: #ff0000"/>
    <path d="M 115.08459 153.566931 
L 122.295783 146.358181 
L 120.023213 145.60023 
L 129.872469 140.298937 
L 124.567839 150.146396 
L 123.810658 147.87357 
L 116.599465 155.082319 
L 115.08459 153.566931 
" clip-path="url(#p57ac66b5f7)" style="fill: #ff0000"/>
    <path d="M 145.894686 216.888042 
L 153.115349 209.670674 
L 150.842825 208.91259 
L 160.692392 203.611876 
L 155.387182 213.459023 
L 154.630135 211.186152 
L 147.409472 218.403519 
L 145.894686 216.888042 
" clip-path="url(#p57ac66b5f7)" style="fill: #ff0000"/>
    <path d="M 186.049815 196.734328 
L 193.268736 189.521943 
L 190.996382 188.763348 
L 200.847139 183.464847 
L 195.539718 193.310802 
L 194.783182 191.037761 
L 187.56426 198.250146 
L 186.049815 196.734328 
" clip-path="url(#p57ac66b5f7)" style="fill: #ff0000"/>
    <path d="M 309.398246 155.11907 
L 316.611236 147.913684 
L 314.338938 147.15492 
L 324.19009 141.857152 
L 318.881936 151.702711 
L 318.125569 149.429615 
L 310.912579 156.635001 
L 309.398246 155.11907 
" clip-path="url(#p57ac66b5f7)" style="fill: #ff0000"/>
    <path d="M 161.266571 165.622439 
L 168.476943 158.416391 
L 166.204473 157.658143 
L 176.05442 152.358136 
L 170.748505 162.204902 
L 169.991621 159.931977 
L 162.781249 167.138025 
L 161.266571 165.622439 
" clip-path="url(#p57ac66b5f7)" style="fill: #ff0000"/>
    <path d="M 320.357315 259.065676 
L 327.563615 251.859344 
L 325.290915 251.101783 
L 335.139261 245.7988 
L 329.836321 255.647169 
L 329.07875 253.374472 
L 321.87245 260.580804 
L 320.357315 259.065676 
" clip-path="url(#p57ac66b5f7)" style="fill: #ff0000"/>
    <path d="M 336.390747 239.091949 
L 343.596266 231.887301 
L 341.323614 231.129598 
L 351.172291 225.827231 
L 345.868735 235.675268 
L 345.111306 233.402524 
L 337.905788 240.607172 
L 336.390747 239.091949 
" clip-path="url(#p57ac66b5f7)" style="fill: #ff0000"/>
    <path d="M 153.538436 119.307676 
L 160.75372 112.095434 
L 158.481182 111.337389 
L 168.330657 106.036504 
L 163.025619 115.883743 
L 162.268532 113.610886 
L 155.053249 120.823127 
L 153.538436 119.307676 
" clip-path="url(#p57ac66b5f7)" style="fill: #ff0000"/>
    <path d="M 192.860258 286.294417 
L 200.059958 279.083552 
L 197.786674 278.327747 
L 207.630919 273.017156 
L 202.33559 282.869619 
L 201.576263 280.597509 
L 194.376564 287.808375 
L 192.860258 286.294417 
" clip-path="url(#p57ac66b5f7)" style="fill: #ff0000"/>
    <path d="M 162.285491 237.57967 
L 169.497934 230.368565 
L 167.225306 229.610788 
L 177.074155 224.308741 
L 171.77028 234.156606 
L 171.012925 231.883838 
L 163.800482 239.094942 
L 162.285491 237.57967 
" clip-path="url(#p57ac66b5f7)" style="fill: #ff0000"/>
    <path d="M 137.417096 168.626049 
L 144.629924 161.414288 
L 142.357282 160.656554 
L 152.206032 155.354321 
L 146.902342 165.202286 
L 146.144944 162.929532 
L 138.932116 170.141293 
L 137.417096 168.626049 
" clip-path="url(#p57ac66b5f7)" style="fill: #ff0000"/>
    <path d="M 197.314697 110.214037 
L 204.524669 103.002342 
L 202.251881 102.245048 
L 212.099605 96.94091 
L 206.79782 106.7899 
L 206.039982 104.517293 
L 198.83001 111.728988 
L 197.314697 110.214037 
" clip-path="url(#p57ac66b5f7)" style="fill: #ff0000"/>
    <path d="M 219.785347 222.855332 
L 227.000143 215.64915 
L 224.727898 214.890227 
L 234.579421 209.593149 
L 229.270578 219.438336 
L 228.51437 217.165187 
L 221.299574 224.371369 
L 219.785347 222.855332 
" clip-path="url(#p57ac66b5f7)" style="fill: #ff0000"/>
    <path d="M 199.073849 135.296548 
L 206.283677 128.084849 
L 204.010881 127.327577 
L 213.85855 122.023338 
L 208.556866 131.872383 
L 207.799006 129.599784 
L 200.589177 136.811483 
L 199.073849 135.296548 
" clip-path="url(#p57ac66b5f7)" style="fill: #ff0000"/>
    <path d="M 355.286247 191.323941 
L 362.494618 184.119111 
L 360.222106 183.360987 
L 370.071766 178.060445 
L 364.766385 187.907499 
L 364.009377 185.634615 
L 356.801007 192.839445 
L 355.286247 191.323941 
" clip-path="url(#p57ac66b5f7)" style="fill: #ff0000"/>
    <path d="M 240.742605 81.891197 
L 247.957905 74.678068 
L 245.685321 73.92016 
L 255.534476 68.618681 
L 250.230032 78.46624 
L 249.472809 76.193428 
L 242.257508 83.406556 
L 240.742605 81.891197 
" clip-path="url(#p57ac66b5f7)" style="fill: #ff0000"/>
    <path d="M 162.865367 188.466333 
L 170.079346 181.25947 
L 167.807022 180.500783 
L 177.657995 175.202682 
L 172.350174 185.048421 
L 171.59373 182.77535 
L 164.379751 189.982212 
L 162.865367 188.466333 
" clip-path="url(#p57ac66b5f7)" style="fill: #ff0000"/>
    <path d="M 326.295935 203.368191 
L 333.509344 196.155219 
L 331.23667 195.397584 
L 341.085187 190.094921 
L 335.781927 199.943117 
L 335.02443 197.670396 
L 327.811021 204.883369 
L 326.295935 203.368191 
" clip-path="url(#p57ac66b5f7)" style="fill: #ff0000"/>
    <path d="M 172.220175 100.57691 
L 179.4359 93.362129 
L 177.163252 92.604414 
L 187.011956 87.302097 
L 181.70835 97.150107 
L 180.950933 94.87736 
L 173.735208 102.092141 
L 172.220175 100.57691 
" clip-path="url(#p57ac66b5f7)" style="fill: #ff0000"/>
    <path d="M 278.827735 260.49095 
L 286.044285 253.276843 
L 283.771716 252.518892 
L 293.620971 247.217599 
L 288.316341 257.065058 
L 287.55916 254.792232 
L 280.34261 262.006338 
L 278.827735 260.49095 
" clip-path="url(#p57ac66b5f7)" style="fill: #ff0000"/>
    <path d="M 347.918405 216.447857 
L 355.1256 209.24358 
L 352.853055 208.485554 
L 362.702485 203.184586 
L 357.39753 213.03187 
L 356.640425 210.759018 
L 349.43323 217.963296 
L 347.918405 216.447857 
" clip-path="url(#p57ac66b5f7)" style="fill: #ff0000"/>
    <path d="M 156.079225 82.225181 
L 163.280762 75.023546 
L 161.008059 74.265996 
L 170.85638 68.962968 
L 165.553486 78.811361 
L 164.795904 76.538668 
L 157.594368 83.740302 
L 156.079225 82.225181 
" clip-path="url(#p57ac66b5f7)" style="fill: #ff0000"/>
    <path d="M 332.252406 153.450085 
L 339.468407 146.234155 
L 337.195713 145.476578 
L 347.044096 140.173665 
L 341.741086 150.021996 
L 340.983532 147.749295 
L 333.767531 154.965225 
L 332.252406 153.450085 
" clip-path="url(#p57ac66b5f7)" style="fill: #ff0000"/>
    <path d="M 281.855266 116.130131 
L 289.06665 108.920978 
L 286.79407 108.163061 
L 296.643247 102.861623 
L 291.338762 112.709159 
L 290.581548 110.436344 
L 283.370164 117.645498 
L 281.855266 116.130131 
" clip-path="url(#p57ac66b5f7)" style="fill: #ff0000"/>
    <path d="M 177.38187 67.496241 
L 184.583131 60.292435 
L 182.3103 59.535271 
L 192.15772 54.23057 
L 186.856498 64.079864 
L 186.098531 61.8073 
L 178.897269 69.011105 
L 177.38187 67.496241 
" clip-path="url(#p57ac66b5f7)" style="fill: #ff0000"/>
    <path d="M 123.665663 125.091806 
L 130.873765 117.886971 
L 128.601239 117.12889 
L 138.450798 111.828162 
L 133.145604 121.675316 
L 132.388553 119.402447 
L 125.180451 126.607281 
L 123.665663 125.091806 
" clip-path="url(#p57ac66b5f7)" style="fill: #ff0000"/>
    <path d="M 226.380858 246.875133 
L 233.599963 239.662485 
L 231.327604 238.903902 
L 241.178332 233.605347 
L 235.870966 243.451331 
L 235.114417 241.178294 
L 227.895312 248.390943 
L 226.380858 246.875133 
" clip-path="url(#p57ac66b5f7)" style="fill: #ff0000"/>
    <path d="M 299.001153 245.603948 
L 306.217382 238.38739 
L 303.944667 237.629876 
L 313.792903 232.326689 
L 308.490166 242.175168 
L 307.732548 239.902487 
L 300.51632 247.119045 
L 299.001153 245.603948 
" clip-path="url(#p57ac66b5f7)" style="fill: #ff0000"/>
    <path d="M 264.261729 78.509505 
L 271.477257 71.297128 
L 269.204725 70.539066 
L 279.05424 65.238256 
L 273.749127 75.085454 
L 272.992058 72.812591 
L 265.776529 80.024968 
L 264.261729 78.509505 
" clip-path="url(#p57ac66b5f7)" style="fill: #ff0000"/>
    <path d="M 297.992215 134.313268 
L 305.200525 127.107134 
L 302.927942 126.349225 
L 312.777099 121.04775 
L 307.472651 130.895306 
L 306.715428 128.622494 
L 299.507118 135.828629 
L 297.992215 134.313268 
" clip-path="url(#p57ac66b5f7)" style="fill: #ff0000"/>
    <path d="M 275.166327 288.472989 
L 282.3737 281.26572 
L 280.101008 280.508138 
L 289.949403 275.205248 
L 284.64637 285.053566 
L 283.888821 282.780863 
L 276.681448 289.988132 
L 275.166327 288.472989 
" clip-path="url(#p57ac66b5f7)" style="fill: #ff0000"/>
    <path d="M 258.703336 124.074795 
L 265.911161 116.863065 
L 263.638259 116.106115 
L 273.485179 110.800486 
L 268.184885 120.650279 
L 267.426704 118.377786 
L 260.218878 125.589517 
L 258.703336 124.074795 
" clip-path="url(#p57ac66b5f7)" style="fill: #ff0000"/>
    <path d="M 315.069016 226.003995 
L 322.283057 218.788111 
L 320.010263 218.030836 
L 329.857942 212.726616 
L 324.556239 222.575651 
L 323.798382 220.30305 
L 316.584342 227.518933 
L 315.069016 226.003995 
" clip-path="url(#p57ac66b5f7)" style="fill: #ff0000"/>
    <path d="M 137.848804 101.261758 
L 145.053037 94.060046 
L 142.780472 93.302082 
L 152.629756 88.000844 
L 147.325072 97.848273 
L 146.567903 95.575443 
L 139.363671 102.777155 
L 137.848804 101.261758 
" clip-path="url(#p57ac66b5f7)" style="fill: #ff0000"/>
    <path d="M 339.167917 111.450545 
L 346.377982 104.240844 
L 344.105303 103.48322 
L 353.953794 98.180507 
L 348.650584 108.028731 
L 347.893075 105.756014 
L 340.68301 112.965715 
L 339.167917 111.450545 
" clip-path="url(#p57ac66b5f7)" style="fill: #ff0000"/>
    <path d="M 182.450819 253.5943 
L 189.663254 246.387344 
L 187.390845 245.628914 
L 197.241216 240.329695 
L 191.934513 250.176037 
L 191.17781 247.903051 
L 183.965375 255.110008 
L 182.450819 253.5943 
" clip-path="url(#p57ac66b5f7)" style="fill: #ff0000"/>
    <path d="M 356.656069 163.443481 
L 363.8675 156.235729 
L 361.594995 155.477583 
L 371.444705 150.177135 
L 366.139231 160.024139 
L 365.382245 157.751248 
L 358.170814 164.958999 
L 356.656069 163.443481 
" clip-path="url(#p57ac66b5f7)" style="fill: #ff0000"/>
    <path d="M 201.101815 211.868486 
L 208.31194 204.665105 
L 206.039597 203.906476 
L 215.890434 198.608123 
L 210.582865 208.453998 
L 209.826363 206.180946 
L 202.616237 213.384327 
L 201.101815 211.868486 
" clip-path="url(#p57ac66b5f7)" style="fill: #ff0000"/>
    <path d="M 268.333875 181.531839 
L 275.538817 174.326012 
L 273.266073 173.568586 
L 283.114104 168.26502 
L 277.811747 178.113702 
L 277.054042 175.841051 
L 269.8491 183.046878 
L 268.333875 181.531839 
" clip-path="url(#p57ac66b5f7)" style="fill: #ff0000"/>
    <path d="M 323.530712 91.172082 
L 330.741988 83.962124 
L 328.469359 83.20435 
L 338.318201 77.902289 
L 333.014339 87.750161 
L 332.256981 85.477394 
L 325.045705 92.687352 
L 323.530712 91.172082 
" clip-path="url(#p57ac66b5f7)" style="fill: #ff0000"/>
    <path d="M 271.983164 237.430139 
L 279.196023 230.218282 
L 276.923377 229.460558 
L 286.772103 224.158281 
L 281.468457 234.006269 
L 280.711049 231.733519 
L 273.49819 238.945376 
L 271.983164 237.430139 
" clip-path="url(#p57ac66b5f7)" style="fill: #ff0000"/>
    <path d="M 310.384179 179.132469 
L 317.594565 171.925862 
L 315.322066 171.1677 
L 325.171813 165.867321 
L 319.866269 175.714288 
L 319.109299 173.441391 
L 311.898913 180.647998 
L 310.384179 179.132469 
" clip-path="url(#p57ac66b5f7)" style="fill: #ff0000"/>
    <path d="M 168.89395 211.233598 
L 176.114308 204.022142 
L 173.842078 203.263174 
L 183.693705 197.966289 
L 178.384669 207.811373 
L 177.628505 205.538208 
L 170.408147 212.749664 
L 168.89395 211.233598 
" clip-path="url(#p57ac66b5f7)" style="fill: #ff0000"/>
    <path d="M 281.751352 60.891679 
L 288.963196 53.679828 
L 286.690498 52.922264 
L 296.538853 47.619297 
L 291.235896 57.467657 
L 290.478329 55.19496 
L 283.266485 62.406811 
L 281.751352 60.891679 
" clip-path="url(#p57ac66b5f7)" style="fill: #ff0000"/>
    <path d="M 306.212072 109.19533 
L 313.422767 101.987048 
L 311.150196 101.229102 
L 320.99944 95.927789 
L 315.69483 105.775258 
L 314.937645 103.502433 
L 307.72695 110.710715 
L 306.212072 109.19533 
" clip-path="url(#p57ac66b5f7)" style="fill: #ff0000"/>
    <path d="M 251.406217 248.764733 
L 258.619674 241.556801 
L 256.347266 240.798364 
L 266.197654 235.499175 
L 260.890921 245.3455 
L 260.134225 243.072513 
L 252.920769 250.280445 
L 251.406217 248.764733 
" clip-path="url(#p57ac66b5f7)" style="fill: #ff0000"/>
    <path d="M 350.748917 135.591984 
L 357.961713 128.379972 
L 355.689056 127.622283 
L 365.537701 122.319857 
L 360.234205 132.167925 
L 359.476762 129.895187 
L 352.263966 137.107198 
L 350.748917 135.591984 
" clip-path="url(#p57ac66b5f7)" style="fill: #ff0000"/>
    <path d="M 276.357166 139.229883 
L 283.561864 132.019442 
L 281.288865 131.262781 
L 291.135109 125.955897 
L 285.836071 135.806366 
L 285.0776 133.53397 
L 277.872901 140.744411 
L 276.357166 139.229883 
" clip-path="url(#p57ac66b5f7)" style="fill: #ff0000"/>
    <path d="M 205.407972 264.770532 
L 212.622856 257.562369 
L 210.350511 256.803744 
L 220.201338 251.505372 
L 214.893789 261.351257 
L 214.137282 259.078206 
L 206.922398 266.28637 
L 205.407972 264.770532 
" clip-path="url(#p57ac66b5f7)" style="fill: #ff0000"/>
    <path d="M 163.831747 142.574557 
L 171.042265 135.367417 
L 168.769745 134.609319 
L 178.619344 129.308665 
L 173.314075 139.155779 
L 172.557042 136.882904 
L 165.346524 144.090044 
L 163.831747 142.574557 
" clip-path="url(#p57ac66b5f7)" style="fill: #ff0000"/>
    <path d="M 321.713079 129.514888 
L 328.920793 122.306439 
L 326.648056 121.548989 
L 336.496143 116.245526 
L 331.193683 126.094153 
L 330.436002 123.821494 
L 323.228288 131.029942 
L 321.713079 129.514888 
" clip-path="url(#p57ac66b5f7)" style="fill: #ff0000"/>
    <path d="M 229.686439 52.810642 
L 236.895417 45.59771 
L 234.622512 44.840767 
L 244.469415 39.535106 
L 239.169154 49.384916 
L 238.410965 47.112426 
L 231.201987 54.325358 
L 229.686439 52.810642 
" clip-path="url(#p57ac66b5f7)" style="fill: #ff0000"/>
    <path d="M 245.831058 294.73066 
L 253.032898 287.524523 
L 250.759974 286.767635 
L 260.606749 281.461737 
L 255.306725 291.311675 
L 254.548482 289.039203 
L 247.346641 296.24534 
L 245.831058 294.73066 
" clip-path="url(#p57ac66b5f7)" style="fill: #ff0000"/>
    <path d="M 237.175179 208.308149 
L 244.382416 201.102751 
L 242.109815 200.344895 
L 251.958849 195.043191 
L 246.65463 204.890871 
L 245.897354 202.618076 
L 238.690118 209.823474 
L 237.175179 208.308149 
" clip-path="url(#p57ac66b5f7)" style="fill: #ff0000"/>
    <path d="M 185.201507 227.440236 
L 192.413342 220.236418 
L 190.141066 219.477589 
L 199.992371 214.180105 
L 194.683933 224.025511 
L 193.927631 221.752393 
L 186.715796 228.95621 
L 185.201507 227.440236 
" clip-path="url(#p57ac66b5f7)" style="fill: #ff0000"/>
    <path d="M 249.03324 171.138614 
L 256.237581 163.932196 
L 253.964775 163.174958 
L 263.812367 157.870577 
L 258.510825 167.719698 
L 257.752932 165.44711 
L 250.548591 172.653528 
L 249.03324 171.138614 
" clip-path="url(#p57ac66b5f7)" style="fill: #ff0000"/>
    <path d="M 277.855355 203.500994 
L 285.0751 196.27823 
L 282.802244 195.521139 
L 292.649492 190.21612 
L 287.348589 200.065585 
L 286.590549 197.793045 
L 279.370803 205.015809 
L 277.855355 203.500994 
" clip-path="url(#p57ac66b5f7)" style="fill: #ff0000"/>
    <path d="M 255.626756 271.513506 
L 262.84123 264.305947 
L 260.568896 263.547291 
L 270.419795 258.249053 
L 265.112112 268.094866 
L 264.355636 265.821805 
L 257.141162 273.029364 
L 255.626756 271.513506 
" clip-path="url(#p57ac66b5f7)" style="fill: #ff0000"/>
    <path d="M 253.242233 145.556835 
L 260.452105 138.347631 
L 258.179443 137.58996 
L 268.028046 132.287455 
L 262.724627 142.135566 
L 261.967167 139.862833 
L 254.757294 147.072037 
L 253.242233 145.556835 
" clip-path="url(#p57ac66b5f7)" style="fill: #ff0000"/>
    <path d="M 182.997547 174.072581 
L 190.209092 166.863538 
L 187.936526 166.105578 
L 197.785803 160.804325 
L 192.481133 170.651762 
L 191.723961 168.378933 
L 184.512416 175.587976 
L 182.997547 174.072581 
" clip-path="url(#p57ac66b5f7)" style="fill: #ff0000"/>
    <path d="M 235.704524 186.14727 
L 242.908524 178.942348 
L 240.635778 178.184927 
L 250.483795 172.881335 
L 245.181464 182.730032 
L 244.423753 180.457382 
L 237.219753 187.662305 
L 235.704524 186.14727 
" clip-path="url(#p57ac66b5f7)" style="fill: #ff0000"/>
    <path d="M 255.044769 196.941688 
L 262.2506 189.73518 
L 259.977866 188.977721 
L 269.825974 183.674296 
L 264.523476 193.522903 
L 263.765803 191.25024 
L 256.559973 198.456749 
L 255.044769 196.941688 
" clip-path="url(#p57ac66b5f7)" style="fill: #ff0000"/>
    <path d="M 218.336242 292.94783 
L 225.53635 285.74015 
L 223.263255 284.983779 
L 233.108823 279.675643 
L 227.811038 289.526785 
L 227.052278 287.254486 
L 219.85217 294.462165 
L 218.336242 292.94783 
" clip-path="url(#p57ac66b5f7)" style="fill: #ff0000"/>
    <path d="M 268.057196 160.257133 
L 275.262916 153.052668 
L 272.990284 152.294904 
L 282.839102 146.9928 
L 277.535284 156.840695 
L 276.777916 154.567932 
L 269.572196 161.772397 
L 268.057196 160.257133 
" clip-path="url(#p57ac66b5f7)" style="fill: #ff0000"/>
    <path d="M 119.301577 210.295705 
L 126.515326 203.080189 
L 124.242535 202.322901 
L 134.090242 197.018733 
L 128.788487 206.86774 
L 128.030643 204.595135 
L 120.816894 211.810651 
L 119.301577 210.295705 
" clip-path="url(#p57ac66b5f7)" style="fill: #ff0000"/>
    <path d="M 218.151261 145.346266 
L 225.362008 138.132414 
L 223.089147 137.375337 
L 232.936362 132.070255 
L 227.635521 141.919754 
L 226.877466 139.647219 
L 219.666719 146.861072 
L 218.151261 145.346266 
" clip-path="url(#p57ac66b5f7)" style="fill: #ff0000"/>
    <path d="M 236.959456 131.150327 
L 244.170089 123.937452 
L 241.897273 123.18024 
L 251.744806 117.875747 
L 246.443375 127.724929 
L 245.685456 125.452349 
L 238.474824 132.665223 
L 236.959456 131.150327 
" clip-path="url(#p57ac66b5f7)" style="fill: #ff0000"/>
    <path d="M 203.377111 160.899097 
L 210.589215 153.686346 
L 208.316483 152.928882 
L 218.164602 147.625479 
L 212.862083 157.474073 
L 212.104415 155.20141 
L 204.892311 162.414161 
L 203.377111 160.899097 
" clip-path="url(#p57ac66b5f7)" style="fill: #ff0000"/>
    <path d="M 203.407634 183.560688 
L 210.623109 176.346128 
L 208.35046 175.588418 
L 218.199153 170.286082 
L 212.895567 180.134102 
L 212.138145 177.861356 
L 204.92267 185.075916 
L 203.407634 183.560688 
" clip-path="url(#p57ac66b5f7)" style="fill: #ff0000"/>
    <path d="M 299.814382 275.750563 
L 307.021988 268.54225 
L 304.749253 267.784796 
L 314.59735 262.481352 
L 309.294871 272.329968 
L 308.537194 270.057308 
L 301.329588 277.265621 
L 299.814382 275.750563 
" clip-path="url(#p57ac66b5f7)" style="fill: #ff0000"/>
    <path d="M 201.682003 56.385163 
L 208.884732 49.179055 
L 206.611856 48.422022 
L 216.458969 43.116752 
L 211.158318 52.966352 
L 210.400219 50.693832 
L 203.19749 57.89994 
L 201.682003 56.385163 
" clip-path="url(#p57ac66b5f7)" style="fill: #ff0000"/>
    <path d="M 261.452764 218.252676 
L 268.674839 211.033028 
L 266.402269 210.27508 
L 276.251517 204.973773 
L 270.946901 214.821239 
L 270.189717 212.548414 
L 262.967641 219.768063 
L 261.452764 218.252676 
" clip-path="url(#p57ac66b5f7)" style="fill: #ff0000"/>
    <path d="M 204.240426 239.724065 
L 211.455559 232.518125 
L 209.183345 231.759111 
L 219.03508 226.462429 
L 213.725841 236.307403 
L 212.969724 234.034223 
L 205.754591 241.240162 
L 204.240426 239.724065 
" clip-path="url(#p57ac66b5f7)" style="fill: #ff0000"/>
    <path d="M 289.043943 182.988435 
L 296.257919 175.762586 
L 293.984599 175.006889 
L 303.828592 169.695831 
L 298.533731 179.548545 
L 297.774296 177.276471 
L 290.56032 184.502321 
L 289.043943 182.988435 
" clip-path="url(#p57ac66b5f7)" style="fill: #ff0000"/>
    <path d="M 289.528547 222.7336 
L 296.740932 215.51935 
L 294.468136 214.762077 
L 304.315807 209.457843 
L 299.014119 219.306885 
L 298.25626 217.034285 
L 291.043875 224.248536 
L 289.528547 222.7336 
" clip-path="url(#p57ac66b5f7)" style="fill: #ff0000"/>
    <path d="M 149.16862 258.248183 
L 156.372533 251.030283 
L 154.099101 250.274921 
L 163.94231 244.96241 
L 158.648903 254.815906 
L 157.889133 252.543944 
L 150.685221 259.761845 
L 149.16862 258.248183 
" clip-path="url(#p57ac66b5f7)" style="fill: #ff0000"/>
    <path d="M 217.455174 75.728103 
L 224.673301 68.510395 
L 222.400625 67.752763 
L 232.249137 62.450088 
L 226.945889 72.298291 
L 226.188389 70.025571 
L 218.970261 77.243279 
L 217.455174 75.728103 
" clip-path="url(#p57ac66b5f7)" style="fill: #ff0000"/>
    <path d="M 239.774176 107.791156 
L 246.985831 100.576821 
L 244.712992 99.819678 
L 254.560364 94.514886 
L 249.259232 104.364228 
L 248.501244 102.091671 
L 241.289589 109.306007 
L 239.774176 107.791156 
" clip-path="url(#p57ac66b5f7)" style="fill: #ff0000"/>
    <path d="M 139.476067 192.909 
L 146.690747 185.695895 
L 144.418132 184.938081 
L 154.267068 179.636195 
L 148.963031 189.483973 
L 148.205714 187.211193 
L 140.991034 194.424297 
L 139.476067 192.909 
" clip-path="url(#p57ac66b5f7)" style="fill: #ff0000"/>
    <path d="M 217.749301 198.146884 
L 224.954392 190.941734 
L 222.681691 190.184177 
L 232.530027 184.881176 
L 227.227106 194.729554 
L 226.46953 192.45686 
L 219.264439 199.66201 
L 217.749301 198.146884 
" clip-path="url(#p57ac66b5f7)" style="fill: #ff0000"/>
    <path d="M 242.302262 229.063077 
L 249.525998 221.847489 
L 247.253728 221.088641 
L 257.105077 215.791238 
L 251.796558 225.636601 
L 251.040275 223.363476 
L 243.816538 230.579064 
L 242.302262 229.063077 
" clip-path="url(#p57ac66b5f7)" style="fill: #ff0000"/>
    <path d="M 230.145976 270.232176 
L 237.35948 263.02324 
L 235.087022 262.264954 
L 244.937059 256.965112 
L 239.630978 266.811789 
L 238.874132 264.538851 
L 231.660628 271.747787 
L 230.145976 270.232176 
" clip-path="url(#p57ac66b5f7)" style="fill: #ff0000"/>
    <path d="M 302.396155 202.830982 
L 309.60671 195.616265 
L 307.333793 194.859355 
L 317.18062 189.553552 
L 311.8805 199.403438 
L 311.122279 197.130959 
L 303.911724 204.345676 
L 302.396155 202.830982 
" clip-path="url(#p57ac66b5f7)" style="fill: #ff0000"/>
    <path d="M 178.93969 124.553115 
L 186.149032 117.343512 
L 183.87632 116.585987 
L 193.724581 111.282847 
L 188.421798 121.1313 
L 187.664191 118.858616 
L 180.454849 126.06822 
L 178.93969 124.553115 
" clip-path="url(#p57ac66b5f7)" style="fill: #ff0000"/>
    <path d="M 218.962414 99.206417 
L 226.173256 91.992797 
L 223.900413 91.235669 
L 233.747748 85.930812 
L 228.446683 95.780189 
L 227.68868 93.507638 
L 220.477838 100.721257 
L 218.962414 99.206417 
" clip-path="url(#p57ac66b5f7)" style="fill: #ff0000"/>
    <path d="M 184.117265 151.653261 
L 191.327899 144.444222 
L 189.055285 143.686405 
L 198.904228 138.384532 
L 193.600178 148.232303 
L 192.842863 145.959521 
L 185.632229 153.16856 
L 184.117265 151.653261 
" clip-path="url(#p57ac66b5f7)" style="fill: #ff0000"/>
    <path d="M 221.46123 171.772519 
L 228.675078 164.558711 
L 226.402383 163.801139 
L 236.250754 158.498204 
L 230.947766 168.346547 
L 230.190206 166.073847 
L 222.976358 173.287655 
L 221.46123 171.772519 
" clip-path="url(#p57ac66b5f7)" style="fill: #ff0000"/>
    <path d="M 193.710162 86.390544 
L 200.926877 79.174084 
L 198.654193 78.416478 
L 208.502644 73.113691 
L 203.199508 82.961954 
L 202.441982 80.689243 
L 195.225267 87.905703 
L 193.710162 86.390544 
" clip-path="url(#p57ac66b5f7)" style="fill: #ff0000"/>
    <path d="M 114.149037 182.215613 
L 121.361062 175.004426 
L 119.088408 174.246728 
L 128.937073 168.944338 
L 123.63354 178.792387 
L 122.876106 176.519646 
L 115.664081 183.730833 
L 114.149037 182.215613 
" clip-path="url(#p57ac66b5f7)" style="fill: #ff0000"/>
    <path d="M 131.674357 237.026912 
L 138.884664 229.805738 
L 136.611396 229.049884 
L 146.455757 223.739508 
L 141.160213 233.591855 
L 140.400936 231.319729 
L 133.19063 238.540902 
L 131.674357 237.026912 
" clip-path="url(#p57ac66b5f7)" style="fill: #ff0000"/>
    <path d="M 235.100111 155.989712 
L 242.311842 148.775841 
L 240.039032 148.018612 
L 249.886602 142.714189 
L 244.585102 152.563333 
L 243.827199 150.290747 
L 236.615468 157.504619 
L 235.100111 155.989712 
" clip-path="url(#p57ac66b5f7)" style="fill: #ff0000"/>
    <path d="M 261.732338 101.808237 
L 268.946348 94.596495 
L 266.67377 93.838572 
L 276.52296 88.537159 
L 271.21845 98.384682 
L 270.461242 96.111865 
L 263.247231 103.323607 
L 261.732338 101.808237 
" clip-path="url(#p57ac66b5f7)" style="fill: #ff0000"/>
    <path d="M 217.90226 122.046579 
L 225.113328 114.832852 
L 222.84049 114.075705 
L 232.68787 108.770928 
L 227.386724 118.620263 
L 226.628739 116.347705 
L 219.417671 123.561432 
L 217.90226 122.046579 
" clip-path="url(#p57ac66b5f7)" style="fill: #ff0000"/>
    <path d="M 139.917518 143.497424 
L 147.13203 136.285402 
L 144.859463 135.527443 
L 154.708735 130.226182 
L 149.404074 140.073623 
L 148.646901 137.800795 
L 141.432388 145.012817 
L 139.917518 143.497424 
" clip-path="url(#p57ac66b5f7)" style="fill: #ff0000"/>
    <path d="M 254.469117 54.226709 
L 261.678785 47.01688 
L 259.406078 46.25934 
L 269.254376 40.956269 
L 263.951525 50.804685 
L 263.193933 48.531995 
L 255.984265 55.741824 
L 254.469117 54.226709 
" clip-path="url(#p57ac66b5f7)" style="fill: #ff0000"/>
    <path d="M 169.719488 274.603947 
L 176.919968 267.390027 
L 174.646565 266.634581 
L 184.489973 261.322439 
L 179.196197 271.175736 
L 178.436512 268.903746 
L 171.236032 276.117666 
L 169.719488 274.603947 
" clip-path="url(#p57ac66b5f7)" style="fill: #ff0000"/>
    <path d="M 333.259913 179.045763 
L 340.474574 171.831127 
L 338.201877 171.073557 
L 348.050244 165.770613 
L 342.747265 175.618961 
L 341.989703 173.346262 
L 334.775043 180.560897 
L 333.259913 179.045763 
" clip-path="url(#p57ac66b5f7)" style="fill: #ff0000"/>
    <path d="M 286.954975 92.110699 
L 294.168689 84.900616 
L 291.896182 84.142478 
L 301.745874 78.841996 
L 296.440433 88.689018 
L 295.683439 86.416129 
L 288.469726 93.626212 
L 286.954975 92.110699 
" clip-path="url(#p57ac66b5f7)" style="fill: #ff0000"/>
   </g>
   <g id="matplotlib.axis_1">
    <g id="xtick_1">
     <g id="line2d_1">
      <defs>
       <path id="m835b64cf0a" d="M 0 0 
L 0 3.5 
" style="stroke: #000000; stroke-width: 0.8"/>
      </defs>
      <g>
       <use xlink:href="#m835b64cf0a" x="81.993439" y="307.584" style="stroke: #000000; stroke-width: 0.8"/>
      </g>
     </g>
     <g id="text_1">
      <!-- 75.5 -->
      <g transform="translate(68.634064 323.702125) scale(0.12 -0.12)">
       <defs>
        <path id="DejaVuSans-37" d="M 525 4666 
L 3525 4666 
L 3525 4397 
L 1831 0 
L 1172 0 
L 2766 4134 
L 525 4134 
L 525 4666 
z
" transform="scale(0.015625)"/>
        <path id="DejaVuSans-35" d="M 691 4666 
L 3169 4666 
L 3169 4134 
L 1269 4134 
L 1269 2991 
Q 1406 3038 1543 3061 
Q 1681 3084 1819 3084 
Q 2600 3084 3056 2656 
Q 3513 2228 3513 1497 
Q 3513 744 3044 326 
Q 2575 -91 1722 -91 
Q 1428 -91 1123 -41 
Q 819 9 494 109 
L 494 744 
Q 775 591 1075 516 
Q 1375 441 1709 441 
Q 2250 441 2565 725 
Q 2881 1009 2881 1497 
Q 2881 1984 2565 2268 
Q 2250 2553 1709 2553 
Q 1456 2553 1204 2497 
Q 953 2441 691 2322 
L 691 4666 
z
" transform="scale(0.015625)"/>
        <path id="DejaVuSans-2e" d="M 684 794 
L 1344 794 
L 1344 0 
L 684 0 
L 684 794 
z
" transform="scale(0.015625)"/>
       </defs>
       <use xlink:href="#DejaVuSans-37"/>
       <use xlink:href="#DejaVuSans-35" transform="translate(63.623047 0)"/>
       <use xlink:href="#DejaVuSans-2e" transform="translate(127.246094 0)"/>
       <use xlink:href="#DejaVuSans-35" transform="translate(159.033203 0)"/>
      </g>
     </g>
    </g>
    <g id="xtick_2">
     <g id="line2d_2">
      <g>
       <use xlink:href="#m835b64cf0a" x="145.275476" y="307.584" style="stroke: #000000; stroke-width: 0.8"/>
      </g>
     </g>
     <g id="text_2">
      <!-- 76.0 -->
      <g transform="translate(131.916101 323.702125) scale(0.12 -0.12)">
       <defs>
        <path id="DejaVuSans-36" d="M 2113 2584 
Q 1688 2584 1439 2293 
Q 1191 2003 1191 1497 
Q 1191 994 1439 701 
Q 1688 409 2113 409 
Q 2538 409 2786 701 
Q 3034 994 3034 1497 
Q 3034 2003 2786 2293 
Q 2538 2584 2113 2584 
z
M 3366 4563 
L 3366 3988 
Q 3128 4100 2886 4159 
Q 2644 4219 2406 4219 
Q 1781 4219 1451 3797 
Q 1122 3375 1075 2522 
Q 1259 2794 1537 2939 
Q 1816 3084 2150 3084 
Q 2853 3084 3261 2657 
Q 3669 2231 3669 1497 
Q 3669 778 3244 343 
Q 2819 -91 2113 -91 
Q 1303 -91 875 529 
Q 447 1150 447 2328 
Q 447 3434 972 4092 
Q 1497 4750 2381 4750 
Q 2619 4750 2861 4703 
Q 3103 4656 3366 4563 
z
" transform="scale(0.015625)"/>
        <path id="DejaVuSans-30" d="M 2034 4250 
Q 1547 4250 1301 3770 
Q 1056 3291 1056 2328 
Q 1056 1369 1301 889 
Q 1547 409 2034 409 
Q 2525 409 2770 889 
Q 3016 1369 3016 2328 
Q 3016 3291 2770 3770 
Q 2525 4250 2034 4250 
z
M 2034 4750 
Q 2819 4750 3233 4129 
Q 3647 3509 3647 2328 
Q 3647 1150 3233 529 
Q 2819 -91 2034 -91 
Q 1250 -91 836 529 
Q 422 1150 422 2328 
Q 422 3509 836 4129 
Q 1250 4750 2034 4750 
z
" transform="scale(0.015625)"/>
       </defs>
       <use xlink:href="#DejaVuSans-37"/>
       <use xlink:href="#DejaVuSans-36" transform="translate(63.623047 0)"/>
       <use xlink:href="#DejaVuSans-2e" transform="translate(127.246094 0)"/>
       <use xlink:href="#DejaVuSans-30" transform="translate(159.033203 0)"/>
      </g>
     </g>
    </g>
    <g id="xtick_3">
     <g id="line2d_3">
      <g>
       <use xlink:href="#m835b64cf0a" x="208.557514" y="307.584" style="stroke: #000000; stroke-width: 0.8"/>
      </g>
     </g>
     <g id="text_3">
      <!-- 76.5 -->
      <g transform="translate(195.198139 323.702125) scale(0.12 -0.12)">
       <use xlink:href="#DejaVuSans-37"/>
       <use xlink:href="#DejaVuSans-36" transform="translate(63.623047 0)"/>
       <use xlink:href="#DejaVuSans-2e" transform="translate(127.246094 0)"/>
       <use xlink:href="#DejaVuSans-35" transform="translate(159.033203 0)"/>
      </g>
     </g>
    </g>
    <g id="xtick_4">
     <g id="line2d_4">
      <g>
       <use xlink:href="#m835b64cf0a" x="271.839552" y="307.584" style="stroke: #000000; stroke-width: 0.8"/>
      </g>
     </g>
     <g id="text_4">
      <!-- 77.0 -->
      <g transform="translate(258.480177 323.702125) scale(0.12 -0.12)">
       <use xlink:href="#DejaVuSans-37"/>
       <use xlink:href="#DejaVuSans-37" transform="translate(63.623047 0)"/>
       <use xlink:href="#DejaVuSans-2e" transform="translate(127.246094 0)"/>
       <use xlink:href="#DejaVuSans-30" transform="translate(159.033203 0)"/>
      </g>
     </g>
    </g>
    <g id="xtick_5">
     <g id="line2d_5">
      <g>
       <use xlink:href="#m835b64cf0a" x="335.12159" y="307.584" style="stroke: #000000; stroke-width: 0.8"/>
      </g>
     </g>
     <g id="text_5">
      <!-- 77.5 -->
      <g transform="translate(321.762215 323.702125) scale(0.12 -0.12)">
       <use xlink:href="#DejaVuSans-37"/>
       <use xlink:href="#DejaVuSans-37" transform="translate(63.623047 0)"/>
       <use xlink:href="#DejaVuSans-2e" transform="translate(127.246094 0)"/>
       <use xlink:href="#DejaVuSans-35" transform="translate(159.033203 0)"/>
      </g>
     </g>
    </g>
    <g id="xtick_6">
     <g id="line2d_6">
      <g>
       <use xlink:href="#m835b64cf0a" x="398.403628" y="307.584" style="stroke: #000000; stroke-width: 0.8"/>
      </g>
     </g>
     <g id="text_6">
      <!-- 78.0 -->
      <g transform="translate(385.044253 323.702125) scale(0.12 -0.12)">
       <defs>
        <path id="DejaVuSans-38" d="M 2034 2216 
Q 1584 2216 1326 1975 
Q 1069 1734 1069 1313 
Q 1069 891 1326 650 
Q 1584 409 2034 409 
Q 2484 409 2743 651 
Q 3003 894 3003 1313 
Q 3003 1734 2745 1975 
Q 2488 2216 2034 2216 
z
M 1403 2484 
Q 997 2584 770 2862 
Q 544 3141 544 3541 
Q 544 4100 942 4425 
Q 1341 4750 2034 4750 
Q 2731 4750 3128 4425 
Q 3525 4100 3525 3541 
Q 3525 3141 3298 2862 
Q 3072 2584 2669 2484 
Q 3125 2378 3379 2068 
Q 3634 1759 3634 1313 
Q 3634 634 3220 271 
Q 2806 -91 2034 -91 
Q 1263 -91 848 271 
Q 434 634 434 1313 
Q 434 1759 690 2068 
Q 947 2378 1403 2484 
z
M 1172 3481 
Q 1172 3119 1398 2916 
Q 1625 2713 2034 2713 
Q 2441 2713 2670 2916 
Q 2900 3119 2900 3481 
Q 2900 3844 2670 4047 
Q 2441 4250 2034 4250 
Q 1625 4250 1398 4047 
Q 1172 3844 1172 3481 
z
" transform="scale(0.015625)"/>
       </defs>
       <use xlink:href="#DejaVuSans-37"/>
       <use xlink:href="#DejaVuSans-38" transform="translate(63.623047 0)"/>
       <use xlink:href="#DejaVuSans-2e" transform="translate(127.246094 0)"/>
       <use xlink:href="#DejaVuSans-30" transform="translate(159.033203 0)"/>
      </g>
     </g>
    </g>
    <g id="text_7">
     <!-- x -->
     <g transform="translate(232.016875 340.835562) scale(0.14 -0.14)">
      <defs>
       <path id="DejaVuSans-78" d="M 3513 3500 
L 2247 1797 
L 3578 0 
L 2900 0 
L 1881 1375 
L 863 0 
L 184 0 
L 1544 1831 
L 300 3500 
L 978 3500 
L 1906 2253 
L 2834 3500 
L 3513 3500 
z
" transform="scale(0.015625)"/>
      </defs>
      <use xlink:href="#DejaVuSans-78"/>
     </g>
    </g>
   </g>
   <g id="matplotlib.axis_2">
    <g id="ytick_1">
     <g id="line2d_7">
      <defs>
       <path id="m4daa7dcece" d="M 0 0 
L -3.5 0 
" style="stroke: #000000; stroke-width: 0.8"/>
      </defs>
      <g>
       <use xlink:href="#m4daa7dcece" x="57.6" y="283.928558" style="stroke: #000000; stroke-width: 0.8"/>
      </g>
     </g>
     <g id="text_8">
      <!-- 74.50 -->
      <g transform="translate(16.24625 288.487621) scale(0.12 -0.12)">
       <defs>
        <path id="DejaVuSans-34" d="M 2419 4116 
L 825 1625 
L 2419 1625 
L 2419 4116 
z
M 2253 4666 
L 3047 4666 
L 3047 1625 
L 3713 1625 
L 3713 1100 
L 3047 1100 
L 3047 0 
L 2419 0 
L 2419 1100 
L 313 1100 
L 313 1709 
L 2253 4666 
z
" transform="scale(0.015625)"/>
       </defs>
       <use xlink:href="#DejaVuSans-37"/>
       <use xlink:href="#DejaVuSans-34" transform="translate(63.623047 0)"/>
       <use xlink:href="#DejaVuSans-2e" transform="translate(127.246094 0)"/>
       <use xlink:href="#DejaVuSans-35" transform="translate(159.033203 0)"/>
       <use xlink:href="#DejaVuSans-30" transform="translate(222.65625 0)"/>
      </g>
     </g>
    </g>
    <g id="ytick_2">
     <g id="line2d_8">
      <g>
       <use xlink:href="#m4daa7dcece" x="57.6" y="252.287539" style="stroke: #000000; stroke-width: 0.8"/>
      </g>
     </g>
     <g id="text_9">
      <!-- 74.75 -->
      <g transform="translate(16.24625 256.846602) scale(0.12 -0.12)">
       <use xlink:href="#DejaVuSans-37"/>
       <use xlink:href="#DejaVuSans-34" transform="translate(63.623047 0)"/>
       <use xlink:href="#DejaVuSans-2e" transform="translate(127.246094 0)"/>
       <use xlink:href="#DejaVuSans-37" transform="translate(159.033203 0)"/>
       <use xlink:href="#DejaVuSans-35" transform="translate(222.65625 0)"/>
      </g>
     </g>
    </g>
    <g id="ytick_3">
     <g id="line2d_9">
      <g>
       <use xlink:href="#m4daa7dcece" x="57.6" y="220.646521" style="stroke: #000000; stroke-width: 0.8"/>
      </g>
     </g>
     <g id="text_10">
      <!-- 75.00 -->
      <g transform="translate(16.24625 225.205583) scale(0.12 -0.12)">
       <use xlink:href="#DejaVuSans-37"/>
       <use xlink:href="#DejaVuSans-35" transform="translate(63.623047 0)"/>
       <use xlink:href="#DejaVuSans-2e" transform="translate(127.246094 0)"/>
       <use xlink:href="#DejaVuSans-30" transform="translate(159.033203 0)"/>
       <use xlink:href="#DejaVuSans-30" transform="translate(222.65625 0)"/>
      </g>
     </g>
    </g>
    <g id="ytick_4">
     <g id="line2d_10">
      <g>
       <use xlink:href="#m4daa7dcece" x="57.6" y="189.005502" style="stroke: #000000; stroke-width: 0.8"/>
      </g>
     </g>
     <g id="text_11">
      <!-- 75.25 -->
      <g transform="translate(16.24625 193.564564) scale(0.12 -0.12)">
       <defs>
        <path id="DejaVuSans-32" d="M 1228 531 
L 3431 531 
L 3431 0 
L 469 0 
L 469 531 
Q 828 903 1448 1529 
Q 2069 2156 2228 2338 
Q 2531 2678 2651 2914 
Q 2772 3150 2772 3378 
Q 2772 3750 2511 3984 
Q 2250 4219 1831 4219 
Q 1534 4219 1204 4116 
Q 875 4013 500 3803 
L 500 4441 
Q 881 4594 1212 4672 
Q 1544 4750 1819 4750 
Q 2544 4750 2975 4387 
Q 3406 4025 3406 3419 
Q 3406 3131 3298 2873 
Q 3191 2616 2906 2266 
Q 2828 2175 2409 1742 
Q 1991 1309 1228 531 
z
" transform="scale(0.015625)"/>
       </defs>
       <use xlink:href="#DejaVuSans-37"/>
       <use xlink:href="#DejaVuSans-35" transform="translate(63.623047 0)"/>
       <use xlink:href="#DejaVuSans-2e" transform="translate(127.246094 0)"/>
       <use xlink:href="#DejaVuSans-32" transform="translate(159.033203 0)"/>
       <use xlink:href="#DejaVuSans-35" transform="translate(222.65625 0)"/>
      </g>
     </g>
    </g>
    <g id="ytick_5">
     <g id="line2d_11">
      <g>
       <use xlink:href="#m4daa7dcece" x="57.6" y="157.364483" style="stroke: #000000; stroke-width: 0.8"/>
      </g>
     </g>
     <g id="text_12">
      <!-- 75.50 -->
      <g transform="translate(16.24625 161.923545) scale(0.12 -0.12)">
       <use xlink:href="#DejaVuSans-37"/>
       <use xlink:href="#DejaVuSans-35" transform="translate(63.623047 0)"/>
       <use xlink:href="#DejaVuSans-2e" transform="translate(127.246094 0)"/>
       <use xlink:href="#DejaVuSans-35" transform="translate(159.033203 0)"/>
       <use xlink:href="#DejaVuSans-30" transform="translate(222.65625 0)"/>
      </g>
     </g>
    </g>
    <g id="ytick_6">
     <g id="line2d_12">
      <g>
       <use xlink:href="#m4daa7dcece" x="57.6" y="125.723464" style="stroke: #000000; stroke-width: 0.8"/>
      </g>
     </g>
     <g id="text_13">
      <!-- 75.75 -->
      <g transform="translate(16.24625 130.282526) scale(0.12 -0.12)">
       <use xlink:href="#DejaVuSans-37"/>
       <use xlink:href="#DejaVuSans-35" transform="translate(63.623047 0)"/>
       <use xlink:href="#DejaVuSans-2e" transform="translate(127.246094 0)"/>
       <use xlink:href="#DejaVuSans-37" transform="translate(159.033203 0)"/>
       <use xlink:href="#DejaVuSans-35" transform="translate(222.65625 0)"/>
      </g>
     </g>
    </g>
    <g id="ytick_7">
     <g id="line2d_13">
      <g>
       <use xlink:href="#m4daa7dcece" x="57.6" y="94.082445" style="stroke: #000000; stroke-width: 0.8"/>
      </g>
     </g>
     <g id="text_14">
      <!-- 76.00 -->
      <g transform="translate(16.24625 98.641507) scale(0.12 -0.12)">
       <use xlink:href="#DejaVuSans-37"/>
       <use xlink:href="#DejaVuSans-36" transform="translate(63.623047 0)"/>
       <use xlink:href="#DejaVuSans-2e" transform="translate(127.246094 0)"/>
       <use xlink:href="#DejaVuSans-30" transform="translate(159.033203 0)"/>
       <use xlink:href="#DejaVuSans-30" transform="translate(222.65625 0)"/>
      </g>
     </g>
    </g>
    <g id="ytick_8">
     <g id="line2d_14">
      <g>
       <use xlink:href="#m4daa7dcece" x="57.6" y="62.441426" style="stroke: #000000; stroke-width: 0.8"/>
      </g>
     </g>
     <g id="text_15">
      <!-- 76.25 -->
      <g transform="translate(16.24625 67.000488) scale(0.12 -0.12)">
       <use xlink:href="#DejaVuSans-37"/>
       <use xlink:href="#DejaVuSans-36" transform="translate(63.623047 0)"/>
       <use xlink:href="#DejaVuSans-2e" transform="translate(127.246094 0)"/>
       <use xlink:href="#DejaVuSans-32" transform="translate(159.033203 0)"/>
       <use xlink:href="#DejaVuSans-35" transform="translate(222.65625 0)"/>
      </g>
     </g>
    </g>
    <g id="text_16">
     <!-- y -->
     <g transform="translate(9.334688 178.671125) rotate(-90) scale(0.14 -0.14)">
      <defs>
       <path id="DejaVuSans-79" d="M 2059 -325 
Q 1816 -950 1584 -1140 
Q 1353 -1331 966 -1331 
L 506 -1331 
L 506 -850 
L 844 -850 
Q 1081 -850 1212 -737 
Q 1344 -625 1503 -206 
L 1606 56 
L 191 3500 
L 800 3500 
L 1894 763 
L 2988 3500 
L 3597 3500 
L 2059 -325 
z
" transform="scale(0.015625)"/>
      </defs>
      <use xlink:href="#DejaVuSans-79"/>
     </g>
    </g>
   </g>
   <g id="patch_3">
    <path d="M 57.6 307.584 
L 57.6 41.472 
" style="fill: none; stroke: #000000; stroke-width: 0.8; stroke-linejoin: miter; stroke-linecap: square"/>
   </g>
   <g id="patch_4">
    <path d="M 414.72 307.584 
L 414.72 41.472 
" style="fill: none; stroke: #000000; stroke-width: 0.8; stroke-linejoin: miter; stroke-linecap: square"/>
   </g>
   <g id="patch_5">
    <path d="M 57.6 307.584 
L 414.72 307.584 
" style="fill: none; stroke: #000000; stroke-width: 0.8; stroke-linejoin: miter; stroke-linecap: square"/>
   </g>
   <g id="patch_6">
    <path d="M 57.6 41.472 
L 414.72 41.472 
" style="fill: none; stroke: #000000; stroke-width: 0.8; stroke-linejoin: miter; stroke-linecap: square"/>
   </g>
   <g id="text_17">
    <!-- Velocities at the final time -->
    <g transform="translate(116.81 35.472) scale(0.16 -0.16)">
     <defs>
      <path id="DejaVuSans-Bold-56" d="M 31 4666 
L 1241 4666 
L 2478 1222 
L 3713 4666 
L 4922 4666 
L 3194 0 
L 1759 0 
L 31 4666 
z
" transform="scale(0.015625)"/>
      <path id="DejaVuSans-Bold-65" d="M 4031 1759 
L 4031 1441 
L 1416 1441 
Q 1456 1047 1700 850 
Q 1944 653 2381 653 
Q 2734 653 3104 758 
Q 3475 863 3866 1075 
L 3866 213 
Q 3469 63 3072 -14 
Q 2675 -91 2278 -91 
Q 1328 -91 801 392 
Q 275 875 275 1747 
Q 275 2603 792 3093 
Q 1309 3584 2216 3584 
Q 3041 3584 3536 3087 
Q 4031 2591 4031 1759 
z
M 2881 2131 
Q 2881 2450 2695 2645 
Q 2509 2841 2209 2841 
Q 1884 2841 1681 2658 
Q 1478 2475 1428 2131 
L 2881 2131 
z
" transform="scale(0.015625)"/>
      <path id="DejaVuSans-Bold-6c" d="M 538 4863 
L 1656 4863 
L 1656 0 
L 538 0 
L 538 4863 
z
" transform="scale(0.015625)"/>
      <path id="DejaVuSans-Bold-6f" d="M 2203 2784 
Q 1831 2784 1636 2517 
Q 1441 2250 1441 1747 
Q 1441 1244 1636 976 
Q 1831 709 2203 709 
Q 2569 709 2762 976 
Q 2956 1244 2956 1747 
Q 2956 2250 2762 2517 
Q 2569 2784 2203 2784 
z
M 2203 3584 
Q 3106 3584 3614 3096 
Q 4122 2609 4122 1747 
Q 4122 884 3614 396 
Q 3106 -91 2203 -91 
Q 1297 -91 786 396 
Q 275 884 275 1747 
Q 275 2609 786 3096 
Q 1297 3584 2203 3584 
z
" transform="scale(0.015625)"/>
      <path id="DejaVuSans-Bold-63" d="M 3366 3391 
L 3366 2478 
Q 3138 2634 2908 2709 
Q 2678 2784 2431 2784 
Q 1963 2784 1702 2511 
Q 1441 2238 1441 1747 
Q 1441 1256 1702 982 
Q 1963 709 2431 709 
Q 2694 709 2930 787 
Q 3166 866 3366 1019 
L 3366 103 
Q 3103 6 2833 -42 
Q 2563 -91 2291 -91 
Q 1344 -91 809 395 
Q 275 881 275 1747 
Q 275 2613 809 3098 
Q 1344 3584 2291 3584 
Q 2566 3584 2833 3536 
Q 3100 3488 3366 3391 
z
" transform="scale(0.015625)"/>
      <path id="DejaVuSans-Bold-69" d="M 538 3500 
L 1656 3500 
L 1656 0 
L 538 0 
L 538 3500 
z
M 538 4863 
L 1656 4863 
L 1656 3950 
L 538 3950 
L 538 4863 
z
" transform="scale(0.015625)"/>
      <path id="DejaVuSans-Bold-74" d="M 1759 4494 
L 1759 3500 
L 2913 3500 
L 2913 2700 
L 1759 2700 
L 1759 1216 
Q 1759 972 1856 886 
Q 1953 800 2241 800 
L 2816 800 
L 2816 0 
L 1856 0 
Q 1194 0 917 276 
Q 641 553 641 1216 
L 641 2700 
L 84 2700 
L 84 3500 
L 641 3500 
L 641 4494 
L 1759 4494 
z
" transform="scale(0.015625)"/>
      <path id="DejaVuSans-Bold-73" d="M 3272 3391 
L 3272 2541 
Q 2913 2691 2578 2766 
Q 2244 2841 1947 2841 
Q 1628 2841 1473 2761 
Q 1319 2681 1319 2516 
Q 1319 2381 1436 2309 
Q 1553 2238 1856 2203 
L 2053 2175 
Q 2913 2066 3209 1816 
Q 3506 1566 3506 1031 
Q 3506 472 3093 190 
Q 2681 -91 1863 -91 
Q 1516 -91 1145 -36 
Q 775 19 384 128 
L 384 978 
Q 719 816 1070 734 
Q 1422 653 1784 653 
Q 2113 653 2278 743 
Q 2444 834 2444 1013 
Q 2444 1163 2330 1236 
Q 2216 1309 1875 1350 
L 1678 1375 
Q 931 1469 631 1722 
Q 331 1975 331 2491 
Q 331 3047 712 3315 
Q 1094 3584 1881 3584 
Q 2191 3584 2531 3537 
Q 2872 3491 3272 3391 
z
" transform="scale(0.015625)"/>
      <path id="DejaVuSans-Bold-20" transform="scale(0.015625)"/>
      <path id="DejaVuSans-Bold-61" d="M 2106 1575 
Q 1756 1575 1579 1456 
Q 1403 1338 1403 1106 
Q 1403 894 1545 773 
Q 1688 653 1941 653 
Q 2256 653 2472 879 
Q 2688 1106 2688 1447 
L 2688 1575 
L 2106 1575 
z
M 3816 1997 
L 3816 0 
L 2688 0 
L 2688 519 
Q 2463 200 2181 54 
Q 1900 -91 1497 -91 
Q 953 -91 614 226 
Q 275 544 275 1050 
Q 275 1666 698 1953 
Q 1122 2241 2028 2241 
L 2688 2241 
L 2688 2328 
Q 2688 2594 2478 2717 
Q 2269 2841 1825 2841 
Q 1466 2841 1156 2769 
Q 847 2697 581 2553 
L 581 3406 
Q 941 3494 1303 3539 
Q 1666 3584 2028 3584 
Q 2975 3584 3395 3211 
Q 3816 2838 3816 1997 
z
" transform="scale(0.015625)"/>
      <path id="DejaVuSans-Bold-68" d="M 4056 2131 
L 4056 0 
L 2931 0 
L 2931 347 
L 2931 1625 
Q 2931 2084 2911 2256 
Q 2891 2428 2841 2509 
Q 2775 2619 2662 2680 
Q 2550 2741 2406 2741 
Q 2056 2741 1856 2470 
Q 1656 2200 1656 1722 
L 1656 0 
L 538 0 
L 538 4863 
L 1656 4863 
L 1656 2988 
Q 1909 3294 2193 3439 
Q 2478 3584 2822 3584 
Q 3428 3584 3742 3212 
Q 4056 2841 4056 2131 
z
" transform="scale(0.015625)"/>
      <path id="DejaVuSans-Bold-66" d="M 2841 4863 
L 2841 4128 
L 2222 4128 
Q 1984 4128 1890 4042 
Q 1797 3956 1797 3744 
L 1797 3500 
L 2753 3500 
L 2753 2700 
L 1797 2700 
L 1797 0 
L 678 0 
L 678 2700 
L 122 2700 
L 122 3500 
L 678 3500 
L 678 3744 
Q 678 4316 997 4589 
Q 1316 4863 1984 4863 
L 2841 4863 
z
" transform="scale(0.015625)"/>
      <path id="DejaVuSans-Bold-6e" d="M 4056 2131 
L 4056 0 
L 2931 0 
L 2931 347 
L 2931 1631 
Q 2931 2084 2911 2256 
Q 2891 2428 2841 2509 
Q 2775 2619 2662 2680 
Q 2550 2741 2406 2741 
Q 2056 2741 1856 2470 
Q 1656 2200 1656 1722 
L 1656 0 
L 538 0 
L 538 3500 
L 1656 3500 
L 1656 2988 
Q 1909 3294 2193 3439 
Q 2478 3584 2822 3584 
Q 3428 3584 3742 3212 
Q 4056 2841 4056 2131 
z
" transform="scale(0.015625)"/>
      <path id="DejaVuSans-Bold-6d" d="M 3781 2919 
Q 3994 3244 4286 3414 
Q 4578 3584 4928 3584 
Q 5531 3584 5847 3212 
Q 6163 2841 6163 2131 
L 6163 0 
L 5038 0 
L 5038 1825 
Q 5041 1866 5042 1909 
Q 5044 1953 5044 2034 
Q 5044 2406 4934 2573 
Q 4825 2741 4581 2741 
Q 4263 2741 4089 2478 
Q 3916 2216 3909 1719 
L 3909 0 
L 2784 0 
L 2784 1825 
Q 2784 2406 2684 2573 
Q 2584 2741 2328 2741 
Q 2006 2741 1831 2477 
Q 1656 2213 1656 1722 
L 1656 0 
L 531 0 
L 531 3500 
L 1656 3500 
L 1656 2988 
Q 1863 3284 2130 3434 
Q 2397 3584 2719 3584 
Q 3081 3584 3359 3409 
Q 3638 3234 3781 2919 
z
" transform="scale(0.015625)"/>
     </defs>
     <use xlink:href="#DejaVuSans-Bold-56"/>
     <use xlink:href="#DejaVuSans-Bold-65" transform="translate(71.892578 0)"/>
     <use xlink:href="#DejaVuSans-Bold-6c" transform="translate(139.714844 0)"/>
     <use xlink:href="#DejaVuSans-Bold-6f" transform="translate(173.992188 0)"/>
     <use xlink:href="#DejaVuSans-Bold-63" transform="translate(242.693359 0)"/>
     <use xlink:href="#DejaVuSans-Bold-69" transform="translate(301.970703 0)"/>
     <use xlink:href="#DejaVuSans-Bold-74" transform="translate(336.248047 0)"/>
     <use xlink:href="#DejaVuSans-Bold-69" transform="translate(384.050781 0)"/>
     <use xlink:href="#DejaVuSans-Bold-65" transform="translate(418.328125 0)"/>
     <use xlink:href="#DejaVuSans-Bold-73" transform="translate(486.150391 0)"/>
     <use xlink:href="#DejaVuSans-Bold-20" transform="translate(545.671875 0)"/>
     <use xlink:href="#DejaVuSans-Bold-61" transform="translate(580.486328 0)"/>
     <use xlink:href="#DejaVuSans-Bold-74" transform="translate(647.966797 0)"/>
     <use xlink:href="#DejaVuSans-Bold-20" transform="translate(695.769531 0)"/>
     <use xlink:href="#DejaVuSans-Bold-74" transform="translate(730.583984 0)"/>
     <use xlink:href="#DejaVuSans-Bold-68" transform="translate(778.386719 0)"/>
     <use xlink:href="#DejaVuSans-Bold-65" transform="translate(849.578125 0)"/>
     <use xlink:href="#DejaVuSans-Bold-20" transform="translate(917.400391 0)"/>
     <use xlink:href="#DejaVuSans-Bold-66" transform="translate(952.214844 0)"/>
     <use xlink:href="#DejaVuSans-Bold-69" transform="translate(995.720703 0)"/>
     <use xlink:href="#DejaVuSans-Bold-6e" transform="translate(1029.998047 0)"/>
     <use xlink:href="#DejaVuSans-Bold-61" transform="translate(1101.189453 0)"/>
     <use xlink:href="#DejaVuSans-Bold-6c" transform="translate(1168.669922 0)"/>
     <use xlink:href="#DejaVuSans-Bold-20" transform="translate(1202.947266 0)"/>
     <use xlink:href="#DejaVuSans-Bold-74" transform="translate(1237.761719 0)"/>
     <use xlink:href="#DejaVuSans-Bold-69" transform="translate(1285.564453 0)"/>
     <use xlink:href="#DejaVuSans-Bold-6d" transform="translate(1319.841797 0)"/>
     <use xlink:href="#DejaVuSans-Bold-65" transform="translate(1424.041016 0)"/>
    </g>
   </g>
   <g id="legend_1">
    <g id="patch_7">
     <path d="M 328.266875 78.82825 
L 407.72 78.82825 
Q 409.72 78.82825 409.72 76.82825 
L 409.72 48.472 
Q 409.72 46.472 407.72 46.472 
L 328.266875 46.472 
Q 326.266875 46.472 326.266875 48.472 
L 326.266875 76.82825 
Q 326.266875 78.82825 328.266875 78.82825 
z
" style="fill: #ffffff; opacity: 0.8; stroke: #cccccc; stroke-linejoin: miter"/>
    </g>
    <g id="PathCollection_2">
     <g>
      <use xlink:href="#m13fb46e145" x="340.266875" y="55.445437" style="fill: #0000ff; stroke: #0000ff"/>
     </g>
    </g>
    <g id="text_18">
     <!-- Positions -->
     <g transform="translate(358.266875 58.070437) scale(0.1 -0.1)">
      <defs>
       <path id="DejaVuSans-50" d="M 1259 4147 
L 1259 2394 
L 2053 2394 
Q 2494 2394 2734 2622 
Q 2975 2850 2975 3272 
Q 2975 3691 2734 3919 
Q 2494 4147 2053 4147 
L 1259 4147 
z
M 628 4666 
L 2053 4666 
Q 2838 4666 3239 4311 
Q 3641 3956 3641 3272 
Q 3641 2581 3239 2228 
Q 2838 1875 2053 1875 
L 1259 1875 
L 1259 0 
L 628 0 
L 628 4666 
z
" transform="scale(0.015625)"/>
       <path id="DejaVuSans-6f" d="M 1959 3097 
Q 1497 3097 1228 2736 
Q 959 2375 959 1747 
Q 959 1119 1226 758 
Q 1494 397 1959 397 
Q 2419 397 2687 759 
Q 2956 1122 2956 1747 
Q 2956 2369 2687 2733 
Q 2419 3097 1959 3097 
z
M 1959 3584 
Q 2709 3584 3137 3096 
Q 3566 2609 3566 1747 
Q 3566 888 3137 398 
Q 2709 -91 1959 -91 
Q 1206 -91 779 398 
Q 353 888 353 1747 
Q 353 2609 779 3096 
Q 1206 3584 1959 3584 
z
" transform="scale(0.015625)"/>
       <path id="DejaVuSans-73" d="M 2834 3397 
L 2834 2853 
Q 2591 2978 2328 3040 
Q 2066 3103 1784 3103 
Q 1356 3103 1142 2972 
Q 928 2841 928 2578 
Q 928 2378 1081 2264 
Q 1234 2150 1697 2047 
L 1894 2003 
Q 2506 1872 2764 1633 
Q 3022 1394 3022 966 
Q 3022 478 2636 193 
Q 2250 -91 1575 -91 
Q 1294 -91 989 -36 
Q 684 19 347 128 
L 347 722 
Q 666 556 975 473 
Q 1284 391 1588 391 
Q 1994 391 2212 530 
Q 2431 669 2431 922 
Q 2431 1156 2273 1281 
Q 2116 1406 1581 1522 
L 1381 1569 
Q 847 1681 609 1914 
Q 372 2147 372 2553 
Q 372 3047 722 3315 
Q 1072 3584 1716 3584 
Q 2034 3584 2315 3537 
Q 2597 3491 2834 3397 
z
" transform="scale(0.015625)"/>
       <path id="DejaVuSans-69" d="M 603 3500 
L 1178 3500 
L 1178 0 
L 603 0 
L 603 3500 
z
M 603 4863 
L 1178 4863 
L 1178 4134 
L 603 4134 
L 603 4863 
z
" transform="scale(0.015625)"/>
       <path id="DejaVuSans-74" d="M 1172 4494 
L 1172 3500 
L 2356 3500 
L 2356 3053 
L 1172 3053 
L 1172 1153 
Q 1172 725 1289 603 
Q 1406 481 1766 481 
L 2356 481 
L 2356 0 
L 1766 0 
Q 1100 0 847 248 
Q 594 497 594 1153 
L 594 3053 
L 172 3053 
L 172 3500 
L 594 3500 
L 594 4494 
L 1172 4494 
z
" transform="scale(0.015625)"/>
       <path id="DejaVuSans-6e" d="M 3513 2113 
L 3513 0 
L 2938 0 
L 2938 2094 
Q 2938 2591 2744 2837 
Q 2550 3084 2163 3084 
Q 1697 3084 1428 2787 
Q 1159 2491 1159 1978 
L 1159 0 
L 581 0 
L 581 3500 
L 1159 3500 
L 1159 2956 
Q 1366 3272 1645 3428 
Q 1925 3584 2291 3584 
Q 2894 3584 3203 3211 
Q 3513 2838 3513 2113 
z
" transform="scale(0.015625)"/>
      </defs>
      <use xlink:href="#DejaVuSans-50"/>
      <use xlink:href="#DejaVuSans-6f" transform="translate(56.677734 0)"/>
      <use xlink:href="#DejaVuSans-73" transform="translate(117.859375 0)"/>
      <use xlink:href="#DejaVuSans-69" transform="translate(169.958984 0)"/>
      <use xlink:href="#DejaVuSans-74" transform="translate(197.742188 0)"/>
      <use xlink:href="#DejaVuSans-69" transform="translate(236.951172 0)"/>
      <use xlink:href="#DejaVuSans-6f" transform="translate(264.734375 0)"/>
      <use xlink:href="#DejaVuSans-6e" transform="translate(325.916016 0)"/>
      <use xlink:href="#DejaVuSans-73" transform="translate(389.294922 0)"/>
     </g>
    </g>
    <g id="patch_8">
     <path d="M 330.266875 72.748562 
L 350.266875 72.748562 
L 350.266875 65.748562 
L 330.266875 65.748562 
z
" style="fill: #ff0000"/>
    </g>
    <g id="text_19">
     <!-- Velocities -->
     <g transform="translate(358.266875 72.748562) scale(0.1 -0.1)">
      <defs>
       <path id="DejaVuSans-56" d="M 1831 0 
L 50 4666 
L 709 4666 
L 2188 738 
L 3669 4666 
L 4325 4666 
L 2547 0 
L 1831 0 
z
" transform="scale(0.015625)"/>
       <path id="DejaVuSans-65" d="M 3597 1894 
L 3597 1613 
L 953 1613 
Q 991 1019 1311 708 
Q 1631 397 2203 397 
Q 2534 397 2845 478 
Q 3156 559 3463 722 
L 3463 178 
Q 3153 47 2828 -22 
Q 2503 -91 2169 -91 
Q 1331 -91 842 396 
Q 353 884 353 1716 
Q 353 2575 817 3079 
Q 1281 3584 2069 3584 
Q 2775 3584 3186 3129 
Q 3597 2675 3597 1894 
z
M 3022 2063 
Q 3016 2534 2758 2815 
Q 2500 3097 2075 3097 
Q 1594 3097 1305 2825 
Q 1016 2553 972 2059 
L 3022 2063 
z
" transform="scale(0.015625)"/>
       <path id="DejaVuSans-6c" d="M 603 4863 
L 1178 4863 
L 1178 0 
L 603 0 
L 603 4863 
z
" transform="scale(0.015625)"/>
       <path id="DejaVuSans-63" d="M 3122 3366 
L 3122 2828 
Q 2878 2963 2633 3030 
Q 2388 3097 2138 3097 
Q 1578 3097 1268 2742 
Q 959 2388 959 1747 
Q 959 1106 1268 751 
Q 1578 397 2138 397 
Q 2388 397 2633 464 
Q 2878 531 3122 666 
L 3122 134 
Q 2881 22 2623 -34 
Q 2366 -91 2075 -91 
Q 1284 -91 818 406 
Q 353 903 353 1747 
Q 353 2603 823 3093 
Q 1294 3584 2113 3584 
Q 2378 3584 2631 3529 
Q 2884 3475 3122 3366 
z
" transform="scale(0.015625)"/>
      </defs>
      <use xlink:href="#DejaVuSans-56"/>
      <use xlink:href="#DejaVuSans-65" transform="translate(60.658203 0)"/>
      <use xlink:href="#DejaVuSans-6c" transform="translate(122.181641 0)"/>
      <use xlink:href="#DejaVuSans-6f" transform="translate(149.964844 0)"/>
      <use xlink:href="#DejaVuSans-63" transform="translate(211.146484 0)"/>
      <use xlink:href="#DejaVuSans-69" transform="translate(266.126953 0)"/>
      <use xlink:href="#DejaVuSans-74" transform="translate(293.910156 0)"/>
      <use xlink:href="#DejaVuSans-69" transform="translate(333.119141 0)"/>
      <use xlink:href="#DejaVuSans-65" transform="translate(360.902344 0)"/>
      <use xlink:href="#DejaVuSans-73" transform="translate(422.425781 0)"/>
     </g>
    </g>
   </g>
  </g>
 </g>
 <defs>
  <clipPath id="p57ac66b5f7">
   <rect x="57.6" y="41.472" width="357.12" height="266.112"/>
  </clipPath>
 </defs>
</svg>
