<?xml version="1.0" encoding="utf-8" standalone="no"?>
<!DOCTYPE svg PUBLIC "-//W3C//DTD SVG 1.1//EN"
  "http://www.w3.org/Graphics/SVG/1.1/DTD/svg11.dtd">
<svg xmlns:xlink="http://www.w3.org/1999/xlink" width="460.8pt" height="345.6pt" viewBox="0 0 460.8 345.6" xmlns="http://www.w3.org/2000/svg" version="1.1">
 <metadata>
  <rdf:RDF xmlns:dc="http://purl.org/dc/elements/1.1/" xmlns:cc="http://creativecommons.org/ns#" xmlns:rdf="http://www.w3.org/1999/02/22-rdf-syntax-ns#">
   <cc:Work>
    <dc:type rdf:resource="http://purl.org/dc/dcmitype/StillImage"/>
    <dc:date>2025-05-05T23:20:35.021900</dc:date>
    <dc:format>image/svg+xml</dc:format>
    <dc:creator>
     <cc:Agent>
      <dc:title>Matplotlib v3.10.1, https://matplotlib.org/</dc:title>
     </cc:Agent>
    </dc:creator>
   </cc:Work>
  </rdf:RDF>
 </metadata>
 <defs>
  <style type="text/css">*{stroke-linejoin: round; stroke-linecap: butt}</style>
 </defs>
 <g id="figure_1">
  <g id="patch_1">
   <path d="M 0 345.6 
L 460.8 345.6 
L 460.8 0 
L 0 0 
z
" style="fill: #ffffff"/>
  </g>
  <g id="axes_1">
   <g id="patch_2">
    <path d="M 57.6 307.584 
L 414.72 307.584 
L 414.72 41.472 
L 57.6 41.472 
z
" style="fill: #ffffff"/>
   </g>
   <g id="PathCollection_1">
    <defs>
     <path id="m6978a16119" d="M 0 3 
C 0.795609 3 1.55874 2.683901 2.12132 2.12132 
C 2.683901 1.55874 3 0.795609 3 0 
C 3 -0.795609 2.683901 -1.55874 2.12132 -2.12132 
C 1.55874 -2.683901 0.795609 -3 0 -3 
C -0.795609 -3 -1.55874 -2.683901 -2.12132 -2.12132 
C -2.683901 -1.55874 -3 -0.795609 -3 0 
C -3 0.795609 -2.683901 1.55874 -2.12132 2.12132 
C -1.55874 2.683901 -0.795609 3 0 3 
z
" style="stroke: #0000ff"/>
    </defs>
    <g clip-path="url(#p678768fc8f)">
     <use xlink:href="#m6978a16119" x="261.77545" y="182.267775" style="fill: #0000ff; stroke: #0000ff"/>
     <use xlink:href="#m6978a16119" x="286.164641" y="288.222889" style="fill: #0000ff; stroke: #0000ff"/>
     <use xlink:href="#m6978a16119" x="128.382045" y="201.061086" style="fill: #0000ff; stroke: #0000ff"/>
     <use xlink:href="#m6978a16119" x="193.998216" y="65.775663" style="fill: #0000ff; stroke: #0000ff"/>
     <use xlink:href="#m6978a16119" x="162.841756" y="109.920401" style="fill: #0000ff; stroke: #0000ff"/>
     <use xlink:href="#m6978a16119" x="153.825679" y="62.321688" style="fill: #0000ff; stroke: #0000ff"/>
     <use xlink:href="#m6978a16119" x="147.111956" y="89.373077" style="fill: #0000ff; stroke: #0000ff"/>
     <use xlink:href="#m6978a16119" x="160.852997" y="100.079692" style="fill: #0000ff; stroke: #0000ff"/>
     <use xlink:href="#m6978a16119" x="182.454005" y="167.235075" style="fill: #0000ff; stroke: #0000ff"/>
     <use xlink:href="#m6978a16119" x="360.846324" y="144.170301" style="fill: #0000ff; stroke: #0000ff"/>
     <use xlink:href="#m6978a16119" x="281.136424" y="254.440106" style="fill: #0000ff; stroke: #0000ff"/>
     <use xlink:href="#m6978a16119" x="154.081977" y="215.680999" style="fill: #0000ff; stroke: #0000ff"/>
     <use xlink:href="#m6978a16119" x="251.25895" y="129.387359" style="fill: #0000ff; stroke: #0000ff"/>
     <use xlink:href="#m6978a16119" x="278.401216" y="141.451847" style="fill: #0000ff; stroke: #0000ff"/>
     <use xlink:href="#m6978a16119" x="217.235239" y="108.739658" style="fill: #0000ff; stroke: #0000ff"/>
     <use xlink:href="#m6978a16119" x="265.08048" y="100.348469" style="fill: #0000ff; stroke: #0000ff"/>
     <use xlink:href="#m6978a16119" x="145.046037" y="125.853941" style="fill: #0000ff; stroke: #0000ff"/>
     <use xlink:href="#m6978a16119" x="226.348784" y="270.896965" style="fill: #0000ff; stroke: #0000ff"/>
     <use xlink:href="#m6978a16119" x="201.703723" y="264.558516" style="fill: #0000ff; stroke: #0000ff"/>
     <use xlink:href="#m6978a16119" x="286.395617" y="168.291525" style="fill: #0000ff; stroke: #0000ff"/>
     <use xlink:href="#m6978a16119" x="186.343649" y="107.143141" style="fill: #0000ff; stroke: #0000ff"/>
     <use xlink:href="#m6978a16119" x="224.058264" y="199.048089" style="fill: #0000ff; stroke: #0000ff"/>
     <use xlink:href="#m6978a16119" x="166.840792" y="133.207498" style="fill: #0000ff; stroke: #0000ff"/>
     <use xlink:href="#m6978a16119" x="151.398826" y="177.263303" style="fill: #0000ff; stroke: #0000ff"/>
     <use xlink:href="#m6978a16119" x="253.317379" y="252.270037" style="fill: #0000ff; stroke: #0000ff"/>
     <use xlink:href="#m6978a16119" x="296.54452" y="225.551213" style="fill: #0000ff; stroke: #0000ff"/>
     <use xlink:href="#m6978a16119" x="194.2023" y="236.594286" style="fill: #0000ff; stroke: #0000ff"/>
     <use xlink:href="#m6978a16119" x="226.417416" y="99.928574" style="fill: #0000ff; stroke: #0000ff"/>
     <use xlink:href="#m6978a16119" x="223.120527" y="191.880728" style="fill: #0000ff; stroke: #0000ff"/>
     <use xlink:href="#m6978a16119" x="203.815337" y="155.733887" style="fill: #0000ff; stroke: #0000ff"/>
     <use xlink:href="#m6978a16119" x="308.640081" y="124.157752" style="fill: #0000ff; stroke: #0000ff"/>
     <use xlink:href="#m6978a16119" x="184.671572" y="154.300601" style="fill: #0000ff; stroke: #0000ff"/>
     <use xlink:href="#m6978a16119" x="175.364321" y="177.801709" style="fill: #0000ff; stroke: #0000ff"/>
     <use xlink:href="#m6978a16119" x="165.63174" y="185.4214" style="fill: #0000ff; stroke: #0000ff"/>
     <use xlink:href="#m6978a16119" x="162.314274" y="245.523333" style="fill: #0000ff; stroke: #0000ff"/>
     <use xlink:href="#m6978a16119" x="299.682228" y="153.112487" style="fill: #0000ff; stroke: #0000ff"/>
     <use xlink:href="#m6978a16119" x="222.721132" y="53.568" style="fill: #0000ff; stroke: #0000ff"/>
     <use xlink:href="#m6978a16119" x="313.823511" y="173.548265" style="fill: #0000ff; stroke: #0000ff"/>
     <use xlink:href="#m6978a16119" x="176.522221" y="123.439042" style="fill: #0000ff; stroke: #0000ff"/>
     <use xlink:href="#m6978a16119" x="280.291219" y="107.82569" style="fill: #0000ff; stroke: #0000ff"/>
     <use xlink:href="#m6978a16119" x="152.912969" y="195.861404" style="fill: #0000ff; stroke: #0000ff"/>
     <use xlink:href="#m6978a16119" x="192.38078" y="277.804667" style="fill: #0000ff; stroke: #0000ff"/>
     <use xlink:href="#m6978a16119" x="276.518962" y="234.272317" style="fill: #0000ff; stroke: #0000ff"/>
     <use xlink:href="#m6978a16119" x="161.582594" y="162.428437" style="fill: #0000ff; stroke: #0000ff"/>
     <use xlink:href="#m6978a16119" x="122.8177" y="120.930687" style="fill: #0000ff; stroke: #0000ff"/>
     <use xlink:href="#m6978a16119" x="111.473676" y="175.744638" style="fill: #0000ff; stroke: #0000ff"/>
     <use xlink:href="#m6978a16119" x="298.321145" y="192.483675" style="fill: #0000ff; stroke: #0000ff"/>
     <use xlink:href="#m6978a16119" x="305.236373" y="251.910034" style="fill: #0000ff; stroke: #0000ff"/>
     <use xlink:href="#m6978a16119" x="165.677046" y="142.234018" style="fill: #0000ff; stroke: #0000ff"/>
     <use xlink:href="#m6978a16119" x="225.946491" y="117.466703" style="fill: #0000ff; stroke: #0000ff"/>
     <use xlink:href="#m6978a16119" x="163.702125" y="211.081703" style="fill: #0000ff; stroke: #0000ff"/>
     <use xlink:href="#m6978a16119" x="192.449212" y="252.523582" style="fill: #0000ff; stroke: #0000ff"/>
     <use xlink:href="#m6978a16119" x="281.964822" y="108.47291" style="fill: #0000ff; stroke: #0000ff"/>
     <use xlink:href="#m6978a16119" x="282.194736" y="186.277833" style="fill: #0000ff; stroke: #0000ff"/>
     <use xlink:href="#m6978a16119" x="240.806383" y="95.946189" style="fill: #0000ff; stroke: #0000ff"/>
     <use xlink:href="#m6978a16119" x="187.123738" y="110.175599" style="fill: #0000ff; stroke: #0000ff"/>
     <use xlink:href="#m6978a16119" x="129.386972" y="189.912713" style="fill: #0000ff; stroke: #0000ff"/>
     <use xlink:href="#m6978a16119" x="319.431031" y="137.214922" style="fill: #0000ff; stroke: #0000ff"/>
     <use xlink:href="#m6978a16119" x="314.479651" y="199.566797" style="fill: #0000ff; stroke: #0000ff"/>
     <use xlink:href="#m6978a16119" x="273.589955" y="74.093135" style="fill: #0000ff; stroke: #0000ff"/>
     <use xlink:href="#m6978a16119" x="210.410744" y="58.441333" style="fill: #0000ff; stroke: #0000ff"/>
     <use xlink:href="#m6978a16119" x="222.91745" y="127.161623" style="fill: #0000ff; stroke: #0000ff"/>
     <use xlink:href="#m6978a16119" x="273.583669" y="218.837473" style="fill: #0000ff; stroke: #0000ff"/>
     <use xlink:href="#m6978a16119" x="315.013862" y="227.359357" style="fill: #0000ff; stroke: #0000ff"/>
     <use xlink:href="#m6978a16119" x="241.90944" y="206.464616" style="fill: #0000ff; stroke: #0000ff"/>
     <use xlink:href="#m6978a16119" x="192.679597" y="98.214073" style="fill: #0000ff; stroke: #0000ff"/>
     <use xlink:href="#m6978a16119" x="173.740821" y="135.933817" style="fill: #0000ff; stroke: #0000ff"/>
     <use xlink:href="#m6978a16119" x="281.56994" y="212.649976" style="fill: #0000ff; stroke: #0000ff"/>
     <use xlink:href="#m6978a16119" x="270.021839" y="199.994309" style="fill: #0000ff; stroke: #0000ff"/>
     <use xlink:href="#m6978a16119" x="148.498999" y="175.50744" style="fill: #0000ff; stroke: #0000ff"/>
     <use xlink:href="#m6978a16119" x="200.580616" y="216.274668" style="fill: #0000ff; stroke: #0000ff"/>
     <use xlink:href="#m6978a16119" x="272.458189" y="277.437523" style="fill: #0000ff; stroke: #0000ff"/>
     <use xlink:href="#m6978a16119" x="129.529971" y="150.782646" style="fill: #0000ff; stroke: #0000ff"/>
     <use xlink:href="#m6978a16119" x="184.523632" y="204.586041" style="fill: #0000ff; stroke: #0000ff"/>
     <use xlink:href="#m6978a16119" x="232.188201" y="79.537915" style="fill: #0000ff; stroke: #0000ff"/>
     <use xlink:href="#m6978a16119" x="237.754317" y="192.342693" style="fill: #0000ff; stroke: #0000ff"/>
     <use xlink:href="#m6978a16119" x="239.356582" y="295.488" style="fill: #0000ff; stroke: #0000ff"/>
     <use xlink:href="#m6978a16119" x="290.222076" y="147.988845" style="fill: #0000ff; stroke: #0000ff"/>
     <use xlink:href="#m6978a16119" x="251.368311" y="60.987518" style="fill: #0000ff; stroke: #0000ff"/>
     <use xlink:href="#m6978a16119" x="158.521613" y="261.675247" style="fill: #0000ff; stroke: #0000ff"/>
     <use xlink:href="#m6978a16119" x="293.824166" y="83.611078" style="fill: #0000ff; stroke: #0000ff"/>
     <use xlink:href="#m6978a16119" x="214.043943" y="140.747544" style="fill: #0000ff; stroke: #0000ff"/>
     <use xlink:href="#m6978a16119" x="233.159538" y="234.471385" style="fill: #0000ff; stroke: #0000ff"/>
     <use xlink:href="#m6978a16119" x="303.444293" y="104.1795" style="fill: #0000ff; stroke: #0000ff"/>
     <use xlink:href="#m6978a16119" x="235.987132" y="267.462026" style="fill: #0000ff; stroke: #0000ff"/>
     <use xlink:href="#m6978a16119" x="238.270154" y="217.753514" style="fill: #0000ff; stroke: #0000ff"/>
     <use xlink:href="#m6978a16119" x="335.196912" y="214.06018" style="fill: #0000ff; stroke: #0000ff"/>
     <use xlink:href="#m6978a16119" x="239.268896" y="170.395368" style="fill: #0000ff; stroke: #0000ff"/>
     <use xlink:href="#m6978a16119" x="334.588076" y="186.334732" style="fill: #0000ff; stroke: #0000ff"/>
     <use xlink:href="#m6978a16119" x="312.854433" y="160.677351" style="fill: #0000ff; stroke: #0000ff"/>
     <use xlink:href="#m6978a16119" x="282.409334" y="132.768672" style="fill: #0000ff; stroke: #0000ff"/>
     <use xlink:href="#m6978a16119" x="177.45763" y="206.704297" style="fill: #0000ff; stroke: #0000ff"/>
     <use xlink:href="#m6978a16119" x="166.226517" y="237.550987" style="fill: #0000ff; stroke: #0000ff"/>
     <use xlink:href="#m6978a16119" x="189.954243" y="292.505169" style="fill: #0000ff; stroke: #0000ff"/>
     <use xlink:href="#m6978a16119" x="276.717917" y="209.822592" style="fill: #0000ff; stroke: #0000ff"/>
     <use xlink:href="#m6978a16119" x="320.761025" y="180.857518" style="fill: #0000ff; stroke: #0000ff"/>
     <use xlink:href="#m6978a16119" x="244.412564" y="259.063464" style="fill: #0000ff; stroke: #0000ff"/>
     <use xlink:href="#m6978a16119" x="335.784955" y="208.440016" style="fill: #0000ff; stroke: #0000ff"/>
     <use xlink:href="#m6978a16119" x="152.321708" y="92.132469" style="fill: #0000ff; stroke: #0000ff"/>
     <use xlink:href="#m6978a16119" x="186.226789" y="135.688462" style="fill: #0000ff; stroke: #0000ff"/>
    </g>
   </g>
   <g id="Quiver_1">
    <path d="M 260.780585 182.665337 
L 256.210237 171.228455 
L 254.61807 173.018445 
L 253.627036 161.877109 
L 260.587259 170.633069 
L 258.199966 170.433329 
L 262.770315 181.870212 
L 260.780585 182.665337 
" clip-path="url(#p678768fc8f)" style="fill: #ff0000"/>
    <path d="M 286.573398 289.213207 
L 278.040659 292.735129 
L 279.848493 294.307007 
L 268.719041 295.42363 
L 277.395947 288.3651 
L 277.223144 290.754493 
L 285.755883 287.232571 
L 286.573398 289.213207 
" clip-path="url(#p678768fc8f)" style="fill: #ff0000"/>
    <path d="M 129.451188 200.992204 
L 130.157622 211.95704 
L 132.227027 210.750133 
L 129.708415 221.648212 
L 125.812166 211.163424 
L 128.019335 212.094804 
L 127.312902 201.129968 
L 129.451188 200.992204 
" clip-path="url(#p678768fc8f)" style="fill: #ff0000"/>
    <path d="M 193.382999 64.898554 
L 197.785138 61.810832 
L 195.677596 60.67183 
L 206.294338 57.15099 
L 199.368896 65.934486 
L 199.015572 63.56505 
L 194.613433 66.652773 
L 193.382999 64.898554 
" clip-path="url(#p678768fc8f)" style="fill: #ff0000"/>
    <path d="M 163.538392 110.734349 
L 156.650356 116.62963 
L 158.857575 117.56089 
L 148.62819 122.085402 
L 154.677761 112.677203 
L 155.257085 115.001734 
L 162.145121 109.106453 
L 163.538392 110.734349 
" clip-path="url(#p678768fc8f)" style="fill: #ff0000"/>
    <path d="M 153.136377 61.50152 
L 161.181567 54.740017 
L 158.982795 53.788983 
L 169.252378 49.356466 
L 163.118608 58.709989 
L 162.560171 56.380352 
L 154.514981 63.141856 
L 153.136377 61.50152 
" clip-path="url(#p678768fc8f)" style="fill: #ff0000"/>
    <path d="M 146.319599 88.651978 
L 152.894477 81.427387 
L 150.588666 80.777545 
L 160.176725 75.01728 
L 155.342803 85.10414 
L 154.47919 82.869585 
L 147.904312 90.094176 
L 146.319599 88.651978 
" clip-path="url(#p678768fc8f)" style="fill: #ff0000"/>
    <path d="M 160.146023 99.274707 
L 165.594041 94.490009 
L 163.375109 93.587014 
L 173.545875 88.932227 
L 167.616953 98.416921 
L 167.007989 96.099978 
L 161.559971 100.884676 
L 160.146023 99.274707 
" clip-path="url(#p678768fc8f)" style="fill: #ff0000"/>
    <path d="M 181.429992 166.920101 
L 184.533732 156.829532 
L 182.170731 157.223597 
L 188.392516 147.928386 
L 188.314811 159.113443 
L 186.581759 157.459481 
L 183.478019 167.55005 
L 181.429992 166.920101 
" clip-path="url(#p678768fc8f)" style="fill: #ff0000"/>
    <path d="M 359.831129 144.512632 
L 356.955831 135.985835 
L 355.267772 137.685693 
L 354.890046 126.506746 
L 361.358944 135.631706 
L 358.986222 135.301173 
L 361.86152 143.82797 
L 359.831129 144.512632 
" clip-path="url(#p678768fc8f)" style="fill: #ff0000"/>
    <path d="M 281.766577 255.306546 
L 275.56102 259.819783 
L 277.687767 260.922511 
L 267.132902 264.624721 
L 273.906848 255.723868 
L 274.300714 258.086902 
L 280.506271 253.573665 
L 281.766577 255.306546 
" clip-path="url(#p678768fc8f)" style="fill: #ff0000"/>
    <path d="M 153.081246 216.063557 
L 149.038486 205.488125 
L 147.419582 207.253971 
L 146.596196 196.098992 
L 153.423966 204.958624 
L 151.039947 204.723009 
L 155.082707 215.298441 
L 153.081246 216.063557 
" clip-path="url(#p678768fc8f)" style="fill: #ff0000"/>
    <path d="M 251.100967 128.327711 
L 262.101087 126.687706 
L 260.725474 124.726392 
L 271.795901 126.32551 
L 261.67337 131.08428 
L 262.417053 128.807001 
L 251.416933 130.447007 
L 251.100967 128.327711 
" clip-path="url(#p678768fc8f)" style="fill: #ff0000"/>
    <path d="M 277.783365 142.327102 
L 267.366006 134.973377 
L 267.005557 137.341739 
L 260.106563 128.537455 
L 270.712669 132.090209 
L 268.60171 133.222867 
L 279.019068 140.576592 
L 277.783365 142.327102 
" clip-path="url(#p678768fc8f)" style="fill: #ff0000"/>
    <path d="M 217.12443 109.805272 
L 208.142662 108.871294 
L 208.986658 111.113331 
L 198.662943 106.808399 
L 209.651512 104.719646 
L 208.36428 106.740066 
L 217.346048 107.674044 
L 217.12443 109.805272 
" clip-path="url(#p678768fc8f)" style="fill: #ff0000"/>
    <path d="M 265.465171 99.348556 
L 275.449305 103.1897 
L 275.218775 100.805184 
L 284.063826 107.651832 
L 272.910628 106.804659 
L 274.679923 105.189525 
L 264.695789 101.348381 
L 265.465171 99.348556 
" clip-path="url(#p678768fc8f)" style="fill: #ff0000"/>
    <path d="M 144.059011 125.437297 
L 147.515747 117.248313 
L 145.125051 117.402052 
L 152.252565 108.781723 
L 151.047207 119.901914 
L 149.489799 118.081601 
L 146.033063 126.270585 
L 144.059011 125.437297 
" clip-path="url(#p678768fc8f)" style="fill: #ff0000"/>
    <path d="M 226.142591 271.948295 
L 215.154788 269.793302 
L 215.793733 272.102157 
L 205.899004 266.886232 
L 217.030892 265.794172 
L 215.567175 267.690641 
L 226.554977 269.845634 
L 226.142591 271.948295 
" clip-path="url(#p678768fc8f)" style="fill: #ff0000"/>
    <path d="M 202.152847 263.58584 
L 210.648897 267.508814 
L 210.574469 265.114336 
L 218.95386 272.523611 
L 207.879722 270.950395 
L 209.750647 269.454166 
L 201.254598 265.531193 
L 202.152847 263.58584 
" clip-path="url(#p678768fc8f)" style="fill: #ff0000"/>
    <path d="M 287.410101 168.63596 
L 284.547335 177.067815 
L 286.920737 176.742202 
L 280.432934 185.85373 
L 280.833837 174.67559 
L 282.518368 176.378944 
L 285.381134 167.947089 
L 287.410101 168.63596 
" clip-path="url(#p678768fc8f)" style="fill: #ff0000"/>
    <path d="M 185.643872 106.331892 
L 194.151491 98.993282 
L 191.940688 98.070562 
L 202.152505 93.506537 
L 196.13935 102.938054 
L 195.551045 100.61578 
L 187.043426 107.954389 
L 185.643872 106.331892 
" clip-path="url(#p678768fc8f)" style="fill: #ff0000"/>
    <path d="M 223.995444 200.117606 
L 209.706682 199.278332 
L 210.650559 201.480185 
L 200.143851 197.643438 
L 211.027477 195.063085 
L 209.832321 197.139299 
L 224.121083 197.978572 
L 223.995444 200.117606 
" clip-path="url(#p678768fc8f)" style="fill: #ff0000"/>
    <path d="M 167.715827 133.825661 
L 165.731284 136.634859 
L 168.099518 136.996152 
L 159.292777 143.89201 
L 162.849309 133.28717 
L 163.981215 135.398532 
L 165.965757 132.589334 
L 167.715827 133.825661 
" clip-path="url(#p678768fc8f)" style="fill: #ff0000"/>
    <path d="M 152.459943 177.411094 
L 151.103677 187.148871 
L 153.373703 186.383336 
L 148.712439 196.551136 
L 147.006999 185.496589 
L 148.981442 186.853288 
L 150.337709 177.115512 
L 152.459943 177.411094 
" clip-path="url(#p678768fc8f)" style="fill: #ff0000"/>
    <path d="M 253.622942 253.296898 
L 242.007283 256.753374 
L 243.64527 258.501532 
L 232.459972 258.476584 
L 241.81189 252.340367 
L 241.396156 254.699652 
L 253.011815 251.243176 
L 253.622942 253.296898 
" clip-path="url(#p678768fc8f)" style="fill: #ff0000"/>
    <path d="M 295.6623 224.943348 
L 302.412111 215.147049 
L 300.039805 214.813541 
L 308.765111 207.814929 
L 305.333129 218.460728 
L 304.176552 216.362778 
L 297.426741 226.159077 
L 295.6623 224.943348 
" clip-path="url(#p678768fc8f)" style="fill: #ff0000"/>
    <path d="M 193.575414 237.463093 
L 184.132431 230.649526 
L 183.747466 233.014026 
L 176.940053 224.138742 
L 187.508784 227.801183 
L 185.386204 228.911912 
L 194.829187 235.725479 
L 193.575414 237.463093 
" clip-path="url(#p678768fc8f)" style="fill: #ff0000"/>
    <path d="M 226.145754 98.892229 
L 237.695158 95.864721 
L 236.115487 94.063693 
L 247.293929 94.456101 
L 237.745464 100.281765 
L 238.238484 97.937412 
L 226.689079 100.96492 
L 226.145754 98.892229 
" clip-path="url(#p678768fc8f)" style="fill: #ff0000"/>
    <path d="M 223.731077 191.000364 
L 235.695487 199.297914 
L 236.036222 196.926636 
L 243.008216 205.673226 
L 232.372924 202.208822 
L 234.474387 201.058643 
L 222.509977 192.761092 
L 223.731077 191.000364 
" clip-path="url(#p678768fc8f)" style="fill: #ff0000"/>
    <path d="M 203.693058 154.669528 
L 210.227494 153.918824 
L 208.918579 151.912384 
L 219.929004 153.882679 
L 209.652248 158.298539 
L 210.472051 156.047542 
L 203.937615 156.798246 
L 203.693058 154.669528 
" clip-path="url(#p678768fc8f)" style="fill: #ff0000"/>
    <path d="M 309.662727 123.838365 
L 313.22958 135.259096 
L 314.955485 133.597677 
L 315.081413 144.782295 
L 308.81961 135.513996 
L 311.184289 135.897869 
L 307.617435 124.477138 
L 309.662727 123.838365 
" clip-path="url(#p678768fc8f)" style="fill: #ff0000"/>
    <path d="M 183.718672 153.810914 
L 189.185113 143.173555 
L 186.789626 143.147082 
L 194.545195 135.087138 
L 192.507028 146.085202 
L 191.090914 144.152928 
L 185.624472 154.790288 
L 183.718672 153.810914 
" clip-path="url(#p678768fc8f)" style="fill: #ff0000"/>
    <path d="M 176.404441 177.544877 
L 179.398876 189.671767 
L 181.222284 188.117983 
L 180.670243 199.289679 
L 174.981564 189.658974 
L 177.318636 190.185431 
L 174.324201 178.058541 
L 176.404441 177.544877 
" clip-path="url(#p678768fc8f)" style="fill: #ff0000"/>
    <path d="M 164.801123 186.098073 
L 162.769695 183.604491 
L 161.785133 185.788455 
L 157.510254 175.45226 
L 166.768839 181.728416 
L 164.43093 182.251145 
L 166.462358 184.744726 
L 164.801123 186.098073 
" clip-path="url(#p678768fc8f)" style="fill: #ff0000"/>
    <path d="M 163.203149 244.925241 
L 168.815335 253.26598 
L 169.994992 251.180922 
L 173.309288 261.863945 
L 164.661744 254.769474 
L 167.037585 254.462164 
L 161.4254 246.121425 
L 163.203149 244.925241 
" clip-path="url(#p678768fc8f)" style="fill: #ff0000"/>
    <path d="M 300.748996 153.211574 
L 299.983051 161.457675 
L 302.215674 160.589082 
L 298.024494 170.959499 
L 295.815066 159.994556 
L 297.849515 161.259499 
L 298.61546 153.013399 
L 300.748996 153.211574 
" clip-path="url(#p678768fc8f)" style="fill: #ff0000"/>
    <path d="M 222.634025 52.500187 
L 233.224656 51.636252 
L 231.982628 49.587733 
L 242.92208 51.9201 
L 232.505272 55.994611 
L 233.398871 53.771878 
L 222.808239 54.635813 
L 222.634025 52.500187 
" clip-path="url(#p678768fc8f)" style="fill: #ff0000"/>
    <path d="M 314.890875 173.640705 
L 314.166727 182.002131 
L 316.393896 181.119646 
L 312.267403 191.515972 
L 309.989709 180.565006 
L 312.031998 181.817251 
L 312.756146 173.455825 
L 314.890875 173.640705 
" clip-path="url(#p678768fc8f)" style="fill: #ff0000"/>
    <path d="M 175.652622 122.813254 
L 182.039576 113.937906 
L 179.674591 113.555929 
L 188.541266 106.737307 
L 184.892182 117.310657 
L 183.778773 115.189482 
L 177.39182 124.06483 
L 175.652622 122.813254 
" clip-path="url(#p678768fc8f)" style="fill: #ff0000"/>
    <path d="M 279.598585 108.643046 
L 270.739841 101.136075 
L 270.171929 103.46342 
L 264.076273 94.085014 
L 274.327732 98.559286 
L 272.125109 99.501363 
L 280.983853 107.008335 
L 279.598585 108.643046 
" clip-path="url(#p678768fc8f)" style="fill: #ff0000"/>
    <path d="M 151.863924 196.078931 
L 149.546817 184.904415 
L 147.666253 186.388511 
L 148.638126 175.245487 
L 153.960521 185.083355 
L 151.644906 184.469362 
L 153.962014 195.643878 
L 151.863924 196.078931 
" clip-path="url(#p678768fc8f)" style="fill: #ff0000"/>
    <path d="M 192.011054 278.810209 
L 182.477093 275.304683 
L 182.743183 277.685493 
L 173.79694 270.971606 
L 184.961539 271.65224 
L 183.216545 273.293599 
L 192.750506 276.799125 
L 192.011054 278.810209 
" clip-path="url(#p678768fc8f)" style="fill: #ff0000"/>
    <path d="M 277.060131 235.196951 
L 269.924392 239.373346 
L 271.931364 240.681446 
L 261.061514 243.319229 
L 268.684352 235.133639 
L 268.842055 237.524077 
L 275.977794 233.347683 
L 277.060131 235.196951 
" clip-path="url(#p678768fc8f)" style="fill: #ff0000"/>
    <path d="M 160.513296 162.494878 
L 159.962813 153.635461 
L 157.890658 154.837641 
L 160.434139 143.945339 
L 164.306445 154.438994 
L 162.101408 153.502578 
L 162.651892 162.361995 
L 160.513296 162.494878 
" clip-path="url(#p678768fc8f)" style="fill: #ff0000"/>
    <path d="M 121.833534 120.507333 
L 125.501065 111.981464 
L 123.109379 112.118922 
L 130.295419 103.54732 
L 129.014377 114.659047 
L 127.469398 112.828172 
L 123.801867 121.354041 
L 121.833534 120.507333 
" clip-path="url(#p678768fc8f)" style="fill: #ff0000"/>
    <path d="M 110.402531 175.723181 
L 110.639073 163.914555 
L 108.475326 164.942787 
L 111.903326 154.295705 
L 114.902197 165.071526 
L 112.781363 163.957468 
L 112.544821 175.766094 
L 110.402531 175.723181 
" clip-path="url(#p678768fc8f)" style="fill: #ff0000"/>
    <path d="M 299.345789 192.796592 
L 295.914455 204.032457 
L 298.27666 203.633647 
L 292.073557 212.941335 
L 292.128797 201.756144 
L 293.865168 203.406622 
L 297.296502 192.170758 
L 299.345789 192.796592 
" clip-path="url(#p678768fc8f)" style="fill: #ff0000"/>
    <path d="M 305.878011 252.768004 
L 298.993735 257.916454 
L 301.134982 258.990756 
L 290.630368 262.83323 
L 297.285152 253.842936 
L 297.710459 256.200515 
L 304.594734 251.052064 
L 305.878011 252.768004 
" clip-path="url(#p678768fc8f)" style="fill: #ff0000"/>
    <path d="M 164.612581 142.112666 
L 165.640473 133.096291 
L 163.390191 133.918052 
L 167.797105 123.637457 
L 169.776981 134.646164 
L 167.769403 133.338995 
L 166.741511 142.35537 
L 164.612581 142.112666 
" clip-path="url(#p678768fc8f)" style="fill: #ff0000"/>
    <path d="M 225.844943 116.400166 
L 238.211782 115.222679 
L 236.942149 113.191155 
L 247.91216 115.37528 
L 237.55144 119.590374 
L 238.414879 117.355752 
L 226.048039 118.533239 
L 225.844943 116.400166 
" clip-path="url(#p678768fc8f)" style="fill: #ff0000"/>
    <path d="M 163.04661 211.929119 
L 158.616845 208.502493 
L 158.153231 210.852839 
L 151.64562 201.755448 
L 162.086318 205.768346 
L 159.927874 206.807662 
L 164.357639 210.234288 
L 163.04661 211.929119 
" clip-path="url(#p678768fc8f)" style="fill: #ff0000"/>
    <path d="M 191.847942 253.41031 
L 182.193103 246.863588 
L 181.877291 249.238314 
L 174.813818 240.565432 
L 185.48491 243.917945 
L 183.395642 245.090131 
L 193.050482 251.636853 
L 191.847942 253.41031 
" clip-path="url(#p678768fc8f)" style="fill: #ff0000"/>
    <path d="M 282.719415 107.712383 
L 289.932178 114.868864 
L 290.680836 112.593217 
L 296.02233 122.420728 
L 286.153279 117.156381 
L 288.422992 116.389919 
L 281.210229 109.233438 
L 282.719415 107.712383 
" clip-path="url(#p678768fc8f)" style="fill: #ff0000"/>
    <path d="M 283.195 186.661609 
L 279.437023 196.456284 
L 281.821328 196.223574 
L 274.982769 205.074882 
L 275.819745 193.920914 
L 277.436496 195.688731 
L 281.194473 185.894056 
L 283.195 186.661609 
" clip-path="url(#p678768fc8f)" style="fill: #ff0000"/>
    <path d="M 240.427196 96.948202 
L 229.957597 92.98624 
L 230.201236 95.369452 
L 221.31867 88.571544 
L 232.476358 89.357376 
L 230.715971 90.982215 
L 241.18557 94.944176 
L 240.427196 96.948202 
" clip-path="url(#p678768fc8f)" style="fill: #ff0000"/>
    <path d="M 187.612105 111.129177 
L 179.923432 115.066872 
L 181.853743 116.485659 
L 170.852869 118.508599 
L 178.92354 110.764195 
L 178.946697 113.159717 
L 186.635371 109.222022 
L 187.612105 111.129177 
" clip-path="url(#p678768fc8f)" style="fill: #ff0000"/>
    <path d="M 128.328177 190.076317 
L 126.858291 180.563661 
L 124.904306 181.949663 
L 126.444651 170.870906 
L 131.257074 180.96804 
L 128.975881 180.236453 
L 130.445766 189.749109 
L 128.328177 190.076317 
" clip-path="url(#p678768fc8f)" style="fill: #ff0000"/>
    <path d="M 320.476885 136.982539 
L 323.123151 148.892201 
L 324.982475 147.38158 
L 324.168747 158.537268 
L 318.707352 148.77588 
L 321.031443 149.356967 
L 318.385177 137.447306 
L 320.476885 136.982539 
" clip-path="url(#p678768fc8f)" style="fill: #ff0000"/>
    <path d="M 315.507175 199.870121 
L 311.667901 212.875866 
L 314.026274 212.454989 
L 307.910465 221.820265 
L 307.861126 210.635048 
L 309.612852 212.269219 
L 313.452126 199.263474 
L 315.507175 199.870121 
" clip-path="url(#p678768fc8f)" style="fill: #ff0000"/>
    <path d="M 274.294778 73.286267 
L 283.481711 81.311315 
L 284.084488 78.992755 
L 290.038706 88.461589 
L 279.855551 83.833967 
L 282.072065 82.925052 
L 272.885132 74.900004 
L 274.294778 73.286267 
" clip-path="url(#p678768fc8f)" style="fill: #ff0000"/>
    <path d="M 210.028921 57.440321 
L 218.246066 54.306004 
L 216.481411 52.685803 
L 227.636992 51.870616 
L 218.772344 58.691872 
L 219.009711 56.308027 
L 210.792566 59.442344 
L 210.028921 57.440321 
" clip-path="url(#p678768fc8f)" style="fill: #ff0000"/>
    <path d="M 223.050039 126.0985 
L 233.298657 127.37667 
L 232.500711 125.117833 
L 242.734184 129.633094 
L 231.705178 131.496576 
L 233.03348 129.502917 
L 222.784861 128.224747 
L 223.050039 126.0985 
" clip-path="url(#p678768fc8f)" style="fill: #ff0000"/>
    <path d="M 272.780697 218.128214 
L 279.30506 210.741799 
L 276.989857 210.126253 
L 286.491362 204.22431 
L 281.807689 214.381807 
L 280.911004 212.160317 
L 274.386641 219.546732 
L 272.780697 218.128214 
" clip-path="url(#p678768fc8f)" style="fill: #ff0000"/>
    <path d="M 315.982192 227.817776 
L 311.093577 238.144135 
L 313.488658 238.092642 
L 305.999478 246.400693 
L 307.678673 235.342129 
L 309.156916 237.227297 
L 314.045531 226.900938 
L 315.982192 227.817776 
" clip-path="url(#p678768fc8f)" style="fill: #ff0000"/>
    <path d="M 242.230057 207.486876 
L 232.474925 210.546431 
L 234.138421 212.270336 
L 222.953962 212.409726 
L 232.214717 206.136772 
L 231.833691 208.50191 
L 241.588823 205.442355 
L 242.230057 207.486876 
" clip-path="url(#p678768fc8f)" style="fill: #ff0000"/>
    <path d="M 193.369768 99.033509 
L 183.406143 107.425399 
L 185.605922 108.374099 
L 175.341049 112.817511 
L 181.464891 103.457485 
L 182.025799 105.786528 
L 191.989425 97.394637 
L 193.369768 99.033509 
" clip-path="url(#p678768fc8f)" style="fill: #ff0000"/>
    <path d="M 172.813669 135.396974 
L 177.261623 127.715163 
L 174.870475 127.568628 
L 183.020366 119.907636 
L 180.433388 130.789689 
L 179.115927 128.78885 
L 174.667974 136.470661 
L 172.813669 135.396974 
" clip-path="url(#p678768fc8f)" style="fill: #ff0000"/>
    <path d="M 282.316144 213.418735 
L 274.786593 220.727373 
L 277.047761 221.518688 
L 267.121553 226.674454 
L 272.570535 216.906131 
L 273.294184 219.189854 
L 280.823735 211.881216 
L 282.316144 213.418735 
" clip-path="url(#p678768fc8f)" style="fill: #ff0000"/>
    <path d="M 270.896217 199.375216 
L 272.424844 201.534178 
L 273.554507 199.421615 
L 277.122301 210.022671 
L 268.308241 203.136172 
L 270.676089 202.772364 
L 269.147462 200.613402 
L 270.896217 199.375216 
" clip-path="url(#p678768fc8f)" style="fill: #ff0000"/>
    <path d="M 147.427679 175.516707 
L 147.332743 164.541873 
L 145.199371 165.631727 
L 148.320658 154.890726 
L 151.62729 165.576123 
L 149.475383 164.523338 
L 149.570319 175.498173 
L 147.427679 175.516707 
" clip-path="url(#p678768fc8f)" style="fill: #ff0000"/>
    <path d="M 200.746938 217.333039 
L 189.890584 219.03911 
L 191.2816 220.98953 
L 180.198923 219.477641 
L 190.283665 214.639304 
L 189.557939 216.922368 
L 200.414293 215.216298 
L 200.746938 217.333039 
" clip-path="url(#p678768fc8f)" style="fill: #ff0000"/>
    <path d="M 272.88249 278.421281 
L 264.272517 282.134814 
L 266.104878 283.67803 
L 254.994389 284.969765 
L 263.559072 277.775479 
L 263.423915 280.167297 
L 272.033888 276.453764 
L 272.88249 278.421281 
" clip-path="url(#p678768fc8f)" style="fill: #ff0000"/>
    <path d="M 128.461715 150.701157 
L 129.355114 138.989399 
L 127.137112 139.894678 
L 131.156772 129.45658 
L 133.546651 140.383612 
L 131.491627 139.152377 
L 130.598227 150.864135 
L 128.461715 150.701157 
" clip-path="url(#p678768fc8f)" style="fill: #ff0000"/>
    <path d="M 184.312336 205.636358 
L 178.69327 204.50595 
L 179.320995 206.817881 
L 169.451711 201.553968 
L 180.588772 200.515978 
L 179.115862 202.405316 
L 184.734928 203.535723 
L 184.312336 205.636358 
" clip-path="url(#p678768fc8f)" style="fill: #ff0000"/>
    <path d="M 231.85002 78.521329 
L 242.882251 74.851307 
L 241.189304 73.156318 
L 252.369701 72.824264 
L 243.21839 79.25583 
L 243.558613 76.884478 
L 232.526382 80.5545 
L 231.85002 78.521329 
" clip-path="url(#p678768fc8f)" style="fill: #ff0000"/>
    <path d="M 238.57258 191.651131 
L 246.760889 201.339622 
L 247.705853 199.138236 
L 252.166683 209.395552 
L 242.796275 203.287607 
L 245.124363 202.722746 
L 236.936054 193.034255 
L 238.57258 191.651131 
" clip-path="url(#p678768fc8f)" style="fill: #ff0000"/>
    <path d="M 239.20003 296.54786 
L 229.317601 295.088127 
L 230.064358 297.364399 
L 219.935411 292.6193 
L 231.003669 291.005238 
L 229.630705 292.968407 
L 239.513134 294.42814 
L 239.20003 296.54786 
" clip-path="url(#p678768fc8f)" style="fill: #ff0000"/>
    <path d="M 291.183644 147.516405 
L 294.090912 153.433628 
L 295.541607 151.52718 
L 297.381306 162.560178 
L 289.7722 154.361822 
L 292.167776 154.378509 
L 289.260509 148.461286 
L 291.183644 147.516405 
" clip-path="url(#p678768fc8f)" style="fill: #ff0000"/>
    <path d="M 251.71454 59.973645 
L 262.987655 63.823315 
L 262.66624 61.44934 
L 271.766282 67.953245 
L 260.588868 67.532577 
L 262.295198 65.85106 
L 251.022083 62.001391 
L 251.71454 59.973645 
" clip-path="url(#p678768fc8f)" style="fill: #ff0000"/>
    <path d="M 157.865592 262.52227 
L 148.282625 255.100238 
L 147.817605 257.450306 
L 141.315439 248.349022 
L 151.753734 252.368167 
L 149.594668 253.406192 
L 159.177635 260.828224 
L 157.865592 262.52227 
" clip-path="url(#p678768fc8f)" style="fill: #ff0000"/>
    <path d="M 294.679929 82.9665 
L 302.342487 93.13957 
L 303.409436 90.99465 
L 307.287927 101.486021 
L 298.274855 94.862119 
L 300.63096 94.428726 
L 292.968402 84.255656 
L 294.679929 82.9665 
" clip-path="url(#p678768fc8f)" style="fill: #ff0000"/>
    <path d="M 213.994582 139.677322 
L 227.498846 139.05448 
L 226.329902 136.963396 
L 237.180207 139.680456 
L 226.626066 143.384729 
L 227.597567 141.194924 
L 214.093304 141.817766 
L 213.994582 139.677322 
" clip-path="url(#p678768fc8f)" style="fill: #ff0000"/>
    <path d="M 233.366271 235.522609 
L 219.777893 238.19489 
L 221.242584 240.090607 
L 210.110137 239.004264 
L 220.002185 233.783258 
L 219.364427 236.092441 
L 232.952805 233.42016 
L 233.366271 235.522609 
" clip-path="url(#p678768fc8f)" style="fill: #ff0000"/>
    <path d="M 304.242207 103.464556 
L 310.690792 110.661512 
L 311.571678 108.43371 
L 316.327373 118.557686 
L 306.784191 112.723373 
L 309.094964 112.0914 
L 302.646378 104.894444 
L 304.242207 103.464556 
" clip-path="url(#p678768fc8f)" style="fill: #ff0000"/>
    <path d="M 236.12807 268.524075 
L 224.938129 270.009026 
L 226.282054 271.992186 
L 215.238747 270.21542 
L 225.436425 265.61989 
L 224.656252 267.884927 
L 235.846194 266.399977 
L 236.12807 268.524075 
" clip-path="url(#p678768fc8f)" style="fill: #ff0000"/>
    <path d="M 238.993456 216.963167 
L 246.914895 224.212632 
L 247.571152 221.908638 
L 253.304711 231.51269 
L 243.231343 226.650716 
L 245.468293 225.793325 
L 237.546853 218.54386 
L 238.993456 216.963167 
" clip-path="url(#p678768fc8f)" style="fill: #ff0000"/>
    <path d="M 336.249376 214.260509 
L 333.662152 227.852984 
L 335.967408 227.201177 
L 330.80673 237.124832 
L 329.652624 225.999205 
L 331.557223 227.452326 
L 334.144448 213.859852 
L 336.249376 214.260509 
" clip-path="url(#p678768fc8f)" style="fill: #ff0000"/>
    <path d="M 238.524719 171.16609 
L 227.594182 160.612016 
L 226.876549 162.897637 
L 221.401861 153.143699 
L 231.341613 158.273305 
L 229.082536 159.070572 
L 240.013074 169.624646 
L 238.524719 171.16609 
" clip-path="url(#p678768fc8f)" style="fill: #ff0000"/>
    <path d="M 335.649431 186.480808 
L 334.157264 197.322522 
L 336.42605 196.55332 
L 331.781222 206.728639 
L 330.057922 195.676862 
L 332.034555 197.030369 
L 333.526722 186.188655 
L 335.649431 186.480808 
" clip-path="url(#p678768fc8f)" style="fill: #ff0000"/>
    <path d="M 313.924925 160.720463 
L 313.554596 169.915906 
L 315.738693 168.931638 
L 312.096095 179.507224 
L 309.315739 168.672965 
L 311.413612 169.829682 
L 311.783941 160.634239 
L 313.924925 160.720463 
" clip-path="url(#p678768fc8f)" style="fill: #ff0000"/>
    <path d="M 283.224205 132.073117 
L 288.512265 138.268302 
L 289.446453 136.062321 
L 293.957386 146.297702 
L 284.557223 140.235649 
L 286.882521 139.659412 
L 281.594462 133.464227 
L 283.224205 132.073117 
" clip-path="url(#p678768fc8f)" style="fill: #ff0000"/>
    <path d="M 177.145323 207.729127 
L 171.828431 206.108857 
L 172.228647 208.470824 
L 162.917267 202.273265 
L 174.102488 202.321844 
L 172.453044 204.059197 
L 177.769937 205.679467 
L 177.145323 207.729127 
" clip-path="url(#p678768fc8f)" style="fill: #ff0000"/>
    <path d="M 165.470954 238.310551 
L 156.587958 229.474338 
L 155.836395 231.749028 
L 150.50745 221.914706 
L 160.369774 227.191647 
L 158.099084 227.955211 
L 166.98208 236.791424 
L 165.470954 238.310551 
" clip-path="url(#p678768fc8f)" style="fill: #ff0000"/>
    <path d="M 189.50142 293.476129 
L 179.376093 288.754021 
L 179.441408 291.148765 
L 171.090273 283.707656 
L 182.158344 285.323003 
L 180.281738 286.812101 
L 190.407066 291.534209 
L 189.50142 293.476129 
" clip-path="url(#p678768fc8f)" style="fill: #ff0000"/>
    <path d="M 275.649527 209.742867 
L 275.864934 206.856219 
L 273.64843 207.765159 
L 277.65085 197.320439 
L 280.058767 208.24351 
L 278.001713 207.01567 
L 277.786306 209.902317 
L 275.649527 209.742867 
" clip-path="url(#p678768fc8f)" style="fill: #ff0000"/>
    <path d="M 321.828948 180.943268 
L 320.919396 192.270711 
L 323.140992 191.374288 
L 319.079721 201.796266 
L 316.733455 190.859787 
L 318.783551 192.09921 
L 319.693103 180.771767 
L 321.828948 180.943268 
" clip-path="url(#p678768fc8f)" style="fill: #ff0000"/>
    <path d="M 243.918961 258.112587 
L 255.959357 251.862384 
L 254.021273 250.454232 
L 265.010858 248.370832 
L 256.982892 256.159497 
L 256.946563 253.764139 
L 244.906167 260.014342 
L 243.918961 258.112587 
" clip-path="url(#p678768fc8f)" style="fill: #ff0000"/>
    <path d="M 336.832589 208.664236 
L 334.544721 219.353956 
L 336.86421 218.754762 
L 331.479108 228.558445 
L 330.578404 217.409442 
L 332.449453 218.905516 
L 334.73732 208.215796 
L 336.832589 208.664236 
" clip-path="url(#p678768fc8f)" style="fill: #ff0000"/>
    <path d="M 151.4327 91.534575 
L 156.123156 84.560333 
L 153.747246 84.253554 
L 162.393206 77.157152 
L 159.081295 87.840915 
L 157.901172 85.75612 
L 153.210716 92.730362 
L 151.4327 91.534575 
" clip-path="url(#p678768fc8f)" style="fill: #ff0000"/>
    <path d="M 185.72875 134.7399 
L 190.815265 132.069246 
L 188.870625 130.670161 
L 199.85036 128.535459 
L 191.858858 136.361532 
L 191.811342 133.96637 
L 186.724828 136.637024 
L 185.72875 134.7399 
" clip-path="url(#p678768fc8f)" style="fill: #ff0000"/>
   </g>
   <g id="matplotlib.axis_1">
    <g id="xtick_1">
     <g id="line2d_1">
      <defs>
       <path id="m5ace4f4c93" d="M 0 0 
L 0 3.5 
" style="stroke: #000000; stroke-width: 0.8"/>
      </defs>
      <g>
       <use xlink:href="#m5ace4f4c93" x="58.961364" y="307.584" style="stroke: #000000; stroke-width: 0.8"/>
      </g>
     </g>
     <g id="text_1">
      <!-- −2.0 -->
      <g transform="translate(44.391677 323.702125) scale(0.12 -0.12)">
       <defs>
        <path id="DejaVuSans-2212" d="M 678 2272 
L 4684 2272 
L 4684 1741 
L 678 1741 
L 678 2272 
z
" transform="scale(0.015625)"/>
        <path id="DejaVuSans-32" d="M 1228 531 
L 3431 531 
L 3431 0 
L 469 0 
L 469 531 
Q 828 903 1448 1529 
Q 2069 2156 2228 2338 
Q 2531 2678 2651 2914 
Q 2772 3150 2772 3378 
Q 2772 3750 2511 3984 
Q 2250 4219 1831 4219 
Q 1534 4219 1204 4116 
Q 875 4013 500 3803 
L 500 4441 
Q 881 4594 1212 4672 
Q 1544 4750 1819 4750 
Q 2544 4750 2975 4387 
Q 3406 4025 3406 3419 
Q 3406 3131 3298 2873 
Q 3191 2616 2906 2266 
Q 2828 2175 2409 1742 
Q 1991 1309 1228 531 
z
" transform="scale(0.015625)"/>
        <path id="DejaVuSans-2e" d="M 684 794 
L 1344 794 
L 1344 0 
L 684 0 
L 684 794 
z
" transform="scale(0.015625)"/>
        <path id="DejaVuSans-30" d="M 2034 4250 
Q 1547 4250 1301 3770 
Q 1056 3291 1056 2328 
Q 1056 1369 1301 889 
Q 1547 409 2034 409 
Q 2525 409 2770 889 
Q 3016 1369 3016 2328 
Q 3016 3291 2770 3770 
Q 2525 4250 2034 4250 
z
M 2034 4750 
Q 2819 4750 3233 4129 
Q 3647 3509 3647 2328 
Q 3647 1150 3233 529 
Q 2819 -91 2034 -91 
Q 1250 -91 836 529 
Q 422 1150 422 2328 
Q 422 3509 836 4129 
Q 1250 4750 2034 4750 
z
" transform="scale(0.015625)"/>
       </defs>
       <use xlink:href="#DejaVuSans-2212"/>
       <use xlink:href="#DejaVuSans-32" transform="translate(83.789062 0)"/>
       <use xlink:href="#DejaVuSans-2e" transform="translate(147.412109 0)"/>
       <use xlink:href="#DejaVuSans-30" transform="translate(179.199219 0)"/>
      </g>
     </g>
    </g>
    <g id="xtick_2">
     <g id="line2d_2">
      <g>
       <use xlink:href="#m5ace4f4c93" x="100.586342" y="307.584" style="stroke: #000000; stroke-width: 0.8"/>
      </g>
     </g>
     <g id="text_2">
      <!-- −1.5 -->
      <g transform="translate(86.016655 323.702125) scale(0.12 -0.12)">
       <defs>
        <path id="DejaVuSans-31" d="M 794 531 
L 1825 531 
L 1825 4091 
L 703 3866 
L 703 4441 
L 1819 4666 
L 2450 4666 
L 2450 531 
L 3481 531 
L 3481 0 
L 794 0 
L 794 531 
z
" transform="scale(0.015625)"/>
        <path id="DejaVuSans-35" d="M 691 4666 
L 3169 4666 
L 3169 4134 
L 1269 4134 
L 1269 2991 
Q 1406 3038 1543 3061 
Q 1681 3084 1819 3084 
Q 2600 3084 3056 2656 
Q 3513 2228 3513 1497 
Q 3513 744 3044 326 
Q 2575 -91 1722 -91 
Q 1428 -91 1123 -41 
Q 819 9 494 109 
L 494 744 
Q 775 591 1075 516 
Q 1375 441 1709 441 
Q 2250 441 2565 725 
Q 2881 1009 2881 1497 
Q 2881 1984 2565 2268 
Q 2250 2553 1709 2553 
Q 1456 2553 1204 2497 
Q 953 2441 691 2322 
L 691 4666 
z
" transform="scale(0.015625)"/>
       </defs>
       <use xlink:href="#DejaVuSans-2212"/>
       <use xlink:href="#DejaVuSans-31" transform="translate(83.789062 0)"/>
       <use xlink:href="#DejaVuSans-2e" transform="translate(147.412109 0)"/>
       <use xlink:href="#DejaVuSans-35" transform="translate(179.199219 0)"/>
      </g>
     </g>
    </g>
    <g id="xtick_3">
     <g id="line2d_3">
      <g>
       <use xlink:href="#m5ace4f4c93" x="142.21132" y="307.584" style="stroke: #000000; stroke-width: 0.8"/>
      </g>
     </g>
     <g id="text_3">
      <!-- −1.0 -->
      <g transform="translate(127.641632 323.702125) scale(0.12 -0.12)">
       <use xlink:href="#DejaVuSans-2212"/>
       <use xlink:href="#DejaVuSans-31" transform="translate(83.789062 0)"/>
       <use xlink:href="#DejaVuSans-2e" transform="translate(147.412109 0)"/>
       <use xlink:href="#DejaVuSans-30" transform="translate(179.199219 0)"/>
      </g>
     </g>
    </g>
    <g id="xtick_4">
     <g id="line2d_4">
      <g>
       <use xlink:href="#m5ace4f4c93" x="183.836297" y="307.584" style="stroke: #000000; stroke-width: 0.8"/>
      </g>
     </g>
     <g id="text_4">
      <!-- −0.5 -->
      <g transform="translate(169.26661 323.702125) scale(0.12 -0.12)">
       <use xlink:href="#DejaVuSans-2212"/>
       <use xlink:href="#DejaVuSans-30" transform="translate(83.789062 0)"/>
       <use xlink:href="#DejaVuSans-2e" transform="translate(147.412109 0)"/>
       <use xlink:href="#DejaVuSans-35" transform="translate(179.199219 0)"/>
      </g>
     </g>
    </g>
    <g id="xtick_5">
     <g id="line2d_5">
      <g>
       <use xlink:href="#m5ace4f4c93" x="225.461275" y="307.584" style="stroke: #000000; stroke-width: 0.8"/>
      </g>
     </g>
     <g id="text_5">
      <!-- 0.0 -->
      <g transform="translate(215.9194 323.702125) scale(0.12 -0.12)">
       <use xlink:href="#DejaVuSans-30"/>
       <use xlink:href="#DejaVuSans-2e" transform="translate(63.623047 0)"/>
       <use xlink:href="#DejaVuSans-30" transform="translate(95.410156 0)"/>
      </g>
     </g>
    </g>
    <g id="xtick_6">
     <g id="line2d_6">
      <g>
       <use xlink:href="#m5ace4f4c93" x="267.086253" y="307.584" style="stroke: #000000; stroke-width: 0.8"/>
      </g>
     </g>
     <g id="text_6">
      <!-- 0.5 -->
      <g transform="translate(257.544378 323.702125) scale(0.12 -0.12)">
       <use xlink:href="#DejaVuSans-30"/>
       <use xlink:href="#DejaVuSans-2e" transform="translate(63.623047 0)"/>
       <use xlink:href="#DejaVuSans-35" transform="translate(95.410156 0)"/>
      </g>
     </g>
    </g>
    <g id="xtick_7">
     <g id="line2d_7">
      <g>
       <use xlink:href="#m5ace4f4c93" x="308.71123" y="307.584" style="stroke: #000000; stroke-width: 0.8"/>
      </g>
     </g>
     <g id="text_7">
      <!-- 1.0 -->
      <g transform="translate(299.169355 323.702125) scale(0.12 -0.12)">
       <use xlink:href="#DejaVuSans-31"/>
       <use xlink:href="#DejaVuSans-2e" transform="translate(63.623047 0)"/>
       <use xlink:href="#DejaVuSans-30" transform="translate(95.410156 0)"/>
      </g>
     </g>
    </g>
    <g id="xtick_8">
     <g id="line2d_8">
      <g>
       <use xlink:href="#m5ace4f4c93" x="350.336208" y="307.584" style="stroke: #000000; stroke-width: 0.8"/>
      </g>
     </g>
     <g id="text_8">
      <!-- 1.5 -->
      <g transform="translate(340.794333 323.702125) scale(0.12 -0.12)">
       <use xlink:href="#DejaVuSans-31"/>
       <use xlink:href="#DejaVuSans-2e" transform="translate(63.623047 0)"/>
       <use xlink:href="#DejaVuSans-35" transform="translate(95.410156 0)"/>
      </g>
     </g>
    </g>
    <g id="xtick_9">
     <g id="line2d_9">
      <g>
       <use xlink:href="#m5ace4f4c93" x="391.961186" y="307.584" style="stroke: #000000; stroke-width: 0.8"/>
      </g>
     </g>
     <g id="text_9">
      <!-- 2.0 -->
      <g transform="translate(382.419311 323.702125) scale(0.12 -0.12)">
       <use xlink:href="#DejaVuSans-32"/>
       <use xlink:href="#DejaVuSans-2e" transform="translate(63.623047 0)"/>
       <use xlink:href="#DejaVuSans-30" transform="translate(95.410156 0)"/>
      </g>
     </g>
    </g>
    <g id="text_10">
     <!-- x -->
     <g transform="translate(232.016875 340.835562) scale(0.14 -0.14)">
      <defs>
       <path id="DejaVuSans-78" d="M 3513 3500 
L 2247 1797 
L 3578 0 
L 2900 0 
L 1881 1375 
L 863 0 
L 184 0 
L 1544 1831 
L 300 3500 
L 978 3500 
L 1906 2253 
L 2834 3500 
L 3513 3500 
z
" transform="scale(0.015625)"/>
      </defs>
      <use xlink:href="#DejaVuSans-78"/>
     </g>
    </g>
   </g>
   <g id="matplotlib.axis_2">
    <g id="ytick_1">
     <g id="line2d_10">
      <defs>
       <path id="m3051f4cab2" d="M 0 0 
L -3.5 0 
" style="stroke: #000000; stroke-width: 0.8"/>
      </defs>
      <g>
       <use xlink:href="#m3051f4cab2" x="57.6" y="271.068313" style="stroke: #000000; stroke-width: 0.8"/>
      </g>
     </g>
     <g id="text_11">
      <!-- −1.0 -->
      <g transform="translate(21.460625 275.627376) scale(0.12 -0.12)">
       <use xlink:href="#DejaVuSans-2212"/>
       <use xlink:href="#DejaVuSans-31" transform="translate(83.789062 0)"/>
       <use xlink:href="#DejaVuSans-2e" transform="translate(147.412109 0)"/>
       <use xlink:href="#DejaVuSans-30" transform="translate(179.199219 0)"/>
      </g>
     </g>
    </g>
    <g id="ytick_2">
     <g id="line2d_11">
      <g>
       <use xlink:href="#m3051f4cab2" x="57.6" y="229.443336" style="stroke: #000000; stroke-width: 0.8"/>
      </g>
     </g>
     <g id="text_12">
      <!-- −0.5 -->
      <g transform="translate(21.460625 234.002398) scale(0.12 -0.12)">
       <use xlink:href="#DejaVuSans-2212"/>
       <use xlink:href="#DejaVuSans-30" transform="translate(83.789062 0)"/>
       <use xlink:href="#DejaVuSans-2e" transform="translate(147.412109 0)"/>
       <use xlink:href="#DejaVuSans-35" transform="translate(179.199219 0)"/>
      </g>
     </g>
    </g>
    <g id="ytick_3">
     <g id="line2d_12">
      <g>
       <use xlink:href="#m3051f4cab2" x="57.6" y="187.818358" style="stroke: #000000; stroke-width: 0.8"/>
      </g>
     </g>
     <g id="text_13">
      <!-- 0.0 -->
      <g transform="translate(31.51625 192.377421) scale(0.12 -0.12)">
       <use xlink:href="#DejaVuSans-30"/>
       <use xlink:href="#DejaVuSans-2e" transform="translate(63.623047 0)"/>
       <use xlink:href="#DejaVuSans-30" transform="translate(95.410156 0)"/>
      </g>
     </g>
    </g>
    <g id="ytick_4">
     <g id="line2d_13">
      <g>
       <use xlink:href="#m3051f4cab2" x="57.6" y="146.19338" style="stroke: #000000; stroke-width: 0.8"/>
      </g>
     </g>
     <g id="text_14">
      <!-- 0.5 -->
      <g transform="translate(31.51625 150.752443) scale(0.12 -0.12)">
       <use xlink:href="#DejaVuSans-30"/>
       <use xlink:href="#DejaVuSans-2e" transform="translate(63.623047 0)"/>
       <use xlink:href="#DejaVuSans-35" transform="translate(95.410156 0)"/>
      </g>
     </g>
    </g>
    <g id="ytick_5">
     <g id="line2d_14">
      <g>
       <use xlink:href="#m3051f4cab2" x="57.6" y="104.568403" style="stroke: #000000; stroke-width: 0.8"/>
      </g>
     </g>
     <g id="text_15">
      <!-- 1.0 -->
      <g transform="translate(31.51625 109.127465) scale(0.12 -0.12)">
       <use xlink:href="#DejaVuSans-31"/>
       <use xlink:href="#DejaVuSans-2e" transform="translate(63.623047 0)"/>
       <use xlink:href="#DejaVuSans-30" transform="translate(95.410156 0)"/>
      </g>
     </g>
    </g>
    <g id="ytick_6">
     <g id="line2d_15">
      <g>
       <use xlink:href="#m3051f4cab2" x="57.6" y="62.943425" style="stroke: #000000; stroke-width: 0.8"/>
      </g>
     </g>
     <g id="text_16">
      <!-- 1.5 -->
      <g transform="translate(31.51625 67.502488) scale(0.12 -0.12)">
       <use xlink:href="#DejaVuSans-31"/>
       <use xlink:href="#DejaVuSans-2e" transform="translate(63.623047 0)"/>
       <use xlink:href="#DejaVuSans-35" transform="translate(95.410156 0)"/>
      </g>
     </g>
    </g>
    <g id="text_17">
     <!-- y -->
     <g transform="translate(14.549063 178.671125) rotate(-90) scale(0.14 -0.14)">
      <defs>
       <path id="DejaVuSans-79" d="M 2059 -325 
Q 1816 -950 1584 -1140 
Q 1353 -1331 966 -1331 
L 506 -1331 
L 506 -850 
L 844 -850 
Q 1081 -850 1212 -737 
Q 1344 -625 1503 -206 
L 1606 56 
L 191 3500 
L 800 3500 
L 1894 763 
L 2988 3500 
L 3597 3500 
L 2059 -325 
z
" transform="scale(0.015625)"/>
      </defs>
      <use xlink:href="#DejaVuSans-79"/>
     </g>
    </g>
   </g>
   <g id="patch_3">
    <path d="M 57.6 307.584 
L 57.6 41.472 
" style="fill: none; stroke: #000000; stroke-width: 0.8; stroke-linejoin: miter; stroke-linecap: square"/>
   </g>
   <g id="patch_4">
    <path d="M 414.72 307.584 
L 414.72 41.472 
" style="fill: none; stroke: #000000; stroke-width: 0.8; stroke-linejoin: miter; stroke-linecap: square"/>
   </g>
   <g id="patch_5">
    <path d="M 57.6 307.584 
L 414.72 307.584 
" style="fill: none; stroke: #000000; stroke-width: 0.8; stroke-linejoin: miter; stroke-linecap: square"/>
   </g>
   <g id="patch_6">
    <path d="M 57.6 41.472 
L 414.72 41.472 
" style="fill: none; stroke: #000000; stroke-width: 0.8; stroke-linejoin: miter; stroke-linecap: square"/>
   </g>
   <g id="text_18">
    <!-- Velocities at the final time -->
    <g transform="translate(116.81 35.472) scale(0.16 -0.16)">
     <defs>
      <path id="DejaVuSans-Bold-56" d="M 31 4666 
L 1241 4666 
L 2478 1222 
L 3713 4666 
L 4922 4666 
L 3194 0 
L 1759 0 
L 31 4666 
z
" transform="scale(0.015625)"/>
      <path id="DejaVuSans-Bold-65" d="M 4031 1759 
L 4031 1441 
L 1416 1441 
Q 1456 1047 1700 850 
Q 1944 653 2381 653 
Q 2734 653 3104 758 
Q 3475 863 3866 1075 
L 3866 213 
Q 3469 63 3072 -14 
Q 2675 -91 2278 -91 
Q 1328 -91 801 392 
Q 275 875 275 1747 
Q 275 2603 792 3093 
Q 1309 3584 2216 3584 
Q 3041 3584 3536 3087 
Q 4031 2591 4031 1759 
z
M 2881 2131 
Q 2881 2450 2695 2645 
Q 2509 2841 2209 2841 
Q 1884 2841 1681 2658 
Q 1478 2475 1428 2131 
L 2881 2131 
z
" transform="scale(0.015625)"/>
      <path id="DejaVuSans-Bold-6c" d="M 538 4863 
L 1656 4863 
L 1656 0 
L 538 0 
L 538 4863 
z
" transform="scale(0.015625)"/>
      <path id="DejaVuSans-Bold-6f" d="M 2203 2784 
Q 1831 2784 1636 2517 
Q 1441 2250 1441 1747 
Q 1441 1244 1636 976 
Q 1831 709 2203 709 
Q 2569 709 2762 976 
Q 2956 1244 2956 1747 
Q 2956 2250 2762 2517 
Q 2569 2784 2203 2784 
z
M 2203 3584 
Q 3106 3584 3614 3096 
Q 4122 2609 4122 1747 
Q 4122 884 3614 396 
Q 3106 -91 2203 -91 
Q 1297 -91 786 396 
Q 275 884 275 1747 
Q 275 2609 786 3096 
Q 1297 3584 2203 3584 
z
" transform="scale(0.015625)"/>
      <path id="DejaVuSans-Bold-63" d="M 3366 3391 
L 3366 2478 
Q 3138 2634 2908 2709 
Q 2678 2784 2431 2784 
Q 1963 2784 1702 2511 
Q 1441 2238 1441 1747 
Q 1441 1256 1702 982 
Q 1963 709 2431 709 
Q 2694 709 2930 787 
Q 3166 866 3366 1019 
L 3366 103 
Q 3103 6 2833 -42 
Q 2563 -91 2291 -91 
Q 1344 -91 809 395 
Q 275 881 275 1747 
Q 275 2613 809 3098 
Q 1344 3584 2291 3584 
Q 2566 3584 2833 3536 
Q 3100 3488 3366 3391 
z
" transform="scale(0.015625)"/>
      <path id="DejaVuSans-Bold-69" d="M 538 3500 
L 1656 3500 
L 1656 0 
L 538 0 
L 538 3500 
z
M 538 4863 
L 1656 4863 
L 1656 3950 
L 538 3950 
L 538 4863 
z
" transform="scale(0.015625)"/>
      <path id="DejaVuSans-Bold-74" d="M 1759 4494 
L 1759 3500 
L 2913 3500 
L 2913 2700 
L 1759 2700 
L 1759 1216 
Q 1759 972 1856 886 
Q 1953 800 2241 800 
L 2816 800 
L 2816 0 
L 1856 0 
Q 1194 0 917 276 
Q 641 553 641 1216 
L 641 2700 
L 84 2700 
L 84 3500 
L 641 3500 
L 641 4494 
L 1759 4494 
z
" transform="scale(0.015625)"/>
      <path id="DejaVuSans-Bold-73" d="M 3272 3391 
L 3272 2541 
Q 2913 2691 2578 2766 
Q 2244 2841 1947 2841 
Q 1628 2841 1473 2761 
Q 1319 2681 1319 2516 
Q 1319 2381 1436 2309 
Q 1553 2238 1856 2203 
L 2053 2175 
Q 2913 2066 3209 1816 
Q 3506 1566 3506 1031 
Q 3506 472 3093 190 
Q 2681 -91 1863 -91 
Q 1516 -91 1145 -36 
Q 775 19 384 128 
L 384 978 
Q 719 816 1070 734 
Q 1422 653 1784 653 
Q 2113 653 2278 743 
Q 2444 834 2444 1013 
Q 2444 1163 2330 1236 
Q 2216 1309 1875 1350 
L 1678 1375 
Q 931 1469 631 1722 
Q 331 1975 331 2491 
Q 331 3047 712 3315 
Q 1094 3584 1881 3584 
Q 2191 3584 2531 3537 
Q 2872 3491 3272 3391 
z
" transform="scale(0.015625)"/>
      <path id="DejaVuSans-Bold-20" transform="scale(0.015625)"/>
      <path id="DejaVuSans-Bold-61" d="M 2106 1575 
Q 1756 1575 1579 1456 
Q 1403 1338 1403 1106 
Q 1403 894 1545 773 
Q 1688 653 1941 653 
Q 2256 653 2472 879 
Q 2688 1106 2688 1447 
L 2688 1575 
L 2106 1575 
z
M 3816 1997 
L 3816 0 
L 2688 0 
L 2688 519 
Q 2463 200 2181 54 
Q 1900 -91 1497 -91 
Q 953 -91 614 226 
Q 275 544 275 1050 
Q 275 1666 698 1953 
Q 1122 2241 2028 2241 
L 2688 2241 
L 2688 2328 
Q 2688 2594 2478 2717 
Q 2269 2841 1825 2841 
Q 1466 2841 1156 2769 
Q 847 2697 581 2553 
L 581 3406 
Q 941 3494 1303 3539 
Q 1666 3584 2028 3584 
Q 2975 3584 3395 3211 
Q 3816 2838 3816 1997 
z
" transform="scale(0.015625)"/>
      <path id="DejaVuSans-Bold-68" d="M 4056 2131 
L 4056 0 
L 2931 0 
L 2931 347 
L 2931 1625 
Q 2931 2084 2911 2256 
Q 2891 2428 2841 2509 
Q 2775 2619 2662 2680 
Q 2550 2741 2406 2741 
Q 2056 2741 1856 2470 
Q 1656 2200 1656 1722 
L 1656 0 
L 538 0 
L 538 4863 
L 1656 4863 
L 1656 2988 
Q 1909 3294 2193 3439 
Q 2478 3584 2822 3584 
Q 3428 3584 3742 3212 
Q 4056 2841 4056 2131 
z
" transform="scale(0.015625)"/>
      <path id="DejaVuSans-Bold-66" d="M 2841 4863 
L 2841 4128 
L 2222 4128 
Q 1984 4128 1890 4042 
Q 1797 3956 1797 3744 
L 1797 3500 
L 2753 3500 
L 2753 2700 
L 1797 2700 
L 1797 0 
L 678 0 
L 678 2700 
L 122 2700 
L 122 3500 
L 678 3500 
L 678 3744 
Q 678 4316 997 4589 
Q 1316 4863 1984 4863 
L 2841 4863 
z
" transform="scale(0.015625)"/>
      <path id="DejaVuSans-Bold-6e" d="M 4056 2131 
L 4056 0 
L 2931 0 
L 2931 347 
L 2931 1631 
Q 2931 2084 2911 2256 
Q 2891 2428 2841 2509 
Q 2775 2619 2662 2680 
Q 2550 2741 2406 2741 
Q 2056 2741 1856 2470 
Q 1656 2200 1656 1722 
L 1656 0 
L 538 0 
L 538 3500 
L 1656 3500 
L 1656 2988 
Q 1909 3294 2193 3439 
Q 2478 3584 2822 3584 
Q 3428 3584 3742 3212 
Q 4056 2841 4056 2131 
z
" transform="scale(0.015625)"/>
      <path id="DejaVuSans-Bold-6d" d="M 3781 2919 
Q 3994 3244 4286 3414 
Q 4578 3584 4928 3584 
Q 5531 3584 5847 3212 
Q 6163 2841 6163 2131 
L 6163 0 
L 5038 0 
L 5038 1825 
Q 5041 1866 5042 1909 
Q 5044 1953 5044 2034 
Q 5044 2406 4934 2573 
Q 4825 2741 4581 2741 
Q 4263 2741 4089 2478 
Q 3916 2216 3909 1719 
L 3909 0 
L 2784 0 
L 2784 1825 
Q 2784 2406 2684 2573 
Q 2584 2741 2328 2741 
Q 2006 2741 1831 2477 
Q 1656 2213 1656 1722 
L 1656 0 
L 531 0 
L 531 3500 
L 1656 3500 
L 1656 2988 
Q 1863 3284 2130 3434 
Q 2397 3584 2719 3584 
Q 3081 3584 3359 3409 
Q 3638 3234 3781 2919 
z
" transform="scale(0.015625)"/>
     </defs>
     <use xlink:href="#DejaVuSans-Bold-56"/>
     <use xlink:href="#DejaVuSans-Bold-65" transform="translate(71.892578 0)"/>
     <use xlink:href="#DejaVuSans-Bold-6c" transform="translate(139.714844 0)"/>
     <use xlink:href="#DejaVuSans-Bold-6f" transform="translate(173.992188 0)"/>
     <use xlink:href="#DejaVuSans-Bold-63" transform="translate(242.693359 0)"/>
     <use xlink:href="#DejaVuSans-Bold-69" transform="translate(301.970703 0)"/>
     <use xlink:href="#DejaVuSans-Bold-74" transform="translate(336.248047 0)"/>
     <use xlink:href="#DejaVuSans-Bold-69" transform="translate(384.050781 0)"/>
     <use xlink:href="#DejaVuSans-Bold-65" transform="translate(418.328125 0)"/>
     <use xlink:href="#DejaVuSans-Bold-73" transform="translate(486.150391 0)"/>
     <use xlink:href="#DejaVuSans-Bold-20" transform="translate(545.671875 0)"/>
     <use xlink:href="#DejaVuSans-Bold-61" transform="translate(580.486328 0)"/>
     <use xlink:href="#DejaVuSans-Bold-74" transform="translate(647.966797 0)"/>
     <use xlink:href="#DejaVuSans-Bold-20" transform="translate(695.769531 0)"/>
     <use xlink:href="#DejaVuSans-Bold-74" transform="translate(730.583984 0)"/>
     <use xlink:href="#DejaVuSans-Bold-68" transform="translate(778.386719 0)"/>
     <use xlink:href="#DejaVuSans-Bold-65" transform="translate(849.578125 0)"/>
     <use xlink:href="#DejaVuSans-Bold-20" transform="translate(917.400391 0)"/>
     <use xlink:href="#DejaVuSans-Bold-66" transform="translate(952.214844 0)"/>
     <use xlink:href="#DejaVuSans-Bold-69" transform="translate(995.720703 0)"/>
     <use xlink:href="#DejaVuSans-Bold-6e" transform="translate(1029.998047 0)"/>
     <use xlink:href="#DejaVuSans-Bold-61" transform="translate(1101.189453 0)"/>
     <use xlink:href="#DejaVuSans-Bold-6c" transform="translate(1168.669922 0)"/>
     <use xlink:href="#DejaVuSans-Bold-20" transform="translate(1202.947266 0)"/>
     <use xlink:href="#DejaVuSans-Bold-74" transform="translate(1237.761719 0)"/>
     <use xlink:href="#DejaVuSans-Bold-69" transform="translate(1285.564453 0)"/>
     <use xlink:href="#DejaVuSans-Bold-6d" transform="translate(1319.841797 0)"/>
     <use xlink:href="#DejaVuSans-Bold-65" transform="translate(1424.041016 0)"/>
    </g>
   </g>
   <g id="legend_1">
    <g id="patch_7">
     <path d="M 328.266875 78.82825 
L 407.72 78.82825 
Q 409.72 78.82825 409.72 76.82825 
L 409.72 48.472 
Q 409.72 46.472 407.72 46.472 
L 328.266875 46.472 
Q 326.266875 46.472 326.266875 48.472 
L 326.266875 76.82825 
Q 326.266875 78.82825 328.266875 78.82825 
z
" style="fill: #ffffff; opacity: 0.8; stroke: #cccccc; stroke-linejoin: miter"/>
    </g>
    <g id="PathCollection_2">
     <g>
      <use xlink:href="#m6978a16119" x="340.266875" y="55.445437" style="fill: #0000ff; stroke: #0000ff"/>
     </g>
    </g>
    <g id="text_19">
     <!-- Positions -->
     <g transform="translate(358.266875 58.070437) scale(0.1 -0.1)">
      <defs>
       <path id="DejaVuSans-50" d="M 1259 4147 
L 1259 2394 
L 2053 2394 
Q 2494 2394 2734 2622 
Q 2975 2850 2975 3272 
Q 2975 3691 2734 3919 
Q 2494 4147 2053 4147 
L 1259 4147 
z
M 628 4666 
L 2053 4666 
Q 2838 4666 3239 4311 
Q 3641 3956 3641 3272 
Q 3641 2581 3239 2228 
Q 2838 1875 2053 1875 
L 1259 1875 
L 1259 0 
L 628 0 
L 628 4666 
z
" transform="scale(0.015625)"/>
       <path id="DejaVuSans-6f" d="M 1959 3097 
Q 1497 3097 1228 2736 
Q 959 2375 959 1747 
Q 959 1119 1226 758 
Q 1494 397 1959 397 
Q 2419 397 2687 759 
Q 2956 1122 2956 1747 
Q 2956 2369 2687 2733 
Q 2419 3097 1959 3097 
z
M 1959 3584 
Q 2709 3584 3137 3096 
Q 3566 2609 3566 1747 
Q 3566 888 3137 398 
Q 2709 -91 1959 -91 
Q 1206 -91 779 398 
Q 353 888 353 1747 
Q 353 2609 779 3096 
Q 1206 3584 1959 3584 
z
" transform="scale(0.015625)"/>
       <path id="DejaVuSans-73" d="M 2834 3397 
L 2834 2853 
Q 2591 2978 2328 3040 
Q 2066 3103 1784 3103 
Q 1356 3103 1142 2972 
Q 928 2841 928 2578 
Q 928 2378 1081 2264 
Q 1234 2150 1697 2047 
L 1894 2003 
Q 2506 1872 2764 1633 
Q 3022 1394 3022 966 
Q 3022 478 2636 193 
Q 2250 -91 1575 -91 
Q 1294 -91 989 -36 
Q 684 19 347 128 
L 347 722 
Q 666 556 975 473 
Q 1284 391 1588 391 
Q 1994 391 2212 530 
Q 2431 669 2431 922 
Q 2431 1156 2273 1281 
Q 2116 1406 1581 1522 
L 1381 1569 
Q 847 1681 609 1914 
Q 372 2147 372 2553 
Q 372 3047 722 3315 
Q 1072 3584 1716 3584 
Q 2034 3584 2315 3537 
Q 2597 3491 2834 3397 
z
" transform="scale(0.015625)"/>
       <path id="DejaVuSans-69" d="M 603 3500 
L 1178 3500 
L 1178 0 
L 603 0 
L 603 3500 
z
M 603 4863 
L 1178 4863 
L 1178 4134 
L 603 4134 
L 603 4863 
z
" transform="scale(0.015625)"/>
       <path id="DejaVuSans-74" d="M 1172 4494 
L 1172 3500 
L 2356 3500 
L 2356 3053 
L 1172 3053 
L 1172 1153 
Q 1172 725 1289 603 
Q 1406 481 1766 481 
L 2356 481 
L 2356 0 
L 1766 0 
Q 1100 0 847 248 
Q 594 497 594 1153 
L 594 3053 
L 172 3053 
L 172 3500 
L 594 3500 
L 594 4494 
L 1172 4494 
z
" transform="scale(0.015625)"/>
       <path id="DejaVuSans-6e" d="M 3513 2113 
L 3513 0 
L 2938 0 
L 2938 2094 
Q 2938 2591 2744 2837 
Q 2550 3084 2163 3084 
Q 1697 3084 1428 2787 
Q 1159 2491 1159 1978 
L 1159 0 
L 581 0 
L 581 3500 
L 1159 3500 
L 1159 2956 
Q 1366 3272 1645 3428 
Q 1925 3584 2291 3584 
Q 2894 3584 3203 3211 
Q 3513 2838 3513 2113 
z
" transform="scale(0.015625)"/>
      </defs>
      <use xlink:href="#DejaVuSans-50"/>
      <use xlink:href="#DejaVuSans-6f" transform="translate(56.677734 0)"/>
      <use xlink:href="#DejaVuSans-73" transform="translate(117.859375 0)"/>
      <use xlink:href="#DejaVuSans-69" transform="translate(169.958984 0)"/>
      <use xlink:href="#DejaVuSans-74" transform="translate(197.742188 0)"/>
      <use xlink:href="#DejaVuSans-69" transform="translate(236.951172 0)"/>
      <use xlink:href="#DejaVuSans-6f" transform="translate(264.734375 0)"/>
      <use xlink:href="#DejaVuSans-6e" transform="translate(325.916016 0)"/>
      <use xlink:href="#DejaVuSans-73" transform="translate(389.294922 0)"/>
     </g>
    </g>
    <g id="patch_8">
     <path d="M 330.266875 72.748562 
L 350.266875 72.748562 
L 350.266875 65.748562 
L 330.266875 65.748562 
z
" style="fill: #ff0000"/>
    </g>
    <g id="text_20">
     <!-- Velocities -->
     <g transform="translate(358.266875 72.748562) scale(0.1 -0.1)">
      <defs>
       <path id="DejaVuSans-56" d="M 1831 0 
L 50 4666 
L 709 4666 
L 2188 738 
L 3669 4666 
L 4325 4666 
L 2547 0 
L 1831 0 
z
" transform="scale(0.015625)"/>
       <path id="DejaVuSans-65" d="M 3597 1894 
L 3597 1613 
L 953 1613 
Q 991 1019 1311 708 
Q 1631 397 2203 397 
Q 2534 397 2845 478 
Q 3156 559 3463 722 
L 3463 178 
Q 3153 47 2828 -22 
Q 2503 -91 2169 -91 
Q 1331 -91 842 396 
Q 353 884 353 1716 
Q 353 2575 817 3079 
Q 1281 3584 2069 3584 
Q 2775 3584 3186 3129 
Q 3597 2675 3597 1894 
z
M 3022 2063 
Q 3016 2534 2758 2815 
Q 2500 3097 2075 3097 
Q 1594 3097 1305 2825 
Q 1016 2553 972 2059 
L 3022 2063 
z
" transform="scale(0.015625)"/>
       <path id="DejaVuSans-6c" d="M 603 4863 
L 1178 4863 
L 1178 0 
L 603 0 
L 603 4863 
z
" transform="scale(0.015625)"/>
       <path id="DejaVuSans-63" d="M 3122 3366 
L 3122 2828 
Q 2878 2963 2633 3030 
Q 2388 3097 2138 3097 
Q 1578 3097 1268 2742 
Q 959 2388 959 1747 
Q 959 1106 1268 751 
Q 1578 397 2138 397 
Q 2388 397 2633 464 
Q 2878 531 3122 666 
L 3122 134 
Q 2881 22 2623 -34 
Q 2366 -91 2075 -91 
Q 1284 -91 818 406 
Q 353 903 353 1747 
Q 353 2603 823 3093 
Q 1294 3584 2113 3584 
Q 2378 3584 2631 3529 
Q 2884 3475 3122 3366 
z
" transform="scale(0.015625)"/>
      </defs>
      <use xlink:href="#DejaVuSans-56"/>
      <use xlink:href="#DejaVuSans-65" transform="translate(60.658203 0)"/>
      <use xlink:href="#DejaVuSans-6c" transform="translate(122.181641 0)"/>
      <use xlink:href="#DejaVuSans-6f" transform="translate(149.964844 0)"/>
      <use xlink:href="#DejaVuSans-63" transform="translate(211.146484 0)"/>
      <use xlink:href="#DejaVuSans-69" transform="translate(266.126953 0)"/>
      <use xlink:href="#DejaVuSans-74" transform="translate(293.910156 0)"/>
      <use xlink:href="#DejaVuSans-69" transform="translate(333.119141 0)"/>
      <use xlink:href="#DejaVuSans-65" transform="translate(360.902344 0)"/>
      <use xlink:href="#DejaVuSans-73" transform="translate(422.425781 0)"/>
     </g>
    </g>
   </g>
  </g>
 </g>
 <defs>
  <clipPath id="p678768fc8f">
   <rect x="57.6" y="41.472" width="357.12" height="266.112"/>
  </clipPath>
 </defs>
</svg>
