<?xml version="1.0" encoding="utf-8" standalone="no"?>
<!DOCTYPE svg PUBLIC "-//W3C//DTD SVG 1.1//EN"
  "http://www.w3.org/Graphics/SVG/1.1/DTD/svg11.dtd">
<svg xmlns:xlink="http://www.w3.org/1999/xlink" width="460.8pt" height="345.6pt" viewBox="0 0 460.8 345.6" xmlns="http://www.w3.org/2000/svg" version="1.1">
 <metadata>
  <rdf:RDF xmlns:dc="http://purl.org/dc/elements/1.1/" xmlns:cc="http://creativecommons.org/ns#" xmlns:rdf="http://www.w3.org/1999/02/22-rdf-syntax-ns#">
   <cc:Work>
    <dc:type rdf:resource="http://purl.org/dc/dcmitype/StillImage"/>
    <dc:date>2025-05-05T23:20:59.299452</dc:date>
    <dc:format>image/svg+xml</dc:format>
    <dc:creator>
     <cc:Agent>
      <dc:title>Matplotlib v3.10.1, https://matplotlib.org/</dc:title>
     </cc:Agent>
    </dc:creator>
   </cc:Work>
  </rdf:RDF>
 </metadata>
 <defs>
  <style type="text/css">*{stroke-linejoin: round; stroke-linecap: butt}</style>
 </defs>
 <g id="figure_1">
  <g id="patch_1">
   <path d="M 0 345.6 
L 460.8 345.6 
L 460.8 0 
L 0 0 
z
" style="fill: #ffffff"/>
  </g>
  <g id="axes_1">
   <g id="patch_2">
    <path d="M 57.6 307.584 
L 414.72 307.584 
L 414.72 41.472 
L 57.6 41.472 
z
" style="fill: #ffffff"/>
   </g>
   <g id="PathCollection_1">
    <defs>
     <path id="mc89ec05c85" d="M 0 3 
C 0.795609 3 1.55874 2.683901 2.12132 2.12132 
C 2.683901 1.55874 3 0.795609 3 0 
C 3 -0.795609 2.683901 -1.55874 2.12132 -2.12132 
C 1.55874 -2.683901 0.795609 -3 0 -3 
C -0.795609 -3 -1.55874 -2.683901 -2.12132 -2.12132 
C -2.683901 -1.55874 -3 -0.795609 -3 0 
C -3 0.795609 -2.683901 1.55874 -2.12132 2.12132 
C -1.55874 2.683901 -0.795609 3 0 3 
z
" style="stroke: #0000ff"/>
    </defs>
    <g clip-path="url(#p8d4b2630b9)">
     <use xlink:href="#mc89ec05c85" x="179.601559" y="184.143895" style="fill: #0000ff; stroke: #0000ff"/>
     <use xlink:href="#mc89ec05c85" x="195.273003" y="146.450293" style="fill: #0000ff; stroke: #0000ff"/>
     <use xlink:href="#mc89ec05c85" x="292.846052" y="209.887024" style="fill: #0000ff; stroke: #0000ff"/>
     <use xlink:href="#mc89ec05c85" x="256.410897" y="107.35033" style="fill: #0000ff; stroke: #0000ff"/>
     <use xlink:href="#mc89ec05c85" x="176.518358" y="89.027406" style="fill: #0000ff; stroke: #0000ff"/>
     <use xlink:href="#mc89ec05c85" x="234.173005" y="63.731581" style="fill: #0000ff; stroke: #0000ff"/>
     <use xlink:href="#mc89ec05c85" x="141.366011" y="254.075771" style="fill: #0000ff; stroke: #0000ff"/>
     <use xlink:href="#mc89ec05c85" x="172.686348" y="239.006282" style="fill: #0000ff; stroke: #0000ff"/>
     <use xlink:href="#mc89ec05c85" x="314.218549" y="146.629148" style="fill: #0000ff; stroke: #0000ff"/>
     <use xlink:href="#mc89ec05c85" x="193.261192" y="53.568" style="fill: #0000ff; stroke: #0000ff"/>
     <use xlink:href="#mc89ec05c85" x="145.486491" y="81.95273" style="fill: #0000ff; stroke: #0000ff"/>
     <use xlink:href="#mc89ec05c85" x="307.140145" y="236.479102" style="fill: #0000ff; stroke: #0000ff"/>
     <use xlink:href="#mc89ec05c85" x="254.855023" y="288.343903" style="fill: #0000ff; stroke: #0000ff"/>
     <use xlink:href="#mc89ec05c85" x="152.202528" y="121.230285" style="fill: #0000ff; stroke: #0000ff"/>
     <use xlink:href="#mc89ec05c85" x="186.797091" y="230.644586" style="fill: #0000ff; stroke: #0000ff"/>
     <use xlink:href="#mc89ec05c85" x="228.294868" y="81.33084" style="fill: #0000ff; stroke: #0000ff"/>
     <use xlink:href="#mc89ec05c85" x="287.603782" y="103.127438" style="fill: #0000ff; stroke: #0000ff"/>
     <use xlink:href="#mc89ec05c85" x="118.672925" y="175.788715" style="fill: #0000ff; stroke: #0000ff"/>
     <use xlink:href="#mc89ec05c85" x="264.236043" y="136.150261" style="fill: #0000ff; stroke: #0000ff"/>
     <use xlink:href="#mc89ec05c85" x="107.82789" y="110.850993" style="fill: #0000ff; stroke: #0000ff"/>
     <use xlink:href="#mc89ec05c85" x="196.119745" y="242.876804" style="fill: #0000ff; stroke: #0000ff"/>
     <use xlink:href="#mc89ec05c85" x="124.319714" y="133.319962" style="fill: #0000ff; stroke: #0000ff"/>
     <use xlink:href="#mc89ec05c85" x="306.01542" y="87.178781" style="fill: #0000ff; stroke: #0000ff"/>
     <use xlink:href="#mc89ec05c85" x="158.021631" y="65.912721" style="fill: #0000ff; stroke: #0000ff"/>
     <use xlink:href="#mc89ec05c85" x="212.558899" y="295.488" style="fill: #0000ff; stroke: #0000ff"/>
     <use xlink:href="#mc89ec05c85" x="203.243294" y="82.681971" style="fill: #0000ff; stroke: #0000ff"/>
     <use xlink:href="#mc89ec05c85" x="188.977998" y="199.940789" style="fill: #0000ff; stroke: #0000ff"/>
     <use xlink:href="#mc89ec05c85" x="269.428008" y="97.882653" style="fill: #0000ff; stroke: #0000ff"/>
     <use xlink:href="#mc89ec05c85" x="208.552368" y="228.244544" style="fill: #0000ff; stroke: #0000ff"/>
     <use xlink:href="#mc89ec05c85" x="180.018904" y="168.757691" style="fill: #0000ff; stroke: #0000ff"/>
     <use xlink:href="#mc89ec05c85" x="232.663924" y="112.833199" style="fill: #0000ff; stroke: #0000ff"/>
     <use xlink:href="#mc89ec05c85" x="263.010119" y="208.963559" style="fill: #0000ff; stroke: #0000ff"/>
     <use xlink:href="#mc89ec05c85" x="273.04426" y="263.078782" style="fill: #0000ff; stroke: #0000ff"/>
     <use xlink:href="#mc89ec05c85" x="305.07703" y="153.56473" style="fill: #0000ff; stroke: #0000ff"/>
     <use xlink:href="#mc89ec05c85" x="241.258423" y="109.538723" style="fill: #0000ff; stroke: #0000ff"/>
     <use xlink:href="#mc89ec05c85" x="177.554885" y="133.50423" style="fill: #0000ff; stroke: #0000ff"/>
     <use xlink:href="#mc89ec05c85" x="326.892701" y="143.238681" style="fill: #0000ff; stroke: #0000ff"/>
     <use xlink:href="#mc89ec05c85" x="227.878842" y="283.369988" style="fill: #0000ff; stroke: #0000ff"/>
     <use xlink:href="#mc89ec05c85" x="144.223875" y="209.600627" style="fill: #0000ff; stroke: #0000ff"/>
     <use xlink:href="#mc89ec05c85" x="351.934249" y="128.265917" style="fill: #0000ff; stroke: #0000ff"/>
     <use xlink:href="#mc89ec05c85" x="149.441179" y="167.185679" style="fill: #0000ff; stroke: #0000ff"/>
     <use xlink:href="#mc89ec05c85" x="154.110791" y="224.971046" style="fill: #0000ff; stroke: #0000ff"/>
     <use xlink:href="#mc89ec05c85" x="177.613537" y="151.426249" style="fill: #0000ff; stroke: #0000ff"/>
     <use xlink:href="#mc89ec05c85" x="140.582128" y="103.736098" style="fill: #0000ff; stroke: #0000ff"/>
     <use xlink:href="#mc89ec05c85" x="317.149191" y="179.077592" style="fill: #0000ff; stroke: #0000ff"/>
     <use xlink:href="#mc89ec05c85" x="264.374334" y="121.090937" style="fill: #0000ff; stroke: #0000ff"/>
     <use xlink:href="#mc89ec05c85" x="270.227774" y="278.191882" style="fill: #0000ff; stroke: #0000ff"/>
     <use xlink:href="#mc89ec05c85" x="227.728489" y="223.632229" style="fill: #0000ff; stroke: #0000ff"/>
     <use xlink:href="#mc89ec05c85" x="281.701886" y="109.093452" style="fill: #0000ff; stroke: #0000ff"/>
     <use xlink:href="#mc89ec05c85" x="342.206527" y="246.295506" style="fill: #0000ff; stroke: #0000ff"/>
     <use xlink:href="#mc89ec05c85" x="173.540771" y="207.274785" style="fill: #0000ff; stroke: #0000ff"/>
     <use xlink:href="#mc89ec05c85" x="284.216497" y="187.19538" style="fill: #0000ff; stroke: #0000ff"/>
     <use xlink:href="#mc89ec05c85" x="271.601563" y="217.153093" style="fill: #0000ff; stroke: #0000ff"/>
     <use xlink:href="#mc89ec05c85" x="286.120817" y="97.085075" style="fill: #0000ff; stroke: #0000ff"/>
     <use xlink:href="#mc89ec05c85" x="126.891893" y="207.539984" style="fill: #0000ff; stroke: #0000ff"/>
     <use xlink:href="#mc89ec05c85" x="238.087242" y="268.710386" style="fill: #0000ff; stroke: #0000ff"/>
     <use xlink:href="#mc89ec05c85" x="205.694346" y="210.414252" style="fill: #0000ff; stroke: #0000ff"/>
     <use xlink:href="#mc89ec05c85" x="109.494932" y="152.308545" style="fill: #0000ff; stroke: #0000ff"/>
     <use xlink:href="#mc89ec05c85" x="150.422725" y="185.048251" style="fill: #0000ff; stroke: #0000ff"/>
     <use xlink:href="#mc89ec05c85" x="148.482155" y="143.425582" style="fill: #0000ff; stroke: #0000ff"/>
     <use xlink:href="#mc89ec05c85" x="144.696274" y="186.475072" style="fill: #0000ff; stroke: #0000ff"/>
     <use xlink:href="#mc89ec05c85" x="151.437731" y="243.143144" style="fill: #0000ff; stroke: #0000ff"/>
     <use xlink:href="#mc89ec05c85" x="239.64977" y="63.307818" style="fill: #0000ff; stroke: #0000ff"/>
     <use xlink:href="#mc89ec05c85" x="202.674298" y="130.090023" style="fill: #0000ff; stroke: #0000ff"/>
     <use xlink:href="#mc89ec05c85" x="223.680837" y="247.656919" style="fill: #0000ff; stroke: #0000ff"/>
     <use xlink:href="#mc89ec05c85" x="208.769234" y="97.628707" style="fill: #0000ff; stroke: #0000ff"/>
     <use xlink:href="#mc89ec05c85" x="179.854828" y="162.454654" style="fill: #0000ff; stroke: #0000ff"/>
     <use xlink:href="#mc89ec05c85" x="330.123212" y="233.226262" style="fill: #0000ff; stroke: #0000ff"/>
     <use xlink:href="#mc89ec05c85" x="333.99525" y="192.397392" style="fill: #0000ff; stroke: #0000ff"/>
     <use xlink:href="#mc89ec05c85" x="235.428043" y="241.605278" style="fill: #0000ff; stroke: #0000ff"/>
     <use xlink:href="#mc89ec05c85" x="191.433545" y="140.30786" style="fill: #0000ff; stroke: #0000ff"/>
     <use xlink:href="#mc89ec05c85" x="227.311564" y="239.503569" style="fill: #0000ff; stroke: #0000ff"/>
     <use xlink:href="#mc89ec05c85" x="144.76861" y="145.687493" style="fill: #0000ff; stroke: #0000ff"/>
     <use xlink:href="#mc89ec05c85" x="331.331539" y="115.950245" style="fill: #0000ff; stroke: #0000ff"/>
     <use xlink:href="#mc89ec05c85" x="197.749619" y="256.065077" style="fill: #0000ff; stroke: #0000ff"/>
     <use xlink:href="#mc89ec05c85" x="282.577489" y="130.46853" style="fill: #0000ff; stroke: #0000ff"/>
     <use xlink:href="#mc89ec05c85" x="181.634386" y="272.71752" style="fill: #0000ff; stroke: #0000ff"/>
     <use xlink:href="#mc89ec05c85" x="327.246867" y="213.978406" style="fill: #0000ff; stroke: #0000ff"/>
     <use xlink:href="#mc89ec05c85" x="238.31171" y="82.908162" style="fill: #0000ff; stroke: #0000ff"/>
     <use xlink:href="#mc89ec05c85" x="352.143286" y="200.749141" style="fill: #0000ff; stroke: #0000ff"/>
     <use xlink:href="#mc89ec05c85" x="321.57098" y="102.321052" style="fill: #0000ff; stroke: #0000ff"/>
     <use xlink:href="#mc89ec05c85" x="320.513122" y="169.729303" style="fill: #0000ff; stroke: #0000ff"/>
     <use xlink:href="#mc89ec05c85" x="301.839341" y="257.248731" style="fill: #0000ff; stroke: #0000ff"/>
     <use xlink:href="#mc89ec05c85" x="202.958924" y="140.096518" style="fill: #0000ff; stroke: #0000ff"/>
     <use xlink:href="#mc89ec05c85" x="267.646269" y="242.473566" style="fill: #0000ff; stroke: #0000ff"/>
     <use xlink:href="#mc89ec05c85" x="259.751077" y="261.340862" style="fill: #0000ff; stroke: #0000ff"/>
     <use xlink:href="#mc89ec05c85" x="295.512229" y="130.14407" style="fill: #0000ff; stroke: #0000ff"/>
     <use xlink:href="#mc89ec05c85" x="260.798946" y="54.561349" style="fill: #0000ff; stroke: #0000ff"/>
     <use xlink:href="#mc89ec05c85" x="145.366307" y="208.382093" style="fill: #0000ff; stroke: #0000ff"/>
     <use xlink:href="#mc89ec05c85" x="290.280543" y="167.05884" style="fill: #0000ff; stroke: #0000ff"/>
     <use xlink:href="#mc89ec05c85" x="272.965462" y="169.457757" style="fill: #0000ff; stroke: #0000ff"/>
     <use xlink:href="#mc89ec05c85" x="338.819661" y="175.969161" style="fill: #0000ff; stroke: #0000ff"/>
     <use xlink:href="#mc89ec05c85" x="182.09843" y="111.311659" style="fill: #0000ff; stroke: #0000ff"/>
     <use xlink:href="#mc89ec05c85" x="279.007631" y="180.658286" style="fill: #0000ff; stroke: #0000ff"/>
     <use xlink:href="#mc89ec05c85" x="267.757465" y="78.364255" style="fill: #0000ff; stroke: #0000ff"/>
     <use xlink:href="#mc89ec05c85" x="364.49211" y="149.853893" style="fill: #0000ff; stroke: #0000ff"/>
     <use xlink:href="#mc89ec05c85" x="192.460578" y="172.801695" style="fill: #0000ff; stroke: #0000ff"/>
     <use xlink:href="#mc89ec05c85" x="176.000285" y="66.620031" style="fill: #0000ff; stroke: #0000ff"/>
     <use xlink:href="#mc89ec05c85" x="305.384694" y="220.233713" style="fill: #0000ff; stroke: #0000ff"/>
     <use xlink:href="#mc89ec05c85" x="213.261739" y="255.511561" style="fill: #0000ff; stroke: #0000ff"/>
    </g>
   </g>
   <g id="Quiver_1">
    <path d="M 178.530724 184.110372 
L 178.74209 177.35861 
L 176.566896 178.362399 
L 180.114631 167.754614 
L 182.991909 178.563537 
L 180.883761 177.425655 
L 180.672395 184.177418 
L 178.530724 184.110372 
" clip-path="url(#p8d4b2630b9)" style="fill: #ff0000"/>
    <path d="M 194.374368 145.866968 
L 202.56478 133.249334 
L 200.184186 132.981318 
L 208.713343 125.74495 
L 205.575993 136.48127 
L 204.362049 134.415985 
L 196.171637 147.033619 
L 194.374368 145.866968 
" clip-path="url(#p8d4b2630b9)" style="fill: #ff0000"/>
    <path d="M 293.750297 210.461614 
L 288.45675 218.792188 
L 290.83983 219.037123 
L 282.381198 226.355803 
L 285.41436 215.589585 
L 286.64826 217.643009 
L 291.941807 209.312434 
L 293.750297 210.461614 
" clip-path="url(#p8d4b2630b9)" style="fill: #ff0000"/>
    <path d="M 256.778074 106.343854 
L 266.166347 109.768828 
L 265.894224 107.3887 
L 274.857453 114.079893 
L 263.691165 113.427555 
L 265.431994 111.78178 
L 256.043721 108.356805 
L 256.778074 106.343854 
" clip-path="url(#p8d4b2630b9)" style="fill: #ff0000"/>
    <path d="M 175.716286 88.317129 
L 182.795524 80.322984 
L 180.481103 79.704502 
L 189.990087 73.814616 
L 185.293533 83.966164 
L 184.399667 81.743538 
L 177.320429 89.737682 
L 175.716286 88.317129 
" clip-path="url(#p8d4b2630b9)" style="fill: #ff0000"/>
    <path d="M 234.622938 62.759278 
L 246.343735 68.183064 
L 246.271296 65.788526 
L 254.644531 73.204757 
L 243.571703 71.622344 
L 245.443871 70.12767 
L 233.723073 64.703885 
L 234.622938 62.759278 
" clip-path="url(#p8d4b2630b9)" style="fill: #ff0000"/>
    <path d="M 142.246702 253.465691 
L 148.27096 262.162107 
L 149.422261 260.061258 
L 152.880985 270.698399 
L 144.138119 263.721735 
L 146.509579 263.382266 
L 140.485321 254.68585 
L 142.246702 253.465691 
" clip-path="url(#p8d4b2630b9)" style="fill: #ff0000"/>
    <path d="M 172.072672 239.88447 
L 161.130781 232.23829 
L 160.781616 234.608342 
L 153.840769 225.837015 
L 164.463675 229.339216 
L 162.358134 230.481915 
L 173.300025 238.128095 
L 172.072672 239.88447 
" clip-path="url(#p8d4b2630b9)" style="fill: #ff0000"/>
    <path d="M 313.148043 146.586396 
L 313.368065 141.077043 
L 311.1843 142.062046 
L 314.823339 131.485235 
L 317.60734 142.318557 
L 315.509078 141.162547 
L 315.289056 146.6719 
L 313.148043 146.586396 
" clip-path="url(#p8d4b2630b9)" style="fill: #ff0000"/>
    <path d="M 193.52475 54.606436 
L 184.582561 56.875994 
L 186.148114 58.689307 
L 174.97308 58.209585 
L 184.566763 52.458692 
L 184.055444 54.799122 
L 192.997633 52.529564 
L 193.52475 54.606436 
" clip-path="url(#p8d4b2630b9)" style="fill: #ff0000"/>
    <path d="M 144.610791 81.335508 
L 150.997772 72.273801 
L 148.629152 71.915059 
L 157.428464 65.009724 
L 153.88335 75.618386 
L 152.749172 73.508244 
L 146.362191 82.569951 
L 144.610791 81.335508 
" clip-path="url(#p8d4b2630b9)" style="fill: #ff0000"/>
    <path d="M 308.024052 237.084512 
L 301.607127 246.453323 
L 303.980351 246.780234 
L 295.274536 253.803077 
L 298.676908 243.147778 
L 299.839313 245.242504 
L 306.256238 235.873693 
L 308.024052 237.084512 
" clip-path="url(#p8d4b2630b9)" style="fill: #ff0000"/>
    <path d="M 254.39903 287.374427 
L 265.899436 281.965221 
L 264.017976 280.482262 
L 275.080711 278.830768 
L 266.753929 286.299117 
L 266.81142 283.904173 
L 255.311015 289.313379 
L 254.39903 287.374427 
" clip-path="url(#p8d4b2630b9)" style="fill: #ff0000"/>
    <path d="M 151.237794 120.764344 
L 156.650865 109.556563 
L 154.255456 109.589414 
L 161.809072 101.339903 
L 160.043857 112.385063 
L 158.580332 110.488446 
L 153.167261 121.696227 
L 151.237794 120.764344 
" clip-path="url(#p8d4b2630b9)" style="fill: #ff0000"/>
    <path d="M 185.988581 231.347525 
L 176.922626 220.920006 
L 176.008546 223.134395 
L 171.404681 212.940477 
L 180.859606 218.916758 
L 178.539646 219.514127 
L 187.605601 229.941646 
L 185.988581 231.347525 
" clip-path="url(#p8d4b2630b9)" style="fill: #ff0000"/>
    <path d="M 228.646934 80.318979 
L 238.989542 83.917578 
L 238.681814 81.541791 
L 247.744221 88.098033 
L 236.569418 87.612954 
L 238.28541 85.941299 
L 227.942802 82.3427 
L 228.646934 80.318979 
" clip-path="url(#p8d4b2630b9)" style="fill: #ff0000"/>
    <path d="M 286.97961 103.998197 
L 280.778107 99.552874 
L 280.400522 101.918564 
L 273.565448 93.064565 
L 284.145555 96.69401 
L 282.026451 97.811356 
L 288.227954 102.256679 
L 286.97961 103.998197 
" clip-path="url(#p8d4b2630b9)" style="fill: #ff0000"/>
    <path d="M 117.660897 176.1403 
L 114.85262 168.056754 
L 113.18015 169.771952 
L 112.700382 158.596919 
L 119.252317 167.662441 
L 116.876676 167.353584 
L 119.684953 175.43713 
L 117.660897 176.1403 
" clip-path="url(#p8d4b2630b9)" style="fill: #ff0000"/>
    <path d="M 264.981728 135.380998 
L 271.426499 141.628233 
L 272.148606 139.344022 
L 277.604184 149.108662 
L 267.674495 143.959602 
L 269.935129 143.16676 
L 263.490358 136.919525 
L 264.981728 135.380998 
" clip-path="url(#p8d4b2630b9)" style="fill: #ff0000"/>
    <path d="M 106.882834 110.346333 
L 111.811933 101.115812 
L 109.417161 101.051548 
L 117.298928 93.114969 
L 115.087497 104.079507 
L 113.702045 102.125132 
L 108.772946 111.355653 
L 106.882834 110.346333 
" clip-path="url(#p8d4b2630b9)" style="fill: #ff0000"/>
    <path d="M 195.920179 243.929412 
L 187.664983 242.36429 
L 188.318459 244.669075 
L 178.39107 239.515582 
L 189.515859 238.353421 
L 188.064117 240.259072 
L 196.319312 241.824195 
L 195.920179 243.929412 
" clip-path="url(#p8d4b2630b9)" style="fill: #ff0000"/>
    <path d="M 123.261729 133.151203 
L 124.838634 123.265273 
L 122.553905 123.98574 
L 127.415453 113.912166 
L 128.901815 124.998296 
L 126.954604 123.602792 
L 125.377699 133.488721 
L 123.261729 133.151203 
" clip-path="url(#p8d4b2630b9)" style="fill: #ff0000"/>
    <path d="M 306.548542 86.249483 
L 314.667119 90.906971 
L 314.804065 88.515255 
L 322.497672 96.634365 
L 311.605334 94.091039 
L 313.600875 92.765566 
L 305.482298 88.108078 
L 306.548542 86.249483 
" clip-path="url(#p8d4b2630b9)" style="fill: #ff0000"/>
    <path d="M 158.754559 66.694148 
L 150.115744 74.796796 
L 152.363028 75.626723 
L 142.34997 80.611722 
L 147.965459 70.938159 
L 148.649888 73.233942 
L 157.288703 65.131293 
L 158.754559 66.694148 
" clip-path="url(#p8d4b2630b9)" style="fill: #ff0000"/>
    <path d="M 212.995299 294.509549 
L 219.820932 297.553855 
L 219.715281 295.160552 
L 228.190595 302.459907 
L 217.096881 301.031261 
L 218.948132 299.510758 
L 212.122499 296.466451 
L 212.995299 294.509549 
" clip-path="url(#p8d4b2630b9)" style="fill: #ff0000"/>
    <path d="M 202.871778 81.677088 
L 213.468782 77.759268 
L 211.720869 76.121018 
L 222.884239 75.420513 
L 213.949961 82.150313 
L 214.211813 79.769033 
L 203.614809 83.686853 
L 202.871778 81.677088 
" clip-path="url(#p8d4b2630b9)" style="fill: #ff0000"/>
    <path d="M 187.950797 200.245208 
L 183.942757 186.720878 
L 182.192774 188.356917 
L 182.230187 177.171653 
L 188.355978 186.530403 
L 185.997158 186.112041 
L 190.005199 199.636371 
L 187.950797 200.245208 
" clip-path="url(#p8d4b2630b9)" style="fill: #ff0000"/>
    <path d="M 268.914938 98.82317 
L 260.31599 94.132276 
L 260.230366 96.52638 
L 252.364411 88.574129 
L 263.308786 90.88328 
L 261.34213 92.251243 
L 269.941078 96.942137 
L 268.914938 98.82317 
" clip-path="url(#p8d4b2630b9)" style="fill: #ff0000"/>
    <path d="M 208.19759 229.255457 
L 201.545696 226.92099 
L 201.847054 229.297594 
L 192.802256 222.717079 
L 203.975719 223.232116 
L 202.255251 224.899164 
L 208.907145 227.233631 
L 208.19759 229.255457 
" clip-path="url(#p8d4b2630b9)" style="fill: #ff0000"/>
    <path d="M 178.976002 168.512402 
L 180.963273 160.063051 
L 178.632179 160.615376 
L 184.213774 150.922216 
L 184.889594 162.087108 
L 183.049078 160.553628 
L 181.061807 169.002979 
L 178.976002 168.512402 
" clip-path="url(#p8d4b2630b9)" style="fill: #ff0000"/>
    <path d="M 232.411706 111.791951 
L 239.888833 109.980799 
L 238.34315 108.150518 
L 249.512288 108.752093 
L 239.856453 114.39801 
L 240.393267 112.063296 
L 232.916141 113.874448 
L 232.411706 111.791951 
" clip-path="url(#p8d4b2630b9)" style="fill: #ff0000"/>
    <path d="M 263.809851 209.67647 
L 255.512717 218.984045 
L 257.825091 219.610136 
L 248.296785 225.468713 
L 253.026704 215.332668 
L 253.913255 217.558222 
L 262.210388 208.250647 
L 263.809851 209.67647 
" clip-path="url(#p8d4b2630b9)" style="fill: #ff0000"/>
    <path d="M 273.091515 264.149099 
L 263.993979 264.550766 
L 265.158808 266.644145 
L 254.313867 263.90575 
L 264.875273 260.222241 
L 263.899467 262.410131 
L 272.997004 262.008465 
L 273.091515 264.149099 
" clip-path="url(#p8d4b2630b9)" style="fill: #ff0000"/>
    <path d="M 306.132729 153.382218 
L 307.955382 163.924938 
L 309.884269 162.504214 
L 308.542292 173.608746 
L 303.550072 163.599287 
L 305.843983 164.289962 
L 304.02133 153.747242 
L 306.132729 153.382218 
" clip-path="url(#p8d4b2630b9)" style="fill: #ff0000"/>
    <path d="M 241.480003 108.490527 
L 250.488557 110.394858 
L 249.88352 108.076886 
L 259.70074 113.43727 
L 248.554042 114.366062 
L 250.045397 112.49125 
L 241.036844 110.586919 
L 241.480003 108.490527 
" clip-path="url(#p8d4b2630b9)" style="fill: #ff0000"/>
    <path d="M 178.190121 134.366951 
L 168.831457 141.257905 
L 170.96465 142.348109 
L 160.431736 146.112314 
L 167.15323 137.171786 
L 167.560983 139.532464 
L 176.919648 132.64151 
L 178.190121 134.366951 
" clip-path="url(#p8d4b2630b9)" style="fill: #ff0000"/>
    <path d="M 327.844398 142.74666 
L 332.539935 151.829058 
L 333.951308 149.893319 
L 336.016425 160.886355 
L 328.241125 152.845445 
L 330.63654 152.8131 
L 325.941004 143.730701 
L 327.844398 142.74666 
" clip-path="url(#p8d4b2630b9)" style="fill: #ff0000"/>
    <path d="M 227.611794 284.407532 
L 215.480047 281.285007 
L 215.983496 283.627143 
L 206.409199 277.844032 
L 217.585783 277.401879 
L 216.014143 279.209919 
L 228.14589 282.332444 
L 227.611794 284.407532 
" clip-path="url(#p8d4b2630b9)" style="fill: #ff0000"/>
    <path d="M 143.242682 210.030829 
L 139.010761 200.378784 
L 137.478578 202.22038 
L 136.120136 191.117851 
L 143.365733 199.639169 
L 140.973146 199.51838 
L 145.205067 209.170425 
L 143.242682 210.030829 
" clip-path="url(#p8d4b2630b9)" style="fill: #ff0000"/>
    <path d="M 352.872953 127.749537 
L 356.793047 134.875703 
L 358.154074 132.90424 
L 360.501759 143.840415 
L 352.521853 136.002518 
L 354.915639 135.908462 
L 350.995545 128.782296 
L 352.872953 127.749537 
" clip-path="url(#p8d4b2630b9)" style="fill: #ff0000"/>
    <path d="M 148.375288 167.077562 
L 149.24701 158.483589 
L 147.007111 159.333244 
L 151.285959 148.998691 
L 153.402455 159.98195 
L 151.378791 158.699824 
L 150.507069 167.293797 
L 148.375288 167.077562 
" clip-path="url(#p8d4b2630b9)" style="fill: #ff0000"/>
    <path d="M 153.207122 225.546541 
L 146.750881 215.408654 
L 145.519039 217.463313 
L 142.475094 206.700138 
L 150.941052 214.010342 
L 148.558219 214.257663 
L 155.01446 224.395551 
L 153.207122 225.546541 
" clip-path="url(#p8d4b2630b9)" style="fill: #ff0000"/>
    <path d="M 176.577124 151.154845 
L 179.854772 138.638442 
L 177.510542 139.132048 
L 183.333818 129.582127 
L 183.729021 140.76047 
L 181.927598 139.181249 
L 178.64995 151.697652 
L 176.577124 151.154845 
" clip-path="url(#p8d4b2630b9)" style="fill: #ff0000"/>
    <path d="M 139.640132 103.22575 
L 145.126006 93.099957 
L 142.731666 93.021259 
L 150.661132 85.132337 
L 148.383645 96.083345 
L 147.009999 94.120653 
L 141.524125 104.246445 
L 139.640132 103.22575 
" clip-path="url(#p8d4b2630b9)" style="fill: #ff0000"/>
    <path d="M 316.100686 178.857484 
L 317.886691 170.349678 
L 315.569571 170.957967 
L 320.916171 161.133233 
L 321.860607 172.278616 
L 319.983703 170.789894 
L 318.197697 179.297701 
L 316.100686 178.857484 
" clip-path="url(#p8d4b2630b9)" style="fill: #ff0000"/>
    <path d="M 265.00971 120.228319 
L 270.938025 124.594922 
L 271.34616 122.23431 
L 278.06621 131.175923 
L 267.533904 127.410017 
L 269.667273 126.320157 
L 263.738958 121.953555 
L 265.00971 120.228319 
" clip-path="url(#p8d4b2630b9)" style="fill: #ff0000"/>
    <path d="M 270.511851 279.224893 
L 259.959764 282.126706 
L 261.56093 283.908652 
L 250.378585 283.650389 
L 259.856467 277.710584 
L 259.39161 280.060684 
L 269.943697 277.15887 
L 270.511851 279.224893 
" clip-path="url(#p8d4b2630b9)" style="fill: #ff0000"/>
    <path d="M 227.714031 224.703491 
L 222.091559 224.627608 
L 223.133905 226.784591 
L 212.464655 223.426222 
L 223.220654 220.357017 
L 222.120475 222.485083 
L 227.742947 222.560967 
L 227.714031 224.703491 
" clip-path="url(#p8d4b2630b9)" style="fill: #ff0000"/>
    <path d="M 282.333708 108.228227 
L 289.268324 113.292169 
L 289.666744 110.929898 
L 296.423519 119.843794 
L 285.875811 116.121243 
L 288.004679 115.022617 
L 281.070064 109.958676 
L 282.333708 108.228227 
" clip-path="url(#p8d4b2630b9)" style="fill: #ff0000"/>
    <path d="M 342.971286 247.04581 
L 334.579092 255.599685 
L 336.858914 256.335534 
L 327.061598 261.732212 
L 332.27036 251.83371 
L 333.049574 254.099077 
L 341.441768 245.545202 
L 342.971286 247.04581 
" clip-path="url(#p8d4b2630b9)" style="fill: #ff0000"/>
    <path d="M 172.543532 207.666354 
L 168.767638 198.050003 
L 167.16473 199.830381 
L 166.240753 188.683283 
L 173.148164 197.480965 
L 170.762116 197.266865 
L 174.53801 206.883216 
L 172.543532 207.666354 
" clip-path="url(#p8d4b2630b9)" style="fill: #ff0000"/>
    <path d="M 285.281665 187.310399 
L 284.252107 196.844913 
L 286.497462 196.009783 
L 282.151765 206.316405 
L 280.106454 195.319668 
L 282.121771 196.614874 
L 283.15133 187.08036 
L 285.281665 187.310399 
" clip-path="url(#p8d4b2630b9)" style="fill: #ff0000"/>
    <path d="M 272.437989 217.822573 
L 264.332009 227.949911 
L 266.674341 228.452445 
L 257.470261 234.808264 
L 261.655785 224.435564 
L 262.659157 226.61095 
L 270.765137 216.483613 
L 272.437989 217.822573 
" clip-path="url(#p8d4b2630b9)" style="fill: #ff0000"/>
    <path d="M 286.813695 96.267926 
L 292.996163 101.510176 
L 293.564771 99.183001 
L 299.657623 108.56323 
L 289.407501 104.085893 
L 291.610407 103.144474 
L 285.427938 97.902223 
L 286.813695 96.267926 
" clip-path="url(#p8d4b2630b9)" style="fill: #ff0000"/>
    <path d="M 125.966017 208.079025 
L 120.497773 198.686569 
L 119.185061 200.690527 
L 116.572281 189.814641 
L 124.74032 197.456282 
L 122.349526 197.608487 
L 127.81777 207.000943 
L 125.966017 208.079025 
" clip-path="url(#p8d4b2630b9)" style="fill: #ff0000"/>
    <path d="M 238.042191 269.780798 
L 229.068225 269.403108 
L 230.048535 271.588984 
L 219.479564 267.927239 
L 230.31884 265.166509 
L 229.158326 267.262283 
L 238.132293 267.639974 
L 238.042191 269.780798 
" clip-path="url(#p8d4b2630b9)" style="fill: #ff0000"/>
    <path d="M 205.468834 211.461609 
L 199.59958 210.197869 
L 200.195913 212.518095 
L 190.398879 207.120904 
L 201.548985 206.233953 
L 200.050604 208.103155 
L 205.919858 209.366896 
L 205.468834 211.461609 
" clip-path="url(#p8d4b2630b9)" style="fill: #ff0000"/>
    <path d="M 108.429579 152.195253 
L 109.404512 143.027446 
L 107.160513 143.866213 
L 111.489501 133.552562 
L 113.552631 144.545971 
L 111.535218 143.254032 
L 110.560285 152.421838 
L 108.429579 152.195253 
" clip-path="url(#p8d4b2630b9)" style="fill: #ff0000"/>
    <path d="M 151.43982 184.711606 
L 154.201764 193.056189 
L 155.89931 191.365804 
L 156.214472 202.54669 
L 149.796739 193.385673 
L 152.167574 193.729479 
L 149.405629 185.384896 
L 151.43982 184.711606 
" clip-path="url(#p8d4b2630b9)" style="fill: #ff0000"/>
    <path d="M 149.421079 143.941561 
L 145.096625 151.810753 
L 147.490452 151.903786 
L 139.513894 159.745091 
L 141.856907 148.807915 
L 143.218777 150.778796 
L 147.543231 142.909604 
L 149.421079 143.941561 
" clip-path="url(#p8d4b2630b9)" style="fill: #ff0000"/>
    <path d="M 143.632841 186.60516 
L 142.499908 177.343692 
L 140.503129 178.667299 
L 142.392555 167.642708 
L 146.883726 177.886776 
L 144.626773 177.083517 
L 145.759707 186.344985 
L 143.632841 186.60516 
" clip-path="url(#p8d4b2630b9)" style="fill: #ff0000"/>
    <path d="M 150.666197 243.886479 
L 143.091058 236.023966 
L 142.291324 238.28217 
L 137.172578 228.336821 
L 146.920531 233.822161 
L 144.634127 234.537296 
L 152.209266 242.399809 
L 150.666197 243.886479 
" clip-path="url(#p8d4b2630b9)" style="fill: #ff0000"/>
    <path d="M 239.401053 64.349909 
L 231.789814 62.533328 
L 232.334471 64.866225 
L 222.659717 59.252788 
L 233.826771 58.613683 
L 232.287247 60.449147 
L 239.898486 62.265728 
L 239.401053 64.349909 
" clip-path="url(#p8d4b2630b9)" style="fill: #ff0000"/>
    <path d="M 203.309028 130.953116 
L 193.039735 138.50528 
L 195.172288 139.596738 
L 184.637164 143.354754 
L 191.36391 134.418176 
L 191.770276 136.779093 
L 202.039568 129.226929 
L 203.309028 130.953116 
" clip-path="url(#p8d4b2630b9)" style="fill: #ff0000"/>
    <path d="M 223.122933 248.571552 
L 219.293112 246.235454 
L 219.091937 248.622626 
L 211.619314 240.299679 
L 222.439364 243.134824 
L 220.408921 244.406186 
L 224.238742 246.742285 
L 223.122933 248.571552 
" clip-path="url(#p8d4b2630b9)" style="fill: #ff0000"/>
    <path d="M 208.285969 96.672534 
L 218.35673 91.58261 
L 216.434027 90.153529 
L 227.445553 88.189397 
L 219.333618 95.890568 
L 219.32326 93.494956 
L 209.2525 98.58488 
L 208.285969 96.672534 
" clip-path="url(#p8d4b2630b9)" style="fill: #ff0000"/>
    <path d="M 178.880852 162.900952 
L 178.037784 161.06109 
L 176.536131 162.927664 
L 174.995073 151.849005 
L 182.379988 160.249872 
L 179.985737 160.168493 
L 180.828805 162.008355 
L 178.880852 162.900952 
" clip-path="url(#p8d4b2630b9)" style="fill: #ff0000"/>
    <path d="M 330.984654 233.863231 
L 325.088381 241.8374 
L 327.448234 242.249896 
L 318.494217 248.953411 
L 322.279581 238.428082 
L 323.365496 240.563462 
L 329.26177 232.589292 
L 330.984654 233.863231 
" clip-path="url(#p8d4b2630b9)" style="fill: #ff0000"/>
    <path d="M 334.972782 192.835847 
L 330.044093 203.824321 
L 332.437613 203.723699 
L 325.120465 212.183656 
L 326.572419 201.092968 
L 328.089029 202.94741 
L 333.017717 191.958937 
L 334.972782 192.835847 
" clip-path="url(#p8d4b2630b9)" style="fill: #ff0000"/>
    <path d="M 235.405749 242.676407 
L 230.903236 242.582696 
L 231.929778 244.747245 
L 221.285377 241.310927 
L 232.063538 238.320477 
L 230.947823 240.44044 
L 235.450336 240.53415 
L 235.405749 242.676407 
" clip-path="url(#p8d4b2630b9)" style="fill: #ff0000"/>
    <path d="M 190.78462 139.455388 
L 198.719368 133.415239 
L 196.569046 132.35922 
L 207.04054 128.427385 
L 200.462596 137.474052 
L 200.017218 135.120183 
L 192.08247 141.160332 
L 190.78462 139.455388 
" clip-path="url(#p8d4b2630b9)" style="fill: #ff0000"/>
    <path d="M 227.313971 238.432212 
L 238.881445 238.4582 
L 237.814902 236.313078 
L 248.521254 239.55122 
L 237.80046 242.741222 
L 238.876631 240.600914 
L 227.309157 240.574926 
L 227.313971 238.432212 
" clip-path="url(#p8d4b2630b9)" style="fill: #ff0000"/>
    <path d="M 143.700926 145.598819 
L 144.637984 134.31606 
L 142.413943 135.206397 
L 146.503731 124.795577 
L 148.820047 135.738438 
L 146.773353 134.493407 
L 145.836294 145.776166 
L 143.700926 145.598819 
" clip-path="url(#p8d4b2630b9)" style="fill: #ff0000"/>
    <path d="M 332.236771 115.377211 
L 338.55408 125.356783 
L 339.79151 123.305483 
L 342.806151 134.076903 
L 334.360119 126.743685 
L 336.743616 126.50285 
L 330.426307 116.523279 
L 332.236771 115.377211 
" clip-path="url(#p8d4b2630b9)" style="fill: #ff0000"/>
    <path d="M 197.557055 257.118989 
L 186.280229 255.058562 
L 186.949014 257.358951 
L 176.987581 252.271575 
L 188.104397 251.035477 
L 186.665357 252.950738 
L 197.942183 255.011164 
L 197.557055 257.118989 
" clip-path="url(#p8d4b2630b9)" style="fill: #ff0000"/>
    <path d="M 283.352523 129.728844 
L 290.922602 137.660673 
L 291.732983 135.406268 
L 296.804743 145.37566 
L 287.082782 139.844384 
L 289.372535 139.140046 
L 281.802456 131.208216 
L 283.352523 129.728844 
" clip-path="url(#p8d4b2630b9)" style="fill: #ff0000"/>
    <path d="M 180.985362 273.569916 
L 170.492824 265.580776 
L 170.047172 267.934593 
L 163.470282 258.887159 
L 173.941319 262.820215 
L 171.790873 263.875983 
L 182.283411 271.865123 
L 180.985362 273.569916 
" clip-path="url(#p8d4b2630b9)" style="fill: #ff0000"/>
    <path d="M 326.194198 213.779157 
L 328.536468 201.404543 
L 326.23188 202.058714 
L 331.382381 192.129772 
L 332.547894 203.25421 
L 330.641805 201.803042 
L 328.299536 214.177656 
L 326.194198 213.779157 
" clip-path="url(#p8d4b2630b9)" style="fill: #ff0000"/>
    <path d="M 238.568336 81.867991 
L 250.084955 84.70932 
L 249.558037 82.372352 
L 259.189865 88.059128 
L 248.018279 88.613377 
L 249.571702 86.789662 
L 238.055084 83.948333 
L 238.568336 81.867991 
" clip-path="url(#p8d4b2630b9)" style="fill: #ff0000"/>
    <path d="M 353.02514 201.357536 
L 347.182316 209.826573 
L 349.55442 210.161509 
L 340.824904 217.154869 
L 344.263293 206.511138 
L 345.418606 208.609783 
L 351.261431 200.140746 
L 353.02514 201.357536 
" clip-path="url(#p8d4b2630b9)" style="fill: #ff0000"/>
    <path d="M 322.471437 101.740544 
L 328.311168 110.798866 
L 329.531574 108.737394 
L 332.635281 119.483488 
L 324.128832 112.22044 
L 326.510254 111.959882 
L 320.670523 102.90156 
L 322.471437 101.740544 
" clip-path="url(#p8d4b2630b9)" style="fill: #ff0000"/>
    <path d="M 321.564679 169.524267 
L 323.810184 181.040678 
L 325.708263 179.579049 
L 324.603949 190.709729 
L 319.398919 180.809264 
L 321.70707 181.45075 
L 319.461564 169.934339 
L 321.564679 169.524267 
" clip-path="url(#p8d4b2630b9)" style="fill: #ff0000"/>
    <path d="M 302.42363 258.146739 
L 293.304298 264.080225 
L 295.370883 265.291954 
L 284.637933 268.440813 
L 291.865152 259.903903 
L 292.135721 262.284208 
L 301.255053 256.350722 
L 302.42363 258.146739 
" clip-path="url(#p8d4b2630b9)" style="fill: #ff0000"/>
    <path d="M 202.353424 139.212672 
L 215.804899 129.997415 
L 213.710055 128.835224 
L 224.365006 125.431764 
L 217.343052 134.138295 
L 217.015898 131.765105 
L 203.564423 140.980363 
L 202.353424 139.212672 
" clip-path="url(#p8d4b2630b9)" style="fill: #ff0000"/>
    <path d="M 268.294873 243.326282 
L 260.059643 249.590275 
L 262.209567 250.647102 
L 251.736594 254.574998 
L 258.317941 245.530806 
L 258.762434 247.884843 
L 266.997665 241.62085 
L 268.294873 243.326282 
" clip-path="url(#p8d4b2630b9)" style="fill: #ff0000"/>
    <path d="M 260.04229 262.371885 
L 255.907865 263.539655 
L 257.521313 265.310487 
L 246.33745 265.129549 
L 255.774036 259.124353 
L 255.325439 261.47761 
L 259.459864 260.30984 
L 260.04229 262.371885 
" clip-path="url(#p8d4b2630b9)" style="fill: #ff0000"/>
    <path d="M 296.406132 129.553521 
L 302.655055 139.012397 
L 303.852313 136.937395 
L 307.076096 147.648079 
L 298.488891 140.480691 
L 300.867248 140.193496 
L 294.618325 130.73462 
L 296.406132 129.553521 
" clip-path="url(#p8d4b2630b9)" style="fill: #ff0000"/>
    <path d="M 261.117747 53.53852 
L 273.284275 57.330654 
L 272.899049 54.966196 
L 282.17093 61.222693 
L 270.986242 61.103167 
L 272.646673 59.376311 
L 260.480145 55.584177 
L 261.117747 53.53852 
" clip-path="url(#p8d4b2630b9)" style="fill: #ff0000"/>
    <path d="M 146.351339 207.960757 
L 150.947811 218.706775 
L 152.496541 216.879072 
L 153.754795 227.993402 
L 146.586346 219.407082 
L 148.977746 219.549445 
L 144.381274 208.803428 
L 146.351339 207.960757 
" clip-path="url(#p8d4b2630b9)" style="fill: #ff0000"/>
    <path d="M 291.350419 167.002474 
L 291.977865 178.91188 
L 294.061251 177.729271 
L 291.415286 188.597132 
L 287.641994 178.067469 
L 289.838113 179.024612 
L 289.210667 167.115206 
L 291.350419 167.002474 
" clip-path="url(#p8d4b2630b9)" style="fill: #ff0000"/>
    <path d="M 274.033668 169.539907 
L 273.082754 181.904875 
L 275.301315 181.000967 
L 271.275205 191.436578 
L 268.892079 180.508072 
L 270.946342 181.740576 
L 271.897256 169.375608 
L 274.033668 169.539907 
" clip-path="url(#p8d4b2630b9)" style="fill: #ff0000"/>
    <path d="M 339.843823 175.654669 
L 342.780004 185.216503 
L 344.513834 183.563357 
L 344.586273 194.74845 
L 338.368865 185.450311 
L 340.731681 185.845488 
L 337.7955 176.283653 
L 339.843823 175.654669 
" clip-path="url(#p8d4b2630b9)" style="fill: #ff0000"/>
    <path d="M 181.273842 110.627651 
L 189.685183 100.487577 
L 187.351999 99.944149 
L 196.665842 93.750292 
L 192.299527 104.048196 
L 191.334359 101.855593 
L 182.923018 111.995667 
L 181.273842 110.627651 
" clip-path="url(#p8d4b2630b9)" style="fill: #ff0000"/>
    <path d="M 278.754447 181.699301 
L 274.042974 180.553428 
L 274.57762 182.88864 
L 264.927031 177.23376 
L 276.096723 176.642556 
L 274.549341 178.4714 
L 279.260815 179.617272 
L 278.754447 181.699301 
" clip-path="url(#p8d4b2630b9)" style="fill: #ff0000"/>
    <path d="M 268.144411 77.365213 
L 278.093894 81.218817 
L 277.868744 78.833787 
L 286.698327 85.700373 
L 275.547068 84.82804 
L 277.320002 83.216901 
L 267.370519 79.363297 
L 268.144411 77.365213 
" clip-path="url(#p8d4b2630b9)" style="fill: #ff0000"/>
    <path d="M 365.505803 149.507139 
L 368.762266 159.026999 
L 370.442898 157.319797 
L 370.869363 168.496991 
L 364.36074 159.400324 
L 366.73488 159.720508 
L 363.478417 150.200648 
L 365.505803 149.507139 
" clip-path="url(#p8d4b2630b9)" style="fill: #ff0000"/>
    <path d="M 191.484877 172.35918 
L 195.657464 163.159052 
L 193.263547 163.249723 
L 200.615803 154.820259 
L 199.117753 165.904815 
L 197.608866 164.044083 
L 193.436279 173.24421 
L 191.484877 172.35918 
" clip-path="url(#p8d4b2630b9)" style="fill: #ff0000"/>
    <path d="M 175.525564 65.659588 
L 184.757007 61.09673 
L 182.84712 59.650565 
L 193.875719 57.784678 
L 185.69545 65.413226 
L 185.70645 63.017617 
L 176.475007 67.580475 
L 175.525564 65.659588 
" clip-path="url(#p8d4b2630b9)" style="fill: #ff0000"/>
    <path d="M 306.382433 220.624006 
L 302.786879 229.81562 
L 305.172651 229.598468 
L 298.2765 238.404979 
L 299.186216 227.256708 
L 300.791401 229.035034 
L 304.386955 219.84342 
L 306.382433 220.624006 
" clip-path="url(#p8d4b2630b9)" style="fill: #ff0000"/>
    <path d="M 212.945234 256.535102 
L 201.57538 253.019255 
L 201.965911 255.382842 
L 192.680012 249.147169 
L 203.864941 249.241594 
L 202.208389 250.972172 
L 213.578244 254.488019 
L 212.945234 256.535102 
" clip-path="url(#p8d4b2630b9)" style="fill: #ff0000"/>
   </g>
   <g id="matplotlib.axis_1">
    <g id="xtick_1">
     <g id="line2d_1">
      <defs>
       <path id="ma44b278ae1" d="M 0 0 
L 0 3.5 
" style="stroke: #000000; stroke-width: 0.8"/>
      </defs>
      <g>
       <use xlink:href="#ma44b278ae1" x="67.177755" y="307.584" style="stroke: #000000; stroke-width: 0.8"/>
      </g>
     </g>
     <g id="text_1">
      <!-- −2.0 -->
      <g transform="translate(52.608067 323.702125) scale(0.12 -0.12)">
       <defs>
        <path id="DejaVuSans-2212" d="M 678 2272 
L 4684 2272 
L 4684 1741 
L 678 1741 
L 678 2272 
z
" transform="scale(0.015625)"/>
        <path id="DejaVuSans-32" d="M 1228 531 
L 3431 531 
L 3431 0 
L 469 0 
L 469 531 
Q 828 903 1448 1529 
Q 2069 2156 2228 2338 
Q 2531 2678 2651 2914 
Q 2772 3150 2772 3378 
Q 2772 3750 2511 3984 
Q 2250 4219 1831 4219 
Q 1534 4219 1204 4116 
Q 875 4013 500 3803 
L 500 4441 
Q 881 4594 1212 4672 
Q 1544 4750 1819 4750 
Q 2544 4750 2975 4387 
Q 3406 4025 3406 3419 
Q 3406 3131 3298 2873 
Q 3191 2616 2906 2266 
Q 2828 2175 2409 1742 
Q 1991 1309 1228 531 
z
" transform="scale(0.015625)"/>
        <path id="DejaVuSans-2e" d="M 684 794 
L 1344 794 
L 1344 0 
L 684 0 
L 684 794 
z
" transform="scale(0.015625)"/>
        <path id="DejaVuSans-30" d="M 2034 4250 
Q 1547 4250 1301 3770 
Q 1056 3291 1056 2328 
Q 1056 1369 1301 889 
Q 1547 409 2034 409 
Q 2525 409 2770 889 
Q 3016 1369 3016 2328 
Q 3016 3291 2770 3770 
Q 2525 4250 2034 4250 
z
M 2034 4750 
Q 2819 4750 3233 4129 
Q 3647 3509 3647 2328 
Q 3647 1150 3233 529 
Q 2819 -91 2034 -91 
Q 1250 -91 836 529 
Q 422 1150 422 2328 
Q 422 3509 836 4129 
Q 1250 4750 2034 4750 
z
" transform="scale(0.015625)"/>
       </defs>
       <use xlink:href="#DejaVuSans-2212"/>
       <use xlink:href="#DejaVuSans-32" transform="translate(83.789062 0)"/>
       <use xlink:href="#DejaVuSans-2e" transform="translate(147.412109 0)"/>
       <use xlink:href="#DejaVuSans-30" transform="translate(179.199219 0)"/>
      </g>
     </g>
    </g>
    <g id="xtick_2">
     <g id="line2d_2">
      <g>
       <use xlink:href="#ma44b278ae1" x="110.847676" y="307.584" style="stroke: #000000; stroke-width: 0.8"/>
      </g>
     </g>
     <g id="text_2">
      <!-- −1.5 -->
      <g transform="translate(96.277988 323.702125) scale(0.12 -0.12)">
       <defs>
        <path id="DejaVuSans-31" d="M 794 531 
L 1825 531 
L 1825 4091 
L 703 3866 
L 703 4441 
L 1819 4666 
L 2450 4666 
L 2450 531 
L 3481 531 
L 3481 0 
L 794 0 
L 794 531 
z
" transform="scale(0.015625)"/>
        <path id="DejaVuSans-35" d="M 691 4666 
L 3169 4666 
L 3169 4134 
L 1269 4134 
L 1269 2991 
Q 1406 3038 1543 3061 
Q 1681 3084 1819 3084 
Q 2600 3084 3056 2656 
Q 3513 2228 3513 1497 
Q 3513 744 3044 326 
Q 2575 -91 1722 -91 
Q 1428 -91 1123 -41 
Q 819 9 494 109 
L 494 744 
Q 775 591 1075 516 
Q 1375 441 1709 441 
Q 2250 441 2565 725 
Q 2881 1009 2881 1497 
Q 2881 1984 2565 2268 
Q 2250 2553 1709 2553 
Q 1456 2553 1204 2497 
Q 953 2441 691 2322 
L 691 4666 
z
" transform="scale(0.015625)"/>
       </defs>
       <use xlink:href="#DejaVuSans-2212"/>
       <use xlink:href="#DejaVuSans-31" transform="translate(83.789062 0)"/>
       <use xlink:href="#DejaVuSans-2e" transform="translate(147.412109 0)"/>
       <use xlink:href="#DejaVuSans-35" transform="translate(179.199219 0)"/>
      </g>
     </g>
    </g>
    <g id="xtick_3">
     <g id="line2d_3">
      <g>
       <use xlink:href="#ma44b278ae1" x="154.517597" y="307.584" style="stroke: #000000; stroke-width: 0.8"/>
      </g>
     </g>
     <g id="text_3">
      <!-- −1.0 -->
      <g transform="translate(139.94791 323.702125) scale(0.12 -0.12)">
       <use xlink:href="#DejaVuSans-2212"/>
       <use xlink:href="#DejaVuSans-31" transform="translate(83.789062 0)"/>
       <use xlink:href="#DejaVuSans-2e" transform="translate(147.412109 0)"/>
       <use xlink:href="#DejaVuSans-30" transform="translate(179.199219 0)"/>
      </g>
     </g>
    </g>
    <g id="xtick_4">
     <g id="line2d_4">
      <g>
       <use xlink:href="#ma44b278ae1" x="198.187518" y="307.584" style="stroke: #000000; stroke-width: 0.8"/>
      </g>
     </g>
     <g id="text_4">
      <!-- −0.5 -->
      <g transform="translate(183.617831 323.702125) scale(0.12 -0.12)">
       <use xlink:href="#DejaVuSans-2212"/>
       <use xlink:href="#DejaVuSans-30" transform="translate(83.789062 0)"/>
       <use xlink:href="#DejaVuSans-2e" transform="translate(147.412109 0)"/>
       <use xlink:href="#DejaVuSans-35" transform="translate(179.199219 0)"/>
      </g>
     </g>
    </g>
    <g id="xtick_5">
     <g id="line2d_5">
      <g>
       <use xlink:href="#ma44b278ae1" x="241.857439" y="307.584" style="stroke: #000000; stroke-width: 0.8"/>
      </g>
     </g>
     <g id="text_5">
      <!-- 0.0 -->
      <g transform="translate(232.315564 323.702125) scale(0.12 -0.12)">
       <use xlink:href="#DejaVuSans-30"/>
       <use xlink:href="#DejaVuSans-2e" transform="translate(63.623047 0)"/>
       <use xlink:href="#DejaVuSans-30" transform="translate(95.410156 0)"/>
      </g>
     </g>
    </g>
    <g id="xtick_6">
     <g id="line2d_6">
      <g>
       <use xlink:href="#ma44b278ae1" x="285.52736" y="307.584" style="stroke: #000000; stroke-width: 0.8"/>
      </g>
     </g>
     <g id="text_6">
      <!-- 0.5 -->
      <g transform="translate(275.985485 323.702125) scale(0.12 -0.12)">
       <use xlink:href="#DejaVuSans-30"/>
       <use xlink:href="#DejaVuSans-2e" transform="translate(63.623047 0)"/>
       <use xlink:href="#DejaVuSans-35" transform="translate(95.410156 0)"/>
      </g>
     </g>
    </g>
    <g id="xtick_7">
     <g id="line2d_7">
      <g>
       <use xlink:href="#ma44b278ae1" x="329.197282" y="307.584" style="stroke: #000000; stroke-width: 0.8"/>
      </g>
     </g>
     <g id="text_7">
      <!-- 1.0 -->
      <g transform="translate(319.655407 323.702125) scale(0.12 -0.12)">
       <use xlink:href="#DejaVuSans-31"/>
       <use xlink:href="#DejaVuSans-2e" transform="translate(63.623047 0)"/>
       <use xlink:href="#DejaVuSans-30" transform="translate(95.410156 0)"/>
      </g>
     </g>
    </g>
    <g id="xtick_8">
     <g id="line2d_8">
      <g>
       <use xlink:href="#ma44b278ae1" x="372.867203" y="307.584" style="stroke: #000000; stroke-width: 0.8"/>
      </g>
     </g>
     <g id="text_8">
      <!-- 1.5 -->
      <g transform="translate(363.325328 323.702125) scale(0.12 -0.12)">
       <use xlink:href="#DejaVuSans-31"/>
       <use xlink:href="#DejaVuSans-2e" transform="translate(63.623047 0)"/>
       <use xlink:href="#DejaVuSans-35" transform="translate(95.410156 0)"/>
      </g>
     </g>
    </g>
    <g id="text_9">
     <!-- x -->
     <g transform="translate(232.016875 340.835562) scale(0.14 -0.14)">
      <defs>
       <path id="DejaVuSans-78" d="M 3513 3500 
L 2247 1797 
L 3578 0 
L 2900 0 
L 1881 1375 
L 863 0 
L 184 0 
L 1544 1831 
L 300 3500 
L 978 3500 
L 1906 2253 
L 2834 3500 
L 3513 3500 
z
" transform="scale(0.015625)"/>
      </defs>
      <use xlink:href="#DejaVuSans-78"/>
     </g>
    </g>
   </g>
   <g id="matplotlib.axis_2">
    <g id="ytick_1">
     <g id="line2d_9">
      <defs>
       <path id="mffcbf97ea6" d="M 0 0 
L -3.5 0 
" style="stroke: #000000; stroke-width: 0.8"/>
      </defs>
      <g>
       <use xlink:href="#mffcbf97ea6" x="57.6" y="302.308132" style="stroke: #000000; stroke-width: 0.8"/>
      </g>
     </g>
     <g id="text_10">
      <!-- −1.0 -->
      <g transform="translate(21.460625 306.867195) scale(0.12 -0.12)">
       <use xlink:href="#DejaVuSans-2212"/>
       <use xlink:href="#DejaVuSans-31" transform="translate(83.789062 0)"/>
       <use xlink:href="#DejaVuSans-2e" transform="translate(147.412109 0)"/>
       <use xlink:href="#DejaVuSans-30" transform="translate(179.199219 0)"/>
      </g>
     </g>
    </g>
    <g id="ytick_2">
     <g id="line2d_10">
      <g>
       <use xlink:href="#mffcbf97ea6" x="57.6" y="258.638211" style="stroke: #000000; stroke-width: 0.8"/>
      </g>
     </g>
     <g id="text_11">
      <!-- −0.5 -->
      <g transform="translate(21.460625 263.197274) scale(0.12 -0.12)">
       <use xlink:href="#DejaVuSans-2212"/>
       <use xlink:href="#DejaVuSans-30" transform="translate(83.789062 0)"/>
       <use xlink:href="#DejaVuSans-2e" transform="translate(147.412109 0)"/>
       <use xlink:href="#DejaVuSans-35" transform="translate(179.199219 0)"/>
      </g>
     </g>
    </g>
    <g id="ytick_3">
     <g id="line2d_11">
      <g>
       <use xlink:href="#mffcbf97ea6" x="57.6" y="214.96829" style="stroke: #000000; stroke-width: 0.8"/>
      </g>
     </g>
     <g id="text_12">
      <!-- 0.0 -->
      <g transform="translate(31.51625 219.527353) scale(0.12 -0.12)">
       <use xlink:href="#DejaVuSans-30"/>
       <use xlink:href="#DejaVuSans-2e" transform="translate(63.623047 0)"/>
       <use xlink:href="#DejaVuSans-30" transform="translate(95.410156 0)"/>
      </g>
     </g>
    </g>
    <g id="ytick_4">
     <g id="line2d_12">
      <g>
       <use xlink:href="#mffcbf97ea6" x="57.6" y="171.298369" style="stroke: #000000; stroke-width: 0.8"/>
      </g>
     </g>
     <g id="text_13">
      <!-- 0.5 -->
      <g transform="translate(31.51625 175.857431) scale(0.12 -0.12)">
       <use xlink:href="#DejaVuSans-30"/>
       <use xlink:href="#DejaVuSans-2e" transform="translate(63.623047 0)"/>
       <use xlink:href="#DejaVuSans-35" transform="translate(95.410156 0)"/>
      </g>
     </g>
    </g>
    <g id="ytick_5">
     <g id="line2d_13">
      <g>
       <use xlink:href="#mffcbf97ea6" x="57.6" y="127.628448" style="stroke: #000000; stroke-width: 0.8"/>
      </g>
     </g>
     <g id="text_14">
      <!-- 1.0 -->
      <g transform="translate(31.51625 132.18751) scale(0.12 -0.12)">
       <use xlink:href="#DejaVuSans-31"/>
       <use xlink:href="#DejaVuSans-2e" transform="translate(63.623047 0)"/>
       <use xlink:href="#DejaVuSans-30" transform="translate(95.410156 0)"/>
      </g>
     </g>
    </g>
    <g id="ytick_6">
     <g id="line2d_14">
      <g>
       <use xlink:href="#mffcbf97ea6" x="57.6" y="83.958527" style="stroke: #000000; stroke-width: 0.8"/>
      </g>
     </g>
     <g id="text_15">
      <!-- 1.5 -->
      <g transform="translate(31.51625 88.517589) scale(0.12 -0.12)">
       <use xlink:href="#DejaVuSans-31"/>
       <use xlink:href="#DejaVuSans-2e" transform="translate(63.623047 0)"/>
       <use xlink:href="#DejaVuSans-35" transform="translate(95.410156 0)"/>
      </g>
     </g>
    </g>
    <g id="text_16">
     <!-- y -->
     <g transform="translate(14.549063 178.671125) rotate(-90) scale(0.14 -0.14)">
      <defs>
       <path id="DejaVuSans-79" d="M 2059 -325 
Q 1816 -950 1584 -1140 
Q 1353 -1331 966 -1331 
L 506 -1331 
L 506 -850 
L 844 -850 
Q 1081 -850 1212 -737 
Q 1344 -625 1503 -206 
L 1606 56 
L 191 3500 
L 800 3500 
L 1894 763 
L 2988 3500 
L 3597 3500 
L 2059 -325 
z
" transform="scale(0.015625)"/>
      </defs>
      <use xlink:href="#DejaVuSans-79"/>
     </g>
    </g>
   </g>
   <g id="patch_3">
    <path d="M 57.6 307.584 
L 57.6 41.472 
" style="fill: none; stroke: #000000; stroke-width: 0.8; stroke-linejoin: miter; stroke-linecap: square"/>
   </g>
   <g id="patch_4">
    <path d="M 414.72 307.584 
L 414.72 41.472 
" style="fill: none; stroke: #000000; stroke-width: 0.8; stroke-linejoin: miter; stroke-linecap: square"/>
   </g>
   <g id="patch_5">
    <path d="M 57.6 307.584 
L 414.72 307.584 
" style="fill: none; stroke: #000000; stroke-width: 0.8; stroke-linejoin: miter; stroke-linecap: square"/>
   </g>
   <g id="patch_6">
    <path d="M 57.6 41.472 
L 414.72 41.472 
" style="fill: none; stroke: #000000; stroke-width: 0.8; stroke-linejoin: miter; stroke-linecap: square"/>
   </g>
   <g id="text_17">
    <!-- Velocities at the final time -->
    <g transform="translate(116.81 35.472) scale(0.16 -0.16)">
     <defs>
      <path id="DejaVuSans-Bold-56" d="M 31 4666 
L 1241 4666 
L 2478 1222 
L 3713 4666 
L 4922 4666 
L 3194 0 
L 1759 0 
L 31 4666 
z
" transform="scale(0.015625)"/>
      <path id="DejaVuSans-Bold-65" d="M 4031 1759 
L 4031 1441 
L 1416 1441 
Q 1456 1047 1700 850 
Q 1944 653 2381 653 
Q 2734 653 3104 758 
Q 3475 863 3866 1075 
L 3866 213 
Q 3469 63 3072 -14 
Q 2675 -91 2278 -91 
Q 1328 -91 801 392 
Q 275 875 275 1747 
Q 275 2603 792 3093 
Q 1309 3584 2216 3584 
Q 3041 3584 3536 3087 
Q 4031 2591 4031 1759 
z
M 2881 2131 
Q 2881 2450 2695 2645 
Q 2509 2841 2209 2841 
Q 1884 2841 1681 2658 
Q 1478 2475 1428 2131 
L 2881 2131 
z
" transform="scale(0.015625)"/>
      <path id="DejaVuSans-Bold-6c" d="M 538 4863 
L 1656 4863 
L 1656 0 
L 538 0 
L 538 4863 
z
" transform="scale(0.015625)"/>
      <path id="DejaVuSans-Bold-6f" d="M 2203 2784 
Q 1831 2784 1636 2517 
Q 1441 2250 1441 1747 
Q 1441 1244 1636 976 
Q 1831 709 2203 709 
Q 2569 709 2762 976 
Q 2956 1244 2956 1747 
Q 2956 2250 2762 2517 
Q 2569 2784 2203 2784 
z
M 2203 3584 
Q 3106 3584 3614 3096 
Q 4122 2609 4122 1747 
Q 4122 884 3614 396 
Q 3106 -91 2203 -91 
Q 1297 -91 786 396 
Q 275 884 275 1747 
Q 275 2609 786 3096 
Q 1297 3584 2203 3584 
z
" transform="scale(0.015625)"/>
      <path id="DejaVuSans-Bold-63" d="M 3366 3391 
L 3366 2478 
Q 3138 2634 2908 2709 
Q 2678 2784 2431 2784 
Q 1963 2784 1702 2511 
Q 1441 2238 1441 1747 
Q 1441 1256 1702 982 
Q 1963 709 2431 709 
Q 2694 709 2930 787 
Q 3166 866 3366 1019 
L 3366 103 
Q 3103 6 2833 -42 
Q 2563 -91 2291 -91 
Q 1344 -91 809 395 
Q 275 881 275 1747 
Q 275 2613 809 3098 
Q 1344 3584 2291 3584 
Q 2566 3584 2833 3536 
Q 3100 3488 3366 3391 
z
" transform="scale(0.015625)"/>
      <path id="DejaVuSans-Bold-69" d="M 538 3500 
L 1656 3500 
L 1656 0 
L 538 0 
L 538 3500 
z
M 538 4863 
L 1656 4863 
L 1656 3950 
L 538 3950 
L 538 4863 
z
" transform="scale(0.015625)"/>
      <path id="DejaVuSans-Bold-74" d="M 1759 4494 
L 1759 3500 
L 2913 3500 
L 2913 2700 
L 1759 2700 
L 1759 1216 
Q 1759 972 1856 886 
Q 1953 800 2241 800 
L 2816 800 
L 2816 0 
L 1856 0 
Q 1194 0 917 276 
Q 641 553 641 1216 
L 641 2700 
L 84 2700 
L 84 3500 
L 641 3500 
L 641 4494 
L 1759 4494 
z
" transform="scale(0.015625)"/>
      <path id="DejaVuSans-Bold-73" d="M 3272 3391 
L 3272 2541 
Q 2913 2691 2578 2766 
Q 2244 2841 1947 2841 
Q 1628 2841 1473 2761 
Q 1319 2681 1319 2516 
Q 1319 2381 1436 2309 
Q 1553 2238 1856 2203 
L 2053 2175 
Q 2913 2066 3209 1816 
Q 3506 1566 3506 1031 
Q 3506 472 3093 190 
Q 2681 -91 1863 -91 
Q 1516 -91 1145 -36 
Q 775 19 384 128 
L 384 978 
Q 719 816 1070 734 
Q 1422 653 1784 653 
Q 2113 653 2278 743 
Q 2444 834 2444 1013 
Q 2444 1163 2330 1236 
Q 2216 1309 1875 1350 
L 1678 1375 
Q 931 1469 631 1722 
Q 331 1975 331 2491 
Q 331 3047 712 3315 
Q 1094 3584 1881 3584 
Q 2191 3584 2531 3537 
Q 2872 3491 3272 3391 
z
" transform="scale(0.015625)"/>
      <path id="DejaVuSans-Bold-20" transform="scale(0.015625)"/>
      <path id="DejaVuSans-Bold-61" d="M 2106 1575 
Q 1756 1575 1579 1456 
Q 1403 1338 1403 1106 
Q 1403 894 1545 773 
Q 1688 653 1941 653 
Q 2256 653 2472 879 
Q 2688 1106 2688 1447 
L 2688 1575 
L 2106 1575 
z
M 3816 1997 
L 3816 0 
L 2688 0 
L 2688 519 
Q 2463 200 2181 54 
Q 1900 -91 1497 -91 
Q 953 -91 614 226 
Q 275 544 275 1050 
Q 275 1666 698 1953 
Q 1122 2241 2028 2241 
L 2688 2241 
L 2688 2328 
Q 2688 2594 2478 2717 
Q 2269 2841 1825 2841 
Q 1466 2841 1156 2769 
Q 847 2697 581 2553 
L 581 3406 
Q 941 3494 1303 3539 
Q 1666 3584 2028 3584 
Q 2975 3584 3395 3211 
Q 3816 2838 3816 1997 
z
" transform="scale(0.015625)"/>
      <path id="DejaVuSans-Bold-68" d="M 4056 2131 
L 4056 0 
L 2931 0 
L 2931 347 
L 2931 1625 
Q 2931 2084 2911 2256 
Q 2891 2428 2841 2509 
Q 2775 2619 2662 2680 
Q 2550 2741 2406 2741 
Q 2056 2741 1856 2470 
Q 1656 2200 1656 1722 
L 1656 0 
L 538 0 
L 538 4863 
L 1656 4863 
L 1656 2988 
Q 1909 3294 2193 3439 
Q 2478 3584 2822 3584 
Q 3428 3584 3742 3212 
Q 4056 2841 4056 2131 
z
" transform="scale(0.015625)"/>
      <path id="DejaVuSans-Bold-66" d="M 2841 4863 
L 2841 4128 
L 2222 4128 
Q 1984 4128 1890 4042 
Q 1797 3956 1797 3744 
L 1797 3500 
L 2753 3500 
L 2753 2700 
L 1797 2700 
L 1797 0 
L 678 0 
L 678 2700 
L 122 2700 
L 122 3500 
L 678 3500 
L 678 3744 
Q 678 4316 997 4589 
Q 1316 4863 1984 4863 
L 2841 4863 
z
" transform="scale(0.015625)"/>
      <path id="DejaVuSans-Bold-6e" d="M 4056 2131 
L 4056 0 
L 2931 0 
L 2931 347 
L 2931 1631 
Q 2931 2084 2911 2256 
Q 2891 2428 2841 2509 
Q 2775 2619 2662 2680 
Q 2550 2741 2406 2741 
Q 2056 2741 1856 2470 
Q 1656 2200 1656 1722 
L 1656 0 
L 538 0 
L 538 3500 
L 1656 3500 
L 1656 2988 
Q 1909 3294 2193 3439 
Q 2478 3584 2822 3584 
Q 3428 3584 3742 3212 
Q 4056 2841 4056 2131 
z
" transform="scale(0.015625)"/>
      <path id="DejaVuSans-Bold-6d" d="M 3781 2919 
Q 3994 3244 4286 3414 
Q 4578 3584 4928 3584 
Q 5531 3584 5847 3212 
Q 6163 2841 6163 2131 
L 6163 0 
L 5038 0 
L 5038 1825 
Q 5041 1866 5042 1909 
Q 5044 1953 5044 2034 
Q 5044 2406 4934 2573 
Q 4825 2741 4581 2741 
Q 4263 2741 4089 2478 
Q 3916 2216 3909 1719 
L 3909 0 
L 2784 0 
L 2784 1825 
Q 2784 2406 2684 2573 
Q 2584 2741 2328 2741 
Q 2006 2741 1831 2477 
Q 1656 2213 1656 1722 
L 1656 0 
L 531 0 
L 531 3500 
L 1656 3500 
L 1656 2988 
Q 1863 3284 2130 3434 
Q 2397 3584 2719 3584 
Q 3081 3584 3359 3409 
Q 3638 3234 3781 2919 
z
" transform="scale(0.015625)"/>
     </defs>
     <use xlink:href="#DejaVuSans-Bold-56"/>
     <use xlink:href="#DejaVuSans-Bold-65" transform="translate(71.892578 0)"/>
     <use xlink:href="#DejaVuSans-Bold-6c" transform="translate(139.714844 0)"/>
     <use xlink:href="#DejaVuSans-Bold-6f" transform="translate(173.992188 0)"/>
     <use xlink:href="#DejaVuSans-Bold-63" transform="translate(242.693359 0)"/>
     <use xlink:href="#DejaVuSans-Bold-69" transform="translate(301.970703 0)"/>
     <use xlink:href="#DejaVuSans-Bold-74" transform="translate(336.248047 0)"/>
     <use xlink:href="#DejaVuSans-Bold-69" transform="translate(384.050781 0)"/>
     <use xlink:href="#DejaVuSans-Bold-65" transform="translate(418.328125 0)"/>
     <use xlink:href="#DejaVuSans-Bold-73" transform="translate(486.150391 0)"/>
     <use xlink:href="#DejaVuSans-Bold-20" transform="translate(545.671875 0)"/>
     <use xlink:href="#DejaVuSans-Bold-61" transform="translate(580.486328 0)"/>
     <use xlink:href="#DejaVuSans-Bold-74" transform="translate(647.966797 0)"/>
     <use xlink:href="#DejaVuSans-Bold-20" transform="translate(695.769531 0)"/>
     <use xlink:href="#DejaVuSans-Bold-74" transform="translate(730.583984 0)"/>
     <use xlink:href="#DejaVuSans-Bold-68" transform="translate(778.386719 0)"/>
     <use xlink:href="#DejaVuSans-Bold-65" transform="translate(849.578125 0)"/>
     <use xlink:href="#DejaVuSans-Bold-20" transform="translate(917.400391 0)"/>
     <use xlink:href="#DejaVuSans-Bold-66" transform="translate(952.214844 0)"/>
     <use xlink:href="#DejaVuSans-Bold-69" transform="translate(995.720703 0)"/>
     <use xlink:href="#DejaVuSans-Bold-6e" transform="translate(1029.998047 0)"/>
     <use xlink:href="#DejaVuSans-Bold-61" transform="translate(1101.189453 0)"/>
     <use xlink:href="#DejaVuSans-Bold-6c" transform="translate(1168.669922 0)"/>
     <use xlink:href="#DejaVuSans-Bold-20" transform="translate(1202.947266 0)"/>
     <use xlink:href="#DejaVuSans-Bold-74" transform="translate(1237.761719 0)"/>
     <use xlink:href="#DejaVuSans-Bold-69" transform="translate(1285.564453 0)"/>
     <use xlink:href="#DejaVuSans-Bold-6d" transform="translate(1319.841797 0)"/>
     <use xlink:href="#DejaVuSans-Bold-65" transform="translate(1424.041016 0)"/>
    </g>
   </g>
   <g id="legend_1">
    <g id="patch_7">
     <path d="M 328.266875 78.82825 
L 407.72 78.82825 
Q 409.72 78.82825 409.72 76.82825 
L 409.72 48.472 
Q 409.72 46.472 407.72 46.472 
L 328.266875 46.472 
Q 326.266875 46.472 326.266875 48.472 
L 326.266875 76.82825 
Q 326.266875 78.82825 328.266875 78.82825 
z
" style="fill: #ffffff; opacity: 0.8; stroke: #cccccc; stroke-linejoin: miter"/>
    </g>
    <g id="PathCollection_2">
     <g>
      <use xlink:href="#mc89ec05c85" x="340.266875" y="55.445437" style="fill: #0000ff; stroke: #0000ff"/>
     </g>
    </g>
    <g id="text_18">
     <!-- Positions -->
     <g transform="translate(358.266875 58.070437) scale(0.1 -0.1)">
      <defs>
       <path id="DejaVuSans-50" d="M 1259 4147 
L 1259 2394 
L 2053 2394 
Q 2494 2394 2734 2622 
Q 2975 2850 2975 3272 
Q 2975 3691 2734 3919 
Q 2494 4147 2053 4147 
L 1259 4147 
z
M 628 4666 
L 2053 4666 
Q 2838 4666 3239 4311 
Q 3641 3956 3641 3272 
Q 3641 2581 3239 2228 
Q 2838 1875 2053 1875 
L 1259 1875 
L 1259 0 
L 628 0 
L 628 4666 
z
" transform="scale(0.015625)"/>
       <path id="DejaVuSans-6f" d="M 1959 3097 
Q 1497 3097 1228 2736 
Q 959 2375 959 1747 
Q 959 1119 1226 758 
Q 1494 397 1959 397 
Q 2419 397 2687 759 
Q 2956 1122 2956 1747 
Q 2956 2369 2687 2733 
Q 2419 3097 1959 3097 
z
M 1959 3584 
Q 2709 3584 3137 3096 
Q 3566 2609 3566 1747 
Q 3566 888 3137 398 
Q 2709 -91 1959 -91 
Q 1206 -91 779 398 
Q 353 888 353 1747 
Q 353 2609 779 3096 
Q 1206 3584 1959 3584 
z
" transform="scale(0.015625)"/>
       <path id="DejaVuSans-73" d="M 2834 3397 
L 2834 2853 
Q 2591 2978 2328 3040 
Q 2066 3103 1784 3103 
Q 1356 3103 1142 2972 
Q 928 2841 928 2578 
Q 928 2378 1081 2264 
Q 1234 2150 1697 2047 
L 1894 2003 
Q 2506 1872 2764 1633 
Q 3022 1394 3022 966 
Q 3022 478 2636 193 
Q 2250 -91 1575 -91 
Q 1294 -91 989 -36 
Q 684 19 347 128 
L 347 722 
Q 666 556 975 473 
Q 1284 391 1588 391 
Q 1994 391 2212 530 
Q 2431 669 2431 922 
Q 2431 1156 2273 1281 
Q 2116 1406 1581 1522 
L 1381 1569 
Q 847 1681 609 1914 
Q 372 2147 372 2553 
Q 372 3047 722 3315 
Q 1072 3584 1716 3584 
Q 2034 3584 2315 3537 
Q 2597 3491 2834 3397 
z
" transform="scale(0.015625)"/>
       <path id="DejaVuSans-69" d="M 603 3500 
L 1178 3500 
L 1178 0 
L 603 0 
L 603 3500 
z
M 603 4863 
L 1178 4863 
L 1178 4134 
L 603 4134 
L 603 4863 
z
" transform="scale(0.015625)"/>
       <path id="DejaVuSans-74" d="M 1172 4494 
L 1172 3500 
L 2356 3500 
L 2356 3053 
L 1172 3053 
L 1172 1153 
Q 1172 725 1289 603 
Q 1406 481 1766 481 
L 2356 481 
L 2356 0 
L 1766 0 
Q 1100 0 847 248 
Q 594 497 594 1153 
L 594 3053 
L 172 3053 
L 172 3500 
L 594 3500 
L 594 4494 
L 1172 4494 
z
" transform="scale(0.015625)"/>
       <path id="DejaVuSans-6e" d="M 3513 2113 
L 3513 0 
L 2938 0 
L 2938 2094 
Q 2938 2591 2744 2837 
Q 2550 3084 2163 3084 
Q 1697 3084 1428 2787 
Q 1159 2491 1159 1978 
L 1159 0 
L 581 0 
L 581 3500 
L 1159 3500 
L 1159 2956 
Q 1366 3272 1645 3428 
Q 1925 3584 2291 3584 
Q 2894 3584 3203 3211 
Q 3513 2838 3513 2113 
z
" transform="scale(0.015625)"/>
      </defs>
      <use xlink:href="#DejaVuSans-50"/>
      <use xlink:href="#DejaVuSans-6f" transform="translate(56.677734 0)"/>
      <use xlink:href="#DejaVuSans-73" transform="translate(117.859375 0)"/>
      <use xlink:href="#DejaVuSans-69" transform="translate(169.958984 0)"/>
      <use xlink:href="#DejaVuSans-74" transform="translate(197.742188 0)"/>
      <use xlink:href="#DejaVuSans-69" transform="translate(236.951172 0)"/>
      <use xlink:href="#DejaVuSans-6f" transform="translate(264.734375 0)"/>
      <use xlink:href="#DejaVuSans-6e" transform="translate(325.916016 0)"/>
      <use xlink:href="#DejaVuSans-73" transform="translate(389.294922 0)"/>
     </g>
    </g>
    <g id="patch_8">
     <path d="M 330.266875 72.748562 
L 350.266875 72.748562 
L 350.266875 65.748562 
L 330.266875 65.748562 
z
" style="fill: #ff0000"/>
    </g>
    <g id="text_19">
     <!-- Velocities -->
     <g transform="translate(358.266875 72.748562) scale(0.1 -0.1)">
      <defs>
       <path id="DejaVuSans-56" d="M 1831 0 
L 50 4666 
L 709 4666 
L 2188 738 
L 3669 4666 
L 4325 4666 
L 2547 0 
L 1831 0 
z
" transform="scale(0.015625)"/>
       <path id="DejaVuSans-65" d="M 3597 1894 
L 3597 1613 
L 953 1613 
Q 991 1019 1311 708 
Q 1631 397 2203 397 
Q 2534 397 2845 478 
Q 3156 559 3463 722 
L 3463 178 
Q 3153 47 2828 -22 
Q 2503 -91 2169 -91 
Q 1331 -91 842 396 
Q 353 884 353 1716 
Q 353 2575 817 3079 
Q 1281 3584 2069 3584 
Q 2775 3584 3186 3129 
Q 3597 2675 3597 1894 
z
M 3022 2063 
Q 3016 2534 2758 2815 
Q 2500 3097 2075 3097 
Q 1594 3097 1305 2825 
Q 1016 2553 972 2059 
L 3022 2063 
z
" transform="scale(0.015625)"/>
       <path id="DejaVuSans-6c" d="M 603 4863 
L 1178 4863 
L 1178 0 
L 603 0 
L 603 4863 
z
" transform="scale(0.015625)"/>
       <path id="DejaVuSans-63" d="M 3122 3366 
L 3122 2828 
Q 2878 2963 2633 3030 
Q 2388 3097 2138 3097 
Q 1578 3097 1268 2742 
Q 959 2388 959 1747 
Q 959 1106 1268 751 
Q 1578 397 2138 397 
Q 2388 397 2633 464 
Q 2878 531 3122 666 
L 3122 134 
Q 2881 22 2623 -34 
Q 2366 -91 2075 -91 
Q 1284 -91 818 406 
Q 353 903 353 1747 
Q 353 2603 823 3093 
Q 1294 3584 2113 3584 
Q 2378 3584 2631 3529 
Q 2884 3475 3122 3366 
z
" transform="scale(0.015625)"/>
      </defs>
      <use xlink:href="#DejaVuSans-56"/>
      <use xlink:href="#DejaVuSans-65" transform="translate(60.658203 0)"/>
      <use xlink:href="#DejaVuSans-6c" transform="translate(122.181641 0)"/>
      <use xlink:href="#DejaVuSans-6f" transform="translate(149.964844 0)"/>
      <use xlink:href="#DejaVuSans-63" transform="translate(211.146484 0)"/>
      <use xlink:href="#DejaVuSans-69" transform="translate(266.126953 0)"/>
      <use xlink:href="#DejaVuSans-74" transform="translate(293.910156 0)"/>
      <use xlink:href="#DejaVuSans-69" transform="translate(333.119141 0)"/>
      <use xlink:href="#DejaVuSans-65" transform="translate(360.902344 0)"/>
      <use xlink:href="#DejaVuSans-73" transform="translate(422.425781 0)"/>
     </g>
    </g>
   </g>
  </g>
 </g>
 <defs>
  <clipPath id="p8d4b2630b9">
   <rect x="57.6" y="41.472" width="357.12" height="266.112"/>
  </clipPath>
 </defs>
</svg>
