<?xml version="1.0" encoding="utf-8" standalone="no"?>
<!DOCTYPE svg PUBLIC "-//W3C//DTD SVG 1.1//EN"
  "http://www.w3.org/Graphics/SVG/1.1/DTD/svg11.dtd">
<svg xmlns:xlink="http://www.w3.org/1999/xlink" width="460.8pt" height="345.6pt" viewBox="0 0 460.8 345.6" xmlns="http://www.w3.org/2000/svg" version="1.1">
 <metadata>
  <rdf:RDF xmlns:dc="http://purl.org/dc/elements/1.1/" xmlns:cc="http://creativecommons.org/ns#" xmlns:rdf="http://www.w3.org/1999/02/22-rdf-syntax-ns#">
   <cc:Work>
    <dc:type rdf:resource="http://purl.org/dc/dcmitype/StillImage"/>
    <dc:date>2025-05-05T23:22:02.486920</dc:date>
    <dc:format>image/svg+xml</dc:format>
    <dc:creator>
     <cc:Agent>
      <dc:title>Matplotlib v3.10.1, https://matplotlib.org/</dc:title>
     </cc:Agent>
    </dc:creator>
   </cc:Work>
  </rdf:RDF>
 </metadata>
 <defs>
  <style type="text/css">*{stroke-linejoin: round; stroke-linecap: butt}</style>
 </defs>
 <g id="figure_1">
  <g id="patch_1">
   <path d="M 0 345.6 
L 460.8 345.6 
L 460.8 0 
L 0 0 
z
" style="fill: #ffffff"/>
  </g>
  <g id="axes_1">
   <g id="patch_2">
    <path d="M 57.6 307.584 
L 414.72 307.584 
L 414.72 41.472 
L 57.6 41.472 
z
" style="fill: #ffffff"/>
   </g>
   <g id="PathCollection_1">
    <defs>
     <path id="m250a0df149" d="M 0 3 
C 0.795609 3 1.55874 2.683901 2.12132 2.12132 
C 2.683901 1.55874 3 0.795609 3 0 
C 3 -0.795609 2.683901 -1.55874 2.12132 -2.12132 
C 1.55874 -2.683901 0.795609 -3 0 -3 
C -0.795609 -3 -1.55874 -2.683901 -2.12132 -2.12132 
C -2.683901 -1.55874 -3 -0.795609 -3 0 
C -3 0.795609 -2.683901 1.55874 -2.12132 2.12132 
C -1.55874 2.683901 -0.795609 3 0 3 
z
" style="stroke: #0000ff"/>
    </defs>
    <g clip-path="url(#p33fc14798d)">
     <use xlink:href="#m250a0df149" x="129.608572" y="148.790628" style="fill: #0000ff; stroke: #0000ff"/>
     <use xlink:href="#m250a0df149" x="216.204837" y="70.50669" style="fill: #0000ff; stroke: #0000ff"/>
     <use xlink:href="#m250a0df149" x="321.742938" y="247.214809" style="fill: #0000ff; stroke: #0000ff"/>
     <use xlink:href="#m250a0df149" x="164.652979" y="86.088708" style="fill: #0000ff; stroke: #0000ff"/>
     <use xlink:href="#m250a0df149" x="343.890289" y="120.526321" style="fill: #0000ff; stroke: #0000ff"/>
     <use xlink:href="#m250a0df149" x="153.657016" y="236.809721" style="fill: #0000ff; stroke: #0000ff"/>
     <use xlink:href="#m250a0df149" x="282.82502" y="84.005514" style="fill: #0000ff; stroke: #0000ff"/>
     <use xlink:href="#m250a0df149" x="191.489819" y="256.043161" style="fill: #0000ff; stroke: #0000ff"/>
     <use xlink:href="#m250a0df149" x="230.785577" y="293.542577" style="fill: #0000ff; stroke: #0000ff"/>
     <use xlink:href="#m250a0df149" x="304.360445" y="83.344512" style="fill: #0000ff; stroke: #0000ff"/>
     <use xlink:href="#m250a0df149" x="174.466054" y="93.383937" style="fill: #0000ff; stroke: #0000ff"/>
     <use xlink:href="#m250a0df149" x="129.609185" y="216.142784" style="fill: #0000ff; stroke: #0000ff"/>
     <use xlink:href="#m250a0df149" x="352.780662" y="184.406284" style="fill: #0000ff; stroke: #0000ff"/>
     <use xlink:href="#m250a0df149" x="223.218882" y="75.18728" style="fill: #0000ff; stroke: #0000ff"/>
     <use xlink:href="#m250a0df149" x="131.131932" y="162.846423" style="fill: #0000ff; stroke: #0000ff"/>
     <use xlink:href="#m250a0df149" x="341.600581" y="207.216278" style="fill: #0000ff; stroke: #0000ff"/>
     <use xlink:href="#m250a0df149" x="305.293766" y="274.191599" style="fill: #0000ff; stroke: #0000ff"/>
     <use xlink:href="#m250a0df149" x="321.722933" y="132.016664" style="fill: #0000ff; stroke: #0000ff"/>
     <use xlink:href="#m250a0df149" x="164.41372" y="75.442579" style="fill: #0000ff; stroke: #0000ff"/>
     <use xlink:href="#m250a0df149" x="223.559561" y="62.852241" style="fill: #0000ff; stroke: #0000ff"/>
     <use xlink:href="#m250a0df149" x="130.817933" y="232.929445" style="fill: #0000ff; stroke: #0000ff"/>
     <use xlink:href="#m250a0df149" x="124.076185" y="128.610922" style="fill: #0000ff; stroke: #0000ff"/>
     <use xlink:href="#m250a0df149" x="321.200972" y="121.712598" style="fill: #0000ff; stroke: #0000ff"/>
     <use xlink:href="#m250a0df149" x="117.677992" y="176.440585" style="fill: #0000ff; stroke: #0000ff"/>
     <use xlink:href="#m250a0df149" x="137.051481" y="184.682512" style="fill: #0000ff; stroke: #0000ff"/>
     <use xlink:href="#m250a0df149" x="123.381209" y="169.900485" style="fill: #0000ff; stroke: #0000ff"/>
     <use xlink:href="#m250a0df149" x="239.855634" y="295.488" style="fill: #0000ff; stroke: #0000ff"/>
     <use xlink:href="#m250a0df149" x="242.740347" y="58.985457" style="fill: #0000ff; stroke: #0000ff"/>
     <use xlink:href="#m250a0df149" x="260.280904" y="54.745729" style="fill: #0000ff; stroke: #0000ff"/>
     <use xlink:href="#m250a0df149" x="351.013443" y="141.938505" style="fill: #0000ff; stroke: #0000ff"/>
     <use xlink:href="#m250a0df149" x="267.064656" y="96.027757" style="fill: #0000ff; stroke: #0000ff"/>
     <use xlink:href="#m250a0df149" x="180.461548" y="264.814489" style="fill: #0000ff; stroke: #0000ff"/>
     <use xlink:href="#m250a0df149" x="195.304863" y="287.209326" style="fill: #0000ff; stroke: #0000ff"/>
     <use xlink:href="#m250a0df149" x="218.666612" y="53.568" style="fill: #0000ff; stroke: #0000ff"/>
     <use xlink:href="#m250a0df149" x="149.818995" y="255.567917" style="fill: #0000ff; stroke: #0000ff"/>
     <use xlink:href="#m250a0df149" x="290.334184" y="89.36651" style="fill: #0000ff; stroke: #0000ff"/>
     <use xlink:href="#m250a0df149" x="205.391531" y="284.124798" style="fill: #0000ff; stroke: #0000ff"/>
     <use xlink:href="#m250a0df149" x="173.115727" y="75.472845" style="fill: #0000ff; stroke: #0000ff"/>
     <use xlink:href="#m250a0df149" x="261.352387" y="264.919137" style="fill: #0000ff; stroke: #0000ff"/>
     <use xlink:href="#m250a0df149" x="117.640861" y="191.719118" style="fill: #0000ff; stroke: #0000ff"/>
     <use xlink:href="#m250a0df149" x="336.29149" y="181.876112" style="fill: #0000ff; stroke: #0000ff"/>
     <use xlink:href="#m250a0df149" x="350.113536" y="198.130983" style="fill: #0000ff; stroke: #0000ff"/>
     <use xlink:href="#m250a0df149" x="294.294857" y="277.509878" style="fill: #0000ff; stroke: #0000ff"/>
     <use xlink:href="#m250a0df149" x="329.701648" y="113.150681" style="fill: #0000ff; stroke: #0000ff"/>
     <use xlink:href="#m250a0df149" x="311.908742" y="250.159775" style="fill: #0000ff; stroke: #0000ff"/>
     <use xlink:href="#m250a0df149" x="124.872681" y="187.256645" style="fill: #0000ff; stroke: #0000ff"/>
     <use xlink:href="#m250a0df149" x="234.064901" y="54.474384" style="fill: #0000ff; stroke: #0000ff"/>
     <use xlink:href="#m250a0df149" x="197.681275" y="262.212768" style="fill: #0000ff; stroke: #0000ff"/>
     <use xlink:href="#m250a0df149" x="230.574625" y="66.839597" style="fill: #0000ff; stroke: #0000ff"/>
     <use xlink:href="#m250a0df149" x="120.965259" y="161.872535" style="fill: #0000ff; stroke: #0000ff"/>
     <use xlink:href="#m250a0df149" x="305.291872" y="92.009859" style="fill: #0000ff; stroke: #0000ff"/>
     <use xlink:href="#m250a0df149" x="320.981021" y="235.43538" style="fill: #0000ff; stroke: #0000ff"/>
     <use xlink:href="#m250a0df149" x="325.668582" y="257.283204" style="fill: #0000ff; stroke: #0000ff"/>
     <use xlink:href="#m250a0df149" x="114.686036" y="167.701447" style="fill: #0000ff; stroke: #0000ff"/>
     <use xlink:href="#m250a0df149" x="155.793453" y="85.650356" style="fill: #0000ff; stroke: #0000ff"/>
     <use xlink:href="#m250a0df149" x="159.975056" y="253.357397" style="fill: #0000ff; stroke: #0000ff"/>
     <use xlink:href="#m250a0df149" x="213.793261" y="61.69159" style="fill: #0000ff; stroke: #0000ff"/>
     <use xlink:href="#m250a0df149" x="317.34591" y="257.056341" style="fill: #0000ff; stroke: #0000ff"/>
     <use xlink:href="#m250a0df149" x="132.458076" y="194.911647" style="fill: #0000ff; stroke: #0000ff"/>
     <use xlink:href="#m250a0df149" x="348.383581" y="171.286078" style="fill: #0000ff; stroke: #0000ff"/>
     <use xlink:href="#m250a0df149" x="256.377748" y="65.31993" style="fill: #0000ff; stroke: #0000ff"/>
     <use xlink:href="#m250a0df149" x="344.487857" y="186.097833" style="fill: #0000ff; stroke: #0000ff"/>
     <use xlink:href="#m250a0df149" x="185.635473" y="274.082911" style="fill: #0000ff; stroke: #0000ff"/>
     <use xlink:href="#m250a0df149" x="269.181865" y="256.557486" style="fill: #0000ff; stroke: #0000ff"/>
     <use xlink:href="#m250a0df149" x="153.279732" y="264.072608" style="fill: #0000ff; stroke: #0000ff"/>
     <use xlink:href="#m250a0df149" x="314.425751" y="136.767571" style="fill: #0000ff; stroke: #0000ff"/>
     <use xlink:href="#m250a0df149" x="328.31366" y="242.936914" style="fill: #0000ff; stroke: #0000ff"/>
     <use xlink:href="#m250a0df149" x="161.841894" y="261.124783" style="fill: #0000ff; stroke: #0000ff"/>
     <use xlink:href="#m250a0df149" x="353.523794" y="207.356904" style="fill: #0000ff; stroke: #0000ff"/>
     <use xlink:href="#m250a0df149" x="249.508327" y="80.040305" style="fill: #0000ff; stroke: #0000ff"/>
     <use xlink:href="#m250a0df149" x="137.889848" y="102.910794" style="fill: #0000ff; stroke: #0000ff"/>
     <use xlink:href="#m250a0df149" x="357.633964" y="192.773403" style="fill: #0000ff; stroke: #0000ff"/>
     <use xlink:href="#m250a0df149" x="141.720563" y="236.793874" style="fill: #0000ff; stroke: #0000ff"/>
     <use xlink:href="#m250a0df149" x="307.973316" y="259.218226" style="fill: #0000ff; stroke: #0000ff"/>
     <use xlink:href="#m250a0df149" x="231.600745" y="281.720939" style="fill: #0000ff; stroke: #0000ff"/>
     <use xlink:href="#m250a0df149" x="356.257583" y="152.491792" style="fill: #0000ff; stroke: #0000ff"/>
     <use xlink:href="#m250a0df149" x="165.111472" y="270.230699" style="fill: #0000ff; stroke: #0000ff"/>
     <use xlink:href="#m250a0df149" x="292.997158" y="80.801446" style="fill: #0000ff; stroke: #0000ff"/>
     <use xlink:href="#m250a0df149" x="268.054786" y="61.028771" style="fill: #0000ff; stroke: #0000ff"/>
     <use xlink:href="#m250a0df149" x="330.52859" y="131.101046" style="fill: #0000ff; stroke: #0000ff"/>
     <use xlink:href="#m250a0df149" x="132.913586" y="134.83659" style="fill: #0000ff; stroke: #0000ff"/>
     <use xlink:href="#m250a0df149" x="313.629496" y="84.551475" style="fill: #0000ff; stroke: #0000ff"/>
     <use xlink:href="#m250a0df149" x="351.47489" y="129.643365" style="fill: #0000ff; stroke: #0000ff"/>
     <use xlink:href="#m250a0df149" x="241.282151" y="279.99828" style="fill: #0000ff; stroke: #0000ff"/>
     <use xlink:href="#m250a0df149" x="309.044389" y="75.045908" style="fill: #0000ff; stroke: #0000ff"/>
     <use xlink:href="#m250a0df149" x="282.001697" y="274.775247" style="fill: #0000ff; stroke: #0000ff"/>
     <use xlink:href="#m250a0df149" x="203.288206" y="69.915002" style="fill: #0000ff; stroke: #0000ff"/>
     <use xlink:href="#m250a0df149" x="142.196066" y="113.493804" style="fill: #0000ff; stroke: #0000ff"/>
     <use xlink:href="#m250a0df149" x="137.874951" y="154.136639" style="fill: #0000ff; stroke: #0000ff"/>
     <use xlink:href="#m250a0df149" x="330.344082" y="120.865291" style="fill: #0000ff; stroke: #0000ff"/>
     <use xlink:href="#m250a0df149" x="271.487686" y="268.446949" style="fill: #0000ff; stroke: #0000ff"/>
     <use xlink:href="#m250a0df149" x="341.639852" y="130.514767" style="fill: #0000ff; stroke: #0000ff"/>
     <use xlink:href="#m250a0df149" x="211.228904" y="292.976647" style="fill: #0000ff; stroke: #0000ff"/>
     <use xlink:href="#m250a0df149" x="272.812371" y="240.904867" style="fill: #0000ff; stroke: #0000ff"/>
     <use xlink:href="#m250a0df149" x="190.667646" y="265.228359" style="fill: #0000ff; stroke: #0000ff"/>
     <use xlink:href="#m250a0df149" x="276.315927" y="285.053065" style="fill: #0000ff; stroke: #0000ff"/>
     <use xlink:href="#m250a0df149" x="130.999265" y="123.423713" style="fill: #0000ff; stroke: #0000ff"/>
     <use xlink:href="#m250a0df149" x="129.554231" y="177.250614" style="fill: #0000ff; stroke: #0000ff"/>
     <use xlink:href="#m250a0df149" x="257.202995" y="285.882228" style="fill: #0000ff; stroke: #0000ff"/>
     <use xlink:href="#m250a0df149" x="300.030521" y="71.908741" style="fill: #0000ff; stroke: #0000ff"/>
    </g>
   </g>
   <g id="Quiver_1">
    <path d="M 129.586949 149.86177 
L 119.405366 149.656232 
L 120.433261 151.820139 
L 109.786713 148.39048 
L 120.563001 145.393288 
L 119.448612 147.513948 
L 129.630196 147.719486 
L 129.586949 149.86177 
" clip-path="url(#p33fc14798d)" style="fill: #ff0000"/>
    <path d="M 215.146507 70.673273 
L 213.528597 60.3944 
L 211.57852 61.785896 
L 213.087683 50.702847 
L 217.9285 60.786399 
L 215.645258 60.061235 
L 217.263167 70.340107 
L 215.146507 70.673273 
" clip-path="url(#p33fc14798d)" style="fill: #ff0000"/>
    <path d="M 322.598824 246.570394 
L 328.723169 254.704511 
L 329.790528 252.559795 
L 333.667015 263.051905 
L 324.655208 256.426283 
L 327.011396 255.99334 
L 320.887051 247.859224 
L 322.598824 246.570394 
" clip-path="url(#p33fc14798d)" style="fill: #ff0000"/>
    <path d="M 163.778462 86.707603 
L 157.924804 78.436215 
L 156.794665 80.548523 
L 153.229261 69.946663 
L 162.041769 76.83515 
L 159.673839 77.198424 
L 165.527497 85.469812 
L 163.778462 86.707603 
" clip-path="url(#p33fc14798d)" style="fill: #ff0000"/>
    <path d="M 343.409911 119.568694 
L 352.38042 115.068784 
L 350.462037 113.633908 
L 361.47944 111.703009 
L 353.344305 119.379669 
L 353.341176 116.984038 
L 344.370667 121.483948 
L 343.409911 119.568694 
" clip-path="url(#p33fc14798d)" style="fill: #ff0000"/>
    <path d="M 154.369523 237.609812 
L 146.673128 244.463711 
L 148.898235 245.351385 
L 138.759805 250.07619 
L 144.623188 240.550841 
L 145.248113 242.86353 
L 152.944508 236.009631 
L 154.369523 237.609812 
" clip-path="url(#p33fc14798d)" style="fill: #ff0000"/>
    <path d="M 282.12477 83.194673 
L 289.900162 76.479776 
L 287.688822 75.558343 
L 297.89798 70.988372 
L 291.890318 80.423389 
L 291.300661 78.101458 
L 283.525269 84.816354 
L 282.12477 83.194673 
" clip-path="url(#p33fc14798d)" style="fill: #ff0000"/>
    <path d="M 192.506907 256.379826 
L 189.301309 266.064191 
L 191.67215 265.72043 
L 185.254243 274.881325 
L 185.569618 263.700446 
L 187.267131 265.390863 
L 190.47273 255.706497 
L 192.506907 256.379826 
" clip-path="url(#p33fc14798d)" style="fill: #ff0000"/>
    <path d="M 231.836506 293.750808 
L 229.879251 303.628939 
L 232.189341 302.994472 
L 226.95424 312.879069 
L 225.883766 301.745084 
L 227.777393 303.212476 
L 229.734648 293.334346 
L 231.836506 293.750808 
" clip-path="url(#p33fc14798d)" style="fill: #ff0000"/>
    <path d="M 303.562885 82.629172 
L 310.373529 75.035725 
L 308.06307 74.402605 
L 317.609146 68.573029 
L 312.848427 78.694644 
L 311.968648 76.466405 
L 305.158004 84.059852 
L 303.562885 82.629172 
" clip-path="url(#p33fc14798d)" style="fill: #ff0000"/>
    <path d="M 173.633447 94.05816 
L 167.125851 86.021841 
L 166.134859 88.202895 
L 161.89045 77.85415 
L 171.130505 84.157556 
L 168.791066 84.673395 
L 175.298662 92.709714 
L 173.633447 94.05816 
" clip-path="url(#p33fc14798d)" style="fill: #ff0000"/>
    <path d="M 129.995788 217.141959 
L 120.477404 220.824833 
L 122.249784 222.43658 
L 111.098227 223.305085 
L 119.930167 216.441531 
L 119.704198 218.826483 
L 129.222582 215.143609 
L 129.995788 217.141959 
" clip-path="url(#p33fc14798d)" style="fill: #ff0000"/>
    <path d="M 353.05587 183.370875 
L 363.014652 186.017883 
L 362.529659 183.671856 
L 372.058129 189.530165 
L 360.87841 189.884313 
L 362.464236 188.088702 
L 352.505454 185.441694 
L 353.05587 183.370875 
" clip-path="url(#p33fc14798d)" style="fill: #ff0000"/>
    <path d="M 222.148835 75.24031 
L 221.640026 64.97348 
L 219.552963 66.149587 
L 222.232804 55.29003 
L 225.973243 65.831407 
L 223.78012 64.867421 
L 224.288929 75.13425 
L 222.148835 75.24031 
" clip-path="url(#p33fc14798d)" style="fill: #ff0000"/>
    <path d="M 131.225951 163.91365 
L 120.946769 164.819215 
L 122.202035 166.859649 
L 111.247711 164.598164 
L 121.637918 160.456289 
L 120.75873 162.684762 
L 131.037912 161.779197 
L 131.225951 163.91365 
" clip-path="url(#p33fc14798d)" style="fill: #ff0000"/>
    <path d="M 341.583516 206.145054 
L 351.955014 205.979841 
L 350.849661 203.854457 
L 361.613095 206.897488 
L 350.952046 210.281801 
L 351.989142 208.122289 
L 341.617645 208.287502 
L 341.583516 206.145054 
" clip-path="url(#p33fc14798d)" style="fill: #ff0000"/>
    <path d="M 306.114478 273.502945 
L 312.615982 281.251188 
L 313.568751 279.053168 
L 317.993159 289.326247 
L 308.644481 283.185093 
L 310.974559 282.628496 
L 304.473054 274.880254 
L 306.114478 273.502945 
" clip-path="url(#p33fc14798d)" style="fill: #ff0000"/>
    <path d="M 321.323337 131.022614 
L 330.91827 127.16557 
L 329.125029 125.577066 
L 340.264317 124.563259 
L 331.522603 131.541366 
L 331.717462 129.15367 
L 322.122529 133.010714 
L 321.323337 131.022614 
" clip-path="url(#p33fc14798d)" style="fill: #ff0000"/>
    <path d="M 163.625889 76.168619 
L 156.712715 68.667093 
L 155.863094 70.907005 
L 150.966181 60.850575 
L 160.590079 66.550762 
L 158.288376 67.215012 
L 165.201551 74.716538 
L 163.625889 76.168619 
" clip-path="url(#p33fc14798d)" style="fill: #ff0000"/>
    <path d="M 222.503465 63.032442 
L 220.755883 52.790476 
L 218.823891 54.206975 
L 220.190168 43.105407 
L 225.16047 53.125768 
L 222.868076 52.430074 
L 224.615658 62.672039 
L 222.503465 63.032442 
" clip-path="url(#p33fc14798d)" style="fill: #ff0000"/>
    <path d="M 131.420287 233.815436 
L 123.05331 239.503851 
L 125.14401 240.673479 
L 114.47703 244.03905 
L 121.529883 235.35753 
L 121.8486 237.731867 
L 130.215578 232.043453 
L 131.420287 233.815436 
" clip-path="url(#p33fc14798d)" style="fill: #ff0000"/>
    <path d="M 123.744088 129.629511 
L 114.046335 126.467685 
L 114.400729 128.836961 
L 105.211133 122.460218 
L 116.393315 122.725427 
L 114.710531 124.430507 
L 124.408283 127.592333 
L 123.744088 129.629511 
" clip-path="url(#p33fc14798d)" style="fill: #ff0000"/>
    <path d="M 320.60447 120.822656 
L 329.084436 115.138786 
L 327.00149 113.955403 
L 337.69042 110.66021 
L 330.580502 119.295058 
L 330.277441 116.918671 
L 321.797474 122.602541 
L 320.60447 120.822656 
" clip-path="url(#p33fc14798d)" style="fill: #ff0000"/>
    <path d="M 117.868546 177.494863 
L 107.884609 179.299398 
L 109.319995 181.217399 
L 98.205556 179.960108 
L 108.17667 174.891733 
L 107.5035 177.190843 
L 117.487438 175.386308 
L 117.868546 177.494863 
" clip-path="url(#p33fc14798d)" style="fill: #ff0000"/>
    <path d="M 137.118114 185.751798 
L 126.718451 186.399854 
L 127.921002 188.471793 
L 117.028245 185.930261 
L 127.521206 182.056078 
L 126.585186 184.261282 
L 136.984849 183.613226 
L 137.118114 185.751798 
" clip-path="url(#p33fc14798d)" style="fill: #ff0000"/>
    <path d="M 123.336199 170.970899 
L 113.504292 170.557478 
L 114.484687 172.743316 
L 103.915575 169.081977 
L 114.754745 166.320832 
L 113.594312 168.41665 
L 123.426219 168.830071 
L 123.336199 170.970899 
" clip-path="url(#p33fc14798d)" style="fill: #ff0000"/>
    <path d="M 240.912136 295.665811 
L 239.235484 305.627997 
L 241.526298 304.927117 
L 236.578684 314.9587 
L 235.187289 303.860252 
L 237.122481 305.272375 
L 238.799132 295.310189 
L 240.912136 295.665811 
" clip-path="url(#p33fc14798d)" style="fill: #ff0000"/>
    <path d="M 241.669606 59.021868 
L 241.324936 48.886068 
L 239.219865 50.029631 
L 242.06798 39.212988 
L 245.644311 49.811166 
L 243.466418 48.813247 
L 243.811088 58.949046 
L 241.669606 59.021868 
" clip-path="url(#p33fc14798d)" style="fill: #ff0000"/>
    <path d="M 259.209544 54.745623 
L 259.210548 44.669566 
L 257.067721 45.740712 
L 260.282868 35.027432 
L 263.495881 45.741353 
L 261.353268 44.669779 
L 261.352264 54.745836 
L 259.209544 54.745623 
" clip-path="url(#p33fc14798d)" style="fill: #ff0000"/>
    <path d="M 350.53737 140.978731 
L 359.701331 136.43317 
L 357.789411 134.989694 
L 368.815374 133.108288 
L 360.645848 140.74834 
L 360.653477 138.352718 
L 351.489516 142.89828 
L 350.53737 140.978731 
" clip-path="url(#p33fc14798d)" style="fill: #ff0000"/>
    <path d="M 266.068586 95.633224 
L 269.831856 86.132167 
L 267.445182 86.339171 
L 274.378723 77.562068 
L 273.421604 88.70637 
L 271.823996 86.921233 
L 268.060726 96.42229 
L 266.068586 95.633224 
" clip-path="url(#p33fc14798d)" style="fill: #ff0000"/>
    <path d="M 181.433246 265.265726 
L 177.146592 274.496638 
L 179.541226 274.427415 
L 172.113757 282.790683 
L 173.711038 271.71999 
L 175.203196 273.594163 
L 179.48985 264.363251 
L 181.433246 265.265726 
" clip-path="url(#p33fc14798d)" style="fill: #ff0000"/>
    <path d="M 196.322516 287.544283 
L 193.158764 297.156262 
L 195.529025 296.808524 
L 189.126499 305.980175 
L 189.423112 294.798782 
L 191.123459 296.486348 
L 194.287211 286.874369 
L 196.322516 287.544283 
" clip-path="url(#p33fc14798d)" style="fill: #ff0000"/>
    <path d="M 217.60915 53.740002 
L 215.996382 43.824751 
L 214.053458 45.226218 
L 215.505828 34.135584 
L 220.398235 44.194207 
L 218.111308 43.480748 
L 219.724075 53.395998 
L 217.60915 53.740002 
" clip-path="url(#p33fc14798d)" style="fill: #ff0000"/>
    <path d="M 150.52115 256.377108 
L 142.921513 262.971499 
L 145.135014 263.887727 
L 134.936636 268.481703 
L 140.922084 259.032579 
L 141.517203 261.353116 
L 149.11684 254.758726 
L 150.52115 256.377108 
" clip-path="url(#p33fc14798d)" style="fill: #ff0000"/>
    <path d="M 289.462512 88.743614 
L 295.398585 80.436747 
L 293.032344 80.062628 
L 301.87632 73.214589 
L 298.26238 83.800003 
L 297.14193 81.682538 
L 291.205857 89.989405 
L 289.462512 88.743614 
" clip-path="url(#p33fc14798d)" style="fill: #ff0000"/>
    <path d="M 206.372209 284.556171 
L 202.23149 293.969617 
L 204.62422 293.851686 
L 197.368451 302.364345 
L 198.740152 291.263445 
L 200.270134 293.10687 
L 204.410853 283.693424 
L 206.372209 284.556171 
" clip-path="url(#p33fc14798d)" style="fill: #ff0000"/>
    <path d="M 172.484825 76.33874 
L 164.331628 70.398225 
L 163.93572 72.760918 
L 157.169469 63.854214 
L 167.72113 67.565544 
L 165.593431 68.666434 
L 173.746629 74.606949 
L 172.484825 76.33874 
" clip-path="url(#p33fc14798d)" style="fill: #ff0000"/>
    <path d="M 262.369969 264.583965 
L 265.566785 274.289483 
L 267.266775 272.601558 
L 267.565754 283.782888 
L 261.161287 274.612591 
L 263.531622 274.959828 
L 260.334806 265.25431 
L 262.369969 264.583965 
" clip-path="url(#p33fc14798d)" style="fill: #ff0000"/>
    <path d="M 117.53799 192.785527 
L 107.303252 191.798243 
L 108.163921 194.033933 
L 97.808433 189.806001 
L 108.781142 187.635474 
L 107.508992 189.665423 
L 117.743731 190.652708 
L 117.53799 192.785527 
" clip-path="url(#p33fc14798d)" style="fill: #ff0000"/>
    <path d="M 336.317597 180.80507 
L 346.558135 181.054683 
L 345.539306 178.886493 
L 356.171405 182.360685 
L 345.382666 185.312744 
L 346.505921 183.196767 
L 336.265383 182.947154 
L 336.317597 180.80507 
" clip-path="url(#p33fc14798d)" style="fill: #ff0000"/>
    <path d="M 350.206952 197.063703 
L 360.252408 197.942949 
L 359.371959 195.714974 
L 369.764509 199.850967 
L 358.811467 202.118652 
L 360.065577 200.077508 
L 350.020121 199.198262 
L 350.206952 197.063703 
" clip-path="url(#p33fc14798d)" style="fill: #ff0000"/>
    <path d="M 295.280688 277.090413 
L 299.254092 286.42873 
L 300.806287 284.603969 
L 302.043452 295.720666 
L 294.891306 287.120762 
L 297.282432 287.267661 
L 293.309027 277.929344 
L 295.280688 277.090413 
" clip-path="url(#p33fc14798d)" style="fill: #ff0000"/>
    <path d="M 329.405058 112.121192 
L 339.221947 109.292995 
L 337.599278 107.530609 
L 348.783933 107.653169 
L 339.378821 113.707539 
L 339.815128 111.351972 
L 329.998239 114.180169 
L 329.405058 112.121192 
" clip-path="url(#p33fc14798d)" style="fill: #ff0000"/>
    <path d="M 312.650026 249.38627 
L 319.997758 256.427937 
L 320.706823 254.139643 
L 326.218013 263.873004 
L 316.259114 258.78067 
L 318.515188 257.974946 
L 311.167457 250.933279 
L 312.650026 249.38627 
" clip-path="url(#p33fc14798d)" style="fill: #ff0000"/>
    <path d="M 124.704014 188.314645 
L 114.901717 186.751958 
L 115.622383 189.036625 
L 105.548385 184.175957 
L 116.634384 182.688626 
L 115.23905 184.635959 
L 125.041348 186.198645 
L 124.704014 188.314645 
" clip-path="url(#p33fc14798d)" style="fill: #ff0000"/>
    <path d="M 232.993688 54.492127 
L 232.827487 44.457975 
L 230.702804 45.564674 
L 233.739011 34.799314 
L 237.130082 45.458216 
L 234.969913 44.422489 
L 235.136115 54.456641 
L 232.993688 54.492127 
" clip-path="url(#p33fc14798d)" style="fill: #ff0000"/>
    <path d="M 198.544477 262.847349 
L 192.723053 270.766067 
L 195.084039 271.172027 
L 186.148619 277.900311 
L 189.904823 267.36454 
L 190.996647 269.496905 
L 196.818072 261.578187 
L 198.544477 262.847349 
" clip-path="url(#p33fc14798d)" style="fill: #ff0000"/>
    <path d="M 229.505679 66.911476 
L 228.829315 56.852945 
L 226.763302 58.065649 
L 229.25135 47.160551 
L 233.176978 57.634375 
L 230.967207 56.709187 
L 231.643571 66.767718 
L 229.505679 66.911476 
" clip-path="url(#p33fc14798d)" style="fill: #ff0000"/>
    <path d="M 120.889563 162.941218 
L 110.868499 162.23141 
L 111.785789 164.444471 
L 101.326053 160.481459 
L 112.239968 158.032376 
L 111.019892 160.094045 
L 121.040956 160.803853 
L 120.889563 162.941218 
" clip-path="url(#p33fc14798d)" style="fill: #ff0000"/>
    <path d="M 304.314553 91.570928 
L 308.503626 82.243587 
L 306.110057 82.343043 
L 313.431323 73.886649 
L 311.97397 84.976629 
L 310.458263 83.121449 
L 306.26919 92.44879 
L 304.314553 91.570928 
" clip-path="url(#p33fc14798d)" style="fill: #ff0000"/>
    <path d="M 321.770978 234.711653 
L 328.775912 242.357625 
L 329.632099 240.120215 
L 334.499497 250.190964 
L 324.892358 244.462576 
L 327.195999 243.805079 
L 320.191064 236.159106 
L 321.770978 234.711653 
" clip-path="url(#p33fc14798d)" style="fill: #ff0000"/>
    <path d="M 326.403327 256.503486 
L 333.821485 263.49378 
L 334.511259 261.199597 
L 340.104205 270.886211 
L 330.102784 265.877908 
L 332.351994 265.053217 
L 324.933836 258.062923 
L 326.403327 256.503486 
" clip-path="url(#p33fc14798d)" style="fill: #ff0000"/>
    <path d="M 114.564882 168.765935 
L 104.270624 167.594294 
L 105.092802 169.844424 
L 94.81139 165.439415 
L 105.81973 163.457499 
L 104.512933 165.465319 
L 114.807191 166.63696 
L 114.564882 168.765935 
" clip-path="url(#p33fc14798d)" style="fill: #ff0000"/>
    <path d="M 154.858719 86.173886 
L 149.840288 77.213752 
L 148.494349 79.195546 
L 146.063252 68.277612 
L 154.102756 76.054366 
L 151.709757 76.166692 
L 156.728188 85.126826 
L 154.858719 86.173886 
" clip-path="url(#p33fc14798d)" style="fill: #ff0000"/>
    <path d="M 160.774126 254.071049 
L 154.014313 261.639957 
L 156.326105 262.268191 
L 146.792376 268.117938 
L 151.531684 257.98628 
L 152.416172 260.212654 
L 159.175985 252.643745 
L 160.774126 254.071049 
" clip-path="url(#p33fc14798d)" style="fill: #ff0000"/>
    <path d="M 212.726692 61.59038 
L 213.685846 51.48264 
L 211.451498 52.346789 
L 215.663303 41.984731 
L 217.850911 52.954048 
L 215.818983 51.685059 
L 214.85983 61.7928 
L 212.726692 61.59038 
" clip-path="url(#p33fc14798d)" style="fill: #ff0000"/>
    <path d="M 318.111729 256.307119 
L 325.175801 263.527671 
L 325.958216 261.263408 
L 331.152983 271.169261 
L 321.363304 265.758741 
L 323.644164 265.026115 
L 316.580091 257.805564 
L 318.111729 256.307119 
" clip-path="url(#p33fc14798d)" style="fill: #ff0000"/>
    <path d="M 132.225858 195.957538 
L 122.147669 193.71989 
L 122.729124 196.043889 
L 112.966872 190.584039 
L 124.122431 189.768545 
L 122.612105 191.628109 
L 132.690293 193.865757 
L 132.225858 195.957538 
" clip-path="url(#p33fc14798d)" style="fill: #ff0000"/>
    <path d="M 348.62933 170.243284 
L 358.57601 172.587359 
L 358.024714 170.256021 
L 367.715408 175.841894 
L 356.550219 176.512786 
L 358.084512 174.672947 
L 348.137832 172.328872 
L 348.62933 170.243284 
" clip-path="url(#p33fc14798d)" style="fill: #ff0000"/>
    <path d="M 255.32034 65.147593 
L 256.979443 54.967856 
L 254.69229 55.680589 
L 259.587889 45.623519 
L 261.036739 56.714614 
L 259.09426 55.31253 
L 257.435156 65.492268 
L 255.32034 65.147593 
" clip-path="url(#p33fc14798d)" style="fill: #ff0000"/>
    <path d="M 344.564056 185.029186 
L 354.709885 185.752626 
L 353.793637 183.539134 
L 364.251508 187.507064 
L 353.336443 189.951015 
L 354.557487 187.88992 
L 344.411658 187.16648 
L 344.564056 185.029186 
" clip-path="url(#p33fc14798d)" style="fill: #ff0000"/>
    <path d="M 186.467638 274.75768 
L 180.123743 282.581356 
L 182.462842 283.098728 
L 173.218659 289.396077 
L 177.469849 279.050116 
L 178.459412 281.231819 
L 184.803307 273.408142 
L 186.467638 274.75768 
" clip-path="url(#p33fc14798d)" style="fill: #ff0000"/>
    <path d="M 270.168518 256.13996 
L 274.184629 265.630411 
L 275.74041 263.808706 
L 276.955709 274.927815 
L 269.820491 266.313862 
L 272.211323 266.465463 
L 268.195212 256.975011 
L 270.168518 256.13996 
" clip-path="url(#p33fc14798d)" style="fill: #ff0000"/>
    <path d="M 154.128718 264.726086 
L 147.921691 272.790142 
L 150.273143 273.248112 
L 141.191401 279.777545 
L 145.179222 269.327243 
L 146.223717 271.483186 
L 152.430745 263.41913 
L 154.128718 264.726086 
" clip-path="url(#p33fc14798d)" style="fill: #ff0000"/>
    <path d="M 313.928189 135.818759 
L 322.905671 131.11092 
L 320.961735 129.710858 
L 331.942542 127.581675 
L 323.947107 135.403731 
L 323.900795 133.008545 
L 314.923313 137.716383 
L 313.928189 135.818759 
" clip-path="url(#p33fc14798d)" style="fill: #ff0000"/>
    <path d="M 329.247715 242.412172 
L 334.22395 251.270014 
L 335.567318 249.286476 
L 338.012568 260.201249 
L 329.962989 252.434925 
L 332.35584 252.319497 
L 327.379605 243.461655 
L 329.247715 242.412172 
" clip-path="url(#p33fc14798d)" style="fill: #ff0000"/>
    <path d="M 162.586982 261.894624 
L 155.15931 269.083474 
L 157.419328 269.878068 
L 147.485651 275.019429 
L 152.948798 265.259021 
L 153.669133 267.543792 
L 161.096805 260.354942 
L 162.586982 261.894624 
" clip-path="url(#p33fc14798d)" style="fill: #ff0000"/>
    <path d="M 353.617943 206.289688 
L 363.674021 207.176833 
L 362.795104 204.948254 
L 373.184807 209.091394 
L 362.230208 211.351544 
L 363.485722 209.311264 
L 353.429644 208.424119 
L 353.617943 206.289688 
" clip-path="url(#p33fc14798d)" style="fill: #ff0000"/>
    <path d="M 248.445635 79.904296 
L 249.747332 69.733612 
L 247.48594 70.524286 
L 252.034104 60.305394 
L 253.862091 71.340339 
L 251.872716 70.005629 
L 250.571019 80.176314 
L 248.445635 79.904296 
" clip-path="url(#p33fc14798d)" style="fill: #ff0000"/>
    <path d="M 137.377676 103.8518 
L 128.48748 99.013026 
L 128.404141 101.40721 
L 120.530602 93.462468 
L 131.477176 95.761176 
L 129.511825 97.131015 
L 138.402021 101.969789 
L 137.377676 103.8518 
" clip-path="url(#p33fc14798d)" style="fill: #ff0000"/>
    <path d="M 357.917292 191.740186 
L 367.69069 194.42024 
L 367.224129 192.070478 
L 376.706315 198.003409 
L 365.524161 198.26978 
L 367.124034 196.486674 
L 357.350636 193.80662 
L 357.917292 191.740186 
" clip-path="url(#p33fc14798d)" style="fill: #ff0000"/>
    <path d="M 142.308325 237.689613 
L 133.798822 243.273338 
L 135.870085 244.477054 
L 125.14941 247.667455 
L 132.343514 239.10262 
L 132.623299 241.48186 
L 141.132801 235.898135 
L 142.308325 237.689613 
" clip-path="url(#p33fc14798d)" style="fill: #ff0000"/>
    <path d="M 308.626952 258.369361 
L 316.750938 264.624926 
L 317.209345 262.27356 
L 323.737088 271.356517 
L 313.287528 267.366751 
L 315.443665 266.322657 
L 307.31968 260.067092 
L 308.626952 258.369361 
" clip-path="url(#p33fc14798d)" style="fill: #ff0000"/>
    <path d="M 232.662533 281.578052 
L 234.041584 291.825749 
L 236.022275 290.478186 
L 234.265776 301.524735 
L 229.651541 291.335507 
L 231.918006 292.111522 
L 230.538956 281.863826 
L 232.662533 281.578052 
" clip-path="url(#p33fc14798d)" style="fill: #ff0000"/>
    <path d="M 355.779652 151.532941 
L 364.899138 146.98741 
L 362.984426 145.54764 
L 374.006724 143.644882 
L 365.852011 151.300743 
L 365.855 148.905111 
L 356.735514 153.450642 
L 355.779652 151.532941 
" clip-path="url(#p33fc14798d)" style="fill: #ff0000"/>
    <path d="M 165.698493 271.126923 
L 157.188408 276.700979 
L 159.258676 277.906406 
L 148.535368 281.087949 
L 155.736546 272.52906 
L 156.014365 274.90853 
L 164.52445 269.334475 
L 165.698493 271.126923 
" clip-path="url(#p33fc14798d)" style="fill: #ff0000"/>
    <path d="M 292.121459 80.184223 
L 298.101213 71.700303 
L 295.732593 71.341557 
L 304.531914 64.436234 
L 300.986787 75.044891 
L 299.852612 72.934747 
L 293.872857 81.418668 
L 292.121459 80.184223 
" clip-path="url(#p33fc14798d)" style="fill: #ff0000"/>
    <path d="M 266.984036 60.99262 
L 267.327732 50.812839 
L 265.150081 51.811287 
L 268.723844 41.212242 
L 271.57458 52.028195 
L 269.469232 50.885142 
L 269.125535 61.064922 
L 266.984036 60.99262 
" clip-path="url(#p33fc14798d)" style="fill: #ff0000"/>
    <path d="M 330.135393 130.104448 
L 339.807797 126.288307 
L 338.024805 124.688307 
L 349.17038 123.746132 
L 340.383987 130.667897 
L 340.594191 128.281504 
L 330.921787 132.097644 
L 330.135393 130.104448 
" clip-path="url(#p33fc14798d)" style="fill: #ff0000"/>
    <path d="M 132.62393 135.86805 
L 122.698106 133.080661 
L 123.150253 135.433239 
L 113.704617 129.442288 
L 124.888194 129.244475 
L 123.27742 131.017739 
L 133.203243 133.805129 
L 132.62393 135.86805 
" clip-path="url(#p33fc14798d)" style="fill: #ff0000"/>
    <path d="M 312.722061 83.981937 
L 318.1185 75.383892 
L 315.734091 75.15225 
L 324.151781 67.786516 
L 321.178701 78.569481 
L 319.933369 76.522969 
L 314.536931 85.121014 
L 312.722061 83.981937 
" clip-path="url(#p33fc14798d)" style="fill: #ff0000"/>
    <path d="M 351.045297 128.661905 
L 360.280482 124.619592 
L 358.439838 123.086266 
L 369.543209 121.734718 
L 361.017393 128.975022 
L 361.139667 126.58251 
L 351.904483 130.624824 
L 351.045297 128.661905 
" clip-path="url(#p33fc14798d)" style="fill: #ff0000"/>
    <path d="M 242.352191 280.051446 
L 241.84103 290.339299 
L 244.034276 289.375591 
L 240.292497 299.916493 
L 237.614036 289.056596 
L 239.70095 290.232967 
L 240.212111 279.945114 
L 242.352191 280.051446 
" clip-path="url(#p33fc14798d)" style="fill: #ff0000"/>
    <path d="M 308.032552 74.693775 
L 311.349773 65.161926 
L 308.973965 65.469495 
L 315.530814 56.407527 
L 315.044987 67.582298 
L 313.373447 65.866194 
L 310.056226 75.398042 
L 308.032552 74.693775 
" clip-path="url(#p33fc14798d)" style="fill: #ff0000"/>
    <path d="M 283.023173 274.452139 
L 286.109369 284.208881 
L 287.829214 282.541189 
L 287.99586 293.725275 
L 281.700356 284.479834 
L 284.066416 284.855095 
L 280.980221 275.098354 
L 283.023173 274.452139 
" clip-path="url(#p33fc14798d)" style="fill: #ff0000"/>
    <path d="M 202.223449 69.796237 
L 203.362218 59.586859 
L 201.113939 60.414087 
L 205.495855 50.122812 
L 207.502481 61.126674 
L 205.491731 59.824388 
L 204.352963 70.033766 
L 202.223449 69.796237 
" clip-path="url(#p33fc14798d)" style="fill: #ff0000"/>
    <path d="M 141.766217 114.475151 
L 132.333583 110.34347 
L 132.455231 112.736013 
L 123.931311 105.493478 
L 135.034328 106.847932 
L 133.193282 108.380776 
L 142.625916 112.512457 
L 141.766217 114.475151 
" clip-path="url(#p33fc14798d)" style="fill: #ff0000"/>
    <path d="M 137.776745 155.203489 
L 127.51074 154.258476 
L 128.381176 156.490381 
L 118.007301 152.30777 
L 128.970414 150.089284 
L 127.707152 152.124777 
L 137.973158 153.06979 
L 137.776745 155.203489 
" clip-path="url(#p33fc14798d)" style="fill: #ff0000"/>
    <path d="M 329.906451 119.88739 
L 339.134435 115.757671 
L 337.28127 114.2395 
L 348.373177 112.796888 
L 339.90706 120.106907 
L 340.009698 117.713473 
L 330.781714 121.843192 
L 329.906451 119.88739 
" clip-path="url(#p33fc14798d)" style="fill: #ff0000"/>
    <path d="M 272.530115 268.199658 
L 274.876218 278.089385 
L 276.713785 276.552373 
L 276.059413 287.718542 
L 270.459209 278.036122 
L 272.791359 278.583968 
L 270.445257 268.694241 
L 272.530115 268.199658 
" clip-path="url(#p33fc14798d)" style="fill: #ff0000"/>
    <path d="M 341.242485 129.519824 
L 350.661439 125.758027 
L 348.871763 124.165507 
L 360.013295 123.176674 
L 351.255961 130.135167 
L 351.456172 127.747914 
L 342.037218 131.509711 
L 341.242485 129.519824 
" clip-path="url(#p33fc14798d)" style="fill: #ff0000"/>
    <path d="M 212.227071 293.365846 
L 208.541486 302.818155 
L 210.927018 302.598386 
L 204.040529 311.412455 
L 204.938018 300.263193 
L 206.545153 302.039757 
L 210.230738 292.587448 
L 212.227071 293.365846 
" clip-path="url(#p33fc14798d)" style="fill: #ff0000"/>
    <path d="M 273.74946 240.385563 
L 278.712023 249.340557 
L 280.066897 247.36486 
L 282.448669 258.293662 
L 274.444364 250.480684 
L 276.837845 250.379165 
L 271.875282 241.424171 
L 273.74946 240.385563 
" clip-path="url(#p33fc14798d)" style="fill: #ff0000"/>
    <path d="M 191.580823 265.788645 
L 185.974167 274.926599 
L 188.360806 275.133994 
L 180.018415 282.584904 
L 182.881746 271.772278 
L 184.147813 273.806027 
L 189.75447 264.668073 
L 191.580823 265.788645 
" clip-path="url(#p33fc14798d)" style="fill: #ff0000"/>
    <path d="M 277.245366 284.520191 
L 282.271256 293.286352 
L 283.597261 291.291165 
L 286.137682 302.184181 
L 278.020624 294.488409 
L 280.412377 294.3521 
L 275.386488 285.585939 
L 277.245366 284.520191 
" clip-path="url(#p33fc14798d)" style="fill: #ff0000"/>
    <path d="M 130.623604 124.427053 
L 121.228581 120.909464 
L 121.4806 123.291805 
L 112.574179 116.52518 
L 123.734562 117.271764 
L 121.979901 118.902784 
L 131.374925 122.420373 
L 130.623604 124.427053 
" clip-path="url(#p33fc14798d)" style="fill: #ff0000"/>
    <path d="M 129.611157 178.32046 
L 119.296452 178.869297 
L 120.48015 180.952065 
L 109.610907 178.311782 
L 120.138596 174.532985 
L 119.182601 176.729604 
L 129.497305 176.180767 
L 129.611157 178.32046 
" clip-path="url(#p33fc14798d)" style="fill: #ff0000"/>
    <path d="M 258.267393 285.76029 
L 259.425587 295.870173 
L 261.432446 294.561898 
L 259.458632 305.571694 
L 255.046057 295.293527 
L 257.296791 296.114049 
L 256.138597 286.004166 
L 258.267393 285.76029 
" clip-path="url(#p33fc14798d)" style="fill: #ff0000"/>
    <path d="M 299.047982 71.481623 
L 303.031337 62.318368 
L 300.639142 62.446668 
L 307.857946 53.902641 
L 306.534372 65.009382 
L 304.996414 63.172605 
L 301.013059 72.33586 
L 299.047982 71.481623 
" clip-path="url(#p33fc14798d)" style="fill: #ff0000"/>
   </g>
   <g id="matplotlib.axis_1">
    <g id="xtick_1">
     <g id="line2d_1">
      <defs>
       <path id="md1940db708" d="M 0 0 
L 0 3.5 
" style="stroke: #000000; stroke-width: 0.8"/>
      </defs>
      <g>
       <use xlink:href="#md1940db708" x="93.034612" y="307.584" style="stroke: #000000; stroke-width: 0.8"/>
      </g>
     </g>
     <g id="text_1">
      <!-- −60 -->
      <g transform="translate(80.371799 323.702125) scale(0.12 -0.12)">
       <defs>
        <path id="DejaVuSans-2212" d="M 678 2272 
L 4684 2272 
L 4684 1741 
L 678 1741 
L 678 2272 
z
" transform="scale(0.015625)"/>
        <path id="DejaVuSans-36" d="M 2113 2584 
Q 1688 2584 1439 2293 
Q 1191 2003 1191 1497 
Q 1191 994 1439 701 
Q 1688 409 2113 409 
Q 2538 409 2786 701 
Q 3034 994 3034 1497 
Q 3034 2003 2786 2293 
Q 2538 2584 2113 2584 
z
M 3366 4563 
L 3366 3988 
Q 3128 4100 2886 4159 
Q 2644 4219 2406 4219 
Q 1781 4219 1451 3797 
Q 1122 3375 1075 2522 
Q 1259 2794 1537 2939 
Q 1816 3084 2150 3084 
Q 2853 3084 3261 2657 
Q 3669 2231 3669 1497 
Q 3669 778 3244 343 
Q 2819 -91 2113 -91 
Q 1303 -91 875 529 
Q 447 1150 447 2328 
Q 447 3434 972 4092 
Q 1497 4750 2381 4750 
Q 2619 4750 2861 4703 
Q 3103 4656 3366 4563 
z
" transform="scale(0.015625)"/>
        <path id="DejaVuSans-30" d="M 2034 4250 
Q 1547 4250 1301 3770 
Q 1056 3291 1056 2328 
Q 1056 1369 1301 889 
Q 1547 409 2034 409 
Q 2525 409 2770 889 
Q 3016 1369 3016 2328 
Q 3016 3291 2770 3770 
Q 2525 4250 2034 4250 
z
M 2034 4750 
Q 2819 4750 3233 4129 
Q 3647 3509 3647 2328 
Q 3647 1150 3233 529 
Q 2819 -91 2034 -91 
Q 1250 -91 836 529 
Q 422 1150 422 2328 
Q 422 3509 836 4129 
Q 1250 4750 2034 4750 
z
" transform="scale(0.015625)"/>
       </defs>
       <use xlink:href="#DejaVuSans-2212"/>
       <use xlink:href="#DejaVuSans-36" transform="translate(83.789062 0)"/>
       <use xlink:href="#DejaVuSans-30" transform="translate(147.412109 0)"/>
      </g>
     </g>
    </g>
    <g id="xtick_2">
     <g id="line2d_2">
      <g>
       <use xlink:href="#md1940db708" x="141.050988" y="307.584" style="stroke: #000000; stroke-width: 0.8"/>
      </g>
     </g>
     <g id="text_2">
      <!-- −40 -->
      <g transform="translate(128.388175 323.702125) scale(0.12 -0.12)">
       <defs>
        <path id="DejaVuSans-34" d="M 2419 4116 
L 825 1625 
L 2419 1625 
L 2419 4116 
z
M 2253 4666 
L 3047 4666 
L 3047 1625 
L 3713 1625 
L 3713 1100 
L 3047 1100 
L 3047 0 
L 2419 0 
L 2419 1100 
L 313 1100 
L 313 1709 
L 2253 4666 
z
" transform="scale(0.015625)"/>
       </defs>
       <use xlink:href="#DejaVuSans-2212"/>
       <use xlink:href="#DejaVuSans-34" transform="translate(83.789062 0)"/>
       <use xlink:href="#DejaVuSans-30" transform="translate(147.412109 0)"/>
      </g>
     </g>
    </g>
    <g id="xtick_3">
     <g id="line2d_3">
      <g>
       <use xlink:href="#md1940db708" x="189.067364" y="307.584" style="stroke: #000000; stroke-width: 0.8"/>
      </g>
     </g>
     <g id="text_3">
      <!-- −20 -->
      <g transform="translate(176.404552 323.702125) scale(0.12 -0.12)">
       <defs>
        <path id="DejaVuSans-32" d="M 1228 531 
L 3431 531 
L 3431 0 
L 469 0 
L 469 531 
Q 828 903 1448 1529 
Q 2069 2156 2228 2338 
Q 2531 2678 2651 2914 
Q 2772 3150 2772 3378 
Q 2772 3750 2511 3984 
Q 2250 4219 1831 4219 
Q 1534 4219 1204 4116 
Q 875 4013 500 3803 
L 500 4441 
Q 881 4594 1212 4672 
Q 1544 4750 1819 4750 
Q 2544 4750 2975 4387 
Q 3406 4025 3406 3419 
Q 3406 3131 3298 2873 
Q 3191 2616 2906 2266 
Q 2828 2175 2409 1742 
Q 1991 1309 1228 531 
z
" transform="scale(0.015625)"/>
       </defs>
       <use xlink:href="#DejaVuSans-2212"/>
       <use xlink:href="#DejaVuSans-32" transform="translate(83.789062 0)"/>
       <use xlink:href="#DejaVuSans-30" transform="translate(147.412109 0)"/>
      </g>
     </g>
    </g>
    <g id="xtick_4">
     <g id="line2d_4">
      <g>
       <use xlink:href="#md1940db708" x="237.083741" y="307.584" style="stroke: #000000; stroke-width: 0.8"/>
      </g>
     </g>
     <g id="text_4">
      <!-- 0 -->
      <g transform="translate(233.266241 323.702125) scale(0.12 -0.12)">
       <use xlink:href="#DejaVuSans-30"/>
      </g>
     </g>
    </g>
    <g id="xtick_5">
     <g id="line2d_5">
      <g>
       <use xlink:href="#md1940db708" x="285.100117" y="307.584" style="stroke: #000000; stroke-width: 0.8"/>
      </g>
     </g>
     <g id="text_5">
      <!-- 20 -->
      <g transform="translate(277.465117 323.702125) scale(0.12 -0.12)">
       <use xlink:href="#DejaVuSans-32"/>
       <use xlink:href="#DejaVuSans-30" transform="translate(63.623047 0)"/>
      </g>
     </g>
    </g>
    <g id="xtick_6">
     <g id="line2d_6">
      <g>
       <use xlink:href="#md1940db708" x="333.116493" y="307.584" style="stroke: #000000; stroke-width: 0.8"/>
      </g>
     </g>
     <g id="text_6">
      <!-- 40 -->
      <g transform="translate(325.481493 323.702125) scale(0.12 -0.12)">
       <use xlink:href="#DejaVuSans-34"/>
       <use xlink:href="#DejaVuSans-30" transform="translate(63.623047 0)"/>
      </g>
     </g>
    </g>
    <g id="xtick_7">
     <g id="line2d_7">
      <g>
       <use xlink:href="#md1940db708" x="381.13287" y="307.584" style="stroke: #000000; stroke-width: 0.8"/>
      </g>
     </g>
     <g id="text_7">
      <!-- 60 -->
      <g transform="translate(373.49787 323.702125) scale(0.12 -0.12)">
       <use xlink:href="#DejaVuSans-36"/>
       <use xlink:href="#DejaVuSans-30" transform="translate(63.623047 0)"/>
      </g>
     </g>
    </g>
    <g id="text_8">
     <!-- x -->
     <g transform="translate(232.016875 340.835562) scale(0.14 -0.14)">
      <defs>
       <path id="DejaVuSans-78" d="M 3513 3500 
L 2247 1797 
L 3578 0 
L 2900 0 
L 1881 1375 
L 863 0 
L 184 0 
L 1544 1831 
L 300 3500 
L 978 3500 
L 1906 2253 
L 2834 3500 
L 3513 3500 
z
" transform="scale(0.015625)"/>
      </defs>
      <use xlink:href="#DejaVuSans-78"/>
     </g>
    </g>
   </g>
   <g id="matplotlib.axis_2">
    <g id="ytick_1">
     <g id="line2d_8">
      <defs>
       <path id="m9316f058db" d="M 0 0 
L -3.5 0 
" style="stroke: #000000; stroke-width: 0.8"/>
      </defs>
      <g>
       <use xlink:href="#m9316f058db" x="57.6" y="270.406935" style="stroke: #000000; stroke-width: 0.8"/>
      </g>
     </g>
     <g id="text_9">
      <!-- −40 -->
      <g transform="translate(25.274375 274.965997) scale(0.12 -0.12)">
       <use xlink:href="#DejaVuSans-2212"/>
       <use xlink:href="#DejaVuSans-34" transform="translate(83.789062 0)"/>
       <use xlink:href="#DejaVuSans-30" transform="translate(147.412109 0)"/>
      </g>
     </g>
    </g>
    <g id="ytick_2">
     <g id="line2d_9">
      <g>
       <use xlink:href="#m9316f058db" x="57.6" y="222.390558" style="stroke: #000000; stroke-width: 0.8"/>
      </g>
     </g>
     <g id="text_10">
      <!-- −20 -->
      <g transform="translate(25.274375 226.949621) scale(0.12 -0.12)">
       <use xlink:href="#DejaVuSans-2212"/>
       <use xlink:href="#DejaVuSans-32" transform="translate(83.789062 0)"/>
       <use xlink:href="#DejaVuSans-30" transform="translate(147.412109 0)"/>
      </g>
     </g>
    </g>
    <g id="ytick_3">
     <g id="line2d_10">
      <g>
       <use xlink:href="#m9316f058db" x="57.6" y="174.374182" style="stroke: #000000; stroke-width: 0.8"/>
      </g>
     </g>
     <g id="text_11">
      <!-- 0 -->
      <g transform="translate(42.965 178.933245) scale(0.12 -0.12)">
       <use xlink:href="#DejaVuSans-30"/>
      </g>
     </g>
    </g>
    <g id="ytick_4">
     <g id="line2d_11">
      <g>
       <use xlink:href="#m9316f058db" x="57.6" y="126.357806" style="stroke: #000000; stroke-width: 0.8"/>
      </g>
     </g>
     <g id="text_12">
      <!-- 20 -->
      <g transform="translate(35.33 130.916868) scale(0.12 -0.12)">
       <use xlink:href="#DejaVuSans-32"/>
       <use xlink:href="#DejaVuSans-30" transform="translate(63.623047 0)"/>
      </g>
     </g>
    </g>
    <g id="ytick_5">
     <g id="line2d_12">
      <g>
       <use xlink:href="#m9316f058db" x="57.6" y="78.341429" style="stroke: #000000; stroke-width: 0.8"/>
      </g>
     </g>
     <g id="text_13">
      <!-- 40 -->
      <g transform="translate(35.33 82.900492) scale(0.12 -0.12)">
       <use xlink:href="#DejaVuSans-34"/>
       <use xlink:href="#DejaVuSans-30" transform="translate(63.623047 0)"/>
      </g>
     </g>
    </g>
    <g id="text_14">
     <!-- y -->
     <g transform="translate(18.362813 178.671125) rotate(-90) scale(0.14 -0.14)">
      <defs>
       <path id="DejaVuSans-79" d="M 2059 -325 
Q 1816 -950 1584 -1140 
Q 1353 -1331 966 -1331 
L 506 -1331 
L 506 -850 
L 844 -850 
Q 1081 -850 1212 -737 
Q 1344 -625 1503 -206 
L 1606 56 
L 191 3500 
L 800 3500 
L 1894 763 
L 2988 3500 
L 3597 3500 
L 2059 -325 
z
" transform="scale(0.015625)"/>
      </defs>
      <use xlink:href="#DejaVuSans-79"/>
     </g>
    </g>
   </g>
   <g id="patch_3">
    <path d="M 57.6 307.584 
L 57.6 41.472 
" style="fill: none; stroke: #000000; stroke-width: 0.8; stroke-linejoin: miter; stroke-linecap: square"/>
   </g>
   <g id="patch_4">
    <path d="M 414.72 307.584 
L 414.72 41.472 
" style="fill: none; stroke: #000000; stroke-width: 0.8; stroke-linejoin: miter; stroke-linecap: square"/>
   </g>
   <g id="patch_5">
    <path d="M 57.6 307.584 
L 414.72 307.584 
" style="fill: none; stroke: #000000; stroke-width: 0.8; stroke-linejoin: miter; stroke-linecap: square"/>
   </g>
   <g id="patch_6">
    <path d="M 57.6 41.472 
L 414.72 41.472 
" style="fill: none; stroke: #000000; stroke-width: 0.8; stroke-linejoin: miter; stroke-linecap: square"/>
   </g>
   <g id="text_15">
    <!-- Velocities at the final time -->
    <g transform="translate(116.81 35.472) scale(0.16 -0.16)">
     <defs>
      <path id="DejaVuSans-Bold-56" d="M 31 4666 
L 1241 4666 
L 2478 1222 
L 3713 4666 
L 4922 4666 
L 3194 0 
L 1759 0 
L 31 4666 
z
" transform="scale(0.015625)"/>
      <path id="DejaVuSans-Bold-65" d="M 4031 1759 
L 4031 1441 
L 1416 1441 
Q 1456 1047 1700 850 
Q 1944 653 2381 653 
Q 2734 653 3104 758 
Q 3475 863 3866 1075 
L 3866 213 
Q 3469 63 3072 -14 
Q 2675 -91 2278 -91 
Q 1328 -91 801 392 
Q 275 875 275 1747 
Q 275 2603 792 3093 
Q 1309 3584 2216 3584 
Q 3041 3584 3536 3087 
Q 4031 2591 4031 1759 
z
M 2881 2131 
Q 2881 2450 2695 2645 
Q 2509 2841 2209 2841 
Q 1884 2841 1681 2658 
Q 1478 2475 1428 2131 
L 2881 2131 
z
" transform="scale(0.015625)"/>
      <path id="DejaVuSans-Bold-6c" d="M 538 4863 
L 1656 4863 
L 1656 0 
L 538 0 
L 538 4863 
z
" transform="scale(0.015625)"/>
      <path id="DejaVuSans-Bold-6f" d="M 2203 2784 
Q 1831 2784 1636 2517 
Q 1441 2250 1441 1747 
Q 1441 1244 1636 976 
Q 1831 709 2203 709 
Q 2569 709 2762 976 
Q 2956 1244 2956 1747 
Q 2956 2250 2762 2517 
Q 2569 2784 2203 2784 
z
M 2203 3584 
Q 3106 3584 3614 3096 
Q 4122 2609 4122 1747 
Q 4122 884 3614 396 
Q 3106 -91 2203 -91 
Q 1297 -91 786 396 
Q 275 884 275 1747 
Q 275 2609 786 3096 
Q 1297 3584 2203 3584 
z
" transform="scale(0.015625)"/>
      <path id="DejaVuSans-Bold-63" d="M 3366 3391 
L 3366 2478 
Q 3138 2634 2908 2709 
Q 2678 2784 2431 2784 
Q 1963 2784 1702 2511 
Q 1441 2238 1441 1747 
Q 1441 1256 1702 982 
Q 1963 709 2431 709 
Q 2694 709 2930 787 
Q 3166 866 3366 1019 
L 3366 103 
Q 3103 6 2833 -42 
Q 2563 -91 2291 -91 
Q 1344 -91 809 395 
Q 275 881 275 1747 
Q 275 2613 809 3098 
Q 1344 3584 2291 3584 
Q 2566 3584 2833 3536 
Q 3100 3488 3366 3391 
z
" transform="scale(0.015625)"/>
      <path id="DejaVuSans-Bold-69" d="M 538 3500 
L 1656 3500 
L 1656 0 
L 538 0 
L 538 3500 
z
M 538 4863 
L 1656 4863 
L 1656 3950 
L 538 3950 
L 538 4863 
z
" transform="scale(0.015625)"/>
      <path id="DejaVuSans-Bold-74" d="M 1759 4494 
L 1759 3500 
L 2913 3500 
L 2913 2700 
L 1759 2700 
L 1759 1216 
Q 1759 972 1856 886 
Q 1953 800 2241 800 
L 2816 800 
L 2816 0 
L 1856 0 
Q 1194 0 917 276 
Q 641 553 641 1216 
L 641 2700 
L 84 2700 
L 84 3500 
L 641 3500 
L 641 4494 
L 1759 4494 
z
" transform="scale(0.015625)"/>
      <path id="DejaVuSans-Bold-73" d="M 3272 3391 
L 3272 2541 
Q 2913 2691 2578 2766 
Q 2244 2841 1947 2841 
Q 1628 2841 1473 2761 
Q 1319 2681 1319 2516 
Q 1319 2381 1436 2309 
Q 1553 2238 1856 2203 
L 2053 2175 
Q 2913 2066 3209 1816 
Q 3506 1566 3506 1031 
Q 3506 472 3093 190 
Q 2681 -91 1863 -91 
Q 1516 -91 1145 -36 
Q 775 19 384 128 
L 384 978 
Q 719 816 1070 734 
Q 1422 653 1784 653 
Q 2113 653 2278 743 
Q 2444 834 2444 1013 
Q 2444 1163 2330 1236 
Q 2216 1309 1875 1350 
L 1678 1375 
Q 931 1469 631 1722 
Q 331 1975 331 2491 
Q 331 3047 712 3315 
Q 1094 3584 1881 3584 
Q 2191 3584 2531 3537 
Q 2872 3491 3272 3391 
z
" transform="scale(0.015625)"/>
      <path id="DejaVuSans-Bold-20" transform="scale(0.015625)"/>
      <path id="DejaVuSans-Bold-61" d="M 2106 1575 
Q 1756 1575 1579 1456 
Q 1403 1338 1403 1106 
Q 1403 894 1545 773 
Q 1688 653 1941 653 
Q 2256 653 2472 879 
Q 2688 1106 2688 1447 
L 2688 1575 
L 2106 1575 
z
M 3816 1997 
L 3816 0 
L 2688 0 
L 2688 519 
Q 2463 200 2181 54 
Q 1900 -91 1497 -91 
Q 953 -91 614 226 
Q 275 544 275 1050 
Q 275 1666 698 1953 
Q 1122 2241 2028 2241 
L 2688 2241 
L 2688 2328 
Q 2688 2594 2478 2717 
Q 2269 2841 1825 2841 
Q 1466 2841 1156 2769 
Q 847 2697 581 2553 
L 581 3406 
Q 941 3494 1303 3539 
Q 1666 3584 2028 3584 
Q 2975 3584 3395 3211 
Q 3816 2838 3816 1997 
z
" transform="scale(0.015625)"/>
      <path id="DejaVuSans-Bold-68" d="M 4056 2131 
L 4056 0 
L 2931 0 
L 2931 347 
L 2931 1625 
Q 2931 2084 2911 2256 
Q 2891 2428 2841 2509 
Q 2775 2619 2662 2680 
Q 2550 2741 2406 2741 
Q 2056 2741 1856 2470 
Q 1656 2200 1656 1722 
L 1656 0 
L 538 0 
L 538 4863 
L 1656 4863 
L 1656 2988 
Q 1909 3294 2193 3439 
Q 2478 3584 2822 3584 
Q 3428 3584 3742 3212 
Q 4056 2841 4056 2131 
z
" transform="scale(0.015625)"/>
      <path id="DejaVuSans-Bold-66" d="M 2841 4863 
L 2841 4128 
L 2222 4128 
Q 1984 4128 1890 4042 
Q 1797 3956 1797 3744 
L 1797 3500 
L 2753 3500 
L 2753 2700 
L 1797 2700 
L 1797 0 
L 678 0 
L 678 2700 
L 122 2700 
L 122 3500 
L 678 3500 
L 678 3744 
Q 678 4316 997 4589 
Q 1316 4863 1984 4863 
L 2841 4863 
z
" transform="scale(0.015625)"/>
      <path id="DejaVuSans-Bold-6e" d="M 4056 2131 
L 4056 0 
L 2931 0 
L 2931 347 
L 2931 1631 
Q 2931 2084 2911 2256 
Q 2891 2428 2841 2509 
Q 2775 2619 2662 2680 
Q 2550 2741 2406 2741 
Q 2056 2741 1856 2470 
Q 1656 2200 1656 1722 
L 1656 0 
L 538 0 
L 538 3500 
L 1656 3500 
L 1656 2988 
Q 1909 3294 2193 3439 
Q 2478 3584 2822 3584 
Q 3428 3584 3742 3212 
Q 4056 2841 4056 2131 
z
" transform="scale(0.015625)"/>
      <path id="DejaVuSans-Bold-6d" d="M 3781 2919 
Q 3994 3244 4286 3414 
Q 4578 3584 4928 3584 
Q 5531 3584 5847 3212 
Q 6163 2841 6163 2131 
L 6163 0 
L 5038 0 
L 5038 1825 
Q 5041 1866 5042 1909 
Q 5044 1953 5044 2034 
Q 5044 2406 4934 2573 
Q 4825 2741 4581 2741 
Q 4263 2741 4089 2478 
Q 3916 2216 3909 1719 
L 3909 0 
L 2784 0 
L 2784 1825 
Q 2784 2406 2684 2573 
Q 2584 2741 2328 2741 
Q 2006 2741 1831 2477 
Q 1656 2213 1656 1722 
L 1656 0 
L 531 0 
L 531 3500 
L 1656 3500 
L 1656 2988 
Q 1863 3284 2130 3434 
Q 2397 3584 2719 3584 
Q 3081 3584 3359 3409 
Q 3638 3234 3781 2919 
z
" transform="scale(0.015625)"/>
     </defs>
     <use xlink:href="#DejaVuSans-Bold-56"/>
     <use xlink:href="#DejaVuSans-Bold-65" transform="translate(71.892578 0)"/>
     <use xlink:href="#DejaVuSans-Bold-6c" transform="translate(139.714844 0)"/>
     <use xlink:href="#DejaVuSans-Bold-6f" transform="translate(173.992188 0)"/>
     <use xlink:href="#DejaVuSans-Bold-63" transform="translate(242.693359 0)"/>
     <use xlink:href="#DejaVuSans-Bold-69" transform="translate(301.970703 0)"/>
     <use xlink:href="#DejaVuSans-Bold-74" transform="translate(336.248047 0)"/>
     <use xlink:href="#DejaVuSans-Bold-69" transform="translate(384.050781 0)"/>
     <use xlink:href="#DejaVuSans-Bold-65" transform="translate(418.328125 0)"/>
     <use xlink:href="#DejaVuSans-Bold-73" transform="translate(486.150391 0)"/>
     <use xlink:href="#DejaVuSans-Bold-20" transform="translate(545.671875 0)"/>
     <use xlink:href="#DejaVuSans-Bold-61" transform="translate(580.486328 0)"/>
     <use xlink:href="#DejaVuSans-Bold-74" transform="translate(647.966797 0)"/>
     <use xlink:href="#DejaVuSans-Bold-20" transform="translate(695.769531 0)"/>
     <use xlink:href="#DejaVuSans-Bold-74" transform="translate(730.583984 0)"/>
     <use xlink:href="#DejaVuSans-Bold-68" transform="translate(778.386719 0)"/>
     <use xlink:href="#DejaVuSans-Bold-65" transform="translate(849.578125 0)"/>
     <use xlink:href="#DejaVuSans-Bold-20" transform="translate(917.400391 0)"/>
     <use xlink:href="#DejaVuSans-Bold-66" transform="translate(952.214844 0)"/>
     <use xlink:href="#DejaVuSans-Bold-69" transform="translate(995.720703 0)"/>
     <use xlink:href="#DejaVuSans-Bold-6e" transform="translate(1029.998047 0)"/>
     <use xlink:href="#DejaVuSans-Bold-61" transform="translate(1101.189453 0)"/>
     <use xlink:href="#DejaVuSans-Bold-6c" transform="translate(1168.669922 0)"/>
     <use xlink:href="#DejaVuSans-Bold-20" transform="translate(1202.947266 0)"/>
     <use xlink:href="#DejaVuSans-Bold-74" transform="translate(1237.761719 0)"/>
     <use xlink:href="#DejaVuSans-Bold-69" transform="translate(1285.564453 0)"/>
     <use xlink:href="#DejaVuSans-Bold-6d" transform="translate(1319.841797 0)"/>
     <use xlink:href="#DejaVuSans-Bold-65" transform="translate(1424.041016 0)"/>
    </g>
   </g>
   <g id="legend_1">
    <g id="patch_7">
     <path d="M 328.266875 78.82825 
L 407.72 78.82825 
Q 409.72 78.82825 409.72 76.82825 
L 409.72 48.472 
Q 409.72 46.472 407.72 46.472 
L 328.266875 46.472 
Q 326.266875 46.472 326.266875 48.472 
L 326.266875 76.82825 
Q 326.266875 78.82825 328.266875 78.82825 
z
" style="fill: #ffffff; opacity: 0.8; stroke: #cccccc; stroke-linejoin: miter"/>
    </g>
    <g id="PathCollection_2">
     <g>
      <use xlink:href="#m250a0df149" x="340.266875" y="55.445437" style="fill: #0000ff; stroke: #0000ff"/>
     </g>
    </g>
    <g id="text_16">
     <!-- Positions -->
     <g transform="translate(358.266875 58.070437) scale(0.1 -0.1)">
      <defs>
       <path id="DejaVuSans-50" d="M 1259 4147 
L 1259 2394 
L 2053 2394 
Q 2494 2394 2734 2622 
Q 2975 2850 2975 3272 
Q 2975 3691 2734 3919 
Q 2494 4147 2053 4147 
L 1259 4147 
z
M 628 4666 
L 2053 4666 
Q 2838 4666 3239 4311 
Q 3641 3956 3641 3272 
Q 3641 2581 3239 2228 
Q 2838 1875 2053 1875 
L 1259 1875 
L 1259 0 
L 628 0 
L 628 4666 
z
" transform="scale(0.015625)"/>
       <path id="DejaVuSans-6f" d="M 1959 3097 
Q 1497 3097 1228 2736 
Q 959 2375 959 1747 
Q 959 1119 1226 758 
Q 1494 397 1959 397 
Q 2419 397 2687 759 
Q 2956 1122 2956 1747 
Q 2956 2369 2687 2733 
Q 2419 3097 1959 3097 
z
M 1959 3584 
Q 2709 3584 3137 3096 
Q 3566 2609 3566 1747 
Q 3566 888 3137 398 
Q 2709 -91 1959 -91 
Q 1206 -91 779 398 
Q 353 888 353 1747 
Q 353 2609 779 3096 
Q 1206 3584 1959 3584 
z
" transform="scale(0.015625)"/>
       <path id="DejaVuSans-73" d="M 2834 3397 
L 2834 2853 
Q 2591 2978 2328 3040 
Q 2066 3103 1784 3103 
Q 1356 3103 1142 2972 
Q 928 2841 928 2578 
Q 928 2378 1081 2264 
Q 1234 2150 1697 2047 
L 1894 2003 
Q 2506 1872 2764 1633 
Q 3022 1394 3022 966 
Q 3022 478 2636 193 
Q 2250 -91 1575 -91 
Q 1294 -91 989 -36 
Q 684 19 347 128 
L 347 722 
Q 666 556 975 473 
Q 1284 391 1588 391 
Q 1994 391 2212 530 
Q 2431 669 2431 922 
Q 2431 1156 2273 1281 
Q 2116 1406 1581 1522 
L 1381 1569 
Q 847 1681 609 1914 
Q 372 2147 372 2553 
Q 372 3047 722 3315 
Q 1072 3584 1716 3584 
Q 2034 3584 2315 3537 
Q 2597 3491 2834 3397 
z
" transform="scale(0.015625)"/>
       <path id="DejaVuSans-69" d="M 603 3500 
L 1178 3500 
L 1178 0 
L 603 0 
L 603 3500 
z
M 603 4863 
L 1178 4863 
L 1178 4134 
L 603 4134 
L 603 4863 
z
" transform="scale(0.015625)"/>
       <path id="DejaVuSans-74" d="M 1172 4494 
L 1172 3500 
L 2356 3500 
L 2356 3053 
L 1172 3053 
L 1172 1153 
Q 1172 725 1289 603 
Q 1406 481 1766 481 
L 2356 481 
L 2356 0 
L 1766 0 
Q 1100 0 847 248 
Q 594 497 594 1153 
L 594 3053 
L 172 3053 
L 172 3500 
L 594 3500 
L 594 4494 
L 1172 4494 
z
" transform="scale(0.015625)"/>
       <path id="DejaVuSans-6e" d="M 3513 2113 
L 3513 0 
L 2938 0 
L 2938 2094 
Q 2938 2591 2744 2837 
Q 2550 3084 2163 3084 
Q 1697 3084 1428 2787 
Q 1159 2491 1159 1978 
L 1159 0 
L 581 0 
L 581 3500 
L 1159 3500 
L 1159 2956 
Q 1366 3272 1645 3428 
Q 1925 3584 2291 3584 
Q 2894 3584 3203 3211 
Q 3513 2838 3513 2113 
z
" transform="scale(0.015625)"/>
      </defs>
      <use xlink:href="#DejaVuSans-50"/>
      <use xlink:href="#DejaVuSans-6f" transform="translate(56.677734 0)"/>
      <use xlink:href="#DejaVuSans-73" transform="translate(117.859375 0)"/>
      <use xlink:href="#DejaVuSans-69" transform="translate(169.958984 0)"/>
      <use xlink:href="#DejaVuSans-74" transform="translate(197.742188 0)"/>
      <use xlink:href="#DejaVuSans-69" transform="translate(236.951172 0)"/>
      <use xlink:href="#DejaVuSans-6f" transform="translate(264.734375 0)"/>
      <use xlink:href="#DejaVuSans-6e" transform="translate(325.916016 0)"/>
      <use xlink:href="#DejaVuSans-73" transform="translate(389.294922 0)"/>
     </g>
    </g>
    <g id="patch_8">
     <path d="M 330.266875 72.748562 
L 350.266875 72.748562 
L 350.266875 65.748562 
L 330.266875 65.748562 
z
" style="fill: #ff0000"/>
    </g>
    <g id="text_17">
     <!-- Velocities -->
     <g transform="translate(358.266875 72.748562) scale(0.1 -0.1)">
      <defs>
       <path id="DejaVuSans-56" d="M 1831 0 
L 50 4666 
L 709 4666 
L 2188 738 
L 3669 4666 
L 4325 4666 
L 2547 0 
L 1831 0 
z
" transform="scale(0.015625)"/>
       <path id="DejaVuSans-65" d="M 3597 1894 
L 3597 1613 
L 953 1613 
Q 991 1019 1311 708 
Q 1631 397 2203 397 
Q 2534 397 2845 478 
Q 3156 559 3463 722 
L 3463 178 
Q 3153 47 2828 -22 
Q 2503 -91 2169 -91 
Q 1331 -91 842 396 
Q 353 884 353 1716 
Q 353 2575 817 3079 
Q 1281 3584 2069 3584 
Q 2775 3584 3186 3129 
Q 3597 2675 3597 1894 
z
M 3022 2063 
Q 3016 2534 2758 2815 
Q 2500 3097 2075 3097 
Q 1594 3097 1305 2825 
Q 1016 2553 972 2059 
L 3022 2063 
z
" transform="scale(0.015625)"/>
       <path id="DejaVuSans-6c" d="M 603 4863 
L 1178 4863 
L 1178 0 
L 603 0 
L 603 4863 
z
" transform="scale(0.015625)"/>
       <path id="DejaVuSans-63" d="M 3122 3366 
L 3122 2828 
Q 2878 2963 2633 3030 
Q 2388 3097 2138 3097 
Q 1578 3097 1268 2742 
Q 959 2388 959 1747 
Q 959 1106 1268 751 
Q 1578 397 2138 397 
Q 2388 397 2633 464 
Q 2878 531 3122 666 
L 3122 134 
Q 2881 22 2623 -34 
Q 2366 -91 2075 -91 
Q 1284 -91 818 406 
Q 353 903 353 1747 
Q 353 2603 823 3093 
Q 1294 3584 2113 3584 
Q 2378 3584 2631 3529 
Q 2884 3475 3122 3366 
z
" transform="scale(0.015625)"/>
      </defs>
      <use xlink:href="#DejaVuSans-56"/>
      <use xlink:href="#DejaVuSans-65" transform="translate(60.658203 0)"/>
      <use xlink:href="#DejaVuSans-6c" transform="translate(122.181641 0)"/>
      <use xlink:href="#DejaVuSans-6f" transform="translate(149.964844 0)"/>
      <use xlink:href="#DejaVuSans-63" transform="translate(211.146484 0)"/>
      <use xlink:href="#DejaVuSans-69" transform="translate(266.126953 0)"/>
      <use xlink:href="#DejaVuSans-74" transform="translate(293.910156 0)"/>
      <use xlink:href="#DejaVuSans-69" transform="translate(333.119141 0)"/>
      <use xlink:href="#DejaVuSans-65" transform="translate(360.902344 0)"/>
      <use xlink:href="#DejaVuSans-73" transform="translate(422.425781 0)"/>
     </g>
    </g>
   </g>
  </g>
 </g>
 <defs>
  <clipPath id="p33fc14798d">
   <rect x="57.6" y="41.472" width="357.12" height="266.112"/>
  </clipPath>
 </defs>
</svg>
