<?xml version="1.0" encoding="utf-8" standalone="no"?>
<!DOCTYPE svg PUBLIC "-//W3C//DTD SVG 1.1//EN"
  "http://www.w3.org/Graphics/SVG/1.1/DTD/svg11.dtd">
<svg xmlns:xlink="http://www.w3.org/1999/xlink" width="576pt" height="432pt" viewBox="0 0 576 432" xmlns="http://www.w3.org/2000/svg" version="1.1">
 <metadata>
  <rdf:RDF xmlns:dc="http://purl.org/dc/elements/1.1/" xmlns:cc="http://creativecommons.org/ns#" xmlns:rdf="http://www.w3.org/1999/02/22-rdf-syntax-ns#">
   <cc:Work>
    <dc:type rdf:resource="http://purl.org/dc/dcmitype/StillImage"/>
    <dc:date>2025-05-05T23:22:02.751763</dc:date>
    <dc:format>image/svg+xml</dc:format>
    <dc:creator>
     <cc:Agent>
      <dc:title>Matplotlib v3.10.1, https://matplotlib.org/</dc:title>
     </cc:Agent>
    </dc:creator>
   </cc:Work>
  </rdf:RDF>
 </metadata>
 <defs>
  <style type="text/css">*{stroke-linejoin: round; stroke-linecap: butt}</style>
 </defs>
 <g id="figure_1">
  <g id="patch_1">
   <path d="M 0 432 
L 576 432 
L 576 0 
L 0 0 
z
" style="fill: #ffffff"/>
  </g>
  <g id="axes_1">
   <g id="patch_2">
    <path d="M 72 384.48 
L 518.4 384.48 
L 518.4 51.84 
L 72 51.84 
z
" style="fill: #ffffff"/>
   </g>
   <g id="PathCollection_1">
    <defs>
     <path id="m822da1c436" d="M 0 3 
C 0.795609 3 1.55874 2.683901 2.12132 2.12132 
C 2.683901 1.55874 3 0.795609 3 0 
C 3 -0.795609 2.683901 -1.55874 2.12132 -2.12132 
C 1.55874 -2.683901 0.795609 -3 0 -3 
C -0.795609 -3 -1.55874 -2.683901 -2.12132 -2.12132 
C -2.683901 -1.55874 -3 -0.795609 -3 0 
C -3 0.795609 -2.683901 1.55874 -2.12132 2.12132 
C -1.55874 2.683901 -0.795609 3 0 3 
z
" style="stroke: #0000ff"/>
    </defs>
    <g clip-path="url(#pdd909149b8)">
     <use xlink:href="#m822da1c436" x="106.782607" y="185.089623" style="fill: #0000ff; stroke: #0000ff"/>
     <use xlink:href="#m822da1c436" x="218.051587" y="84.501289" style="fill: #0000ff; stroke: #0000ff"/>
     <use xlink:href="#m822da1c436" x="353.659248" y="311.55649" style="fill: #0000ff; stroke: #0000ff"/>
     <use xlink:href="#m822da1c436" x="151.811748" y="104.522883" style="fill: #0000ff; stroke: #0000ff"/>
     <use xlink:href="#m822da1c436" x="382.116747" y="148.772345" style="fill: #0000ff; stroke: #0000ff"/>
     <use xlink:href="#m822da1c436" x="137.682851" y="298.186819" style="fill: #0000ff; stroke: #0000ff"/>
     <use xlink:href="#m822da1c436" x="303.652967" y="101.846152" style="fill: #0000ff; stroke: #0000ff"/>
     <use xlink:href="#m822da1c436" x="186.294849" y="322.900186" style="fill: #0000ff; stroke: #0000ff"/>
     <use xlink:href="#m822da1c436" x="236.786622" y="371.083809" style="fill: #0000ff; stroke: #0000ff"/>
     <use xlink:href="#m822da1c436" x="331.324193" y="100.99682" style="fill: #0000ff; stroke: #0000ff"/>
     <use xlink:href="#m822da1c436" x="164.420731" y="113.896645" style="fill: #0000ff; stroke: #0000ff"/>
     <use xlink:href="#m822da1c436" x="106.783393" y="271.631528" style="fill: #0000ff; stroke: #0000ff"/>
     <use xlink:href="#m822da1c436" x="393.540136" y="230.852772" style="fill: #0000ff; stroke: #0000ff"/>
     <use xlink:href="#m822da1c436" x="227.06405" y="90.515457" style="fill: #0000ff; stroke: #0000ff"/>
     <use xlink:href="#m822da1c436" x="108.739996" y="203.150148" style="fill: #0000ff; stroke: #0000ff"/>
     <use xlink:href="#m822da1c436" x="379.174663" y="260.161712" style="fill: #0000ff; stroke: #0000ff"/>
     <use xlink:href="#m822da1c436" x="332.523433" y="346.219416" style="fill: #0000ff; stroke: #0000ff"/>
     <use xlink:href="#m822da1c436" x="353.633543" y="163.536477" style="fill: #0000ff; stroke: #0000ff"/>
     <use xlink:href="#m822da1c436" x="151.504319" y="90.843494" style="fill: #0000ff; stroke: #0000ff"/>
     <use xlink:href="#m822da1c436" x="227.501795" y="74.66596" style="fill: #0000ff; stroke: #0000ff"/>
     <use xlink:href="#m822da1c436" x="108.336534" y="293.200988" style="fill: #0000ff; stroke: #0000ff"/>
     <use xlink:href="#m822da1c436" x="99.67395" y="159.160383" style="fill: #0000ff; stroke: #0000ff"/>
     <use xlink:href="#m822da1c436" x="352.962867" y="150.296612" style="fill: #0000ff; stroke: #0000ff"/>
     <use xlink:href="#m822da1c436" x="91.452805" y="220.617513" style="fill: #0000ff; stroke: #0000ff"/>
     <use xlink:href="#m822da1c436" x="116.346124" y="231.207702" style="fill: #0000ff; stroke: #0000ff"/>
     <use xlink:href="#m822da1c436" x="98.780964" y="212.214029" style="fill: #0000ff; stroke: #0000ff"/>
     <use xlink:href="#m822da1c436" x="248.440889" y="373.583515" style="fill: #0000ff; stroke: #0000ff"/>
     <use xlink:href="#m822da1c436" x="252.147505" y="69.697466" style="fill: #0000ff; stroke: #0000ff"/>
     <use xlink:href="#m822da1c436" x="274.685658" y="64.249769" style="fill: #0000ff; stroke: #0000ff"/>
     <use xlink:href="#m822da1c436" x="391.269407" y="176.285216" style="fill: #0000ff; stroke: #0000ff"/>
     <use xlink:href="#m822da1c436" x="283.402214" y="117.293732" style="fill: #0000ff; stroke: #0000ff"/>
     <use xlink:href="#m822da1c436" x="172.124441" y="334.170611" style="fill: #0000ff; stroke: #0000ff"/>
     <use xlink:href="#m822da1c436" x="191.196863" y="362.946109" style="fill: #0000ff; stroke: #0000ff"/>
     <use xlink:href="#m822da1c436" x="221.214763" y="62.736485" style="fill: #0000ff; stroke: #0000ff"/>
     <use xlink:href="#m822da1c436" x="132.751315" y="322.289537" style="fill: #0000ff; stroke: #0000ff"/>
     <use xlink:href="#m822da1c436" x="313.301618" y="108.734585" style="fill: #0000ff; stroke: #0000ff"/>
     <use xlink:href="#m822da1c436" x="204.15739" y="358.982748" style="fill: #0000ff; stroke: #0000ff"/>
     <use xlink:href="#m822da1c436" x="162.685673" y="90.882384" style="fill: #0000ff; stroke: #0000ff"/>
     <use xlink:href="#m822da1c436" x="276.062425" y="334.305076" style="fill: #0000ff; stroke: #0000ff"/>
     <use xlink:href="#m822da1c436" x="91.405095" y="240.249153" style="fill: #0000ff; stroke: #0000ff"/>
     <use xlink:href="#m822da1c436" x="372.352924" y="227.601712" style="fill: #0000ff; stroke: #0000ff"/>
     <use xlink:href="#m822da1c436" x="390.113101" y="248.487865" style="fill: #0000ff; stroke: #0000ff"/>
     <use xlink:href="#m822da1c436" x="318.390753" y="350.483128" style="fill: #0000ff; stroke: #0000ff"/>
     <use xlink:href="#m822da1c436" x="363.885527" y="139.295262" style="fill: #0000ff; stroke: #0000ff"/>
     <use xlink:href="#m822da1c436" x="341.023125" y="315.340525" style="fill: #0000ff; stroke: #0000ff"/>
     <use xlink:href="#m822da1c436" x="100.697381" y="234.515248" style="fill: #0000ff; stroke: #0000ff"/>
     <use xlink:href="#m822da1c436" x="241.000281" y="63.901113" style="fill: #0000ff; stroke: #0000ff"/>
     <use xlink:href="#m822da1c436" x="194.250354" y="330.827617" style="fill: #0000ff; stroke: #0000ff"/>
     <use xlink:href="#m822da1c436" x="236.515566" y="79.78938" style="fill: #0000ff; stroke: #0000ff"/>
     <use xlink:href="#m822da1c436" x="95.67667" y="201.898783" style="fill: #0000ff; stroke: #0000ff"/>
     <use xlink:href="#m822da1c436" x="332.520999" y="112.131069" style="fill: #0000ff; stroke: #0000ff"/>
     <use xlink:href="#m822da1c436" x="352.680248" y="296.420905" style="fill: #0000ff; stroke: #0000ff"/>
     <use xlink:href="#m822da1c436" x="358.703373" y="324.493538" style="fill: #0000ff; stroke: #0000ff"/>
     <use xlink:href="#m822da1c436" x="87.608392" y="209.388449" style="fill: #0000ff; stroke: #0000ff"/>
     <use xlink:href="#m822da1c436" x="140.427995" y="103.959638" style="fill: #0000ff; stroke: #0000ff"/>
     <use xlink:href="#m822da1c436" x="145.801006" y="319.449203" style="fill: #0000ff; stroke: #0000ff"/>
     <use xlink:href="#m822da1c436" x="214.952913" y="73.174621" style="fill: #0000ff; stroke: #0000ff"/>
     <use xlink:href="#m822da1c436" x="348.009433" y="324.202038" style="fill: #0000ff; stroke: #0000ff"/>
     <use xlink:href="#m822da1c436" x="110.443981" y="244.351287" style="fill: #0000ff; stroke: #0000ff"/>
     <use xlink:href="#m822da1c436" x="387.890253" y="213.9944" style="fill: #0000ff; stroke: #0000ff"/>
     <use xlink:href="#m822da1c436" x="269.670428" y="77.836735" style="fill: #0000ff; stroke: #0000ff"/>
     <use xlink:href="#m822da1c436" x="382.884573" y="233.026271" style="fill: #0000ff; stroke: #0000ff"/>
     <use xlink:href="#m822da1c436" x="178.772502" y="346.079761" style="fill: #0000ff; stroke: #0000ff"/>
     <use xlink:href="#m822da1c436" x="286.122651" y="323.56105" style="fill: #0000ff; stroke: #0000ff"/>
     <use xlink:href="#m822da1c436" x="137.198073" y="333.217356" style="fill: #0000ff; stroke: #0000ff"/>
     <use xlink:href="#m822da1c436" x="344.257272" y="169.640997" style="fill: #0000ff; stroke: #0000ff"/>
     <use xlink:href="#m822da1c436" x="362.102078" y="306.059751" style="fill: #0000ff; stroke: #0000ff"/>
     <use xlink:href="#m822da1c436" x="148.199737" y="329.429647" style="fill: #0000ff; stroke: #0000ff"/>
     <use xlink:href="#m822da1c436" x="394.494998" y="260.342404" style="fill: #0000ff; stroke: #0000ff"/>
     <use xlink:href="#m822da1c436" x="260.843795" y="96.75119" style="fill: #0000ff; stroke: #0000ff"/>
     <use xlink:href="#m822da1c436" x="117.423356" y="126.137862" style="fill: #0000ff; stroke: #0000ff"/>
     <use xlink:href="#m822da1c436" x="399.776224" y="241.603822" style="fill: #0000ff; stroke: #0000ff"/>
     <use xlink:href="#m822da1c436" x="122.345505" y="298.166456" style="fill: #0000ff; stroke: #0000ff"/>
     <use xlink:href="#m822da1c436" x="335.966432" y="326.97988" style="fill: #0000ff; stroke: #0000ff"/>
     <use xlink:href="#m822da1c436" x="237.834045" y="355.89399" style="fill: #0000ff; stroke: #0000ff"/>
     <use xlink:href="#m822da1c436" x="398.00769" y="189.845309" style="fill: #0000ff; stroke: #0000ff"/>
     <use xlink:href="#m822da1c436" x="152.400872" y="341.12999" style="fill: #0000ff; stroke: #0000ff"/>
     <use xlink:href="#m822da1c436" x="316.723317" y="97.729192" style="fill: #0000ff; stroke: #0000ff"/>
     <use xlink:href="#m822da1c436" x="284.674448" y="72.322953" style="fill: #0000ff; stroke: #0000ff"/>
     <use xlink:href="#m822da1c436" x="364.948078" y="162.359985" style="fill: #0000ff; stroke: #0000ff"/>
     <use xlink:href="#m822da1c436" x="111.029274" y="167.159847" style="fill: #0000ff; stroke: #0000ff"/>
     <use xlink:href="#m822da1c436" x="343.234151" y="102.547667" style="fill: #0000ff; stroke: #0000ff"/>
     <use xlink:href="#m822da1c436" x="391.862327" y="160.486986" style="fill: #0000ff; stroke: #0000ff"/>
     <use xlink:href="#m822da1c436" x="250.273844" y="353.680516" style="fill: #0000ff; stroke: #0000ff"/>
     <use xlink:href="#m822da1c436" x="337.342671" y="90.333806" style="fill: #0000ff; stroke: #0000ff"/>
     <use xlink:href="#m822da1c436" x="302.595066" y="346.969354" style="fill: #0000ff; stroke: #0000ff"/>
     <use xlink:href="#m822da1c436" x="201.454793" y="83.741019" style="fill: #0000ff; stroke: #0000ff"/>
     <use xlink:href="#m822da1c436" x="122.956487" y="139.736147" style="fill: #0000ff; stroke: #0000ff"/>
     <use xlink:href="#m822da1c436" x="117.404215" y="191.958802" style="fill: #0000ff; stroke: #0000ff"/>
     <use xlink:href="#m822da1c436" x="364.711001" y="149.207893" style="fill: #0000ff; stroke: #0000ff"/>
     <use xlink:href="#m822da1c436" x="289.085439" y="338.83802" style="fill: #0000ff; stroke: #0000ff"/>
     <use xlink:href="#m822da1c436" x="379.225123" y="161.606665" style="fill: #0000ff; stroke: #0000ff"/>
     <use xlink:href="#m822da1c436" x="211.657928" y="370.356636" style="fill: #0000ff; stroke: #0000ff"/>
     <use xlink:href="#m822da1c436" x="290.787549" y="303.44874" style="fill: #0000ff; stroke: #0000ff"/>
     <use xlink:href="#m822da1c436" x="185.238426" y="334.702399" style="fill: #0000ff; stroke: #0000ff"/>
     <use xlink:href="#m822da1c436" x="295.289326" y="360.175493" style="fill: #0000ff; stroke: #0000ff"/>
     <use xlink:href="#m822da1c436" x="108.56953" y="152.495252" style="fill: #0000ff; stroke: #0000ff"/>
     <use xlink:href="#m822da1c436" x="106.712783" y="221.658332" style="fill: #0000ff; stroke: #0000ff"/>
     <use xlink:href="#m822da1c436" x="270.730802" y="361.240899" style="fill: #0000ff; stroke: #0000ff"/>
     <use xlink:href="#m822da1c436" x="325.760602" y="86.302808" style="fill: #0000ff; stroke: #0000ff"/>
    </g>
   </g>
   <g id="Quiver_1">
    <path d="M 106.755577 186.42855 
L 94.028598 186.171628 
L 95.313467 188.876511 
L 82.005283 184.589437 
L 95.475642 180.842948 
L 94.082657 183.493773 
L 106.809636 183.750696 
L 106.755577 186.42855 
" clip-path="url(#pdd909149b8)" style="fill: #ff0000"/>
    <path d="M 216.728675 84.709517 
L 214.706288 71.860927 
L 212.268691 73.600296 
L 214.155145 59.746486 
L 220.206166 72.350926 
L 217.352113 71.44447 
L 219.3745 84.293061 
L 216.728675 84.709517 
" clip-path="url(#pdd909149b8)" style="fill: #ff0000"/>
    <path d="M 354.729106 310.750971 
L 362.384537 320.918617 
L 363.718735 318.237722 
L 368.564344 331.35286 
L 357.299585 323.070832 
L 360.24482 322.529654 
L 352.589389 312.362008 
L 354.729106 310.750971 
" clip-path="url(#pdd909149b8)" style="fill: #ff0000"/>
    <path d="M 150.718601 105.296502 
L 143.401529 94.957266 
L 141.988855 97.597652 
L 137.532101 84.345327 
L 148.547735 92.955935 
L 145.587822 93.410028 
L 152.904895 103.749263 
L 150.718601 105.296502 
" clip-path="url(#pdd909149b8)" style="fill: #ff0000"/>
    <path d="M 381.516275 147.575311 
L 392.729411 141.950423 
L 390.331433 140.156828 
L 404.103186 137.743205 
L 393.934268 147.33903 
L 393.930356 144.34449 
L 382.71722 149.969378 
L 381.516275 147.575311 
" clip-path="url(#pdd909149b8)" style="fill: #ff0000"/>
    <path d="M 138.573486 299.186933 
L 128.952992 307.754307 
L 131.734375 308.863898 
L 119.061338 314.769905 
L 126.390567 302.863219 
L 127.171723 305.75408 
L 136.792217 297.186706 
L 138.573486 299.186933 
" clip-path="url(#pdd909149b8)" style="fill: #ff0000"/>
    <path d="M 302.777656 100.832601 
L 312.496895 92.43898 
L 309.732721 91.287189 
L 322.494168 85.574726 
L 314.984591 97.368496 
L 314.247519 94.466082 
L 304.528279 102.859703 
L 302.777656 100.832601 
" clip-path="url(#pdd909149b8)" style="fill: #ff0000"/>
    <path d="M 187.56621 323.321017 
L 183.559211 335.426473 
L 186.522763 334.996773 
L 178.500379 346.447891 
L 178.894598 332.471792 
L 181.016489 334.584813 
L 185.023488 322.479356 
L 187.56621 323.321017 
" clip-path="url(#pdd909149b8)" style="fill: #ff0000"/>
    <path d="M 238.100284 371.344098 
L 235.653715 383.691761 
L 238.541327 382.898678 
L 231.997451 395.254424 
L 230.659359 381.336943 
L 233.026392 383.171183 
L 235.472961 370.82352 
L 238.100284 371.344098 
" clip-path="url(#pdd909149b8)" style="fill: #ff0000"/>
    <path d="M 330.327243 100.102645 
L 338.840548 90.610836 
L 335.952475 89.819437 
L 347.88507 82.532466 
L 341.934172 95.184485 
L 340.834447 92.399186 
L 332.321142 101.890994 
L 330.327243 100.102645 
" clip-path="url(#pdd909149b8)" style="fill: #ff0000"/>
    <path d="M 163.379972 114.739424 
L 155.245477 104.694024 
L 154.006737 107.420342 
L 148.701226 94.48441 
L 160.251294 102.363668 
L 157.326996 103.008466 
L 165.46149 113.053866 
L 163.379972 114.739424 
" clip-path="url(#pdd909149b8)" style="fill: #ff0000"/>
    <path d="M 107.266647 272.880497 
L 95.368667 277.484089 
L 97.584143 279.498773 
L 83.644696 280.584404 
L 94.684621 272.004961 
L 94.40216 274.986152 
L 106.30014 270.38256 
L 107.266647 272.880497 
" clip-path="url(#pdd909149b8)" style="fill: #ff0000"/>
    <path d="M 393.884146 229.55851 
L 406.332623 232.86727 
L 405.726381 229.934736 
L 417.636969 237.257623 
L 403.662321 237.700307 
L 405.644603 235.455794 
L 393.196126 232.147034 
L 393.884146 229.55851 
" clip-path="url(#pdd909149b8)" style="fill: #ff0000"/>
    <path d="M 225.726492 90.581744 
L 225.09048 77.748208 
L 222.481651 79.218341 
L 225.831452 65.643894 
L 230.507002 78.820616 
L 227.765597 77.615633 
L 228.401608 90.449169 
L 225.726492 90.581744 
" clip-path="url(#pdd909149b8)" style="fill: #ff0000"/>
    <path d="M 108.857521 204.484181 
L 96.008543 205.616138 
L 97.577625 208.16668 
L 83.88472 205.339824 
L 96.872479 200.162481 
L 95.773495 202.948071 
L 108.622472 201.816115 
L 108.857521 204.484181 
" clip-path="url(#pdd909149b8)" style="fill: #ff0000"/>
    <path d="M 379.153333 258.822682 
L 392.117704 258.616165 
L 390.736014 255.959435 
L 404.190305 259.763224 
L 390.863995 263.993616 
L 392.160364 261.294225 
L 379.195993 261.500742 
L 379.153333 258.822682 
" clip-path="url(#pdd909149b8)" style="fill: #ff0000"/>
    <path d="M 333.549323 345.358598 
L 341.676203 355.043902 
L 342.867165 352.296377 
L 348.397674 365.137725 
L 336.711827 357.461284 
L 339.624424 356.765537 
L 331.497544 347.080234 
L 333.549323 345.358598 
" clip-path="url(#pdd909149b8)" style="fill: #ff0000"/>
    <path d="M 353.134049 162.293914 
L 365.127715 157.47261 
L 362.886163 155.48698 
L 376.810272 154.219721 
L 365.883131 162.942355 
L 366.126704 159.957735 
L 354.133038 164.77904 
L 353.134049 162.293914 
" clip-path="url(#pdd909149b8)" style="fill: #ff0000"/>
    <path d="M 150.519531 91.751045 
L 141.878063 82.374137 
L 140.816037 85.174027 
L 134.694896 72.60349 
L 146.724768 79.728723 
L 143.84764 80.559036 
L 152.489108 89.935944 
L 150.519531 91.751045 
" clip-path="url(#pdd909149b8)" style="fill: #ff0000"/>
    <path d="M 226.181674 74.891211 
L 223.997196 62.088754 
L 221.582207 63.859378 
L 223.290052 49.982417 
L 229.50293 62.507868 
L 226.637438 61.638251 
L 228.821915 74.440708 
L 226.181674 74.891211 
" clip-path="url(#pdd909149b8)" style="fill: #ff0000"/>
    <path d="M 109.089477 294.308477 
L 98.630755 301.418995 
L 101.244131 302.881031 
L 87.910406 307.087995 
L 96.726471 296.236093 
L 97.124868 299.204016 
L 107.58359 292.093498 
L 109.089477 294.308477 
" clip-path="url(#pdd909149b8)" style="fill: #ff0000"/>
    <path d="M 99.258828 160.433619 
L 87.136638 156.481337 
L 87.57963 159.442931 
L 76.092635 151.472003 
L 90.070362 151.803514 
L 87.966882 153.934865 
L 100.089072 157.887147 
L 99.258828 160.433619 
" clip-path="url(#pdd909149b8)" style="fill: #ff0000"/>
    <path d="M 352.217239 149.184184 
L 362.817197 142.079346 
L 360.213514 140.600118 
L 373.574677 136.481126 
L 364.687279 147.274686 
L 364.308452 144.304203 
L 353.708494 151.40904 
L 352.217239 149.184184 
" clip-path="url(#pdd909149b8)" style="fill: #ff0000"/>
    <path d="M 91.690998 221.93536 
L 79.211076 224.191029 
L 81.005309 226.58853 
L 67.11226 225.016916 
L 79.576153 218.681448 
L 78.734691 221.555335 
L 91.214613 219.299666 
L 91.690998 221.93536 
" clip-path="url(#pdd909149b8)" style="fill: #ff0000"/>
    <path d="M 116.429415 232.544309 
L 103.429836 233.354379 
L 104.933025 235.944303 
L 91.317079 232.767388 
L 104.43328 227.924658 
L 103.263254 230.681164 
L 116.262833 229.871094 
L 116.429415 232.544309 
" clip-path="url(#pdd909149b8)" style="fill: #ff0000"/>
    <path d="M 98.724702 213.552046 
L 86.434818 213.035271 
L 87.660312 215.767568 
L 74.448921 211.190894 
L 87.997884 207.739462 
L 86.547342 210.359236 
L 98.837226 210.876011 
L 98.724702 213.552046 
" clip-path="url(#pdd909149b8)" style="fill: #ff0000"/>
    <path d="M 249.761516 373.805779 
L 247.665702 386.258511 
L 250.529219 385.382411 
L 244.344702 397.92189 
L 242.605458 384.04883 
L 245.024448 385.813984 
L 247.120262 373.361252 
L 249.761516 373.805779 
" clip-path="url(#pdd909149b8)" style="fill: #ff0000"/>
    <path d="M 250.809079 69.742979 
L 250.378241 57.073229 
L 247.746902 58.502683 
L 251.307046 44.981879 
L 255.77746 58.229602 
L 253.055094 56.982202 
L 253.485932 69.651952 
L 250.809079 69.742979 
" clip-path="url(#pdd909149b8)" style="fill: #ff0000"/>
    <path d="M 273.346458 64.249635 
L 273.347713 51.654564 
L 270.669179 52.993497 
L 274.688113 39.601898 
L 278.704379 52.994298 
L 276.026113 51.654831 
L 276.024858 64.249902 
L 273.346458 64.249635 
" clip-path="url(#pdd909149b8)" style="fill: #ff0000"/>
    <path d="M 390.674315 175.085498 
L 402.129267 169.403547 
L 399.739367 167.599202 
L 413.52182 165.247445 
L 403.309913 174.79751 
L 403.319449 171.802983 
L 391.864498 177.484934 
L 390.674315 175.085498 
" clip-path="url(#pdd909149b8)" style="fill: #ff0000"/>
    <path d="M 282.157127 116.800566 
L 286.861214 104.924245 
L 283.877872 105.183 
L 292.544798 94.211621 
L 291.348399 108.141998 
L 289.351389 105.910578 
L 284.647302 117.786899 
L 282.157127 116.800566 
" clip-path="url(#pdd909149b8)" style="fill: #ff0000"/>
    <path d="M 173.339063 334.734658 
L 167.980746 346.273298 
L 170.974038 346.186769 
L 161.689702 356.640853 
L 163.686303 342.802488 
L 165.551501 345.145204 
L 170.909818 333.606564 
L 173.339063 334.734658 
" clip-path="url(#pdd909149b8)" style="fill: #ff0000"/>
    <path d="M 192.468929 363.364805 
L 188.514239 375.379779 
L 191.477066 374.945107 
L 183.473908 386.409671 
L 183.844674 372.432929 
L 185.970108 374.542387 
L 189.924798 362.527413 
L 192.468929 363.364805 
" clip-path="url(#pdd909149b8)" style="fill: #ff0000"/>
    <path d="M 219.892934 62.951487 
L 217.876975 50.557424 
L 215.448321 52.309257 
L 217.263783 38.445965 
L 223.379292 51.019243 
L 220.520632 50.127419 
L 222.536592 62.521482 
L 219.892934 62.951487 
" clip-path="url(#pdd909149b8)" style="fill: #ff0000"/>
    <path d="M 133.629009 323.301026 
L 124.129462 331.544014 
L 126.896339 332.689299 
L 114.148366 338.431769 
L 121.630176 326.620364 
L 122.374074 329.521036 
L 131.873621 321.278048 
L 133.629009 323.301026 
" clip-path="url(#pdd909149b8)" style="fill: #ff0000"/>
    <path d="M 312.212027 107.955965 
L 319.632119 97.572382 
L 316.674318 97.104733 
L 327.729287 88.544685 
L 323.211862 101.776451 
L 321.8113 99.129621 
L 314.391209 109.513205 
L 312.212027 107.955965 
" clip-path="url(#pdd909149b8)" style="fill: #ff0000"/>
    <path d="M 205.383238 359.521965 
L 200.207339 371.288772 
L 203.198251 371.141359 
L 194.12854 381.782182 
L 195.843167 367.906057 
L 197.755645 370.210338 
L 202.931543 358.443531 
L 205.383238 359.521965 
" clip-path="url(#pdd909149b8)" style="fill: #ff0000"/>
    <path d="M 161.897046 91.964753 
L 151.705549 84.539109 
L 151.210664 87.492475 
L 142.75285 76.359095 
L 155.942427 80.998258 
L 153.282803 82.37437 
L 163.4743 89.800014 
L 161.897046 91.964753 
" clip-path="url(#pdd909149b8)" style="fill: #ff0000"/>
    <path d="M 277.334402 333.88611 
L 281.330422 346.018008 
L 283.45541 343.908101 
L 283.829134 357.884764 
L 275.82355 346.421893 
L 278.786469 346.855939 
L 274.790448 334.724041 
L 277.334402 333.88611 
" clip-path="url(#pdd909149b8)" style="fill: #ff0000"/>
    <path d="M 91.276507 241.582165 
L 78.483084 240.348059 
L 79.55892 243.142672 
L 66.614561 237.857757 
L 80.330447 235.144598 
L 78.740259 237.682035 
L 91.533682 238.916141 
L 91.276507 241.582165 
" clip-path="url(#pdd909149b8)" style="fill: #ff0000"/>
    <path d="M 372.385557 226.262909 
L 385.18623 226.574925 
L 383.912694 223.864687 
L 397.202818 228.207427 
L 383.716895 231.897501 
L 385.120964 229.25253 
L 372.320291 228.940514 
L 372.385557 226.262909 
" clip-path="url(#pdd909149b8)" style="fill: #ff0000"/>
    <path d="M 390.22987 247.153766 
L 402.786691 248.252822 
L 401.68613 245.467854 
L 414.676818 250.637845 
L 400.985514 253.472451 
L 402.553153 250.921021 
L 389.996332 249.821965 
L 390.22987 247.153766 
" clip-path="url(#pdd909149b8)" style="fill: #ff0000"/>
    <path d="M 319.62304 349.958796 
L 324.589796 361.631693 
L 326.530039 359.350741 
L 328.076495 373.246613 
L 319.136314 362.496733 
L 322.125221 362.680356 
L 317.158465 351.00746 
L 319.62304 349.958796 
" clip-path="url(#pdd909149b8)" style="fill: #ff0000"/>
    <path d="M 363.514789 138.008401 
L 375.785901 134.473155 
L 373.757564 132.270172 
L 387.738383 132.423373 
L 375.981993 139.991335 
L 376.527377 137.046876 
L 364.256265 140.582122 
L 363.514789 138.008401 
" clip-path="url(#pdd909149b8)" style="fill: #ff0000"/>
    <path d="M 341.949731 314.373645 
L 351.134395 323.175728 
L 352.020726 320.315361 
L 358.909715 332.482061 
L 346.461091 326.116644 
L 349.281184 325.109489 
L 340.09652 316.307406 
L 341.949731 314.373645 
" clip-path="url(#pdd909149b8)" style="fill: #ff0000"/>
    <path d="M 100.486548 235.837748 
L 88.233676 233.884389 
L 89.134509 236.740223 
L 76.542011 230.664388 
L 90.39951 228.805223 
L 88.655343 231.23939 
L 100.908215 233.192748 
L 100.486548 235.837748 
" clip-path="url(#pdd909149b8)" style="fill: #ff0000"/>
    <path d="M 239.661264 63.923292 
L 239.453512 51.380601 
L 236.797658 52.763976 
L 240.592918 39.307275 
L 244.831756 52.630902 
L 242.131545 51.336244 
L 242.339297 63.878934 
L 239.661264 63.923292 
" clip-path="url(#pdd909149b8)" style="fill: #ff0000"/>
    <path d="M 195.329357 331.620843 
L 188.052576 341.519241 
L 191.003809 342.02669 
L 179.834534 350.437045 
L 184.529789 337.267331 
L 185.894569 339.932788 
L 193.17135 330.03439 
L 195.329357 331.620843 
" clip-path="url(#pdd909149b8)" style="fill: #ff0000"/>
    <path d="M 235.179384 79.879229 
L 234.333929 67.306065 
L 231.751412 68.821945 
L 234.861473 55.190573 
L 239.768508 68.282853 
L 237.006294 67.126368 
L 237.851749 79.699531 
L 235.179384 79.879229 
" clip-path="url(#pdd909149b8)" style="fill: #ff0000"/>
    <path d="M 95.582049 203.234636 
L 83.05572 202.347376 
L 84.202332 205.113703 
L 71.127662 200.159937 
L 84.770056 197.098584 
L 83.244961 199.67567 
L 95.77129 200.56293 
L 95.582049 203.234636 
" clip-path="url(#pdd909149b8)" style="fill: #ff0000"/>
    <path d="M 331.299351 111.582405 
L 336.535692 99.923228 
L 333.543731 100.047549 
L 342.695314 89.477056 
L 340.873622 103.339531 
L 338.978989 101.020555 
L 333.742648 112.679732 
L 331.299351 111.582405 
" clip-path="url(#pdd909149b8)" style="fill: #ff0000"/>
    <path d="M 353.667694 295.516246 
L 362.423862 305.073712 
L 363.494096 302.276949 
L 369.578343 314.865385 
L 357.56942 307.7049 
L 360.44897 306.883029 
L 351.692802 297.325563 
L 353.667694 295.516246 
" clip-path="url(#pdd909149b8)" style="fill: #ff0000"/>
    <path d="M 359.621805 323.51889 
L 368.894502 332.256758 
L 369.756719 329.389029 
L 376.747902 341.497296 
L 364.246125 335.236917 
L 367.057638 334.206053 
L 357.78494 325.468186 
L 359.621805 323.51889 
" clip-path="url(#pdd909149b8)" style="fill: #ff0000"/>
    <path d="M 87.456948 210.719058 
L 74.589126 209.254508 
L 75.616849 212.06717 
L 62.765084 206.560909 
L 76.525509 204.083513 
L 74.892013 206.593289 
L 87.759835 208.057839 
L 87.456948 210.719058 
" clip-path="url(#pdd909149b8)" style="fill: #ff0000"/>
    <path d="M 139.259577 104.61405 
L 132.986539 93.413882 
L 131.304115 95.891125 
L 128.265244 82.243707 
L 138.314624 91.96465 
L 135.323375 92.105057 
L 141.596413 103.305225 
L 139.259577 104.61405 
" clip-path="url(#pdd909149b8)" style="fill: #ff0000"/>
    <path d="M 146.799844 320.341268 
L 138.350077 329.802404 
L 141.239818 330.587695 
L 129.322656 337.899879 
L 135.246791 325.235306 
L 136.352402 328.018274 
L 144.802168 318.557138 
L 146.799844 320.341268 
" clip-path="url(#pdd909149b8)" style="fill: #ff0000"/>
    <path d="M 213.619702 73.048108 
L 214.818644 60.413432 
L 212.02571 61.493619 
L 217.290465 48.541047 
L 220.024975 62.252693 
L 217.485065 60.666457 
L 216.286124 73.301133 
L 213.619702 73.048108 
" clip-path="url(#pdd909149b8)" style="fill: #ff0000"/>
    <path d="M 348.966707 323.26551 
L 357.796797 332.2912 
L 358.774816 329.460871 
L 365.268275 341.843188 
L 353.031176 335.080038 
L 355.882251 334.164256 
L 347.05216 325.138566 
L 348.966707 323.26551 
" clip-path="url(#pdd909149b8)" style="fill: #ff0000"/>
    <path d="M 110.153708 245.658651 
L 97.555973 242.861591 
L 98.282791 245.766589 
L 86.079976 238.941777 
L 100.024425 237.92241 
L 98.136517 240.246864 
L 110.734253 243.043924 
L 110.153708 245.658651 
" clip-path="url(#pdd909149b8)" style="fill: #ff0000"/>
    <path d="M 388.197439 212.690908 
L 400.630789 215.621001 
L 399.941669 212.706829 
L 412.055037 219.689171 
L 398.098551 220.527786 
L 400.016416 218.227987 
L 387.583066 215.297893 
L 388.197439 212.690908 
" clip-path="url(#pdd909149b8)" style="fill: #ff0000"/>
    <path d="M 268.348668 77.621313 
L 270.422548 64.896642 
L 267.563605 65.787559 
L 273.683104 53.216222 
L 275.494167 67.080089 
L 273.066068 65.327486 
L 270.992188 78.052157 
L 268.348668 77.621313 
" clip-path="url(#pdd909149b8)" style="fill: #ff0000"/>
    <path d="M 382.979821 231.690463 
L 395.662108 232.594763 
L 394.516797 229.827897 
L 407.589136 234.78781 
L 393.945305 237.842748 
L 395.47161 235.26638 
L 382.789324 234.362079 
L 382.979821 231.690463 
" clip-path="url(#pdd909149b8)" style="fill: #ff0000"/>
    <path d="M 179.812709 346.923221 
L 171.88284 356.702817 
L 174.806715 357.349531 
L 163.251486 365.221218 
L 168.565473 352.288766 
L 169.802426 355.015895 
L 177.732295 345.2363 
L 179.812709 346.923221 
" clip-path="url(#pdd909149b8)" style="fill: #ff0000"/>
    <path d="M 287.355968 323.039143 
L 292.376107 334.902207 
L 294.320832 332.625076 
L 295.839956 346.523962 
L 286.920934 335.75652 
L 289.909474 335.946022 
L 284.889335 324.082957 
L 287.355968 323.039143 
" clip-path="url(#pdd909149b8)" style="fill: #ff0000"/>
    <path d="M 138.259306 334.034203 
L 130.500522 344.114273 
L 133.439837 344.686735 
L 122.08766 352.848527 
L 127.072436 339.785649 
L 128.378055 342.480578 
L 136.136839 332.400508 
L 138.259306 334.034203 
" clip-path="url(#pdd909149b8)" style="fill: #ff0000"/>
    <path d="M 343.63532 168.454982 
L 354.857173 162.570184 
L 352.427253 160.820106 
L 366.153261 158.158627 
L 356.158967 167.936197 
L 356.101077 164.942214 
L 344.879225 170.827012 
L 343.63532 168.454982 
" clip-path="url(#pdd909149b8)" style="fill: #ff0000"/>
    <path d="M 363.269646 305.403824 
L 369.48994 316.476126 
L 371.16915 313.996703 
L 374.225713 327.64017 
L 364.163738 317.932264 
L 367.154803 317.787979 
L 360.934509 306.715678 
L 363.269646 305.403824 
" clip-path="url(#pdd909149b8)" style="fill: #ff0000"/>
    <path d="M 149.131098 330.391948 
L 139.846508 339.37801 
L 142.671531 340.371253 
L 130.254434 346.797954 
L 137.083367 334.597444 
L 137.983787 337.453407 
L 147.268377 328.467345 
L 149.131098 330.391948 
" clip-path="url(#pdd909149b8)" style="fill: #ff0000"/>
    <path d="M 394.612685 259.008385 
L 407.182781 260.117316 
L 406.084136 257.331592 
L 419.071265 262.510517 
L 405.378015 265.335705 
L 406.947408 262.785354 
L 394.377311 261.676423 
L 394.612685 259.008385 
" clip-path="url(#pdd909149b8)" style="fill: #ff0000"/>
    <path d="M 259.515431 96.581179 
L 261.142552 83.867823 
L 258.315811 84.856166 
L 264.001016 72.082551 
L 266.286 85.876232 
L 263.799281 84.207845 
L 262.17216 96.921201 
L 259.515431 96.581179 
" clip-path="url(#pdd909149b8)" style="fill: #ff0000"/>
    <path d="M 116.78314 127.314119 
L 105.670396 121.265651 
L 105.566222 124.258381 
L 95.724298 114.327454 
L 109.407515 117.200839 
L 106.950827 118.913137 
L 118.063572 124.961605 
L 116.78314 127.314119 
" clip-path="url(#pdd909149b8)" style="fill: #ff0000"/>
    <path d="M 400.130384 240.3123 
L 412.347131 243.662368 
L 411.76393 240.725165 
L 423.616663 248.141329 
L 409.63897 248.474293 
L 411.638811 246.24541 
L 399.422064 242.895343 
L 400.130384 240.3123 
" clip-path="url(#pdd909149b8)" style="fill: #ff0000"/>
    <path d="M 123.080207 299.28613 
L 112.443329 306.265787 
L 115.032407 307.770432 
L 101.631563 311.758433 
L 110.624194 301.052389 
L 110.973925 304.026439 
L 121.610803 297.046783 
L 123.080207 299.28613 
" clip-path="url(#pdd909149b8)" style="fill: #ff0000"/>
    <path d="M 336.783477 325.918799 
L 346.938459 333.738255 
L 347.511468 330.799047 
L 355.671146 342.152744 
L 342.609197 337.165535 
L 345.304368 335.860418 
L 335.149387 328.040962 
L 336.783477 325.918799 
" clip-path="url(#pdd909149b8)" style="fill: #ff0000"/>
    <path d="M 239.161281 355.715381 
L 240.885093 368.525002 
L 243.360957 366.840549 
L 241.165333 380.648735 
L 235.397541 367.9122 
L 238.230621 368.882219 
L 236.506808 356.072598 
L 239.161281 355.715381 
" clip-path="url(#pdd909149b8)" style="fill: #ff0000"/>
    <path d="M 397.410276 188.646746 
L 408.809633 182.964833 
L 406.416243 181.16512 
L 420.194115 178.786673 
L 410.000725 188.356499 
L 410.00446 185.361959 
L 398.605103 191.043872 
L 397.410276 188.646746 
" clip-path="url(#pdd909149b8)" style="fill: #ff0000"/>
    <path d="M 153.134649 342.25027 
L 142.497043 349.217839 
L 145.084877 350.724623 
L 131.680743 354.701552 
L 140.682215 344.002941 
L 141.029489 346.977279 
L 151.667095 340.009709 
L 153.134649 342.25027 
" clip-path="url(#pdd909149b8)" style="fill: #ff0000"/>
    <path d="M 315.628693 96.957664 
L 323.103386 86.352763 
L 320.142611 85.904331 
L 331.141762 77.272677 
L 326.710354 90.533499 
L 325.292634 87.895819 
L 317.817941 98.50072 
L 315.628693 96.957664 
" clip-path="url(#pdd909149b8)" style="fill: #ff0000"/>
    <path d="M 283.336011 72.277764 
L 283.765631 59.553039 
L 281.043567 60.801098 
L 285.510772 47.552292 
L 289.074192 61.072233 
L 286.442506 59.643417 
L 286.012885 72.368143 
L 283.336011 72.277764 
" clip-path="url(#pdd909149b8)" style="fill: #ff0000"/>
    <path d="M 364.456582 161.114237 
L 376.547087 156.344061 
L 374.318347 154.344061 
L 388.250315 153.166343 
L 377.267324 161.818549 
L 377.53008 158.835557 
L 365.439574 163.605733 
L 364.456582 161.114237 
" clip-path="url(#pdd909149b8)" style="fill: #ff0000"/>
    <path d="M 110.667203 168.449173 
L 98.259924 164.964936 
L 98.825107 167.905659 
L 87.018062 160.41697 
L 100.997534 160.169703 
L 98.984066 162.386284 
L 111.391345 165.870521 
L 110.667203 168.449173 
" clip-path="url(#pdd909149b8)" style="fill: #ff0000"/>
    <path d="M 342.099857 101.835744 
L 348.845406 91.088188 
L 345.864895 90.798636 
L 356.387007 81.591468 
L 352.670657 95.070174 
L 351.113993 92.512034 
L 344.368445 103.25959 
L 342.099857 101.835744 
" clip-path="url(#pdd909149b8)" style="fill: #ff0000"/>
    <path d="M 391.325337 159.260162 
L 402.869317 154.20727 
L 400.568512 152.290612 
L 414.447726 150.601177 
L 403.790456 159.651557 
L 403.943299 156.660918 
L 392.399318 161.71381 
L 391.325337 159.260162 
" clip-path="url(#pdd909149b8)" style="fill: #ff0000"/>
    <path d="M 251.611394 353.746974 
L 250.972443 366.606791 
L 253.714 365.402155 
L 249.036777 378.578283 
L 245.6887 365.003411 
L 248.297343 366.473876 
L 248.936294 353.614059 
L 251.611394 353.746974 
" clip-path="url(#pdd909149b8)" style="fill: #ff0000"/>
    <path d="M 336.077875 89.893639 
L 340.224401 77.978828 
L 337.254641 78.36329 
L 345.450703 67.03583 
L 344.843418 81.004294 
L 342.753993 78.859163 
L 338.607467 90.773974 
L 336.077875 89.893639 
" clip-path="url(#pdd909149b8)" style="fill: #ff0000"/>
    <path d="M 303.871912 346.56547 
L 307.729656 358.761396 
L 309.879463 356.676782 
L 310.08777 370.656889 
L 302.21839 359.100088 
L 305.175966 359.569165 
L 301.318221 347.373239 
L 303.871912 346.56547 
" clip-path="url(#pdd909149b8)" style="fill: #ff0000"/>
    <path d="M 200.123846 83.592563 
L 201.547308 70.830841 
L 198.73696 71.864876 
L 204.214355 59.000782 
L 206.722636 72.75561 
L 204.2092 71.127752 
L 202.785739 83.889475 
L 200.123846 83.592563 
" clip-path="url(#pdd909149b8)" style="fill: #ff0000"/>
    <path d="M 122.419175 140.962831 
L 110.628383 135.798229 
L 110.780443 138.788908 
L 100.125542 129.73574 
L 114.004314 131.428807 
L 111.703007 133.344862 
L 123.493799 138.509463 
L 122.419175 140.962831 
" clip-path="url(#pdd909149b8)" style="fill: #ff0000"/>
    <path d="M 117.281457 193.292363 
L 104.44895 192.111097 
L 105.536996 194.900979 
L 92.569651 189.672715 
L 106.273543 186.899608 
L 104.694466 189.443974 
L 117.526972 190.62524 
L 117.281457 193.292363 
" clip-path="url(#pdd909149b8)" style="fill: #ff0000"/>
    <path d="M 364.163962 147.985516 
L 375.698941 142.823368 
L 373.382486 140.925654 
L 387.24737 139.122389 
L 376.664723 148.259913 
L 376.79302 145.268121 
L 365.258041 150.43027 
L 364.163962 147.985516 
" clip-path="url(#pdd909149b8)" style="fill: #ff0000"/>
    <path d="M 290.388476 338.528905 
L 293.321104 350.891065 
L 295.618063 348.969799 
L 294.800097 362.92751 
L 287.799842 350.824486 
L 290.71503 351.509294 
L 287.782402 339.147134 
L 290.388476 338.528905 
" clip-path="url(#pdd909149b8)" style="fill: #ff0000"/>
    <path d="M 378.728415 160.362986 
L 390.502107 155.66074 
L 388.265012 153.67009 
L 402.191928 152.434048 
L 391.245259 161.132165 
L 391.495523 158.148099 
L 379.721831 162.850344 
L 378.728415 160.362986 
" clip-path="url(#pdd909149b8)" style="fill: #ff0000"/>
    <path d="M 212.905636 370.843135 
L 208.298655 382.658521 
L 211.28057 382.38381 
L 202.672459 393.401396 
L 203.794321 379.464818 
L 205.803239 381.685523 
L 210.41022 369.870138 
L 212.905636 370.843135 
" clip-path="url(#pdd909149b8)" style="fill: #ff0000"/>
    <path d="M 291.95891 302.799611 
L 298.162114 313.993353 
L 299.855707 311.523732 
L 302.832922 325.184734 
L 292.827539 315.418511 
L 295.819392 315.291613 
L 289.616188 304.09787 
L 291.95891 302.799611 
" clip-path="url(#pdd909149b8)" style="fill: #ff0000"/>
    <path d="M 186.379897 335.402757 
L 179.371576 346.825199 
L 182.354876 347.084444 
L 171.926887 356.39808 
L 175.50605 342.882298 
L 177.088634 345.424484 
L 184.096955 334.002042 
L 186.379897 335.402757 
" clip-path="url(#pdd909149b8)" style="fill: #ff0000"/>
    <path d="M 296.451125 359.509401 
L 302.733487 370.467103 
L 304.390993 367.973119 
L 307.56652 381.589389 
L 297.420198 371.969674 
L 300.409889 371.799288 
L 294.127527 360.841586 
L 296.451125 359.509401 
" clip-path="url(#pdd909149b8)" style="fill: #ff0000"/>
    <path d="M 108.099955 153.749427 
L 96.356175 149.352441 
L 96.671199 152.330367 
L 85.538174 143.872086 
L 99.488652 144.805315 
L 97.295326 146.84409 
L 109.039106 151.241076 
L 108.099955 153.749427 
" clip-path="url(#pdd909149b8)" style="fill: #ff0000"/>
    <path d="M 106.78394 222.99564 
L 93.890559 223.681686 
L 95.370181 226.285146 
L 81.783628 222.984792 
L 94.943239 218.261296 
L 93.748245 221.00707 
L 106.641625 220.321023 
L 106.78394 222.99564 
" clip-path="url(#pdd909149b8)" style="fill: #ff0000"/>
    <path d="M 272.0613 361.088476 
L 273.509042 373.72583 
L 276.017615 372.090487 
L 273.550348 385.852731 
L 268.034629 373.005023 
L 270.848047 374.030675 
L 269.400304 361.393321 
L 272.0613 361.088476 
" clip-path="url(#pdd909149b8)" style="fill: #ff0000"/>
    <path d="M 324.532429 85.76891 
L 329.511622 74.314841 
L 326.521378 74.475217 
L 335.544883 63.795183 
L 333.890416 77.678609 
L 331.967968 75.382638 
L 326.988775 86.836707 
L 324.532429 85.76891 
" clip-path="url(#pdd909149b8)" style="fill: #ff0000"/>
   </g>
   <g id="matplotlib.axis_1">
    <g id="xtick_1">
     <g id="line2d_1">
      <defs>
       <path id="mdbc550f803" d="M 0 0 
L 0 3.5 
" style="stroke: #000000; stroke-width: 0.8"/>
      </defs>
      <g>
       <use xlink:href="#mdbc550f803" x="121.485157" y="384.48" style="stroke: #000000; stroke-width: 0.8"/>
      </g>
     </g>
     <g id="text_1">
      <!-- −40 -->
      <g transform="translate(108.822344 400.598125) scale(0.12 -0.12)">
       <defs>
        <path id="DejaVuSans-2212" d="M 678 2272 
L 4684 2272 
L 4684 1741 
L 678 1741 
L 678 2272 
z
" transform="scale(0.015625)"/>
        <path id="DejaVuSans-34" d="M 2419 4116 
L 825 1625 
L 2419 1625 
L 2419 4116 
z
M 2253 4666 
L 3047 4666 
L 3047 1625 
L 3713 1625 
L 3713 1100 
L 3047 1100 
L 3047 0 
L 2419 0 
L 2419 1100 
L 313 1100 
L 313 1709 
L 2253 4666 
z
" transform="scale(0.015625)"/>
        <path id="DejaVuSans-30" d="M 2034 4250 
Q 1547 4250 1301 3770 
Q 1056 3291 1056 2328 
Q 1056 1369 1301 889 
Q 1547 409 2034 409 
Q 2525 409 2770 889 
Q 3016 1369 3016 2328 
Q 3016 3291 2770 3770 
Q 2525 4250 2034 4250 
z
M 2034 4750 
Q 2819 4750 3233 4129 
Q 3647 3509 3647 2328 
Q 3647 1150 3233 529 
Q 2819 -91 2034 -91 
Q 1250 -91 836 529 
Q 422 1150 422 2328 
Q 422 3509 836 4129 
Q 1250 4750 2034 4750 
z
" transform="scale(0.015625)"/>
       </defs>
       <use xlink:href="#DejaVuSans-2212"/>
       <use xlink:href="#DejaVuSans-34" transform="translate(83.789062 0)"/>
       <use xlink:href="#DejaVuSans-30" transform="translate(147.412109 0)"/>
      </g>
     </g>
    </g>
    <g id="xtick_2">
     <g id="line2d_2">
      <g>
       <use xlink:href="#mdbc550f803" x="183.182197" y="384.48" style="stroke: #000000; stroke-width: 0.8"/>
      </g>
     </g>
     <g id="text_2">
      <!-- −20 -->
      <g transform="translate(170.519384 400.598125) scale(0.12 -0.12)">
       <defs>
        <path id="DejaVuSans-32" d="M 1228 531 
L 3431 531 
L 3431 0 
L 469 0 
L 469 531 
Q 828 903 1448 1529 
Q 2069 2156 2228 2338 
Q 2531 2678 2651 2914 
Q 2772 3150 2772 3378 
Q 2772 3750 2511 3984 
Q 2250 4219 1831 4219 
Q 1534 4219 1204 4116 
Q 875 4013 500 3803 
L 500 4441 
Q 881 4594 1212 4672 
Q 1544 4750 1819 4750 
Q 2544 4750 2975 4387 
Q 3406 4025 3406 3419 
Q 3406 3131 3298 2873 
Q 3191 2616 2906 2266 
Q 2828 2175 2409 1742 
Q 1991 1309 1228 531 
z
" transform="scale(0.015625)"/>
       </defs>
       <use xlink:href="#DejaVuSans-2212"/>
       <use xlink:href="#DejaVuSans-32" transform="translate(83.789062 0)"/>
       <use xlink:href="#DejaVuSans-30" transform="translate(147.412109 0)"/>
      </g>
     </g>
    </g>
    <g id="xtick_3">
     <g id="line2d_3">
      <g>
       <use xlink:href="#mdbc550f803" x="244.879237" y="384.48" style="stroke: #000000; stroke-width: 0.8"/>
      </g>
     </g>
     <g id="text_3">
      <!-- 0 -->
      <g transform="translate(241.061737 400.598125) scale(0.12 -0.12)">
       <use xlink:href="#DejaVuSans-30"/>
      </g>
     </g>
    </g>
    <g id="xtick_4">
     <g id="line2d_4">
      <g>
       <use xlink:href="#mdbc550f803" x="306.576278" y="384.48" style="stroke: #000000; stroke-width: 0.8"/>
      </g>
     </g>
     <g id="text_4">
      <!-- 20 -->
      <g transform="translate(298.941278 400.598125) scale(0.12 -0.12)">
       <use xlink:href="#DejaVuSans-32"/>
       <use xlink:href="#DejaVuSans-30" transform="translate(63.623047 0)"/>
      </g>
     </g>
    </g>
    <g id="xtick_5">
     <g id="line2d_5">
      <g>
       <use xlink:href="#mdbc550f803" x="368.273318" y="384.48" style="stroke: #000000; stroke-width: 0.8"/>
      </g>
     </g>
     <g id="text_5">
      <!-- 40 -->
      <g transform="translate(360.638318 400.598125) scale(0.12 -0.12)">
       <use xlink:href="#DejaVuSans-34"/>
       <use xlink:href="#DejaVuSans-30" transform="translate(63.623047 0)"/>
      </g>
     </g>
    </g>
    <g id="xtick_6">
     <g id="line2d_6">
      <g>
       <use xlink:href="#mdbc550f803" x="429.970359" y="384.48" style="stroke: #000000; stroke-width: 0.8"/>
      </g>
     </g>
     <g id="text_6">
      <!-- 60 -->
      <g transform="translate(422.335359 400.598125) scale(0.12 -0.12)">
       <defs>
        <path id="DejaVuSans-36" d="M 2113 2584 
Q 1688 2584 1439 2293 
Q 1191 2003 1191 1497 
Q 1191 994 1439 701 
Q 1688 409 2113 409 
Q 2538 409 2786 701 
Q 3034 994 3034 1497 
Q 3034 2003 2786 2293 
Q 2538 2584 2113 2584 
z
M 3366 4563 
L 3366 3988 
Q 3128 4100 2886 4159 
Q 2644 4219 2406 4219 
Q 1781 4219 1451 3797 
Q 1122 3375 1075 2522 
Q 1259 2794 1537 2939 
Q 1816 3084 2150 3084 
Q 2853 3084 3261 2657 
Q 3669 2231 3669 1497 
Q 3669 778 3244 343 
Q 2819 -91 2113 -91 
Q 1303 -91 875 529 
Q 447 1150 447 2328 
Q 447 3434 972 4092 
Q 1497 4750 2381 4750 
Q 2619 4750 2861 4703 
Q 3103 4656 3366 4563 
z
" transform="scale(0.015625)"/>
       </defs>
       <use xlink:href="#DejaVuSans-36"/>
       <use xlink:href="#DejaVuSans-30" transform="translate(63.623047 0)"/>
      </g>
     </g>
    </g>
    <g id="xtick_7">
     <g id="line2d_7">
      <g>
       <use xlink:href="#mdbc550f803" x="491.667399" y="384.48" style="stroke: #000000; stroke-width: 0.8"/>
      </g>
     </g>
     <g id="text_7">
      <!-- 80 -->
      <g transform="translate(484.032399 400.598125) scale(0.12 -0.12)">
       <defs>
        <path id="DejaVuSans-38" d="M 2034 2216 
Q 1584 2216 1326 1975 
Q 1069 1734 1069 1313 
Q 1069 891 1326 650 
Q 1584 409 2034 409 
Q 2484 409 2743 651 
Q 3003 894 3003 1313 
Q 3003 1734 2745 1975 
Q 2488 2216 2034 2216 
z
M 1403 2484 
Q 997 2584 770 2862 
Q 544 3141 544 3541 
Q 544 4100 942 4425 
Q 1341 4750 2034 4750 
Q 2731 4750 3128 4425 
Q 3525 4100 3525 3541 
Q 3525 3141 3298 2862 
Q 3072 2584 2669 2484 
Q 3125 2378 3379 2068 
Q 3634 1759 3634 1313 
Q 3634 634 3220 271 
Q 2806 -91 2034 -91 
Q 1263 -91 848 271 
Q 434 634 434 1313 
Q 434 1759 690 2068 
Q 947 2378 1403 2484 
z
M 1172 3481 
Q 1172 3119 1398 2916 
Q 1625 2713 2034 2713 
Q 2441 2713 2670 2916 
Q 2900 3119 2900 3481 
Q 2900 3844 2670 4047 
Q 2441 4250 2034 4250 
Q 1625 4250 1398 4047 
Q 1172 3844 1172 3481 
z
" transform="scale(0.015625)"/>
       </defs>
       <use xlink:href="#DejaVuSans-38"/>
       <use xlink:href="#DejaVuSans-30" transform="translate(63.623047 0)"/>
      </g>
     </g>
    </g>
    <g id="text_8">
     <!-- x -->
     <g transform="translate(291.056875 417.731562) scale(0.14 -0.14)">
      <defs>
       <path id="DejaVuSans-78" d="M 3513 3500 
L 2247 1797 
L 3578 0 
L 2900 0 
L 1881 1375 
L 863 0 
L 184 0 
L 1544 1831 
L 300 3500 
L 978 3500 
L 1906 2253 
L 2834 3500 
L 3513 3500 
z
" transform="scale(0.015625)"/>
      </defs>
      <use xlink:href="#DejaVuSans-78"/>
     </g>
    </g>
   </g>
   <g id="matplotlib.axis_2">
    <g id="ytick_1">
     <g id="line2d_8">
      <defs>
       <path id="mf517dfa94d" d="M 0 0 
L -3.5 0 
" style="stroke: #000000; stroke-width: 0.8"/>
      </defs>
      <g>
       <use xlink:href="#mf517dfa94d" x="72" y="341.356438" style="stroke: #000000; stroke-width: 0.8"/>
      </g>
     </g>
     <g id="text_9">
      <!-- −40 -->
      <g transform="translate(39.674375 345.9155) scale(0.12 -0.12)">
       <use xlink:href="#DejaVuSans-2212"/>
       <use xlink:href="#DejaVuSans-34" transform="translate(83.789062 0)"/>
       <use xlink:href="#DejaVuSans-30" transform="translate(147.412109 0)"/>
      </g>
     </g>
    </g>
    <g id="ytick_2">
     <g id="line2d_9">
      <g>
       <use xlink:href="#mf517dfa94d" x="72" y="279.659397" style="stroke: #000000; stroke-width: 0.8"/>
      </g>
     </g>
     <g id="text_10">
      <!-- −20 -->
      <g transform="translate(39.674375 284.21846) scale(0.12 -0.12)">
       <use xlink:href="#DejaVuSans-2212"/>
       <use xlink:href="#DejaVuSans-32" transform="translate(83.789062 0)"/>
       <use xlink:href="#DejaVuSans-30" transform="translate(147.412109 0)"/>
      </g>
     </g>
    </g>
    <g id="ytick_3">
     <g id="line2d_10">
      <g>
       <use xlink:href="#mf517dfa94d" x="72" y="217.962357" style="stroke: #000000; stroke-width: 0.8"/>
      </g>
     </g>
     <g id="text_11">
      <!-- 0 -->
      <g transform="translate(57.365 222.521419) scale(0.12 -0.12)">
       <use xlink:href="#DejaVuSans-30"/>
      </g>
     </g>
    </g>
    <g id="ytick_4">
     <g id="line2d_11">
      <g>
       <use xlink:href="#mf517dfa94d" x="72" y="156.265316" style="stroke: #000000; stroke-width: 0.8"/>
      </g>
     </g>
     <g id="text_12">
      <!-- 20 -->
      <g transform="translate(49.73 160.824379) scale(0.12 -0.12)">
       <use xlink:href="#DejaVuSans-32"/>
       <use xlink:href="#DejaVuSans-30" transform="translate(63.623047 0)"/>
      </g>
     </g>
    </g>
    <g id="ytick_5">
     <g id="line2d_12">
      <g>
       <use xlink:href="#mf517dfa94d" x="72" y="94.568276" style="stroke: #000000; stroke-width: 0.8"/>
      </g>
     </g>
     <g id="text_13">
      <!-- 40 -->
      <g transform="translate(49.73 99.127338) scale(0.12 -0.12)">
       <use xlink:href="#DejaVuSans-34"/>
       <use xlink:href="#DejaVuSans-30" transform="translate(63.623047 0)"/>
      </g>
     </g>
    </g>
    <g id="text_14">
     <!-- y -->
     <g transform="translate(32.762812 222.303125) rotate(-90) scale(0.14 -0.14)">
      <defs>
       <path id="DejaVuSans-79" d="M 2059 -325 
Q 1816 -950 1584 -1140 
Q 1353 -1331 966 -1331 
L 506 -1331 
L 506 -850 
L 844 -850 
Q 1081 -850 1212 -737 
Q 1344 -625 1503 -206 
L 1606 56 
L 191 3500 
L 800 3500 
L 1894 763 
L 2988 3500 
L 3597 3500 
L 2059 -325 
z
" transform="scale(0.015625)"/>
      </defs>
      <use xlink:href="#DejaVuSans-79"/>
     </g>
    </g>
   </g>
   <g id="patch_3">
    <path d="M 72 384.48 
L 72 51.84 
" style="fill: none; stroke: #000000; stroke-width: 0.8; stroke-linejoin: miter; stroke-linecap: square"/>
   </g>
   <g id="patch_4">
    <path d="M 518.4 384.48 
L 518.4 51.84 
" style="fill: none; stroke: #000000; stroke-width: 0.8; stroke-linejoin: miter; stroke-linecap: square"/>
   </g>
   <g id="patch_5">
    <path d="M 72 384.48 
L 518.4 384.48 
" style="fill: none; stroke: #000000; stroke-width: 0.8; stroke-linejoin: miter; stroke-linecap: square"/>
   </g>
   <g id="patch_6">
    <path d="M 72 51.84 
L 518.4 51.84 
" style="fill: none; stroke: #000000; stroke-width: 0.8; stroke-linejoin: miter; stroke-linecap: square"/>
   </g>
   <g id="text_15">
    <!-- Velocities at the final time -->
    <g transform="translate(175.85 45.84) scale(0.16 -0.16)">
     <defs>
      <path id="DejaVuSans-Bold-56" d="M 31 4666 
L 1241 4666 
L 2478 1222 
L 3713 4666 
L 4922 4666 
L 3194 0 
L 1759 0 
L 31 4666 
z
" transform="scale(0.015625)"/>
      <path id="DejaVuSans-Bold-65" d="M 4031 1759 
L 4031 1441 
L 1416 1441 
Q 1456 1047 1700 850 
Q 1944 653 2381 653 
Q 2734 653 3104 758 
Q 3475 863 3866 1075 
L 3866 213 
Q 3469 63 3072 -14 
Q 2675 -91 2278 -91 
Q 1328 -91 801 392 
Q 275 875 275 1747 
Q 275 2603 792 3093 
Q 1309 3584 2216 3584 
Q 3041 3584 3536 3087 
Q 4031 2591 4031 1759 
z
M 2881 2131 
Q 2881 2450 2695 2645 
Q 2509 2841 2209 2841 
Q 1884 2841 1681 2658 
Q 1478 2475 1428 2131 
L 2881 2131 
z
" transform="scale(0.015625)"/>
      <path id="DejaVuSans-Bold-6c" d="M 538 4863 
L 1656 4863 
L 1656 0 
L 538 0 
L 538 4863 
z
" transform="scale(0.015625)"/>
      <path id="DejaVuSans-Bold-6f" d="M 2203 2784 
Q 1831 2784 1636 2517 
Q 1441 2250 1441 1747 
Q 1441 1244 1636 976 
Q 1831 709 2203 709 
Q 2569 709 2762 976 
Q 2956 1244 2956 1747 
Q 2956 2250 2762 2517 
Q 2569 2784 2203 2784 
z
M 2203 3584 
Q 3106 3584 3614 3096 
Q 4122 2609 4122 1747 
Q 4122 884 3614 396 
Q 3106 -91 2203 -91 
Q 1297 -91 786 396 
Q 275 884 275 1747 
Q 275 2609 786 3096 
Q 1297 3584 2203 3584 
z
" transform="scale(0.015625)"/>
      <path id="DejaVuSans-Bold-63" d="M 3366 3391 
L 3366 2478 
Q 3138 2634 2908 2709 
Q 2678 2784 2431 2784 
Q 1963 2784 1702 2511 
Q 1441 2238 1441 1747 
Q 1441 1256 1702 982 
Q 1963 709 2431 709 
Q 2694 709 2930 787 
Q 3166 866 3366 1019 
L 3366 103 
Q 3103 6 2833 -42 
Q 2563 -91 2291 -91 
Q 1344 -91 809 395 
Q 275 881 275 1747 
Q 275 2613 809 3098 
Q 1344 3584 2291 3584 
Q 2566 3584 2833 3536 
Q 3100 3488 3366 3391 
z
" transform="scale(0.015625)"/>
      <path id="DejaVuSans-Bold-69" d="M 538 3500 
L 1656 3500 
L 1656 0 
L 538 0 
L 538 3500 
z
M 538 4863 
L 1656 4863 
L 1656 3950 
L 538 3950 
L 538 4863 
z
" transform="scale(0.015625)"/>
      <path id="DejaVuSans-Bold-74" d="M 1759 4494 
L 1759 3500 
L 2913 3500 
L 2913 2700 
L 1759 2700 
L 1759 1216 
Q 1759 972 1856 886 
Q 1953 800 2241 800 
L 2816 800 
L 2816 0 
L 1856 0 
Q 1194 0 917 276 
Q 641 553 641 1216 
L 641 2700 
L 84 2700 
L 84 3500 
L 641 3500 
L 641 4494 
L 1759 4494 
z
" transform="scale(0.015625)"/>
      <path id="DejaVuSans-Bold-73" d="M 3272 3391 
L 3272 2541 
Q 2913 2691 2578 2766 
Q 2244 2841 1947 2841 
Q 1628 2841 1473 2761 
Q 1319 2681 1319 2516 
Q 1319 2381 1436 2309 
Q 1553 2238 1856 2203 
L 2053 2175 
Q 2913 2066 3209 1816 
Q 3506 1566 3506 1031 
Q 3506 472 3093 190 
Q 2681 -91 1863 -91 
Q 1516 -91 1145 -36 
Q 775 19 384 128 
L 384 978 
Q 719 816 1070 734 
Q 1422 653 1784 653 
Q 2113 653 2278 743 
Q 2444 834 2444 1013 
Q 2444 1163 2330 1236 
Q 2216 1309 1875 1350 
L 1678 1375 
Q 931 1469 631 1722 
Q 331 1975 331 2491 
Q 331 3047 712 3315 
Q 1094 3584 1881 3584 
Q 2191 3584 2531 3537 
Q 2872 3491 3272 3391 
z
" transform="scale(0.015625)"/>
      <path id="DejaVuSans-Bold-20" transform="scale(0.015625)"/>
      <path id="DejaVuSans-Bold-61" d="M 2106 1575 
Q 1756 1575 1579 1456 
Q 1403 1338 1403 1106 
Q 1403 894 1545 773 
Q 1688 653 1941 653 
Q 2256 653 2472 879 
Q 2688 1106 2688 1447 
L 2688 1575 
L 2106 1575 
z
M 3816 1997 
L 3816 0 
L 2688 0 
L 2688 519 
Q 2463 200 2181 54 
Q 1900 -91 1497 -91 
Q 953 -91 614 226 
Q 275 544 275 1050 
Q 275 1666 698 1953 
Q 1122 2241 2028 2241 
L 2688 2241 
L 2688 2328 
Q 2688 2594 2478 2717 
Q 2269 2841 1825 2841 
Q 1466 2841 1156 2769 
Q 847 2697 581 2553 
L 581 3406 
Q 941 3494 1303 3539 
Q 1666 3584 2028 3584 
Q 2975 3584 3395 3211 
Q 3816 2838 3816 1997 
z
" transform="scale(0.015625)"/>
      <path id="DejaVuSans-Bold-68" d="M 4056 2131 
L 4056 0 
L 2931 0 
L 2931 347 
L 2931 1625 
Q 2931 2084 2911 2256 
Q 2891 2428 2841 2509 
Q 2775 2619 2662 2680 
Q 2550 2741 2406 2741 
Q 2056 2741 1856 2470 
Q 1656 2200 1656 1722 
L 1656 0 
L 538 0 
L 538 4863 
L 1656 4863 
L 1656 2988 
Q 1909 3294 2193 3439 
Q 2478 3584 2822 3584 
Q 3428 3584 3742 3212 
Q 4056 2841 4056 2131 
z
" transform="scale(0.015625)"/>
      <path id="DejaVuSans-Bold-66" d="M 2841 4863 
L 2841 4128 
L 2222 4128 
Q 1984 4128 1890 4042 
Q 1797 3956 1797 3744 
L 1797 3500 
L 2753 3500 
L 2753 2700 
L 1797 2700 
L 1797 0 
L 678 0 
L 678 2700 
L 122 2700 
L 122 3500 
L 678 3500 
L 678 3744 
Q 678 4316 997 4589 
Q 1316 4863 1984 4863 
L 2841 4863 
z
" transform="scale(0.015625)"/>
      <path id="DejaVuSans-Bold-6e" d="M 4056 2131 
L 4056 0 
L 2931 0 
L 2931 347 
L 2931 1631 
Q 2931 2084 2911 2256 
Q 2891 2428 2841 2509 
Q 2775 2619 2662 2680 
Q 2550 2741 2406 2741 
Q 2056 2741 1856 2470 
Q 1656 2200 1656 1722 
L 1656 0 
L 538 0 
L 538 3500 
L 1656 3500 
L 1656 2988 
Q 1909 3294 2193 3439 
Q 2478 3584 2822 3584 
Q 3428 3584 3742 3212 
Q 4056 2841 4056 2131 
z
" transform="scale(0.015625)"/>
      <path id="DejaVuSans-Bold-6d" d="M 3781 2919 
Q 3994 3244 4286 3414 
Q 4578 3584 4928 3584 
Q 5531 3584 5847 3212 
Q 6163 2841 6163 2131 
L 6163 0 
L 5038 0 
L 5038 1825 
Q 5041 1866 5042 1909 
Q 5044 1953 5044 2034 
Q 5044 2406 4934 2573 
Q 4825 2741 4581 2741 
Q 4263 2741 4089 2478 
Q 3916 2216 3909 1719 
L 3909 0 
L 2784 0 
L 2784 1825 
Q 2784 2406 2684 2573 
Q 2584 2741 2328 2741 
Q 2006 2741 1831 2477 
Q 1656 2213 1656 1722 
L 1656 0 
L 531 0 
L 531 3500 
L 1656 3500 
L 1656 2988 
Q 1863 3284 2130 3434 
Q 2397 3584 2719 3584 
Q 3081 3584 3359 3409 
Q 3638 3234 3781 2919 
z
" transform="scale(0.015625)"/>
     </defs>
     <use xlink:href="#DejaVuSans-Bold-56"/>
     <use xlink:href="#DejaVuSans-Bold-65" transform="translate(71.892578 0)"/>
     <use xlink:href="#DejaVuSans-Bold-6c" transform="translate(139.714844 0)"/>
     <use xlink:href="#DejaVuSans-Bold-6f" transform="translate(173.992188 0)"/>
     <use xlink:href="#DejaVuSans-Bold-63" transform="translate(242.693359 0)"/>
     <use xlink:href="#DejaVuSans-Bold-69" transform="translate(301.970703 0)"/>
     <use xlink:href="#DejaVuSans-Bold-74" transform="translate(336.248047 0)"/>
     <use xlink:href="#DejaVuSans-Bold-69" transform="translate(384.050781 0)"/>
     <use xlink:href="#DejaVuSans-Bold-65" transform="translate(418.328125 0)"/>
     <use xlink:href="#DejaVuSans-Bold-73" transform="translate(486.150391 0)"/>
     <use xlink:href="#DejaVuSans-Bold-20" transform="translate(545.671875 0)"/>
     <use xlink:href="#DejaVuSans-Bold-61" transform="translate(580.486328 0)"/>
     <use xlink:href="#DejaVuSans-Bold-74" transform="translate(647.966797 0)"/>
     <use xlink:href="#DejaVuSans-Bold-20" transform="translate(695.769531 0)"/>
     <use xlink:href="#DejaVuSans-Bold-74" transform="translate(730.583984 0)"/>
     <use xlink:href="#DejaVuSans-Bold-68" transform="translate(778.386719 0)"/>
     <use xlink:href="#DejaVuSans-Bold-65" transform="translate(849.578125 0)"/>
     <use xlink:href="#DejaVuSans-Bold-20" transform="translate(917.400391 0)"/>
     <use xlink:href="#DejaVuSans-Bold-66" transform="translate(952.214844 0)"/>
     <use xlink:href="#DejaVuSans-Bold-69" transform="translate(995.720703 0)"/>
     <use xlink:href="#DejaVuSans-Bold-6e" transform="translate(1029.998047 0)"/>
     <use xlink:href="#DejaVuSans-Bold-61" transform="translate(1101.189453 0)"/>
     <use xlink:href="#DejaVuSans-Bold-6c" transform="translate(1168.669922 0)"/>
     <use xlink:href="#DejaVuSans-Bold-20" transform="translate(1202.947266 0)"/>
     <use xlink:href="#DejaVuSans-Bold-74" transform="translate(1237.761719 0)"/>
     <use xlink:href="#DejaVuSans-Bold-69" transform="translate(1285.564453 0)"/>
     <use xlink:href="#DejaVuSans-Bold-6d" transform="translate(1319.841797 0)"/>
     <use xlink:href="#DejaVuSans-Bold-65" transform="translate(1424.041016 0)"/>
    </g>
   </g>
  </g>
  <g id="axes_2">
   <g id="patch_7">
    <path d="M 374.48 374.48 
L 508.4 374.48 
L 508.4 274.688 
L 374.48 274.688 
z
" style="fill: #ffffff"/>
   </g>
   <g id="matplotlib.axis_3"/>
   <g id="matplotlib.axis_4"/>
   <g id="line2d_13">
    <path d="M 380.567273 304.254469 
L 381.480455 304.602913 
L 383.684268 304.617221 
L 502.312727 304.617221 
L 502.312727 304.617221 
" clip-path="url(#peaeb136e76)" style="fill: none; stroke: #000000; stroke-opacity: 0.2; stroke-width: 1.5; stroke-linecap: square"/>
   </g>
   <g id="line2d_14">
    <path d="M 380.567273 303.400509 
L 380.871667 303.878966 
L 381.383049 304.299992 
L 381.711794 304.313596 
L 385.595863 304.33785 
L 502.312727 304.33785 
L 502.312727 304.33785 
" clip-path="url(#peaeb136e76)" style="fill: none; stroke: #000000; stroke-opacity: 0.2; stroke-width: 1.5; stroke-linecap: square"/>
   </g>
   <g id="line2d_15">
    <path d="M 380.567273 369.615341 
L 380.883843 369.548406 
L 382.101419 369.546713 
L 502.312727 369.546713 
L 502.312727 369.546713 
" clip-path="url(#peaeb136e76)" style="fill: none; stroke: #000000; stroke-opacity: 0.2; stroke-width: 1.5; stroke-linecap: square"/>
   </g>
   <g id="line2d_16">
    <path d="M 380.567273 344.540161 
L 380.908194 344.011351 
L 381.285643 343.786129 
L 381.687443 343.779549 
L 383.087656 343.959599 
L 502.312727 343.959599 
L 502.312727 343.959599 
" clip-path="url(#peaeb136e76)" style="fill: none; stroke: #000000; stroke-opacity: 0.2; stroke-width: 1.5; stroke-linecap: square"/>
   </g>
   <g id="line2d_17">
    <path d="M 380.567273 316.88022 
L 380.883843 316.922692 
L 383.063304 316.508423 
L 502.312727 316.508423 
L 502.312727 316.508423 
" clip-path="url(#peaeb136e76)" style="fill: none; stroke: #000000; stroke-opacity: 0.2; stroke-width: 1.5; stroke-linecap: square"/>
   </g>
   <g id="line2d_18">
    <path d="M 380.567273 283.998761 
L 380.896018 284.210538 
L 382.198825 284.339061 
L 382.771086 284.400677 
L 502.312727 284.400677 
L 502.312727 284.400677 
" clip-path="url(#peaeb136e76)" style="fill: none; stroke: #000000; stroke-opacity: 0.2; stroke-width: 1.5; stroke-linecap: square"/>
   </g>
   <g id="line2d_19">
    <path d="M 380.567273 339.547984 
L 380.883843 339.129851 
L 381.541334 338.956945 
L 382.174473 338.849678 
L 382.710207 338.793305 
L 502.312727 338.793305 
L 502.312727 338.793305 
" clip-path="url(#peaeb136e76)" style="fill: none; stroke: #000000; stroke-opacity: 0.2; stroke-width: 1.5; stroke-linecap: square"/>
   </g>
   <g id="line2d_20">
    <path d="M 380.567273 360.096652 
L 380.871667 359.894856 
L 381.443928 359.805483 
L 383.39205 359.696068 
L 502.312727 359.696068 
L 502.312727 359.696068 
" clip-path="url(#peaeb136e76)" style="fill: none; stroke: #000000; stroke-opacity: 0.2; stroke-width: 1.5; stroke-linecap: square"/>
   </g>
   <g id="line2d_21">
    <path d="M 380.567273 322.907727 
L 380.981249 323.329787 
L 382.35711 324.156844 
L 502.312727 324.156844 
L 502.312727 324.156844 
" clip-path="url(#peaeb136e76)" style="fill: none; stroke: #000000; stroke-opacity: 0.2; stroke-width: 1.5; stroke-linecap: square"/>
   </g>
   <g id="line2d_22">
    <path d="M 380.567273 305.736322 
L 381.419576 306.795171 
L 382.247528 307.166498 
L 385.425402 307.17023 
L 502.312727 307.17023 
L 502.312727 307.17023 
" clip-path="url(#peaeb136e76)" style="fill: none; stroke: #000000; stroke-opacity: 0.2; stroke-width: 1.5; stroke-linecap: square"/>
   </g>
   <g id="line2d_23">
    <path d="M 380.567273 343.336081 
L 380.908194 342.985149 
L 381.383049 342.856659 
L 502.312727 342.856659 
L 502.312727 342.856659 
" clip-path="url(#peaeb136e76)" style="fill: none; stroke: #000000; stroke-opacity: 0.2; stroke-width: 1.5; stroke-linecap: square"/>
   </g>
   <g id="line2d_24">
    <path d="M 380.567273 290.492165 
L 381.017776 290.692218 
L 382.101419 290.92685 
L 383.136359 290.944175 
L 502.312727 290.944175 
L 502.312727 290.944175 
" clip-path="url(#peaeb136e76)" style="fill: none; stroke: #000000; stroke-opacity: 0.2; stroke-width: 1.5; stroke-linecap: square"/>
   </g>
   <g id="line2d_25">
    <path d="M 380.567273 286.343493 
L 381.078655 287.113411 
L 382.661504 288.428165 
L 383.185062 288.492116 
L 502.312727 288.492116 
L 502.312727 288.492116 
" clip-path="url(#peaeb136e76)" style="fill: none; stroke: #000000; stroke-opacity: 0.2; stroke-width: 1.5; stroke-linecap: square"/>
   </g>
   <g id="line2d_26">
    <path d="M 380.567273 299.224223 
L 380.981249 299.752586 
L 381.383049 299.990824 
L 382.44234 300.12819 
L 502.312727 300.12819 
L 502.312727 300.12819 
" clip-path="url(#peaeb136e76)" style="fill: none; stroke: #000000; stroke-opacity: 0.2; stroke-width: 1.5; stroke-linecap: square"/>
   </g>
   <g id="line2d_27">
    <path d="M 380.567273 346.847536 
L 380.932546 346.537225 
L 381.492631 346.447738 
L 382.296231 346.350807 
L 502.312727 346.350807 
L 502.312727 346.350807 
" clip-path="url(#peaeb136e76)" style="fill: none; stroke: #000000; stroke-opacity: 0.2; stroke-width: 1.5; stroke-linecap: square"/>
   </g>
   <g id="line2d_28">
    <path d="M 380.567273 283.278903 
L 381.127358 283.609478 
L 382.67368 284.139904 
L 383.185062 284.160799 
L 502.312727 284.160799 
L 502.312727 284.160799 
" clip-path="url(#peaeb136e76)" style="fill: none; stroke: #000000; stroke-opacity: 0.2; stroke-width: 1.5; stroke-linecap: square"/>
   </g>
   <g id="line2d_29">
    <path d="M 380.567273 283.261363 
L 381.103006 283.445011 
L 406.9278 283.416539 
L 502.312727 283.416539 
L 502.312727 283.416539 
" clip-path="url(#peaeb136e76)" style="fill: none; stroke: #000000; stroke-opacity: 0.2; stroke-width: 1.5; stroke-linecap: square"/>
   </g>
   <g id="line2d_30">
    <path d="M 380.567273 301.433718 
L 380.896018 301.765919 
L 381.456103 301.941504 
L 502.312727 301.934954 
L 502.312727 301.934954 
" clip-path="url(#peaeb136e76)" style="fill: none; stroke: #000000; stroke-opacity: 0.2; stroke-width: 1.5; stroke-linecap: square"/>
   </g>
   <g id="line2d_31">
    <path d="M 380.567273 285.880934 
L 380.92037 286.08828 
L 382.588449 286.561736 
L 384.134771 286.75858 
L 502.312727 286.75858 
L 502.312727 286.75858 
" clip-path="url(#peaeb136e76)" style="fill: none; stroke: #000000; stroke-opacity: 0.2; stroke-width: 1.5; stroke-linecap: square"/>
   </g>
   <g id="line2d_32">
    <path d="M 380.567273 349.100982 
L 380.969073 348.671153 
L 381.529158 348.329987 
L 385.766324 348.303534 
L 502.312727 348.303534 
L 502.312727 348.303534 
" clip-path="url(#peaeb136e76)" style="fill: none; stroke: #000000; stroke-opacity: 0.2; stroke-width: 1.5; stroke-linecap: square"/>
   </g>
   <g id="line2d_33">
    <path d="M 380.567273 324.907586 
L 381.687443 325.342749 
L 382.978074 325.509577 
L 502.312727 325.509577 
L 502.312727 325.509577 
" clip-path="url(#peaeb136e76)" style="fill: none; stroke: #000000; stroke-opacity: 0.2; stroke-width: 1.5; stroke-linecap: square"/>
   </g>
   <g id="line2d_34">
    <path d="M 380.567273 295.347998 
L 381.042127 295.525908 
L 383.026777 295.809402 
L 502.312727 295.809402 
L 502.312727 295.809402 
" clip-path="url(#peaeb136e76)" style="fill: none; stroke: #000000; stroke-opacity: 0.2; stroke-width: 1.5; stroke-linecap: square"/>
   </g>
   <g id="line2d_35">
    <path d="M 380.567273 281.766696 
L 380.908194 282.056169 
L 381.626564 282.262992 
L 387.349173 282.24886 
L 502.312727 282.24886 
L 502.312727 282.24886 
" clip-path="url(#peaeb136e76)" style="fill: none; stroke: #000000; stroke-opacity: 0.2; stroke-width: 1.5; stroke-linecap: square"/>
   </g>
   <g id="line2d_36">
    <path d="M 380.567273 311.530119 
L 380.944721 311.504535 
L 383.112007 311.818472 
L 502.312727 311.818472 
L 502.312727 311.818472 
" clip-path="url(#peaeb136e76)" style="fill: none; stroke: #000000; stroke-opacity: 0.2; stroke-width: 1.5; stroke-linecap: square"/>
   </g>
   <g id="line2d_37">
    <path d="M 380.567273 285.870166 
L 380.871667 286.079373 
L 381.565685 286.1293 
L 388.871143 286.125776 
L 502.312727 286.125776 
L 502.312727 286.125776 
" clip-path="url(#peaeb136e76)" style="fill: none; stroke: #000000; stroke-opacity: 0.2; stroke-width: 1.5; stroke-linecap: square"/>
   </g>
   <g id="line2d_38">
    <path d="M 380.567273 306.399987 
L 382.320583 307.161735 
L 502.312727 307.161735 
L 502.312727 307.161735 
" clip-path="url(#peaeb136e76)" style="fill: none; stroke: #000000; stroke-opacity: 0.2; stroke-width: 1.5; stroke-linecap: square"/>
   </g>
   <g id="line2d_39">
    <path d="M 380.567273 367.337525 
L 381.261291 366.751383 
L 382.089243 366.383909 
L 502.312727 366.383909 
L 502.312727 366.383909 
" clip-path="url(#peaeb136e76)" style="fill: none; stroke: #000000; stroke-opacity: 0.2; stroke-width: 1.5; stroke-linecap: square"/>
   </g>
   <g id="line2d_40">
    <path d="M 380.567273 293.122559 
L 381.139534 293.970088 
L 381.614388 294.344145 
L 382.795437 294.966965 
L 502.312727 294.966965 
L 502.312727 294.966965 
" clip-path="url(#peaeb136e76)" style="fill: none; stroke: #000000; stroke-opacity: 0.2; stroke-width: 1.5; stroke-linecap: square"/>
   </g>
   <g id="line2d_41">
    <path d="M 380.567273 336.642665 
L 381.443928 336.108956 
L 382.332758 336.089471 
L 385.681093 336.089269 
L 502.312727 336.089269 
L 502.312727 336.089269 
" clip-path="url(#peaeb136e76)" style="fill: none; stroke: #000000; stroke-opacity: 0.2; stroke-width: 1.5; stroke-linecap: square"/>
   </g>
   <g id="line2d_42">
    <path d="M 380.567273 283.457117 
L 380.896018 283.884708 
L 381.882255 284.50006 
L 382.84414 284.654095 
L 502.312727 284.654095 
L 502.312727 284.654095 
" clip-path="url(#peaeb136e76)" style="fill: none; stroke: #000000; stroke-opacity: 0.2; stroke-width: 1.5; stroke-linecap: square"/>
   </g>
   <g id="line2d_43">
    <path d="M 380.567273 326.025956 
L 380.847315 325.906752 
L 381.797025 325.967926 
L 502.312727 325.967926 
L 502.312727 325.967926 
" clip-path="url(#peaeb136e76)" style="fill: none; stroke: #000000; stroke-opacity: 0.2; stroke-width: 1.5; stroke-linecap: square"/>
   </g>
   <g id="line2d_44">
    <path d="M 380.567273 359.603995 
L 381.127358 359.060851 
L 381.565685 358.939958 
L 382.99025 358.913184 
L 502.312727 358.913184 
L 502.312727 358.913184 
" clip-path="url(#peaeb136e76)" style="fill: none; stroke: #000000; stroke-opacity: 0.2; stroke-width: 1.5; stroke-linecap: square"/>
   </g>
   <g id="line2d_45">
    <path d="M 380.567273 280.838507 
L 381.273467 281.324257 
L 502.312727 281.324257 
L 502.312727 281.324257 
" clip-path="url(#peaeb136e76)" style="fill: none; stroke: #000000; stroke-opacity: 0.2; stroke-width: 1.5; stroke-linecap: square"/>
   </g>
   <g id="line2d_46">
    <path d="M 380.567273 369.770278 
L 381.188237 369.148214 
L 382.174473 368.574545 
L 382.880668 368.558015 
L 502.312727 368.558015 
L 502.312727 368.558015 
" clip-path="url(#peaeb136e76)" style="fill: none; stroke: #000000; stroke-opacity: 0.2; stroke-width: 1.5; stroke-linecap: square"/>
   </g>
   <g id="line2d_47">
    <path d="M 380.567273 307.861112 
L 381.273467 308.316943 
L 382.27188 308.695292 
L 502.312727 308.695292 
L 502.312727 308.695292 
" clip-path="url(#peaeb136e76)" style="fill: none; stroke: #000000; stroke-opacity: 0.2; stroke-width: 1.5; stroke-linecap: square"/>
   </g>
   <g id="line2d_48">
    <path d="M 380.567273 358.185826 
L 380.871667 357.865529 
L 382.198825 357.375365 
L 502.312727 357.375365 
L 502.312727 357.375365 
" clip-path="url(#peaeb136e76)" style="fill: none; stroke: #000000; stroke-opacity: 0.2; stroke-width: 1.5; stroke-linecap: square"/>
   </g>
   <g id="line2d_49">
    <path d="M 380.567273 356.789761 
L 381.103006 356.416326 
L 382.332758 356.011993 
L 502.312727 356.011993 
L 502.312727 356.011993 
" clip-path="url(#peaeb136e76)" style="fill: none; stroke: #000000; stroke-opacity: 0.2; stroke-width: 1.5; stroke-linecap: square"/>
   </g>
   <g id="line2d_50">
    <path d="M 380.567273 310.396729 
L 381.127358 310.674477 
L 381.918782 310.783199 
L 383.489456 310.760856 
L 384.146947 310.742854 
L 502.312727 310.742854 
L 502.312727 310.742854 
" clip-path="url(#peaeb136e76)" style="fill: none; stroke: #000000; stroke-opacity: 0.2; stroke-width: 1.5; stroke-linecap: square"/>
   </g>
   <g id="line2d_51">
    <path d="M 380.567273 279.224 
L 380.786436 279.455176 
L 381.480455 279.573074 
L 382.84414 279.719041 
L 502.312727 279.719041 
L 502.312727 279.719041 
" clip-path="url(#peaeb136e76)" style="fill: none; stroke: #000000; stroke-opacity: 0.2; stroke-width: 1.5; stroke-linecap: square"/>
   </g>
   <g id="line2d_52">
    <path d="M 380.567273 306.149301 
L 384.901844 305.992893 
L 502.312727 305.992893 
L 502.312727 305.992893 
" clip-path="url(#peaeb136e76)" style="fill: none; stroke: #000000; stroke-opacity: 0.2; stroke-width: 1.5; stroke-linecap: square"/>
   </g>
   <g id="line2d_53">
    <path d="M 380.567273 299.84462 
L 380.847315 299.959678 
L 386.728209 299.972797 
L 502.312727 299.972797 
L 502.312727 299.972797 
" clip-path="url(#peaeb136e76)" style="fill: none; stroke: #000000; stroke-opacity: 0.2; stroke-width: 1.5; stroke-linecap: square"/>
   </g>
   <g id="line2d_54">
    <path d="M 380.567273 331.45554 
L 381.516982 330.523068 
L 382.929371 329.687553 
L 502.312727 329.687553 
L 502.312727 329.687553 
" clip-path="url(#peaeb136e76)" style="fill: none; stroke: #000000; stroke-opacity: 0.2; stroke-width: 1.5; stroke-linecap: square"/>
   </g>
   <g id="line2d_55">
    <path d="M 380.567273 358.330993 
L 380.847315 358.266347 
L 382.162298 358.141311 
L 384.487868 358.034357 
L 502.312727 358.034357 
L 502.312727 358.034357 
" clip-path="url(#peaeb136e76)" style="fill: none; stroke: #000000; stroke-opacity: 0.2; stroke-width: 1.5; stroke-linecap: square"/>
   </g>
   <g id="line2d_56">
    <path d="M 380.567273 351.075784 
L 380.944721 350.190959 
L 381.419576 349.720624 
L 382.089243 349.486826 
L 382.430164 349.48471 
L 502.312727 349.48471 
L 502.312727 349.48471 
" clip-path="url(#peaeb136e76)" style="fill: none; stroke: #000000; stroke-opacity: 0.2; stroke-width: 1.5; stroke-linecap: square"/>
   </g>
   <g id="line2d_57">
    <path d="M 380.567273 299.588704 
L 381.078655 299.622503 
L 381.72397 299.628697 
L 502.312727 299.628697 
L 502.312727 299.628697 
" clip-path="url(#peaeb136e76)" style="fill: none; stroke: #000000; stroke-opacity: 0.2; stroke-width: 1.5; stroke-linecap: square"/>
   </g>
   <g id="line2d_58">
    <path d="M 380.567273 366.242771 
L 381.0056 365.831576 
L 381.358697 365.73248 
L 502.312727 365.73248 
L 502.312727 365.73248 
" clip-path="url(#peaeb136e76)" style="fill: none; stroke: #000000; stroke-opacity: 0.2; stroke-width: 1.5; stroke-linecap: square"/>
   </g>
   <g id="line2d_59">
    <path d="M 380.567273 325.362309 
L 381.139534 325.545233 
L 381.760498 325.716436 
L 382.162298 325.718972 
L 383.112007 325.591101 
L 502.312727 325.591101 
L 502.312727 325.591101 
" clip-path="url(#peaeb136e76)" style="fill: none; stroke: #000000; stroke-opacity: 0.2; stroke-width: 1.5; stroke-linecap: square"/>
   </g>
   <g id="line2d_60">
    <path d="M 380.567273 354.40768 
L 380.798612 354.31125 
L 382.491043 354.365166 
L 502.312727 354.365166 
L 502.312727 354.365166 
" clip-path="url(#peaeb136e76)" style="fill: none; stroke: #000000; stroke-opacity: 0.2; stroke-width: 1.5; stroke-linecap: square"/>
   </g>
   <g id="line2d_61">
    <path d="M 380.567273 312.145734 
L 381.017776 312.625754 
L 381.504806 312.799592 
L 382.259704 312.743914 
L 502.312727 312.743914 
L 502.312727 312.743914 
" clip-path="url(#peaeb136e76)" style="fill: none; stroke: #000000; stroke-opacity: 0.2; stroke-width: 1.5; stroke-linecap: square"/>
   </g>
   <g id="line2d_62">
    <path d="M 380.567273 319.625279 
L 380.908194 319.699455 
L 381.395225 319.677838 
L 382.174473 319.542886 
L 382.84414 319.458016 
L 502.312727 319.458016 
L 502.312727 319.458016 
" clip-path="url(#peaeb136e76)" style="fill: none; stroke: #000000; stroke-opacity: 0.2; stroke-width: 1.5; stroke-linecap: square"/>
   </g>
   <g id="line2d_63">
    <path d="M 380.567273 318.138511 
L 381.029952 318.37935 
L 381.809201 318.609556 
L 502.312727 318.609556 
L 502.312727 318.609556 
" clip-path="url(#peaeb136e76)" style="fill: none; stroke: #000000; stroke-opacity: 0.2; stroke-width: 1.5; stroke-linecap: square"/>
   </g>
   <g id="line2d_64">
    <path d="M 380.567273 294.553265 
L 380.871667 294.909046 
L 381.760498 295.324043 
L 383.416401 295.279161 
L 502.312727 295.279161 
L 502.312727 295.279161 
" clip-path="url(#peaeb136e76)" style="fill: none; stroke: #000000; stroke-opacity: 0.2; stroke-width: 1.5; stroke-linecap: square"/>
   </g>
   <g id="line2d_65">
    <path d="M 380.567273 283.228993 
L 381.32217 283.542005 
L 381.833552 283.589171 
L 388.055367 283.59202 
L 502.312727 283.59202 
L 502.312727 283.59202 
" clip-path="url(#peaeb136e76)" style="fill: none; stroke: #000000; stroke-opacity: 0.2; stroke-width: 1.5; stroke-linecap: square"/>
   </g>
   <g id="line2d_66">
    <path d="M 380.567273 353.261454 
L 381.383049 352.543107 
L 382.235352 351.861263 
L 502.312727 351.861263 
L 502.312727 351.861263 
" clip-path="url(#peaeb136e76)" style="fill: none; stroke: #000000; stroke-opacity: 0.2; stroke-width: 1.5; stroke-linecap: square"/>
   </g>
   <g id="line2d_67">
    <path d="M 380.567273 304.456268 
L 381.516982 304.691431 
L 383.07548 304.64442 
L 502.312727 304.64442 
L 502.312727 304.64442 
" clip-path="url(#peaeb136e76)" style="fill: none; stroke: #000000; stroke-opacity: 0.2; stroke-width: 1.5; stroke-linecap: square"/>
   </g>
   <g id="line2d_68">
    <path d="M 380.567273 305.855275 
L 380.908194 306.080589 
L 381.711794 306.356897 
L 382.393637 306.515105 
L 383.306819 306.517378 
L 502.312727 306.517378 
L 502.312727 306.517378 
" clip-path="url(#peaeb136e76)" style="fill: none; stroke: #000000; stroke-opacity: 0.2; stroke-width: 1.5; stroke-linecap: square"/>
   </g>
   <g id="line2d_69">
    <path d="M 380.567273 347.123048 
L 381.139534 346.510468 
L 381.395225 346.47932 
L 394.752037 346.529192 
L 502.312727 346.529192 
L 502.312727 346.529192 
" clip-path="url(#peaeb136e76)" style="fill: none; stroke: #000000; stroke-opacity: 0.2; stroke-width: 1.5; stroke-linecap: square"/>
   </g>
   <g id="line2d_70">
    <path d="M 380.567273 285.40477 
L 382.150122 286.007576 
L 502.312727 286.007576 
L 502.312727 286.007576 
" clip-path="url(#peaeb136e76)" style="fill: none; stroke: #000000; stroke-opacity: 0.2; stroke-width: 1.5; stroke-linecap: square"/>
   </g>
   <g id="line2d_71">
    <path d="M 380.567273 321.39784 
L 380.981249 321.79296 
L 381.797025 321.921476 
L 382.186649 321.761421 
L 382.67368 321.667926 
L 502.312727 321.667926 
L 502.312727 321.667926 
" clip-path="url(#peaeb136e76)" style="fill: none; stroke: #000000; stroke-opacity: 0.2; stroke-width: 1.5; stroke-linecap: square"/>
   </g>
   <g id="line2d_72">
    <path d="M 380.567273 318.994273 
L 381.017776 318.869383 
L 381.577861 318.621425 
L 382.211001 318.423572 
L 382.84414 318.361098 
L 502.312727 318.361098 
L 502.312727 318.361098 
" clip-path="url(#peaeb136e76)" style="fill: none; stroke: #000000; stroke-opacity: 0.2; stroke-width: 1.5; stroke-linecap: square"/>
   </g>
   <g id="line2d_73">
    <path d="M 380.567273 341.070934 
L 380.871667 340.6634 
L 381.383049 340.137174 
L 381.711794 339.970541 
L 382.84414 339.608195 
L 502.312727 339.608195 
L 502.312727 339.608195 
" clip-path="url(#peaeb136e76)" style="fill: none; stroke: #000000; stroke-opacity: 0.2; stroke-width: 1.5; stroke-linecap: square"/>
   </g>
   <g id="line2d_74">
    <path d="M 380.567273 339.582351 
L 381.127358 338.889523 
L 381.626564 338.646898 
L 382.12577 338.658978 
L 502.312727 338.658978 
L 502.312727 338.658978 
" clip-path="url(#peaeb136e76)" style="fill: none; stroke: #000000; stroke-opacity: 0.2; stroke-width: 1.5; stroke-linecap: square"/>
   </g>
   <g id="line2d_75">
    <path d="M 380.567273 340.176453 
L 383.70862 340.055728 
L 502.312727 340.055728 
L 502.312727 340.055728 
" clip-path="url(#peaeb136e76)" style="fill: none; stroke: #000000; stroke-opacity: 0.2; stroke-width: 1.5; stroke-linecap: square"/>
   </g>
   <g id="line2d_76">
    <path d="M 380.567273 279.490206 
L 381.0056 280.124271 
L 381.431752 280.395985 
L 382.819789 280.395005 
L 502.312727 280.395005 
L 502.312727 280.395005 
" clip-path="url(#peaeb136e76)" style="fill: none; stroke: #000000; stroke-opacity: 0.2; stroke-width: 1.5; stroke-linecap: square"/>
   </g>
   <g id="line2d_77">
    <path d="M 380.567273 352.293336 
L 381.468279 351.947153 
L 382.503219 351.807724 
L 502.312727 351.807724 
L 502.312727 351.807724 
" clip-path="url(#peaeb136e76)" style="fill: none; stroke: #000000; stroke-opacity: 0.2; stroke-width: 1.5; stroke-linecap: square"/>
   </g>
   <g id="line2d_78">
    <path d="M 380.567273 308.75704 
L 381.687443 309.351716 
L 382.259704 309.390328 
L 502.312727 309.390328 
L 502.312727 309.390328 
" clip-path="url(#peaeb136e76)" style="fill: none; stroke: #000000; stroke-opacity: 0.2; stroke-width: 1.5; stroke-linecap: square"/>
   </g>
   <g id="line2d_79">
    <path d="M 380.567273 317.415453 
L 381.224764 316.88728 
L 382.564098 316.33665 
L 383.185062 316.286778 
L 502.312727 316.286778 
L 502.312727 316.286778 
" clip-path="url(#peaeb136e76)" style="fill: none; stroke: #000000; stroke-opacity: 0.2; stroke-width: 1.5; stroke-linecap: square"/>
   </g>
   <g id="line2d_80">
    <path d="M 380.567273 366.489695 
L 381.188237 365.96869 
L 382.722383 365.808281 
L 502.312727 365.808281 
L 502.312727 365.808281 
" clip-path="url(#peaeb136e76)" style="fill: none; stroke: #000000; stroke-opacity: 0.2; stroke-width: 1.5; stroke-linecap: square"/>
   </g>
   <g id="line2d_81">
    <path d="M 380.567273 320.414127 
L 381.334346 319.855807 
L 381.748322 319.733167 
L 502.312727 319.733167 
L 502.312727 319.733167 
" clip-path="url(#peaeb136e76)" style="fill: none; stroke: #000000; stroke-opacity: 0.2; stroke-width: 1.5; stroke-linecap: square"/>
   </g>
   <g id="line2d_82">
    <path d="M 380.567273 351.84898 
L 380.896018 351.630467 
L 381.492631 351.511477 
L 388.347585 351.581929 
L 502.312727 351.581929 
L 502.312727 351.581929 
" clip-path="url(#peaeb136e76)" style="fill: none; stroke: #000000; stroke-opacity: 0.2; stroke-width: 1.5; stroke-linecap: square"/>
   </g>
   <g id="line2d_83">
    <path d="M 380.567273 362.818117 
L 380.908194 362.81164 
L 502.312727 362.81164 
L 502.312727 362.81164 
" clip-path="url(#peaeb136e76)" style="fill: none; stroke: #000000; stroke-opacity: 0.2; stroke-width: 1.5; stroke-linecap: square"/>
   </g>
   <g id="line2d_84">
    <path d="M 380.567273 289.718133 
L 380.981249 290.02629 
L 383.136359 290.556049 
L 502.312727 290.556049 
L 502.312727 290.556049 
" clip-path="url(#peaeb136e76)" style="fill: none; stroke: #000000; stroke-opacity: 0.2; stroke-width: 1.5; stroke-linecap: square"/>
   </g>
   <g id="line2d_85">
    <path d="M 380.567273 368.799327 
L 382.393637 368.185822 
L 502.312727 368.185822 
L 502.312727 368.185822 
" clip-path="url(#peaeb136e76)" style="fill: none; stroke: #000000; stroke-opacity: 0.2; stroke-width: 1.5; stroke-linecap: square"/>
   </g>
   <g id="line2d_86">
    <path d="M 380.567273 280.447052 
L 381.115182 280.54504 
L 387.361348 280.582779 
L 502.312727 280.582779 
L 502.312727 280.582779 
" clip-path="url(#peaeb136e76)" style="fill: none; stroke: #000000; stroke-opacity: 0.2; stroke-width: 1.5; stroke-linecap: square"/>
   </g>
   <g id="line2d_87">
    <path d="M 380.567273 340.627168 
L 381.115182 340.627262 
L 382.35711 340.709001 
L 502.312727 340.709001 
L 502.312727 340.709001 
" clip-path="url(#peaeb136e76)" style="fill: none; stroke: #000000; stroke-opacity: 0.2; stroke-width: 1.5; stroke-linecap: square"/>
   </g>
   <g id="line2d_88">
    <path d="M 380.567273 332.857082 
L 381.151709 332.326927 
L 382.685855 331.687988 
L 502.312727 331.687988 
L 502.312727 331.687988 
" clip-path="url(#peaeb136e76)" style="fill: none; stroke: #000000; stroke-opacity: 0.2; stroke-width: 1.5; stroke-linecap: square"/>
   </g>
   <g id="line2d_89">
    <path d="M 380.567273 358.645373 
L 381.029952 358.379895 
L 381.675267 358.24921 
L 384.073892 358.151577 
L 502.312727 358.151577 
L 502.312727 358.151577 
" clip-path="url(#peaeb136e76)" style="fill: none; stroke: #000000; stroke-opacity: 0.2; stroke-width: 1.5; stroke-linecap: square"/>
   </g>
   <g id="line2d_90">
    <path d="M 380.567273 359.441164 
L 380.822964 358.98938 
L 381.419576 358.57861 
L 382.04054 358.447451 
L 502.312727 358.447451 
L 502.312727 358.447451 
" clip-path="url(#peaeb136e76)" style="fill: none; stroke: #000000; stroke-opacity: 0.2; stroke-width: 1.5; stroke-linecap: square"/>
   </g>
   <g id="line2d_91">
    <path d="M 380.567273 332.509211 
L 380.810788 332.356231 
L 382.211001 332.058259 
L 383.818201 332.05361 
L 502.312727 332.05361 
L 502.312727 332.05361 
" clip-path="url(#peaeb136e76)" style="fill: none; stroke: #000000; stroke-opacity: 0.2; stroke-width: 1.5; stroke-linecap: square"/>
   </g>
   <g id="line2d_92">
    <path d="M 380.567273 313.411158 
L 381.711794 313.466579 
L 382.162298 313.512688 
L 502.312727 313.512688 
L 502.312727 313.512688 
" clip-path="url(#peaeb136e76)" style="fill: none; stroke: #000000; stroke-opacity: 0.2; stroke-width: 1.5; stroke-linecap: square"/>
   </g>
   <g id="line2d_93">
    <path d="M 380.567273 358.953003 
L 380.932546 358.559171 
L 381.370873 358.417456 
L 381.906607 358.433992 
L 383.270292 358.441978 
L 502.312727 358.441978 
L 502.312727 358.441978 
" clip-path="url(#peaeb136e76)" style="fill: none; stroke: #000000; stroke-opacity: 0.2; stroke-width: 1.5; stroke-linecap: square"/>
   </g>
   <g id="line2d_94">
    <path d="M 380.567273 279.897304 
L 381.042127 280.523127 
L 382.491043 281.405349 
L 383.16071 281.48433 
L 502.312727 281.48433 
L 502.312727 281.48433 
" clip-path="url(#peaeb136e76)" style="fill: none; stroke: #000000; stroke-opacity: 0.2; stroke-width: 1.5; stroke-linecap: square"/>
   </g>
   <g id="line2d_95">
    <path d="M 380.567273 354.41285 
L 380.956897 353.896866 
L 381.297819 353.667965 
L 382.296231 353.47842 
L 502.312727 353.47842 
L 502.312727 353.47842 
" clip-path="url(#peaeb136e76)" style="fill: none; stroke: #000000; stroke-opacity: 0.2; stroke-width: 1.5; stroke-linecap: square"/>
   </g>
   <g id="line2d_96">
    <path d="M 380.567273 299.997058 
L 380.944721 299.969848 
L 381.456103 299.921585 
L 502.312727 299.921585 
L 502.312727 299.921585 
" clip-path="url(#peaeb136e76)" style="fill: none; stroke: #000000; stroke-opacity: 0.2; stroke-width: 1.5; stroke-linecap: square"/>
   </g>
   <g id="line2d_97">
    <path d="M 380.567273 326.109597 
L 381.017776 325.94323 
L 381.95531 325.437289 
L 382.710207 325.321012 
L 502.312727 325.321012 
L 502.312727 325.321012 
" clip-path="url(#peaeb136e76)" style="fill: none; stroke: #000000; stroke-opacity: 0.2; stroke-width: 1.5; stroke-linecap: square"/>
   </g>
   <g id="line2d_98">
    <path d="M 380.567273 299.271568 
L 382.515395 299.464334 
L 502.312727 299.464334 
L 502.312727 299.464334 
" clip-path="url(#peaeb136e76)" style="fill: none; stroke: #000000; stroke-opacity: 0.2; stroke-width: 1.5; stroke-linecap: square"/>
   </g>
   <g id="line2d_99">
    <path d="M 380.567273 342.93642 
L 381.115182 342.319667 
L 381.443928 342.173229 
L 383.16071 341.704915 
L 502.312727 341.704915 
L 502.312727 341.704915 
" clip-path="url(#peaeb136e76)" style="fill: none; stroke: #000000; stroke-opacity: 0.2; stroke-width: 1.5; stroke-linecap: square"/>
   </g>
   <g id="line2d_100">
    <path d="M 380.567273 369.944 
L 380.871667 369.571256 
L 381.687443 369.164305 
L 382.771086 368.956996 
L 502.312727 368.956996 
L 502.312727 368.956996 
" clip-path="url(#peaeb136e76)" style="fill: none; stroke: #000000; stroke-opacity: 0.2; stroke-width: 1.5; stroke-linecap: square"/>
   </g>
   <g id="line2d_101">
    <path d="M 380.567273 327.873642 
L 380.981249 327.901815 
L 381.991837 327.929247 
L 383.172886 327.953766 
L 502.312727 327.953766 
L 502.312727 327.953766 
" clip-path="url(#peaeb136e76)" style="fill: none; stroke: #000000; stroke-opacity: 0.2; stroke-width: 1.5; stroke-linecap: square"/>
   </g>
   <g id="line2d_102">
    <path d="M 380.567273 305.348652 
L 380.896018 305.712153 
L 382.077067 305.979934 
L 502.312727 305.979934 
L 502.312727 305.979934 
" clip-path="url(#peaeb136e76)" style="fill: none; stroke: #000000; stroke-opacity: 0.2; stroke-width: 1.5; stroke-linecap: square"/>
   </g>
   <g id="line2d_103">
    <path d="M 380.567273 365.169406 
L 380.859491 365.050945 
L 381.687443 365.04 
L 502.312727 365.04 
L 502.312727 365.04 
" clip-path="url(#peaeb136e76)" style="fill: none; stroke: #000000; stroke-opacity: 0.2; stroke-width: 1.5; stroke-linecap: square"/>
   </g>
   <g id="line2d_104">
    <path d="M 380.567273 308.570681 
L 380.944721 308.903518 
L 381.261291 308.90781 
L 383.501632 308.865275 
L 502.312727 308.865275 
L 502.312727 308.865275 
" clip-path="url(#peaeb136e76)" style="fill: none; stroke: #000000; stroke-opacity: 0.2; stroke-width: 1.5; stroke-linecap: square"/>
   </g>
   <g id="line2d_105">
    <path d="M 380.567273 338.939527 
L 381.212588 339.072404 
L 390.34441 339.092534 
L 502.312727 339.092534 
L 502.312727 339.092534 
" clip-path="url(#peaeb136e76)" style="fill: none; stroke: #000000; stroke-opacity: 0.2; stroke-width: 1.5; stroke-linecap: square"/>
   </g>
   <g id="line2d_106">
    <path d="M 380.567273 315.825617 
L 381.334346 316.056469 
L 382.588449 316.041525 
L 502.312727 316.041525 
L 502.312727 316.041525 
" clip-path="url(#peaeb136e76)" style="fill: none; stroke: #000000; stroke-opacity: 0.2; stroke-width: 1.5; stroke-linecap: square"/>
   </g>
   <g id="line2d_107">
    <path d="M 380.567273 349.867989 
L 381.054303 349.841029 
L 385.011426 349.876697 
L 502.312727 349.876697 
L 502.312727 349.876697 
" clip-path="url(#peaeb136e76)" style="fill: none; stroke: #000000; stroke-opacity: 0.2; stroke-width: 1.5; stroke-linecap: square"/>
   </g>
   <g id="line2d_108">
    <path d="M 380.567273 346.25273 
L 381.565685 346.589498 
L 383.452929 346.824963 
L 502.312727 346.824963 
L 502.312727 346.824963 
" clip-path="url(#peaeb136e76)" style="fill: none; stroke: #000000; stroke-opacity: 0.2; stroke-width: 1.5; stroke-linecap: square"/>
   </g>
   <g id="line2d_109">
    <path d="M 380.567273 283.807241 
L 380.871667 284.308409 
L 381.188237 284.485993 
L 382.795437 284.520898 
L 502.312727 284.520898 
L 502.312727 284.520898 
" clip-path="url(#peaeb136e76)" style="fill: none; stroke: #000000; stroke-opacity: 0.2; stroke-width: 1.5; stroke-linecap: square"/>
   </g>
   <g id="line2d_110">
    <path d="M 380.567273 293.821098 
L 380.871667 293.856933 
L 388.493694 293.826296 
L 502.312727 293.826296 
L 502.312727 293.826296 
" clip-path="url(#peaeb136e76)" style="fill: none; stroke: #000000; stroke-opacity: 0.2; stroke-width: 1.5; stroke-linecap: square"/>
   </g>
   <g id="line2d_111">
    <path d="M 380.567273 357.716191 
L 381.55351 357.360766 
L 382.649328 357.307473 
L 502.312727 357.307473 
L 502.312727 357.307473 
" clip-path="url(#peaeb136e76)" style="fill: none; stroke: #000000; stroke-opacity: 0.2; stroke-width: 1.5; stroke-linecap: square"/>
   </g>
   <g id="line2d_112">
    <path d="M 380.567273 310.636477 
L 381.675267 311.444574 
L 382.612801 311.563752 
L 502.312727 311.563752 
L 502.312727 311.563752 
" clip-path="url(#peaeb136e76)" style="fill: none; stroke: #000000; stroke-opacity: 0.2; stroke-width: 1.5; stroke-linecap: square"/>
   </g>
   <g id="patch_8">
    <path d="M 374.48 374.48 
L 374.48 274.688 
" style="fill: none; stroke: #000000; stroke-width: 0.8; stroke-linejoin: miter; stroke-linecap: square"/>
   </g>
   <g id="patch_9">
    <path d="M 508.4 374.48 
L 508.4 274.688 
" style="fill: none; stroke: #000000; stroke-width: 0.8; stroke-linejoin: miter; stroke-linecap: square"/>
   </g>
   <g id="patch_10">
    <path d="M 374.48 374.48 
L 508.4 374.48 
" style="fill: none; stroke: #000000; stroke-width: 0.8; stroke-linejoin: miter; stroke-linecap: square"/>
   </g>
   <g id="patch_11">
    <path d="M 374.48 274.688 
L 508.4 274.688 
" style="fill: none; stroke: #000000; stroke-width: 0.8; stroke-linejoin: miter; stroke-linecap: square"/>
   </g>
  </g>
 </g>
 <defs>
  <clipPath id="pdd909149b8">
   <rect x="72" y="51.84" width="446.4" height="332.64"/>
  </clipPath>
  <clipPath id="peaeb136e76">
   <rect x="374.48" y="274.688" width="133.92" height="99.792"/>
  </clipPath>
 </defs>
</svg>
