<?xml version="1.0" encoding="utf-8" standalone="no"?>
<!DOCTYPE svg PUBLIC "-//W3C//DTD SVG 1.1//EN"
  "http://www.w3.org/Graphics/SVG/1.1/DTD/svg11.dtd">
<svg xmlns:xlink="http://www.w3.org/1999/xlink" width="460.8pt" height="345.6pt" viewBox="0 0 460.8 345.6" xmlns="http://www.w3.org/2000/svg" version="1.1">
 <metadata>
  <rdf:RDF xmlns:dc="http://purl.org/dc/elements/1.1/" xmlns:cc="http://creativecommons.org/ns#" xmlns:rdf="http://www.w3.org/1999/02/22-rdf-syntax-ns#">
   <cc:Work>
    <dc:type rdf:resource="http://purl.org/dc/dcmitype/StillImage"/>
    <dc:date>2025-05-05T23:21:47.962933</dc:date>
    <dc:format>image/svg+xml</dc:format>
    <dc:creator>
     <cc:Agent>
      <dc:title>Matplotlib v3.10.1, https://matplotlib.org/</dc:title>
     </cc:Agent>
    </dc:creator>
   </cc:Work>
  </rdf:RDF>
 </metadata>
 <defs>
  <style type="text/css">*{stroke-linejoin: round; stroke-linecap: butt}</style>
 </defs>
 <g id="figure_1">
  <g id="patch_1">
   <path d="M 0 345.6 
L 460.8 345.6 
L 460.8 0 
L 0 0 
z
" style="fill: #ffffff"/>
  </g>
  <g id="axes_1">
   <g id="patch_2">
    <path d="M 57.6 307.584 
L 414.72 307.584 
L 414.72 41.472 
L 57.6 41.472 
z
" style="fill: #ffffff"/>
   </g>
   <g id="PathCollection_1">
    <defs>
     <path id="me453ddab1b" d="M 0 3 
C 0.795609 3 1.55874 2.683901 2.12132 2.12132 
C 2.683901 1.55874 3 0.795609 3 0 
C 3 -0.795609 2.683901 -1.55874 2.12132 -2.12132 
C 1.55874 -2.683901 0.795609 -3 0 -3 
C -0.795609 -3 -1.55874 -2.683901 -2.12132 -2.12132 
C -2.683901 -1.55874 -3 -0.795609 -3 0 
C -3 0.795609 -2.683901 1.55874 -2.12132 2.12132 
C -1.55874 2.683901 -0.795609 3 0 3 
z
" style="stroke: #0000ff"/>
    </defs>
    <g clip-path="url(#p471c86c40d)">
     <use xlink:href="#me453ddab1b" x="172.906659" y="135.971378" style="fill: #0000ff; stroke: #0000ff"/>
     <use xlink:href="#me453ddab1b" x="219.019722" y="108.512517" style="fill: #0000ff; stroke: #0000ff"/>
     <use xlink:href="#me453ddab1b" x="307.634884" y="247.890481" style="fill: #0000ff; stroke: #0000ff"/>
     <use xlink:href="#me453ddab1b" x="158.994123" y="93.683425" style="fill: #0000ff; stroke: #0000ff"/>
     <use xlink:href="#me453ddab1b" x="321.624398" y="142.893185" style="fill: #0000ff; stroke: #0000ff"/>
     <use xlink:href="#me453ddab1b" x="227.275474" y="189.619986" style="fill: #0000ff; stroke: #0000ff"/>
     <use xlink:href="#me453ddab1b" x="244.695475" y="134.956262" style="fill: #0000ff; stroke: #0000ff"/>
     <use xlink:href="#me453ddab1b" x="220.089059" y="165.875751" style="fill: #0000ff; stroke: #0000ff"/>
     <use xlink:href="#me453ddab1b" x="251.63686" y="273.617078" style="fill: #0000ff; stroke: #0000ff"/>
     <use xlink:href="#me453ddab1b" x="275.514354" y="111.830004" style="fill: #0000ff; stroke: #0000ff"/>
     <use xlink:href="#me453ddab1b" x="215.480641" y="145.746243" style="fill: #0000ff; stroke: #0000ff"/>
     <use xlink:href="#me453ddab1b" x="155.150733" y="194.213839" style="fill: #0000ff; stroke: #0000ff"/>
     <use xlink:href="#me453ddab1b" x="328.040516" y="197.514209" style="fill: #0000ff; stroke: #0000ff"/>
     <use xlink:href="#me453ddab1b" x="225.802564" y="129.664047" style="fill: #0000ff; stroke: #0000ff"/>
     <use xlink:href="#me453ddab1b" x="180.38862" y="157.215362" style="fill: #0000ff; stroke: #0000ff"/>
     <use xlink:href="#me453ddab1b" x="317.029879" y="215.241424" style="fill: #0000ff; stroke: #0000ff"/>
     <use xlink:href="#me453ddab1b" x="315.393441" y="280.174977" style="fill: #0000ff; stroke: #0000ff"/>
     <use xlink:href="#me453ddab1b" x="258.562982" y="150.278707" style="fill: #0000ff; stroke: #0000ff"/>
     <use xlink:href="#me453ddab1b" x="144.904197" y="59.102029" style="fill: #0000ff; stroke: #0000ff"/>
     <use xlink:href="#me453ddab1b" x="211.127089" y="84.170234" style="fill: #0000ff; stroke: #0000ff"/>
     <use xlink:href="#me453ddab1b" x="134.203168" y="222.623902" style="fill: #0000ff; stroke: #0000ff"/>
     <use xlink:href="#me453ddab1b" x="125.543248" y="122.450764" style="fill: #0000ff; stroke: #0000ff"/>
     <use xlink:href="#me453ddab1b" x="266.949159" y="188.494788" style="fill: #0000ff; stroke: #0000ff"/>
     <use xlink:href="#me453ddab1b" x="140.87392" y="170.760711" style="fill: #0000ff; stroke: #0000ff"/>
     <use xlink:href="#me453ddab1b" x="208.171903" y="183.034391" style="fill: #0000ff; stroke: #0000ff"/>
     <use xlink:href="#me453ddab1b" x="158.824141" y="152.789317" style="fill: #0000ff; stroke: #0000ff"/>
     <use xlink:href="#me453ddab1b" x="263.567324" y="295.488" style="fill: #0000ff; stroke: #0000ff"/>
     <use xlink:href="#me453ddab1b" x="231.956607" y="92.969436" style="fill: #0000ff; stroke: #0000ff"/>
     <use xlink:href="#me453ddab1b" x="228.637863" y="66.855561" style="fill: #0000ff; stroke: #0000ff"/>
     <use xlink:href="#me453ddab1b" x="337.918648" y="179.391719" style="fill: #0000ff; stroke: #0000ff"/>
     <use xlink:href="#me453ddab1b" x="206.213074" y="124.398028" style="fill: #0000ff; stroke: #0000ff"/>
     <use xlink:href="#me453ddab1b" x="237.904714" y="230.548709" style="fill: #0000ff; stroke: #0000ff"/>
     <use xlink:href="#me453ddab1b" x="222.639458" y="251.251575" style="fill: #0000ff; stroke: #0000ff"/>
     <use xlink:href="#me453ddab1b" x="177.200321" y="53.568" style="fill: #0000ff; stroke: #0000ff"/>
     <use xlink:href="#me453ddab1b" x="165.892838" y="219.742316" style="fill: #0000ff; stroke: #0000ff"/>
     <use xlink:href="#me453ddab1b" x="275.27928" y="169.991089" style="fill: #0000ff; stroke: #0000ff"/>
     <use xlink:href="#me453ddab1b" x="246.2621" y="251.306175" style="fill: #0000ff; stroke: #0000ff"/>
     <use xlink:href="#me453ddab1b" x="165.511279" y="73.592179" style="fill: #0000ff; stroke: #0000ff"/>
     <use xlink:href="#me453ddab1b" x="237.790715" y="173.354667" style="fill: #0000ff; stroke: #0000ff"/>
     <use xlink:href="#me453ddab1b" x="128.073514" y="194.115977" style="fill: #0000ff; stroke: #0000ff"/>
     <use xlink:href="#me453ddab1b" x="255.822916" y="169.873074" style="fill: #0000ff; stroke: #0000ff"/>
     <use xlink:href="#me453ddab1b" x="338.740331" y="217.693224" style="fill: #0000ff; stroke: #0000ff"/>
     <use xlink:href="#me453ddab1b" x="296.328059" y="265.605354" style="fill: #0000ff; stroke: #0000ff"/>
     <use xlink:href="#me453ddab1b" x="284.443428" y="131.39409" style="fill: #0000ff; stroke: #0000ff"/>
     <use xlink:href="#me453ddab1b" x="301.233344" y="228.464062" style="fill: #0000ff; stroke: #0000ff"/>
     <use xlink:href="#me453ddab1b" x="166.121841" y="174.358236" style="fill: #0000ff; stroke: #0000ff"/>
     <use xlink:href="#me453ddab1b" x="203.540637" y="59.980528" style="fill: #0000ff; stroke: #0000ff"/>
     <use xlink:href="#me453ddab1b" x="248.379287" y="191.849608" style="fill: #0000ff; stroke: #0000ff"/>
     <use xlink:href="#me453ddab1b" x="239.631246" y="114.826941" style="fill: #0000ff; stroke: #0000ff"/>
     <use xlink:href="#me453ddab1b" x="138.180098" y="145.35148" style="fill: #0000ff; stroke: #0000ff"/>
     <use xlink:href="#me453ddab1b" x="278.628763" y="150.526905" style="fill: #0000ff; stroke: #0000ff"/>
     <use xlink:href="#me453ddab1b" x="297.531543" y="207.51655" style="fill: #0000ff; stroke: #0000ff"/>
     <use xlink:href="#me453ddab1b" x="342.394206" y="279.362295" style="fill: #0000ff; stroke: #0000ff"/>
     <use xlink:href="#me453ddab1b" x="116.462187" y="151.622259" style="fill: #0000ff; stroke: #0000ff"/>
     <use xlink:href="#me453ddab1b" x="139.567703" y="82.135237" style="fill: #0000ff; stroke: #0000ff"/>
     <use xlink:href="#me453ddab1b" x="200.153561" y="203.760424" style="fill: #0000ff; stroke: #0000ff"/>
     <use xlink:href="#me453ddab1b" x="188.791988" y="77.710547" style="fill: #0000ff; stroke: #0000ff"/>
     <use xlink:href="#me453ddab1b" x="326.17171" y="259.321858" style="fill: #0000ff; stroke: #0000ff"/>
     <use xlink:href="#me453ddab1b" x="220.287149" y="208.151939" style="fill: #0000ff; stroke: #0000ff"/>
     <use xlink:href="#me453ddab1b" x="316.735841" y="168.556927" style="fill: #0000ff; stroke: #0000ff"/>
     <use xlink:href="#me453ddab1b" x="255.394008" y="103.936834" style="fill: #0000ff; stroke: #0000ff"/>
     <use xlink:href="#me453ddab1b" x="308.915832" y="189.204173" style="fill: #0000ff; stroke: #0000ff"/>
     <use xlink:href="#me453ddab1b" x="214.40335" y="228.477444" style="fill: #0000ff; stroke: #0000ff"/>
     <use xlink:href="#me453ddab1b" x="236.616424" y="152.78653" style="fill: #0000ff; stroke: #0000ff"/>
     <use xlink:href="#me453ddab1b" x="173.318729" y="283.483145" style="fill: #0000ff; stroke: #0000ff"/>
     <use xlink:href="#me453ddab1b" x="194.235386" y="140.580265" style="fill: #0000ff; stroke: #0000ff"/>
     <use xlink:href="#me453ddab1b" x="327.101656" y="236.460115" style="fill: #0000ff; stroke: #0000ff"/>
     <use xlink:href="#me453ddab1b" x="190.260649" y="231.002235" style="fill: #0000ff; stroke: #0000ff"/>
     <use xlink:href="#me453ddab1b" x="348.658763" y="254.405016" style="fill: #0000ff; stroke: #0000ff"/>
     <use xlink:href="#me453ddab1b" x="200.647958" y="161.243524" style="fill: #0000ff; stroke: #0000ff"/>
     <use xlink:href="#me453ddab1b" x="119.902924" y="94.555282" style="fill: #0000ff; stroke: #0000ff"/>
     <use xlink:href="#me453ddab1b" x="355.857813" y="232.135191" style="fill: #0000ff; stroke: #0000ff"/>
     <use xlink:href="#me453ddab1b" x="178.599232" y="199.876271" style="fill: #0000ff; stroke: #0000ff"/>
     <use xlink:href="#me453ddab1b" x="285.008738" y="245.132688" style="fill: #0000ff; stroke: #0000ff"/>
     <use xlink:href="#me453ddab1b" x="261.313669" y="235.104279" style="fill: #0000ff; stroke: #0000ff"/>
     <use xlink:href="#me453ddab1b" x="353.905041" y="199.803993" style="fill: #0000ff; stroke: #0000ff"/>
     <use xlink:href="#me453ddab1b" x="200.748245" y="269.273981" style="fill: #0000ff; stroke: #0000ff"/>
     <use xlink:href="#me453ddab1b" x="262.915449" y="128.49016" style="fill: #0000ff; stroke: #0000ff"/>
     <use xlink:href="#me453ddab1b" x="249.516544" y="80.559722" style="fill: #0000ff; stroke: #0000ff"/>
     <use xlink:href="#me453ddab1b" x="288.139538" y="187.696267" style="fill: #0000ff; stroke: #0000ff"/>
     <use xlink:href="#me453ddab1b" x="151.284202" y="128.648932" style="fill: #0000ff; stroke: #0000ff"/>
     <use xlink:href="#me453ddab1b" x="305.497911" y="124.990079" style="fill: #0000ff; stroke: #0000ff"/>
     <use xlink:href="#me453ddab1b" x="340.302952" y="156.783569" style="fill: #0000ff; stroke: #0000ff"/>
     <use xlink:href="#me453ddab1b" x="259.498647" y="213.358208" style="fill: #0000ff; stroke: #0000ff"/>
     <use xlink:href="#me453ddab1b" x="295.996039" y="102.575802" style="fill: #0000ff; stroke: #0000ff"/>
     <use xlink:href="#me453ddab1b" x="280.078707" y="224.919477" style="fill: #0000ff; stroke: #0000ff"/>
     <use xlink:href="#me453ddab1b" x="179.782288" y="96.750674" style="fill: #0000ff; stroke: #0000ff"/>
     <use xlink:href="#me453ddab1b" x="166.155341" y="114.188662" style="fill: #0000ff; stroke: #0000ff"/>
     <use xlink:href="#me453ddab1b" x="199.540028" y="102.025711" style="fill: #0000ff; stroke: #0000ff"/>
     <use xlink:href="#me453ddab1b" x="295.584888" y="168.895186" style="fill: #0000ff; stroke: #0000ff"/>
     <use xlink:href="#me453ddab1b" x="277.389431" y="205.165164" style="fill: #0000ff; stroke: #0000ff"/>
     <use xlink:href="#me453ddab1b" x="300.342756" y="148.700163" style="fill: #0000ff; stroke: #0000ff"/>
     <use xlink:href="#me453ddab1b" x="226.865001" y="281.109763" style="fill: #0000ff; stroke: #0000ff"/>
     <use xlink:href="#me453ddab1b" x="186.471548" y="119.076425" style="fill: #0000ff; stroke: #0000ff"/>
     <use xlink:href="#me453ddab1b" x="240.157838" y="210.020904" style="fill: #0000ff; stroke: #0000ff"/>
     <use xlink:href="#me453ddab1b" x="280.716838" y="280.041726" style="fill: #0000ff; stroke: #0000ff"/>
     <use xlink:href="#me453ddab1b" x="142.453137" y="107.22336" style="fill: #0000ff; stroke: #0000ff"/>
     <use xlink:href="#me453ddab1b" x="187.516821" y="179.631543" style="fill: #0000ff; stroke: #0000ff"/>
     <use xlink:href="#me453ddab1b" x="269.110638" y="258.400001" style="fill: #0000ff; stroke: #0000ff"/>
     <use xlink:href="#me453ddab1b" x="272.808491" y="88.109318" style="fill: #0000ff; stroke: #0000ff"/>
    </g>
   </g>
   <g id="Quiver_1">
    <path d="M 172.126356 135.237254 
L 179.062676 127.86462 
L 176.767945 127.176673 
L 186.450103 121.576016 
L 181.449764 131.581422 
L 180.623283 129.332869 
L 173.686962 136.705503 
L 172.126356 135.237254 
" clip-path="url(#p471c86c40d)" style="fill: #ff0000"/>
    <path d="M 218.24123 107.776472 
L 225.306874 100.303356 
L 223.013844 99.609759 
L 232.70977 94.032971 
L 227.684798 104.026028 
L 226.863858 101.775446 
L 219.798214 109.248562 
L 218.24123 107.776472 
" clip-path="url(#p471c86c40d)" style="fill: #ff0000"/>
    <path d="M 306.912621 247.099186 
L 314.490849 240.182075 
L 312.255027 239.321748 
L 322.334769 234.473 
L 316.588607 244.069518 
L 315.935376 241.764665 
L 308.357147 248.681776 
L 306.912621 247.099186 
" clip-path="url(#p471c86c40d)" style="fill: #ff0000"/>
    <path d="M 158.200942 92.963233 
L 165.044021 85.42663 
L 162.737467 84.779427 
L 172.318928 79.008194 
L 167.496553 89.100578 
L 166.630383 86.867014 
L 159.787304 94.403616 
L 158.200942 92.963233 
" clip-path="url(#p471c86c40d)" style="fill: #ff0000"/>
    <path d="M 320.881442 142.121285 
L 328.37855 134.905304 
L 326.12074 134.104459 
L 336.068606 128.990606 
L 330.578472 138.73586 
L 329.864461 136.449104 
L 322.367353 143.665085 
L 320.881442 142.121285 
" clip-path="url(#p471c86c40d)" style="fill: #ff0000"/>
    <path d="M 226.520449 188.859888 
L 233.659163 181.76882 
L 231.389014 181.003648 
L 241.255072 175.733692 
L 235.919165 185.564238 
L 235.169213 183.289016 
L 228.030499 190.380084 
L 226.520449 188.859888 
" clip-path="url(#p471c86c40d)" style="fill: #ff0000"/>
    <path d="M 243.926881 134.209887 
L 251.07913 126.844718 
L 248.795567 126.120563 
L 258.565097 120.673746 
L 253.407132 130.598811 
L 252.616318 128.337468 
L 245.464069 135.702637 
L 243.926881 134.209887 
" clip-path="url(#p471c86c40d)" style="fill: #ff0000"/>
    <path d="M 219.327122 165.122581 
L 226.396588 157.97082 
L 224.119544 157.226418 
L 233.93705 151.866556 
L 228.691167 161.745434 
L 227.920462 159.477159 
L 220.850996 166.62892 
L 219.327122 165.122581 
" clip-path="url(#p471c86c40d)" style="fill: #ff0000"/>
    <path d="M 250.893046 272.846005 
L 258.089995 265.903494 
L 255.831296 265.10516 
L 265.773469 259.980249 
L 260.294175 269.731601 
L 259.577622 267.445641 
L 252.380673 274.388152 
L 250.893046 272.846005 
" clip-path="url(#p471c86c40d)" style="fill: #ff0000"/>
    <path d="M 274.749727 111.079565 
L 282.057971 103.633151 
L 279.778279 102.8969 
L 289.576547 97.50195 
L 284.366039 107.399533 
L 283.587225 105.134029 
L 276.278981 112.580443 
L 274.749727 111.079565 
" clip-path="url(#p471c86c40d)" style="fill: #ff0000"/>
    <path d="M 214.711875 145.000044 
L 221.721 137.778942 
L 219.43727 137.055311 
L 229.205549 131.606249 
L 224.049864 141.5325 
L 223.258531 139.271338 
L 216.249407 146.492441 
L 214.711875 145.000044 
" clip-path="url(#p471c86c40d)" style="fill: #ff0000"/>
    <path d="M 154.384193 193.465355 
L 161.290097 186.392864 
L 159.008533 185.662435 
L 168.792998 180.242491 
L 163.607772 190.153342 
L 162.823177 187.889833 
L 155.917273 194.962324 
L 154.384193 193.465355 
" clip-path="url(#p471c86c40d)" style="fill: #ff0000"/>
    <path d="M 327.310854 196.729731 
L 334.821679 189.743736 
L 332.577877 188.904441 
L 342.611644 183.961259 
L 336.955847 193.611311 
L 336.281002 191.312693 
L 328.770178 198.298688 
L 327.310854 196.729731 
" clip-path="url(#p471c86c40d)" style="fill: #ff0000"/>
    <path d="M 225.029613 128.922186 
L 232.077259 121.579189 
L 229.789495 120.868417 
L 239.526965 115.36449 
L 234.427203 125.319587 
L 233.623162 123.062912 
L 226.575515 130.405909 
L 225.029613 128.922186 
" clip-path="url(#p471c86c40d)" style="fill: #ff0000"/>
    <path d="M 179.613885 156.475364 
L 186.55343 149.210066 
L 184.263961 148.504804 
L 193.988151 142.977449 
L 188.912372 152.944795 
L 188.1029 150.690063 
L 181.163355 157.955361 
L 179.613885 156.475364 
" clip-path="url(#p471c86c40d)" style="fill: #ff0000"/>
    <path d="M 316.306722 214.450946 
L 323.8182 207.57919 
L 321.581408 206.721389 
L 331.655665 201.861258 
L 325.920348 211.464261 
L 325.264513 209.160147 
L 317.753035 216.031903 
L 316.306722 214.450946 
" clip-path="url(#p471c86c40d)" style="fill: #ff0000"/>
    <path d="M 314.674777 279.380412 
L 322.046303 272.71306 
L 319.814409 271.842592 
L 329.916057 267.039651 
L 324.126392 276.609986 
L 323.48363 274.302191 
L 316.112105 280.969543 
L 314.674777 279.380412 
" clip-path="url(#p471c86c40d)" style="fill: #ff0000"/>
    <path d="M 257.802079 149.524493 
L 265.018915 142.24365 
L 262.742895 141.496126 
L 272.567744 136.149736 
L 267.308313 146.021409 
L 266.540721 143.752078 
L 259.323885 151.032921 
L 257.802079 149.524493 
" clip-path="url(#p471c86c40d)" style="fill: #ff0000"/>
    <path d="M 144.107355 58.38589 
L 151.053279 50.657221 
L 148.743456 50.021785 
L 158.295374 44.201784 
L 153.524507 54.31862 
L 152.646963 52.0895 
L 145.701039 59.818168 
L 144.107355 58.38589 
" clip-path="url(#p471c86c40d)" style="fill: #ff0000"/>
    <path d="M 210.343158 83.439985 
L 217.422571 75.840147 
L 215.124459 75.16358 
L 224.778745 69.515013 
L 219.828048 79.545075 
L 218.990434 77.300645 
L 211.911021 84.900483 
L 210.343158 83.439985 
" clip-path="url(#p471c86c40d)" style="fill: #ff0000"/>
    <path d="M 133.456051 221.856029 
L 140.903083 214.610298 
L 138.640977 213.821669 
L 148.561058 208.654122 
L 143.123677 218.428907 
L 142.397317 216.146044 
L 134.950284 223.391775 
L 133.456051 221.856029 
" clip-path="url(#p471c86c40d)" style="fill: #ff0000"/>
    <path d="M 124.763757 121.715778 
L 131.55748 114.510687 
L 129.263511 113.820204 
L 138.951853 108.230253 
L 133.940458 118.230126 
L 133.116462 115.980661 
L 126.322739 123.185751 
L 124.763757 121.715778 
" clip-path="url(#p471c86c40d)" style="fill: #ff0000"/>
    <path d="M 266.204881 187.724163 
L 273.490135 180.687998 
L 271.230955 179.891024 
L 281.170042 174.760128 
L 275.696618 184.514777 
L 274.978689 182.229249 
L 267.693436 189.265414 
L 266.204881 187.724163 
" clip-path="url(#p471c86c40d)" style="fill: #ff0000"/>
    <path d="M 140.10046 170.01938 
L 147.110644 162.705382 
L 144.822393 161.996179 
L 154.556085 156.485574 
L 149.463152 166.444166 
L 148.657564 164.188044 
L 141.64738 171.502043 
L 140.10046 170.01938 
" clip-path="url(#p471c86c40d)" style="fill: #ff0000"/>
    <path d="M 207.414571 182.276592 
L 214.450278 175.245225 
L 212.177814 174.486958 
L 222.027807 169.187035 
L 216.721807 179.033755 
L 215.964942 176.760824 
L 208.929235 183.792191 
L 207.414571 182.276592 
" clip-path="url(#p471c86c40d)" style="fill: #ff0000"/>
    <path d="M 158.048739 152.050017 
L 164.977614 144.78279 
L 162.687511 144.079591 
L 172.406716 138.543475 
L 167.339921 148.515392 
L 166.528417 146.26139 
L 159.599542 153.528617 
L 158.048739 152.050017 
" clip-path="url(#p471c86c40d)" style="fill: #ff0000"/>
    <path d="M 262.814894 294.725332 
L 269.868891 287.766029 
L 267.601364 286.993123 
L 277.485329 281.75683 
L 272.115941 291.569129 
L 271.37375 289.291364 
L 264.319753 296.250668 
L 262.814894 294.725332 
" clip-path="url(#p471c86c40d)" style="fill: #ff0000"/>
    <path d="M 231.180192 92.231201 
L 238.353541 84.686865 
L 236.062475 83.986809 
L 245.774076 78.437364 
L 240.720966 88.416222 
L 239.906371 86.163336 
L 232.733022 93.707672 
L 231.180192 92.231201 
" clip-path="url(#p471c86c40d)" style="fill: #ff0000"/>
    <path d="M 227.857085 66.121941 
L 234.910907 58.614685 
L 232.615731 57.928224 
L 242.294262 52.321302 
L 237.3004 62.329942 
L 236.472463 60.081925 
L 229.418641 67.58918 
L 227.857085 66.121941 
" clip-path="url(#p471c86c40d)" style="fill: #ff0000"/>
    <path d="M 337.192738 178.603768 
L 344.885139 171.517035 
L 342.645367 170.667045 
L 352.702604 165.771791 
L 347.00083 175.394748 
L 346.33696 173.092936 
L 338.644559 180.179669 
L 337.192738 178.603768 
" clip-path="url(#p471c86c40d)" style="fill: #ff0000"/>
    <path d="M 205.435687 123.660816 
L 212.437841 116.277085 
L 210.145855 115.580046 
L 219.850141 110.017819 
L 214.810174 120.003322 
L 213.992614 117.75151 
L 206.990461 125.135241 
L 205.435687 123.660816 
" clip-path="url(#p471c86c40d)" style="fill: #ff0000"/>
    <path d="M 237.162745 229.775861 
L 244.439803 222.789545 
L 242.183016 221.98582 
L 252.1374 216.884665 
L 246.634834 226.622905 
L 245.923742 224.33524 
L 238.646684 231.321556 
L 237.162745 229.775861 
" clip-path="url(#p471c86c40d)" style="fill: #ff0000"/>
    <path d="M 221.895226 250.480906 
L 229.036499 243.584601 
L 226.777365 242.787496 
L 236.71675 237.657178 
L 231.24276 247.411509 
L 230.524964 245.125939 
L 223.383691 252.022244 
L 221.895226 250.480906 
" clip-path="url(#p471c86c40d)" style="fill: #ff0000"/>
    <path d="M 176.406351 52.848678 
L 183.364489 45.168454 
L 181.057227 44.52378 
L 190.632356 38.742046 
L 185.821047 48.839711 
L 184.952429 46.607097 
L 177.994291 54.287322 
L 176.406351 52.848678 
" clip-path="url(#p471c86c40d)" style="fill: #ff0000"/>
    <path d="M 165.124805 218.995364 
L 172.100392 211.822904 
L 169.817374 211.097033 
L 179.590992 205.657556 
L 174.425573 215.578744 
L 173.636459 213.316807 
L 166.660872 220.489268 
L 165.124805 218.995364 
" clip-path="url(#p471c86c40d)" style="fill: #ff0000"/>
    <path d="M 274.535647 169.219842 
L 281.960935 162.060408 
L 279.702422 161.261547 
L 289.645791 156.138955 
L 284.164222 165.889029 
L 283.448202 163.602901 
L 276.022914 170.762336 
L 274.535647 169.219842 
" clip-path="url(#p471c86c40d)" style="fill: #ff0000"/>
    <path d="M 245.520508 250.532966 
L 252.707774 243.639585 
L 250.451379 242.83476 
L 260.408249 237.738459 
L 254.900936 247.474015 
L 254.19096 245.186004 
L 247.003693 252.079384 
L 245.520508 250.532966 
" clip-path="url(#p471c86c40d)" style="fill: #ff0000"/>
    <path d="M 164.71856 72.871479 
L 171.633189 65.265875 
L 169.327051 64.617194 
L 178.912209 58.852103 
L 174.083366 68.941395 
L 173.218628 66.707275 
L 166.303998 74.312879 
L 164.71856 72.871479 
" clip-path="url(#p471c86c40d)" style="fill: #ff0000"/>
    <path d="M 237.032802 172.597449 
L 244.250614 165.37301 
L 241.977569 164.616487 
L 251.823492 159.309007 
L 246.52505 169.159796 
L 245.766441 166.887446 
L 238.548629 174.111886 
L 237.032802 172.597449 
" clip-path="url(#p471c86c40d)" style="fill: #ff0000"/>
    <path d="M 127.318155 193.356211 
L 134.580523 186.13596 
L 132.310038 185.371788 
L 142.173775 180.097489 
L 136.842196 189.930383 
L 136.091242 187.655492 
L 128.828874 194.875743 
L 127.318155 193.356211 
" clip-path="url(#p471c86c40d)" style="fill: #ff0000"/>
    <path d="M 255.072899 169.108033 
L 262.411622 161.913432 
L 260.146548 161.133367 
L 270.047005 155.928324 
L 264.646647 165.723612 
L 263.911655 163.443514 
L 256.572932 170.638114 
L 255.072899 169.108033 
" clip-path="url(#p471c86c40d)" style="fill: #ff0000"/>
    <path d="M 338.017021 216.902886 
L 345.641879 209.924694 
L 343.404921 209.067326 
L 353.478236 204.205244 
L 347.74478 213.809358 
L 347.088499 211.505371 
L 339.463641 218.483563 
L 338.017021 216.902886 
" clip-path="url(#p471c86c40d)" style="fill: #ff0000"/>
    <path d="M 295.60325 264.81639 
L 303.106824 257.922966 
L 300.868242 257.069848 
L 310.932307 252.188646 
L 305.217098 261.80363 
L 304.556443 259.500894 
L 297.052868 266.394317 
L 295.60325 264.81639 
" clip-path="url(#p471c86c40d)" style="fill: #ff0000"/>
    <path d="M 283.685766 130.636619 
L 291.067958 123.252572 
L 288.795165 122.495292 
L 298.642856 117.191093 
L 293.341132 127.040117 
L 292.58328 124.767514 
L 285.201089 132.151561 
L 283.685766 130.636619 
" clip-path="url(#p471c86c40d)" style="fill: #ff0000"/>
    <path d="M 300.504206 227.679097 
L 307.920645 220.790121 
L 305.677405 219.949328 
L 315.71447 215.012846 
L 310.052231 224.659119 
L 309.378921 222.360051 
L 301.962482 229.249027 
L 300.504206 227.679097 
" clip-path="url(#p471c86c40d)" style="fill: #ff0000"/>
    <path d="M 165.352304 173.612833 
L 172.287848 166.452741 
L 170.003371 165.731471 
L 179.766012 160.272315 
L 174.620591 170.20389 
L 173.826921 167.943547 
L 166.891378 175.103639 
L 165.352304 173.612833 
" clip-path="url(#p471c86c40d)" style="fill: #ff0000"/>
    <path d="M 202.750315 59.257201 
L 209.786899 51.568885 
L 207.482926 50.912552 
L 217.087168 45.17931 
L 212.224861 55.252517 
L 211.367544 53.01554 
L 204.33096 60.703856 
L 202.750315 59.257201 
" clip-path="url(#p471c86c40d)" style="fill: #ff0000"/>
    <path d="M 247.626518 191.087276 
L 254.832239 183.971951 
L 252.564368 183.200055 
L 262.446001 177.959363 
L 257.080983 187.774051 
L 256.337777 185.496617 
L 249.132056 192.611941 
L 247.626518 191.087276 
" clip-path="url(#p471c86c40d)" style="fill: #ff0000"/>
    <path d="M 238.85816 114.085219 
L 245.997852 106.643625 
L 243.709959 105.933268 
L 253.446432 100.427578 
L 248.348472 110.383598 
L 247.544023 108.127069 
L 240.404331 115.568663 
L 238.85816 114.085219 
" clip-path="url(#p471c86c40d)" style="fill: #ff0000"/>
    <path d="M 137.402778 144.614198 
L 144.295648 137.347016 
L 142.003725 136.649771 
L 151.708511 131.088417 
L 146.667646 141.073467 
L 145.850288 138.821581 
L 138.957418 146.088763 
L 137.402778 144.614198 
" clip-path="url(#p471c86c40d)" style="fill: #ff0000"/>
    <path d="M 277.874337 149.766212 
L 285.174173 142.526517 
L 282.904628 141.759557 
L 292.774835 136.497376 
L 287.431183 146.323714 
L 286.683025 144.047902 
L 279.383189 151.287598 
L 277.874337 149.766212 
" clip-path="url(#p471c86c40d)" style="fill: #ff0000"/>
    <path d="M 296.799515 206.734279 
L 304.290752 199.724175 
L 302.044425 198.891662 
L 312.063214 193.918191 
L 306.436595 203.585284 
L 305.754809 201.288715 
L 298.263571 208.29882 
L 296.799515 206.734279 
" clip-path="url(#p471c86c40d)" style="fill: #ff0000"/>
    <path d="M 341.678288 278.565255 
L 349.22544 271.786243 
L 346.996563 270.908081 
L 357.11472 266.140018 
L 351.292073 275.690322 
L 350.657277 273.380323 
L 343.110125 280.159335 
L 341.678288 278.565255 
" clip-path="url(#p471c86c40d)" style="fill: #ff0000"/>
    <path d="M 115.681373 150.888678 
L 122.523237 143.606293 
L 120.228028 142.919944 
L 129.906285 137.31255 
L 124.912912 147.321433 
L 124.084865 145.073456 
L 117.243001 152.355841 
L 115.681373 150.888678 
" clip-path="url(#p471c86c40d)" style="fill: #ff0000"/>
    <path d="M 138.769736 81.420352 
L 145.604988 73.790723 
L 143.294169 73.15892 
L 152.836921 67.323903 
L 148.081972 77.44823 
L 147.200923 75.220493 
L 140.36567 82.850122 
L 138.769736 81.420352 
" clip-path="url(#p471c86c40d)" style="fill: #ff0000"/>
    <path d="M 199.394871 203.003984 
L 206.312873 196.065417 
L 204.039053 195.311225 
L 213.879528 189.993652 
L 208.59119 199.849869 
L 207.830251 197.578298 
L 200.91225 204.516865 
L 199.394871 203.003984 
" clip-path="url(#p471c86c40d)" style="fill: #ff0000"/>
    <path d="M 188.0034 76.985328 
L 194.970175 69.409795 
L 192.667781 68.747946 
L 202.285727 63.037722 
L 197.399309 73.099255 
L 196.547351 70.860231 
L 189.580576 78.435765 
L 188.0034 76.985328 
" clip-path="url(#p471c86c40d)" style="fill: #ff0000"/>
    <path d="M 325.456077 258.524562 
L 332.9748 251.775947 
L 330.746237 250.896987 
L 340.8661 246.132546 
L 335.040035 255.680766 
L 334.406066 253.37054 
L 326.887343 260.119155 
L 325.456077 258.524562 
" clip-path="url(#p471c86c40d)" style="fill: #ff0000"/>
    <path d="M 219.532205 207.39176 
L 226.547537 200.424747 
L 224.277471 199.659332 
L 234.144095 194.390436 
L 228.807132 204.220408 
L 228.057424 201.945106 
L 221.042092 208.912118 
L 219.532205 207.39176 
" clip-path="url(#p471c86c40d)" style="fill: #ff0000"/>
    <path d="M 315.999621 167.778601 
L 323.660265 160.532385 
L 321.409498 159.711953 
L 331.401423 154.684729 
L 325.82682 164.381911 
L 325.132706 162.089038 
L 317.472062 169.335254 
L 315.999621 167.778601 
" clip-path="url(#p471c86c40d)" style="fill: #ff0000"/>
    <path d="M 254.623298 103.192644 
L 261.876342 95.681132 
L 259.590733 94.963462 
L 269.344762 89.488934 
L 264.214991 99.428602 
L 263.417762 97.169512 
L 256.164718 104.681024 
L 254.623298 103.192644 
" clip-path="url(#p471c86c40d)" style="fill: #ff0000"/>
    <path d="M 308.179846 188.425626 
L 315.713783 181.303539 
L 313.463262 180.482432 
L 323.456693 175.458203 
L 317.879184 185.153714 
L 317.185757 182.860633 
L 309.651819 189.98272 
L 308.179846 188.425626 
" clip-path="url(#p471c86c40d)" style="fill: #ff0000"/>
    <path d="M 213.660473 227.705469 
L 220.795113 220.83975 
L 218.537384 220.038678 
L 228.485766 214.925829 
L 222.994648 224.670528 
L 222.280868 222.3837 
L 215.146227 229.249419 
L 213.660473 227.705469 
" clip-path="url(#p471c86c40d)" style="fill: #ff0000"/>
    <path d="M 235.851962 152.035924 
L 242.984392 144.771832 
L 240.704861 144.035082 
L 250.504311 138.642279 
L 245.291634 148.53872 
L 244.513316 146.273045 
L 237.380886 153.537137 
L 235.851962 152.035924 
" clip-path="url(#p471c86c40d)" style="fill: #ff0000"/>
    <path d="M 172.564912 282.721848 
L 179.879416 275.479212 
L 177.610486 274.710435 
L 187.484903 269.456158 
L 182.133386 279.278215 
L 181.38705 277.001805 
L 174.072545 284.244442 
L 172.564912 282.721848 
" clip-path="url(#p471c86c40d)" style="fill: #ff0000"/>
    <path d="M 193.46233 139.838513 
L 200.439751 132.566622 
L 198.151886 131.856175 
L 207.888576 126.350867 
L 202.790224 136.306687 
L 201.985864 134.050126 
L 195.008442 141.322017 
L 193.46233 139.838513 
" clip-path="url(#p471c86c40d)" style="fill: #ff0000"/>
    <path d="M 326.38492 235.66381 
L 334.01402 228.797032 
L 331.784243 227.921158 
L 341.897502 223.142714 
L 336.084659 232.698988 
L 335.447492 230.389642 
L 327.818392 237.25642 
L 326.38492 235.66381 
" clip-path="url(#p471c86c40d)" style="fill: #ff0000"/>
    <path d="M 189.491416 230.256519 
L 196.598074 222.925748 
L 194.313891 222.203548 
L 204.078753 216.748367 
L 198.929289 226.677846 
L 198.13654 224.41718 
L 191.029882 231.747952 
L 189.491416 230.256519 
" clip-path="url(#p471c86c40d)" style="fill: #ff0000"/>
    <path d="M 347.940971 253.609662 
L 355.576563 246.718682 
L 353.345626 245.845767 
L 363.452536 241.053909 
L 357.652376 250.617888 
L 357.012146 248.309389 
L 349.376555 255.200369 
L 347.940971 253.609662 
" clip-path="url(#p471c86c40d)" style="fill: #ff0000"/>
    <path d="M 199.881504 160.494952 
L 206.838303 153.371975 
L 204.556823 152.641284 
L 214.34191 147.222464 
L 209.155545 157.132719 
L 208.37121 154.869121 
L 201.414411 161.992097 
L 199.881504 160.494952 
" clip-path="url(#p471c86c40d)" style="fill: #ff0000"/>
    <path d="M 119.121914 93.821909 
L 125.932479 86.568972 
L 123.637087 85.883234 
L 133.313851 80.273264 
L 128.323141 90.283476 
L 127.494497 88.03572 
L 120.683933 95.288656 
L 119.121914 93.821909 
" clip-path="url(#p471c86c40d)" style="fill: #ff0000"/>
    <path d="M 355.13917 231.340606 
L 362.871289 224.347479 
L 360.639419 223.476953 
L 370.741194 218.674279 
L 364.951276 228.244461 
L 364.308575 225.936648 
L 356.576455 232.929776 
L 355.13917 231.340606 
" clip-path="url(#p471c86c40d)" style="fill: #ff0000"/>
    <path d="M 177.82847 199.132135 
L 184.829044 191.88107 
L 182.543384 191.16356 
L 192.297028 185.688347 
L 187.167957 195.628375 
L 186.370568 193.369341 
L 179.369994 200.620407 
L 177.82847 199.132135 
" clip-path="url(#p471c86c40d)" style="fill: #ff0000"/>
    <path d="M 284.28061 244.346785 
L 291.73857 237.437098 
L 289.496413 236.59342 
L 299.539822 231.669857 
L 293.865176 241.308836 
L 293.194824 239.008904 
L 285.736865 245.918591 
L 284.28061 244.346785 
" clip-path="url(#p471c86c40d)" style="fill: #ff0000"/>
    <path d="M 260.579485 234.324032 
L 267.922715 227.41431 
L 265.674098 226.588002 
L 275.67912 221.586894 
L 270.079207 231.269482 
L 269.391084 228.974804 
L 262.047854 235.884525 
L 260.579485 234.324032 
" clip-path="url(#p471c86c40d)" style="fill: #ff0000"/>
    <path d="M 353.181573 199.013799 
L 360.854333 191.988946 
L 358.617203 191.132026 
L 368.689546 186.267928 
L 362.958011 195.873189 
L 362.301269 193.569333 
L 354.628509 200.594187 
L 353.181573 199.013799 
" clip-path="url(#p471c86c40d)" style="fill: #ff0000"/>
    <path d="M 199.963094 268.545044 
L 206.982459 260.984367 
L 204.68322 260.311643 
L 214.328049 254.646946 
L 209.394126 264.685269 
L 208.552761 262.442243 
L 201.533396 270.002919 
L 199.963094 268.545044 
" clip-path="url(#p471c86c40d)" style="fill: #ff0000"/>
    <path d="M 262.152633 127.737882 
L 269.415614 120.37316 
L 267.137703 119.63142 
L 276.948939 114.26009 
L 271.714602 124.145092 
L 270.941248 121.877718 
L 263.678266 129.242439 
L 262.152633 127.737882 
" clip-path="url(#p471c86c40d)" style="fill: #ff0000"/>
    <path d="M 248.741736 79.819801 
L 256.04546 72.171717 
L 253.755921 71.466681 
L 263.479565 65.938365 
L 258.40477 75.906213 
L 257.595076 73.651561 
L 250.291353 81.299644 
L 248.741736 79.819801 
" clip-path="url(#p471c86c40d)" style="fill: #ff0000"/>
    <path d="M 287.400202 186.920899 
L 294.812914 179.852667 
L 292.558875 179.041266 
L 302.53056 173.974016 
L 296.994887 183.693474 
L 296.291584 181.403402 
L 288.878873 188.471635 
L 287.400202 186.920899 
" clip-path="url(#p471c86c40d)" style="fill: #ff0000"/>
    <path d="M 150.501505 127.917359 
L 157.382537 120.555469 
L 155.085571 119.87502 
L 164.749388 114.242775 
L 159.781749 124.264456 
L 158.947929 122.018614 
L 152.066898 129.380505 
L 150.501505 127.917359 
" clip-path="url(#p471c86c40d)" style="fill: #ff0000"/>
    <path d="M 304.74922 124.223741 
L 312.268915 116.877209 
L 310.005195 116.093224 
L 319.914649 110.905328 
L 314.497341 120.691252 
L 313.766297 118.409885 
L 306.246602 125.756417 
L 304.74922 124.223741 
" clip-path="url(#p471c86c40d)" style="fill: #ff0000"/>
    <path d="M 339.566268 156.005682 
L 347.148211 148.82535 
L 344.896956 148.006258 
L 354.885886 142.973086 
L 349.317058 152.673585 
L 348.621578 150.381126 
L 341.039636 157.561457 
L 339.566268 156.005682 
" clip-path="url(#p471c86c40d)" style="fill: #ff0000"/>
    <path d="M 258.754739 212.587226 
L 265.991521 205.604588 
L 263.732724 204.80653 
L 273.674273 199.680407 
L 268.196167 209.432427 
L 267.479335 207.146554 
L 260.242554 214.129191 
L 258.754739 212.587226 
" clip-path="url(#p471c86c40d)" style="fill: #ff0000"/>
    <path d="M 295.240386 101.816327 
L 302.661649 94.432416 
L 300.39087 93.669119 
L 310.252574 88.391021 
L 304.924783 98.225968 
L 304.172954 95.951366 
L 296.751691 103.335276 
L 295.240386 101.816327 
" clip-path="url(#p471c86c40d)" style="fill: #ff0000"/>
    <path d="M 279.34345 224.140241 
L 286.738878 217.162201 
L 284.489127 216.338986 
L 294.487261 211.324123 
L 288.90067 221.014404 
L 288.209392 218.720674 
L 280.813965 225.698714 
L 279.34345 224.140241 
" clip-path="url(#p471c86c40d)" style="fill: #ff0000"/>
    <path d="M 178.994946 96.024104 
L 185.901749 88.5396 
L 183.600494 87.873802 
L 193.228224 82.180091 
L 188.324548 92.233224 
L 187.476433 89.992741 
L 180.56963 97.477244 
L 178.994946 96.024104 
" clip-path="url(#p471c86c40d)" style="fill: #ff0000"/>
    <path d="M 165.3682 113.461874 
L 172.264748 105.992633 
L 169.963678 105.326198 
L 179.592984 99.635152 
L 174.686525 109.686928 
L 173.839031 107.44621 
L 166.942482 114.915451 
L 165.3682 113.461874 
" clip-path="url(#p471c86c40d)" style="fill: #ff0000"/>
    <path d="M 198.756437 101.295096 
L 205.762845 93.780654 
L 203.465048 93.103016 
L 213.121964 87.458948 
L 208.166595 97.486702 
L 207.330027 95.241882 
L 200.323619 102.756325 
L 198.756437 101.295096 
" clip-path="url(#p471c86c40d)" style="fill: #ff0000"/>
    <path d="M 294.845474 168.119894 
L 302.37684 160.937055 
L 300.122718 160.125884 
L 310.093887 155.057617 
L 304.559205 164.77764 
L 303.855669 162.48764 
L 296.324302 169.670479 
L 294.845474 168.119894 
" clip-path="url(#p471c86c40d)" style="fill: #ff0000"/>
    <path d="M 276.65101 204.388926 
L 284.027459 197.371841 
L 281.774377 196.557786 
L 291.752024 191.502284 
L 286.204907 201.215215 
L 285.504302 198.924317 
L 278.127853 205.941402 
L 276.65101 204.388926 
" clip-path="url(#p471c86c40d)" style="fill: #ff0000"/>
    <path d="M 299.591786 147.936059 
L 306.9687 140.685948 
L 304.702655 139.908709 
L 314.596612 134.69132 
L 309.208476 144.493337 
L 308.47064 142.214157 
L 301.093726 149.464268 
L 299.591786 147.936059 
" clip-path="url(#p471c86c40d)" style="fill: #ff0000"/>
    <path d="M 226.084626 280.375714 
L 233.13488 272.880512 
L 230.840081 272.19279 
L 240.521691 266.591185 
L 235.522331 276.597081 
L 234.69563 274.348609 
L 227.645376 281.843811 
L 226.084626 280.375714 
" clip-path="url(#p471c86c40d)" style="fill: #ff0000"/>
    <path d="M 185.690408 118.343191 
L 192.636193 110.94361 
L 190.340679 110.258281 
L 200.016444 104.646587 
L 195.027518 114.657688 
L 194.198473 112.410079 
L 187.252688 119.80966 
L 185.690408 118.343191 
" clip-path="url(#p471c86c40d)" style="fill: #ff0000"/>
    <path d="M 239.406208 209.257448 
L 246.547896 202.226377 
L 244.28118 201.451097 
L 254.170625 196.22516 
L 248.790962 206.031829 
L 248.051157 203.753288 
L 240.909469 210.784359 
L 239.406208 209.257448 
" clip-path="url(#p471c86c40d)" style="fill: #ff0000"/>
    <path d="M 279.993574 279.251346 
L 287.441557 272.435809 
L 285.204647 271.578314 
L 295.27824 266.716806 
L 289.544236 276.320593 
L 288.888086 274.016568 
L 281.440103 280.832106 
L 279.993574 279.251346 
" clip-path="url(#p471c86c40d)" style="fill: #ff0000"/>
    <path d="M 141.66514 106.4975 
L 148.49118 99.087124 
L 146.189326 98.4234 
L 155.81192 92.721013 
L 150.917307 102.778562 
L 150.067174 100.538845 
L 143.241134 107.949221 
L 141.66514 106.4975 
" clip-path="url(#p471c86c40d)" style="fill: #ff0000"/>
    <path d="M 186.749489 178.883871 
L 193.801724 171.646196 
L 191.519388 170.918184 
L 201.298105 165.487878 
L 196.123381 175.404216 
L 195.336389 173.14154 
L 188.284153 180.379215 
L 186.749489 178.883871 
" clip-path="url(#p471c86c40d)" style="fill: #ff0000"/>
    <path d="M 268.379638 257.616769 
L 275.733498 250.753326 
L 273.488267 249.917862 
L 283.513584 244.957564 
L 277.874264 254.617253 
L 277.195497 252.31979 
L 269.841637 259.183232 
L 268.379638 257.616769 
" clip-path="url(#p471c86c40d)" style="fill: #ff0000"/>
    <path d="M 272.042815 87.35995 
L 279.415065 79.827276 
L 277.134345 79.094214 
L 286.925059 73.685566 
L 281.728398 83.590426 
L 280.946416 81.326013 
L 273.574166 88.858687 
L 272.042815 87.35995 
" clip-path="url(#p471c86c40d)" style="fill: #ff0000"/>
   </g>
   <g id="matplotlib.axis_1">
    <g id="xtick_1">
     <g id="line2d_1">
      <defs>
       <path id="mda59b66cd5" d="M 0 0 
L 0 3.5 
" style="stroke: #000000; stroke-width: 0.8"/>
      </defs>
      <g>
       <use xlink:href="#mda59b66cd5" x="84.193215" y="307.584" style="stroke: #000000; stroke-width: 0.8"/>
      </g>
     </g>
     <g id="text_1">
      <!-- 10 -->
      <g transform="translate(76.558215 323.702125) scale(0.12 -0.12)">
       <defs>
        <path id="DejaVuSans-31" d="M 794 531 
L 1825 531 
L 1825 4091 
L 703 3866 
L 703 4441 
L 1819 4666 
L 2450 4666 
L 2450 531 
L 3481 531 
L 3481 0 
L 794 0 
L 794 531 
z
" transform="scale(0.015625)"/>
        <path id="DejaVuSans-30" d="M 2034 4250 
Q 1547 4250 1301 3770 
Q 1056 3291 1056 2328 
Q 1056 1369 1301 889 
Q 1547 409 2034 409 
Q 2525 409 2770 889 
Q 3016 1369 3016 2328 
Q 3016 3291 2770 3770 
Q 2525 4250 2034 4250 
z
M 2034 4750 
Q 2819 4750 3233 4129 
Q 3647 3509 3647 2328 
Q 3647 1150 3233 529 
Q 2819 -91 2034 -91 
Q 1250 -91 836 529 
Q 422 1150 422 2328 
Q 422 3509 836 4129 
Q 1250 4750 2034 4750 
z
" transform="scale(0.015625)"/>
       </defs>
       <use xlink:href="#DejaVuSans-31"/>
       <use xlink:href="#DejaVuSans-30" transform="translate(63.623047 0)"/>
      </g>
     </g>
    </g>
    <g id="xtick_2">
     <g id="line2d_2">
      <g>
       <use xlink:href="#mda59b66cd5" x="157.430044" y="307.584" style="stroke: #000000; stroke-width: 0.8"/>
      </g>
     </g>
     <g id="text_2">
      <!-- 20 -->
      <g transform="translate(149.795044 323.702125) scale(0.12 -0.12)">
       <defs>
        <path id="DejaVuSans-32" d="M 1228 531 
L 3431 531 
L 3431 0 
L 469 0 
L 469 531 
Q 828 903 1448 1529 
Q 2069 2156 2228 2338 
Q 2531 2678 2651 2914 
Q 2772 3150 2772 3378 
Q 2772 3750 2511 3984 
Q 2250 4219 1831 4219 
Q 1534 4219 1204 4116 
Q 875 4013 500 3803 
L 500 4441 
Q 881 4594 1212 4672 
Q 1544 4750 1819 4750 
Q 2544 4750 2975 4387 
Q 3406 4025 3406 3419 
Q 3406 3131 3298 2873 
Q 3191 2616 2906 2266 
Q 2828 2175 2409 1742 
Q 1991 1309 1228 531 
z
" transform="scale(0.015625)"/>
       </defs>
       <use xlink:href="#DejaVuSans-32"/>
       <use xlink:href="#DejaVuSans-30" transform="translate(63.623047 0)"/>
      </g>
     </g>
    </g>
    <g id="xtick_3">
     <g id="line2d_3">
      <g>
       <use xlink:href="#mda59b66cd5" x="230.666873" y="307.584" style="stroke: #000000; stroke-width: 0.8"/>
      </g>
     </g>
     <g id="text_3">
      <!-- 30 -->
      <g transform="translate(223.031873 323.702125) scale(0.12 -0.12)">
       <defs>
        <path id="DejaVuSans-33" d="M 2597 2516 
Q 3050 2419 3304 2112 
Q 3559 1806 3559 1356 
Q 3559 666 3084 287 
Q 2609 -91 1734 -91 
Q 1441 -91 1130 -33 
Q 819 25 488 141 
L 488 750 
Q 750 597 1062 519 
Q 1375 441 1716 441 
Q 2309 441 2620 675 
Q 2931 909 2931 1356 
Q 2931 1769 2642 2001 
Q 2353 2234 1838 2234 
L 1294 2234 
L 1294 2753 
L 1863 2753 
Q 2328 2753 2575 2939 
Q 2822 3125 2822 3475 
Q 2822 3834 2567 4026 
Q 2313 4219 1838 4219 
Q 1578 4219 1281 4162 
Q 984 4106 628 3988 
L 628 4550 
Q 988 4650 1302 4700 
Q 1616 4750 1894 4750 
Q 2613 4750 3031 4423 
Q 3450 4097 3450 3541 
Q 3450 3153 3228 2886 
Q 3006 2619 2597 2516 
z
" transform="scale(0.015625)"/>
       </defs>
       <use xlink:href="#DejaVuSans-33"/>
       <use xlink:href="#DejaVuSans-30" transform="translate(63.623047 0)"/>
      </g>
     </g>
    </g>
    <g id="xtick_4">
     <g id="line2d_4">
      <g>
       <use xlink:href="#mda59b66cd5" x="303.903702" y="307.584" style="stroke: #000000; stroke-width: 0.8"/>
      </g>
     </g>
     <g id="text_4">
      <!-- 40 -->
      <g transform="translate(296.268702 323.702125) scale(0.12 -0.12)">
       <defs>
        <path id="DejaVuSans-34" d="M 2419 4116 
L 825 1625 
L 2419 1625 
L 2419 4116 
z
M 2253 4666 
L 3047 4666 
L 3047 1625 
L 3713 1625 
L 3713 1100 
L 3047 1100 
L 3047 0 
L 2419 0 
L 2419 1100 
L 313 1100 
L 313 1709 
L 2253 4666 
z
" transform="scale(0.015625)"/>
       </defs>
       <use xlink:href="#DejaVuSans-34"/>
       <use xlink:href="#DejaVuSans-30" transform="translate(63.623047 0)"/>
      </g>
     </g>
    </g>
    <g id="xtick_5">
     <g id="line2d_5">
      <g>
       <use xlink:href="#mda59b66cd5" x="377.140531" y="307.584" style="stroke: #000000; stroke-width: 0.8"/>
      </g>
     </g>
     <g id="text_5">
      <!-- 50 -->
      <g transform="translate(369.505531 323.702125) scale(0.12 -0.12)">
       <defs>
        <path id="DejaVuSans-35" d="M 691 4666 
L 3169 4666 
L 3169 4134 
L 1269 4134 
L 1269 2991 
Q 1406 3038 1543 3061 
Q 1681 3084 1819 3084 
Q 2600 3084 3056 2656 
Q 3513 2228 3513 1497 
Q 3513 744 3044 326 
Q 2575 -91 1722 -91 
Q 1428 -91 1123 -41 
Q 819 9 494 109 
L 494 744 
Q 775 591 1075 516 
Q 1375 441 1709 441 
Q 2250 441 2565 725 
Q 2881 1009 2881 1497 
Q 2881 1984 2565 2268 
Q 2250 2553 1709 2553 
Q 1456 2553 1204 2497 
Q 953 2441 691 2322 
L 691 4666 
z
" transform="scale(0.015625)"/>
       </defs>
       <use xlink:href="#DejaVuSans-35"/>
       <use xlink:href="#DejaVuSans-30" transform="translate(63.623047 0)"/>
      </g>
     </g>
    </g>
    <g id="text_6">
     <!-- x -->
     <g transform="translate(232.016875 340.835562) scale(0.14 -0.14)">
      <defs>
       <path id="DejaVuSans-78" d="M 3513 3500 
L 2247 1797 
L 3578 0 
L 2900 0 
L 1881 1375 
L 863 0 
L 184 0 
L 1544 1831 
L 300 3500 
L 978 3500 
L 1906 2253 
L 2834 3500 
L 3513 3500 
z
" transform="scale(0.015625)"/>
      </defs>
      <use xlink:href="#DejaVuSans-78"/>
     </g>
    </g>
   </g>
   <g id="matplotlib.axis_2">
    <g id="ytick_1">
     <g id="line2d_6">
      <defs>
       <path id="m493336b821" d="M 0 0 
L -3.5 0 
" style="stroke: #000000; stroke-width: 0.8"/>
      </defs>
      <g>
       <use xlink:href="#m493336b821" x="57.6" y="289.766467" style="stroke: #000000; stroke-width: 0.8"/>
      </g>
     </g>
     <g id="text_7">
      <!-- 15 -->
      <g transform="translate(35.33 294.32553) scale(0.12 -0.12)">
       <use xlink:href="#DejaVuSans-31"/>
       <use xlink:href="#DejaVuSans-35" transform="translate(63.623047 0)"/>
      </g>
     </g>
    </g>
    <g id="ytick_2">
     <g id="line2d_7">
      <g>
       <use xlink:href="#m493336b821" x="57.6" y="253.148053" style="stroke: #000000; stroke-width: 0.8"/>
      </g>
     </g>
     <g id="text_8">
      <!-- 20 -->
      <g transform="translate(35.33 257.707115) scale(0.12 -0.12)">
       <use xlink:href="#DejaVuSans-32"/>
       <use xlink:href="#DejaVuSans-30" transform="translate(63.623047 0)"/>
      </g>
     </g>
    </g>
    <g id="ytick_3">
     <g id="line2d_8">
      <g>
       <use xlink:href="#m493336b821" x="57.6" y="216.529638" style="stroke: #000000; stroke-width: 0.8"/>
      </g>
     </g>
     <g id="text_9">
      <!-- 25 -->
      <g transform="translate(35.33 221.088701) scale(0.12 -0.12)">
       <use xlink:href="#DejaVuSans-32"/>
       <use xlink:href="#DejaVuSans-35" transform="translate(63.623047 0)"/>
      </g>
     </g>
    </g>
    <g id="ytick_4">
     <g id="line2d_9">
      <g>
       <use xlink:href="#m493336b821" x="57.6" y="179.911224" style="stroke: #000000; stroke-width: 0.8"/>
      </g>
     </g>
     <g id="text_10">
      <!-- 30 -->
      <g transform="translate(35.33 184.470286) scale(0.12 -0.12)">
       <use xlink:href="#DejaVuSans-33"/>
       <use xlink:href="#DejaVuSans-30" transform="translate(63.623047 0)"/>
      </g>
     </g>
    </g>
    <g id="ytick_5">
     <g id="line2d_10">
      <g>
       <use xlink:href="#m493336b821" x="57.6" y="143.292809" style="stroke: #000000; stroke-width: 0.8"/>
      </g>
     </g>
     <g id="text_11">
      <!-- 35 -->
      <g transform="translate(35.33 147.851871) scale(0.12 -0.12)">
       <use xlink:href="#DejaVuSans-33"/>
       <use xlink:href="#DejaVuSans-35" transform="translate(63.623047 0)"/>
      </g>
     </g>
    </g>
    <g id="ytick_6">
     <g id="line2d_11">
      <g>
       <use xlink:href="#m493336b821" x="57.6" y="106.674394" style="stroke: #000000; stroke-width: 0.8"/>
      </g>
     </g>
     <g id="text_12">
      <!-- 40 -->
      <g transform="translate(35.33 111.233457) scale(0.12 -0.12)">
       <use xlink:href="#DejaVuSans-34"/>
       <use xlink:href="#DejaVuSans-30" transform="translate(63.623047 0)"/>
      </g>
     </g>
    </g>
    <g id="ytick_7">
     <g id="line2d_12">
      <g>
       <use xlink:href="#m493336b821" x="57.6" y="70.05598" style="stroke: #000000; stroke-width: 0.8"/>
      </g>
     </g>
     <g id="text_13">
      <!-- 45 -->
      <g transform="translate(35.33 74.615042) scale(0.12 -0.12)">
       <use xlink:href="#DejaVuSans-34"/>
       <use xlink:href="#DejaVuSans-35" transform="translate(63.623047 0)"/>
      </g>
     </g>
    </g>
    <g id="text_14">
     <!-- y -->
     <g transform="translate(28.418437 178.671125) rotate(-90) scale(0.14 -0.14)">
      <defs>
       <path id="DejaVuSans-79" d="M 2059 -325 
Q 1816 -950 1584 -1140 
Q 1353 -1331 966 -1331 
L 506 -1331 
L 506 -850 
L 844 -850 
Q 1081 -850 1212 -737 
Q 1344 -625 1503 -206 
L 1606 56 
L 191 3500 
L 800 3500 
L 1894 763 
L 2988 3500 
L 3597 3500 
L 2059 -325 
z
" transform="scale(0.015625)"/>
      </defs>
      <use xlink:href="#DejaVuSans-79"/>
     </g>
    </g>
   </g>
   <g id="patch_3">
    <path d="M 57.6 307.584 
L 57.6 41.472 
" style="fill: none; stroke: #000000; stroke-width: 0.8; stroke-linejoin: miter; stroke-linecap: square"/>
   </g>
   <g id="patch_4">
    <path d="M 414.72 307.584 
L 414.72 41.472 
" style="fill: none; stroke: #000000; stroke-width: 0.8; stroke-linejoin: miter; stroke-linecap: square"/>
   </g>
   <g id="patch_5">
    <path d="M 57.6 307.584 
L 414.72 307.584 
" style="fill: none; stroke: #000000; stroke-width: 0.8; stroke-linejoin: miter; stroke-linecap: square"/>
   </g>
   <g id="patch_6">
    <path d="M 57.6 41.472 
L 414.72 41.472 
" style="fill: none; stroke: #000000; stroke-width: 0.8; stroke-linejoin: miter; stroke-linecap: square"/>
   </g>
   <g id="text_15">
    <!-- Velocities at the final time -->
    <g transform="translate(116.81 35.472) scale(0.16 -0.16)">
     <defs>
      <path id="DejaVuSans-Bold-56" d="M 31 4666 
L 1241 4666 
L 2478 1222 
L 3713 4666 
L 4922 4666 
L 3194 0 
L 1759 0 
L 31 4666 
z
" transform="scale(0.015625)"/>
      <path id="DejaVuSans-Bold-65" d="M 4031 1759 
L 4031 1441 
L 1416 1441 
Q 1456 1047 1700 850 
Q 1944 653 2381 653 
Q 2734 653 3104 758 
Q 3475 863 3866 1075 
L 3866 213 
Q 3469 63 3072 -14 
Q 2675 -91 2278 -91 
Q 1328 -91 801 392 
Q 275 875 275 1747 
Q 275 2603 792 3093 
Q 1309 3584 2216 3584 
Q 3041 3584 3536 3087 
Q 4031 2591 4031 1759 
z
M 2881 2131 
Q 2881 2450 2695 2645 
Q 2509 2841 2209 2841 
Q 1884 2841 1681 2658 
Q 1478 2475 1428 2131 
L 2881 2131 
z
" transform="scale(0.015625)"/>
      <path id="DejaVuSans-Bold-6c" d="M 538 4863 
L 1656 4863 
L 1656 0 
L 538 0 
L 538 4863 
z
" transform="scale(0.015625)"/>
      <path id="DejaVuSans-Bold-6f" d="M 2203 2784 
Q 1831 2784 1636 2517 
Q 1441 2250 1441 1747 
Q 1441 1244 1636 976 
Q 1831 709 2203 709 
Q 2569 709 2762 976 
Q 2956 1244 2956 1747 
Q 2956 2250 2762 2517 
Q 2569 2784 2203 2784 
z
M 2203 3584 
Q 3106 3584 3614 3096 
Q 4122 2609 4122 1747 
Q 4122 884 3614 396 
Q 3106 -91 2203 -91 
Q 1297 -91 786 396 
Q 275 884 275 1747 
Q 275 2609 786 3096 
Q 1297 3584 2203 3584 
z
" transform="scale(0.015625)"/>
      <path id="DejaVuSans-Bold-63" d="M 3366 3391 
L 3366 2478 
Q 3138 2634 2908 2709 
Q 2678 2784 2431 2784 
Q 1963 2784 1702 2511 
Q 1441 2238 1441 1747 
Q 1441 1256 1702 982 
Q 1963 709 2431 709 
Q 2694 709 2930 787 
Q 3166 866 3366 1019 
L 3366 103 
Q 3103 6 2833 -42 
Q 2563 -91 2291 -91 
Q 1344 -91 809 395 
Q 275 881 275 1747 
Q 275 2613 809 3098 
Q 1344 3584 2291 3584 
Q 2566 3584 2833 3536 
Q 3100 3488 3366 3391 
z
" transform="scale(0.015625)"/>
      <path id="DejaVuSans-Bold-69" d="M 538 3500 
L 1656 3500 
L 1656 0 
L 538 0 
L 538 3500 
z
M 538 4863 
L 1656 4863 
L 1656 3950 
L 538 3950 
L 538 4863 
z
" transform="scale(0.015625)"/>
      <path id="DejaVuSans-Bold-74" d="M 1759 4494 
L 1759 3500 
L 2913 3500 
L 2913 2700 
L 1759 2700 
L 1759 1216 
Q 1759 972 1856 886 
Q 1953 800 2241 800 
L 2816 800 
L 2816 0 
L 1856 0 
Q 1194 0 917 276 
Q 641 553 641 1216 
L 641 2700 
L 84 2700 
L 84 3500 
L 641 3500 
L 641 4494 
L 1759 4494 
z
" transform="scale(0.015625)"/>
      <path id="DejaVuSans-Bold-73" d="M 3272 3391 
L 3272 2541 
Q 2913 2691 2578 2766 
Q 2244 2841 1947 2841 
Q 1628 2841 1473 2761 
Q 1319 2681 1319 2516 
Q 1319 2381 1436 2309 
Q 1553 2238 1856 2203 
L 2053 2175 
Q 2913 2066 3209 1816 
Q 3506 1566 3506 1031 
Q 3506 472 3093 190 
Q 2681 -91 1863 -91 
Q 1516 -91 1145 -36 
Q 775 19 384 128 
L 384 978 
Q 719 816 1070 734 
Q 1422 653 1784 653 
Q 2113 653 2278 743 
Q 2444 834 2444 1013 
Q 2444 1163 2330 1236 
Q 2216 1309 1875 1350 
L 1678 1375 
Q 931 1469 631 1722 
Q 331 1975 331 2491 
Q 331 3047 712 3315 
Q 1094 3584 1881 3584 
Q 2191 3584 2531 3537 
Q 2872 3491 3272 3391 
z
" transform="scale(0.015625)"/>
      <path id="DejaVuSans-Bold-20" transform="scale(0.015625)"/>
      <path id="DejaVuSans-Bold-61" d="M 2106 1575 
Q 1756 1575 1579 1456 
Q 1403 1338 1403 1106 
Q 1403 894 1545 773 
Q 1688 653 1941 653 
Q 2256 653 2472 879 
Q 2688 1106 2688 1447 
L 2688 1575 
L 2106 1575 
z
M 3816 1997 
L 3816 0 
L 2688 0 
L 2688 519 
Q 2463 200 2181 54 
Q 1900 -91 1497 -91 
Q 953 -91 614 226 
Q 275 544 275 1050 
Q 275 1666 698 1953 
Q 1122 2241 2028 2241 
L 2688 2241 
L 2688 2328 
Q 2688 2594 2478 2717 
Q 2269 2841 1825 2841 
Q 1466 2841 1156 2769 
Q 847 2697 581 2553 
L 581 3406 
Q 941 3494 1303 3539 
Q 1666 3584 2028 3584 
Q 2975 3584 3395 3211 
Q 3816 2838 3816 1997 
z
" transform="scale(0.015625)"/>
      <path id="DejaVuSans-Bold-68" d="M 4056 2131 
L 4056 0 
L 2931 0 
L 2931 347 
L 2931 1625 
Q 2931 2084 2911 2256 
Q 2891 2428 2841 2509 
Q 2775 2619 2662 2680 
Q 2550 2741 2406 2741 
Q 2056 2741 1856 2470 
Q 1656 2200 1656 1722 
L 1656 0 
L 538 0 
L 538 4863 
L 1656 4863 
L 1656 2988 
Q 1909 3294 2193 3439 
Q 2478 3584 2822 3584 
Q 3428 3584 3742 3212 
Q 4056 2841 4056 2131 
z
" transform="scale(0.015625)"/>
      <path id="DejaVuSans-Bold-66" d="M 2841 4863 
L 2841 4128 
L 2222 4128 
Q 1984 4128 1890 4042 
Q 1797 3956 1797 3744 
L 1797 3500 
L 2753 3500 
L 2753 2700 
L 1797 2700 
L 1797 0 
L 678 0 
L 678 2700 
L 122 2700 
L 122 3500 
L 678 3500 
L 678 3744 
Q 678 4316 997 4589 
Q 1316 4863 1984 4863 
L 2841 4863 
z
" transform="scale(0.015625)"/>
      <path id="DejaVuSans-Bold-6e" d="M 4056 2131 
L 4056 0 
L 2931 0 
L 2931 347 
L 2931 1631 
Q 2931 2084 2911 2256 
Q 2891 2428 2841 2509 
Q 2775 2619 2662 2680 
Q 2550 2741 2406 2741 
Q 2056 2741 1856 2470 
Q 1656 2200 1656 1722 
L 1656 0 
L 538 0 
L 538 3500 
L 1656 3500 
L 1656 2988 
Q 1909 3294 2193 3439 
Q 2478 3584 2822 3584 
Q 3428 3584 3742 3212 
Q 4056 2841 4056 2131 
z
" transform="scale(0.015625)"/>
      <path id="DejaVuSans-Bold-6d" d="M 3781 2919 
Q 3994 3244 4286 3414 
Q 4578 3584 4928 3584 
Q 5531 3584 5847 3212 
Q 6163 2841 6163 2131 
L 6163 0 
L 5038 0 
L 5038 1825 
Q 5041 1866 5042 1909 
Q 5044 1953 5044 2034 
Q 5044 2406 4934 2573 
Q 4825 2741 4581 2741 
Q 4263 2741 4089 2478 
Q 3916 2216 3909 1719 
L 3909 0 
L 2784 0 
L 2784 1825 
Q 2784 2406 2684 2573 
Q 2584 2741 2328 2741 
Q 2006 2741 1831 2477 
Q 1656 2213 1656 1722 
L 1656 0 
L 531 0 
L 531 3500 
L 1656 3500 
L 1656 2988 
Q 1863 3284 2130 3434 
Q 2397 3584 2719 3584 
Q 3081 3584 3359 3409 
Q 3638 3234 3781 2919 
z
" transform="scale(0.015625)"/>
     </defs>
     <use xlink:href="#DejaVuSans-Bold-56"/>
     <use xlink:href="#DejaVuSans-Bold-65" transform="translate(71.892578 0)"/>
     <use xlink:href="#DejaVuSans-Bold-6c" transform="translate(139.714844 0)"/>
     <use xlink:href="#DejaVuSans-Bold-6f" transform="translate(173.992188 0)"/>
     <use xlink:href="#DejaVuSans-Bold-63" transform="translate(242.693359 0)"/>
     <use xlink:href="#DejaVuSans-Bold-69" transform="translate(301.970703 0)"/>
     <use xlink:href="#DejaVuSans-Bold-74" transform="translate(336.248047 0)"/>
     <use xlink:href="#DejaVuSans-Bold-69" transform="translate(384.050781 0)"/>
     <use xlink:href="#DejaVuSans-Bold-65" transform="translate(418.328125 0)"/>
     <use xlink:href="#DejaVuSans-Bold-73" transform="translate(486.150391 0)"/>
     <use xlink:href="#DejaVuSans-Bold-20" transform="translate(545.671875 0)"/>
     <use xlink:href="#DejaVuSans-Bold-61" transform="translate(580.486328 0)"/>
     <use xlink:href="#DejaVuSans-Bold-74" transform="translate(647.966797 0)"/>
     <use xlink:href="#DejaVuSans-Bold-20" transform="translate(695.769531 0)"/>
     <use xlink:href="#DejaVuSans-Bold-74" transform="translate(730.583984 0)"/>
     <use xlink:href="#DejaVuSans-Bold-68" transform="translate(778.386719 0)"/>
     <use xlink:href="#DejaVuSans-Bold-65" transform="translate(849.578125 0)"/>
     <use xlink:href="#DejaVuSans-Bold-20" transform="translate(917.400391 0)"/>
     <use xlink:href="#DejaVuSans-Bold-66" transform="translate(952.214844 0)"/>
     <use xlink:href="#DejaVuSans-Bold-69" transform="translate(995.720703 0)"/>
     <use xlink:href="#DejaVuSans-Bold-6e" transform="translate(1029.998047 0)"/>
     <use xlink:href="#DejaVuSans-Bold-61" transform="translate(1101.189453 0)"/>
     <use xlink:href="#DejaVuSans-Bold-6c" transform="translate(1168.669922 0)"/>
     <use xlink:href="#DejaVuSans-Bold-20" transform="translate(1202.947266 0)"/>
     <use xlink:href="#DejaVuSans-Bold-74" transform="translate(1237.761719 0)"/>
     <use xlink:href="#DejaVuSans-Bold-69" transform="translate(1285.564453 0)"/>
     <use xlink:href="#DejaVuSans-Bold-6d" transform="translate(1319.841797 0)"/>
     <use xlink:href="#DejaVuSans-Bold-65" transform="translate(1424.041016 0)"/>
    </g>
   </g>
   <g id="legend_1">
    <g id="patch_7">
     <path d="M 328.266875 78.82825 
L 407.72 78.82825 
Q 409.72 78.82825 409.72 76.82825 
L 409.72 48.472 
Q 409.72 46.472 407.72 46.472 
L 328.266875 46.472 
Q 326.266875 46.472 326.266875 48.472 
L 326.266875 76.82825 
Q 326.266875 78.82825 328.266875 78.82825 
z
" style="fill: #ffffff; opacity: 0.8; stroke: #cccccc; stroke-linejoin: miter"/>
    </g>
    <g id="PathCollection_2">
     <g>
      <use xlink:href="#me453ddab1b" x="340.266875" y="55.445437" style="fill: #0000ff; stroke: #0000ff"/>
     </g>
    </g>
    <g id="text_16">
     <!-- Positions -->
     <g transform="translate(358.266875 58.070437) scale(0.1 -0.1)">
      <defs>
       <path id="DejaVuSans-50" d="M 1259 4147 
L 1259 2394 
L 2053 2394 
Q 2494 2394 2734 2622 
Q 2975 2850 2975 3272 
Q 2975 3691 2734 3919 
Q 2494 4147 2053 4147 
L 1259 4147 
z
M 628 4666 
L 2053 4666 
Q 2838 4666 3239 4311 
Q 3641 3956 3641 3272 
Q 3641 2581 3239 2228 
Q 2838 1875 2053 1875 
L 1259 1875 
L 1259 0 
L 628 0 
L 628 4666 
z
" transform="scale(0.015625)"/>
       <path id="DejaVuSans-6f" d="M 1959 3097 
Q 1497 3097 1228 2736 
Q 959 2375 959 1747 
Q 959 1119 1226 758 
Q 1494 397 1959 397 
Q 2419 397 2687 759 
Q 2956 1122 2956 1747 
Q 2956 2369 2687 2733 
Q 2419 3097 1959 3097 
z
M 1959 3584 
Q 2709 3584 3137 3096 
Q 3566 2609 3566 1747 
Q 3566 888 3137 398 
Q 2709 -91 1959 -91 
Q 1206 -91 779 398 
Q 353 888 353 1747 
Q 353 2609 779 3096 
Q 1206 3584 1959 3584 
z
" transform="scale(0.015625)"/>
       <path id="DejaVuSans-73" d="M 2834 3397 
L 2834 2853 
Q 2591 2978 2328 3040 
Q 2066 3103 1784 3103 
Q 1356 3103 1142 2972 
Q 928 2841 928 2578 
Q 928 2378 1081 2264 
Q 1234 2150 1697 2047 
L 1894 2003 
Q 2506 1872 2764 1633 
Q 3022 1394 3022 966 
Q 3022 478 2636 193 
Q 2250 -91 1575 -91 
Q 1294 -91 989 -36 
Q 684 19 347 128 
L 347 722 
Q 666 556 975 473 
Q 1284 391 1588 391 
Q 1994 391 2212 530 
Q 2431 669 2431 922 
Q 2431 1156 2273 1281 
Q 2116 1406 1581 1522 
L 1381 1569 
Q 847 1681 609 1914 
Q 372 2147 372 2553 
Q 372 3047 722 3315 
Q 1072 3584 1716 3584 
Q 2034 3584 2315 3537 
Q 2597 3491 2834 3397 
z
" transform="scale(0.015625)"/>
       <path id="DejaVuSans-69" d="M 603 3500 
L 1178 3500 
L 1178 0 
L 603 0 
L 603 3500 
z
M 603 4863 
L 1178 4863 
L 1178 4134 
L 603 4134 
L 603 4863 
z
" transform="scale(0.015625)"/>
       <path id="DejaVuSans-74" d="M 1172 4494 
L 1172 3500 
L 2356 3500 
L 2356 3053 
L 1172 3053 
L 1172 1153 
Q 1172 725 1289 603 
Q 1406 481 1766 481 
L 2356 481 
L 2356 0 
L 1766 0 
Q 1100 0 847 248 
Q 594 497 594 1153 
L 594 3053 
L 172 3053 
L 172 3500 
L 594 3500 
L 594 4494 
L 1172 4494 
z
" transform="scale(0.015625)"/>
       <path id="DejaVuSans-6e" d="M 3513 2113 
L 3513 0 
L 2938 0 
L 2938 2094 
Q 2938 2591 2744 2837 
Q 2550 3084 2163 3084 
Q 1697 3084 1428 2787 
Q 1159 2491 1159 1978 
L 1159 0 
L 581 0 
L 581 3500 
L 1159 3500 
L 1159 2956 
Q 1366 3272 1645 3428 
Q 1925 3584 2291 3584 
Q 2894 3584 3203 3211 
Q 3513 2838 3513 2113 
z
" transform="scale(0.015625)"/>
      </defs>
      <use xlink:href="#DejaVuSans-50"/>
      <use xlink:href="#DejaVuSans-6f" transform="translate(56.677734 0)"/>
      <use xlink:href="#DejaVuSans-73" transform="translate(117.859375 0)"/>
      <use xlink:href="#DejaVuSans-69" transform="translate(169.958984 0)"/>
      <use xlink:href="#DejaVuSans-74" transform="translate(197.742188 0)"/>
      <use xlink:href="#DejaVuSans-69" transform="translate(236.951172 0)"/>
      <use xlink:href="#DejaVuSans-6f" transform="translate(264.734375 0)"/>
      <use xlink:href="#DejaVuSans-6e" transform="translate(325.916016 0)"/>
      <use xlink:href="#DejaVuSans-73" transform="translate(389.294922 0)"/>
     </g>
    </g>
    <g id="patch_8">
     <path d="M 330.266875 72.748562 
L 350.266875 72.748562 
L 350.266875 65.748562 
L 330.266875 65.748562 
z
" style="fill: #ff0000"/>
    </g>
    <g id="text_17">
     <!-- Velocities -->
     <g transform="translate(358.266875 72.748562) scale(0.1 -0.1)">
      <defs>
       <path id="DejaVuSans-56" d="M 1831 0 
L 50 4666 
L 709 4666 
L 2188 738 
L 3669 4666 
L 4325 4666 
L 2547 0 
L 1831 0 
z
" transform="scale(0.015625)"/>
       <path id="DejaVuSans-65" d="M 3597 1894 
L 3597 1613 
L 953 1613 
Q 991 1019 1311 708 
Q 1631 397 2203 397 
Q 2534 397 2845 478 
Q 3156 559 3463 722 
L 3463 178 
Q 3153 47 2828 -22 
Q 2503 -91 2169 -91 
Q 1331 -91 842 396 
Q 353 884 353 1716 
Q 353 2575 817 3079 
Q 1281 3584 2069 3584 
Q 2775 3584 3186 3129 
Q 3597 2675 3597 1894 
z
M 3022 2063 
Q 3016 2534 2758 2815 
Q 2500 3097 2075 3097 
Q 1594 3097 1305 2825 
Q 1016 2553 972 2059 
L 3022 2063 
z
" transform="scale(0.015625)"/>
       <path id="DejaVuSans-6c" d="M 603 4863 
L 1178 4863 
L 1178 0 
L 603 0 
L 603 4863 
z
" transform="scale(0.015625)"/>
       <path id="DejaVuSans-63" d="M 3122 3366 
L 3122 2828 
Q 2878 2963 2633 3030 
Q 2388 3097 2138 3097 
Q 1578 3097 1268 2742 
Q 959 2388 959 1747 
Q 959 1106 1268 751 
Q 1578 397 2138 397 
Q 2388 397 2633 464 
Q 2878 531 3122 666 
L 3122 134 
Q 2881 22 2623 -34 
Q 2366 -91 2075 -91 
Q 1284 -91 818 406 
Q 353 903 353 1747 
Q 353 2603 823 3093 
Q 1294 3584 2113 3584 
Q 2378 3584 2631 3529 
Q 2884 3475 3122 3366 
z
" transform="scale(0.015625)"/>
      </defs>
      <use xlink:href="#DejaVuSans-56"/>
      <use xlink:href="#DejaVuSans-65" transform="translate(60.658203 0)"/>
      <use xlink:href="#DejaVuSans-6c" transform="translate(122.181641 0)"/>
      <use xlink:href="#DejaVuSans-6f" transform="translate(149.964844 0)"/>
      <use xlink:href="#DejaVuSans-63" transform="translate(211.146484 0)"/>
      <use xlink:href="#DejaVuSans-69" transform="translate(266.126953 0)"/>
      <use xlink:href="#DejaVuSans-74" transform="translate(293.910156 0)"/>
      <use xlink:href="#DejaVuSans-69" transform="translate(333.119141 0)"/>
      <use xlink:href="#DejaVuSans-65" transform="translate(360.902344 0)"/>
      <use xlink:href="#DejaVuSans-73" transform="translate(422.425781 0)"/>
     </g>
    </g>
   </g>
  </g>
 </g>
 <defs>
  <clipPath id="p471c86c40d">
   <rect x="57.6" y="41.472" width="357.12" height="266.112"/>
  </clipPath>
 </defs>
</svg>
