<?xml version="1.0" encoding="utf-8" standalone="no"?>
<!DOCTYPE svg PUBLIC "-//W3C//DTD SVG 1.1//EN"
  "http://www.w3.org/Graphics/SVG/1.1/DTD/svg11.dtd">
<svg xmlns:xlink="http://www.w3.org/1999/xlink" width="460.8pt" height="345.6pt" viewBox="0 0 460.8 345.6" xmlns="http://www.w3.org/2000/svg" version="1.1">
 <metadata>
  <rdf:RDF xmlns:dc="http://purl.org/dc/elements/1.1/" xmlns:cc="http://creativecommons.org/ns#" xmlns:rdf="http://www.w3.org/1999/02/22-rdf-syntax-ns#">
   <cc:Work>
    <dc:type rdf:resource="http://purl.org/dc/dcmitype/StillImage"/>
    <dc:date>2025-05-05T23:21:38.485783</dc:date>
    <dc:format>image/svg+xml</dc:format>
    <dc:creator>
     <cc:Agent>
      <dc:title>Matplotlib v3.10.1, https://matplotlib.org/</dc:title>
     </cc:Agent>
    </dc:creator>
   </cc:Work>
  </rdf:RDF>
 </metadata>
 <defs>
  <style type="text/css">*{stroke-linejoin: round; stroke-linecap: butt}</style>
 </defs>
 <g id="figure_1">
  <g id="patch_1">
   <path d="M 0 345.6 
L 460.8 345.6 
L 460.8 0 
L 0 0 
z
" style="fill: #ffffff"/>
  </g>
  <g id="axes_1">
   <g id="patch_2">
    <path d="M 57.6 307.584 
L 414.72 307.584 
L 414.72 41.472 
L 57.6 41.472 
z
" style="fill: #ffffff"/>
   </g>
   <g id="PathCollection_1">
    <defs>
     <path id="m5ebdc08440" d="M 0 3 
C 0.795609 3 1.55874 2.683901 2.12132 2.12132 
C 2.683901 1.55874 3 0.795609 3 0 
C 3 -0.795609 2.683901 -1.55874 2.12132 -2.12132 
C 1.55874 -2.683901 0.795609 -3 0 -3 
C -0.795609 -3 -1.55874 -2.683901 -2.12132 -2.12132 
C -2.683901 -1.55874 -3 -0.795609 -3 0 
C -3 0.795609 -2.683901 1.55874 -2.12132 2.12132 
C -1.55874 2.683901 -0.795609 3 0 3 
z
" style="stroke: #0000ff"/>
    </defs>
    <g clip-path="url(#p6524ca9b6c)">
     <use xlink:href="#m5ebdc08440" x="293.428216" y="103.867514" style="fill: #0000ff; stroke: #0000ff"/>
     <use xlink:href="#m5ebdc08440" x="288.038338" y="68.086274" style="fill: #0000ff; stroke: #0000ff"/>
     <use xlink:href="#m5ebdc08440" x="167.74737" y="258.040184" style="fill: #0000ff; stroke: #0000ff"/>
     <use xlink:href="#m5ebdc08440" x="132.66528" y="229.288164" style="fill: #0000ff; stroke: #0000ff"/>
     <use xlink:href="#m5ebdc08440" x="342.637502" y="79.246324" style="fill: #0000ff; stroke: #0000ff"/>
     <use xlink:href="#m5ebdc08440" x="313.778363" y="102.24589" style="fill: #0000ff; stroke: #0000ff"/>
     <use xlink:href="#m5ebdc08440" x="151.761361" y="247.906609" style="fill: #0000ff; stroke: #0000ff"/>
     <use xlink:href="#m5ebdc08440" x="143.33402" y="258.32867" style="fill: #0000ff; stroke: #0000ff"/>
     <use xlink:href="#m5ebdc08440" x="268.981686" y="160.051967" style="fill: #0000ff; stroke: #0000ff"/>
     <use xlink:href="#m5ebdc08440" x="315.403718" y="68.385951" style="fill: #0000ff; stroke: #0000ff"/>
     <use xlink:href="#m5ebdc08440" x="152.661756" y="256.846907" style="fill: #0000ff; stroke: #0000ff"/>
     <use xlink:href="#m5ebdc08440" x="234.246106" y="150.994546" style="fill: #0000ff; stroke: #0000ff"/>
     <use xlink:href="#m5ebdc08440" x="343.940679" y="107.439155" style="fill: #0000ff; stroke: #0000ff"/>
     <use xlink:href="#m5ebdc08440" x="303.253606" y="78.237908" style="fill: #0000ff; stroke: #0000ff"/>
     <use xlink:href="#m5ebdc08440" x="135.107267" y="261.569812" style="fill: #0000ff; stroke: #0000ff"/>
     <use xlink:href="#m5ebdc08440" x="339.493183" y="115.745417" style="fill: #0000ff; stroke: #0000ff"/>
     <use xlink:href="#m5ebdc08440" x="342.043964" y="134.56458" style="fill: #0000ff; stroke: #0000ff"/>
     <use xlink:href="#m5ebdc08440" x="320.382782" y="88.245036" style="fill: #0000ff; stroke: #0000ff"/>
     <use xlink:href="#m5ebdc08440" x="265.753412" y="53.568" style="fill: #0000ff; stroke: #0000ff"/>
     <use xlink:href="#m5ebdc08440" x="144.979673" y="215.107744" style="fill: #0000ff; stroke: #0000ff"/>
     <use xlink:href="#m5ebdc08440" x="123.814301" y="272.265765" style="fill: #0000ff; stroke: #0000ff"/>
     <use xlink:href="#m5ebdc08440" x="268.494859" y="86.701747" style="fill: #0000ff; stroke: #0000ff"/>
     <use xlink:href="#m5ebdc08440" x="323.14564" y="98.233278" style="fill: #0000ff; stroke: #0000ff"/>
     <use xlink:href="#m5ebdc08440" x="244.930549" y="103.340571" style="fill: #0000ff; stroke: #0000ff"/>
     <use xlink:href="#m5ebdc08440" x="311.318328" y="113.085917" style="fill: #0000ff; stroke: #0000ff"/>
     <use xlink:href="#m5ebdc08440" x="254.253292" y="105.655907" style="fill: #0000ff; stroke: #0000ff"/>
     <use xlink:href="#m5ebdc08440" x="167.89256" y="295.488" style="fill: #0000ff; stroke: #0000ff"/>
     <use xlink:href="#m5ebdc08440" x="292.171503" y="58.730078" style="fill: #0000ff; stroke: #0000ff"/>
     <use xlink:href="#m5ebdc08440" x="173.614668" y="197.881999" style="fill: #0000ff; stroke: #0000ff"/>
     <use xlink:href="#m5ebdc08440" x="348.818936" y="98.658209" style="fill: #0000ff; stroke: #0000ff"/>
     <use xlink:href="#m5ebdc08440" x="142.862115" y="248.923341" style="fill: #0000ff; stroke: #0000ff"/>
     <use xlink:href="#m5ebdc08440" x="149.441166" y="281.737715" style="fill: #0000ff; stroke: #0000ff"/>
     <use xlink:href="#m5ebdc08440" x="238.26077" y="209.644337" style="fill: #0000ff; stroke: #0000ff"/>
     <use xlink:href="#m5ebdc08440" x="183.523913" y="146.731389" style="fill: #0000ff; stroke: #0000ff"/>
     <use xlink:href="#m5ebdc08440" x="294.716362" y="123.775149" style="fill: #0000ff; stroke: #0000ff"/>
     <use xlink:href="#m5ebdc08440" x="184.623193" y="247.042049" style="fill: #0000ff; stroke: #0000ff"/>
     <use xlink:href="#m5ebdc08440" x="160.947572" y="287.169346" style="fill: #0000ff; stroke: #0000ff"/>
     <use xlink:href="#m5ebdc08440" x="277.580419" y="70.628908" style="fill: #0000ff; stroke: #0000ff"/>
     <use xlink:href="#m5ebdc08440" x="298.239252" y="87.466967" style="fill: #0000ff; stroke: #0000ff"/>
     <use xlink:href="#m5ebdc08440" x="261.875674" y="125.146762" style="fill: #0000ff; stroke: #0000ff"/>
     <use xlink:href="#m5ebdc08440" x="313.047928" y="93.652703" style="fill: #0000ff; stroke: #0000ff"/>
     <use xlink:href="#m5ebdc08440" x="252.8492" y="208.989424" style="fill: #0000ff; stroke: #0000ff"/>
     <use xlink:href="#m5ebdc08440" x="182.433248" y="286.556076" style="fill: #0000ff; stroke: #0000ff"/>
     <use xlink:href="#m5ebdc08440" x="262.207794" y="142.459774" style="fill: #0000ff; stroke: #0000ff"/>
     <use xlink:href="#m5ebdc08440" x="306.937033" y="122.318606" style="fill: #0000ff; stroke: #0000ff"/>
     <use xlink:href="#m5ebdc08440" x="126.747582" y="243.529877" style="fill: #0000ff; stroke: #0000ff"/>
     <use xlink:href="#m5ebdc08440" x="158.161503" y="209.267834" style="fill: #0000ff; stroke: #0000ff"/>
     <use xlink:href="#m5ebdc08440" x="150.511681" y="265.244104" style="fill: #0000ff; stroke: #0000ff"/>
     <use xlink:href="#m5ebdc08440" x="319.085843" y="78.534128" style="fill: #0000ff; stroke: #0000ff"/>
     <use xlink:href="#m5ebdc08440" x="258.312693" y="87.79152" style="fill: #0000ff; stroke: #0000ff"/>
     <use xlink:href="#m5ebdc08440" x="328.976132" y="85.21313" style="fill: #0000ff; stroke: #0000ff"/>
     <use xlink:href="#m5ebdc08440" x="332.293862" y="102.905854" style="fill: #0000ff; stroke: #0000ff"/>
     <use xlink:href="#m5ebdc08440" x="349.782229" y="128.892666" style="fill: #0000ff; stroke: #0000ff"/>
     <use xlink:href="#m5ebdc08440" x="115.471433" y="243.601996" style="fill: #0000ff; stroke: #0000ff"/>
     <use xlink:href="#m5ebdc08440" x="262.583794" y="63.609512" style="fill: #0000ff; stroke: #0000ff"/>
     <use xlink:href="#m5ebdc08440" x="300.399946" y="113.3518" style="fill: #0000ff; stroke: #0000ff"/>
     <use xlink:href="#m5ebdc08440" x="157.707466" y="236.600468" style="fill: #0000ff; stroke: #0000ff"/>
     <use xlink:href="#m5ebdc08440" x="340.634605" y="125.37447" style="fill: #0000ff; stroke: #0000ff"/>
     <use xlink:href="#m5ebdc08440" x="319.24441" y="108.654315" style="fill: #0000ff; stroke: #0000ff"/>
     <use xlink:href="#m5ebdc08440" x="341.502093" y="89.562568" style="fill: #0000ff; stroke: #0000ff"/>
     <use xlink:href="#m5ebdc08440" x="217.450147" y="116.736159" style="fill: #0000ff; stroke: #0000ff"/>
     <use xlink:href="#m5ebdc08440" x="193.210286" y="240.412855" style="fill: #0000ff; stroke: #0000ff"/>
     <use xlink:href="#m5ebdc08440" x="140.271939" y="277.645999" style="fill: #0000ff; stroke: #0000ff"/>
     <use xlink:href="#m5ebdc08440" x="288.868679" y="82.951899" style="fill: #0000ff; stroke: #0000ff"/>
     <use xlink:href="#m5ebdc08440" x="130.792518" y="281.078606" style="fill: #0000ff; stroke: #0000ff"/>
     <use xlink:href="#m5ebdc08440" x="306.148358" y="105.743706" style="fill: #0000ff; stroke: #0000ff"/>
     <use xlink:href="#m5ebdc08440" x="348.101191" y="119.592432" style="fill: #0000ff; stroke: #0000ff"/>
     <use xlink:href="#m5ebdc08440" x="133.182248" y="270.882382" style="fill: #0000ff; stroke: #0000ff"/>
     <use xlink:href="#m5ebdc08440" x="356.848567" y="122.44949" style="fill: #0000ff; stroke: #0000ff"/>
     <use xlink:href="#m5ebdc08440" x="133.956198" y="251.372812" style="fill: #0000ff; stroke: #0000ff"/>
     <use xlink:href="#m5ebdc08440" x="122.187133" y="208.344158" style="fill: #0000ff; stroke: #0000ff"/>
     <use xlink:href="#m5ebdc08440" x="353.558413" y="111.49107" style="fill: #0000ff; stroke: #0000ff"/>
     <use xlink:href="#m5ebdc08440" x="125.78326" y="261.580165" style="fill: #0000ff; stroke: #0000ff"/>
     <use xlink:href="#m5ebdc08440" x="333.673046" y="131.420556" style="fill: #0000ff; stroke: #0000ff"/>
     <use xlink:href="#m5ebdc08440" x="153.006991" y="273.885328" style="fill: #0000ff; stroke: #0000ff"/>
     <use xlink:href="#m5ebdc08440" x="265.264825" y="192.530866" style="fill: #0000ff; stroke: #0000ff"/>
     <use xlink:href="#m5ebdc08440" x="141.147505" y="287.161627" style="fill: #0000ff; stroke: #0000ff"/>
     <use xlink:href="#m5ebdc08440" x="161.573887" y="249.111173" style="fill: #0000ff; stroke: #0000ff"/>
     <use xlink:href="#m5ebdc08440" x="242.581044" y="131.118007" style="fill: #0000ff; stroke: #0000ff"/>
     <use xlink:href="#m5ebdc08440" x="327.867068" y="111.332408" style="fill: #0000ff; stroke: #0000ff"/>
     <use xlink:href="#m5ebdc08440" x="124.823237" y="218.505978" style="fill: #0000ff; stroke: #0000ff"/>
     <use xlink:href="#m5ebdc08440" x="329.63321" y="68.763215" style="fill: #0000ff; stroke: #0000ff"/>
     <use xlink:href="#m5ebdc08440" x="318.778632" y="133.762943" style="fill: #0000ff; stroke: #0000ff"/>
     <use xlink:href="#m5ebdc08440" x="319.540834" y="118.651057" style="fill: #0000ff; stroke: #0000ff"/>
     <use xlink:href="#m5ebdc08440" x="296.698918" y="97.545115" style="fill: #0000ff; stroke: #0000ff"/>
     <use xlink:href="#m5ebdc08440" x="329.610319" y="139.459109" style="fill: #0000ff; stroke: #0000ff"/>
     <use xlink:href="#m5ebdc08440" x="134.695363" y="219.046766" style="fill: #0000ff; stroke: #0000ff"/>
     <use xlink:href="#m5ebdc08440" x="136.61914" y="240.81936" style="fill: #0000ff; stroke: #0000ff"/>
     <use xlink:href="#m5ebdc08440" x="146.816051" y="239.335113" style="fill: #0000ff; stroke: #0000ff"/>
     <use xlink:href="#m5ebdc08440" x="332.953899" y="93.311892" style="fill: #0000ff; stroke: #0000ff"/>
     <use xlink:href="#m5ebdc08440" x="160.008972" y="264.081868" style="fill: #0000ff; stroke: #0000ff"/>
     <use xlink:href="#m5ebdc08440" x="332.857917" y="77.548068" style="fill: #0000ff; stroke: #0000ff"/>
     <use xlink:href="#m5ebdc08440" x="151.911552" y="290.850604" style="fill: #0000ff; stroke: #0000ff"/>
     <use xlink:href="#m5ebdc08440" x="293.003822" y="94.136977" style="fill: #0000ff; stroke: #0000ff"/>
     <use xlink:href="#m5ebdc08440" x="142.47081" y="268.517646" style="fill: #0000ff; stroke: #0000ff"/>
     <use xlink:href="#m5ebdc08440" x="171.664019" y="285.938065" style="fill: #0000ff; stroke: #0000ff"/>
     <use xlink:href="#m5ebdc08440" x="284.437514" y="93.30746" style="fill: #0000ff; stroke: #0000ff"/>
     <use xlink:href="#m5ebdc08440" x="284.70797" y="134.391439" style="fill: #0000ff; stroke: #0000ff"/>
     <use xlink:href="#m5ebdc08440" x="163.9072" y="277.431049" style="fill: #0000ff; stroke: #0000ff"/>
     <use xlink:href="#m5ebdc08440" x="322.586564" y="61.919358" style="fill: #0000ff; stroke: #0000ff"/>
    </g>
   </g>
   <g id="Quiver_1">
    <path d="M 292.789858 103.0071 
L 300.487581 97.29601 
L 298.350452 96.21354 
L 308.869662 92.411205 
L 302.180598 101.376023 
L 301.764296 99.016838 
L 294.066573 104.727927 
L 292.789858 103.0071 
" clip-path="url(#p6524ca9b6c)" style="fill: #ff0000"/>
    <path d="M 287.319485 67.29188 
L 294.874966 60.454868 
L 292.642866 59.584933 
L 302.743368 54.779583 
L 296.955985 64.351299 
L 296.312673 62.043657 
L 288.757191 68.880668 
L 287.319485 67.29188 
" clip-path="url(#p6524ca9b6c)" style="fill: #ff0000"/>
    <path d="M 168.474669 258.826853 
L 160.928326 265.803669 
L 163.169593 266.649709 
L 153.121004 271.562689 
L 158.8058 261.929693 
L 159.473729 264.23033 
L 167.020071 257.253515 
L 168.474669 258.826853 
" clip-path="url(#p6524ca9b6c)" style="fill: #ff0000"/>
    <path d="M 133.448484 230.019193 
L 126.388647 237.582899 
L 128.686084 238.261754 
L 119.026179 243.900704 
L 123.986861 233.875578 
L 124.822239 236.12084 
L 131.882076 228.557134 
L 133.448484 230.019193 
" clip-path="url(#p6524ca9b6c)" style="fill: #ff0000"/>
    <path d="M 341.876141 78.492572 
L 349.060125 71.236074 
L 346.783652 70.48993 
L 356.605255 65.137581 
L 351.351815 75.012443 
L 350.582846 72.743578 
L 343.398863 80.000077 
L 341.876141 78.492572 
" clip-path="url(#p6524ca9b6c)" style="fill: #ff0000"/>
    <path d="M 313.001838 101.50777 
L 320.184762 93.951103 
L 317.893592 93.251389 
L 327.604364 87.700493 
L 322.552745 97.680106 
L 321.737813 95.427342 
L 314.554889 102.984009 
L 313.001838 101.50777 
" clip-path="url(#p6524ca9b6c)" style="fill: #ff0000"/>
    <path d="M 152.513625 248.66944 
L 145.31737 255.766009 
L 147.584729 256.539407 
L 137.699627 261.773553 
L 143.071145 251.962421 
L 143.812842 254.240347 
L 151.009097 247.143778 
L 152.513625 248.66944 
" clip-path="url(#p6524ca9b6c)" style="fill: #ff0000"/>
    <path d="M 144.09593 259.081867 
L 136.92542 266.335325 
L 139.202437 267.079809 
L 129.384738 272.439317 
L 134.630978 262.560627 
L 135.401601 264.828931 
L 142.57211 257.575473 
L 144.09593 259.081867 
" clip-path="url(#p6524ca9b6c)" style="fill: #ff0000"/>
    <path d="M 268.20957 159.309236 
L 275.34164 151.89499 
L 273.054677 151.181645 
L 282.798332 145.688675 
L 277.687375 155.638029 
L 276.885873 153.380452 
L 269.753802 160.794697 
L 268.20957 159.309236 
" clip-path="url(#p6524ca9b6c)" style="fill: #ff0000"/>
    <path d="M 314.681817 67.594325 
L 322.172178 60.763702 
L 319.936751 59.902351 
L 330.018712 55.058221 
L 324.268156 64.652106 
L 323.61598 62.346954 
L 316.125619 69.177577 
L 314.681817 67.594325 
" clip-path="url(#p6524ca9b6c)" style="fill: #ff0000"/>
    <path d="M 153.427259 257.596452 
L 146.386156 264.787466 
L 148.666707 265.521052 
L 138.87475 270.927449 
L 144.073688 261.023784 
L 144.85515 263.288377 
L 151.896253 256.097362 
L 153.427259 257.596452 
" clip-path="url(#p6524ca9b6c)" style="fill: #ff0000"/>
    <path d="M 233.488195 150.237325 
L 240.75922 142.95967 
L 238.486177 142.20314 
L 248.332117 136.895691 
L 243.033644 146.746464 
L 242.275042 144.474111 
L 235.004017 151.751766 
L 233.488195 150.237325 
" clip-path="url(#p6524ca9b6c)" style="fill: #ff0000"/>
    <path d="M 343.146962 106.719554 
L 350.023181 99.135097 
L 347.716145 98.489614 
L 357.2933 92.711238 
L 352.478452 102.807215 
L 351.610616 100.574297 
L 344.734397 108.158755 
L 343.146962 106.719554 
" clip-path="url(#p6524ca9b6c)" style="fill: #ff0000"/>
    <path d="M 302.516858 77.46008 
L 309.976878 70.394049 
L 307.725555 69.575142 
L 317.71407 64.541147 
L 312.146041 74.242105 
L 311.450373 71.949703 
L 303.990354 79.015735 
L 302.516858 77.46008 
" clip-path="url(#p6524ca9b6c)" style="fill: #ff0000"/>
    <path d="M 135.862607 262.329598 
L 128.589306 269.560335 
L 130.859771 270.324567 
L 120.995894 275.598604 
L 126.327734 265.765852 
L 127.078627 268.040763 
L 134.351928 260.810027 
L 135.862607 262.329598 
" clip-path="url(#p6524ca9b6c)" style="fill: #ff0000"/>
    <path d="M 338.625113 115.11751 
L 344.573161 106.894446 
L 342.209114 106.506702 
L 351.092394 99.709726 
L 347.417532 110.274144 
L 346.3093 108.15026 
L 340.361252 116.373324 
L 338.625113 115.11751 
" clip-path="url(#p6524ca9b6c)" style="fill: #ff0000"/>
    <path d="M 341.348868 133.749317 
L 349.099607 127.141013 
L 346.894152 126.205583 
L 357.132071 121.700414 
L 351.064727 131.097162 
L 350.489799 128.77154 
L 342.73906 135.379843 
L 341.348868 133.749317 
" clip-path="url(#p6524ca9b6c)" style="fill: #ff0000"/>
    <path d="M 319.64592 87.467317 
L 327.098042 80.406687 
L 324.846599 79.588111 
L 334.834374 74.552649 
L 329.267771 84.254425 
L 328.571766 81.962125 
L 321.119644 89.022755 
L 319.64592 87.467317 
" clip-path="url(#p6524ca9b6c)" style="fill: #ff0000"/>
    <path d="M 265.000696 52.805615 
L 272.321288 45.577858 
L 270.053471 44.805805 
L 279.935466 39.565794 
L 274.56977 49.380113 
L 273.826721 47.102627 
L 266.506129 54.330385 
L 265.000696 52.805615 
" clip-path="url(#p6524ca9b6c)" style="fill: #ff0000"/>
    <path d="M 145.741153 215.861376 
L 138.504195 223.1737 
L 140.780787 223.919483 
L 130.960031 229.273388 
L 136.211907 219.397694 
L 136.981235 221.666437 
L 144.218193 214.354113 
L 145.741153 215.861376 
" clip-path="url(#p6524ca9b6c)" style="fill: #ff0000"/>
    <path d="M 124.571791 273.023406 
L 117.309073 280.284681 
L 119.581695 281.042473 
L 109.732811 286.344455 
L 115.036752 276.496625 
L 115.794092 278.769398 
L 123.05681 271.508124 
L 124.571791 273.023406 
" clip-path="url(#p6524ca9b6c)" style="fill: #ff0000"/>
    <path d="M 267.764038 85.918348 
L 275.344509 78.846647 
L 273.09947 78.01067 
L 283.12592 73.052663 
L 277.484392 82.711063 
L 276.80615 80.413445 
L 269.225679 87.485146 
L 267.764038 85.918348 
" clip-path="url(#p6524ca9b6c)" style="fill: #ff0000"/>
    <path d="M 322.416679 97.448148 
L 329.952703 90.451263 
L 327.709652 89.609964 
L 337.747832 84.675749 
L 332.083415 94.320743 
L 331.410623 92.021523 
L 323.8746 99.018408 
L 322.416679 97.448148 
" clip-path="url(#p6524ca9b6c)" style="fill: #ff0000"/>
    <path d="M 244.141148 102.616237 
L 251.05626 95.079939 
L 248.753125 94.420673 
L 258.364662 88.699667 
L 253.489529 98.766674 
L 252.635061 96.528606 
L 245.71995 104.064904 
L 244.141148 102.616237 
" clip-path="url(#p6524ca9b6c)" style="fill: #ff0000"/>
    <path d="M 310.770735 112.165073 
L 319.426563 107.017771 
L 317.410533 105.723674 
L 328.261757 103.010284 
L 320.696087 111.248742 
L 320.521747 108.85946 
L 311.86592 114.006762 
L 310.770735 112.165073 
" clip-path="url(#p6524ca9b6c)" style="fill: #ff0000"/>
    <path d="M 253.547974 104.849471 
L 261.352791 98.023276 
L 259.135719 97.115724 
L 269.316027 92.481842 
L 263.367631 101.954335 
L 262.763429 99.636146 
L 254.958611 106.462342 
L 253.547974 104.849471 
" clip-path="url(#p6524ca9b6c)" style="fill: #ff0000"/>
    <path d="M 168.62896 296.266156 
L 161.163617 303.330908 
L 163.414573 304.15082 
L 153.423811 309.180353 
L 158.996172 299.481883 
L 159.690817 301.774595 
L 167.15616 294.709844 
L 168.62896 296.266156 
" clip-path="url(#p6524ca9b6c)" style="fill: #ff0000"/>
    <path d="M 291.413118 57.973332 
L 298.674673 50.696049 
L 296.401157 49.940942 
L 306.243771 44.62733 
L 300.951467 54.481418 
L 300.191443 52.209541 
L 292.929888 59.486824 
L 291.413118 57.973332 
" clip-path="url(#p6524ca9b6c)" style="fill: #ff0000"/>
    <path d="M 174.370951 198.640846 
L 167.07469 205.912459 
L 169.346103 206.673869 
L 159.488788 211.960161 
L 164.808404 202.12079 
L 165.562124 204.394766 
L 172.858385 197.123153 
L 174.370951 198.640846 
" clip-path="url(#p6524ca9b6c)" style="fill: #ff0000"/>
    <path d="M 348.035726 97.927187 
L 355.008016 90.457148 
L 352.710574 89.778312 
L 362.370431 84.13928 
L 357.409834 94.164449 
L 356.574437 91.919193 
L 349.602147 99.389232 
L 348.035726 97.927187 
" clip-path="url(#p6524ca9b6c)" style="fill: #ff0000"/>
    <path d="M 143.614763 249.685793 
L 136.27706 256.929149 
L 138.544808 257.701405 
L 128.662345 262.940532 
L 134.028919 253.126694 
L 134.771763 255.404246 
L 142.109467 248.16089 
L 143.614763 249.685793 
" clip-path="url(#p6524ca9b6c)" style="fill: #ff0000"/>
    <path d="M 150.206257 282.487681 
L 143.006384 289.832749 
L 145.286531 290.567591 
L 135.491599 295.968595 
L 140.695989 286.067794 
L 141.476204 288.332817 
L 148.676076 280.987749 
L 150.206257 282.487681 
" clip-path="url(#p6524ca9b6c)" style="fill: #ff0000"/>
    <path d="M 237.50865 208.881365 
L 244.85794 201.636603 
L 242.590726 200.862779 
L 252.476812 195.63049 
L 247.10345 205.440613 
L 246.362181 203.162548 
L 239.012891 210.407309 
L 237.50865 208.881365 
" clip-path="url(#p6524ca9b6c)" style="fill: #ff0000"/>
    <path d="M 184.281362 147.489072 
L 177.013588 154.754601 
L 179.286168 155.512518 
L 169.436992 160.813957 
L 174.741475 150.96642 
L 175.49869 153.239235 
L 182.766464 145.973706 
L 184.281362 147.489072 
" clip-path="url(#p6524ca9b6c)" style="fill: #ff0000"/>
    <path d="M 293.965177 123.011255 
L 301.360742 115.738739 
L 299.094479 114.962135 
L 308.986974 109.741974 
L 303.601585 119.5455 
L 302.863111 117.266527 
L 295.467546 124.539043 
L 293.965177 123.011255 
" clip-path="url(#p6524ca9b6c)" style="fill: #ff0000"/>
    <path d="M 185.377 247.803355 
L 178.06169 255.046608 
L 180.33061 255.815414 
L 170.456128 261.069567 
L 175.807768 251.247577 
L 176.554076 253.523996 
L 183.869386 246.280743 
L 185.377 247.803355 
" clip-path="url(#p6524ca9b6c)" style="fill: #ff0000"/>
    <path d="M 161.678723 287.952436 
L 154.198013 294.936976 
L 156.443405 295.772006 
L 146.419047 300.734242 
L 152.0565 291.073463 
L 152.735712 293.370795 
L 160.216422 286.386255 
L 161.678723 287.952436 
" clip-path="url(#p6524ca9b6c)" style="fill: #ff0000"/>
    <path d="M 276.825528 69.868677 
L 284.104534 62.640806 
L 281.83452 61.875234 
L 291.701508 56.607019 
L 286.363866 66.436623 
L 285.614316 64.161269 
L 278.33531 71.38914 
L 276.825528 69.868677 
" clip-path="url(#p6524ca9b6c)" style="fill: #ff0000"/>
    <path d="M 297.459973 86.731755 
L 304.773474 78.979897 
L 302.479705 78.288752 
L 312.16966 72.701598 
L 307.155379 82.700024 
L 306.332032 80.450321 
L 299.018531 88.202179 
L 297.459973 86.731755 
" clip-path="url(#p6524ca9b6c)" style="fill: #ff0000"/>
    <path d="M 261.138304 124.369525 
L 268.56379 117.324922 
L 266.311814 116.507817 
L 276.296298 111.465832 
L 270.736032 121.171242 
L 270.03853 118.879397 
L 262.613044 125.924 
L 261.138304 124.369525 
" clip-path="url(#p6524ca9b6c)" style="fill: #ff0000"/>
    <path d="M 312.201154 92.99636 
L 318.464551 84.915694 
L 316.114659 84.449784 
L 325.218407 77.951067 
L 321.195306 88.387838 
L 320.158099 86.228379 
L 313.894702 94.309045 
L 312.201154 92.99636 
" clip-path="url(#p6524ca9b6c)" style="fill: #ff0000"/>
    <path d="M 253.601434 209.752284 
L 246.26533 216.9862 
L 248.532658 217.759687 
L 238.647351 222.993447 
L 244.019254 213.182524 
L 244.760861 215.460479 
L 252.096966 208.226564 
L 253.601434 209.752284 
" clip-path="url(#p6524ca9b6c)" style="fill: #ff0000"/>
    <path d="M 183.177761 287.326474 
L 175.745594 294.508924 
L 178.005018 295.305207 
L 168.067501 300.439142 
L 173.53794 290.68282 
L 174.256568 292.968128 
L 181.688735 285.785679 
L 183.177761 287.326474 
" clip-path="url(#p6524ca9b6c)" style="fill: #ff0000"/>
    <path d="M 262.951258 143.231184 
L 255.568356 150.346622 
L 257.826694 151.145978 
L 247.8822 156.266386 
L 253.36591 146.517517 
L 254.081428 148.803801 
L 261.46433 141.688363 
L 262.951258 143.231184 
" clip-path="url(#p6524ca9b6c)" style="fill: #ff0000"/>
    <path d="M 306.174234 121.56631 
L 313.438649 114.20047 
L 311.160754 113.458678 
L 320.972112 108.087571 
L 315.737551 117.972454 
L 314.964248 115.705062 
L 307.699833 123.070902 
L 306.174234 121.56631 
" clip-path="url(#p6524ca9b6c)" style="fill: #ff0000"/>
    <path d="M 127.520045 244.272247 
L 120.402024 251.678812 
L 122.68932 252.391088 
L 112.948234 257.888612 
L 118.054541 247.93687 
L 118.857098 250.194073 
L 125.975118 242.787507 
L 127.520045 244.272247 
" clip-path="url(#p6524ca9b6c)" style="fill: #ff0000"/>
    <path d="M 158.912374 210.032037 
L 151.551407 217.26459 
L 153.817351 218.042124 
L 143.922714 223.258224 
L 149.312127 213.456909 
L 150.049666 215.736185 
L 157.410633 208.503632 
L 158.912374 210.032037 
" clip-path="url(#p6524ca9b6c)" style="fill: #ff0000"/>
    <path d="M 151.276467 265.994381 
L 144.055308 273.35518 
L 146.335156 274.090949 
L 136.538031 279.487973 
L 141.746443 269.589287 
L 142.525737 271.854627 
L 149.746896 264.493827 
L 151.276467 265.994381 
" clip-path="url(#p6524ca9b6c)" style="fill: #ff0000"/>
    <path d="M 318.335915 77.769001 
L 325.757011 70.495318 
L 323.492027 69.714992 
L 333.393084 64.511088 
L 327.991598 74.305754 
L 327.256868 72.025572 
L 319.835772 79.299255 
L 318.335915 77.769001 
" clip-path="url(#p6524ca9b6c)" style="fill: #ff0000"/>
    <path d="M 257.536511 87.05304 
L 264.575266 79.654926 
L 262.284421 78.954149 
L 271.997769 73.407763 
L 266.941517 83.385029 
L 266.127631 81.131886 
L 259.088876 88.53 
L 257.536511 87.05304 
" clip-path="url(#p6524ca9b6c)" style="fill: #ff0000"/>
    <path d="M 328.21545 84.458692 
L 335.395056 77.21967 
L 333.119256 76.471476 
L 342.945677 71.127976 
L 337.683343 80.998102 
L 336.916418 78.728545 
L 329.736813 85.967567 
L 328.21545 84.458692 
" clip-path="url(#p6524ca9b6c)" style="fill: #ff0000"/>
    <path d="M 331.579741 102.107204 
L 339.282861 95.219384 
L 337.055967 94.336204 
L 347.184838 89.590943 
L 341.340695 99.128109 
L 340.711103 96.816686 
L 333.007984 103.704505 
L 331.579741 102.107204 
" clip-path="url(#p6524ca9b6c)" style="fill: #ff0000"/>
    <path d="M 349.09338 128.072118 
L 356.916956 121.504244 
L 354.71871 120.551995 
L 364.990741 116.125155 
L 358.851802 125.475286 
L 358.294653 123.145341 
L 350.471077 129.713215 
L 349.09338 128.072118 
" clip-path="url(#p6524ca9b6c)" style="fill: #ff0000"/>
    <path d="M 116.254296 244.333391 
L 109.274231 251.804642 
L 111.571352 252.484569 
L 101.908817 258.119013 
L 106.874175 248.096201 
L 107.708506 250.341853 
L 114.68857 242.870602 
L 116.254296 244.333391 
" clip-path="url(#p6524ca9b6c)" style="fill: #ff0000"/>
    <path d="M 261.848588 62.830227 
L 269.323036 55.778552 
L 267.073339 54.955189 
L 277.071801 49.94098 
L 271.484577 59.630895 
L 270.793448 57.33712 
L 263.319001 64.388796 
L 261.848588 62.830227 
" clip-path="url(#p6524ca9b6c)" style="fill: #ff0000"/>
    <path d="M 299.610682 112.627318 
L 306.520108 105.100064 
L 304.217098 104.440363 
L 313.829712 98.721169 
L 308.952682 108.787257 
L 308.098636 106.549028 
L 301.18921 114.076282 
L 299.610682 112.627318 
" clip-path="url(#p6524ca9b6c)" style="fill: #ff0000"/>
    <path d="M 158.485631 237.336859 
L 151.299233 244.930922 
L 153.591954 245.62554 
L 143.893548 251.198014 
L 148.922966 241.207193 
L 149.742904 243.45814 
L 156.929301 235.864077 
L 158.485631 237.336859 
" clip-path="url(#p6524ca9b6c)" style="fill: #ff0000"/>
    <path d="M 339.838427 124.657593 
L 346.777677 116.950712 
L 344.468444 116.313137 
L 354.025744 110.501981 
L 349.245515 120.614396 
L 348.370034 118.384465 
L 341.430784 126.091346 
L 339.838427 124.657593 
" clip-path="url(#p6524ca9b6c)" style="fill: #ff0000"/>
    <path d="M 318.534034 107.852332 
L 326.350365 100.928824 
L 324.127628 100.035234 
L 334.278592 95.337419 
L 328.389888 104.847134 
L 327.771118 102.532791 
L 319.954787 109.456299 
L 318.534034 107.852332 
" clip-path="url(#p6524ca9b6c)" style="fill: #ff0000"/>
    <path d="M 340.75287 88.796749 
L 348.10178 81.607093 
L 345.837516 80.824679 
L 355.743366 75.629906 
L 350.332852 85.419588 
L 349.600225 83.138729 
L 342.251316 90.328386 
L 340.75287 88.796749 
" clip-path="url(#p6524ca9b6c)" style="fill: #ff0000"/>
    <path d="M 218.194098 117.5071 
L 210.800711 124.641657 
L 213.059553 125.439587 
L 203.118296 130.566277 
L 208.595847 120.813945 
L 209.312808 123.099777 
L 216.706196 115.965219 
L 218.194098 117.5071 
" clip-path="url(#p6524ca9b6c)" style="fill: #ff0000"/>
    <path d="M 193.967211 241.171061 
L 186.686367 248.439599 
L 188.958423 249.199087 
L 179.105585 254.493716 
L 184.416874 244.649848 
L 185.172517 246.923186 
L 192.453361 239.654649 
L 193.967211 241.171061 
" clip-path="url(#p6524ca9b6c)" style="fill: #ff0000"/>
    <path d="M 141.036879 278.396118 
L 133.935629 285.637667 
L 136.215628 286.372967 
L 126.419613 291.772005 
L 131.62599 281.872249 
L 132.40575 284.137428 
L 139.507 276.895879 
L 141.036879 278.396118 
" clip-path="url(#p6524ca9b6c)" style="fill: #ff0000"/>
    <path d="M 288.111152 82.194294 
L 295.383119 74.923068 
L 293.110459 74.165386 
L 302.959086 68.862927 
L 297.655623 78.711013 
L 296.898173 76.438277 
L 289.626206 83.709503 
L 288.111152 82.194294 
" clip-path="url(#p6524ca9b6c)" style="fill: #ff0000"/>
    <path d="M 131.554178 281.832056 
L 124.367416 289.097131 
L 126.644185 289.84237 
L 116.824709 295.19862 
L 122.074226 285.321672 
L 122.844096 287.590231 
L 130.030858 280.325157 
L 131.554178 281.832056 
" clip-path="url(#p6524ca9b6c)" style="fill: #ff0000"/>
    <path d="M 305.26854 105.13237 
L 311.083658 96.763427 
L 308.712685 96.42057 
L 317.465509 89.456403 
L 313.991592 100.088592 
L 312.843294 97.986101 
L 307.028176 106.355043 
L 305.26854 105.13237 
" clip-path="url(#p6524ca9b6c)" style="fill: #ff0000"/>
    <path d="M 347.291481 118.890876 
L 354.069178 111.068314 
L 351.748201 110.47491 
L 361.192898 104.482479 
L 356.606462 114.68425 
L 355.688599 112.471427 
L 348.910901 120.293989 
L 347.291481 118.890876 
" clip-path="url(#p6524ca9b6c)" style="fill: #ff0000"/>
    <path d="M 133.940758 271.639003 
L 126.705256 278.892571 
L 128.978897 279.647303 
L 119.13716 284.96254 
L 124.427837 275.107578 
L 125.188236 277.37933 
L 132.423738 270.125762 
L 133.940758 271.639003 
" clip-path="url(#p6524ca9b6c)" style="fill: #ff0000"/>
    <path d="M 356.130458 121.654423 
L 363.876341 114.658301 
L 361.645056 113.786276 
L 371.750056 108.990389 
L 365.953709 118.556679 
L 365.312559 116.248436 
L 357.566676 123.244557 
L 356.130458 121.654423 
" clip-path="url(#p6524ca9b6c)" style="fill: #ff0000"/>
    <path d="M 134.713856 252.130286 
L 127.346854 259.499083 
L 129.619644 260.256372 
L 119.771933 265.560532 
L 125.073695 255.71153 
L 125.831538 257.984135 
L 133.19854 250.615339 
L 134.713856 252.130286 
" clip-path="url(#p6524ca9b6c)" style="fill: #ff0000"/>
    <path d="M 122.96094 209.085127 
L 115.861501 216.49921 
L 118.150085 217.207339 
L 108.418979 222.722511 
L 113.507239 212.76153 
L 114.313886 215.017274 
L 121.413325 207.60319 
L 122.96094 209.085127 
" clip-path="url(#p6524ca9b6c)" style="fill: #ff0000"/>
    <path d="M 352.781297 110.753573 
L 359.849595 103.305555 
L 357.557864 102.607677 
L 367.264186 97.049002 
L 362.220564 107.03266 
L 361.403828 104.780549 
L 354.33553 112.228567 
L 352.781297 110.753573 
" clip-path="url(#p6524ca9b6c)" style="fill: #ff0000"/>
    <path d="M 126.533819 262.344674 
L 119.215075 269.529869 
L 121.480702 270.308328 
L 111.583936 275.520388 
L 116.97735 265.721275 
L 117.713958 268.000851 
L 125.032701 260.815656 
L 126.533819 262.344674 
" clip-path="url(#p6524ca9b6c)" style="fill: #ff0000"/>
    <path d="M 332.965663 130.615931 
L 340.651165 123.859252 
L 338.431774 122.957385 
L 348.600174 118.297431 
L 342.676072 127.785136 
L 342.065931 125.468502 
L 334.380429 132.225181 
L 332.965663 130.615931 
" clip-path="url(#p6524ca9b6c)" style="fill: #ff0000"/>
    <path d="M 153.778793 274.628385 
L 146.758975 281.91976 
L 149.045636 282.634072 
L 139.299658 288.122919 
L 144.414825 278.175729 
L 145.215371 280.433645 
L 152.235189 273.142271 
L 153.778793 274.628385 
" clip-path="url(#p6524ca9b6c)" style="fill: #ff0000"/>
    <path d="M 266.038712 193.271752 
L 258.92102 200.706494 
L 261.20968 201.414377 
L 251.479167 206.930594 
L 256.566357 196.969066 
L 257.373246 199.224724 
L 264.490938 191.789981 
L 266.038712 193.271752 
" clip-path="url(#p6524ca9b6c)" style="fill: #ff0000"/>
    <path d="M 141.909875 287.914358 
L 134.648974 295.268241 
L 136.926445 296.011333 
L 127.112025 301.376842 
L 132.352224 291.494947 
L 133.124234 293.762779 
L 140.385135 286.408896 
L 141.909875 287.914358 
" clip-path="url(#p6524ca9b6c)" style="fill: #ff0000"/>
    <path d="M 162.333225 249.866962 
L 155.021537 257.212985 
L 157.296003 257.965225 
L 147.460095 263.291241 
L 152.739973 253.430489 
L 153.50286 255.701406 
L 160.814548 248.355384 
L 162.333225 249.866962 
" clip-path="url(#p6524ca9b6c)" style="fill: #ff0000"/>
    <path d="M 243.330038 131.884049 
L 235.995193 139.055657 
L 238.259223 139.838747 
L 228.351821 145.030559 
L 233.76526 135.242494 
L 234.497206 137.523572 
L 241.83205 130.351965 
L 243.330038 131.884049 
" clip-path="url(#p6524ca9b6c)" style="fill: #ff0000"/>
    <path d="M 327.196583 110.496787 
L 335.236665 104.045592 
L 333.060075 103.044835 
L 343.427738 98.84685 
L 337.082984 108.058561 
L 336.577635 105.716834 
L 328.537553 112.168029 
L 327.196583 110.496787 
" clip-path="url(#p6524ca9b6c)" style="fill: #ff0000"/>
    <path d="M 125.594585 219.249507 
L 118.417596 226.695009 
L 120.703819 227.410721 
L 110.954484 232.893603 
L 116.075737 222.949544 
L 116.874902 225.20795 
L 124.05189 217.762449 
L 125.594585 219.249507 
" clip-path="url(#p6524ca9b6c)" style="fill: #ff0000"/>
    <path d="M 328.869218 68.01213 
L 336.010181 60.748453 
L 333.731112 60.010275 
L 343.533936 54.62361 
L 338.315064 64.516784 
L 337.538165 62.250622 
L 330.397202 69.5143 
L 328.869218 68.01213 
" clip-path="url(#p6524ca9b6c)" style="fill: #ff0000"/>
    <path d="M 319.425254 134.617163 
L 311.361556 140.721175 
L 313.509021 141.782992 
L 303.026954 145.686557 
L 309.629286 136.657673 
L 310.068311 139.012735 
L 318.13201 132.908723 
L 319.425254 134.617163 
" clip-path="url(#p6524ca9b6c)" style="fill: #ff0000"/>
    <path d="M 318.788218 117.888573 
L 326.065715 110.70525 
L 323.797999 109.9329 
L 333.680682 104.694186 
L 328.313698 114.5078 
L 327.570948 112.230217 
L 320.29345 119.41354 
L 318.788218 117.888573 
" clip-path="url(#p6524ca9b6c)" style="fill: #ff0000"/>
    <path d="M 296.778268 98.613532 
L 294.405992 98.78972 
L 295.633111 100.847204 
L 284.710885 98.43546 
L 295.157006 94.4367 
L 294.24729 96.652885 
L 296.619567 96.476697 
L 296.778268 98.613532 
" clip-path="url(#p6524ca9b6c)" style="fill: #ff0000"/>
    <path d="M 328.863405 138.691038 
L 336.147663 131.607435 
L 333.885765 130.818206 
L 343.807213 125.653286 
L 338.367245 135.426631 
L 337.641489 133.143576 
L 330.357232 140.227179 
L 328.863405 138.691038 
" clip-path="url(#p6524ca9b6c)" style="fill: #ff0000"/>
    <path d="M 135.464059 219.793037 
L 128.358346 227.112277 
L 130.642007 227.836121 
L 120.873218 233.284267 
L 126.029833 223.3585 
L 126.820954 225.619736 
L 133.926668 218.300496 
L 135.464059 219.793037 
" clip-path="url(#p6524ca9b6c)" style="fill: #ff0000"/>
    <path d="M 137.371609 241.58199 
L 130.073312 248.783052 
L 132.340878 249.555842 
L 122.457181 254.792641 
L 127.826066 244.980067 
L 128.568374 247.257794 
L 135.866672 240.056731 
L 137.371609 241.58199 
" clip-path="url(#p6524ca9b6c)" style="fill: #ff0000"/>
    <path d="M 147.561927 240.104191 
L 140.193436 247.250379 
L 142.454266 248.04266 
L 132.525854 253.194183 
L 137.979011 243.42819 
L 138.701684 245.712222 
L 146.070175 238.566034 
L 147.561927 240.104191 
" clip-path="url(#p6524ca9b6c)" style="fill: #ff0000"/>
    <path d="M 332.20091 92.549776 
L 339.391274 85.445523 
L 337.123181 84.67428 
L 347.003304 79.430741 
L 341.641113 89.246975 
L 340.897252 86.969754 
L 333.706887 94.074007 
L 332.20091 92.549776 
" clip-path="url(#p6524ca9b6c)" style="fill: #ff0000"/>
    <path d="M 160.782944 264.822665 
L 153.607039 272.319922 
L 155.895779 273.027544 
L 146.165894 278.544869 
L 151.25195 268.582762 
L 152.059096 270.838328 
L 159.235 263.341071 
L 160.782944 264.822665 
" clip-path="url(#p6524ca9b6c)" style="fill: #ff0000"/>
    <path d="M 332.096 76.794879 
L 339.357517 69.449221 
L 337.080493 68.704758 
L 346.898141 63.345157 
L 341.651996 73.223896 
L 340.881351 70.9556 
L 333.619834 78.301258 
L 332.096 76.794879 
" clip-path="url(#p6524ca9b6c)" style="fill: #ff0000"/>
    <path d="M 152.676261 291.600959 
L 145.42916 298.986691 
L 147.708932 299.722692 
L 137.911255 305.118714 
L 143.12068 295.220561 
L 143.899742 297.48598 
L 151.146843 290.100249 
L 152.676261 291.600959 
" clip-path="url(#p6524ca9b6c)" style="fill: #ff0000"/>
    <path d="M 291.94456 93.976424 
L 293.620514 82.919198 
L 291.341438 83.657353 
L 296.124755 73.546398 
L 297.697007 84.620673 
L 295.739037 83.240305 
L 294.063083 94.29753 
L 291.94456 93.976424 
" clip-path="url(#p6524ca9b6c)" style="fill: #ff0000"/>
    <path d="M 143.229614 269.273972 
L 135.935302 276.592183 
L 138.209236 277.346031 
L 128.369565 282.665092 
L 133.656412 272.808075 
L 134.417694 275.079531 
L 141.712006 267.76132 
L 143.229614 269.273972 
" clip-path="url(#p6524ca9b6c)" style="fill: #ff0000"/>
    <path d="M 172.387305 286.728426 
L 164.814384 293.65866 
L 167.051316 294.516095 
L 156.977852 299.37787 
L 162.711602 289.773931 
L 163.367813 292.077938 
L 170.940734 285.147704 
L 172.387305 286.728426 
" clip-path="url(#p6524ca9b6c)" style="fill: #ff0000"/>
    <path d="M 283.652319 92.57857 
L 290.60135 85.092743 
L 288.30207 84.420158 
L 297.946556 78.754877 
L 293.013241 88.793499 
L 292.17174 86.550523 
L 285.222709 94.03635 
L 283.652319 92.57857 
" clip-path="url(#p6524ca9b6c)" style="fill: #ff0000"/>
    <path d="M 283.9434 133.640943 
L 291.184605 126.26394 
L 288.904968 125.527518 
L 298.70364 120.133302 
L 293.492391 130.030494 
L 292.713746 127.764932 
L 285.472541 135.141935 
L 283.9434 133.640943 
" clip-path="url(#p6524ca9b6c)" style="fill: #ff0000"/>
    <path d="M 164.615167 278.23516 
L 156.87178 285.052707 
L 159.091826 285.952962 
L 148.926813 290.620301 
L 154.844022 281.128295 
L 155.455845 283.444485 
L 163.199233 276.626938 
L 164.615167 278.23516 
" clip-path="url(#p6524ca9b6c)" style="fill: #ff0000"/>
    <path d="M 321.822972 61.167867 
L 329.072123 53.801979 
L 326.793447 53.06259 
L 336.599134 47.681136 
L 331.375002 57.571535 
L 330.599308 55.304961 
L 323.350157 62.670849 
L 321.822972 61.167867 
" clip-path="url(#p6524ca9b6c)" style="fill: #ff0000"/>
   </g>
   <g id="matplotlib.axis_1">
    <g id="xtick_1">
     <g id="line2d_1">
      <defs>
       <path id="maa7a4065c1" d="M 0 0 
L 0 3.5 
" style="stroke: #000000; stroke-width: 0.8"/>
      </defs>
      <g>
       <use xlink:href="#maa7a4065c1" x="72.17995" y="307.584" style="stroke: #000000; stroke-width: 0.8"/>
      </g>
     </g>
     <g id="text_1">
      <!-- −60 -->
      <g transform="translate(59.517137 323.702125) scale(0.12 -0.12)">
       <defs>
        <path id="DejaVuSans-2212" d="M 678 2272 
L 4684 2272 
L 4684 1741 
L 678 1741 
L 678 2272 
z
" transform="scale(0.015625)"/>
        <path id="DejaVuSans-36" d="M 2113 2584 
Q 1688 2584 1439 2293 
Q 1191 2003 1191 1497 
Q 1191 994 1439 701 
Q 1688 409 2113 409 
Q 2538 409 2786 701 
Q 3034 994 3034 1497 
Q 3034 2003 2786 2293 
Q 2538 2584 2113 2584 
z
M 3366 4563 
L 3366 3988 
Q 3128 4100 2886 4159 
Q 2644 4219 2406 4219 
Q 1781 4219 1451 3797 
Q 1122 3375 1075 2522 
Q 1259 2794 1537 2939 
Q 1816 3084 2150 3084 
Q 2853 3084 3261 2657 
Q 3669 2231 3669 1497 
Q 3669 778 3244 343 
Q 2819 -91 2113 -91 
Q 1303 -91 875 529 
Q 447 1150 447 2328 
Q 447 3434 972 4092 
Q 1497 4750 2381 4750 
Q 2619 4750 2861 4703 
Q 3103 4656 3366 4563 
z
" transform="scale(0.015625)"/>
        <path id="DejaVuSans-30" d="M 2034 4250 
Q 1547 4250 1301 3770 
Q 1056 3291 1056 2328 
Q 1056 1369 1301 889 
Q 1547 409 2034 409 
Q 2525 409 2770 889 
Q 3016 1369 3016 2328 
Q 3016 3291 2770 3770 
Q 2525 4250 2034 4250 
z
M 2034 4750 
Q 2819 4750 3233 4129 
Q 3647 3509 3647 2328 
Q 3647 1150 3233 529 
Q 2819 -91 2034 -91 
Q 1250 -91 836 529 
Q 422 1150 422 2328 
Q 422 3509 836 4129 
Q 1250 4750 2034 4750 
z
" transform="scale(0.015625)"/>
       </defs>
       <use xlink:href="#DejaVuSans-2212"/>
       <use xlink:href="#DejaVuSans-36" transform="translate(83.789062 0)"/>
       <use xlink:href="#DejaVuSans-30" transform="translate(147.412109 0)"/>
      </g>
     </g>
    </g>
    <g id="xtick_2">
     <g id="line2d_2">
      <g>
       <use xlink:href="#maa7a4065c1" x="125.952129" y="307.584" style="stroke: #000000; stroke-width: 0.8"/>
      </g>
     </g>
     <g id="text_2">
      <!-- −40 -->
      <g transform="translate(113.289316 323.702125) scale(0.12 -0.12)">
       <defs>
        <path id="DejaVuSans-34" d="M 2419 4116 
L 825 1625 
L 2419 1625 
L 2419 4116 
z
M 2253 4666 
L 3047 4666 
L 3047 1625 
L 3713 1625 
L 3713 1100 
L 3047 1100 
L 3047 0 
L 2419 0 
L 2419 1100 
L 313 1100 
L 313 1709 
L 2253 4666 
z
" transform="scale(0.015625)"/>
       </defs>
       <use xlink:href="#DejaVuSans-2212"/>
       <use xlink:href="#DejaVuSans-34" transform="translate(83.789062 0)"/>
       <use xlink:href="#DejaVuSans-30" transform="translate(147.412109 0)"/>
      </g>
     </g>
    </g>
    <g id="xtick_3">
     <g id="line2d_3">
      <g>
       <use xlink:href="#maa7a4065c1" x="179.724308" y="307.584" style="stroke: #000000; stroke-width: 0.8"/>
      </g>
     </g>
     <g id="text_3">
      <!-- −20 -->
      <g transform="translate(167.061495 323.702125) scale(0.12 -0.12)">
       <defs>
        <path id="DejaVuSans-32" d="M 1228 531 
L 3431 531 
L 3431 0 
L 469 0 
L 469 531 
Q 828 903 1448 1529 
Q 2069 2156 2228 2338 
Q 2531 2678 2651 2914 
Q 2772 3150 2772 3378 
Q 2772 3750 2511 3984 
Q 2250 4219 1831 4219 
Q 1534 4219 1204 4116 
Q 875 4013 500 3803 
L 500 4441 
Q 881 4594 1212 4672 
Q 1544 4750 1819 4750 
Q 2544 4750 2975 4387 
Q 3406 4025 3406 3419 
Q 3406 3131 3298 2873 
Q 3191 2616 2906 2266 
Q 2828 2175 2409 1742 
Q 1991 1309 1228 531 
z
" transform="scale(0.015625)"/>
       </defs>
       <use xlink:href="#DejaVuSans-2212"/>
       <use xlink:href="#DejaVuSans-32" transform="translate(83.789062 0)"/>
       <use xlink:href="#DejaVuSans-30" transform="translate(147.412109 0)"/>
      </g>
     </g>
    </g>
    <g id="xtick_4">
     <g id="line2d_4">
      <g>
       <use xlink:href="#maa7a4065c1" x="233.496487" y="307.584" style="stroke: #000000; stroke-width: 0.8"/>
      </g>
     </g>
     <g id="text_4">
      <!-- 0 -->
      <g transform="translate(229.678987 323.702125) scale(0.12 -0.12)">
       <use xlink:href="#DejaVuSans-30"/>
      </g>
     </g>
    </g>
    <g id="xtick_5">
     <g id="line2d_5">
      <g>
       <use xlink:href="#maa7a4065c1" x="287.268666" y="307.584" style="stroke: #000000; stroke-width: 0.8"/>
      </g>
     </g>
     <g id="text_5">
      <!-- 20 -->
      <g transform="translate(279.633666 323.702125) scale(0.12 -0.12)">
       <use xlink:href="#DejaVuSans-32"/>
       <use xlink:href="#DejaVuSans-30" transform="translate(63.623047 0)"/>
      </g>
     </g>
    </g>
    <g id="xtick_6">
     <g id="line2d_6">
      <g>
       <use xlink:href="#maa7a4065c1" x="341.040845" y="307.584" style="stroke: #000000; stroke-width: 0.8"/>
      </g>
     </g>
     <g id="text_6">
      <!-- 40 -->
      <g transform="translate(333.405845 323.702125) scale(0.12 -0.12)">
       <use xlink:href="#DejaVuSans-34"/>
       <use xlink:href="#DejaVuSans-30" transform="translate(63.623047 0)"/>
      </g>
     </g>
    </g>
    <g id="xtick_7">
     <g id="line2d_7">
      <g>
       <use xlink:href="#maa7a4065c1" x="394.813024" y="307.584" style="stroke: #000000; stroke-width: 0.8"/>
      </g>
     </g>
     <g id="text_7">
      <!-- 60 -->
      <g transform="translate(387.178024 323.702125) scale(0.12 -0.12)">
       <use xlink:href="#DejaVuSans-36"/>
       <use xlink:href="#DejaVuSans-30" transform="translate(63.623047 0)"/>
      </g>
     </g>
    </g>
    <g id="text_8">
     <!-- x -->
     <g transform="translate(232.016875 340.835562) scale(0.14 -0.14)">
      <defs>
       <path id="DejaVuSans-78" d="M 3513 3500 
L 2247 1797 
L 3578 0 
L 2900 0 
L 1881 1375 
L 863 0 
L 184 0 
L 1544 1831 
L 300 3500 
L 978 3500 
L 1906 2253 
L 2834 3500 
L 3513 3500 
z
" transform="scale(0.015625)"/>
      </defs>
      <use xlink:href="#DejaVuSans-78"/>
     </g>
    </g>
   </g>
   <g id="matplotlib.axis_2">
    <g id="ytick_1">
     <g id="line2d_8">
      <defs>
       <path id="m1638128726" d="M 0 0 
L -3.5 0 
" style="stroke: #000000; stroke-width: 0.8"/>
      </defs>
      <g>
       <use xlink:href="#m1638128726" x="57.6" y="283.313876" style="stroke: #000000; stroke-width: 0.8"/>
      </g>
     </g>
     <g id="text_9">
      <!-- −40 -->
      <g transform="translate(25.274375 287.872938) scale(0.12 -0.12)">
       <use xlink:href="#DejaVuSans-2212"/>
       <use xlink:href="#DejaVuSans-34" transform="translate(83.789062 0)"/>
       <use xlink:href="#DejaVuSans-30" transform="translate(147.412109 0)"/>
      </g>
     </g>
    </g>
    <g id="ytick_2">
     <g id="line2d_9">
      <g>
       <use xlink:href="#m1638128726" x="57.6" y="229.541697" style="stroke: #000000; stroke-width: 0.8"/>
      </g>
     </g>
     <g id="text_10">
      <!-- −20 -->
      <g transform="translate(25.274375 234.100759) scale(0.12 -0.12)">
       <use xlink:href="#DejaVuSans-2212"/>
       <use xlink:href="#DejaVuSans-32" transform="translate(83.789062 0)"/>
       <use xlink:href="#DejaVuSans-30" transform="translate(147.412109 0)"/>
      </g>
     </g>
    </g>
    <g id="ytick_3">
     <g id="line2d_10">
      <g>
       <use xlink:href="#m1638128726" x="57.6" y="175.769518" style="stroke: #000000; stroke-width: 0.8"/>
      </g>
     </g>
     <g id="text_11">
      <!-- 0 -->
      <g transform="translate(42.965 180.32858) scale(0.12 -0.12)">
       <use xlink:href="#DejaVuSans-30"/>
      </g>
     </g>
    </g>
    <g id="ytick_4">
     <g id="line2d_11">
      <g>
       <use xlink:href="#m1638128726" x="57.6" y="121.997338" style="stroke: #000000; stroke-width: 0.8"/>
      </g>
     </g>
     <g id="text_12">
      <!-- 20 -->
      <g transform="translate(35.33 126.556401) scale(0.12 -0.12)">
       <use xlink:href="#DejaVuSans-32"/>
       <use xlink:href="#DejaVuSans-30" transform="translate(63.623047 0)"/>
      </g>
     </g>
    </g>
    <g id="ytick_5">
     <g id="line2d_12">
      <g>
       <use xlink:href="#m1638128726" x="57.6" y="68.225159" style="stroke: #000000; stroke-width: 0.8"/>
      </g>
     </g>
     <g id="text_13">
      <!-- 40 -->
      <g transform="translate(35.33 72.784222) scale(0.12 -0.12)">
       <use xlink:href="#DejaVuSans-34"/>
       <use xlink:href="#DejaVuSans-30" transform="translate(63.623047 0)"/>
      </g>
     </g>
    </g>
    <g id="text_14">
     <!-- y -->
     <g transform="translate(18.362813 178.671125) rotate(-90) scale(0.14 -0.14)">
      <defs>
       <path id="DejaVuSans-79" d="M 2059 -325 
Q 1816 -950 1584 -1140 
Q 1353 -1331 966 -1331 
L 506 -1331 
L 506 -850 
L 844 -850 
Q 1081 -850 1212 -737 
Q 1344 -625 1503 -206 
L 1606 56 
L 191 3500 
L 800 3500 
L 1894 763 
L 2988 3500 
L 3597 3500 
L 2059 -325 
z
" transform="scale(0.015625)"/>
      </defs>
      <use xlink:href="#DejaVuSans-79"/>
     </g>
    </g>
   </g>
   <g id="patch_3">
    <path d="M 57.6 307.584 
L 57.6 41.472 
" style="fill: none; stroke: #000000; stroke-width: 0.8; stroke-linejoin: miter; stroke-linecap: square"/>
   </g>
   <g id="patch_4">
    <path d="M 414.72 307.584 
L 414.72 41.472 
" style="fill: none; stroke: #000000; stroke-width: 0.8; stroke-linejoin: miter; stroke-linecap: square"/>
   </g>
   <g id="patch_5">
    <path d="M 57.6 307.584 
L 414.72 307.584 
" style="fill: none; stroke: #000000; stroke-width: 0.8; stroke-linejoin: miter; stroke-linecap: square"/>
   </g>
   <g id="patch_6">
    <path d="M 57.6 41.472 
L 414.72 41.472 
" style="fill: none; stroke: #000000; stroke-width: 0.8; stroke-linejoin: miter; stroke-linecap: square"/>
   </g>
   <g id="text_15">
    <!-- Velocities at the final time -->
    <g transform="translate(116.81 35.472) scale(0.16 -0.16)">
     <defs>
      <path id="DejaVuSans-Bold-56" d="M 31 4666 
L 1241 4666 
L 2478 1222 
L 3713 4666 
L 4922 4666 
L 3194 0 
L 1759 0 
L 31 4666 
z
" transform="scale(0.015625)"/>
      <path id="DejaVuSans-Bold-65" d="M 4031 1759 
L 4031 1441 
L 1416 1441 
Q 1456 1047 1700 850 
Q 1944 653 2381 653 
Q 2734 653 3104 758 
Q 3475 863 3866 1075 
L 3866 213 
Q 3469 63 3072 -14 
Q 2675 -91 2278 -91 
Q 1328 -91 801 392 
Q 275 875 275 1747 
Q 275 2603 792 3093 
Q 1309 3584 2216 3584 
Q 3041 3584 3536 3087 
Q 4031 2591 4031 1759 
z
M 2881 2131 
Q 2881 2450 2695 2645 
Q 2509 2841 2209 2841 
Q 1884 2841 1681 2658 
Q 1478 2475 1428 2131 
L 2881 2131 
z
" transform="scale(0.015625)"/>
      <path id="DejaVuSans-Bold-6c" d="M 538 4863 
L 1656 4863 
L 1656 0 
L 538 0 
L 538 4863 
z
" transform="scale(0.015625)"/>
      <path id="DejaVuSans-Bold-6f" d="M 2203 2784 
Q 1831 2784 1636 2517 
Q 1441 2250 1441 1747 
Q 1441 1244 1636 976 
Q 1831 709 2203 709 
Q 2569 709 2762 976 
Q 2956 1244 2956 1747 
Q 2956 2250 2762 2517 
Q 2569 2784 2203 2784 
z
M 2203 3584 
Q 3106 3584 3614 3096 
Q 4122 2609 4122 1747 
Q 4122 884 3614 396 
Q 3106 -91 2203 -91 
Q 1297 -91 786 396 
Q 275 884 275 1747 
Q 275 2609 786 3096 
Q 1297 3584 2203 3584 
z
" transform="scale(0.015625)"/>
      <path id="DejaVuSans-Bold-63" d="M 3366 3391 
L 3366 2478 
Q 3138 2634 2908 2709 
Q 2678 2784 2431 2784 
Q 1963 2784 1702 2511 
Q 1441 2238 1441 1747 
Q 1441 1256 1702 982 
Q 1963 709 2431 709 
Q 2694 709 2930 787 
Q 3166 866 3366 1019 
L 3366 103 
Q 3103 6 2833 -42 
Q 2563 -91 2291 -91 
Q 1344 -91 809 395 
Q 275 881 275 1747 
Q 275 2613 809 3098 
Q 1344 3584 2291 3584 
Q 2566 3584 2833 3536 
Q 3100 3488 3366 3391 
z
" transform="scale(0.015625)"/>
      <path id="DejaVuSans-Bold-69" d="M 538 3500 
L 1656 3500 
L 1656 0 
L 538 0 
L 538 3500 
z
M 538 4863 
L 1656 4863 
L 1656 3950 
L 538 3950 
L 538 4863 
z
" transform="scale(0.015625)"/>
      <path id="DejaVuSans-Bold-74" d="M 1759 4494 
L 1759 3500 
L 2913 3500 
L 2913 2700 
L 1759 2700 
L 1759 1216 
Q 1759 972 1856 886 
Q 1953 800 2241 800 
L 2816 800 
L 2816 0 
L 1856 0 
Q 1194 0 917 276 
Q 641 553 641 1216 
L 641 2700 
L 84 2700 
L 84 3500 
L 641 3500 
L 641 4494 
L 1759 4494 
z
" transform="scale(0.015625)"/>
      <path id="DejaVuSans-Bold-73" d="M 3272 3391 
L 3272 2541 
Q 2913 2691 2578 2766 
Q 2244 2841 1947 2841 
Q 1628 2841 1473 2761 
Q 1319 2681 1319 2516 
Q 1319 2381 1436 2309 
Q 1553 2238 1856 2203 
L 2053 2175 
Q 2913 2066 3209 1816 
Q 3506 1566 3506 1031 
Q 3506 472 3093 190 
Q 2681 -91 1863 -91 
Q 1516 -91 1145 -36 
Q 775 19 384 128 
L 384 978 
Q 719 816 1070 734 
Q 1422 653 1784 653 
Q 2113 653 2278 743 
Q 2444 834 2444 1013 
Q 2444 1163 2330 1236 
Q 2216 1309 1875 1350 
L 1678 1375 
Q 931 1469 631 1722 
Q 331 1975 331 2491 
Q 331 3047 712 3315 
Q 1094 3584 1881 3584 
Q 2191 3584 2531 3537 
Q 2872 3491 3272 3391 
z
" transform="scale(0.015625)"/>
      <path id="DejaVuSans-Bold-20" transform="scale(0.015625)"/>
      <path id="DejaVuSans-Bold-61" d="M 2106 1575 
Q 1756 1575 1579 1456 
Q 1403 1338 1403 1106 
Q 1403 894 1545 773 
Q 1688 653 1941 653 
Q 2256 653 2472 879 
Q 2688 1106 2688 1447 
L 2688 1575 
L 2106 1575 
z
M 3816 1997 
L 3816 0 
L 2688 0 
L 2688 519 
Q 2463 200 2181 54 
Q 1900 -91 1497 -91 
Q 953 -91 614 226 
Q 275 544 275 1050 
Q 275 1666 698 1953 
Q 1122 2241 2028 2241 
L 2688 2241 
L 2688 2328 
Q 2688 2594 2478 2717 
Q 2269 2841 1825 2841 
Q 1466 2841 1156 2769 
Q 847 2697 581 2553 
L 581 3406 
Q 941 3494 1303 3539 
Q 1666 3584 2028 3584 
Q 2975 3584 3395 3211 
Q 3816 2838 3816 1997 
z
" transform="scale(0.015625)"/>
      <path id="DejaVuSans-Bold-68" d="M 4056 2131 
L 4056 0 
L 2931 0 
L 2931 347 
L 2931 1625 
Q 2931 2084 2911 2256 
Q 2891 2428 2841 2509 
Q 2775 2619 2662 2680 
Q 2550 2741 2406 2741 
Q 2056 2741 1856 2470 
Q 1656 2200 1656 1722 
L 1656 0 
L 538 0 
L 538 4863 
L 1656 4863 
L 1656 2988 
Q 1909 3294 2193 3439 
Q 2478 3584 2822 3584 
Q 3428 3584 3742 3212 
Q 4056 2841 4056 2131 
z
" transform="scale(0.015625)"/>
      <path id="DejaVuSans-Bold-66" d="M 2841 4863 
L 2841 4128 
L 2222 4128 
Q 1984 4128 1890 4042 
Q 1797 3956 1797 3744 
L 1797 3500 
L 2753 3500 
L 2753 2700 
L 1797 2700 
L 1797 0 
L 678 0 
L 678 2700 
L 122 2700 
L 122 3500 
L 678 3500 
L 678 3744 
Q 678 4316 997 4589 
Q 1316 4863 1984 4863 
L 2841 4863 
z
" transform="scale(0.015625)"/>
      <path id="DejaVuSans-Bold-6e" d="M 4056 2131 
L 4056 0 
L 2931 0 
L 2931 347 
L 2931 1631 
Q 2931 2084 2911 2256 
Q 2891 2428 2841 2509 
Q 2775 2619 2662 2680 
Q 2550 2741 2406 2741 
Q 2056 2741 1856 2470 
Q 1656 2200 1656 1722 
L 1656 0 
L 538 0 
L 538 3500 
L 1656 3500 
L 1656 2988 
Q 1909 3294 2193 3439 
Q 2478 3584 2822 3584 
Q 3428 3584 3742 3212 
Q 4056 2841 4056 2131 
z
" transform="scale(0.015625)"/>
      <path id="DejaVuSans-Bold-6d" d="M 3781 2919 
Q 3994 3244 4286 3414 
Q 4578 3584 4928 3584 
Q 5531 3584 5847 3212 
Q 6163 2841 6163 2131 
L 6163 0 
L 5038 0 
L 5038 1825 
Q 5041 1866 5042 1909 
Q 5044 1953 5044 2034 
Q 5044 2406 4934 2573 
Q 4825 2741 4581 2741 
Q 4263 2741 4089 2478 
Q 3916 2216 3909 1719 
L 3909 0 
L 2784 0 
L 2784 1825 
Q 2784 2406 2684 2573 
Q 2584 2741 2328 2741 
Q 2006 2741 1831 2477 
Q 1656 2213 1656 1722 
L 1656 0 
L 531 0 
L 531 3500 
L 1656 3500 
L 1656 2988 
Q 1863 3284 2130 3434 
Q 2397 3584 2719 3584 
Q 3081 3584 3359 3409 
Q 3638 3234 3781 2919 
z
" transform="scale(0.015625)"/>
     </defs>
     <use xlink:href="#DejaVuSans-Bold-56"/>
     <use xlink:href="#DejaVuSans-Bold-65" transform="translate(71.892578 0)"/>
     <use xlink:href="#DejaVuSans-Bold-6c" transform="translate(139.714844 0)"/>
     <use xlink:href="#DejaVuSans-Bold-6f" transform="translate(173.992188 0)"/>
     <use xlink:href="#DejaVuSans-Bold-63" transform="translate(242.693359 0)"/>
     <use xlink:href="#DejaVuSans-Bold-69" transform="translate(301.970703 0)"/>
     <use xlink:href="#DejaVuSans-Bold-74" transform="translate(336.248047 0)"/>
     <use xlink:href="#DejaVuSans-Bold-69" transform="translate(384.050781 0)"/>
     <use xlink:href="#DejaVuSans-Bold-65" transform="translate(418.328125 0)"/>
     <use xlink:href="#DejaVuSans-Bold-73" transform="translate(486.150391 0)"/>
     <use xlink:href="#DejaVuSans-Bold-20" transform="translate(545.671875 0)"/>
     <use xlink:href="#DejaVuSans-Bold-61" transform="translate(580.486328 0)"/>
     <use xlink:href="#DejaVuSans-Bold-74" transform="translate(647.966797 0)"/>
     <use xlink:href="#DejaVuSans-Bold-20" transform="translate(695.769531 0)"/>
     <use xlink:href="#DejaVuSans-Bold-74" transform="translate(730.583984 0)"/>
     <use xlink:href="#DejaVuSans-Bold-68" transform="translate(778.386719 0)"/>
     <use xlink:href="#DejaVuSans-Bold-65" transform="translate(849.578125 0)"/>
     <use xlink:href="#DejaVuSans-Bold-20" transform="translate(917.400391 0)"/>
     <use xlink:href="#DejaVuSans-Bold-66" transform="translate(952.214844 0)"/>
     <use xlink:href="#DejaVuSans-Bold-69" transform="translate(995.720703 0)"/>
     <use xlink:href="#DejaVuSans-Bold-6e" transform="translate(1029.998047 0)"/>
     <use xlink:href="#DejaVuSans-Bold-61" transform="translate(1101.189453 0)"/>
     <use xlink:href="#DejaVuSans-Bold-6c" transform="translate(1168.669922 0)"/>
     <use xlink:href="#DejaVuSans-Bold-20" transform="translate(1202.947266 0)"/>
     <use xlink:href="#DejaVuSans-Bold-74" transform="translate(1237.761719 0)"/>
     <use xlink:href="#DejaVuSans-Bold-69" transform="translate(1285.564453 0)"/>
     <use xlink:href="#DejaVuSans-Bold-6d" transform="translate(1319.841797 0)"/>
     <use xlink:href="#DejaVuSans-Bold-65" transform="translate(1424.041016 0)"/>
    </g>
   </g>
   <g id="legend_1">
    <g id="patch_7">
     <path d="M 64.6 78.82825 
L 144.053125 78.82825 
Q 146.053125 78.82825 146.053125 76.82825 
L 146.053125 48.472 
Q 146.053125 46.472 144.053125 46.472 
L 64.6 46.472 
Q 62.6 46.472 62.6 48.472 
L 62.6 76.82825 
Q 62.6 78.82825 64.6 78.82825 
z
" style="fill: #ffffff; opacity: 0.8; stroke: #cccccc; stroke-linejoin: miter"/>
    </g>
    <g id="PathCollection_2">
     <g>
      <use xlink:href="#m5ebdc08440" x="76.6" y="55.445437" style="fill: #0000ff; stroke: #0000ff"/>
     </g>
    </g>
    <g id="text_16">
     <!-- Positions -->
     <g transform="translate(94.6 58.070437) scale(0.1 -0.1)">
      <defs>
       <path id="DejaVuSans-50" d="M 1259 4147 
L 1259 2394 
L 2053 2394 
Q 2494 2394 2734 2622 
Q 2975 2850 2975 3272 
Q 2975 3691 2734 3919 
Q 2494 4147 2053 4147 
L 1259 4147 
z
M 628 4666 
L 2053 4666 
Q 2838 4666 3239 4311 
Q 3641 3956 3641 3272 
Q 3641 2581 3239 2228 
Q 2838 1875 2053 1875 
L 1259 1875 
L 1259 0 
L 628 0 
L 628 4666 
z
" transform="scale(0.015625)"/>
       <path id="DejaVuSans-6f" d="M 1959 3097 
Q 1497 3097 1228 2736 
Q 959 2375 959 1747 
Q 959 1119 1226 758 
Q 1494 397 1959 397 
Q 2419 397 2687 759 
Q 2956 1122 2956 1747 
Q 2956 2369 2687 2733 
Q 2419 3097 1959 3097 
z
M 1959 3584 
Q 2709 3584 3137 3096 
Q 3566 2609 3566 1747 
Q 3566 888 3137 398 
Q 2709 -91 1959 -91 
Q 1206 -91 779 398 
Q 353 888 353 1747 
Q 353 2609 779 3096 
Q 1206 3584 1959 3584 
z
" transform="scale(0.015625)"/>
       <path id="DejaVuSans-73" d="M 2834 3397 
L 2834 2853 
Q 2591 2978 2328 3040 
Q 2066 3103 1784 3103 
Q 1356 3103 1142 2972 
Q 928 2841 928 2578 
Q 928 2378 1081 2264 
Q 1234 2150 1697 2047 
L 1894 2003 
Q 2506 1872 2764 1633 
Q 3022 1394 3022 966 
Q 3022 478 2636 193 
Q 2250 -91 1575 -91 
Q 1294 -91 989 -36 
Q 684 19 347 128 
L 347 722 
Q 666 556 975 473 
Q 1284 391 1588 391 
Q 1994 391 2212 530 
Q 2431 669 2431 922 
Q 2431 1156 2273 1281 
Q 2116 1406 1581 1522 
L 1381 1569 
Q 847 1681 609 1914 
Q 372 2147 372 2553 
Q 372 3047 722 3315 
Q 1072 3584 1716 3584 
Q 2034 3584 2315 3537 
Q 2597 3491 2834 3397 
z
" transform="scale(0.015625)"/>
       <path id="DejaVuSans-69" d="M 603 3500 
L 1178 3500 
L 1178 0 
L 603 0 
L 603 3500 
z
M 603 4863 
L 1178 4863 
L 1178 4134 
L 603 4134 
L 603 4863 
z
" transform="scale(0.015625)"/>
       <path id="DejaVuSans-74" d="M 1172 4494 
L 1172 3500 
L 2356 3500 
L 2356 3053 
L 1172 3053 
L 1172 1153 
Q 1172 725 1289 603 
Q 1406 481 1766 481 
L 2356 481 
L 2356 0 
L 1766 0 
Q 1100 0 847 248 
Q 594 497 594 1153 
L 594 3053 
L 172 3053 
L 172 3500 
L 594 3500 
L 594 4494 
L 1172 4494 
z
" transform="scale(0.015625)"/>
       <path id="DejaVuSans-6e" d="M 3513 2113 
L 3513 0 
L 2938 0 
L 2938 2094 
Q 2938 2591 2744 2837 
Q 2550 3084 2163 3084 
Q 1697 3084 1428 2787 
Q 1159 2491 1159 1978 
L 1159 0 
L 581 0 
L 581 3500 
L 1159 3500 
L 1159 2956 
Q 1366 3272 1645 3428 
Q 1925 3584 2291 3584 
Q 2894 3584 3203 3211 
Q 3513 2838 3513 2113 
z
" transform="scale(0.015625)"/>
      </defs>
      <use xlink:href="#DejaVuSans-50"/>
      <use xlink:href="#DejaVuSans-6f" transform="translate(56.677734 0)"/>
      <use xlink:href="#DejaVuSans-73" transform="translate(117.859375 0)"/>
      <use xlink:href="#DejaVuSans-69" transform="translate(169.958984 0)"/>
      <use xlink:href="#DejaVuSans-74" transform="translate(197.742188 0)"/>
      <use xlink:href="#DejaVuSans-69" transform="translate(236.951172 0)"/>
      <use xlink:href="#DejaVuSans-6f" transform="translate(264.734375 0)"/>
      <use xlink:href="#DejaVuSans-6e" transform="translate(325.916016 0)"/>
      <use xlink:href="#DejaVuSans-73" transform="translate(389.294922 0)"/>
     </g>
    </g>
    <g id="patch_8">
     <path d="M 66.6 72.748562 
L 86.6 72.748562 
L 86.6 65.748562 
L 66.6 65.748562 
z
" style="fill: #ff0000"/>
    </g>
    <g id="text_17">
     <!-- Velocities -->
     <g transform="translate(94.6 72.748562) scale(0.1 -0.1)">
      <defs>
       <path id="DejaVuSans-56" d="M 1831 0 
L 50 4666 
L 709 4666 
L 2188 738 
L 3669 4666 
L 4325 4666 
L 2547 0 
L 1831 0 
z
" transform="scale(0.015625)"/>
       <path id="DejaVuSans-65" d="M 3597 1894 
L 3597 1613 
L 953 1613 
Q 991 1019 1311 708 
Q 1631 397 2203 397 
Q 2534 397 2845 478 
Q 3156 559 3463 722 
L 3463 178 
Q 3153 47 2828 -22 
Q 2503 -91 2169 -91 
Q 1331 -91 842 396 
Q 353 884 353 1716 
Q 353 2575 817 3079 
Q 1281 3584 2069 3584 
Q 2775 3584 3186 3129 
Q 3597 2675 3597 1894 
z
M 3022 2063 
Q 3016 2534 2758 2815 
Q 2500 3097 2075 3097 
Q 1594 3097 1305 2825 
Q 1016 2553 972 2059 
L 3022 2063 
z
" transform="scale(0.015625)"/>
       <path id="DejaVuSans-6c" d="M 603 4863 
L 1178 4863 
L 1178 0 
L 603 0 
L 603 4863 
z
" transform="scale(0.015625)"/>
       <path id="DejaVuSans-63" d="M 3122 3366 
L 3122 2828 
Q 2878 2963 2633 3030 
Q 2388 3097 2138 3097 
Q 1578 3097 1268 2742 
Q 959 2388 959 1747 
Q 959 1106 1268 751 
Q 1578 397 2138 397 
Q 2388 397 2633 464 
Q 2878 531 3122 666 
L 3122 134 
Q 2881 22 2623 -34 
Q 2366 -91 2075 -91 
Q 1284 -91 818 406 
Q 353 903 353 1747 
Q 353 2603 823 3093 
Q 1294 3584 2113 3584 
Q 2378 3584 2631 3529 
Q 2884 3475 3122 3366 
z
" transform="scale(0.015625)"/>
      </defs>
      <use xlink:href="#DejaVuSans-56"/>
      <use xlink:href="#DejaVuSans-65" transform="translate(60.658203 0)"/>
      <use xlink:href="#DejaVuSans-6c" transform="translate(122.181641 0)"/>
      <use xlink:href="#DejaVuSans-6f" transform="translate(149.964844 0)"/>
      <use xlink:href="#DejaVuSans-63" transform="translate(211.146484 0)"/>
      <use xlink:href="#DejaVuSans-69" transform="translate(266.126953 0)"/>
      <use xlink:href="#DejaVuSans-74" transform="translate(293.910156 0)"/>
      <use xlink:href="#DejaVuSans-69" transform="translate(333.119141 0)"/>
      <use xlink:href="#DejaVuSans-65" transform="translate(360.902344 0)"/>
      <use xlink:href="#DejaVuSans-73" transform="translate(422.425781 0)"/>
     </g>
    </g>
   </g>
  </g>
 </g>
 <defs>
  <clipPath id="p6524ca9b6c">
   <rect x="57.6" y="41.472" width="357.12" height="266.112"/>
  </clipPath>
 </defs>
</svg>
