<?xml version="1.0" encoding="utf-8" standalone="no"?>
<!DOCTYPE svg PUBLIC "-//W3C//DTD SVG 1.1//EN"
  "http://www.w3.org/Graphics/SVG/1.1/DTD/svg11.dtd">
<svg xmlns:xlink="http://www.w3.org/1999/xlink" width="576pt" height="360pt" viewBox="0 0 576 360" xmlns="http://www.w3.org/2000/svg" version="1.1">
 <metadata>
  <rdf:RDF xmlns:dc="http://purl.org/dc/elements/1.1/" xmlns:cc="http://creativecommons.org/ns#" xmlns:rdf="http://www.w3.org/1999/02/22-rdf-syntax-ns#">
   <cc:Work>
    <dc:type rdf:resource="http://purl.org/dc/dcmitype/StillImage"/>
    <dc:date>2025-05-05T20:54:28.198858</dc:date>
    <dc:format>image/svg+xml</dc:format>
    <dc:creator>
     <cc:Agent>
      <dc:title>Matplotlib v3.10.1, https://matplotlib.org/</dc:title>
     </cc:Agent>
    </dc:creator>
   </cc:Work>
  </rdf:RDF>
 </metadata>
 <defs>
  <style type="text/css">*{stroke-linejoin: round; stroke-linecap: butt}</style>
 </defs>
 <g id="figure_1">
  <g id="patch_1">
   <path d="M 0 360 
L 576 360 
L 576 0 
L 0 0 
z
" style="fill: #ffffff"/>
  </g>
  <g id="axes_1">
   <g id="patch_2">
    <path d="M 62.39 314.728 
L 188.4 314.728 
L 188.4 28.32 
L 62.39 28.32 
z
" style="fill: #ffffff"/>
   </g>
   <g id="matplotlib.axis_1">
    <g id="xtick_1">
     <g id="line2d_1">
      <defs>
       <path id="mf24b254bd8" d="M 0 0 
L 0 3.5 
" style="stroke: #000000; stroke-width: 0.8"/>
      </defs>
      <g>
       <use xlink:href="#mf24b254bd8" x="62.39" y="314.728" style="stroke: #000000; stroke-width: 0.8"/>
      </g>
     </g>
     <g id="text_1">
      <!-- $\mathdefault{10^{0}}$ -->
      <g transform="translate(53.59 329.326437) scale(0.1 -0.1)">
       <defs>
        <path id="DejaVuSans-31" d="M 794 531 
L 1825 531 
L 1825 4091 
L 703 3866 
L 703 4441 
L 1819 4666 
L 2450 4666 
L 2450 531 
L 3481 531 
L 3481 0 
L 794 0 
L 794 531 
z
" transform="scale(0.015625)"/>
        <path id="DejaVuSans-30" d="M 2034 4250 
Q 1547 4250 1301 3770 
Q 1056 3291 1056 2328 
Q 1056 1369 1301 889 
Q 1547 409 2034 409 
Q 2525 409 2770 889 
Q 3016 1369 3016 2328 
Q 3016 3291 2770 3770 
Q 2525 4250 2034 4250 
z
M 2034 4750 
Q 2819 4750 3233 4129 
Q 3647 3509 3647 2328 
Q 3647 1150 3233 529 
Q 2819 -91 2034 -91 
Q 1250 -91 836 529 
Q 422 1150 422 2328 
Q 422 3509 836 4129 
Q 1250 4750 2034 4750 
z
" transform="scale(0.015625)"/>
       </defs>
       <use xlink:href="#DejaVuSans-31" transform="translate(0 0.765625)"/>
       <use xlink:href="#DejaVuSans-30" transform="translate(63.623047 0.765625)"/>
       <use xlink:href="#DejaVuSans-30" transform="translate(128.203125 39.046875) scale(0.7)"/>
      </g>
     </g>
    </g>
    <g id="xtick_2">
     <g id="line2d_2">
      <g>
       <use xlink:href="#mf24b254bd8" x="96.45624" y="314.728" style="stroke: #000000; stroke-width: 0.8"/>
      </g>
     </g>
     <g id="text_2">
      <!-- $\mathdefault{10^{1}}$ -->
      <g transform="translate(87.65624 329.326437) scale(0.1 -0.1)">
       <use xlink:href="#DejaVuSans-31" transform="translate(0 0.684375)"/>
       <use xlink:href="#DejaVuSans-30" transform="translate(63.623047 0.684375)"/>
       <use xlink:href="#DejaVuSans-31" transform="translate(128.203125 38.965625) scale(0.7)"/>
      </g>
     </g>
    </g>
    <g id="xtick_3">
     <g id="line2d_3">
      <g>
       <use xlink:href="#mf24b254bd8" x="130.52248" y="314.728" style="stroke: #000000; stroke-width: 0.8"/>
      </g>
     </g>
     <g id="text_3">
      <!-- $\mathdefault{10^{2}}$ -->
      <g transform="translate(121.72248 329.326437) scale(0.1 -0.1)">
       <defs>
        <path id="DejaVuSans-32" d="M 1228 531 
L 3431 531 
L 3431 0 
L 469 0 
L 469 531 
Q 828 903 1448 1529 
Q 2069 2156 2228 2338 
Q 2531 2678 2651 2914 
Q 2772 3150 2772 3378 
Q 2772 3750 2511 3984 
Q 2250 4219 1831 4219 
Q 1534 4219 1204 4116 
Q 875 4013 500 3803 
L 500 4441 
Q 881 4594 1212 4672 
Q 1544 4750 1819 4750 
Q 2544 4750 2975 4387 
Q 3406 4025 3406 3419 
Q 3406 3131 3298 2873 
Q 3191 2616 2906 2266 
Q 2828 2175 2409 1742 
Q 1991 1309 1228 531 
z
" transform="scale(0.015625)"/>
       </defs>
       <use xlink:href="#DejaVuSans-31" transform="translate(0 0.765625)"/>
       <use xlink:href="#DejaVuSans-30" transform="translate(63.623047 0.765625)"/>
       <use xlink:href="#DejaVuSans-32" transform="translate(128.203125 39.046875) scale(0.7)"/>
      </g>
     </g>
    </g>
    <g id="xtick_4">
     <g id="line2d_4">
      <g>
       <use xlink:href="#mf24b254bd8" x="164.58872" y="314.728" style="stroke: #000000; stroke-width: 0.8"/>
      </g>
     </g>
     <g id="text_4">
      <!-- $\mathdefault{10^{3}}$ -->
      <g transform="translate(155.78872 329.326437) scale(0.1 -0.1)">
       <defs>
        <path id="DejaVuSans-33" d="M 2597 2516 
Q 3050 2419 3304 2112 
Q 3559 1806 3559 1356 
Q 3559 666 3084 287 
Q 2609 -91 1734 -91 
Q 1441 -91 1130 -33 
Q 819 25 488 141 
L 488 750 
Q 750 597 1062 519 
Q 1375 441 1716 441 
Q 2309 441 2620 675 
Q 2931 909 2931 1356 
Q 2931 1769 2642 2001 
Q 2353 2234 1838 2234 
L 1294 2234 
L 1294 2753 
L 1863 2753 
Q 2328 2753 2575 2939 
Q 2822 3125 2822 3475 
Q 2822 3834 2567 4026 
Q 2313 4219 1838 4219 
Q 1578 4219 1281 4162 
Q 984 4106 628 3988 
L 628 4550 
Q 988 4650 1302 4700 
Q 1616 4750 1894 4750 
Q 2613 4750 3031 4423 
Q 3450 4097 3450 3541 
Q 3450 3153 3228 2886 
Q 3006 2619 2597 2516 
z
" transform="scale(0.015625)"/>
       </defs>
       <use xlink:href="#DejaVuSans-31" transform="translate(0 0.765625)"/>
       <use xlink:href="#DejaVuSans-30" transform="translate(63.623047 0.765625)"/>
       <use xlink:href="#DejaVuSans-33" transform="translate(128.203125 39.046875) scale(0.7)"/>
      </g>
     </g>
    </g>
    <g id="xtick_5">
     <g id="line2d_5">
      <defs>
       <path id="m95abbd2a8f" d="M 0 0 
L 0 2 
" style="stroke: #000000; stroke-width: 0.6"/>
      </defs>
      <g>
       <use xlink:href="#m95abbd2a8f" x="72.64496" y="314.728" style="stroke: #000000; stroke-width: 0.6"/>
      </g>
     </g>
    </g>
    <g id="xtick_6">
     <g id="line2d_6">
      <g>
       <use xlink:href="#m95abbd2a8f" x="78.643727" y="314.728" style="stroke: #000000; stroke-width: 0.6"/>
      </g>
     </g>
    </g>
    <g id="xtick_7">
     <g id="line2d_7">
      <g>
       <use xlink:href="#m95abbd2a8f" x="82.89992" y="314.728" style="stroke: #000000; stroke-width: 0.6"/>
      </g>
     </g>
    </g>
    <g id="xtick_8">
     <g id="line2d_8">
      <g>
       <use xlink:href="#m95abbd2a8f" x="86.20128" y="314.728" style="stroke: #000000; stroke-width: 0.6"/>
      </g>
     </g>
    </g>
    <g id="xtick_9">
     <g id="line2d_9">
      <g>
       <use xlink:href="#m95abbd2a8f" x="88.898687" y="314.728" style="stroke: #000000; stroke-width: 0.6"/>
      </g>
     </g>
    </g>
    <g id="xtick_10">
     <g id="line2d_10">
      <g>
       <use xlink:href="#m95abbd2a8f" x="91.179313" y="314.728" style="stroke: #000000; stroke-width: 0.6"/>
      </g>
     </g>
    </g>
    <g id="xtick_11">
     <g id="line2d_11">
      <g>
       <use xlink:href="#m95abbd2a8f" x="93.15488" y="314.728" style="stroke: #000000; stroke-width: 0.6"/>
      </g>
     </g>
    </g>
    <g id="xtick_12">
     <g id="line2d_12">
      <g>
       <use xlink:href="#m95abbd2a8f" x="94.897454" y="314.728" style="stroke: #000000; stroke-width: 0.6"/>
      </g>
     </g>
    </g>
    <g id="xtick_13">
     <g id="line2d_13">
      <g>
       <use xlink:href="#m95abbd2a8f" x="106.7112" y="314.728" style="stroke: #000000; stroke-width: 0.6"/>
      </g>
     </g>
    </g>
    <g id="xtick_14">
     <g id="line2d_14">
      <g>
       <use xlink:href="#m95abbd2a8f" x="112.709967" y="314.728" style="stroke: #000000; stroke-width: 0.6"/>
      </g>
     </g>
    </g>
    <g id="xtick_15">
     <g id="line2d_15">
      <g>
       <use xlink:href="#m95abbd2a8f" x="116.96616" y="314.728" style="stroke: #000000; stroke-width: 0.6"/>
      </g>
     </g>
    </g>
    <g id="xtick_16">
     <g id="line2d_16">
      <g>
       <use xlink:href="#m95abbd2a8f" x="120.26752" y="314.728" style="stroke: #000000; stroke-width: 0.6"/>
      </g>
     </g>
    </g>
    <g id="xtick_17">
     <g id="line2d_17">
      <g>
       <use xlink:href="#m95abbd2a8f" x="122.964927" y="314.728" style="stroke: #000000; stroke-width: 0.6"/>
      </g>
     </g>
    </g>
    <g id="xtick_18">
     <g id="line2d_18">
      <g>
       <use xlink:href="#m95abbd2a8f" x="125.245553" y="314.728" style="stroke: #000000; stroke-width: 0.6"/>
      </g>
     </g>
    </g>
    <g id="xtick_19">
     <g id="line2d_19">
      <g>
       <use xlink:href="#m95abbd2a8f" x="127.22112" y="314.728" style="stroke: #000000; stroke-width: 0.6"/>
      </g>
     </g>
    </g>
    <g id="xtick_20">
     <g id="line2d_20">
      <g>
       <use xlink:href="#m95abbd2a8f" x="128.963694" y="314.728" style="stroke: #000000; stroke-width: 0.6"/>
      </g>
     </g>
    </g>
    <g id="xtick_21">
     <g id="line2d_21">
      <g>
       <use xlink:href="#m95abbd2a8f" x="140.77744" y="314.728" style="stroke: #000000; stroke-width: 0.6"/>
      </g>
     </g>
    </g>
    <g id="xtick_22">
     <g id="line2d_22">
      <g>
       <use xlink:href="#m95abbd2a8f" x="146.776207" y="314.728" style="stroke: #000000; stroke-width: 0.6"/>
      </g>
     </g>
    </g>
    <g id="xtick_23">
     <g id="line2d_23">
      <g>
       <use xlink:href="#m95abbd2a8f" x="151.0324" y="314.728" style="stroke: #000000; stroke-width: 0.6"/>
      </g>
     </g>
    </g>
    <g id="xtick_24">
     <g id="line2d_24">
      <g>
       <use xlink:href="#m95abbd2a8f" x="154.33376" y="314.728" style="stroke: #000000; stroke-width: 0.6"/>
      </g>
     </g>
    </g>
    <g id="xtick_25">
     <g id="line2d_25">
      <g>
       <use xlink:href="#m95abbd2a8f" x="157.031167" y="314.728" style="stroke: #000000; stroke-width: 0.6"/>
      </g>
     </g>
    </g>
    <g id="xtick_26">
     <g id="line2d_26">
      <g>
       <use xlink:href="#m95abbd2a8f" x="159.311793" y="314.728" style="stroke: #000000; stroke-width: 0.6"/>
      </g>
     </g>
    </g>
    <g id="xtick_27">
     <g id="line2d_27">
      <g>
       <use xlink:href="#m95abbd2a8f" x="161.28736" y="314.728" style="stroke: #000000; stroke-width: 0.6"/>
      </g>
     </g>
    </g>
    <g id="xtick_28">
     <g id="line2d_28">
      <g>
       <use xlink:href="#m95abbd2a8f" x="163.029934" y="314.728" style="stroke: #000000; stroke-width: 0.6"/>
      </g>
     </g>
    </g>
    <g id="xtick_29">
     <g id="line2d_29">
      <g>
       <use xlink:href="#m95abbd2a8f" x="174.84368" y="314.728" style="stroke: #000000; stroke-width: 0.6"/>
      </g>
     </g>
    </g>
    <g id="xtick_30">
     <g id="line2d_30">
      <g>
       <use xlink:href="#m95abbd2a8f" x="180.842447" y="314.728" style="stroke: #000000; stroke-width: 0.6"/>
      </g>
     </g>
    </g>
    <g id="xtick_31">
     <g id="line2d_31">
      <g>
       <use xlink:href="#m95abbd2a8f" x="185.09864" y="314.728" style="stroke: #000000; stroke-width: 0.6"/>
      </g>
     </g>
    </g>
    <g id="xtick_32">
     <g id="line2d_32">
      <g>
       <use xlink:href="#m95abbd2a8f" x="188.4" y="314.728" style="stroke: #000000; stroke-width: 0.6"/>
      </g>
     </g>
    </g>
    <g id="text_5">
     <!-- timestep -->
     <g transform="translate(103.283281 343.004562) scale(0.1 -0.1)">
      <defs>
       <path id="DejaVuSans-74" d="M 1172 4494 
L 1172 3500 
L 2356 3500 
L 2356 3053 
L 1172 3053 
L 1172 1153 
Q 1172 725 1289 603 
Q 1406 481 1766 481 
L 2356 481 
L 2356 0 
L 1766 0 
Q 1100 0 847 248 
Q 594 497 594 1153 
L 594 3053 
L 172 3053 
L 172 3500 
L 594 3500 
L 594 4494 
L 1172 4494 
z
" transform="scale(0.015625)"/>
       <path id="DejaVuSans-69" d="M 603 3500 
L 1178 3500 
L 1178 0 
L 603 0 
L 603 3500 
z
M 603 4863 
L 1178 4863 
L 1178 4134 
L 603 4134 
L 603 4863 
z
" transform="scale(0.015625)"/>
       <path id="DejaVuSans-6d" d="M 3328 2828 
Q 3544 3216 3844 3400 
Q 4144 3584 4550 3584 
Q 5097 3584 5394 3201 
Q 5691 2819 5691 2113 
L 5691 0 
L 5113 0 
L 5113 2094 
Q 5113 2597 4934 2840 
Q 4756 3084 4391 3084 
Q 3944 3084 3684 2787 
Q 3425 2491 3425 1978 
L 3425 0 
L 2847 0 
L 2847 2094 
Q 2847 2600 2669 2842 
Q 2491 3084 2119 3084 
Q 1678 3084 1418 2786 
Q 1159 2488 1159 1978 
L 1159 0 
L 581 0 
L 581 3500 
L 1159 3500 
L 1159 2956 
Q 1356 3278 1631 3431 
Q 1906 3584 2284 3584 
Q 2666 3584 2933 3390 
Q 3200 3197 3328 2828 
z
" transform="scale(0.015625)"/>
       <path id="DejaVuSans-65" d="M 3597 1894 
L 3597 1613 
L 953 1613 
Q 991 1019 1311 708 
Q 1631 397 2203 397 
Q 2534 397 2845 478 
Q 3156 559 3463 722 
L 3463 178 
Q 3153 47 2828 -22 
Q 2503 -91 2169 -91 
Q 1331 -91 842 396 
Q 353 884 353 1716 
Q 353 2575 817 3079 
Q 1281 3584 2069 3584 
Q 2775 3584 3186 3129 
Q 3597 2675 3597 1894 
z
M 3022 2063 
Q 3016 2534 2758 2815 
Q 2500 3097 2075 3097 
Q 1594 3097 1305 2825 
Q 1016 2553 972 2059 
L 3022 2063 
z
" transform="scale(0.015625)"/>
       <path id="DejaVuSans-73" d="M 2834 3397 
L 2834 2853 
Q 2591 2978 2328 3040 
Q 2066 3103 1784 3103 
Q 1356 3103 1142 2972 
Q 928 2841 928 2578 
Q 928 2378 1081 2264 
Q 1234 2150 1697 2047 
L 1894 2003 
Q 2506 1872 2764 1633 
Q 3022 1394 3022 966 
Q 3022 478 2636 193 
Q 2250 -91 1575 -91 
Q 1294 -91 989 -36 
Q 684 19 347 128 
L 347 722 
Q 666 556 975 473 
Q 1284 391 1588 391 
Q 1994 391 2212 530 
Q 2431 669 2431 922 
Q 2431 1156 2273 1281 
Q 2116 1406 1581 1522 
L 1381 1569 
Q 847 1681 609 1914 
Q 372 2147 372 2553 
Q 372 3047 722 3315 
Q 1072 3584 1716 3584 
Q 2034 3584 2315 3537 
Q 2597 3491 2834 3397 
z
" transform="scale(0.015625)"/>
       <path id="DejaVuSans-70" d="M 1159 525 
L 1159 -1331 
L 581 -1331 
L 581 3500 
L 1159 3500 
L 1159 2969 
Q 1341 3281 1617 3432 
Q 1894 3584 2278 3584 
Q 2916 3584 3314 3078 
Q 3713 2572 3713 1747 
Q 3713 922 3314 415 
Q 2916 -91 2278 -91 
Q 1894 -91 1617 61 
Q 1341 213 1159 525 
z
M 3116 1747 
Q 3116 2381 2855 2742 
Q 2594 3103 2138 3103 
Q 1681 3103 1420 2742 
Q 1159 2381 1159 1747 
Q 1159 1113 1420 752 
Q 1681 391 2138 391 
Q 2594 391 2855 752 
Q 3116 1113 3116 1747 
z
" transform="scale(0.015625)"/>
      </defs>
      <use xlink:href="#DejaVuSans-74"/>
      <use xlink:href="#DejaVuSans-69" transform="translate(39.208984 0)"/>
      <use xlink:href="#DejaVuSans-6d" transform="translate(66.992188 0)"/>
      <use xlink:href="#DejaVuSans-65" transform="translate(164.404297 0)"/>
      <use xlink:href="#DejaVuSans-73" transform="translate(225.927734 0)"/>
      <use xlink:href="#DejaVuSans-74" transform="translate(278.027344 0)"/>
      <use xlink:href="#DejaVuSans-65" transform="translate(317.236328 0)"/>
      <use xlink:href="#DejaVuSans-70" transform="translate(378.759766 0)"/>
     </g>
    </g>
   </g>
   <g id="matplotlib.axis_2">
    <g id="ytick_1">
     <g id="line2d_33">
      <defs>
       <path id="m5cb408c36e" d="M 0 0 
L -3.5 0 
" style="stroke: #000000; stroke-width: 0.8"/>
      </defs>
      <g>
       <use xlink:href="#m5cb408c36e" x="62.39" y="314.728" style="stroke: #000000; stroke-width: 0.8"/>
      </g>
     </g>
     <g id="text_6">
      <!-- −1.00 -->
      <g transform="translate(24.744688 318.527219) scale(0.1 -0.1)">
       <defs>
        <path id="DejaVuSans-2212" d="M 678 2272 
L 4684 2272 
L 4684 1741 
L 678 1741 
L 678 2272 
z
" transform="scale(0.015625)"/>
        <path id="DejaVuSans-2e" d="M 684 794 
L 1344 794 
L 1344 0 
L 684 0 
L 684 794 
z
" transform="scale(0.015625)"/>
       </defs>
       <use xlink:href="#DejaVuSans-2212"/>
       <use xlink:href="#DejaVuSans-31" transform="translate(83.789062 0)"/>
       <use xlink:href="#DejaVuSans-2e" transform="translate(147.412109 0)"/>
       <use xlink:href="#DejaVuSans-30" transform="translate(179.199219 0)"/>
       <use xlink:href="#DejaVuSans-30" transform="translate(242.822266 0)"/>
      </g>
     </g>
    </g>
    <g id="ytick_2">
     <g id="line2d_34">
      <g>
       <use xlink:href="#m5cb408c36e" x="62.39" y="278.927" style="stroke: #000000; stroke-width: 0.8"/>
      </g>
     </g>
     <g id="text_7">
      <!-- −0.75 -->
      <g transform="translate(24.744688 282.726219) scale(0.1 -0.1)">
       <defs>
        <path id="DejaVuSans-37" d="M 525 4666 
L 3525 4666 
L 3525 4397 
L 1831 0 
L 1172 0 
L 2766 4134 
L 525 4134 
L 525 4666 
z
" transform="scale(0.015625)"/>
        <path id="DejaVuSans-35" d="M 691 4666 
L 3169 4666 
L 3169 4134 
L 1269 4134 
L 1269 2991 
Q 1406 3038 1543 3061 
Q 1681 3084 1819 3084 
Q 2600 3084 3056 2656 
Q 3513 2228 3513 1497 
Q 3513 744 3044 326 
Q 2575 -91 1722 -91 
Q 1428 -91 1123 -41 
Q 819 9 494 109 
L 494 744 
Q 775 591 1075 516 
Q 1375 441 1709 441 
Q 2250 441 2565 725 
Q 2881 1009 2881 1497 
Q 2881 1984 2565 2268 
Q 2250 2553 1709 2553 
Q 1456 2553 1204 2497 
Q 953 2441 691 2322 
L 691 4666 
z
" transform="scale(0.015625)"/>
       </defs>
       <use xlink:href="#DejaVuSans-2212"/>
       <use xlink:href="#DejaVuSans-30" transform="translate(83.789062 0)"/>
       <use xlink:href="#DejaVuSans-2e" transform="translate(147.412109 0)"/>
       <use xlink:href="#DejaVuSans-37" transform="translate(179.199219 0)"/>
       <use xlink:href="#DejaVuSans-35" transform="translate(242.822266 0)"/>
      </g>
     </g>
    </g>
    <g id="ytick_3">
     <g id="line2d_35">
      <g>
       <use xlink:href="#m5cb408c36e" x="62.39" y="243.126" style="stroke: #000000; stroke-width: 0.8"/>
      </g>
     </g>
     <g id="text_8">
      <!-- −0.50 -->
      <g transform="translate(24.744688 246.925219) scale(0.1 -0.1)">
       <use xlink:href="#DejaVuSans-2212"/>
       <use xlink:href="#DejaVuSans-30" transform="translate(83.789062 0)"/>
       <use xlink:href="#DejaVuSans-2e" transform="translate(147.412109 0)"/>
       <use xlink:href="#DejaVuSans-35" transform="translate(179.199219 0)"/>
       <use xlink:href="#DejaVuSans-30" transform="translate(242.822266 0)"/>
      </g>
     </g>
    </g>
    <g id="ytick_4">
     <g id="line2d_36">
      <g>
       <use xlink:href="#m5cb408c36e" x="62.39" y="207.325" style="stroke: #000000; stroke-width: 0.8"/>
      </g>
     </g>
     <g id="text_9">
      <!-- −0.25 -->
      <g transform="translate(24.744688 211.124219) scale(0.1 -0.1)">
       <use xlink:href="#DejaVuSans-2212"/>
       <use xlink:href="#DejaVuSans-30" transform="translate(83.789062 0)"/>
       <use xlink:href="#DejaVuSans-2e" transform="translate(147.412109 0)"/>
       <use xlink:href="#DejaVuSans-32" transform="translate(179.199219 0)"/>
       <use xlink:href="#DejaVuSans-35" transform="translate(242.822266 0)"/>
      </g>
     </g>
    </g>
    <g id="ytick_5">
     <g id="line2d_37">
      <g>
       <use xlink:href="#m5cb408c36e" x="62.39" y="171.524" style="stroke: #000000; stroke-width: 0.8"/>
      </g>
     </g>
     <g id="text_10">
      <!-- 0.00 -->
      <g transform="translate(33.124375 175.323219) scale(0.1 -0.1)">
       <use xlink:href="#DejaVuSans-30"/>
       <use xlink:href="#DejaVuSans-2e" transform="translate(63.623047 0)"/>
       <use xlink:href="#DejaVuSans-30" transform="translate(95.410156 0)"/>
       <use xlink:href="#DejaVuSans-30" transform="translate(159.033203 0)"/>
      </g>
     </g>
    </g>
    <g id="ytick_6">
     <g id="line2d_38">
      <g>
       <use xlink:href="#m5cb408c36e" x="62.39" y="135.723" style="stroke: #000000; stroke-width: 0.8"/>
      </g>
     </g>
     <g id="text_11">
      <!-- 0.25 -->
      <g transform="translate(33.124375 139.522219) scale(0.1 -0.1)">
       <use xlink:href="#DejaVuSans-30"/>
       <use xlink:href="#DejaVuSans-2e" transform="translate(63.623047 0)"/>
       <use xlink:href="#DejaVuSans-32" transform="translate(95.410156 0)"/>
       <use xlink:href="#DejaVuSans-35" transform="translate(159.033203 0)"/>
      </g>
     </g>
    </g>
    <g id="ytick_7">
     <g id="line2d_39">
      <g>
       <use xlink:href="#m5cb408c36e" x="62.39" y="99.922" style="stroke: #000000; stroke-width: 0.8"/>
      </g>
     </g>
     <g id="text_12">
      <!-- 0.50 -->
      <g transform="translate(33.124375 103.721219) scale(0.1 -0.1)">
       <use xlink:href="#DejaVuSans-30"/>
       <use xlink:href="#DejaVuSans-2e" transform="translate(63.623047 0)"/>
       <use xlink:href="#DejaVuSans-35" transform="translate(95.410156 0)"/>
       <use xlink:href="#DejaVuSans-30" transform="translate(159.033203 0)"/>
      </g>
     </g>
    </g>
    <g id="ytick_8">
     <g id="line2d_40">
      <g>
       <use xlink:href="#m5cb408c36e" x="62.39" y="64.121" style="stroke: #000000; stroke-width: 0.8"/>
      </g>
     </g>
     <g id="text_13">
      <!-- 0.75 -->
      <g transform="translate(33.124375 67.920219) scale(0.1 -0.1)">
       <use xlink:href="#DejaVuSans-30"/>
       <use xlink:href="#DejaVuSans-2e" transform="translate(63.623047 0)"/>
       <use xlink:href="#DejaVuSans-37" transform="translate(95.410156 0)"/>
       <use xlink:href="#DejaVuSans-35" transform="translate(159.033203 0)"/>
      </g>
     </g>
    </g>
    <g id="ytick_9">
     <g id="line2d_41">
      <g>
       <use xlink:href="#m5cb408c36e" x="62.39" y="28.32" style="stroke: #000000; stroke-width: 0.8"/>
      </g>
     </g>
     <g id="text_14">
      <!-- 1.00 -->
      <g transform="translate(33.124375 32.119219) scale(0.1 -0.1)">
       <use xlink:href="#DejaVuSans-31"/>
       <use xlink:href="#DejaVuSans-2e" transform="translate(63.623047 0)"/>
       <use xlink:href="#DejaVuSans-30" transform="translate(95.410156 0)"/>
       <use xlink:href="#DejaVuSans-30" transform="translate(159.033203 0)"/>
      </g>
     </g>
    </g>
    <g id="text_15">
     <!-- opinion -->
     <g transform="translate(18.665 189.932594) rotate(-90) scale(0.1 -0.1)">
      <defs>
       <path id="DejaVuSans-6f" d="M 1959 3097 
Q 1497 3097 1228 2736 
Q 959 2375 959 1747 
Q 959 1119 1226 758 
Q 1494 397 1959 397 
Q 2419 397 2687 759 
Q 2956 1122 2956 1747 
Q 2956 2369 2687 2733 
Q 2419 3097 1959 3097 
z
M 1959 3584 
Q 2709 3584 3137 3096 
Q 3566 2609 3566 1747 
Q 3566 888 3137 398 
Q 2709 -91 1959 -91 
Q 1206 -91 779 398 
Q 353 888 353 1747 
Q 353 2609 779 3096 
Q 1206 3584 1959 3584 
z
" transform="scale(0.015625)"/>
       <path id="DejaVuSans-6e" d="M 3513 2113 
L 3513 0 
L 2938 0 
L 2938 2094 
Q 2938 2591 2744 2837 
Q 2550 3084 2163 3084 
Q 1697 3084 1428 2787 
Q 1159 2491 1159 1978 
L 1159 0 
L 581 0 
L 581 3500 
L 1159 3500 
L 1159 2956 
Q 1366 3272 1645 3428 
Q 1925 3584 2291 3584 
Q 2894 3584 3203 3211 
Q 3513 2838 3513 2113 
z
" transform="scale(0.015625)"/>
      </defs>
      <use xlink:href="#DejaVuSans-6f"/>
      <use xlink:href="#DejaVuSans-70" transform="translate(61.181641 0)"/>
      <use xlink:href="#DejaVuSans-69" transform="translate(124.658203 0)"/>
      <use xlink:href="#DejaVuSans-6e" transform="translate(152.441406 0)"/>
      <use xlink:href="#DejaVuSans-69" transform="translate(215.820312 0)"/>
      <use xlink:href="#DejaVuSans-6f" transform="translate(243.603516 0)"/>
      <use xlink:href="#DejaVuSans-6e" transform="translate(304.785156 0)"/>
     </g>
    </g>
   </g>
   <g id="line2d_42">
    <path d="M 62.39 259.875297 
L 72.64496 252.096641 
L 78.643727 244.773241 
L 82.89992 237.574458 
L 86.20128 223.03318 
L 88.898687 208.46933 
L 91.179313 194.340491 
L 93.15488 183.074701 
L 94.897454 174.072371 
L 96.45624 166.859592 
L 97.866333 161.061789 
L 99.153647 156.382902 
L 100.337862 152.588924 
L 101.434273 149.494897 
L 103.40984 144.852558 
L 105.152414 141.616831 
L 106.7112 139.263492 
L 108.778947 136.706466 
L 111.151182 134.234695 
L 116.96616 128.377876 
L 119.352087 125.599798 
L 121.677613 122.566966 
L 124.149142 118.95973 
L 126.655646 114.881668 
L 129.288867 110.142935 
L 132.066464 104.66737 
L 135.287635 97.794143 
L 139.940494 87.258303 
L 144.884941 76.201074 
L 147.591685 70.694199 
L 149.798788 66.696258 
L 151.718972 63.662827 
L 153.48115 61.283265 
L 155.139901 59.410637 
L 156.732273 57.944073 
L 158.306147 56.795973 
L 159.892055 55.913526 
L 161.562194 55.240821 
L 163.387235 54.749134 
L 165.520418 54.411459 
L 168.29864 54.210339 
L 172.960817 54.129198 
L 188.4 54.122523 
L 188.4 54.122523 
" clip-path="url(#p6fc34186fa)" style="fill: none; stroke: #0072bd; stroke-width: 2; stroke-linecap: square"/>
   </g>
   <g id="line2d_43">
    <path d="M 62.39 136.551071 
L 72.64496 138.058168 
L 82.89992 139.889071 
L 86.20128 140.373744 
L 88.898687 140.650353 
L 91.179313 140.763498 
L 94.897454 140.63497 
L 97.866333 140.193507 
L 100.337862 139.56503 
L 102.455007 138.826413 
L 105.152414 137.609305 
L 107.43304 136.334051 
L 110.01256 134.612163 
L 112.709967 132.478809 
L 114.990593 130.390882 
L 117.331482 127.954794 
L 119.663568 125.209641 
L 121.944193 122.196801 
L 124.37502 118.609625 
L 126.846549 114.553637 
L 129.448813 109.840492 
L 132.199153 104.394489 
L 135.394457 97.558369 
L 140.173488 86.724515 
L 144.940876 76.081876 
L 147.591685 70.694199 
L 149.798788 66.696258 
L 151.718972 63.662827 
L 153.48115 61.283265 
L 155.139901 59.410637 
L 156.732273 57.944073 
L 158.306147 56.795973 
L 159.892055 55.913526 
L 161.562194 55.240821 
L 163.387235 54.749134 
L 165.520418 54.411459 
L 168.29864 54.210339 
L 172.960817 54.129198 
L 188.4 54.122523 
L 188.4 54.122523 
" clip-path="url(#p6fc34186fa)" style="fill: none; stroke: #0072bd; stroke-width: 2; stroke-linecap: square"/>
   </g>
   <g id="line2d_44">
    <path d="M 62.39 189.359274 
L 72.64496 182.260816 
L 78.643727 174.060714 
L 86.20128 162.167373 
L 91.179313 154.364902 
L 94.897454 149.123607 
L 97.866333 145.491265 
L 100.337862 142.87136 
L 103.40984 140.06142 
L 107.43304 136.835658 
L 111.689233 133.423854 
L 114.561728 130.827774 
L 116.96616 128.361146 
L 119.352087 125.596585 
L 121.677613 122.566479 
L 124.149142 118.959684 
L 126.655646 114.881665 
L 129.288867 110.142935 
L 132.066464 104.66737 
L 135.287635 97.794143 
L 139.940494 87.258303 
L 144.884941 76.201074 
L 147.591685 70.694199 
L 149.798788 66.696258 
L 151.718972 63.662827 
L 153.48115 61.283265 
L 155.139901 59.410637 
L 156.732273 57.944073 
L 158.306147 56.795973 
L 159.892055 55.913526 
L 161.562194 55.240821 
L 163.387235 54.749134 
L 165.520418 54.411459 
L 168.29864 54.210339 
L 172.960817 54.129198 
L 188.4 54.122523 
L 188.4 54.122523 
" clip-path="url(#p6fc34186fa)" style="fill: none; stroke: #0072bd; stroke-width: 2; stroke-linecap: square"/>
   </g>
   <g id="line2d_45">
    <path d="M 62.39 89.795019 
L 72.64496 92.84242 
L 78.643727 100.235097 
L 82.89992 106.262943 
L 86.20128 113.809103 
L 88.898687 119.664286 
L 91.179313 124.184506 
L 93.15488 127.651473 
L 94.897454 130.288021 
L 96.45624 132.269955 
L 97.866333 133.735976 
L 99.153647 134.79551 
L 100.337862 135.534884 
L 101.434273 136.022205 
L 102.455007 136.311199 
L 103.40984 136.444251 
L 105.152414 136.369206 
L 106.7112 135.98845 
L 108.121293 135.421049 
L 110.01256 134.374016 
L 112.208401 132.809527 
L 114.561728 130.775815 
L 116.96616 128.348516 
L 119.352087 125.59416 
L 121.677613 122.566111 
L 124.149142 118.959649 
L 126.655646 114.881663 
L 129.288867 110.142935 
L 132.066464 104.66737 
L 135.287635 97.794143 
L 139.940494 87.258303 
L 144.884941 76.201074 
L 147.591685 70.694199 
L 149.798788 66.696258 
L 151.718972 63.662827 
L 153.48115 61.283265 
L 155.139901 59.410637 
L 156.732273 57.944073 
L 158.306147 56.795973 
L 159.892055 55.913526 
L 161.562194 55.240821 
L 163.387235 54.749134 
L 165.520418 54.411459 
L 168.29864 54.210339 
L 172.960817 54.129198 
L 188.4 54.122523 
L 188.4 54.122523 
" clip-path="url(#p6fc34186fa)" style="fill: none; stroke: #0072bd; stroke-width: 2; stroke-linecap: square"/>
   </g>
   <g id="line2d_46">
    <path d="M 62.39 91.336689 
L 72.64496 94.142561 
L 78.643727 101.288212 
L 82.89992 107.115966 
L 86.20128 114.482991 
L 88.898687 120.196658 
L 91.179313 124.605079 
L 93.15488 127.983726 
L 94.897454 130.550501 
L 96.45624 132.477314 
L 97.866333 133.89979 
L 99.153647 134.924923 
L 100.337862 135.637121 
L 101.434273 136.102972 
L 102.455007 136.375005 
L 103.40984 136.494658 
L 105.152414 136.400665 
L 106.7112 136.008083 
L 108.121293 135.433302 
L 110.01256 134.380057 
L 112.208401 132.81188 
L 114.561728 130.77654 
L 116.96616 128.348692 
L 119.352087 125.594194 
L 121.677613 122.566116 
L 124.149142 118.959649 
L 126.655646 114.881663 
L 129.288867 110.142935 
L 132.066464 104.66737 
L 135.287635 97.794143 
L 139.940494 87.258303 
L 144.884941 76.201074 
L 147.591685 70.694199 
L 149.798788 66.696258 
L 151.718972 63.662827 
L 153.48115 61.283265 
L 155.139901 59.410637 
L 156.732273 57.944073 
L 158.306147 56.795973 
L 159.892055 55.913526 
L 161.562194 55.240821 
L 163.387235 54.749134 
L 165.520418 54.411459 
L 168.29864 54.210339 
L 172.960817 54.129198 
L 188.4 54.122523 
L 188.4 54.122523 
" clip-path="url(#p6fc34186fa)" style="fill: none; stroke: #0072bd; stroke-width: 2; stroke-linecap: square"/>
   </g>
   <g id="line2d_47">
    <path d="M 62.39 55.529933 
L 188.4 55.529933 
L 188.4 55.529933 
" clip-path="url(#p6fc34186fa)" style="fill: none; stroke-dasharray: 7.4,3.2; stroke-dashoffset: 0; stroke: #b2b2b2; stroke-width: 2"/>
   </g>
   <g id="patch_3">
    <path d="M 62.39 314.728 
L 62.39 28.32 
" style="fill: none; stroke: #000000; stroke-width: 0.8; stroke-linejoin: miter; stroke-linecap: square"/>
   </g>
   <g id="patch_4">
    <path d="M 188.4 314.728 
L 188.4 28.32 
" style="fill: none; stroke: #000000; stroke-width: 0.8; stroke-linejoin: miter; stroke-linecap: square"/>
   </g>
   <g id="patch_5">
    <path d="M 62.39 314.728 
L 188.4 314.728 
" style="fill: none; stroke: #000000; stroke-width: 0.8; stroke-linejoin: miter; stroke-linecap: square"/>
   </g>
   <g id="patch_6">
    <path d="M 62.39 28.32 
L 188.4 28.32 
" style="fill: none; stroke: #000000; stroke-width: 0.8; stroke-linejoin: miter; stroke-linecap: square"/>
   </g>
   <g id="text_16">
    <!-- Leaders -->
    <g transform="translate(89.61375 22.32) scale(0.16 -0.16)">
     <defs>
      <path id="DejaVuSans-Bold-4c" d="M 588 4666 
L 1791 4666 
L 1791 909 
L 3903 909 
L 3903 0 
L 588 0 
L 588 4666 
z
" transform="scale(0.015625)"/>
      <path id="DejaVuSans-Bold-65" d="M 4031 1759 
L 4031 1441 
L 1416 1441 
Q 1456 1047 1700 850 
Q 1944 653 2381 653 
Q 2734 653 3104 758 
Q 3475 863 3866 1075 
L 3866 213 
Q 3469 63 3072 -14 
Q 2675 -91 2278 -91 
Q 1328 -91 801 392 
Q 275 875 275 1747 
Q 275 2603 792 3093 
Q 1309 3584 2216 3584 
Q 3041 3584 3536 3087 
Q 4031 2591 4031 1759 
z
M 2881 2131 
Q 2881 2450 2695 2645 
Q 2509 2841 2209 2841 
Q 1884 2841 1681 2658 
Q 1478 2475 1428 2131 
L 2881 2131 
z
" transform="scale(0.015625)"/>
      <path id="DejaVuSans-Bold-61" d="M 2106 1575 
Q 1756 1575 1579 1456 
Q 1403 1338 1403 1106 
Q 1403 894 1545 773 
Q 1688 653 1941 653 
Q 2256 653 2472 879 
Q 2688 1106 2688 1447 
L 2688 1575 
L 2106 1575 
z
M 3816 1997 
L 3816 0 
L 2688 0 
L 2688 519 
Q 2463 200 2181 54 
Q 1900 -91 1497 -91 
Q 953 -91 614 226 
Q 275 544 275 1050 
Q 275 1666 698 1953 
Q 1122 2241 2028 2241 
L 2688 2241 
L 2688 2328 
Q 2688 2594 2478 2717 
Q 2269 2841 1825 2841 
Q 1466 2841 1156 2769 
Q 847 2697 581 2553 
L 581 3406 
Q 941 3494 1303 3539 
Q 1666 3584 2028 3584 
Q 2975 3584 3395 3211 
Q 3816 2838 3816 1997 
z
" transform="scale(0.015625)"/>
      <path id="DejaVuSans-Bold-64" d="M 2919 2988 
L 2919 4863 
L 4044 4863 
L 4044 0 
L 2919 0 
L 2919 506 
Q 2688 197 2409 53 
Q 2131 -91 1766 -91 
Q 1119 -91 703 423 
Q 288 938 288 1747 
Q 288 2556 703 3070 
Q 1119 3584 1766 3584 
Q 2128 3584 2408 3439 
Q 2688 3294 2919 2988 
z
M 2181 722 
Q 2541 722 2730 984 
Q 2919 1247 2919 1747 
Q 2919 2247 2730 2509 
Q 2541 2772 2181 2772 
Q 1825 2772 1636 2509 
Q 1447 2247 1447 1747 
Q 1447 1247 1636 984 
Q 1825 722 2181 722 
z
" transform="scale(0.015625)"/>
      <path id="DejaVuSans-Bold-72" d="M 3138 2547 
Q 2991 2616 2845 2648 
Q 2700 2681 2553 2681 
Q 2122 2681 1889 2404 
Q 1656 2128 1656 1613 
L 1656 0 
L 538 0 
L 538 3500 
L 1656 3500 
L 1656 2925 
Q 1872 3269 2151 3426 
Q 2431 3584 2822 3584 
Q 2878 3584 2943 3579 
Q 3009 3575 3134 3559 
L 3138 2547 
z
" transform="scale(0.015625)"/>
      <path id="DejaVuSans-Bold-73" d="M 3272 3391 
L 3272 2541 
Q 2913 2691 2578 2766 
Q 2244 2841 1947 2841 
Q 1628 2841 1473 2761 
Q 1319 2681 1319 2516 
Q 1319 2381 1436 2309 
Q 1553 2238 1856 2203 
L 2053 2175 
Q 2913 2066 3209 1816 
Q 3506 1566 3506 1031 
Q 3506 472 3093 190 
Q 2681 -91 1863 -91 
Q 1516 -91 1145 -36 
Q 775 19 384 128 
L 384 978 
Q 719 816 1070 734 
Q 1422 653 1784 653 
Q 2113 653 2278 743 
Q 2444 834 2444 1013 
Q 2444 1163 2330 1236 
Q 2216 1309 1875 1350 
L 1678 1375 
Q 931 1469 631 1722 
Q 331 1975 331 2491 
Q 331 3047 712 3315 
Q 1094 3584 1881 3584 
Q 2191 3584 2531 3537 
Q 2872 3491 3272 3391 
z
" transform="scale(0.015625)"/>
     </defs>
     <use xlink:href="#DejaVuSans-Bold-4c"/>
     <use xlink:href="#DejaVuSans-Bold-65" transform="translate(63.720703 0)"/>
     <use xlink:href="#DejaVuSans-Bold-61" transform="translate(131.542969 0)"/>
     <use xlink:href="#DejaVuSans-Bold-64" transform="translate(199.023438 0)"/>
     <use xlink:href="#DejaVuSans-Bold-65" transform="translate(270.605469 0)"/>
     <use xlink:href="#DejaVuSans-Bold-72" transform="translate(338.427734 0)"/>
     <use xlink:href="#DejaVuSans-Bold-73" transform="translate(387.744141 0)"/>
    </g>
   </g>
  </g>
  <g id="axes_2">
   <g id="patch_7">
    <path d="M 250.79 314.728 
L 376.8 314.728 
L 376.8 28.32 
L 250.79 28.32 
z
" style="fill: #ffffff"/>
   </g>
   <g id="matplotlib.axis_3">
    <g id="xtick_33">
     <g id="line2d_48">
      <g>
       <use xlink:href="#mf24b254bd8" x="250.79" y="314.728" style="stroke: #000000; stroke-width: 0.8"/>
      </g>
     </g>
     <g id="text_17">
      <!-- $\mathdefault{10^{0}}$ -->
      <g transform="translate(241.99 329.326437) scale(0.1 -0.1)">
       <use xlink:href="#DejaVuSans-31" transform="translate(0 0.765625)"/>
       <use xlink:href="#DejaVuSans-30" transform="translate(63.623047 0.765625)"/>
       <use xlink:href="#DejaVuSans-30" transform="translate(128.203125 39.046875) scale(0.7)"/>
      </g>
     </g>
    </g>
    <g id="xtick_34">
     <g id="line2d_49">
      <g>
       <use xlink:href="#mf24b254bd8" x="284.85624" y="314.728" style="stroke: #000000; stroke-width: 0.8"/>
      </g>
     </g>
     <g id="text_18">
      <!-- $\mathdefault{10^{1}}$ -->
      <g transform="translate(276.05624 329.326437) scale(0.1 -0.1)">
       <use xlink:href="#DejaVuSans-31" transform="translate(0 0.684375)"/>
       <use xlink:href="#DejaVuSans-30" transform="translate(63.623047 0.684375)"/>
       <use xlink:href="#DejaVuSans-31" transform="translate(128.203125 38.965625) scale(0.7)"/>
      </g>
     </g>
    </g>
    <g id="xtick_35">
     <g id="line2d_50">
      <g>
       <use xlink:href="#mf24b254bd8" x="318.92248" y="314.728" style="stroke: #000000; stroke-width: 0.8"/>
      </g>
     </g>
     <g id="text_19">
      <!-- $\mathdefault{10^{2}}$ -->
      <g transform="translate(310.12248 329.326437) scale(0.1 -0.1)">
       <use xlink:href="#DejaVuSans-31" transform="translate(0 0.765625)"/>
       <use xlink:href="#DejaVuSans-30" transform="translate(63.623047 0.765625)"/>
       <use xlink:href="#DejaVuSans-32" transform="translate(128.203125 39.046875) scale(0.7)"/>
      </g>
     </g>
    </g>
    <g id="xtick_36">
     <g id="line2d_51">
      <g>
       <use xlink:href="#mf24b254bd8" x="352.98872" y="314.728" style="stroke: #000000; stroke-width: 0.8"/>
      </g>
     </g>
     <g id="text_20">
      <!-- $\mathdefault{10^{3}}$ -->
      <g transform="translate(344.18872 329.326437) scale(0.1 -0.1)">
       <use xlink:href="#DejaVuSans-31" transform="translate(0 0.765625)"/>
       <use xlink:href="#DejaVuSans-30" transform="translate(63.623047 0.765625)"/>
       <use xlink:href="#DejaVuSans-33" transform="translate(128.203125 39.046875) scale(0.7)"/>
      </g>
     </g>
    </g>
    <g id="xtick_37">
     <g id="line2d_52">
      <g>
       <use xlink:href="#m95abbd2a8f" x="261.04496" y="314.728" style="stroke: #000000; stroke-width: 0.6"/>
      </g>
     </g>
    </g>
    <g id="xtick_38">
     <g id="line2d_53">
      <g>
       <use xlink:href="#m95abbd2a8f" x="267.043727" y="314.728" style="stroke: #000000; stroke-width: 0.6"/>
      </g>
     </g>
    </g>
    <g id="xtick_39">
     <g id="line2d_54">
      <g>
       <use xlink:href="#m95abbd2a8f" x="271.29992" y="314.728" style="stroke: #000000; stroke-width: 0.6"/>
      </g>
     </g>
    </g>
    <g id="xtick_40">
     <g id="line2d_55">
      <g>
       <use xlink:href="#m95abbd2a8f" x="274.60128" y="314.728" style="stroke: #000000; stroke-width: 0.6"/>
      </g>
     </g>
    </g>
    <g id="xtick_41">
     <g id="line2d_56">
      <g>
       <use xlink:href="#m95abbd2a8f" x="277.298687" y="314.728" style="stroke: #000000; stroke-width: 0.6"/>
      </g>
     </g>
    </g>
    <g id="xtick_42">
     <g id="line2d_57">
      <g>
       <use xlink:href="#m95abbd2a8f" x="279.579313" y="314.728" style="stroke: #000000; stroke-width: 0.6"/>
      </g>
     </g>
    </g>
    <g id="xtick_43">
     <g id="line2d_58">
      <g>
       <use xlink:href="#m95abbd2a8f" x="281.55488" y="314.728" style="stroke: #000000; stroke-width: 0.6"/>
      </g>
     </g>
    </g>
    <g id="xtick_44">
     <g id="line2d_59">
      <g>
       <use xlink:href="#m95abbd2a8f" x="283.297454" y="314.728" style="stroke: #000000; stroke-width: 0.6"/>
      </g>
     </g>
    </g>
    <g id="xtick_45">
     <g id="line2d_60">
      <g>
       <use xlink:href="#m95abbd2a8f" x="295.1112" y="314.728" style="stroke: #000000; stroke-width: 0.6"/>
      </g>
     </g>
    </g>
    <g id="xtick_46">
     <g id="line2d_61">
      <g>
       <use xlink:href="#m95abbd2a8f" x="301.109967" y="314.728" style="stroke: #000000; stroke-width: 0.6"/>
      </g>
     </g>
    </g>
    <g id="xtick_47">
     <g id="line2d_62">
      <g>
       <use xlink:href="#m95abbd2a8f" x="305.36616" y="314.728" style="stroke: #000000; stroke-width: 0.6"/>
      </g>
     </g>
    </g>
    <g id="xtick_48">
     <g id="line2d_63">
      <g>
       <use xlink:href="#m95abbd2a8f" x="308.66752" y="314.728" style="stroke: #000000; stroke-width: 0.6"/>
      </g>
     </g>
    </g>
    <g id="xtick_49">
     <g id="line2d_64">
      <g>
       <use xlink:href="#m95abbd2a8f" x="311.364927" y="314.728" style="stroke: #000000; stroke-width: 0.6"/>
      </g>
     </g>
    </g>
    <g id="xtick_50">
     <g id="line2d_65">
      <g>
       <use xlink:href="#m95abbd2a8f" x="313.645553" y="314.728" style="stroke: #000000; stroke-width: 0.6"/>
      </g>
     </g>
    </g>
    <g id="xtick_51">
     <g id="line2d_66">
      <g>
       <use xlink:href="#m95abbd2a8f" x="315.62112" y="314.728" style="stroke: #000000; stroke-width: 0.6"/>
      </g>
     </g>
    </g>
    <g id="xtick_52">
     <g id="line2d_67">
      <g>
       <use xlink:href="#m95abbd2a8f" x="317.363694" y="314.728" style="stroke: #000000; stroke-width: 0.6"/>
      </g>
     </g>
    </g>
    <g id="xtick_53">
     <g id="line2d_68">
      <g>
       <use xlink:href="#m95abbd2a8f" x="329.17744" y="314.728" style="stroke: #000000; stroke-width: 0.6"/>
      </g>
     </g>
    </g>
    <g id="xtick_54">
     <g id="line2d_69">
      <g>
       <use xlink:href="#m95abbd2a8f" x="335.176207" y="314.728" style="stroke: #000000; stroke-width: 0.6"/>
      </g>
     </g>
    </g>
    <g id="xtick_55">
     <g id="line2d_70">
      <g>
       <use xlink:href="#m95abbd2a8f" x="339.4324" y="314.728" style="stroke: #000000; stroke-width: 0.6"/>
      </g>
     </g>
    </g>
    <g id="xtick_56">
     <g id="line2d_71">
      <g>
       <use xlink:href="#m95abbd2a8f" x="342.73376" y="314.728" style="stroke: #000000; stroke-width: 0.6"/>
      </g>
     </g>
    </g>
    <g id="xtick_57">
     <g id="line2d_72">
      <g>
       <use xlink:href="#m95abbd2a8f" x="345.431167" y="314.728" style="stroke: #000000; stroke-width: 0.6"/>
      </g>
     </g>
    </g>
    <g id="xtick_58">
     <g id="line2d_73">
      <g>
       <use xlink:href="#m95abbd2a8f" x="347.711793" y="314.728" style="stroke: #000000; stroke-width: 0.6"/>
      </g>
     </g>
    </g>
    <g id="xtick_59">
     <g id="line2d_74">
      <g>
       <use xlink:href="#m95abbd2a8f" x="349.68736" y="314.728" style="stroke: #000000; stroke-width: 0.6"/>
      </g>
     </g>
    </g>
    <g id="xtick_60">
     <g id="line2d_75">
      <g>
       <use xlink:href="#m95abbd2a8f" x="351.429934" y="314.728" style="stroke: #000000; stroke-width: 0.6"/>
      </g>
     </g>
    </g>
    <g id="xtick_61">
     <g id="line2d_76">
      <g>
       <use xlink:href="#m95abbd2a8f" x="363.24368" y="314.728" style="stroke: #000000; stroke-width: 0.6"/>
      </g>
     </g>
    </g>
    <g id="xtick_62">
     <g id="line2d_77">
      <g>
       <use xlink:href="#m95abbd2a8f" x="369.242447" y="314.728" style="stroke: #000000; stroke-width: 0.6"/>
      </g>
     </g>
    </g>
    <g id="xtick_63">
     <g id="line2d_78">
      <g>
       <use xlink:href="#m95abbd2a8f" x="373.49864" y="314.728" style="stroke: #000000; stroke-width: 0.6"/>
      </g>
     </g>
    </g>
    <g id="xtick_64">
     <g id="line2d_79">
      <g>
       <use xlink:href="#m95abbd2a8f" x="376.8" y="314.728" style="stroke: #000000; stroke-width: 0.6"/>
      </g>
     </g>
    </g>
    <g id="text_21">
     <!-- timestep -->
     <g transform="translate(291.683281 343.004562) scale(0.1 -0.1)">
      <use xlink:href="#DejaVuSans-74"/>
      <use xlink:href="#DejaVuSans-69" transform="translate(39.208984 0)"/>
      <use xlink:href="#DejaVuSans-6d" transform="translate(66.992188 0)"/>
      <use xlink:href="#DejaVuSans-65" transform="translate(164.404297 0)"/>
      <use xlink:href="#DejaVuSans-73" transform="translate(225.927734 0)"/>
      <use xlink:href="#DejaVuSans-74" transform="translate(278.027344 0)"/>
      <use xlink:href="#DejaVuSans-65" transform="translate(317.236328 0)"/>
      <use xlink:href="#DejaVuSans-70" transform="translate(378.759766 0)"/>
     </g>
    </g>
   </g>
   <g id="matplotlib.axis_4">
    <g id="ytick_10">
     <g id="line2d_80">
      <g>
       <use xlink:href="#m5cb408c36e" x="250.79" y="314.728" style="stroke: #000000; stroke-width: 0.8"/>
      </g>
     </g>
     <g id="text_22">
      <!-- −1.00 -->
      <g transform="translate(213.144687 318.527219) scale(0.1 -0.1)">
       <use xlink:href="#DejaVuSans-2212"/>
       <use xlink:href="#DejaVuSans-31" transform="translate(83.789062 0)"/>
       <use xlink:href="#DejaVuSans-2e" transform="translate(147.412109 0)"/>
       <use xlink:href="#DejaVuSans-30" transform="translate(179.199219 0)"/>
       <use xlink:href="#DejaVuSans-30" transform="translate(242.822266 0)"/>
      </g>
     </g>
    </g>
    <g id="ytick_11">
     <g id="line2d_81">
      <g>
       <use xlink:href="#m5cb408c36e" x="250.79" y="278.927" style="stroke: #000000; stroke-width: 0.8"/>
      </g>
     </g>
     <g id="text_23">
      <!-- −0.75 -->
      <g transform="translate(213.144687 282.726219) scale(0.1 -0.1)">
       <use xlink:href="#DejaVuSans-2212"/>
       <use xlink:href="#DejaVuSans-30" transform="translate(83.789062 0)"/>
       <use xlink:href="#DejaVuSans-2e" transform="translate(147.412109 0)"/>
       <use xlink:href="#DejaVuSans-37" transform="translate(179.199219 0)"/>
       <use xlink:href="#DejaVuSans-35" transform="translate(242.822266 0)"/>
      </g>
     </g>
    </g>
    <g id="ytick_12">
     <g id="line2d_82">
      <g>
       <use xlink:href="#m5cb408c36e" x="250.79" y="243.126" style="stroke: #000000; stroke-width: 0.8"/>
      </g>
     </g>
     <g id="text_24">
      <!-- −0.50 -->
      <g transform="translate(213.144687 246.925219) scale(0.1 -0.1)">
       <use xlink:href="#DejaVuSans-2212"/>
       <use xlink:href="#DejaVuSans-30" transform="translate(83.789062 0)"/>
       <use xlink:href="#DejaVuSans-2e" transform="translate(147.412109 0)"/>
       <use xlink:href="#DejaVuSans-35" transform="translate(179.199219 0)"/>
       <use xlink:href="#DejaVuSans-30" transform="translate(242.822266 0)"/>
      </g>
     </g>
    </g>
    <g id="ytick_13">
     <g id="line2d_83">
      <g>
       <use xlink:href="#m5cb408c36e" x="250.79" y="207.325" style="stroke: #000000; stroke-width: 0.8"/>
      </g>
     </g>
     <g id="text_25">
      <!-- −0.25 -->
      <g transform="translate(213.144687 211.124219) scale(0.1 -0.1)">
       <use xlink:href="#DejaVuSans-2212"/>
       <use xlink:href="#DejaVuSans-30" transform="translate(83.789062 0)"/>
       <use xlink:href="#DejaVuSans-2e" transform="translate(147.412109 0)"/>
       <use xlink:href="#DejaVuSans-32" transform="translate(179.199219 0)"/>
       <use xlink:href="#DejaVuSans-35" transform="translate(242.822266 0)"/>
      </g>
     </g>
    </g>
    <g id="ytick_14">
     <g id="line2d_84">
      <g>
       <use xlink:href="#m5cb408c36e" x="250.79" y="171.524" style="stroke: #000000; stroke-width: 0.8"/>
      </g>
     </g>
     <g id="text_26">
      <!-- 0.00 -->
      <g transform="translate(221.524375 175.323219) scale(0.1 -0.1)">
       <use xlink:href="#DejaVuSans-30"/>
       <use xlink:href="#DejaVuSans-2e" transform="translate(63.623047 0)"/>
       <use xlink:href="#DejaVuSans-30" transform="translate(95.410156 0)"/>
       <use xlink:href="#DejaVuSans-30" transform="translate(159.033203 0)"/>
      </g>
     </g>
    </g>
    <g id="ytick_15">
     <g id="line2d_85">
      <g>
       <use xlink:href="#m5cb408c36e" x="250.79" y="135.723" style="stroke: #000000; stroke-width: 0.8"/>
      </g>
     </g>
     <g id="text_27">
      <!-- 0.25 -->
      <g transform="translate(221.524375 139.522219) scale(0.1 -0.1)">
       <use xlink:href="#DejaVuSans-30"/>
       <use xlink:href="#DejaVuSans-2e" transform="translate(63.623047 0)"/>
       <use xlink:href="#DejaVuSans-32" transform="translate(95.410156 0)"/>
       <use xlink:href="#DejaVuSans-35" transform="translate(159.033203 0)"/>
      </g>
     </g>
    </g>
    <g id="ytick_16">
     <g id="line2d_86">
      <g>
       <use xlink:href="#m5cb408c36e" x="250.79" y="99.922" style="stroke: #000000; stroke-width: 0.8"/>
      </g>
     </g>
     <g id="text_28">
      <!-- 0.50 -->
      <g transform="translate(221.524375 103.721219) scale(0.1 -0.1)">
       <use xlink:href="#DejaVuSans-30"/>
       <use xlink:href="#DejaVuSans-2e" transform="translate(63.623047 0)"/>
       <use xlink:href="#DejaVuSans-35" transform="translate(95.410156 0)"/>
       <use xlink:href="#DejaVuSans-30" transform="translate(159.033203 0)"/>
      </g>
     </g>
    </g>
    <g id="ytick_17">
     <g id="line2d_87">
      <g>
       <use xlink:href="#m5cb408c36e" x="250.79" y="64.121" style="stroke: #000000; stroke-width: 0.8"/>
      </g>
     </g>
     <g id="text_29">
      <!-- 0.75 -->
      <g transform="translate(221.524375 67.920219) scale(0.1 -0.1)">
       <use xlink:href="#DejaVuSans-30"/>
       <use xlink:href="#DejaVuSans-2e" transform="translate(63.623047 0)"/>
       <use xlink:href="#DejaVuSans-37" transform="translate(95.410156 0)"/>
       <use xlink:href="#DejaVuSans-35" transform="translate(159.033203 0)"/>
      </g>
     </g>
    </g>
    <g id="ytick_18">
     <g id="line2d_88">
      <g>
       <use xlink:href="#m5cb408c36e" x="250.79" y="28.32" style="stroke: #000000; stroke-width: 0.8"/>
      </g>
     </g>
     <g id="text_30">
      <!-- 1.00 -->
      <g transform="translate(221.524375 32.119219) scale(0.1 -0.1)">
       <use xlink:href="#DejaVuSans-31"/>
       <use xlink:href="#DejaVuSans-2e" transform="translate(63.623047 0)"/>
       <use xlink:href="#DejaVuSans-30" transform="translate(95.410156 0)"/>
       <use xlink:href="#DejaVuSans-30" transform="translate(159.033203 0)"/>
      </g>
     </g>
    </g>
    <g id="text_31">
     <!-- opinion -->
     <g transform="translate(207.065 189.932594) rotate(-90) scale(0.1 -0.1)">
      <use xlink:href="#DejaVuSans-6f"/>
      <use xlink:href="#DejaVuSans-70" transform="translate(61.181641 0)"/>
      <use xlink:href="#DejaVuSans-69" transform="translate(124.658203 0)"/>
      <use xlink:href="#DejaVuSans-6e" transform="translate(152.441406 0)"/>
      <use xlink:href="#DejaVuSans-69" transform="translate(215.820312 0)"/>
      <use xlink:href="#DejaVuSans-6f" transform="translate(243.603516 0)"/>
      <use xlink:href="#DejaVuSans-6e" transform="translate(304.785156 0)"/>
     </g>
    </g>
   </g>
   <g id="line2d_89">
    <path d="M 250.79 236.655297 
L 261.04496 233.824467 
L 267.043727 225.216397 
L 271.29992 215.292538 
L 274.60128 204.44506 
L 279.579313 183.998691 
L 281.55488 176.592195 
L 283.297454 170.572049 
L 284.85624 165.661014 
L 286.266333 161.63739 
L 288.737862 155.578749 
L 290.855007 151.362772 
L 292.706768 148.328666 
L 294.352327 146.053867 
L 296.521293 143.501948 
L 299.551182 140.406277 
L 303.807375 136.104015 
L 306.436128 133.111913 
L 308.960495 129.864798 
L 311.364927 126.384225 
L 313.855411 122.355772 
L 316.34296 117.894282 
L 319.069693 112.514285 
L 321.985209 106.247942 
L 325.596045 97.918843 
L 334.365331 77.427406 
L 336.808782 72.427559 
L 338.866926 68.698696 
L 340.70738 65.804663 
L 342.404641 63.534453 
L 344.00874 61.747879 
L 345.553946 60.348709 
L 347.085808 59.253369 
L 348.65341 58.40225 
L 350.320873 57.752496 
L 352.151774 57.281485 
L 354.317894 56.961096 
L 357.196752 56.775163 
L 362.3125 56.706481 
L 376.8 56.702775 
L 376.8 56.702775 
" clip-path="url(#p5e373e7b79)" style="fill: none; stroke: #d95319; stroke-width: 2; stroke-linecap: square"/>
   </g>
   <g id="line2d_90">
    <path d="M 250.79 235.546426 
L 261.04496 232.83868 
L 267.043727 221.993001 
L 271.29992 212.609598 
L 274.60128 202.256675 
L 279.579313 182.601623 
L 281.55488 175.475939 
L 283.297454 169.68016 
L 284.85624 164.948395 
L 286.266333 161.068007 
L 288.737862 155.215254 
L 290.855007 151.130717 
L 292.706768 148.180521 
L 294.352327 145.959291 
L 296.521293 143.453707 
L 299.551182 140.390568 
L 303.807375 136.10193 
L 306.436128 133.11148 
L 308.960495 129.864726 
L 311.364927 126.384215 
L 313.855411 122.355771 
L 316.34296 117.894281 
L 319.069693 112.514285 
L 321.985209 106.247942 
L 325.596045 97.918843 
L 334.365331 77.427406 
L 336.808782 72.427559 
L 338.866926 68.698696 
L 340.70738 65.804663 
L 342.404641 63.534453 
L 344.00874 61.747879 
L 345.553946 60.348709 
L 347.085808 59.253369 
L 348.65341 58.40225 
L 350.320873 57.752496 
L 352.151774 57.281485 
L 354.317894 56.961096 
L 357.196752 56.775163 
L 362.3125 56.706481 
L 376.8 56.702775 
L 376.8 56.702775 
" clip-path="url(#p5e373e7b79)" style="fill: none; stroke: #d95319; stroke-width: 2; stroke-linecap: square"/>
   </g>
   <g id="line2d_91">
    <path d="M 250.79 85.065393 
L 261.04496 89.650886 
L 267.043727 96.085447 
L 271.29992 103.798024 
L 277.298687 119.935817 
L 279.579313 125.509965 
L 281.55488 129.859704 
L 283.297454 133.232789 
L 284.85624 135.826945 
L 286.266333 137.799968 
L 287.553647 139.277791 
L 288.737862 140.360915 
L 289.834273 141.129546 
L 290.855007 141.647692 
L 291.80984 141.966438 
L 292.706768 142.126549 
L 294.352327 142.094429 
L 295.83304 141.740442 
L 297.178947 141.185007 
L 298.992822 140.133931 
L 300.608401 138.947496 
L 302.52006 137.28227 
L 304.607287 135.174898 
L 306.776253 132.68276 
L 309.247782 129.467046 
L 311.609475 126.007661 
L 314.062335 122.001293 
L 316.518048 117.563919 
L 319.215456 112.212969 
L 322.22384 105.714417 
L 325.87608 97.254888 
L 334.10254 77.996023 
L 336.5863 72.858997 
L 338.673527 69.027826 
L 340.536735 66.05439 
L 342.252587 63.721892 
L 343.872382 61.886301 
L 345.431167 60.448742 
L 346.975151 59.323349 
L 348.533936 58.458356 
L 350.178443 57.798955 
L 351.994381 57.313677 
L 354.127342 56.981434 
L 356.927136 56.785206 
L 361.709532 56.708337 
L 376.8 56.702775 
L 376.8 56.702775 
" clip-path="url(#p5e373e7b79)" style="fill: none; stroke: #d95319; stroke-width: 2; stroke-linecap: square"/>
   </g>
   <g id="line2d_92">
    <path d="M 250.79 40.309224 
L 261.04496 45.657092 
L 267.043727 53.543593 
L 271.29992 63.287542 
L 274.60128 71.951796 
L 277.298687 84.25448 
L 279.579313 97.000577 
L 281.55488 107.080703 
L 283.297454 115.032367 
L 284.85624 121.284808 
L 286.266333 126.180801 
L 287.553647 129.994076 
L 288.737862 132.943227 
L 289.834273 135.202813 
L 290.855007 136.912233 
L 291.80984 138.182806 
L 292.706768 139.103427 
L 293.552414 139.745084 
L 294.352327 140.164465 
L 295.1112 140.406838 
L 296.521293 140.497868 
L 297.808607 140.228467 
L 298.992822 139.732716 
L 300.608401 138.742844 
L 302.52006 137.198862 
L 304.607287 135.147737 
L 306.776253 132.675693 
L 308.960495 129.860315 
L 311.364927 126.38363 
L 313.855411 122.355722 
L 316.34296 117.894279 
L 319.069693 112.514285 
L 321.985209 106.247942 
L 325.596045 97.918843 
L 334.365331 77.427406 
L 336.808782 72.427559 
L 338.866926 68.698696 
L 340.70738 65.804663 
L 342.404641 63.534453 
L 344.00874 61.747879 
L 345.553946 60.348709 
L 347.085808 59.253369 
L 348.65341 58.40225 
L 350.320873 57.752496 
L 352.151774 57.281485 
L 354.317894 56.961096 
L 357.196752 56.775163 
L 362.3125 56.706481 
L 376.8 56.702775 
L 376.8 56.702775 
" clip-path="url(#p5e373e7b79)" style="fill: none; stroke: #d95319; stroke-width: 2; stroke-linecap: square"/>
   </g>
   <g id="line2d_93">
    <path d="M 250.79 63.853886 
L 261.04496 69.098404 
L 267.043727 76.181419 
L 271.29992 82.582516 
L 274.60128 92.776497 
L 277.298687 103.915044 
L 279.579313 112.709368 
L 281.55488 119.632026 
L 283.297454 125.060874 
L 284.85624 129.297585 
L 286.266333 132.58301 
L 287.553647 135.109442 
L 288.737862 137.030404 
L 289.834273 138.468467 
L 290.855007 139.52149 
L 291.80984 140.267603 
L 292.706768 140.769179 
L 293.552414 141.07602 
L 294.352327 141.227883 
L 295.83304 141.187238 
L 297.178947 140.831841 
L 298.41256 140.279333 
L 300.089233 139.237222 
L 302.0648 137.655865 
L 304.212736 135.580104 
L 306.436128 133.089797 
L 308.66752 130.25778 
L 311.11627 126.761913 
L 313.432674 123.070396 
L 315.986442 118.56039 
L 318.623585 113.428079 
L 321.496081 107.332478 
L 324.921247 99.510654 
L 335.077245 75.914772 
L 337.414501 71.27985 
L 339.395367 67.823147 
L 341.207815 65.094789 
L 342.880973 62.96763 
L 344.463177 61.30431 
L 346.011429 59.992347 
L 347.5631 58.966997 
L 349.160264 58.179121 
L 350.86019 57.590324 
L 352.78013 57.166296 
L 355.107838 56.889455 
L 358.393805 56.742253 
L 365.629607 56.703063 
L 376.8 56.702775 
L 376.8 56.702775 
" clip-path="url(#p5e373e7b79)" style="fill: none; stroke: #d95319; stroke-width: 2; stroke-linecap: square"/>
   </g>
   <g id="line2d_94">
    <path d="M 250.79 212.246271 
L 261.04496 205.137945 
L 267.043727 196.66943 
L 271.29992 187.138382 
L 279.579313 168.020415 
L 283.297454 160.371502 
L 286.266333 155.12535 
L 288.737862 151.421456 
L 290.855007 148.708753 
L 293.552414 145.762281 
L 296.521293 142.950211 
L 302.52006 137.406639 
L 304.991589 134.787956 
L 307.433907 131.87332 
L 309.806142 128.684938 
L 312.086767 125.261547 
L 314.467696 121.298146 
L 317.031213 116.5835 
L 319.784556 111.023888 
L 322.804102 104.405605 
L 326.773008 95.117991 
L 333.507423 79.3025 
L 336.13104 73.757708 
L 338.278976 69.713423 
L 340.189424 66.574586 
L 341.943707 64.11234 
L 343.567895 62.204343 
L 345.132273 60.700162 
L 346.683508 59.514415 
L 348.251354 58.59658 
L 349.889403 57.898134 
L 351.674482 57.383532 
L 353.738714 57.027041 
L 356.384465 56.809089 
L 360.611227 56.713958 
L 376.8 56.702775 
L 376.8 56.702775 
" clip-path="url(#p5e373e7b79)" style="fill: none; stroke: #d95319; stroke-width: 2; stroke-linecap: square"/>
   </g>
   <g id="line2d_95">
    <path d="M 250.79 55.529933 
L 376.8 55.529933 
L 376.8 55.529933 
" clip-path="url(#p5e373e7b79)" style="fill: none; stroke-dasharray: 7.4,3.2; stroke-dashoffset: 0; stroke: #b2b2b2; stroke-width: 2"/>
   </g>
   <g id="patch_8">
    <path d="M 250.79 314.728 
L 250.79 28.32 
" style="fill: none; stroke: #000000; stroke-width: 0.8; stroke-linejoin: miter; stroke-linecap: square"/>
   </g>
   <g id="patch_9">
    <path d="M 376.8 314.728 
L 376.8 28.32 
" style="fill: none; stroke: #000000; stroke-width: 0.8; stroke-linejoin: miter; stroke-linecap: square"/>
   </g>
   <g id="patch_10">
    <path d="M 250.79 314.728 
L 376.8 314.728 
" style="fill: none; stroke: #000000; stroke-width: 0.8; stroke-linejoin: miter; stroke-linecap: square"/>
   </g>
   <g id="patch_11">
    <path d="M 250.79 28.32 
L 376.8 28.32 
" style="fill: none; stroke: #000000; stroke-width: 0.8; stroke-linejoin: miter; stroke-linecap: square"/>
   </g>
   <g id="text_32">
    <!-- Followers -->
    <g transform="translate(270.64875 22.32) scale(0.16 -0.16)">
     <defs>
      <path id="DejaVuSans-Bold-46" d="M 588 4666 
L 3834 4666 
L 3834 3756 
L 1791 3756 
L 1791 2888 
L 3713 2888 
L 3713 1978 
L 1791 1978 
L 1791 0 
L 588 0 
L 588 4666 
z
" transform="scale(0.015625)"/>
      <path id="DejaVuSans-Bold-6f" d="M 2203 2784 
Q 1831 2784 1636 2517 
Q 1441 2250 1441 1747 
Q 1441 1244 1636 976 
Q 1831 709 2203 709 
Q 2569 709 2762 976 
Q 2956 1244 2956 1747 
Q 2956 2250 2762 2517 
Q 2569 2784 2203 2784 
z
M 2203 3584 
Q 3106 3584 3614 3096 
Q 4122 2609 4122 1747 
Q 4122 884 3614 396 
Q 3106 -91 2203 -91 
Q 1297 -91 786 396 
Q 275 884 275 1747 
Q 275 2609 786 3096 
Q 1297 3584 2203 3584 
z
" transform="scale(0.015625)"/>
      <path id="DejaVuSans-Bold-6c" d="M 538 4863 
L 1656 4863 
L 1656 0 
L 538 0 
L 538 4863 
z
" transform="scale(0.015625)"/>
      <path id="DejaVuSans-Bold-77" d="M 225 3500 
L 1313 3500 
L 1900 1088 
L 2491 3500 
L 3425 3500 
L 4013 1113 
L 4603 3500 
L 5691 3500 
L 4769 0 
L 3547 0 
L 2956 2406 
L 2369 0 
L 1147 0 
L 225 3500 
z
" transform="scale(0.015625)"/>
     </defs>
     <use xlink:href="#DejaVuSans-Bold-46"/>
     <use xlink:href="#DejaVuSans-Bold-6f" transform="translate(64.310547 0)"/>
     <use xlink:href="#DejaVuSans-Bold-6c" transform="translate(133.011719 0)"/>
     <use xlink:href="#DejaVuSans-Bold-6c" transform="translate(167.289062 0)"/>
     <use xlink:href="#DejaVuSans-Bold-6f" transform="translate(201.566406 0)"/>
     <use xlink:href="#DejaVuSans-Bold-77" transform="translate(270.267578 0)"/>
     <use xlink:href="#DejaVuSans-Bold-65" transform="translate(362.650391 0)"/>
     <use xlink:href="#DejaVuSans-Bold-72" transform="translate(430.472656 0)"/>
     <use xlink:href="#DejaVuSans-Bold-73" transform="translate(479.789062 0)"/>
    </g>
   </g>
  </g>
  <g id="axes_3">
   <g id="patch_12">
    <path d="M 439.19 314.728 
L 565.2 314.728 
L 565.2 28.32 
L 439.19 28.32 
z
" style="fill: #ffffff"/>
   </g>
   <g id="matplotlib.axis_5">
    <g id="xtick_65">
     <g id="line2d_96">
      <g>
       <use xlink:href="#mf24b254bd8" x="439.19" y="314.728" style="stroke: #000000; stroke-width: 0.8"/>
      </g>
     </g>
     <g id="text_33">
      <!-- $\mathdefault{10^{0}}$ -->
      <g transform="translate(430.39 329.326437) scale(0.1 -0.1)">
       <use xlink:href="#DejaVuSans-31" transform="translate(0 0.765625)"/>
       <use xlink:href="#DejaVuSans-30" transform="translate(63.623047 0.765625)"/>
       <use xlink:href="#DejaVuSans-30" transform="translate(128.203125 39.046875) scale(0.7)"/>
      </g>
     </g>
    </g>
    <g id="xtick_66">
     <g id="line2d_97">
      <g>
       <use xlink:href="#mf24b254bd8" x="473.25624" y="314.728" style="stroke: #000000; stroke-width: 0.8"/>
      </g>
     </g>
     <g id="text_34">
      <!-- $\mathdefault{10^{1}}$ -->
      <g transform="translate(464.45624 329.326437) scale(0.1 -0.1)">
       <use xlink:href="#DejaVuSans-31" transform="translate(0 0.684375)"/>
       <use xlink:href="#DejaVuSans-30" transform="translate(63.623047 0.684375)"/>
       <use xlink:href="#DejaVuSans-31" transform="translate(128.203125 38.965625) scale(0.7)"/>
      </g>
     </g>
    </g>
    <g id="xtick_67">
     <g id="line2d_98">
      <g>
       <use xlink:href="#mf24b254bd8" x="507.32248" y="314.728" style="stroke: #000000; stroke-width: 0.8"/>
      </g>
     </g>
     <g id="text_35">
      <!-- $\mathdefault{10^{2}}$ -->
      <g transform="translate(498.52248 329.326437) scale(0.1 -0.1)">
       <use xlink:href="#DejaVuSans-31" transform="translate(0 0.765625)"/>
       <use xlink:href="#DejaVuSans-30" transform="translate(63.623047 0.765625)"/>
       <use xlink:href="#DejaVuSans-32" transform="translate(128.203125 39.046875) scale(0.7)"/>
      </g>
     </g>
    </g>
    <g id="xtick_68">
     <g id="line2d_99">
      <g>
       <use xlink:href="#mf24b254bd8" x="541.38872" y="314.728" style="stroke: #000000; stroke-width: 0.8"/>
      </g>
     </g>
     <g id="text_36">
      <!-- $\mathdefault{10^{3}}$ -->
      <g transform="translate(532.58872 329.326437) scale(0.1 -0.1)">
       <use xlink:href="#DejaVuSans-31" transform="translate(0 0.765625)"/>
       <use xlink:href="#DejaVuSans-30" transform="translate(63.623047 0.765625)"/>
       <use xlink:href="#DejaVuSans-33" transform="translate(128.203125 39.046875) scale(0.7)"/>
      </g>
     </g>
    </g>
    <g id="xtick_69">
     <g id="line2d_100">
      <g>
       <use xlink:href="#m95abbd2a8f" x="449.44496" y="314.728" style="stroke: #000000; stroke-width: 0.6"/>
      </g>
     </g>
    </g>
    <g id="xtick_70">
     <g id="line2d_101">
      <g>
       <use xlink:href="#m95abbd2a8f" x="455.443727" y="314.728" style="stroke: #000000; stroke-width: 0.6"/>
      </g>
     </g>
    </g>
    <g id="xtick_71">
     <g id="line2d_102">
      <g>
       <use xlink:href="#m95abbd2a8f" x="459.69992" y="314.728" style="stroke: #000000; stroke-width: 0.6"/>
      </g>
     </g>
    </g>
    <g id="xtick_72">
     <g id="line2d_103">
      <g>
       <use xlink:href="#m95abbd2a8f" x="463.00128" y="314.728" style="stroke: #000000; stroke-width: 0.6"/>
      </g>
     </g>
    </g>
    <g id="xtick_73">
     <g id="line2d_104">
      <g>
       <use xlink:href="#m95abbd2a8f" x="465.698687" y="314.728" style="stroke: #000000; stroke-width: 0.6"/>
      </g>
     </g>
    </g>
    <g id="xtick_74">
     <g id="line2d_105">
      <g>
       <use xlink:href="#m95abbd2a8f" x="467.979313" y="314.728" style="stroke: #000000; stroke-width: 0.6"/>
      </g>
     </g>
    </g>
    <g id="xtick_75">
     <g id="line2d_106">
      <g>
       <use xlink:href="#m95abbd2a8f" x="469.95488" y="314.728" style="stroke: #000000; stroke-width: 0.6"/>
      </g>
     </g>
    </g>
    <g id="xtick_76">
     <g id="line2d_107">
      <g>
       <use xlink:href="#m95abbd2a8f" x="471.697454" y="314.728" style="stroke: #000000; stroke-width: 0.6"/>
      </g>
     </g>
    </g>
    <g id="xtick_77">
     <g id="line2d_108">
      <g>
       <use xlink:href="#m95abbd2a8f" x="483.5112" y="314.728" style="stroke: #000000; stroke-width: 0.6"/>
      </g>
     </g>
    </g>
    <g id="xtick_78">
     <g id="line2d_109">
      <g>
       <use xlink:href="#m95abbd2a8f" x="489.509967" y="314.728" style="stroke: #000000; stroke-width: 0.6"/>
      </g>
     </g>
    </g>
    <g id="xtick_79">
     <g id="line2d_110">
      <g>
       <use xlink:href="#m95abbd2a8f" x="493.76616" y="314.728" style="stroke: #000000; stroke-width: 0.6"/>
      </g>
     </g>
    </g>
    <g id="xtick_80">
     <g id="line2d_111">
      <g>
       <use xlink:href="#m95abbd2a8f" x="497.06752" y="314.728" style="stroke: #000000; stroke-width: 0.6"/>
      </g>
     </g>
    </g>
    <g id="xtick_81">
     <g id="line2d_112">
      <g>
       <use xlink:href="#m95abbd2a8f" x="499.764927" y="314.728" style="stroke: #000000; stroke-width: 0.6"/>
      </g>
     </g>
    </g>
    <g id="xtick_82">
     <g id="line2d_113">
      <g>
       <use xlink:href="#m95abbd2a8f" x="502.045553" y="314.728" style="stroke: #000000; stroke-width: 0.6"/>
      </g>
     </g>
    </g>
    <g id="xtick_83">
     <g id="line2d_114">
      <g>
       <use xlink:href="#m95abbd2a8f" x="504.02112" y="314.728" style="stroke: #000000; stroke-width: 0.6"/>
      </g>
     </g>
    </g>
    <g id="xtick_84">
     <g id="line2d_115">
      <g>
       <use xlink:href="#m95abbd2a8f" x="505.763694" y="314.728" style="stroke: #000000; stroke-width: 0.6"/>
      </g>
     </g>
    </g>
    <g id="xtick_85">
     <g id="line2d_116">
      <g>
       <use xlink:href="#m95abbd2a8f" x="517.57744" y="314.728" style="stroke: #000000; stroke-width: 0.6"/>
      </g>
     </g>
    </g>
    <g id="xtick_86">
     <g id="line2d_117">
      <g>
       <use xlink:href="#m95abbd2a8f" x="523.576207" y="314.728" style="stroke: #000000; stroke-width: 0.6"/>
      </g>
     </g>
    </g>
    <g id="xtick_87">
     <g id="line2d_118">
      <g>
       <use xlink:href="#m95abbd2a8f" x="527.8324" y="314.728" style="stroke: #000000; stroke-width: 0.6"/>
      </g>
     </g>
    </g>
    <g id="xtick_88">
     <g id="line2d_119">
      <g>
       <use xlink:href="#m95abbd2a8f" x="531.13376" y="314.728" style="stroke: #000000; stroke-width: 0.6"/>
      </g>
     </g>
    </g>
    <g id="xtick_89">
     <g id="line2d_120">
      <g>
       <use xlink:href="#m95abbd2a8f" x="533.831167" y="314.728" style="stroke: #000000; stroke-width: 0.6"/>
      </g>
     </g>
    </g>
    <g id="xtick_90">
     <g id="line2d_121">
      <g>
       <use xlink:href="#m95abbd2a8f" x="536.111793" y="314.728" style="stroke: #000000; stroke-width: 0.6"/>
      </g>
     </g>
    </g>
    <g id="xtick_91">
     <g id="line2d_122">
      <g>
       <use xlink:href="#m95abbd2a8f" x="538.08736" y="314.728" style="stroke: #000000; stroke-width: 0.6"/>
      </g>
     </g>
    </g>
    <g id="xtick_92">
     <g id="line2d_123">
      <g>
       <use xlink:href="#m95abbd2a8f" x="539.829934" y="314.728" style="stroke: #000000; stroke-width: 0.6"/>
      </g>
     </g>
    </g>
    <g id="xtick_93">
     <g id="line2d_124">
      <g>
       <use xlink:href="#m95abbd2a8f" x="551.64368" y="314.728" style="stroke: #000000; stroke-width: 0.6"/>
      </g>
     </g>
    </g>
    <g id="xtick_94">
     <g id="line2d_125">
      <g>
       <use xlink:href="#m95abbd2a8f" x="557.642447" y="314.728" style="stroke: #000000; stroke-width: 0.6"/>
      </g>
     </g>
    </g>
    <g id="xtick_95">
     <g id="line2d_126">
      <g>
       <use xlink:href="#m95abbd2a8f" x="561.89864" y="314.728" style="stroke: #000000; stroke-width: 0.6"/>
      </g>
     </g>
    </g>
    <g id="xtick_96">
     <g id="line2d_127">
      <g>
       <use xlink:href="#m95abbd2a8f" x="565.2" y="314.728" style="stroke: #000000; stroke-width: 0.6"/>
      </g>
     </g>
    </g>
    <g id="text_37">
     <!-- timestep -->
     <g transform="translate(480.083281 343.004562) scale(0.1 -0.1)">
      <use xlink:href="#DejaVuSans-74"/>
      <use xlink:href="#DejaVuSans-69" transform="translate(39.208984 0)"/>
      <use xlink:href="#DejaVuSans-6d" transform="translate(66.992188 0)"/>
      <use xlink:href="#DejaVuSans-65" transform="translate(164.404297 0)"/>
      <use xlink:href="#DejaVuSans-73" transform="translate(225.927734 0)"/>
      <use xlink:href="#DejaVuSans-74" transform="translate(278.027344 0)"/>
      <use xlink:href="#DejaVuSans-65" transform="translate(317.236328 0)"/>
      <use xlink:href="#DejaVuSans-70" transform="translate(378.759766 0)"/>
     </g>
    </g>
   </g>
   <g id="matplotlib.axis_6">
    <g id="ytick_19">
     <g id="line2d_128">
      <g>
       <use xlink:href="#m5cb408c36e" x="439.19" y="314.728" style="stroke: #000000; stroke-width: 0.8"/>
      </g>
     </g>
     <g id="text_38">
      <!-- −1.00 -->
      <g transform="translate(401.544688 318.527219) scale(0.1 -0.1)">
       <use xlink:href="#DejaVuSans-2212"/>
       <use xlink:href="#DejaVuSans-31" transform="translate(83.789062 0)"/>
       <use xlink:href="#DejaVuSans-2e" transform="translate(147.412109 0)"/>
       <use xlink:href="#DejaVuSans-30" transform="translate(179.199219 0)"/>
       <use xlink:href="#DejaVuSans-30" transform="translate(242.822266 0)"/>
      </g>
     </g>
    </g>
    <g id="ytick_20">
     <g id="line2d_129">
      <g>
       <use xlink:href="#m5cb408c36e" x="439.19" y="278.927" style="stroke: #000000; stroke-width: 0.8"/>
      </g>
     </g>
     <g id="text_39">
      <!-- −0.75 -->
      <g transform="translate(401.544688 282.726219) scale(0.1 -0.1)">
       <use xlink:href="#DejaVuSans-2212"/>
       <use xlink:href="#DejaVuSans-30" transform="translate(83.789062 0)"/>
       <use xlink:href="#DejaVuSans-2e" transform="translate(147.412109 0)"/>
       <use xlink:href="#DejaVuSans-37" transform="translate(179.199219 0)"/>
       <use xlink:href="#DejaVuSans-35" transform="translate(242.822266 0)"/>
      </g>
     </g>
    </g>
    <g id="ytick_21">
     <g id="line2d_130">
      <g>
       <use xlink:href="#m5cb408c36e" x="439.19" y="243.126" style="stroke: #000000; stroke-width: 0.8"/>
      </g>
     </g>
     <g id="text_40">
      <!-- −0.50 -->
      <g transform="translate(401.544688 246.925219) scale(0.1 -0.1)">
       <use xlink:href="#DejaVuSans-2212"/>
       <use xlink:href="#DejaVuSans-30" transform="translate(83.789062 0)"/>
       <use xlink:href="#DejaVuSans-2e" transform="translate(147.412109 0)"/>
       <use xlink:href="#DejaVuSans-35" transform="translate(179.199219 0)"/>
       <use xlink:href="#DejaVuSans-30" transform="translate(242.822266 0)"/>
      </g>
     </g>
    </g>
    <g id="ytick_22">
     <g id="line2d_131">
      <g>
       <use xlink:href="#m5cb408c36e" x="439.19" y="207.325" style="stroke: #000000; stroke-width: 0.8"/>
      </g>
     </g>
     <g id="text_41">
      <!-- −0.25 -->
      <g transform="translate(401.544688 211.124219) scale(0.1 -0.1)">
       <use xlink:href="#DejaVuSans-2212"/>
       <use xlink:href="#DejaVuSans-30" transform="translate(83.789062 0)"/>
       <use xlink:href="#DejaVuSans-2e" transform="translate(147.412109 0)"/>
       <use xlink:href="#DejaVuSans-32" transform="translate(179.199219 0)"/>
       <use xlink:href="#DejaVuSans-35" transform="translate(242.822266 0)"/>
      </g>
     </g>
    </g>
    <g id="ytick_23">
     <g id="line2d_132">
      <g>
       <use xlink:href="#m5cb408c36e" x="439.19" y="171.524" style="stroke: #000000; stroke-width: 0.8"/>
      </g>
     </g>
     <g id="text_42">
      <!-- 0.00 -->
      <g transform="translate(409.924375 175.323219) scale(0.1 -0.1)">
       <use xlink:href="#DejaVuSans-30"/>
       <use xlink:href="#DejaVuSans-2e" transform="translate(63.623047 0)"/>
       <use xlink:href="#DejaVuSans-30" transform="translate(95.410156 0)"/>
       <use xlink:href="#DejaVuSans-30" transform="translate(159.033203 0)"/>
      </g>
     </g>
    </g>
    <g id="ytick_24">
     <g id="line2d_133">
      <g>
       <use xlink:href="#m5cb408c36e" x="439.19" y="135.723" style="stroke: #000000; stroke-width: 0.8"/>
      </g>
     </g>
     <g id="text_43">
      <!-- 0.25 -->
      <g transform="translate(409.924375 139.522219) scale(0.1 -0.1)">
       <use xlink:href="#DejaVuSans-30"/>
       <use xlink:href="#DejaVuSans-2e" transform="translate(63.623047 0)"/>
       <use xlink:href="#DejaVuSans-32" transform="translate(95.410156 0)"/>
       <use xlink:href="#DejaVuSans-35" transform="translate(159.033203 0)"/>
      </g>
     </g>
    </g>
    <g id="ytick_25">
     <g id="line2d_134">
      <g>
       <use xlink:href="#m5cb408c36e" x="439.19" y="99.922" style="stroke: #000000; stroke-width: 0.8"/>
      </g>
     </g>
     <g id="text_44">
      <!-- 0.50 -->
      <g transform="translate(409.924375 103.721219) scale(0.1 -0.1)">
       <use xlink:href="#DejaVuSans-30"/>
       <use xlink:href="#DejaVuSans-2e" transform="translate(63.623047 0)"/>
       <use xlink:href="#DejaVuSans-35" transform="translate(95.410156 0)"/>
       <use xlink:href="#DejaVuSans-30" transform="translate(159.033203 0)"/>
      </g>
     </g>
    </g>
    <g id="ytick_26">
     <g id="line2d_135">
      <g>
       <use xlink:href="#m5cb408c36e" x="439.19" y="64.121" style="stroke: #000000; stroke-width: 0.8"/>
      </g>
     </g>
     <g id="text_45">
      <!-- 0.75 -->
      <g transform="translate(409.924375 67.920219) scale(0.1 -0.1)">
       <use xlink:href="#DejaVuSans-30"/>
       <use xlink:href="#DejaVuSans-2e" transform="translate(63.623047 0)"/>
       <use xlink:href="#DejaVuSans-37" transform="translate(95.410156 0)"/>
       <use xlink:href="#DejaVuSans-35" transform="translate(159.033203 0)"/>
      </g>
     </g>
    </g>
    <g id="ytick_27">
     <g id="line2d_136">
      <g>
       <use xlink:href="#m5cb408c36e" x="439.19" y="28.32" style="stroke: #000000; stroke-width: 0.8"/>
      </g>
     </g>
     <g id="text_46">
      <!-- 1.00 -->
      <g transform="translate(409.924375 32.119219) scale(0.1 -0.1)">
       <use xlink:href="#DejaVuSans-31"/>
       <use xlink:href="#DejaVuSans-2e" transform="translate(63.623047 0)"/>
       <use xlink:href="#DejaVuSans-30" transform="translate(95.410156 0)"/>
       <use xlink:href="#DejaVuSans-30" transform="translate(159.033203 0)"/>
      </g>
     </g>
    </g>
    <g id="text_47">
     <!-- opinion -->
     <g transform="translate(395.465 189.932594) rotate(-90) scale(0.1 -0.1)">
      <use xlink:href="#DejaVuSans-6f"/>
      <use xlink:href="#DejaVuSans-70" transform="translate(61.181641 0)"/>
      <use xlink:href="#DejaVuSans-69" transform="translate(124.658203 0)"/>
      <use xlink:href="#DejaVuSans-6e" transform="translate(152.441406 0)"/>
      <use xlink:href="#DejaVuSans-69" transform="translate(215.820312 0)"/>
      <use xlink:href="#DejaVuSans-6f" transform="translate(243.603516 0)"/>
      <use xlink:href="#DejaVuSans-6e" transform="translate(304.785156 0)"/>
     </g>
    </g>
   </g>
   <g id="line2d_137">
    <path d="M 439.19 171.238988 
L 449.44496 170.219773 
L 455.443727 169.30248 
L 463.00128 167.733908 
L 469.95488 165.921712 
L 480.20984 163.145312 
L 484.23304 162.285966 
L 487.951182 161.705362 
L 491.790593 161.330312 
L 496.463568 161.118894 
L 504.02112 161.049313 
L 565.2 161.046839 
L 565.2 161.046839 
" clip-path="url(#pa8a5ca4462)" style="fill: none; stroke: #000000; stroke-width: 2; stroke-linecap: square"/>
   </g>
   <g id="line2d_138">
    <path d="M 439.19 118.978748 
L 449.44496 121.267498 
L 455.443727 123.398496 
L 459.69992 125.384881 
L 463.00128 127.23886 
L 465.698687 128.971466 
L 469.95488 132.151249 
L 478.234273 145.690538 
L 481.106768 149.852095 
L 483.5112 152.885871 
L 485.578947 155.097493 
L 487.392822 156.709766 
L 489.008401 157.885113 
L 490.92006 158.97243 
L 492.612736 159.68582 
L 494.488 160.243171 
L 496.768625 160.662447 
L 499.51627 160.91281 
L 503.646549 161.028734 
L 517.050344 161.046839 
L 565.2 161.046839 
L 565.2 161.046839 
" clip-path="url(#pa8a5ca4462)" style="fill: none; stroke: #000000; stroke-width: 2; stroke-linecap: square"/>
   </g>
   <g id="line2d_139">
    <path d="M 439.19 110.604438 
L 449.44496 113.646876 
L 455.443727 116.46373 
L 459.69992 119.074244 
L 463.00128 121.496181 
L 465.698687 123.745627 
L 469.95488 127.823732 
L 471.697454 129.672875 
L 477.137862 140.462381 
L 480.20984 146.040769 
L 482.752327 150.107414 
L 484.921293 153.071998 
L 486.81256 155.23318 
L 488.489233 156.808682 
L 489.995085 157.957222 
L 491.790593 159.019742 
L 493.391589 159.71686 
L 495.176253 160.2615 
L 497.360495 160.671214 
L 500.009475 160.915867 
L 504.02112 161.029147 
L 517.353837 161.046839 
L 565.2 161.046839 
L 565.2 161.046839 
" clip-path="url(#pa8a5ca4462)" style="fill: none; stroke: #000000; stroke-width: 2; stroke-linecap: square"/>
   </g>
   <g id="line2d_140">
    <path d="M 439.19 208.685222 
L 449.44496 205.388911 
L 455.443727 200.954704 
L 459.69992 196.963917 
L 463.00128 193.372209 
L 465.698687 190.139672 
L 469.95488 184.612034 
L 478.234273 173.57035 
L 481.106768 170.176478 
L 483.5112 167.702346 
L 485.578947 165.898704 
L 487.392822 164.583848 
L 489.509967 163.367471 
L 491.361728 162.569406 
L 493.391589 161.945899 
L 495.508734 161.524637 
L 498.206142 161.231948 
L 502.045553 161.08114 
L 510.858683 161.046924 
L 565.2 161.046839 
L 565.2 161.046839 
" clip-path="url(#pa8a5ca4462)" style="fill: none; stroke: #000000; stroke-width: 2; stroke-linecap: square"/>
   </g>
   <g id="line2d_141">
    <path d="M 439.19 153.996923 
L 449.44496 153.134038 
L 459.69992 151.773563 
L 463.00128 151.25256 
L 467.979313 153.113473 
L 481.106768 158.280645 
L 484.921293 159.413429 
L 487.951182 160.082327 
L 491.361728 160.585516 
L 495.176253 160.885986 
L 500.250046 161.022696 
L 513.419552 161.046837 
L 565.2 161.046839 
L 565.2 161.046839 
" clip-path="url(#pa8a5ca4462)" style="fill: none; stroke: #000000; stroke-width: 2; stroke-linecap: square"/>
   </g>
   <g id="line2d_142">
    <path d="M 439.19 170.640957 
L 449.44496 169.681545 
L 455.443727 168.818074 
L 463.00128 167.34154 
L 469.95488 165.635676 
L 480.20984 163.022183 
L 484.921293 162.096618 
L 489.008401 161.548945 
L 493.007287 161.241365 
L 498.206142 161.082885 
L 509.261014 161.046904 
L 565.2 161.046839 
L 565.2 161.046839 
" clip-path="url(#pa8a5ca4462)" style="fill: none; stroke: #000000; stroke-width: 2; stroke-linecap: square"/>
   </g>
   <g id="line2d_143">
    <path d="M 439.19 310.784606 
L 449.44496 305.961091 
L 455.443727 301.243421 
L 459.69992 296.606568 
L 463.00128 292.058087 
L 465.698687 286.1961 
L 467.979313 280.558355 
L 469.95488 275.140525 
L 471.697454 268.50792 
L 473.25624 260.863619 
L 474.666333 252.398514 
L 478.234273 227.64221 
L 481.106768 209.594864 
L 483.5112 196.43835 
L 485.578947 186.84725 
L 487.392822 179.855339 
L 489.008401 174.758235 
L 490.4648 171.042447 
L 491.790593 168.333637 
L 493.007287 166.358915 
L 494.131482 164.919342 
L 495.176253 163.869894 
L 496.463568 162.899045 
L 497.647782 162.262072 
L 499.006054 161.764422 
L 500.719761 161.390057 
L 502.867696 161.166512 
L 506.407047 161.061388 
L 519.900276 161.046839 
L 565.2 161.046839 
L 565.2 161.046839 
" clip-path="url(#pa8a5ca4462)" style="fill: none; stroke: #000000; stroke-width: 2; stroke-linecap: square"/>
   </g>
   <g id="line2d_144">
    <path d="M 439.19 93.384273 
L 449.44496 97.976526 
L 455.443727 102.203712 
L 459.69992 106.097628 
L 463.00128 109.687459 
L 465.698687 112.999691 
L 467.979313 116.072442 
L 471.697454 121.575049 
L 473.25624 124.052899 
L 477.137862 134.078257 
L 480.20984 141.386743 
L 482.752327 146.714629 
L 484.921293 150.598658 
L 486.81256 153.430115 
L 488.489233 155.494247 
L 489.995085 156.999 
L 491.361728 158.095964 
L 493.007287 159.11077 
L 494.488 159.776584 
L 496.152087 160.296766 
L 498.206142 160.688082 
L 500.719761 160.921748 
L 504.74296 161.031631 
L 519.254113 161.046839 
L 565.2 161.046839 
L 565.2 161.046839 
" clip-path="url(#pa8a5ca4462)" style="fill: none; stroke: #000000; stroke-width: 2; stroke-linecap: square"/>
   </g>
   <g id="line2d_145">
    <path d="M 439.19 61.932502 
L 449.44496 66.404995 
L 455.443727 73.473618 
L 459.69992 79.953243 
L 463.00128 85.896069 
L 465.698687 91.349526 
L 467.979313 96.370791 
L 471.697454 105.260112 
L 474.666333 112.873787 
L 478.234273 125.928684 
L 481.106768 135.445704 
L 483.5112 142.383612 
L 485.578947 147.441346 
L 487.392822 151.128435 
L 489.008401 153.816322 
L 490.4648 155.775792 
L 491.790593 157.204246 
L 493.007287 158.245589 
L 494.488 159.208939 
L 495.833907 159.840993 
L 497.360495 160.334799 
L 499.263361 160.706272 
L 501.616688 160.928091 
L 505.431213 161.032402 
L 519.963367 161.046839 
L 565.2 161.046839 
L 565.2 161.046839 
" clip-path="url(#pa8a5ca4462)" style="fill: none; stroke: #000000; stroke-width: 2; stroke-linecap: square"/>
   </g>
   <g id="line2d_146">
    <path d="M 439.19 210.221735 
L 449.44496 206.787138 
L 455.443727 202.213108 
L 459.69992 198.096481 
L 463.00128 194.391517 
L 465.698687 191.057049 
L 469.95488 185.355109 
L 478.234273 173.96525 
L 481.106768 170.464361 
L 483.5112 167.912213 
L 485.578947 166.051696 
L 487.392822 164.69538 
L 489.509967 163.440647 
L 491.361728 162.617416 
L 493.391589 161.974249 
L 495.508734 161.539703 
L 498.206142 161.237785 
L 501.832674 161.086153 
L 509.896081 161.047042 
L 565.2 161.046839 
L 565.2 161.046839 
" clip-path="url(#pa8a5ca4462)" style="fill: none; stroke: #000000; stroke-width: 2; stroke-linecap: square"/>
   </g>
   <g id="line2d_147">
    <path d="M 439.19 55.529933 
L 565.2 55.529933 
L 565.2 55.529933 
" clip-path="url(#pa8a5ca4462)" style="fill: none; stroke-dasharray: 7.4,3.2; stroke-dashoffset: 0; stroke: #b2b2b2; stroke-width: 2"/>
   </g>
   <g id="patch_13">
    <path d="M 439.19 314.728 
L 439.19 28.32 
" style="fill: none; stroke: #000000; stroke-width: 0.8; stroke-linejoin: miter; stroke-linecap: square"/>
   </g>
   <g id="patch_14">
    <path d="M 565.2 314.728 
L 565.2 28.32 
" style="fill: none; stroke: #000000; stroke-width: 0.8; stroke-linejoin: miter; stroke-linecap: square"/>
   </g>
   <g id="patch_15">
    <path d="M 439.19 314.728 
L 565.2 314.728 
" style="fill: none; stroke: #000000; stroke-width: 0.8; stroke-linejoin: miter; stroke-linecap: square"/>
   </g>
   <g id="patch_16">
    <path d="M 439.19 28.32 
L 565.2 28.32 
" style="fill: none; stroke: #000000; stroke-width: 0.8; stroke-linejoin: miter; stroke-linecap: square"/>
   </g>
   <g id="text_48">
    <!-- Uninformed -->
    <g transform="translate(449.15625 22.32) scale(0.16 -0.16)">
     <defs>
      <path id="DejaVuSans-Bold-55" d="M 588 4666 
L 1791 4666 
L 1791 1869 
Q 1791 1291 1980 1042 
Q 2169 794 2597 794 
Q 3028 794 3217 1042 
Q 3406 1291 3406 1869 
L 3406 4666 
L 4609 4666 
L 4609 1869 
Q 4609 878 4112 393 
Q 3616 -91 2597 -91 
Q 1581 -91 1084 393 
Q 588 878 588 1869 
L 588 4666 
z
" transform="scale(0.015625)"/>
      <path id="DejaVuSans-Bold-6e" d="M 4056 2131 
L 4056 0 
L 2931 0 
L 2931 347 
L 2931 1631 
Q 2931 2084 2911 2256 
Q 2891 2428 2841 2509 
Q 2775 2619 2662 2680 
Q 2550 2741 2406 2741 
Q 2056 2741 1856 2470 
Q 1656 2200 1656 1722 
L 1656 0 
L 538 0 
L 538 3500 
L 1656 3500 
L 1656 2988 
Q 1909 3294 2193 3439 
Q 2478 3584 2822 3584 
Q 3428 3584 3742 3212 
Q 4056 2841 4056 2131 
z
" transform="scale(0.015625)"/>
      <path id="DejaVuSans-Bold-69" d="M 538 3500 
L 1656 3500 
L 1656 0 
L 538 0 
L 538 3500 
z
M 538 4863 
L 1656 4863 
L 1656 3950 
L 538 3950 
L 538 4863 
z
" transform="scale(0.015625)"/>
      <path id="DejaVuSans-Bold-66" d="M 2841 4863 
L 2841 4128 
L 2222 4128 
Q 1984 4128 1890 4042 
Q 1797 3956 1797 3744 
L 1797 3500 
L 2753 3500 
L 2753 2700 
L 1797 2700 
L 1797 0 
L 678 0 
L 678 2700 
L 122 2700 
L 122 3500 
L 678 3500 
L 678 3744 
Q 678 4316 997 4589 
Q 1316 4863 1984 4863 
L 2841 4863 
z
" transform="scale(0.015625)"/>
      <path id="DejaVuSans-Bold-6d" d="M 3781 2919 
Q 3994 3244 4286 3414 
Q 4578 3584 4928 3584 
Q 5531 3584 5847 3212 
Q 6163 2841 6163 2131 
L 6163 0 
L 5038 0 
L 5038 1825 
Q 5041 1866 5042 1909 
Q 5044 1953 5044 2034 
Q 5044 2406 4934 2573 
Q 4825 2741 4581 2741 
Q 4263 2741 4089 2478 
Q 3916 2216 3909 1719 
L 3909 0 
L 2784 0 
L 2784 1825 
Q 2784 2406 2684 2573 
Q 2584 2741 2328 2741 
Q 2006 2741 1831 2477 
Q 1656 2213 1656 1722 
L 1656 0 
L 531 0 
L 531 3500 
L 1656 3500 
L 1656 2988 
Q 1863 3284 2130 3434 
Q 2397 3584 2719 3584 
Q 3081 3584 3359 3409 
Q 3638 3234 3781 2919 
z
" transform="scale(0.015625)"/>
     </defs>
     <use xlink:href="#DejaVuSans-Bold-55"/>
     <use xlink:href="#DejaVuSans-Bold-6e" transform="translate(81.201172 0)"/>
     <use xlink:href="#DejaVuSans-Bold-69" transform="translate(152.392578 0)"/>
     <use xlink:href="#DejaVuSans-Bold-6e" transform="translate(186.669922 0)"/>
     <use xlink:href="#DejaVuSans-Bold-66" transform="translate(257.861328 0)"/>
     <use xlink:href="#DejaVuSans-Bold-6f" transform="translate(301.367188 0)"/>
     <use xlink:href="#DejaVuSans-Bold-72" transform="translate(370.068359 0)"/>
     <use xlink:href="#DejaVuSans-Bold-6d" transform="translate(419.384766 0)"/>
     <use xlink:href="#DejaVuSans-Bold-65" transform="translate(523.583984 0)"/>
     <use xlink:href="#DejaVuSans-Bold-64" transform="translate(591.40625 0)"/>
    </g>
   </g>
  </g>
 </g>
 <defs>
  <clipPath id="p6fc34186fa">
   <rect x="62.39" y="28.32" width="126.01" height="286.408"/>
  </clipPath>
  <clipPath id="p5e373e7b79">
   <rect x="250.79" y="28.32" width="126.01" height="286.408"/>
  </clipPath>
  <clipPath id="pa8a5ca4462">
   <rect x="439.19" y="28.32" width="126.01" height="286.408"/>
  </clipPath>
 </defs>
</svg>
